<?xml version="1.0" encoding="utf-8"?>
<!-- Generator: Adobe Illustrator 22.0.0, SVG Export Plug-In . SVG Version: 6.00 Build 0)  -->
<svg version="1.1" id="Capa_1" xmlns="http://www.w3.org/2000/svg" xmlns:xlink="http://www.w3.org/1999/xlink" x="0px" y="0px"
	 viewBox="0 0 400 300" style="enable-background:new 0 0 400 300;" xml:space="preserve">
<style type="text/css">
	.st0{fill:#FCFCFC;}
	.st1{fill:#FEFEFE;}
	.st2{fill:#254C99;}
	.st3{fill:#60C5E9;}
	.st4{fill:#86D3EE;}
	.st5{fill:#91A4CB;}
	.st6{fill:#254C9A;}
	.st7{fill:#61C6E9;}
	.st8{fill:#264D9A;}
	.st9{fill:#60C6E9;}
	.st10{fill:#D2EFF8;}
</style>
<rect class="st0" width="400" height="300"/>
<g>
	<path class="st1" d="M21.6,152.3c0-28.9,0-57.8-0.1-86.6c0-1.9,0.4-2.3,2.3-2.3c29.7,0.1,59.4,0.1,89.2,0.1c0,1.6-1.4,1.3-2.3,1.5
		C98,67.3,87.5,73.9,78.3,82.6c-5.1,4.8-9.6,10.1-13.3,14.7c12.7-10.1,26.9-19.5,44.4-22.1c15.7-2.4,29,2.3,39.2,14.8
		c3.2,3.9,6.1,7.8,8.1,12.4c1,2.3,2.3,2.6,4.5,1.5c4.3-2.2,8.9-3.2,14-1.9c-10.6-14.8-22.9-27.3-40.1-34.2c-3.1-1.2-6.2-2-9.4-2.7
		c-1-0.2-2.5,0.1-2.6-1.6c84.5,0,169,0,253.5-0.1c2.4,0,2.9,0.5,2.9,2.9c-0.1,53.4-0.1,106.8,0,160.2c0,2.2-0.4,2.6-2.6,2.6
		c-117.6-0.1-235.2-0.1-352.8,0c-2.2,0-2.6-0.4-2.6-2.6c0.1-22.4,0.1-44.8,0.1-67.3c1.9,0.4,1.4,2.1,1.7,3.3
		c1.7,9,4.3,17.7,9.8,25.2c7.9,10.8,18.9,15.9,31.9,17c2.5,0.2,3.5-0.8,3.3-3.3c-0.2-2.6,0.8-5.6-0.5-7.8c-1.4-2.4-4.7-1.2-7.1-1.7
		c-14.3-3.1-24.6-13.9-27.2-29.2c-3-17,7.8-39.4,29.5-45.2c0.9-0.2,1.8-0.2,3-0.3c-5.6-0.7-10.9,0.1-16,1.4
		C36.2,122,27.8,131,24.3,144.7c-0.5,1.7-0.7,3.5-1.2,5.3C22.9,150.9,23.2,152.3,21.6,152.3z"/>
	<path class="st2" d="M21.6,152.3c1.3-1.9,1.1-4.2,1.5-6.2c5-22.6,22.3-30.4,41.4-29.6c1.2,0,2.3,0.3,4.2,0.5
		c-5.8,1.4-10.8,2.9-15.4,5.7c-12.9,7.9-19.7,20-19.4,34.6c0.3,19.4,12.7,32.8,31.6,34.4c2.8,0.2,3.7,1,3.4,3.8
		c-0.2,2.2-0.3,4.5,0,6.6c0.4,3.3-1,3.7-3.9,3.6c-20.1-1.2-35.2-14.1-40.9-35.2c-1-3.7-1.1-7.6-2.5-11.2c0-0.4,0-0.8,0-1.3
		c0.5-1.5,0.5-3,0-4.4C21.6,153.2,21.6,152.7,21.6,152.3z"/>
	<path class="st3" d="M123.1,63.5c3.8,1.1,7.7,1.9,11.4,3.2c13.3,4.8,23.7,13.6,32.9,24c3.4,3.8,6.7,7.8,9.6,12.7
		c-5.9-2.4-11.1-1.2-15.9,1.4c-2.8,1.5-3.6,0.6-4.8-1.8c-4.6-9.1-10.6-17-19.5-22.4c-9.7-5.9-20.2-6.5-30.9-4.1
		C90.6,79.9,77.7,88,65.7,97.7c-0.6,0.5-1.1,0.9-1.7,1.4c-0.4,0.3-0.8,0.6-1.5,1.1c-0.1-1.5,1-2.2,1.6-3C72.4,86.4,81.8,76.6,94,70
		c5.4-2.9,11.2-5,17.3-5.9c0.6-0.1,1.3,0.1,1.7-0.6c0.8,0,1.7,0,2.5,0c1.7,0.5,3.4,0.5,5.1,0C121.4,63.5,122.3,63.5,123.1,63.5z"/>
	<path class="st4" d="M120.6,63.5c-1.7,1-3.4,1-5.1,0C117.2,63.5,118.9,63.5,120.6,63.5z"/>
	<path class="st5" d="M21.6,153.6c1,1.5,1,3,0,4.4C21.6,156.5,21.6,155.1,21.6,153.6z"/>
	<path class="st2" d="M355.5,173c0,3.5-0.1,6.4,0,9.2c0.1,2-0.8,2.7-2.5,3.2c-11.5,3.6-24-3-27.5-14.5c-3.5-11.6,3.1-24.1,14.5-27.5
		c11.8-3.5,24.3,3.1,27.6,14.8c0.2,0.8,0.5,1.6,0.5,2.5c0.7,9,1.1,18-0.1,26.9c-1.7,13.1-15.9,21.4-28.3,17.1
		c-1.5-0.5-2.3-1.2-2.2-2.9c0.1-2.9,0-5.9,0-9.3c3.8,2.9,7.7,4.4,12.2,3.1c4.9-1.4,8.5-5.4,8.7-10.5c0.3-7.1,0.3-14.2,0.1-21.2
		c-0.2-5.8-4.5-10.5-10-11.5c-5.3-1-11,2-13.3,7.1c-2.3,4.8-0.9,10.9,3.3,14.4c4.4,3.6,10.3,3.8,15.2,0.4
		C354.3,174,354.6,173.8,355.5,173z"/>
	<path class="st3" d="M239.3,155.8c-7.3-4.5-13-4.3-17.6,0.5c-3.8,3.9-4.6,9.8-1.8,14.6c2.6,4.5,8.1,7.1,13,5.9
		c5.8-1.4,9.7-5.7,9.7-11.4c0.1-12.9,0.1-25.8,0-38.7c0-2.8,0.7-3.7,3.5-3.6c6.4,0.2,6.4,0,6.4,6.6c0,11.6,0,23.3,0,34.9
		c0,10.8-8.2,20.5-18.3,21.9c-11.7,1.7-22.1-4.9-24.9-16.2c-2-8-0.3-15.3,5.8-21.2s13.4-7.6,21.7-5.4c1.9,0.5,2.8,1.4,2.7,3.5
		C239.2,149.9,239.3,152.7,239.3,155.8z"/>
	<path class="st3" d="M112.3,164.7c-0.9-10.2,8.6-21.8,21.9-21.8c12,0,21.9,10.3,21.8,22.2c-0.2,12.1-10,21.3-22.3,21.5
		C122.4,186.8,111.4,176.4,112.3,164.7z"/>
	<path class="st2" d="M268.7,115c-4.3-0.3-8.4-0.4-11.2,3.9c-0.9,1.4-1.7-0.5-2.3-1.1c-7.2-7.5-15.8-12.2-26.1-13.8
		c-12.2-1.9-23.9,0.3-35.4,4.3c-6.2,2.2-12.2,5.1-18.4,8.5c15.3-21.3,37.1-29.3,61.5-21.2c11.5,3.8,21.6,10,30.8,17.7
		c0.5,0.4,1.1,0.6,1.6,0.9C269.1,114.4,268.9,114.7,268.7,115z"/>
	<path class="st3" d="M92.1,128.2c0,1-0.1,1.9,0,2.9c0.2,1.7-0.6,2.1-2.2,2.2c-16.1,1.7-24.9,19-16.6,32.9
		c3.2,5.5,8.1,9.1,14.5,10.3c5.1,1,4.2-0.4,4.3,5.2c0.1,5.5,0,5.5-5.4,4.4C70.9,183,59.8,169.5,60.4,154c0.7-16.2,12.8-29,29.1-30.7
		c1.8-0.2,2.9,0.2,2.6,2.3C92,126.5,92.1,127.3,92.1,128.2z"/>
	<path class="st3" d="M378.3,177.1c-0.1,8.2-1.1,16.2-4.2,23.9c-6.4,15.5-18.5,23.6-34.6,26.3c-6.2,1-12.3,0.8-19.4,0.3
		c4.3-4.4,6.5-8.9,4.7-14.9c2.3,0.7,4.2,1.4,6.2,2c15,4.2,26.8,0.1,35.7-12.6c5.6-7.9,9.1-16.6,11-26.1
		C378.8,175.8,378.6,176.4,378.3,177.1z"/>
	<path class="st3" d="M107.2,154.8c0,9.5-0.1,19,0,28.6c0,2.4-0.5,3.3-3.1,3.2c-6.5-0.2-6.6,0-6.6-6.4c0-17.9,0.1-35.8-0.1-53.6
		c0-2.7,0.5-3.7,3.4-3.6c6.2,0.2,6.2,0.1,6.2,6.1C107.2,137.7,107.2,146.3,107.2,154.8z"/>
	<path class="st6" d="M289.4,156.1c0-3.2,0.2-5.8-0.1-8.4c-0.2-2.5,0.8-3.5,3.1-4.1c14.1-3.9,27.9,6.5,27.9,21.1
		c0,6.5-0.2,13.1-0.3,19.6c0,1.6-0.4,2.3-2.3,2.4c-7.3,0.1-7.3,0.2-7.3-7.1c0-4.8-0.1-9.5,0-14.3c0.2-5.2-2.2-9-6.6-11.4
		c-4.4-2.3-8.8-1.8-12.8,1.1C290.7,155.2,290.4,155.5,289.4,156.1z"/>
	<path class="st3" d="M190.9,173.6c0.2,2.9,0.4,5.8,0.6,8.6c0.1,1.8-0.7,2.6-2.3,3.2c-13.4,4.8-28.6-5.6-28.7-19.9
		c0-6.8,0.1-13.5,0-20.3c0-1.9,0.5-2.5,2.5-2.6c7.1-0.1,7.1-0.2,7.1,6.8c0,4.7,0.1,9.3,0,14c-0.2,5.4,2,9.5,6.8,11.9
		c4.5,2.2,9,1.9,13.1-1.3C190.2,173.9,190.5,173.8,190.9,173.6z"/>
	<path class="st7" d="M204.3,165c0,6.3-0.1,12.7,0,19c0,1.8-0.4,2.6-2.4,2.6c-7.5,0.1-7.5,0.2-7.5-7.3c0-11.1,0.1-22.2-0.1-33.2
		c0-2.5,0.5-3.5,3.3-3.4c6.7,0.2,6.7,0,6.7,6.9C204.3,154.7,204.3,159.9,204.3,165z"/>
	<path class="st8" d="M286.1,164.7c0,6.3-0.1,12.7,0.1,19c0.1,2.5-0.7,3-3,2.9c-6.8-0.1-6.8,0-6.8-6.7c0-11.4,0.1-22.8-0.1-34.2
		c0-2.5,0.7-3.2,3.2-3.1c6.6,0.1,6.6,0,6.6,6.6C286.1,154.4,286.1,159.5,286.1,164.7z"/>
	<path class="st2" d="M269.7,164.7c0,6.5-0.1,13.1,0,19.6c0,1.8-0.5,2.3-2.3,2.3c-7.4,0.1-7.4,0.2-7.4-7c0-11.4,0.1-22.8-0.1-34.2
		c0-2.2,0.6-2.8,2.8-2.8c6.9,0.1,6.9,0,6.9,6.9C269.7,154.6,269.7,159.6,269.7,164.7z"/>
	<path class="st9" d="M264.7,128.6c-3.1,0.1-5.7-2.3-5.9-5.4c-0.2-3.4,2.4-6.2,5.7-6.2c3,0,5.7,2.6,5.7,5.6
		C270.4,125.7,267.9,128.4,264.7,128.6z"/>
	<path class="st10" d="M378.3,177.1c-0.2-0.4-0.4-0.8-0.7-1.2c0-0.5,0-1.3,0.6-1C379.3,175.4,379,176.3,378.3,177.1z"/>
	<path class="st1" d="M134,152.8c6.9,0,12,5.2,12,11.9c0,6.8-5.6,12.3-12.3,12.2c-6.6-0.1-11.9-5.6-11.9-12.3
		C121.9,158,127.2,152.8,134,152.8z"/>
</g>
</svg>
