<?xml version="1.0" encoding="utf-8"?>
<!-- Generator: Adobe Illustrator 19.0.0, SVG Export Plug-In . SVG Version: 6.00 Build 0)  -->
<svg version="1.1" id="Capa_1" xmlns="http://www.w3.org/2000/svg" xmlns:xlink="http://www.w3.org/1999/xlink" x="0px" y="0px"
	 viewBox="0 0 400 600" style="enable-background:new 0 0 400 600;" xml:space="preserve">
<style type="text/css">
	.Sombra_x0020_paralela{fill:none;}
	.Esquinas_x0020_redondeadas_x0020_2_x0020_pt_x002E_{fill:#FFFFFF;stroke:#000000;stroke-miterlimit:10;}
	.Reflejo_x0020_vivo_x0020_X{fill:none;}
	.Bisel_x0020_suave{fill:url(#SVGID_1_);}
	.Atardecer{fill:#FFFFFF;}
	.Follaje_GS{fill:#FFDD00;}
	.Pompadour_GS{fill-rule:evenodd;clip-rule:evenodd;fill:#44ADE2;}
	.st0{fill:#62BC47;}
	.st1{fill:#FFFFFF;}
</style>
<linearGradient id="SVGID_1_" gradientUnits="userSpaceOnUse" x1="0" y1="0" x2="0.7071" y2="0.7071">
	<stop  offset="0" style="stop-color:#DEDFE3"/>
	<stop  offset="0.1738" style="stop-color:#D8D9DD"/>
	<stop  offset="0.352" style="stop-color:#C9CACD"/>
	<stop  offset="0.5323" style="stop-color:#B4B5B8"/>
	<stop  offset="0.7139" style="stop-color:#989A9C"/>
	<stop  offset="0.8949" style="stop-color:#797C7E"/>
	<stop  offset="1" style="stop-color:#656B6C"/>
</linearGradient>
<path id="XMLID_10_" class="st0" d="M150.5,181.7c-0.3,0.4-0.9,0.4-1.2,0l-8.4-12.6c-0.3-0.5,0.1-1.1,0.6-1.1h9.8v-3.6h-11.1
	c2.6-15.5,0.6-50.6,0-64.6h11.1v-6.3h-11.1c2.6-11.5,0.6-37.2,0-47.6h11.1v-4.4h-11.1c0.4-11.7,9.7-11.7,9.7-11.7c0.5,0,1,0,1.4,0.1
	V0H0v600h151.3V180.4L150.5,181.7z M115,88.6c-0.4,0.3-5.5,5.2-12.6,6.1C95.1,95.6,80,92.8,80,92.8s13.9-6.4,21.3-7.3
	c5-0.6,9.6,1,12,2.1c-7.4-4.3-12.9-8.6-15.2-10.6c-2.4-0.5-9.6-2.2-15-7.6c-6.6-6.6-15.5-23.6-15.5-23.6s17.1,8.9,23.6,15.4
	c4.2,4.2,6.2,9.6,7.1,12.9l0.1,0.1c0.1,0.1,2.4,2.2,6.3,5.1c-1.2-2.5-2.5-6.1-2.4-10.2c0.2-7.3,5.1-21.9,5.1-21.9s4.2,14.8,4,22.1
	c-0.1,5.3-2.6,9.7-4,11.9c7.6,5.2,19.2,11.8,32.9,14.2l0.9,1.4l-1.1,0.9l-0.2-0.1C130.5,96.1,122,92.4,115,88.6z"/>
<g id="XMLID_18_">
	<path id="XMLID_19_" class="st1" d="M171.2,210.7v19.5c-0.4,0-0.9,0-1.7-0.1c-0.8-0.1-1.3-0.1-1.6-0.1c-5.3,0-8.8,1-10.6,2.9
		c-1.8,1.9-2.7,5.8-2.7,11.8V264c0,7.5-1.2,12.9-3.7,16.1s-6.9,5.5-13.3,6.9c6.5,1.3,10.9,3.5,13.4,6.7s3.7,8.5,3.7,16.1v19.5
		c0,5.9,0.9,9.8,2.7,11.7c1.8,1.9,5.3,2.8,10.5,2.8c0.4,0,1,0,1.7-0.1c0.8-0.1,1.4-0.1,1.7-0.1V363c-0.8,0-1.9,0-3.4,0.1
		c-1.5,0.1-2.5,0.1-3.2,0.1c-5.8,0-10.6-0.3-14.5-1c-3.8-0.6-7.1-1.6-9.6-3c-3.2-1.7-5.4-4.1-6.7-7.1c-1.3-3-1.9-8.2-1.9-15.5V316
		c0-7.1-1.3-12.2-4-15.1c-2.7-2.9-7.2-4.4-13.6-4.4c-0.2,0-0.7,0-1.4,0.1c-0.7,0.1-1.2,0.1-1.5,0.1v-19.5c0.3,0,0.8,0,1.5,0.1
		c0.6,0.1,1.1,0.1,1.5,0.1c6.3,0,10.8-1.5,13.5-4.5c2.7-3,4-8,4-15.2v-20.4c0-7.3,0.6-12.5,1.9-15.6c1.3-3.1,3.5-5.5,6.6-7.2
		c2.6-1.3,5.8-2.3,9.7-3s8.8-1,14.6-1c0.6,0,1.7,0,3.1,0.1C169.3,210.7,170.4,210.7,171.2,210.7z"/>
</g>
<g id="XMLID_12_">
	<path id="XMLID_16_" class="st1" d="M121.4,385.6c0.8,0,1.9,0,3.3-0.1c1.4-0.1,2.5-0.1,3.1-0.1c5.8,0,10.6,0.3,14.5,1
		s7.1,1.6,9.7,3c3.1,1.7,5.3,4.1,6.6,7.2c1.3,3.1,2,8.3,2,15.6v20.4c0,7.2,1.3,12.3,4,15.2c2.6,2.9,7.2,4.4,13.6,4.4
		c0.3,0,0.8,0,1.5-0.1c0.6-0.1,1.1-0.1,1.5-0.1v19.5c-0.3,0-0.8,0-1.5-0.1c-0.6-0.1-1.1-0.1-1.5-0.1c-6.4,0-10.9,1.5-13.6,4.4
		c-2.6,2.9-4,8-4,15v20.6c0,7.4-0.7,12.6-2,15.7c-1.3,3.1-3.5,5.5-6.6,7.1c-2.4,1.3-5.5,2.2-9.1,2.9c-3.7,0.6-8.4,0.9-14.3,0.9
		c-0.8,0-1.9,0-3.5-0.1c-1.6-0.1-2.8-0.1-3.7-0.1v-19.5c0.5,0,1.1,0,1.9,0.1c0.8,0.1,1.3,0.1,1.6,0.1c5.2,0,8.7-0.9,10.5-2.8
		c1.8-1.9,2.7-5.8,2.7-11.7v-19.5c0-7.5,1.2-12.9,3.7-16c2.5-3.2,6.9-5.4,13.3-6.7c-6.4-1.3-10.9-3.6-13.3-6.8
		c-2.4-3.2-3.7-8.6-3.7-16.2v-19.3c0-6-0.9-9.9-2.7-11.8c-1.8-1.9-5.2-2.9-10.2-2.9c-0.4,0-1,0-1.8,0.1c-0.8,0.1-1.5,0.1-2,0.1
		V385.6z"/>
</g>
</svg>
