<?xml version="1.0" encoding="utf-8"?>
<!-- Generator: Adobe Illustrator 21.1.0, SVG Export Plug-In . SVG Version: 6.00 Build 0)  -->
<svg version="1.1" id="Capa_1" xmlns="http://www.w3.org/2000/svg" xmlns:xlink="http://www.w3.org/1999/xlink" x="0px" y="0px"
	 viewBox="0 0 700 328" style="enable-background:new 0 0 700 328;" xml:space="preserve">
<style type="text/css">
	.st0{fill:#FFFFFF;}
</style>
<g id="XMLID_2060_">
	<g id="XMLID_1863_">
		<g id="XMLID_1864_">
			<path id="XMLID_1865_" class="st0" d="M312.2,151c0-1.9-0.4-3.8-1.1-5.7c-0.7-1.9-1.9-3.7-3.3-5.3c-1.5-1.8-3.6-3.1-6.3-3.9
				c-2.7-0.9-6-1.3-9.8-1.3c-0.6,0-1.2,0-1.9,0.1c-0.7,0.1-1.4,0.2-2.2,0.4c-0.8,0.1-1.6,0.3-2.4,0.5c-0.8,0.3-1.6,0.6-2.4,1
				c-1.4,0.6-2.8,1.5-4.1,2.6c-1.3,1.1-2.6,2.4-3.8,3.9c-1.1,1.4-2.1,3.1-2.8,5.2c-0.7,2.1-1.1,4.4-1.3,7c0,3.5,0.5,6.5,1.4,9.1
				c1,2.6,2.4,4.8,4.3,6.5c2,1.7,4.1,3,6.2,4c2.1,1,4.4,1.6,6.8,1.9c0.1,0,0.2,0,0.3,0c0.1,0,0.2,0,0.3,0c0.2,0.1,0.3,0.1,0.5,0.1
				c0.1,0,0.2,0,0.3,0c0.2,0,0.3,0,0.4,0c0.1,0,0.2,0,0.4,0c0.1,0,0.2,0,0.3,0c0.1,0,0.2,0,0.3,0c1.1,0,2-0.1,3-0.2
				c0.9-0.1,1.8-0.4,2.7-0.7c0.4-0.2,0.9-0.3,1.2-0.5c0.4-0.2,0.8-0.3,1.2-0.5c0.3-0.3,0.7-0.5,1.2-0.8c0.4-0.3,0.8-0.6,1.2-0.9
				c0.4-0.3,0.9-0.6,1.2-1c0.4-0.4,0.8-0.8,1.2-1.1c0.4-0.4,0.9-0.9,1.3-1.2c0.4-0.4,0.9-0.8,1.3-1.2v14.3c-0.1,0.2-0.2,0.3-0.3,0.4
				v0.1c-1.1,0.7-2.1,1.3-3.3,1.9c-1.1,0.6-2.3,1.1-3.5,1.5c-1.2,0.3-2.7,0.6-4.5,0.9c-1.8,0.2-3.8,0.3-6,0.3c-0.1,0-0.2,0-0.2,0
				c0,0-0.1,0-0.2,0c-0.1,0-0.2,0-0.4,0c-0.1,0-0.2,0-0.3,0c-0.1,0-0.2,0-0.3,0c-0.1,0-0.2,0-0.2,0c0,0-0.1,0-0.2,0
				c-4,0-7.8-0.7-11.2-2.2c-3.5-1.4-6.6-3.7-9.5-6.6c-2.9-3.1-5.1-6.6-6.5-10.6c-1.4-4-2.2-8.5-2.2-13.5c0-4.4,0.7-8.4,2.1-12.2
				c1.4-3.8,3.5-7.2,6.3-10.4c2.8-3.2,6.3-5.5,10.4-7.1c4.1-1.6,8.9-2.4,14.3-2.4c5.2,0,9.8,0.7,13.8,2.1c4,1.4,7.4,3.5,10.1,6.3
				c2.8,2.8,4.9,5.8,6.2,8.9c1.4,3.1,2,6.3,2,9.7v36.9h-12.5V151z"/>
			<path id="XMLID_1867_" class="st0" d="M336,143.8c0-2.7,0.5-5.3,1.6-7.7c1.1-2.4,2.7-4.6,4.9-6.6c2.2-2,4.7-3.5,7.6-4.5
				c2.9-1,6.1-1.5,9.7-1.5c2.5,0,4.8,0.2,6.7,0.6c1.9,0.4,3.5,0.9,4.7,1.6c1.2,0.7,2.4,1.6,3.4,2.6c1.1,1,2,2.2,2.8,3.5
				c0.8-1.1,1.8-2,2.9-3c1.1-0.9,2.5-1.8,4.1-2.7c1.6-0.9,3.3-1.5,5.3-2c1.9-0.4,4.1-0.7,6.4-0.7c3,0,5.8,0.4,8.4,1.2
				c2.6,0.8,5.1,2.1,7.4,3.9c2.3,1.7,4,3.6,5.2,5.7c1.2,2.1,1.8,4.5,1.9,7.2c0,0.1,0,0.2,0,0.2c0,0,0,0.1,0,0.2c0,0.1,0,0.2,0,0.2
				c0,0,0,0.1,0,0.2c-0.1,0.1-0.1,0.2-0.1,0.2c0,0,0,0.1,0,0.2c0,0.1,0,0.2,0,0.2c0,0,0,0.1,0,0.2v44.3h-11.4V147c0,0.1,0,0.1,0,0.1
				c0,0,0-0.1,0.1-0.1c0-0.1,0-0.2,0-0.2c0,0,0-0.1,0-0.2c0-0.2,0-0.3,0-0.5c0-0.1,0-0.2,0-0.3c0-0.3,0-0.5-0.1-0.8
				c0-0.3-0.1-0.6-0.2-0.9c-0.1-0.3-0.2-0.5-0.2-0.9c0-0.3-0.1-0.6-0.2-1c-0.4-1.1-0.9-2.1-1.6-3c-0.7-1-1.5-1.9-2.5-2.8
				c-1-0.9-2-1.5-3.2-2c-1.1-0.4-2.3-0.7-3.5-0.7c-1.6,0-3,0.3-4.4,0.9c-1.4,0.6-2.6,1.4-3.7,2.6c-1.1,1.1-2,2.3-2.7,3.6
				c-0.7,1.3-1.1,2.6-1.4,4c-0.1,0.2-0.2,0.4-0.2,0.6c0,0.2-0.1,0.4-0.1,0.6c0,0.3,0,0.5,0,0.7c0,0.2,0,0.4,0,0.5v40.1h-11.3V148
				c0-1.9-0.3-3.7-0.8-5.4c-0.5-1.7-1.3-3.2-2.4-4.6c-1.1-1.4-2.4-2.4-3.9-3.2c-1.6-0.7-3.4-1.1-5.4-1.1c-2.5,0.3-4.6,0.8-6.3,1.7
				c-1.7,0.9-2.9,2.1-3.7,3.5c-0.8,1.5-1.4,3.1-1.8,4.7c-0.4,1.7-0.6,3.4-0.6,5.1c0,0.1,0,0.2,0,0.3v0.1v38H336V143.8z"/>
			<path id="XMLID_1869_" class="st0" d="M503.8,141.2c1.7-3.9,4.1-7.2,7.4-10.1c3.3-2.9,6.8-5.1,10.6-6.5c3.7-1.4,7.6-2.2,11.8-2.2
				c0.2,0,0.4,0,0.6,0c0.2,0,0.4,0,0.6,0c0.2,0.1,0.4,0.1,0.6,0.1c0.2,0,0.5,0,0.7,0c0.2,0,0.4,0,0.6,0c0.2,0,0.5,0,0.7,0
				c0.2,0.1,0.4,0.1,0.6,0.1c0.2,0,0.4,0,0.6,0c3.5,0.5,6.8,1.6,10,3.1c3.2,1.5,6.3,3.6,9.3,6.1c2.9,2.6,5.1,5.9,6.6,9.8
				c1.5,3.9,2.2,8.5,2.2,13.8c0,0.4,0,0.7,0,1.1c0,0.4,0,0.7-0.1,0.9c0,0.4,0,0.7-0.1,1.1c0,0.4-0.1,0.7-0.1,1
				c-0.1,0.7-0.2,1.4-0.3,2.1c-0.1,0.7-0.3,1.4-0.5,2.1c-0.8,3.2-2,6.2-3.6,9c-1.6,2.8-3.7,5.5-6.2,8.1c-2.5,2.5-5.4,4.4-8.8,5.6
				c-3.4,1.2-7.2,1.8-11.4,1.8c-6,0-11.1-0.8-15.4-2.4s-7.9-4.1-10.6-7.4c-2.7-3.3-4.7-7-6.1-11c-1.4-4-2-8.4-2-13v-0.3
				C501.3,149.4,502.2,145,503.8,141.2z M513.8,156.1c0,0.6,0,1.2,0.1,1.8c0.1,0.6,0.2,1.2,0.3,1.8c0.1,0.6,0.2,1.2,0.3,1.8
				c0.4,1.9,1.1,3.8,2.1,5.6c1,1.8,2.1,3.6,3.5,5.3c1.5,1.7,3.3,2.9,5.5,3.7c2.2,0.8,4.8,1.2,7.7,1.2c2.8,0,5.4-0.4,7.9-1.2
				c2.4-0.8,4.7-2,6.7-3.5c2-1.6,3.5-3.9,4.5-6.9c1-3,1.5-6.7,1.5-11.1c0-3.1-0.4-5.8-1.3-8.3c-0.9-2.5-2.2-4.7-3.9-6.6
				c-1.8-1.8-3.9-3.2-6.5-4.2c-2.6-1-5.5-1.4-8.9-1.4c-3.2,0-5.9,0.4-8.1,1.2c-2.3,0.8-4.2,2.1-5.6,3.9c-1.5,1.7-2.7,3.5-3.6,5.4
				c-0.9,1.9-1.6,3.9-1.9,5.9c-0.1,0.4-0.2,0.7-0.3,1.1c-0.1,0.4-0.1,0.7-0.1,1c0,0.4,0,0.7,0,1.1c0,0.4,0,0.7,0,1.1v-0.3
				C513.8,154.9,513.8,155.5,513.8,156.1z"/>
			<path id="XMLID_1872_" class="st0" d="M577.2,141.2c1.7-3.9,4.1-7.2,7.4-10.1c3.3-2.9,6.8-5.1,10.6-6.5s7.6-2.2,11.8-2.2
				c0.2,0,0.4,0,0.6,0c0.2,0,0.4,0,0.6,0c0.2,0.1,0.4,0.1,0.6,0.1c0.2,0,0.5,0,0.7,0c0.2,0,0.4,0,0.6,0c0.2,0,0.5,0,0.7,0
				c0.2,0.1,0.4,0.1,0.6,0.1c0.2,0,0.4,0,0.6,0c3.5,0.5,6.8,1.6,10,3.1c3.2,1.5,6.3,3.6,9.3,6.1c2.9,2.6,5.1,5.9,6.6,9.8
				c1.5,3.9,2.2,8.5,2.2,13.8c0,0.4,0,0.7,0,1.1c0,0.4,0,0.7-0.1,0.9c0,0.4,0,0.7-0.1,1.1c0,0.4-0.1,0.7-0.1,1
				c-0.1,0.7-0.2,1.4-0.3,2.1c-0.1,0.7-0.3,1.4-0.5,2.1c-0.8,3.2-2,6.2-3.6,9c-1.6,2.8-3.7,5.5-6.2,8.1c-2.5,2.5-5.4,4.4-8.8,5.6
				c-3.4,1.2-7.2,1.8-11.4,1.8c-6,0-11.1-0.8-15.4-2.4c-4.3-1.6-7.9-4.1-10.6-7.4c-2.7-3.3-4.8-7-6.1-11c-1.4-4-2-8.4-2-13v-0.3
				C574.7,149.4,575.6,145,577.2,141.2z M587.2,156.1c0,0.6,0,1.2,0.1,1.8c0.1,0.6,0.2,1.2,0.3,1.8c0.1,0.6,0.2,1.2,0.3,1.8
				c0.4,1.9,1.1,3.8,2.1,5.6c1,1.8,2.1,3.6,3.5,5.3c1.5,1.7,3.3,2.9,5.5,3.7c2.2,0.8,4.8,1.2,7.7,1.2c2.8,0,5.4-0.4,7.9-1.2
				c2.4-0.8,4.7-2,6.7-3.5c2-1.6,3.5-3.9,4.5-6.9c1-3,1.5-6.7,1.5-11.1c0-3.1-0.4-5.8-1.3-8.3c-0.9-2.5-2.2-4.7-3.9-6.6
				c-1.8-1.8-3.9-3.2-6.5-4.2c-2.6-1-5.5-1.4-8.9-1.4c-3.2,0-5.9,0.4-8.1,1.2c-2.3,0.8-4.2,2.1-5.6,3.9c-1.5,1.7-2.7,3.5-3.6,5.4
				c-0.9,1.9-1.6,3.9-1.9,5.9c-0.1,0.4-0.2,0.7-0.3,1.1c-0.1,0.4-0.1,0.7-0.1,1c0,0.4,0,0.7,0,1.1c0,0.4,0,0.7,0,1.1v-0.3
				C587.2,154.9,587.2,155.5,587.2,156.1z"/>
		</g>
		<g id="XMLID_1875_">
			<path id="XMLID_1876_" class="st0" d="M242.6,132c-3.2-2.8-6.5-4.9-10.1-6.2c-3.6-1.4-7.4-2-11.6-2c-0.3,0-0.5,0-0.8,0
				c-0.3,0-0.5,0-0.7,0c-0.3,0.1-0.5,0.1-0.7,0.1c-0.2,0-0.5,0-0.7,0c-0.5,0.1-1,0.2-1.5,0.2c-0.5,0-0.9,0.1-1.4,0.2
				c-1.1,0.2-2.1,0.4-3,0.7c-1,0.3-1.9,0.6-2.9,0.9c-1,0.4-1.9,0.7-2.8,1.2c-0.9,0.4-1.9,0.9-2.8,1.3V140c0.3-0.2,0.7-0.3,1-0.5
				c0.3-0.1,0.6-0.2,1-0.3c0.2-0.1,0.3-0.2,0.5-0.3c0.1-0.1,0.3-0.2,0.5-0.3c0.1,0,0.2,0,0.4-0.1c0.2-0.1,0.3-0.2,0.5-0.3h0.1
				l0.1-0.1c1-0.4,1.9-0.9,2.8-1.2c0.9-0.4,1.9-0.8,2.8-1.1c1-0.3,2-0.6,3.2-0.8c1.1-0.2,2.4-0.3,3.7-0.3c0.1,0,0.2,0,0.3,0
				c0.1,0,0.2,0,0.4,0c0.1,0.1,0.2,0.1,0.3,0.1c0.1,0,0.2,0,0.3,0c0.2,0,0.4,0,0.6,0c0.2,0,0.5,0,0.7,0c2.1,0.3,4.1,0.9,6.1,1.9
				c2,1,3.8,2.4,5.6,4.1c1.8,1.7,3.1,3.8,4,6.4c0.9,2.6,1.4,5.7,1.4,9.2c0,0.4,0,0.9-0.1,1.4c0,0.5-0.1,1-0.2,1.5
				c-0.1,0.5-0.2,1-0.2,1.5c0,0.5-0.2,0.9-0.3,1.4c-0.5,1.9-1.3,3.8-2.4,5.6c-1.1,1.8-2.4,3.6-3.9,5.3c-1.7,1.7-3.6,2.9-5.9,3.7
				c-2.3,0.8-4.9,1.2-7.7,1.2c-3.1,0-5.8-0.5-8.2-1.6c-2.4-1.1-4.5-2.6-6.2-4.7c-1.7-2.1-2.9-4.5-3.8-7.3c-0.9-2.8-1.3-5.9-1.3-9.4
				v-37.5h-12.5v36.7c0,4.6,0.7,9,2,13.1c1.3,4.1,3.3,7.9,5.9,11.5c2.6,3.5,6,6.1,10,7.8c4,1.7,8.8,2.6,14.2,2.6
				c5.4,0,10.2-0.9,14.4-2.6c4.2-1.8,7.6-4.5,10.3-8.1c2.8-3.7,4.9-7.5,6.3-11.6c1.4-4,2.1-8.2,2.1-12.6c0-4.7-0.8-9-2.4-12.7
				C248.1,137.9,245.8,134.7,242.6,132z"/>
			<rect id="XMLID_1877_" x="187.1" y="96.3" class="st0" width="12.5" height="15.8"/>
		</g>
		<g id="XMLID_1878_">
			<rect id="XMLID_1879_" x="429" y="96.3" class="st0" width="12.5" height="15.8"/>
			<path id="XMLID_1880_" class="st0" d="M491.7,141.7c-1.6-3.8-4-7-7.2-9.7c-3.2-2.8-6.5-4.9-10.1-6.2c-3.6-1.4-7.4-2-11.6-2
				c-0.3,0-0.5,0-0.8,0c-0.3,0-0.5,0-0.7,0c-0.3,0.1-0.5,0.1-0.7,0.1c-0.2,0-0.5,0-0.7,0c-0.5,0.1-1,0.2-1.5,0.2
				c-0.5,0-0.9,0.1-1.4,0.2c-1.1,0.2-2.1,0.4-3,0.7c-1,0.3-1.9,0.6-2.9,0.9c-1,0.4-1.9,0.7-2.8,1.2c-0.9,0.4-1.9,0.9-2.8,1.3V140
				c0.3-0.2,0.7-0.3,1-0.5c0.3-0.1,0.6-0.2,1-0.3c0.2-0.1,0.3-0.2,0.5-0.3c0.1-0.1,0.3-0.2,0.5-0.3c0.1,0,0.2,0,0.4-0.1
				c0.2-0.1,0.3-0.2,0.5-0.3h0.1l0.1-0.1c1-0.4,1.9-0.9,2.8-1.2c0.9-0.4,1.9-0.8,2.8-1.1c1-0.3,2-0.6,3.2-0.8
				c1.1-0.2,2.4-0.3,3.7-0.3c0.1,0,0.2,0,0.3,0c0.1,0,0.2,0,0.4,0c0.1,0.1,0.2,0.1,0.3,0.1c0.1,0,0.2,0,0.3,0c0.2,0,0.4,0,0.6,0
				c0.2,0,0.5,0,0.7,0c2.1,0.3,4.1,0.9,6.1,1.9c2,1,3.8,2.4,5.6,4.1c1.8,1.7,3.1,3.8,4,6.4c0.9,2.6,1.4,5.7,1.4,9.2
				c0,0.4,0,0.9-0.1,1.4c0,0.5-0.1,1-0.2,1.5c-0.1,0.5-0.2,1-0.2,1.5c0,0.5-0.2,0.9-0.3,1.4c-0.5,1.9-1.3,3.8-2.4,5.6
				c-1.1,1.8-2.4,3.6-3.9,5.3c-1.7,1.7-3.6,2.9-5.9,3.7c-2.3,0.8-4.9,1.2-7.7,1.2c-3.1,0-5.8-0.5-8.2-1.6c-2.4-1.1-4.5-2.6-6.2-4.7
				c-1.7-2.1-2.9-4.5-3.8-7.3c-0.9-2.8-1.3-5.9-1.3-9.4v-37.5H429v36.7c0,4.6,0.7,9,2,13.1c1.3,4.1,3.3,7.9,5.9,11.5
				c2.6,3.5,6,6.1,10,7.8c4,1.7,8.8,2.6,14.2,2.6c5.4,0,10.2-0.9,14.4-2.6c4.2-1.8,7.6-4.5,10.3-8.1c2.8-3.7,4.9-7.5,6.3-11.6
				c1.4-4,2.1-8.2,2.1-12.6C494.1,149.7,493.3,145.5,491.7,141.7z"/>
		</g>
	</g>
	<g id="XMLID_1938_">
		<path id="XMLID_1939_" class="st0" d="M278,235.1v1.8h-22.8v-33.6h22.6v1.8h-20.5v13.4h19.3v1.8h-19.3v14.8H278z"/>
		<path id="XMLID_1941_" class="st0" d="M282.1,228.9c0.2,2.2,1,3.9,2.5,5.2c1.5,1.3,3.3,1.9,5.5,1.9c0.8,0,1.7-0.1,2.6-0.3
			c0.9-0.1,1.7-0.4,2.5-0.8c0.8-0.4,1.4-0.9,1.9-1.6c0.5-0.7,0.7-1.5,0.7-2.5c0-1-0.2-1.9-0.6-2.6c-0.5-0.7-1.1-1.2-1.9-1.5
			c-0.8-0.4-1.6-0.7-2.6-0.9c-1-0.2-2-0.4-3.1-0.6c-1-0.2-2-0.5-3-0.8c-1-0.3-1.9-0.7-2.7-1.1c-0.8-0.5-1.4-1.1-1.9-1.9
			c-0.5-0.8-0.7-1.8-0.7-3c0-1.2,0.3-2.2,0.8-3.1c0.5-0.8,1.2-1.4,2-1.9c1.8-0.9,3.7-1.3,5.9-1.3c2.7,0,4.8,0.6,6.5,1.7
			c1.6,1.2,2.5,3.2,2.5,6H297c0-2.2-0.7-3.8-2-4.8c-1.3-1-3.1-1.4-5.1-1.4c-1.7,0-3.3,0.3-4.7,1c-0.7,0.4-1.2,0.9-1.6,1.4
			c-0.4,0.6-0.7,1.3-0.7,2.3c0,1,0.3,1.7,0.8,2.3c0.4,0.6,1.1,1.1,1.8,1.5c0.4,0.2,0.8,0.3,1.3,0.5c0.4,0.1,0.9,0.3,1.3,0.4
			c0.5,0.1,1,0.2,1.4,0.3c0.5,0.1,0.9,0.3,1.4,0.4c2.5,0.3,4.5,1,6.1,2c0.8,0.5,1.3,1.1,1.8,2c0.4,0.8,0.6,1.9,0.6,3.1
			c0,1.3-0.3,2.3-0.8,3.1c-0.6,0.9-1.3,1.6-2.3,2.1c-0.9,0.5-1.9,0.9-3,1.1c-1.1,0.2-2.2,0.3-3.3,0.3c-2.8,0-5.1-0.7-6.9-2.2
			c-1.8-1.4-2.8-3.6-2.9-6.4H282.1z"/>
		<path id="XMLID_1943_" class="st0" d="M312.7,214.3h-5.3v16.9c0,1.9,0.5,3.1,1.4,3.6c0.9,0.5,2.2,0.7,3.9,0.6v1.6
			c-0.9,0.1-1.8,0-2.6-0.1c-0.8-0.1-1.6-0.3-2.3-0.7c-0.7-0.4-1.2-1-1.6-1.7c-0.4-0.8-0.6-1.8-0.5-3.2v-16.9h-4.5v-1.6h4.5v-7.5h1.8
			v7.5h5.3V214.3z"/>
		<path id="XMLID_1945_" class="st0" d="M335.2,236.9h-1.8v-5.2h-0.1c-0.7,1.8-1.8,3.2-3.3,4.2c-1.6,1-3.4,1.5-5.3,1.6
			c-2.1,0-3.7-0.4-4.9-1.2c-1.2-0.7-2-1.6-2.6-2.6c-0.5-1.1-0.8-2.2-0.9-3.3c-0.1-1.1-0.2-2-0.2-2.7v-15h1.8V228
			c0,0.6,0.1,1.4,0.2,2.3c0.1,0.9,0.4,1.7,0.8,2.6c0.5,0.9,1.1,1.6,2.1,2.1c0.9,0.6,2.2,0.9,3.8,0.9c2.8,0,4.9-1,6.4-2.9
			c1.5-1.8,2.3-4.2,2.3-7.2v-13.1h1.8V236.9z"/>
		<path id="XMLID_1947_" class="st0" d="M359.2,231.7L359.2,231.7c-2,3.8-5.1,5.7-9.4,5.7c-3.6-0.1-6.2-1.3-7.9-3.8
			c-1.7-2.4-2.6-5.4-2.5-8.8c0-3.7,0.9-6.7,2.7-9.1c1.8-2.4,4.5-3.6,8.1-3.6c2.1,0,3.9,0.5,5.5,1.5c0.8,0.5,1.5,1.1,2.1,1.9
			c0.6,0.8,1,1.6,1.3,2.6h0.1v-14.8h1.8v33.6h-1.8V231.7z M356.9,232.4c1.5-2.2,2.2-4.7,2.2-7.6c0-3-0.7-5.5-2.1-7.7
			c-1.5-2.2-3.8-3.4-6.9-3.4c-3.2,0.1-5.4,1.2-6.9,3.4c-1.5,2.2-2.2,4.8-2.1,7.8c0,2.9,0.7,5.5,2.2,7.6c1.4,2.2,3.7,3.4,6.8,3.4
			C353.2,235.9,355.5,234.7,356.9,232.4z"/>
		<path id="XMLID_1950_" class="st0" d="M367.1,208.2v-4.9h1.8v4.9H367.1z M367.1,236.9v-24.2h1.8v24.2H367.1z"/>
		<path id="XMLID_1953_" class="st0" d="M376.3,215.9c1.9-2.4,4.7-3.7,8.2-3.7c3.6,0.1,6.3,1.3,8.2,3.7c1.9,2.4,2.9,5.4,2.9,8.9
			c0,3.5-1,6.5-2.9,8.9c-1.9,2.4-4.6,3.7-8.2,3.8c-3.6-0.1-6.3-1.3-8.2-3.8c-1.9-2.4-2.9-5.4-2.9-8.9
			C373.4,221.3,374.4,218.3,376.3,215.9z M377.7,232.5c1.6,2.2,3.9,3.4,6.9,3.4c3.1-0.1,5.4-1.2,7-3.4c1.6-2.1,2.3-4.7,2.3-7.7
			c0-3-0.8-5.6-2.3-7.8c-1.6-2.2-3.9-3.3-7-3.4c-3,0.1-5.3,1.2-6.9,3.4c-1.6,2.2-2.5,4.8-2.5,7.8C375.2,227.8,376,230.4,377.7,232.5
			z"/>
		<path id="XMLID_1956_" class="st0" d="M442.4,220.4v16.5h-1.8v-7.1h-0.1c-0.9,2.5-2.4,4.4-4.7,5.8c-2.3,1.4-5,2.1-8,2.2
			c-2.5,0-4.8-0.5-6.7-1.4c-2-0.9-3.6-2.1-5-3.7c-2.7-3.3-4.1-7.4-4.1-12.3c0-4.9,1.4-9.1,4.2-12.5c2.7-3.4,6.6-5.2,11.7-5.3
			c3.5,0,6.6,1,9.2,2.9c2.6,1.9,4.2,4.7,4.8,8.3h-2c-1.7-6.1-5.7-9.3-12-9.4c-4.5,0.1-7.9,1.7-10.3,4.9c-2.4,3.1-3.6,6.8-3.6,11.1
			c0,4.4,1.2,8.1,3.5,11c2.3,3,5.8,4.6,10.4,4.6c4.1,0,7.2-1.3,9.5-3.8c2.3-2.5,3.3-5.8,3.2-9.9h-12.4v-1.8H442.4z"/>
		<path id="XMLID_1958_" class="st0" d="M449.6,218.1h0.2c0.5-1.6,1.6-3,3.4-4c1.7-1,3.7-1.5,5.9-1.5v1.8c-1-0.2-2-0.1-3.2,0.2
			c-1.2,0.4-2.4,1.1-3.5,2.1c-0.9,0.9-1.5,1.8-1.9,2.8c-0.4,1-0.7,2.4-0.8,4.2v13.2h-1.8v-24.2h1.8V218.1z"/>
		<path id="XMLID_1960_" class="st0" d="M478.7,232.4c0,0.7,0,1.4,0.2,2c0.2,0.6,0.6,0.9,1.4,0.9c0.3,0,0.8,0,1.3-0.1v1.5
			c-0.5,0.1-1,0.2-1.5,0.2c-1.4,0-2.3-0.4-2.6-1.1c-0.4-0.6-0.7-1.4-0.6-2.5v-1.3h-0.1c-0.6,1.4-1.6,2.7-3.1,3.7
			c-1.6,1.1-3.5,1.6-5.8,1.7c-2.3,0-4.2-0.5-5.7-1.6c-1.5-1-2.3-2.8-2.3-5.3c0-1.4,0.3-2.6,0.8-3.5c0.5-0.9,1.2-1.6,2.1-2.1
			c0.9-0.5,1.9-0.9,2.9-1.1c0.5-0.1,1-0.2,1.5-0.3c0.5-0.1,1-0.1,1.5-0.1c3.8-0.2,6.2-0.6,7.2-1.3c0.5-0.4,0.9-0.9,1-1.4
			c0.1-0.6,0.1-1.3,0.1-2.3c0-0.3-0.1-0.7-0.2-1.3c-0.2-0.5-0.5-1-1-1.6c-0.5-0.5-1.1-1-2-1.4c-0.9-0.4-2-0.5-3.4-0.5
			c-4.5,0-7,2.2-7.4,6.5H461c0.3-5.3,3.4-8,9.2-8c2.2,0,4.2,0.4,5.8,1.3c1.7,0.9,2.6,2.6,2.6,5V232.4z M475.5,224
			c-0.6,0.2-1.3,0.4-2.1,0.5c-1.7,0.2-3.4,0.4-5.2,0.6c-4.4,0.3-6.6,2.1-6.6,5.6c0,1.5,0.6,2.7,1.7,3.7c1,1,2.6,1.5,4.7,1.6
			c2.1,0,3.7-0.4,4.9-1.2c1.2-0.7,2.1-1.5,2.7-2.5c0.6-1,1-1.9,1.2-2.8c0.2-0.9,0.2-1.5,0.2-1.8v-4.5
			C476.6,223.6,476.1,223.8,475.5,224z M473.2,202.5h2.4l-6.3,6.6h-1.7L473.2,202.5z"/>
		<path id="XMLID_1964_" class="st0" d="M481.8,214.3v-1.6h4.3v-5c0-1.7,0.5-2.9,1.6-3.7c1-0.7,2.2-1.1,3.7-1.1
			c0.7,0,1.4,0.1,2.1,0.3v1.5c-0.7-0.2-1.4-0.2-2.1-0.2c-1,0-1.8,0.2-2.5,0.7c-0.7,0.5-1.1,1.4-1.1,2.7v4.9h5v1.6h-5v22.6h-1.8
			v-22.6H481.8z"/>
		<path id="XMLID_1966_" class="st0" d="M496.2,208.2v-4.9h1.8v4.9H496.2z M496.2,236.9v-24.2h1.8v24.2H496.2z"/>
		<path id="XMLID_1969_" class="st0" d="M521.9,220.2c-0.2-2.2-1-3.8-2.5-4.9c-1.5-1.1-3.4-1.6-5.7-1.6c-3,0.1-5.3,1.2-6.9,3.4
			c-1.6,2.1-2.5,4.6-2.5,7.5c0,3.3,0.8,6,2.4,8.1c1.5,2.1,3.9,3.2,7,3.2c2.3,0,4.2-0.7,5.7-2.1c1.5-1.3,2.4-3.2,2.7-5.4h1.8
			c-0.4,2.9-1.5,5.1-3.4,6.7c-1.9,1.6-4.2,2.4-6.8,2.4c-3.9-0.1-6.7-1.4-8.5-4c-1.7-2.5-2.6-5.5-2.6-9c0-3.5,0.9-6.4,2.8-8.7
			c1.9-2.4,4.7-3.6,8.3-3.7c2.7,0,5,0.6,6.8,1.9c1.9,1.3,2.9,3.4,3.2,6.1H521.9z"/>
		<path id="XMLID_1971_" class="st0" d="M529.9,215.9c1.9-2.4,4.7-3.7,8.2-3.7c3.6,0.1,6.3,1.3,8.2,3.7c1.9,2.4,2.9,5.4,2.9,8.9
			c0,3.5-1,6.5-2.9,8.9c-1.9,2.4-4.6,3.7-8.2,3.8c-3.6-0.1-6.3-1.3-8.2-3.8c-1.9-2.4-2.9-5.4-2.9-8.9
			C527,221.3,528,218.3,529.9,215.9z M531.2,232.5c1.6,2.2,3.9,3.4,6.9,3.4c3.1-0.1,5.4-1.2,7-3.4c1.6-2.1,2.3-4.7,2.3-7.7
			c0-3-0.8-5.6-2.3-7.8c-1.6-2.2-3.9-3.3-7-3.4c-3,0.1-5.3,1.2-6.9,3.4c-1.6,2.2-2.5,4.8-2.5,7.8
			C528.8,227.8,529.6,230.4,531.2,232.5z"/>
	</g>
	<g id="XMLID_1974_">
		<g id="XMLID_1975_">
			<path id="XMLID_1976_" class="st0" d="M142.3,89c0.8,14,3.5,48.9,0,64.4h26.2c-2.1-12.7-2-56.2,0-64.4H142.3z M142.3,89"/>
			<path id="XMLID_1979_" class="st0" d="M142.3,161.9c0.8,18.9,3.5,66.3,0,87.3h26.2c-2.1-17.3-2-76.4,0-87.3H142.3z M142.3,161.9"
				/>
			<path id="XMLID_1982_" class="st0" d="M143.8,157.8l-1.3-1.8c-18.5-3.2-34.2-12.1-44.4-19.2c1.9-2.9,5.2-8.9,5.4-16.1
				c0.2-10-5.4-29.9-5.4-29.9s-6.7,19.6-7,29.6c-0.1,5.5,1.6,10.4,3.2,13.7c-5.3-3.9-8.5-6.9-8.6-6.9l-0.1,0
				c-1.2-4.5-3.9-11.7-9.6-17.4c-8.8-8.9-31.9-20.9-31.9-20.9s12,23,20.9,31.9c7.3,7.3,17.1,9.6,20.3,10.3
				c3.2,2.8,10.5,8.6,20.6,14.4c-3.3-1.5-9.5-3.6-16.3-2.8c-9.9,1.2-28.7,9.8-28.7,9.8s20.4,3.8,30.3,2.5c9.6-1.2,16.5-7.8,17-8.2
				c9.4,5.1,21,10,33.8,12.3l0.2,0L143.8,157.8z M143.8,157.8"/>
		</g>
		<path id="XMLID_1985_" class="st0" d="M144.1,254h22.6c0.8,0,1.2,0.9,0.8,1.5l-11.3,17c-0.4,0.6-1.2,0.6-1.6,0l-11.3-17
			C142.9,254.9,143.3,254,144.1,254z"/>
		<path id="XMLID_1986_" class="st0" d="M142.3,83.1h26.2c0,0-1.1-15.8-13.1-15.8C155.4,67.3,142.8,67.3,142.3,83.1z"/>
	</g>
	<g id="XMLID_1862_">
		<path id="XMLID_1881_" class="st0" d="M311.6,260.6h4.2c1.2,0,2,0.3,2.5,0.9c0.4,0.6,0.6,1.4,0.6,2.4v5.8c0,1.1-0.3,1.9-1,2.4
			c-0.6,0.5-1.3,0.7-2.1,0.7h-4.2V260.6z M314.4,270.8h0.4c0.8,0,1.2-0.3,1.2-1v-6c0-0.7-0.4-1.1-1.2-1.1h-0.4V270.8z"/>
		<path id="XMLID_1884_" class="st0" d="M320.5,260.6h2.6v1.8h-2.6V260.6z M320.5,263.1h2.6v9.8h-2.6V263.1z"/>
		<path id="XMLID_1887_" class="st0" d="M324.2,269.8h2.3v0.6c0,0.2,0,0.4,0.1,0.6c0.1,0.2,0.3,0.3,0.6,0.3c0.4,0,0.6-0.3,0.6-0.7
			c0-0.4-0.2-0.7-0.6-1c-0.4-0.3-0.8-0.6-1.3-0.9c-0.4-0.3-0.8-0.7-1.2-1.2c-0.4-0.5-0.5-1-0.6-1.7c0-0.9,0.3-1.7,0.8-2.1
			c0.5-0.5,1.2-0.7,2.1-0.7c1.9,0,2.9,0.8,2.9,2.6v0.5h-2.3v-0.5c0-0.1,0-0.3-0.1-0.5c-0.1-0.2-0.3-0.3-0.5-0.3
			c-0.4,0-0.6,0.2-0.6,0.7c0,0.2,0.1,0.3,0.2,0.5c0.1,0.2,0.3,0.3,0.5,0.5c0.2,0.1,0.4,0.3,0.6,0.4c0.2,0.2,0.4,0.3,0.6,0.5
			c0.5,0.3,0.9,0.7,1.2,1.1c0.3,0.5,0.5,1,0.5,1.8c0,0.2,0,0.5-0.1,0.8c0,0.3-0.2,0.6-0.4,1c-0.2,0.3-0.5,0.6-0.9,0.8
			c-0.4,0.2-1,0.3-1.7,0.4c-1.1,0-1.9-0.3-2.4-0.7c-0.4-0.5-0.7-1.1-0.7-1.9V269.8z"/>
		<path id="XMLID_1889_" class="st0" d="M331.3,265.7c0-0.3,0.1-0.6,0.1-0.9c0.1-0.3,0.3-0.6,0.5-0.9c0.2-0.3,0.6-0.5,1-0.7
			c0.4-0.2,0.9-0.3,1.6-0.3c0.6,0,1.2,0.1,1.6,0.3c0.4,0.2,0.8,0.4,1,0.7c0.1,0.1,0.2,0.3,0.3,0.4c0.1,0.2,0.1,0.3,0.2,0.5
			c0.1,0.3,0.1,0.6,0.1,0.9v2.7h-3.8v2.1c0,0.2,0,0.4,0.1,0.5c0.1,0.2,0.3,0.3,0.6,0.3c0.3,0,0.5-0.1,0.6-0.3c0-0.2,0.1-0.3,0.1-0.5
			v-1.2h2.6v1c0,0.3,0,0.6-0.1,0.9c0,0.2-0.1,0.3-0.2,0.5c-0.1,0.2-0.2,0.3-0.3,0.5c-0.2,0.3-0.6,0.5-1,0.7c-0.4,0.2-1,0.3-1.6,0.3
			c-0.6,0-1.2-0.1-1.6-0.3c-0.4-0.2-0.7-0.4-1-0.7c-0.2-0.3-0.4-0.6-0.5-0.9c-0.1-0.3-0.1-0.6-0.1-0.9V265.7z M333.9,266.6h1.3v-1.1
			c0-0.2,0-0.4-0.1-0.5c0-0.1-0.1-0.1-0.2-0.2c-0.1,0-0.2-0.1-0.4-0.1c-0.3,0-0.5,0.1-0.6,0.3c-0.1,0.2-0.1,0.4-0.1,0.5V266.6z"/>
		<path id="XMLID_1892_" class="st0" d="M339,263.1h2.5v1.1h0c0.2-0.4,0.5-0.7,0.8-1c0.3-0.2,0.7-0.3,1.2-0.3c0.7,0,1.2,0.2,1.5,0.6
			c0.3,0.4,0.5,0.9,0.5,1.5v7.9h-2.6v-6.7c0-0.2,0-0.4-0.1-0.6c0-0.1-0.1-0.2-0.2-0.2c-0.1-0.1-0.2-0.1-0.4-0.1
			c-0.3,0-0.5,0.1-0.6,0.4c-0.1,0.2-0.1,0.4-0.1,0.6v6.7H339V263.1z M344.8,260.6c-0.1,0.2-0.2,0.4-0.2,0.6
			c-0.1,0.2-0.2,0.4-0.4,0.5c-0.3,0.3-0.6,0.5-1.1,0.5c-0.3,0-0.6-0.1-0.9-0.3c-0.3-0.2-0.5-0.2-0.8-0.2c-0.1,0-0.3,0.1-0.4,0.2
			c-0.1,0.1-0.2,0.2-0.3,0.4l-0.7-0.3c0.1-0.2,0.1-0.3,0.2-0.5c0.1-0.2,0.2-0.3,0.3-0.5c0.2-0.3,0.5-0.5,0.9-0.5
			c0.4,0,0.7,0.1,1,0.2c0.3,0.2,0.6,0.3,0.9,0.3c0.2,0,0.4-0.1,0.5-0.2c0.1-0.1,0.2-0.3,0.3-0.4L344.8,260.6z"/>
		<path id="XMLID_1895_" class="st0" d="M346.7,265.7c0-0.3,0.1-0.6,0.1-0.9c0.1-0.3,0.3-0.6,0.5-0.9c0.2-0.3,0.6-0.5,1-0.7
			c0.4-0.2,0.9-0.3,1.6-0.3c0.6,0,1.2,0.1,1.6,0.3c0.4,0.2,0.8,0.4,1,0.7c0.1,0.1,0.2,0.3,0.3,0.4c0.1,0.2,0.1,0.3,0.2,0.5
			c0.1,0.3,0.1,0.6,0.1,0.9v4.6c0,0.3,0,0.6-0.1,0.9c0,0.2-0.1,0.3-0.2,0.5c-0.1,0.2-0.2,0.3-0.3,0.5c-0.2,0.3-0.6,0.5-1,0.7
			c-0.4,0.2-1,0.3-1.6,0.3c-0.6,0-1.2-0.1-1.6-0.3c-0.4-0.2-0.7-0.4-1-0.7c-0.2-0.3-0.4-0.6-0.5-0.9c-0.1-0.3-0.1-0.6-0.1-0.9V265.7
			z M349.3,270.5c0,0.2,0,0.4,0.1,0.5c0.1,0.2,0.3,0.3,0.6,0.3c0.3,0,0.5-0.1,0.6-0.3c0-0.2,0.1-0.3,0.1-0.5v-5c0-0.2,0-0.4-0.1-0.5
			c0-0.1-0.1-0.1-0.2-0.2c-0.1,0-0.2-0.1-0.4-0.1c-0.3,0-0.5,0.1-0.6,0.3c-0.1,0.2-0.1,0.4-0.1,0.5V270.5z"/>
		<path id="XMLID_1898_" class="st0" d="M358.2,264c0-1.2,0.4-2.1,1-2.7c0.7-0.6,1.5-0.9,2.6-0.9c1,0,1.8,0.2,2.6,0.6
			c0.4,0.2,0.6,0.5,0.8,0.9c0.2,0.4,0.3,0.9,0.3,1.5v1.4h-2.7v-1.2c0-0.6-0.3-1-0.9-1c-0.4,0-0.6,0.1-0.7,0.4
			c-0.1,0.2-0.2,0.5-0.2,0.7v6.1c0,0.1,0,0.2,0,0.3c0,0.1,0.1,0.3,0.1,0.4c0.1,0.3,0.4,0.4,0.7,0.5c0.6,0,1-0.3,1-0.9v-1.6h-1.1
			v-2.3h3.7v6.8H363v-1h0c-0.5,0.8-1.2,1.2-2.2,1.2c-0.5,0-0.9-0.1-1.2-0.3c-0.3-0.2-0.6-0.5-0.8-0.8c-0.4-0.7-0.6-1.5-0.6-2.5V264z
			"/>
		<path id="XMLID_1900_" class="st0" d="M366.9,263.1h2.5v1.7h0c0.1-0.2,0.2-0.5,0.3-0.7c0.1-0.2,0.2-0.4,0.3-0.6
			c0.1-0.2,0.3-0.3,0.5-0.5c0.2-0.1,0.4-0.2,0.7-0.2v3.2h-0.6c-0.4,0-0.7,0.1-0.9,0.4c-0.2,0.2-0.3,0.5-0.3,0.9v5.6h-2.6V263.1z"/>
		<path id="XMLID_1902_" class="st0" d="M378.5,272.9h-2.4v-0.8l0,0c-0.4,0.6-1.1,0.9-1.8,1c-0.5,0-0.8-0.1-1.1-0.3
			c-0.3-0.2-0.5-0.4-0.7-0.6c-0.1-0.3-0.2-0.6-0.3-1c-0.1-0.4-0.1-0.7-0.1-1.1c0-0.5,0.1-0.9,0.2-1.2c0.1-0.3,0.3-0.6,0.5-0.8
			c0.2-0.2,0.4-0.4,0.6-0.6c0.2-0.1,0.5-0.2,0.7-0.4c0.2-0.1,0.5-0.2,0.7-0.3c0.2-0.1,0.4-0.2,0.6-0.3c0.4-0.2,0.6-0.6,0.6-1.1
			c0-0.5-0.2-0.8-0.7-0.8c-0.5,0-0.7,0.2-0.7,0.7v0.8h-2.4v-0.9c0-0.7,0.3-1.3,0.9-1.8c0.6-0.4,1.3-0.6,2.2-0.6c1.2,0,2,0.2,2.5,0.7
			c0.5,0.5,0.7,1.3,0.7,2.3V272.9z M376,268l-0.8,0.5c-0.3,0.2-0.5,0.5-0.5,0.9v1.3c0,0.5,0.2,0.8,0.6,0.8c0.2,0,0.4-0.1,0.5-0.3
			c0.1-0.2,0.1-0.4,0.1-0.6V268z"/>
		<path id="XMLID_1905_" class="st0" d="M379.3,263.2h0.6v-0.7c0-0.4,0.1-0.8,0.2-1.1c0.1-0.3,0.3-0.4,0.5-0.5
			c0.2-0.1,0.4-0.2,0.7-0.2c0.3,0,0.6,0,0.8,0h1v1.7h-0.3c-0.3,0-0.5,0.2-0.5,0.5v0.4h0.7v1.9h-0.6v7.8h-2.6v-7.8h-0.6V263.2z"/>
		<path id="XMLID_1907_" class="st0" d="M384.2,260.6h2.6v1.8h-2.6V260.6z M384.2,263.1h2.6v9.8h-2.6V263.1z"/>
		<path id="XMLID_1910_" class="st0" d="M388.2,265.7c0-0.3,0.1-0.6,0.1-0.9c0.1-0.3,0.3-0.6,0.5-0.9c0.2-0.3,0.6-0.5,1-0.7
			c0.4-0.2,0.9-0.3,1.6-0.3c0.6,0,1.2,0.1,1.6,0.3c0.4,0.2,0.8,0.4,1,0.7c0.1,0.1,0.2,0.3,0.3,0.4c0.1,0.2,0.1,0.3,0.2,0.5
			c0.1,0.3,0.1,0.6,0.1,0.9v1H392v-1.2c0-0.2,0-0.4-0.1-0.5c0-0.1-0.1-0.1-0.2-0.2c-0.1,0-0.2-0.1-0.4-0.1c-0.3,0-0.5,0.1-0.6,0.3
			c-0.1,0.2-0.1,0.4-0.1,0.5v5c0,0.2,0,0.4,0.1,0.5c0.1,0.2,0.3,0.3,0.6,0.3c0.3,0,0.5-0.1,0.6-0.3c0-0.2,0.1-0.3,0.1-0.5v-1.8h2.6
			v1.6c0,0.3,0,0.6-0.1,0.9c0,0.2-0.1,0.3-0.2,0.5c-0.1,0.2-0.2,0.3-0.3,0.5c-0.2,0.3-0.6,0.5-1,0.7c-0.4,0.2-1,0.3-1.6,0.3
			c-0.6,0-1.2-0.1-1.6-0.3c-0.4-0.2-0.7-0.4-1-0.7c-0.2-0.3-0.4-0.6-0.5-0.9c-0.1-0.3-0.1-0.6-0.1-0.9V265.7z"/>
		<path id="XMLID_1912_" class="st0" d="M395.9,265.7c0-0.3,0.1-0.6,0.1-0.9c0.1-0.3,0.3-0.6,0.5-0.9c0.2-0.3,0.6-0.5,1-0.7
			c0.4-0.2,0.9-0.3,1.6-0.3c0.6,0,1.2,0.1,1.6,0.3c0.4,0.2,0.8,0.4,1,0.7c0.1,0.1,0.2,0.3,0.3,0.4c0.1,0.2,0.1,0.3,0.2,0.5
			c0.1,0.3,0.1,0.6,0.1,0.9v4.6c0,0.3,0,0.6-0.1,0.9c0,0.2-0.1,0.3-0.2,0.5c-0.1,0.2-0.2,0.3-0.3,0.5c-0.2,0.3-0.6,0.5-1,0.7
			c-0.4,0.2-1,0.3-1.6,0.3c-0.6,0-1.2-0.1-1.6-0.3c-0.4-0.2-0.7-0.4-1-0.7c-0.2-0.3-0.4-0.6-0.5-0.9c-0.1-0.3-0.1-0.6-0.1-0.9V265.7
			z M398.4,270.5c0,0.2,0,0.4,0.1,0.5c0.1,0.2,0.3,0.3,0.6,0.3c0.3,0,0.5-0.1,0.6-0.3c0-0.2,0.1-0.3,0.1-0.5v-5c0-0.2,0-0.4-0.1-0.5
			c0-0.1-0.1-0.1-0.2-0.2c-0.1,0-0.2-0.1-0.4-0.1c-0.3,0-0.5,0.1-0.6,0.3c-0.1,0.2-0.1,0.4-0.1,0.5V270.5z"/>
		<path id="XMLID_1915_" class="st0" d="M418.9,260.6h4.2c1.2,0,2,0.3,2.5,0.9c0.4,0.6,0.6,1.4,0.6,2.4v5.8c0,1.1-0.3,1.9-1,2.4
			c-0.6,0.5-1.3,0.7-2.1,0.7h-4.2V260.6z M421.8,270.8h0.4c0.8,0,1.2-0.3,1.2-1v-6c0-0.7-0.4-1.1-1.2-1.1h-0.4V270.8z"/>
		<path id="XMLID_1918_" class="st0" d="M427.9,260.6h2.6v1.8h-2.6V260.6z M427.9,263.1h2.6v9.8h-2.6V263.1z"/>
		<path id="XMLID_1921_" class="st0" d="M431.6,269.8h2.3v0.6c0,0.2,0,0.4,0.1,0.6c0.1,0.2,0.3,0.3,0.6,0.3c0.4,0,0.6-0.3,0.6-0.7
			c0-0.4-0.2-0.7-0.6-1c-0.4-0.3-0.8-0.6-1.3-0.9c-0.4-0.3-0.8-0.7-1.2-1.2c-0.4-0.5-0.5-1-0.6-1.7c0-0.9,0.3-1.7,0.8-2.1
			c0.5-0.5,1.2-0.7,2.1-0.7c1.9,0,2.9,0.8,2.9,2.6v0.5h-2.3v-0.5c0-0.1,0-0.3-0.1-0.5c-0.1-0.2-0.3-0.3-0.5-0.3
			c-0.4,0-0.6,0.2-0.6,0.7c0,0.2,0.1,0.3,0.2,0.5c0.1,0.2,0.3,0.3,0.5,0.5c0.2,0.1,0.4,0.3,0.6,0.4c0.2,0.2,0.4,0.3,0.6,0.5
			c0.5,0.3,0.9,0.7,1.2,1.1c0.3,0.5,0.5,1,0.5,1.8c0,0.2,0,0.5-0.1,0.8c0,0.3-0.2,0.6-0.4,1c-0.2,0.3-0.5,0.6-0.9,0.8
			c-0.4,0.2-1,0.3-1.7,0.4c-1.1,0-1.9-0.3-2.4-0.7c-0.4-0.5-0.7-1.1-0.7-1.9V269.8z"/>
		<path id="XMLID_1923_" class="st0" d="M438.7,265.7c0-0.3,0.1-0.6,0.1-0.9c0.1-0.3,0.3-0.6,0.5-0.9c0.2-0.3,0.6-0.5,1-0.7
			c0.4-0.2,0.9-0.3,1.6-0.3c0.6,0,1.2,0.1,1.6,0.3c0.4,0.2,0.8,0.4,1,0.7c0.1,0.1,0.2,0.3,0.3,0.4c0.1,0.2,0.1,0.3,0.2,0.5
			c0.1,0.3,0.1,0.6,0.1,0.9v2.7h-3.8v2.1c0,0.2,0,0.4,0.1,0.5c0.1,0.2,0.3,0.3,0.6,0.3c0.3,0,0.5-0.1,0.6-0.3c0-0.2,0.1-0.3,0.1-0.5
			v-1.2h2.6v1c0,0.3,0,0.6-0.1,0.9c0,0.2-0.1,0.3-0.2,0.5c-0.1,0.2-0.2,0.3-0.3,0.5c-0.2,0.3-0.6,0.5-1,0.7c-0.4,0.2-1,0.3-1.6,0.3
			c-0.6,0-1.2-0.1-1.6-0.3c-0.4-0.2-0.7-0.4-1-0.7c-0.2-0.3-0.4-0.6-0.5-0.9c-0.1-0.3-0.1-0.6-0.1-0.9V265.7z M441.2,266.6h1.3v-1.1
			c0-0.2,0-0.4-0.1-0.5c0-0.1-0.1-0.1-0.2-0.2c-0.1,0-0.2-0.1-0.4-0.1c-0.3,0-0.5,0.1-0.6,0.3c-0.1,0.2-0.1,0.4-0.1,0.5V266.6z"/>
		<path id="XMLID_1926_" class="st0" d="M446.4,263.1h2.5v1.1h0c0.2-0.4,0.5-0.7,0.8-1c0.3-0.2,0.7-0.3,1.2-0.3
			c0.7,0,1.2,0.2,1.5,0.6c0.3,0.4,0.5,0.9,0.5,1.5v7.9h-2.6v-6.7c0-0.2,0-0.4-0.1-0.6c0-0.1-0.1-0.2-0.2-0.2
			c-0.1-0.1-0.2-0.1-0.4-0.1c-0.3,0-0.5,0.1-0.6,0.4c-0.1,0.2-0.1,0.4-0.1,0.6v6.7h-2.6V263.1z M452.1,260.6
			c-0.1,0.2-0.2,0.4-0.2,0.6c-0.1,0.2-0.2,0.4-0.4,0.5c-0.3,0.3-0.6,0.5-1.1,0.5c-0.3,0-0.6-0.1-0.9-0.3c-0.3-0.2-0.5-0.2-0.8-0.2
			c-0.1,0-0.3,0.1-0.4,0.2c-0.1,0.1-0.2,0.2-0.3,0.4l-0.7-0.3c0.1-0.2,0.1-0.3,0.2-0.5c0.1-0.2,0.2-0.3,0.3-0.5
			c0.2-0.3,0.5-0.5,0.9-0.5c0.4,0,0.7,0.1,1,0.2c0.3,0.2,0.6,0.3,0.9,0.3c0.2,0,0.4-0.1,0.5-0.2c0.1-0.1,0.2-0.3,0.3-0.4
			L452.1,260.6z"/>
		<path id="XMLID_1929_" class="st0" d="M454.1,265.7c0-0.3,0.1-0.6,0.1-0.9c0.1-0.3,0.3-0.6,0.5-0.9c0.2-0.3,0.6-0.5,1-0.7
			c0.4-0.2,0.9-0.3,1.6-0.3c0.6,0,1.2,0.1,1.6,0.3c0.4,0.2,0.8,0.4,1,0.7c0.1,0.1,0.2,0.3,0.3,0.4c0.1,0.2,0.1,0.3,0.2,0.5
			c0.1,0.3,0.1,0.6,0.1,0.9v4.6c0,0.3,0,0.6-0.1,0.9c0,0.2-0.1,0.3-0.2,0.5c-0.1,0.2-0.2,0.3-0.3,0.5c-0.2,0.3-0.6,0.5-1,0.7
			c-0.4,0.2-1,0.3-1.6,0.3c-0.6,0-1.2-0.1-1.6-0.3c-0.4-0.2-0.7-0.4-1-0.7c-0.2-0.3-0.4-0.6-0.5-0.9c-0.1-0.3-0.1-0.6-0.1-0.9V265.7
			z M456.6,270.5c0,0.2,0,0.4,0.1,0.5c0.1,0.2,0.3,0.3,0.6,0.3c0.3,0,0.5-0.1,0.6-0.3c0-0.2,0.1-0.3,0.1-0.5v-5c0-0.2,0-0.4-0.1-0.5
			c0-0.1-0.1-0.1-0.2-0.2c-0.1,0-0.2-0.1-0.4-0.1c-0.3,0-0.5,0.1-0.6,0.3c-0.1,0.2-0.1,0.4-0.1,0.5V270.5z"/>
		<path id="XMLID_1932_" class="st0" d="M465.4,260.6h2.8l1,8.7h0l0.9-8.7h2.7l0.8,8.7h0l1-8.7h2.8l-2.1,12.3h-3l-0.8-7.6h0
			l-0.9,7.6h-3.1L465.4,260.6z"/>
		<path id="XMLID_1934_" class="st0" d="M478,265.7c0-0.3,0.1-0.6,0.1-0.9c0.1-0.3,0.3-0.6,0.5-0.9c0.2-0.3,0.6-0.5,1-0.7
			c0.4-0.2,0.9-0.3,1.6-0.3c0.6,0,1.2,0.1,1.6,0.3c0.4,0.2,0.8,0.4,1,0.7c0.1,0.1,0.2,0.3,0.3,0.4c0.1,0.2,0.1,0.3,0.2,0.5
			c0.1,0.3,0.1,0.6,0.1,0.9v2.7h-3.8v2.1c0,0.2,0,0.4,0.1,0.5c0.1,0.2,0.3,0.3,0.6,0.3c0.3,0,0.5-0.1,0.6-0.3c0-0.2,0.1-0.3,0.1-0.5
			v-1.2h2.6v1c0,0.3,0,0.6-0.1,0.9c0,0.2-0.1,0.3-0.2,0.5c-0.1,0.2-0.2,0.3-0.3,0.5c-0.2,0.3-0.6,0.5-1,0.7c-0.4,0.2-1,0.3-1.6,0.3
			c-0.6,0-1.2-0.1-1.6-0.3c-0.4-0.2-0.7-0.4-1-0.7c-0.2-0.3-0.4-0.6-0.5-0.9c-0.1-0.3-0.1-0.6-0.1-0.9V265.7z M480.5,266.6h1.3v-1.1
			c0-0.2,0-0.4-0.1-0.5c0-0.1-0.1-0.1-0.2-0.2c-0.1,0-0.2-0.1-0.4-0.1c-0.3,0-0.5,0.1-0.6,0.3c-0.1,0.2-0.1,0.4-0.1,0.5V266.6z"/>
		<path id="XMLID_1937_" class="st0" d="M485.7,260.6h2.6v3.4h0c0.4-0.7,1-1.1,2-1.1c1.2,0,1.9,0.9,1.9,2.5v4.8c0,1.9-0.7,2.9-2,2.9
			c-0.9,0-1.5-0.4-1.8-1.2l0,0v1h-2.6V260.6z M488.2,269.5c0,0.4,0,0.7,0.1,1.1c0.1,0.4,0.3,0.5,0.6,0.5c0.2,0,0.3-0.1,0.4-0.2
			c0.1-0.1,0.2-0.3,0.2-0.5v-5c0-0.2-0.1-0.4-0.2-0.5c-0.1-0.1-0.3-0.1-0.4-0.1c-0.3,0-0.5,0.1-0.6,0.4c-0.1,0.3-0.2,0.5-0.2,0.9
			V269.5z"/>
	</g>
	<rect id="XMLID_2112_" x="409.2" y="258.2" class="st0" width="2.8" height="14.8"/>
</g>
</svg>
