<?xml version="1.0" encoding="utf-8"?>
<!-- Generator: Adobe Illustrator 22.0.0, SVG Export Plug-In . SVG Version: 6.00 Build 0)  -->
<svg version="1.1" id="Capa_1" xmlns="http://www.w3.org/2000/svg" xmlns:xlink="http://www.w3.org/1999/xlink" x="0px" y="0px"
	 viewBox="0 0 400 300" style="enable-background:new 0 0 400 300;" xml:space="preserve">
<style type="text/css">
	.st0{fill:#D3E9F2;}
	.st1{fill:#878685;}
	.st2{fill:#4B2A71;}
	.st3{fill:#FFFFFF;}
	.st4{fill:none;stroke:#4B2A71;stroke-width:3;stroke-miterlimit:10;}
</style>
<rect y="0" class="st0" width="400" height="300"/>
<g>
	<path class="st1" d="M170,140.9c-2.7,4.2-4.1,9.6-4.1,16.2c0,6,1.3,11.1,3.9,15.5c-5-3.3-7.5-8.6-7.5-15.9
		C162.3,149.3,164.9,144,170,140.9z M192.4,175.9c3.1,0,5.4,0.3,7.1,1c1.6,0.7,4.5,2.2,8.6,4.7c6.7,4.1,11.7,6.1,15,6.1
		c2.7,0,5-0.7,7-2.1l0.4,0.5c-2.2,2.6-5,3.9-8.4,3.9c-3.7,0-9-2.1-15.8-6.4c-1.7-1.1-3.3-2.1-4.8-3c-1.6-0.9-2.6-1.5-3.2-1.8
		c-1.2-0.6-2.5-1-4-1.3c-1.4-0.3-3.3-0.4-5.5-0.4c2.6,0.6,7.2,3.1,14,7.5c6.7,4.4,12.2,7,16.4,7.7c-1.5,0.5-2.7,0.8-3.8,0.8
		c-2.2,0-4.5-0.6-6.9-1.8c-2.5-1.2-5.9-3.4-10.2-6.5c-5.7-4.1-9.9-6.5-12.4-7.3c-0.3,0-0.6,0-1,0c-4.8,0-8.6-1.8-11.5-5.3
		c-2.9-3.6-4.4-8.7-4.4-15.5c0-6.7,1.4-11.9,4.3-15.5c2.9-3.6,6.8-5.3,11.7-5.3c5,0,9,1.8,11.9,5.3c2.9,3.6,4.4,8.7,4.4,15.6
		C201.1,166.5,198.2,172.8,192.4,175.9z M197.6,156.9c0-11.9-4.3-17.8-12.9-17.8c-8.4,0-12.6,6.1-12.6,18.3
		c0,11.5,4.2,17.2,12.7,17.2C193.3,174.6,197.6,168.7,197.6,156.9z M199.7,172.8c2.7-3.7,4-9.2,4-16.6c0-6.5-1.3-11.6-4-15.3
		c5.1,3.1,7.6,8.3,7.6,15.7C207.4,163.9,204.8,169.3,199.7,172.8z"/>
</g>
<g>
	<path class="st1" d="M8,139.7c0.4,0,0.8,0,1.4,0c0.5,0,1.1,0,1.7,0c0.6,0,1.2,0,1.9,0c0.6,0,1.2,0,1.9,0c1,0,2.1-0.1,3.3-0.2
		c1.2-0.1,2.5-0.2,3.8-0.2c1.5,0,3,0.1,4.4,0.4c1.4,0.3,2.6,0.7,3.7,1.4c1.1,0.6,1.9,1.5,2.6,2.5c0.6,1,0.9,2.3,0.9,3.8
		c0,1.3-0.2,2.3-0.7,3.2c-0.4,0.9-1,1.6-1.7,2.2c-0.7,0.6-1.4,1.1-2.2,1.5c-0.8,0.4-1.5,0.7-2.2,0.9v0.1c2.7,0.4,4.8,1.4,6.3,2.9
		c1.5,1.6,2.2,3.6,2.2,6.2c0,1.9-0.4,3.4-1.2,4.7s-1.8,2.4-3.1,3.2c-1.3,0.8-2.8,1.4-4.4,1.8c-1.7,0.4-3.4,0.6-5.1,0.6
		c-0.6,0-1.1,0-1.8-0.1c-0.6,0-1.2-0.1-1.9-0.1c-0.6,0-1.3-0.1-1.9-0.1s-1.2-0.1-1.7-0.1s-1,0-1.5,0s-1.1,0-1.7,0
		c-0.6,0-1.1,0-1.6,0s-1,0-1.3,0L8,173.1c1-0.1,1.8-0.2,2.5-0.3c0.6-0.1,1.1-0.4,1.5-0.7c0.3-0.3,0.6-0.8,0.7-1.4
		c0.1-0.6,0.2-1.3,0.2-2.2v-24.4c0-0.6,0-1.1-0.1-1.5s-0.3-0.7-0.6-1s-0.8-0.4-1.4-0.6c-0.6-0.1-1.5-0.2-2.5-0.3L8,139.7z M16.8,155
		h3c3,0,5.2-0.6,6.6-1.7c1.4-1.1,2.1-2.9,2.1-5.1c0-0.8-0.1-1.6-0.3-2.5c-0.2-0.8-0.6-1.5-1.2-2.2s-1.4-1.2-2.5-1.6
		c-1.1-0.4-2.4-0.6-4.1-0.6c-0.9,0-1.5,0.1-2,0.2c-0.5,0.1-0.8,0.3-1.1,0.5c-0.2,0.2-0.3,0.5-0.4,0.8c0,0.3-0.1,0.6-0.1,1V155z
		 M16.8,169c0,0.8,0,1.5,0.1,2s0.3,0.9,0.6,1.2c0.3,0.3,0.8,0.5,1.5,0.6c0.6,0.1,1.5,0.2,2.7,0.2c2.5,0,4.6-0.6,6.1-1.9
		c1.5-1.3,2.3-3.2,2.3-5.7c0-1.5-0.3-2.8-0.8-3.8c-0.5-1.1-1.2-2-2.1-2.7s-2-1.2-3.3-1.5s-2.7-0.5-4.2-0.5h-2.9
		C16.8,156.9,16.8,169,16.8,169z"/>
	<path class="st1" d="M57,139c2.6,0,5.1,0.4,7.3,1.3c2.2,0.8,4.1,2,5.7,3.6c1.6,1.5,2.8,3.4,3.7,5.6c0.9,2.2,1.3,4.6,1.3,7.4
		c0,2.7-0.4,5.2-1.3,7.4c-0.9,2.3-2.1,4.2-3.7,5.9c-1.6,1.6-3.5,2.9-5.7,3.8c-2.2,0.9-4.6,1.4-7.3,1.4c-2.6,0-5.1-0.4-7.3-1.3
		c-2.2-0.8-4.1-2-5.7-3.6c-1.6-1.5-2.8-3.4-3.7-5.6s-1.3-4.6-1.3-7.4c0-2.7,0.4-5.2,1.3-7.4c0.9-2.3,2.1-4.2,3.7-5.9
		c1.6-1.6,3.5-2.9,5.7-3.8C51.9,139.5,54.4,139,57,139z M56.8,141c-1.7,0-3.3,0.3-4.8,0.8s-2.9,1.4-4.1,2.6
		c-1.2,1.2-2.1,2.8-2.8,4.7s-1.1,4.3-1.1,7c0,3.2,0.4,6,1.2,8.2s1.8,4,3.1,5.3s2.7,2.3,4.2,2.9c1.6,0.6,3.1,0.9,4.7,0.9
		c1.7,0,3.3-0.3,4.8-0.8s2.9-1.4,4.1-2.6c1.2-1.2,2.1-2.8,2.8-4.7c0.7-1.9,1.1-4.3,1.1-7c0-3.2-0.4-6-1.2-8.2
		c-0.8-2.2-1.8-4-3.1-5.3c-1.3-1.3-2.7-2.3-4.2-2.9C59.9,141.2,58.4,141,56.8,141z"/>
	<path class="st1" d="M87.7,162.6c0,1.7,0.3,3.2,0.9,4.5c0.6,1.2,1.3,2.3,2.3,3.1s2,1.4,3.3,1.7c1.2,0.4,2.5,0.6,3.7,0.6
		c1.3,0,2.6-0.2,3.7-0.6c1.2-0.4,2.2-1,3.2-1.9c0.9-0.9,1.7-2,2.2-3.4s0.8-3.1,0.8-5v-15.3c0-1.1-0.1-1.9-0.2-2.6
		c-0.2-0.7-0.4-1.2-0.9-1.5c-0.4-0.4-1-0.6-1.8-0.8c-0.8-0.1-1.7-0.3-2.9-0.3l0.1-1.3c0.8,0,1.9,0,3.1,0s2.5,0,3.8,0
		c1.1,0,2.2,0,3.3-0.1c1.2,0,2.1-0.1,2.9-0.1v1.2c-1.1,0.1-1.9,0.2-2.6,0.3s-1.2,0.4-1.6,0.8c-0.4,0.4-0.7,1-0.8,1.7
		c-0.1,0.8-0.2,1.8-0.2,3.1v15.4c0,2.4-0.4,4.4-1.2,6c-0.8,1.6-1.8,3-3.1,4c-1.3,1.1-2.8,1.8-4.4,2.3s-3.3,0.7-5,0.7
		s-3.3-0.2-4.8-0.7s-2.9-1.2-4-2.1c-1.2-0.9-2.1-2.1-2.8-3.6c-0.7-1.4-1.1-3.1-1.1-5v-19.4c0-0.6-0.1-1.1-0.2-1.5s-0.3-0.8-0.7-1
		c-0.4-0.3-0.9-0.5-1.5-0.6c-0.7-0.1-1.5-0.2-2.6-0.3l0.1-1.3c0.4,0,1,0,1.5,0c0.6,0,1.2,0,1.9,0c0.7,0,1.4,0,2.1,0s1.3,0,1.9,0
		c0.5,0,1,0,1.6,0s1.2,0,1.8,0c0.6,0,1.2,0,1.7,0s1,0,1.4,0l0.1,1.2c-1,0.1-1.9,0.2-2.5,0.4c-0.7,0.2-1.2,0.4-1.5,0.8
		c-0.4,0.4-0.6,0.8-0.7,1.4c-0.1,0.6-0.2,1.3-0.2,2.2v17L87.7,162.6L87.7,162.6z"/>
	<path class="st1" d="M130.9,139.8c0.8,0,1.9,0,3.2,0s2.6,0,3.9,0c1.3,0,2.7,0,4.1,0c1.4,0,2.9,0,4.3,0c-0.1,0.8-0.1,1.6-0.2,2.3
		c-0.1,0.7-0.1,1.4-0.1,2.1c0,0.7-0.1,1.4-0.1,2.1c0,0.7,0,1.5,0,2.3l-1.4,0.1c-0.2-1.3-0.5-2.4-0.7-3.3c-0.3-0.9-0.6-1.6-1.1-2.2
		c-0.5-0.6-1.1-1-2-1.2c-0.8-0.2-1.9-0.4-3.3-0.4h-4.1V170c0,0.6,0,1.1,0.1,1.5s0.3,0.7,0.7,1c0.3,0.3,0.9,0.4,1.5,0.6
		c0.7,0.1,1.6,0.2,2.8,0.3l-0.1,1.3c-0.5,0-1.1,0-1.7,0c-0.6,0-1.3,0-2,0s-1.3,0-2,0s-1.3,0-1.9,0c-0.5,0-1,0-1.6,0s-1.1,0-1.7,0
		s-1.2,0-1.7,0c-0.6,0-1.1,0-1.6,0l-0.1-1.2c1.1-0.1,2-0.2,2.7-0.3s1.2-0.4,1.5-0.7s0.6-0.8,0.7-1.4c0.1-0.6,0.2-1.3,0.2-2.2v-27.2
		h-4c-1.4,0-2.5,0.1-3.3,0.4c-0.8,0.2-1.5,0.6-2,1.2c-0.5,0.6-0.9,1.3-1.2,2.2c-0.3,0.9-0.5,2-0.7,3.3l-1.4-0.1v-2.3
		c0-1.1,0-2.1-0.1-3.1c0-1-0.1-2.1-0.2-3.4c1.5,0,2.9,0,4.3,0s2.8,0,4.1,0c1.3,0,2.5,0,3.4,0C129.1,139.8,130.1,139.8,130.9,139.8z"
		/>
	<path class="st1" d="M149.5,173.3c0.9-0.1,1.7-0.2,2.3-0.3c0.6-0.2,1-0.4,1.4-0.7c0.3-0.3,0.6-0.8,0.7-1.3c0.1-0.6,0.2-1.3,0.2-2.2
		v-24.4c0-0.6,0-1.1-0.1-1.5s-0.3-0.7-0.6-1s-0.8-0.4-1.4-0.6c-0.6-0.1-1.4-0.2-2.4-0.3l0.1-1.3c0.4,0,0.9,0,1.4,0
		c0.6,0,1.1,0,1.8,0s1.3,0,2,0s1.3,0,1.9,0c0.5,0,1,0,1.5,0c0.6,0,1.1,0,1.7,0c0.6,0,1.1,0,1.6,0s0.9,0,1.3,0l0.1,1.2
		c-0.9,0.1-1.7,0.2-2.3,0.3c-0.6,0.2-1.1,0.4-1.4,0.7c-0.3,0.3-0.6,0.8-0.7,1.3c-0.1,0.6-0.2,1.3-0.2,2.2V170c0,0.6,0,1.1,0.1,1.5
		s0.3,0.7,0.6,1s0.8,0.4,1.4,0.6c0.6,0.1,1.4,0.2,2.4,0.3v1.3c-0.4,0-0.9,0-1.5,0s-1.2,0-1.9,0c-0.6,0-1.3,0-1.9,0
		c-0.7,0-1.3,0-1.9,0c-0.5,0-1,0-1.6,0s-1.1,0-1.7,0s-1.1,0-1.6,0s-0.9,0-1.3,0L149.5,173.3z"/>
	<path class="st1" d="M215.9,162.6c0,1.7,0.3,3.2,0.9,4.5c0.6,1.2,1.3,2.3,2.3,3.1s2,1.4,3.3,1.7c1.2,0.4,2.5,0.6,3.7,0.6
		c1.3,0,2.6-0.2,3.7-0.6c1.2-0.4,2.2-1,3.2-1.9c0.9-0.9,1.7-2,2.2-3.4s0.8-3.1,0.8-5v-15.3c0-1.1-0.1-1.9-0.2-2.6
		c-0.2-0.7-0.4-1.2-0.9-1.5c-0.4-0.4-1-0.6-1.8-0.8c-0.8-0.1-1.7-0.3-2.9-0.3l0.1-1.3c0.8,0,1.9,0,3.1,0c1.2,0,2.5,0,3.8,0
		c1.1,0,2.2,0,3.3-0.1c1.2,0,2.1-0.1,2.9-0.1v1.2c-1.1,0.1-1.9,0.2-2.6,0.3c-0.7,0.1-1.2,0.4-1.6,0.8c-0.4,0.4-0.7,1-0.8,1.7
		c-0.1,0.8-0.2,1.8-0.2,3.1v15.4c0,2.4-0.4,4.4-1.2,6s-1.8,3-3.1,4c-1.3,1.1-2.8,1.8-4.4,2.3c-1.6,0.5-3.3,0.7-5,0.7
		s-3.3-0.2-4.8-0.7s-2.9-1.2-4-2.1c-1.2-0.9-2.1-2.1-2.8-3.6c-0.7-1.4-1.1-3.1-1.1-5v-19.4c0-0.6-0.1-1.1-0.2-1.5
		c-0.1-0.4-0.3-0.8-0.7-1c-0.4-0.3-0.9-0.5-1.5-0.6c-0.7-0.1-1.5-0.2-2.6-0.3l0.1-1.3c0.4,0,0.9,0,1.5,0s1.2,0,1.9,0s1.4,0,2.1,0
		c0.7,0,1.3,0,1.9,0c0.5,0,1,0,1.6,0s1.2,0,1.8,0s1.2,0,1.7,0s1,0,1.4,0l0.1,1.2c-1,0.1-1.9,0.2-2.5,0.4c-0.7,0.2-1.2,0.4-1.5,0.8
		c-0.4,0.4-0.6,0.8-0.7,1.4c-0.1,0.6-0.2,1.3-0.2,2.2v17L215.9,162.6L215.9,162.6z"/>
	<path class="st1" d="M254.5,168.7c0,0.8,0.1,1.5,0.2,2c0.1,0.5,0.3,1,0.7,1.3c0.3,0.3,0.8,0.5,1.4,0.6s1.4,0.2,2.4,0.2h2.6
		c1.4,0,2.5-0.1,3.4-0.3s1.6-0.6,2.2-1.2c0.6-0.5,1.1-1.3,1.6-2.2s1-2,1.5-3.3l1.4,0.3c-0.2,0.7-0.4,1.5-0.5,2.3
		c-0.2,0.8-0.3,1.6-0.5,2.4c-0.1,0.8-0.3,1.5-0.4,2.2s-0.2,1.2-0.2,1.7c-4.8,0-8.7,0-11.7,0s-5.2,0-6.7,0c-0.4,0-1,0-1.5,0
		c-0.6,0-1.2,0-1.8,0s-1.2,0-1.8,0s-1.1,0-1.5,0l-0.1-1.2c1.1-0.1,2-0.2,2.7-0.3c0.7-0.2,1.2-0.4,1.6-0.7c0.4-0.3,0.6-0.8,0.7-1.3
		c0.1-0.6,0.2-1.3,0.2-2.2v-24.4c0-0.6-0.1-1.1-0.2-1.5c-0.1-0.4-0.3-0.7-0.7-1c-0.3-0.3-0.8-0.4-1.4-0.6c-0.6-0.1-1.4-0.2-2.5-0.3
		l0.1-1.3c0.5,0,1,0,1.6,0s1.2,0,1.8,0s1.2,0,1.8,0s1.1,0,1.7,0c0.9,0,2.9,0,6,0c3,0,6.9,0,11.5,0c-0.1,1.2-0.3,2.5-0.3,3.9
		c-0.1,1.4-0.1,2.8-0.1,4.3h-1.5c-0.2-1.3-0.5-2.3-0.7-3.1c-0.3-0.8-0.6-1.5-1.1-2s-1.1-0.8-1.9-1.1c-0.8-0.2-1.8-0.3-3-0.3h-5.2
		c-0.7,0-1.2,0.1-1.4,0.2c-0.2,0.1-0.3,0.5-0.3,1.1v12.6l12.3-0.4l0.3,0.3l-0.1,3c-2.2-0.2-4.4-0.3-6.5-0.4
		c-2.1-0.1-4.1-0.1-5.9-0.2v10.9H254.5z"/>
	<path class="st1" d="M295.1,147.7c2.2-0.5,4.3-1.1,6.2-1.8c1.9-0.7,3.7-1.3,5.3-2l0.4,0.3c-0.1,0.6-0.1,1.2-0.2,1.9
		c0,0.7-0.1,1.3-0.1,2s0,1.3-0.1,1.9c0,0.6,0,1.1,0,1.5v18.2c0,0.6,0,1.1,0.1,1.5s0.3,0.8,0.7,1.1c0.4,0.3,1,0.5,1.8,0.7
		c0.8,0.1,1.9,0.2,3.4,0.3l-0.1,1.3c-0.8,0-1.8,0-3.1,0c-1.3,0-2.9,0-5,0s-3.8,0-5.3,0s-2.5,0-3.2,0l-0.1-1.2c1.6,0,2.8-0.1,3.7-0.3
		c0.9-0.1,1.6-0.4,2-0.8c0.4-0.4,0.7-0.9,0.8-1.6c0.1-0.7,0.2-1.6,0.2-2.7v-19.8l-7.2,1.1L295.1,147.7z"/>
	<path class="st1" d="M319.8,147.7c2.2-0.5,4.3-1.1,6.2-1.8c1.9-0.7,3.7-1.3,5.3-2l0.4,0.3c-0.1,0.6-0.1,1.2-0.2,1.9
		c0,0.7-0.1,1.3-0.1,2s0,1.3-0.1,1.9c0,0.6,0,1.1,0,1.5v18.2c0,0.6,0,1.1,0.1,1.5s0.3,0.8,0.7,1.1c0.4,0.3,1,0.5,1.8,0.7
		c0.8,0.1,1.9,0.2,3.4,0.3l-0.1,1.3c-0.8,0-1.8,0-3.1,0c-1.3,0-2.9,0-5,0s-3.8,0-5.3,0s-2.5,0-3.2,0l-0.1-1.2c1.6,0,2.8-0.1,3.7-0.3
		c0.9-0.1,1.6-0.4,2-0.8c0.4-0.4,0.7-0.9,0.8-1.6c0.1-0.7,0.2-1.6,0.2-2.7v-19.8l-7.2,1.1L319.8,147.7z"/>
	<path class="st1" d="M353.9,143.7c1.8,0,3.3,0.4,4.6,1.2c1.3,0.8,2.3,1.9,3.1,3.3c0.8,1.4,1.4,3,1.8,4.8s0.6,3.7,0.6,5.7
		c0,2.6-0.2,4.9-0.7,6.9c-0.5,2.1-1.2,3.8-2.2,5.2s-2.2,2.5-3.6,3.3s-3.1,1.2-4.9,1.2s-3.3-0.4-4.6-1.2c-1.3-0.8-2.3-1.9-3.2-3.3
		c-0.8-1.4-1.4-3-1.8-4.8s-0.6-3.7-0.6-5.7c0-2.6,0.2-4.9,0.7-6.9c0.5-2.1,1.2-3.8,2.2-5.2s2.2-2.5,3.6-3.3S352,143.7,353.9,143.7z
		 M353,145.7c-0.8,0-1.6,0.2-2.3,0.6c-0.8,0.4-1.4,1.1-2,2.1s-1,2.3-1.3,4s-0.5,3.8-0.5,6.3c0,2.8,0.2,5.1,0.6,7s1,3.4,1.6,4.5
		c0.7,1.1,1.4,1.9,2.1,2.4c0.8,0.5,1.5,0.7,2.2,0.7c0.8,0,1.6-0.2,2.3-0.6c0.7-0.4,1.4-1.1,2-2.1s1-2.3,1.3-4s0.5-3.8,0.5-6.3
		c0-2.8-0.2-5.1-0.6-7s-1-3.4-1.6-4.5s-1.3-1.9-2.1-2.4S353.7,145.7,353,145.7z"/>
	<path class="st1" d="M384,162.4c-1.3,0.8-2.5,1.4-3.8,1.8c-1.3,0.4-2.5,0.6-3.7,0.6c-1.3,0-2.5-0.2-3.7-0.7
		c-1.2-0.4-2.2-1.1-3.1-1.9c-0.9-0.8-1.6-1.9-2.1-3.1c-0.5-1.2-0.7-2.6-0.7-4.1c0-1.6,0.3-3.2,0.8-4.5c0.5-1.4,1.3-2.6,2.3-3.6
		s2.2-1.8,3.5-2.3c1.4-0.6,2.9-0.8,4.5-0.8c1.9,0,3.6,0.4,4.9,1.2c1.4,0.8,2.5,1.8,3.3,3.1s1.5,2.7,1.9,4.3s0.6,3.2,0.6,4.9
		c0,3.3-0.5,6.3-1.4,8.9c-0.9,2.6-2.3,4.9-4,6.8c-1.7,1.9-3.8,3.5-6.2,4.7c-2.4,1.2-5,2-8,2.4l-0.4-1.9c4.6-0.9,8.2-2.7,10.7-5.3
		C382,170.3,383.5,166.8,384,162.4z M384.2,160.5c0,0,0-0.2,0-0.4v-1.4c0-0.8,0-1.7-0.1-2.6c-0.1-1-0.2-1.9-0.4-2.9
		c-0.2-1-0.4-1.9-0.8-2.8c-0.3-0.9-0.8-1.7-1.3-2.4s-1.2-1.2-1.9-1.7c-0.8-0.4-1.7-0.6-2.7-0.6c-0.9,0-1.8,0.2-2.5,0.6
		c-0.7,0.4-1.3,0.9-1.7,1.5c-0.5,0.7-0.8,1.4-1.1,2.3c-0.2,0.9-0.3,1.9-0.3,3c0,1.2,0.1,2.3,0.4,3.3s0.7,1.9,1.3,2.6
		c0.6,0.7,1.3,1.3,2.2,1.7c0.9,0.4,1.9,0.6,3.1,0.6c0.6,0,1.4-0.1,2.4-0.2C381.8,161.1,382.9,160.9,384.2,160.5z"/>
</g>
<g>
	<g>
		<path class="st2" d="M175.2,78.3c-4.3,2-7.6,4.7-10,7.9c-2.4,3.3-3.5,6.5-3.5,9.5c0,1.7,0.5,3.4,1.5,5s1.9,2.4,2.9,2.4
			c0.6,0,1.9-0.4,3.8-1.3c1.9-0.8,2.9-1.5,2.9-2.1v-1.2c0-0.2-0.3-0.5-0.9-0.7c-2.3-1-3.4-2.6-3.4-4.8c0-3.7,2-7.1,6-10.1
			c2.6-2,5.5-3.3,8.5-4"/>
		<path class="st2" d="M182.5,89.9c-0.5,0.6-0.9,1.3-1.3,2.1c-1.5,2.7-2.7,7.5-3.5,14.5s-2.2,12.3-4.1,15.8
			c-1.9,3.5-4.2,5.3-6.8,5.3s-3.9-1.6-3.9-4.7c0-0.3,0.1-1.1,0.3-2.5s0.3-2.1,0.3-2.4c0-1.4-0.4-2.1-1.3-2.1c-0.5,0-1.6,0.4-3.2,1.2
			c-1.6,0.8-2.9,1.8-4.1,2.9c-0.1,0.6-0.2,1.4-0.2,2.4c0,2.6,0.9,4.6,2.6,6c1.7,1.4,4.2,2.1,7.4,2.1c3.6,0,7-0.8,10.1-2.5
			c3.1-1.6,5.6-3.8,7.7-6.6V89.9z"/>
	</g>
	<path class="st3" d="M198.5,126.2c0,2.1-1.7,3.8-3.8,3.8h-9.5c-2.1,0-3.8-1.7-3.8-3.8l0,0c0-2.1,1.7-3.8,3.8-3.8h9.5
		C196.7,122.3,198.5,124,198.5,126.2L198.5,126.2z"/>
	<g>
		<path class="st2" d="M207.6,75.9H194c4,0.5,7.4,1.8,10.2,3.7c3.8,2.7,5.7,6.1,5.7,10.2c0,6.2-4.3,10.4-12.8,12.7
			c6.7,2.1,10.1,6.4,10.1,12.7c0,4.6-1.7,8.5-5,11.8c-2.3,2.2-4.8,3.7-7.6,4.4h13.1c2.5,0,4.6-2.1,4.6-4.7V80.6
			C212.1,78,210.1,75.9,207.6,75.9z"/>
		<path class="st2" d="M184.9,130.7c-1.4-0.9-2.1-1.9-2.1-3.1c0-0.8,0.4-1.9,1.3-3.3c0.9-1.4,1.7-2.1,2.4-2.1c1,0,1.6,1.2,1.8,3.7
			c0.2,2,0.7,2.9,1.8,2.9c1.7,0,3.2-1.9,4.5-5.8c1.3-3.8,1.9-7.7,1.9-11.6c0-4.7-1.6-7.3-4.9-7.9l0.4-2.8c2.7,0,4.6-1.1,5.9-3.3
			c1.2-2.2,1.8-4.6,1.8-7.1c0-3.6-1.1-6.4-3.4-8.5c-2.3-2.1-5.4-3.2-9.3-3.2c-1.6,0-3.2,0.2-4.8,0.5c-0.1,0.5-0.2,0.9-0.2,1.4v9
			c1.1-1.3,2.4-2.4,3.7-3.2c2.4-1.5,4.2-2.2,5.5-2.2c0.7,0,1.3,0.6,2,1.7c-1.4,1.3-2.5,2.9-3.3,4.6c-0.7,1.7-1.4,5.1-2,10.1
			s-1.3,9.2-2.1,12.6c-0.8,3.1-2.1,5.9-3.9,8.6v5c0,2.5,2,4.6,4.4,4.7C185.9,131.3,185.4,131,184.9,130.7z"/>
	</g>
</g>
<line class="st4" x1="9.5" y1="187" x2="183.8" y2="187"/>
<line class="st4" x1="240.2" y1="186.2" x2="388.8" y2="186.2"/>
<line class="st4" x1="10.3" y1="193.8" x2="184.6" y2="193.8"/>
<line class="st4" x1="241" y1="193" x2="389.7" y2="193"/>
<g>
	<path class="st1" d="M28.9,201.2c0-0.3-0.1-0.5-0.2-0.7l-0.8-0.7c-0.1-0.1-0.2-0.2-0.2-0.2c0-0.1,0.1-0.2,0.2-0.2h3.2
		c2.7,0,4,1.6,4,4.7c0,2.9-0.9,3.9-1.9,4.6c1,0.5,1.9,1.6,1.9,4.4c0,3.7-1.2,5.5-3.3,5.5h-4c-0.1,0-0.2-0.1-0.2-0.2
		c0-0.1,0.1-0.1,0.2-0.2l0.8-0.7c0.2-0.2,0.2-0.4,0.2-0.7v-15.6L28.9,201.2L28.9,201.2z M30.9,208.2h0.4c1.3,0,1.8-1,1.8-4.1
		c0-2.6-0.5-3.5-1.8-3.5h-0.4V208.2z M30.9,217.3h0.8c1.1,0,1.4-0.9,1.4-4.4c0-2.5-0.5-3.5-1.8-3.5h-0.4V217.3z"/>
	<path class="st1" d="M42.7,217.2c0,0.1,0,0.2,0,0.2l0.8,0.9c0.1,0.1,0.1,0.1,0.1,0.2c0,0.1-0.1,0.1-0.2,0.1H41
		c-0.1,0-0.2-0.1-0.2-0.1v-0.9h-0.1c-0.4,0.5-0.9,1-1.7,1c-1.5,0-2.2-0.9-2.2-2.6v-10.4c0-0.1,0-0.2-0.1-0.2l-0.8-0.7
		c-0.1-0.1-0.1-0.2-0.1-0.2c0-0.1,0.1-0.1,0.2-0.1h2.5c0.1,0,0.1,0.1,0.1,0.2V216c0,1,0.3,1.5,1,1.5c0.6,0,1.2-0.8,1.2-2.1v-9.9
		c0-0.1,0-0.2-0.1-0.2l-0.7-0.7c-0.1-0.1-0.1-0.2-0.1-0.2c0-0.1,0.1-0.1,0.2-0.1h2.5c0.1,0,0.1,0.1,0.1,0.2
		C42.7,204.5,42.7,217.2,42.7,217.2z"/>
	<path class="st1" d="M46.9,204.4c0.1,0,0.2,0,0.2,0.1s0,0.1-0.1,0.2l-0.5,0.6c-0.1,0.1-0.1,0.3-0.1,0.5l0.9,7.4h0.1l0.7-7.4
		c0-0.2,0-0.4-0.1-0.5l-0.6-0.6c-0.1-0.1-0.1-0.2-0.1-0.2c0-0.1,0.1-0.1,0.2-0.1h2.7c0.1,0,0.2,0,0.2,0.1s0,0.2-0.1,0.2l-0.6,0.6
		c-0.1,0.1-0.2,0.3-0.2,0.5l-1.7,13.9c-0.2,1.7-0.9,2.4-1.7,2.4c-1.3,0-1.8-1.6-1.8-2.4c0-0.1,0-0.2,0.1-0.2s0.2,0.1,0.2,0.2
		c0.4,0.7,0.7,1.3,1.2,1.3c0.6,0,0.8-0.6,0.8-1.5c0-0.5-0.1-1.5-0.2-2.3l-1.5-11.4c0-0.1-0.1-0.3-0.2-0.4l-0.6-0.7
		c-0.1-0.1-0.1-0.2-0.1-0.2c0-0.1,0.1-0.1,0.2-0.1L46.9,204.4L46.9,204.4z"/>
	<path class="st1" d="M59.7,216.9c0,0.3,0.1,0.6,0.3,0.6c0.3,0,0.5-0.1,0.7-0.4c0.1-0.1,0.1-0.1,0.1-0.1c0.1,0,0.1,0.1,0.1,0.1
		c-0.1,0.7-0.7,1.5-1.3,1.5c-0.8,0-1.2-0.5-1.5-1c-0.4,0.5-1.1,1-1.8,1c-1,0-2.2-0.6-2.2-4.2c0-2.9,0.4-3.6,3.3-5.9
		c0.5-0.4,0.5-0.6,0.5-1.7c0-1.1-0.3-1.4-1.1-1.4c-0.7,0-1.8,0.6-2.3,1.1c-0.1,0.1-0.1,0.1-0.2,0.1c-0.1,0-0.1-0.1-0.1-0.1
		c0-0.3,1.5-2.1,2.9-2.1c0.9,0,2.5,0.6,2.5,3.2L59.7,216.9L59.7,216.9z M57.9,209.3L57.9,209.3c-1.5,1.2-1.9,2.1-1.9,4.7
		c0,2.9,0.3,3.5,0.8,3.5c0.6,0,1-0.8,1-1.5v-6.7H57.9z"/>
	<path class="st1" d="M65.5,201.2c0-0.3-0.1-0.5-0.2-0.7l-0.8-0.7c-0.1-0.1-0.2-0.2-0.2-0.2c0-0.1,0.1-0.2,0.2-0.2h4
		c0.1,0,0.2,0.1,0.2,0.2c0,0.1-0.1,0.2-0.2,0.2l-0.8,0.7c-0.2,0.2-0.2,0.4-0.2,0.7v16.1h1c0.3,0,0.6-0.1,0.7-0.4l1.6-5
		c0.1-0.1,0.1-0.2,0.2-0.2s0.1,0.1,0.1,0.2v6.3c0,0.2-0.1,0.4-0.3,0.4h-6.3c-0.1,0-0.2-0.1-0.2-0.2c0-0.1,0.1-0.1,0.2-0.2l0.8-0.7
		c0.2-0.2,0.2-0.4,0.2-0.7L65.5,201.2L65.5,201.2z"/>
	<path class="st1" d="M78.4,217.2c0,0.1,0,0.2,0,0.2l0.8,0.9c0.1,0.1,0.1,0.1,0.1,0.2c0,0.1-0.1,0.1-0.2,0.1h-2.4
		c-0.1,0-0.2-0.1-0.2-0.1v-0.9h-0.1c-0.4,0.5-0.9,1-1.7,1c-1.5,0-2.2-0.9-2.2-2.6v-10.4c0-0.1,0-0.2-0.1-0.2l-0.8-0.7
		c-0.1-0.1-0.1-0.2-0.1-0.2c0-0.1,0.1-0.1,0.2-0.1h2.5c0.1,0,0.1,0.1,0.1,0.2V216c0,1,0.3,1.5,1,1.5c0.6,0,1.2-0.8,1.2-2.1v-9.9
		c0-0.1,0-0.2-0.1-0.2l-0.7-0.7c-0.1-0.1-0.1-0.2-0.1-0.2c0-0.1,0.1-0.1,0.2-0.1h2.5c0.1,0,0.1,0.1,0.1,0.2
		C78.4,204.5,78.4,217.2,78.4,217.2z"/>
	<path class="st1" d="M82.5,211.7l-1.7-5.9c-0.1-0.2-0.1-0.3-0.2-0.4l-0.8-0.7c-0.1-0.1-0.1-0.1-0.1-0.2c0-0.1,0.1-0.1,0.2-0.1h3.3
		c0.1,0,0.2,0,0.2,0.1s-0.1,0.2-0.1,0.2l-0.6,0.7c-0.1,0.1-0.1,0.3-0.1,0.5l0.8,3h0.1l0.9-3.1c0.1-0.2,0-0.3-0.1-0.4l-0.6-0.7
		c-0.1-0.1-0.1-0.2-0.1-0.2c0-0.1,0.1-0.1,0.2-0.1h2.6c0.1,0,0.2,0,0.2,0.1s0,0.1-0.1,0.2l-0.6,0.6c-0.2,0.2-0.3,0.3-0.3,0.5
		l-1.6,4.8l1.9,6.7c0.1,0.2,0.2,0.3,0.3,0.4l0.6,0.6c0.1,0.1,0.1,0.2,0.1,0.2c0,0.1-0.1,0.1-0.2,0.1h-3.3c-0.1,0-0.2,0-0.2-0.1
		s0.1-0.1,0.1-0.2l0.5-0.7c0.1-0.2,0.2-0.6,0.1-0.8l-0.9-3.3l0,0l-1.1,3.4c-0.1,0.3,0,0.5,0.2,0.7l0.7,0.7c0.1,0.1,0.1,0.1,0.1,0.2
		c0,0.1-0.1,0.1-0.2,0.1h-3.1c-0.1,0-0.2,0-0.2-0.1s0.1-0.1,0.1-0.2l0.9-0.9c0.2-0.2,0.3-0.4,0.4-0.7L82.5,211.7z"/>
	<path class="st1" d="M93.8,217.2c0,0.1,0,0.2,0,0.2l0.8,0.9c0.1,0.1,0.1,0.1,0.1,0.2c0,0.1-0.1,0.1-0.2,0.1h-2.4
		c-0.1,0-0.2-0.1-0.2-0.1v-0.9h-0.1c-0.4,0.5-0.9,1-1.7,1c-1.5,0-2.2-0.9-2.2-2.6v-10.4c0-0.1,0-0.2-0.1-0.2l-0.8-0.7
		c-0.1-0.1-0.1-0.2-0.1-0.2c0-0.1,0.1-0.1,0.2-0.1h2.5c0.1,0,0.1,0.1,0.1,0.2V216c0,1,0.3,1.5,1,1.5c0.6,0,1.2-0.8,1.2-2.1v-9.9
		c0-0.1,0-0.2-0.1-0.2l-0.7-0.7c-0.1-0.1-0.1-0.2-0.1-0.2c0-0.1,0.1-0.1,0.2-0.1h2.5c0.1,0,0.1,0.1,0.1,0.2
		C93.8,204.5,93.8,217.2,93.8,217.2z"/>
	<path class="st1" d="M97.7,217.2c0,0.1,0,0.2,0,0.2l0.9,0.9c0.1,0.1,0.1,0.1,0.1,0.2c0,0.1-0.1,0.1-0.2,0.1h-3.4
		c-0.1,0-0.2,0-0.2-0.1s0-0.1,0.1-0.2l0.8-0.9c0.1-0.1,0.1-0.1,0.1-0.2v-11.6c0-0.1,0-0.2-0.1-0.2l-0.7-0.7
		c-0.1-0.1-0.1-0.2-0.1-0.2c0-0.1,0.1-0.1,0.2-0.1h2.5c0.1,0,0.1,0.1,0.1,0.2v0.9h0.1c0.4-0.5,0.8-1,1.4-1c0.8,0,1.4,1.4,1.4,2.2
		c0,0.1,0,0.2-0.1,0.2s-0.2-0.1-0.2-0.2c-0.3-0.7-0.8-1-1.3-1c-0.7,0-1.2,1-1.2,2.4v9.1L97.7,217.2L97.7,217.2z"/>
	<path class="st1" d="M103.6,204.4c0.1,0,0.2,0,0.2,0.1s0,0.1-0.1,0.2l-0.5,0.6c-0.1,0.1-0.1,0.3-0.1,0.5l0.9,7.4h0.1l0.7-7.4
		c0-0.2,0-0.4-0.1-0.5l-0.6-0.6c-0.1-0.1-0.1-0.2-0.1-0.2c0-0.1,0.1-0.1,0.2-0.1h2.7c0.1,0,0.2,0,0.2,0.1s0,0.2-0.1,0.2l-0.6,0.6
		c-0.1,0.1-0.2,0.3-0.2,0.5l-1.7,13.9c-0.2,1.7-0.9,2.4-1.7,2.4c-1.3,0-1.8-1.6-1.8-2.4c0-0.1,0-0.2,0.1-0.2s0.2,0.1,0.2,0.2
		c0.4,0.7,0.7,1.3,1.2,1.3c0.6,0,0.8-0.6,0.8-1.5c0-0.5-0.1-1.5-0.2-2.3l-1.5-11.4c0-0.1-0.1-0.3-0.2-0.4l-0.6-0.7
		c-0.1-0.1-0.1-0.2-0.1-0.2c0-0.1,0.1-0.1,0.2-0.1L103.6,204.4L103.6,204.4z"/>
	<path class="st1" d="M111.7,201.2c0-0.3-0.1-0.5-0.2-0.7l-0.8-0.7c-0.1-0.1-0.2-0.2-0.2-0.2c0-0.1,0.1-0.2,0.2-0.2h3.2
		c2.7,0,4,1.6,4,4.7c0,2.9-0.9,3.9-1.9,4.6c1,0.5,1.9,1.6,1.9,4.4c0,3.7-1.2,5.5-3.3,5.5h-4c-0.1,0-0.2-0.1-0.2-0.2
		c0-0.1,0.1-0.1,0.2-0.2l0.8-0.7c0.2-0.2,0.2-0.4,0.2-0.7v-15.6L111.7,201.2L111.7,201.2z M113.7,208.2h0.4c1.3,0,1.8-1,1.8-4.1
		c0-2.6-0.5-3.5-1.8-3.5h-0.4V208.2z M113.7,217.3h0.8c1.1,0,1.4-0.9,1.4-4.4c0-2.5-0.5-3.5-1.8-3.5h-0.4V217.3z"/>
	<path class="st1" d="M124.7,216.9c0,0.3,0.1,0.6,0.3,0.6c0.3,0,0.5-0.1,0.7-0.4c0.1-0.1,0.1-0.1,0.1-0.1c0.1,0,0.1,0.1,0.1,0.1
		c-0.1,0.7-0.7,1.5-1.3,1.5c-0.8,0-1.2-0.5-1.5-1c-0.4,0.5-1.1,1-1.8,1c-1,0-2.2-0.6-2.2-4.2c0-2.9,0.4-3.6,3.3-5.9
		c0.5-0.4,0.5-0.6,0.5-1.7c0-1.1-0.3-1.4-1.1-1.4c-0.7,0-1.8,0.6-2.3,1.1c-0.1,0.1-0.1,0.1-0.2,0.1s-0.1-0.1-0.1-0.1
		c0-0.3,1.5-2.1,2.9-2.1c0.9,0,2.5,0.6,2.5,3.2L124.7,216.9L124.7,216.9z M122.9,209.3L122.9,209.3c-1.5,1.2-1.9,2.1-1.9,4.7
		c0,2.9,0.3,3.5,0.8,3.5c0.6,0,1-0.8,1-1.5L122.9,209.3L122.9,209.3z"/>
	<path class="st1" d="M132.5,215.6c0,5.4-1.2,6.4-2.9,6.4c-1.9,0-2.7-1.8-2.7-2.3c0-0.1,0-0.2,0.1-0.2s0.2,0.1,0.2,0.2
		c0.5,0.7,1.1,1.1,2,1.1c0.9,0,1.5-0.7,1.5-3.3h-0.1c-0.4,0.5-0.9,1-1.7,1c-1.1,0-2.3-0.6-2.3-7.9c0-5.7,1.2-6.4,2.4-6.4
		c0.7,0,1.4,0.5,1.8,1h0.1l1.2-0.8c0.1-0.1,0.2-0.1,0.3-0.1s0.1,0.1,0.1,0.1L132.5,215.6L132.5,215.6z M130.7,207.9
		c0-1.6-0.6-2.4-1.2-2.4c-0.6,0-0.9,0.6-0.9,5.3c0,6.2,0.3,6.8,0.9,6.8c0.6,0,1.2-0.8,1.2-2.1V207.9z"/>
	<path class="st1" d="M146.4,209.2c0.1,0,0.2,0,0.2,0.1s-0.1,0.2-0.2,0.2l-0.8,0.8c0,3.8-0.4,5.5-1.3,6.6c0.1,0.3,0.3,0.5,0.6,0.5
		c0.5,0,0.9-0.5,1.1-0.8c0.1-0.1,0.2-0.1,0.2,0.1c0,0.8-0.5,2-1.8,2c-0.6,0-1-0.2-1.3-0.5c-0.4,0.3-1,0.5-1.8,0.5
		c-2.6,0-4-1.8-4-4.5c0-2.4,0.9-3.8,2-5.3l0.5-0.6l-0.3-1c-0.3-1.1-0.6-2.6-0.6-4.3c0-2,1.1-3.5,2.6-3.5c1.4,0,2.2,1.1,2.2,2.9
		c0,2.5-1.2,4.4-1.8,5.3l-0.3,0.5l0.2,0.9c0.5,2,1.3,4.8,1.9,6.4c0.5-0.8,1-4.7,0.1-5.4l-0.8-0.6c-0.1-0.1-0.2-0.1-0.2-0.2
		c0-0.1,0.1-0.1,0.2-0.1L146.4,209.2L146.4,209.2z M140.1,210.1c-0.7,0.8-1.1,2-1.1,3.7c0,2.3,1.1,3.6,2.2,3.6
		c0.5,0,0.8-0.2,1.1-0.4c-0.7-1.5-1.4-4-1.9-5.7L140.1,210.1z M141.3,206.1c0.6-0.8,1.1-2.3,1.1-3.7c0-0.9-0.2-1.8-0.9-1.8
		c-1.2,0-1.4,2-0.8,4.2l0.4,1.6L141.3,206.1z"/>
	<path class="st1" d="M152.5,217.2c0,0.1,0,0.2,0,0.2l0.9,0.9c0.1,0.1,0.1,0.1,0.1,0.2c0,0.1-0.1,0.1-0.2,0.1h-3.5
		c-0.1,0-0.2,0-0.2-0.1s0-0.1,0.1-0.2l0.8-0.9c0.1-0.1,0.1-0.1,0.1-0.2v-11.3c0-0.2-0.1-0.3-0.2-0.5l-0.8-0.8
		c-0.2-0.1-0.1-0.3,0-0.3h0.8c0.2,0,0.2-0.1,0.2-0.2V202c0-1.8,1.1-2.6,2.3-2.6s2,1.2,2,2.2c0,0.1-0.1,0.2-0.1,0.2
		c-0.1,0-0.2-0.1-0.3-0.2c-0.4-0.5-0.9-1-1.4-1s-0.6,0.5-0.6,1.1v2.6c0,0.2,0,0.2,0.2,0.2h0.8c0.1,0,0.2,0.2,0,0.3l-0.8,0.8
		c-0.1,0.1-0.2,0.3-0.2,0.5L152.5,217.2L152.5,217.2z"/>
	<path class="st1" d="M160.5,210.9c0,6.3-1.4,7.7-3,7.7s-3-1.4-3-7.7c0-5,1.4-6.5,3-6.5C159.2,204.4,160.5,205.8,160.5,210.9z
		 M158.6,210.9c0-4.5-0.4-5.4-1.1-5.4c-0.7,0-1,0.9-1,5.4c0,5.8,0.4,6.6,1,6.6C158.2,217.5,158.6,216.6,158.6,210.9z"/>
	<path class="st1" d="M164.1,217.2c0,0.1,0,0.2,0,0.2l0.9,0.9c0.1,0.1,0.1,0.1,0.1,0.2c0,0.1-0.1,0.1-0.2,0.1h-3.4
		c-0.1,0-0.2,0-0.2-0.1s0-0.1,0.1-0.2l0.8-0.9c0.1-0.1,0.1-0.1,0.1-0.2v-11.6c0-0.1,0-0.2-0.1-0.2l-0.7-0.7
		c-0.1-0.1-0.1-0.2-0.1-0.2c0-0.1,0.1-0.1,0.2-0.1h2.5c0.1,0,0.1,0.1,0.1,0.2v0.9h0.1c0.4-0.5,0.8-1,1.4-1c0.8,0,1.4,1.4,1.4,2.2
		c0,0.1,0,0.2-0.1,0.2s-0.2-0.1-0.2-0.2c-0.3-0.7-0.8-1-1.3-1c-0.7,0-1.2,1-1.2,2.4v9.1L164.1,217.2L164.1,217.2z"/>
	<path class="st1" d="M173.4,215.6c0,5.4-1.2,6.4-2.9,6.4c-1.9,0-2.7-1.8-2.7-2.3c0-0.1,0-0.2,0.1-0.2s0.2,0.1,0.2,0.2
		c0.5,0.7,1.1,1.1,2,1.1s1.5-0.7,1.5-3.3h-0.1c-0.4,0.5-0.9,1-1.7,1c-1.1,0-2.3-0.6-2.3-7.9c0-5.7,1.2-6.4,2.4-6.4
		c0.7,0,1.4,0.5,1.8,1h0.1l1.2-0.8c0.1-0.1,0.2-0.1,0.3-0.1s0.1,0.1,0.1,0.1L173.4,215.6L173.4,215.6z M171.6,207.9
		c0-1.6-0.6-2.4-1.2-2.4c-0.6,0-0.9,0.6-0.9,5.3c0,6.2,0.3,6.8,0.9,6.8c0.6,0,1.2-0.8,1.2-2.1V207.9z"/>
	<path class="st1" d="M177.2,213.1c0,3.2,0.4,4.5,1.6,4.5c0.8,0,1.3-0.4,1.8-1.2c0.1-0.1,0.1-0.1,0.2-0.1c0.1,0,0.1,0.1,0.1,0.2
		c-0.3,1.2-1.1,2.3-2.4,2.3c-2.3,0-3.3-2.3-3.3-8c0-3.9,1.1-6.2,2.9-6.2c1.5,0,2.8,1.1,2.8,4.8v1.6c0,0.2-0.1,0.3-0.2,0.3h-3.5
		L177.2,213.1L177.2,213.1z M179.1,210.1v-2.6c0-1.4-0.4-2.1-1-2.1c-0.7,0-0.9,0.7-0.9,2.1v2.6H179.1z"/>
	<path class="st1" d="M184.4,216.6c0,0.5,0.3,0.9,0.6,0.9s0.6-0.3,0.8-0.5c0.1-0.1,0.1-0.1,0.2-0.1c0.1,0,0.1,0.1,0.1,0.2
		c-0.2,0.7-0.7,1.6-1.8,1.6s-1.7-0.5-1.7-2.6v-10.4c0-0.1,0-0.3-0.1-0.3l-0.7-0.7c-0.1-0.1-0.1-0.1-0.1-0.2c0-0.1,0.1-0.2,0.4-0.2
		c1.1-0.2,1.3-2.2,1.3-3.2c0-0.1,0.1-0.2,0.2-0.2h0.8c0.1,0,0.2,0.1,0.2,0.2v2.9c0,0.1,0,0.2,0.2,0.2h0.6c0.1,0,0.2,0.2,0,0.3
		l-0.6,0.7c-0.1,0.1-0.2,0.3-0.2,0.5v10.9L184.4,216.6L184.4,216.6z"/>
	<path class="st1" d="M192,216.6c0,0.5,0.3,0.9,0.6,0.9s0.6-0.3,0.8-0.5c0.1-0.1,0.1-0.1,0.2-0.1c0.1,0,0.1,0.1,0.1,0.2
		c-0.2,0.7-0.7,1.6-1.8,1.6s-1.7-0.5-1.7-2.6v-10.4c0-0.1,0-0.3-0.1-0.3l-0.7-0.7c-0.1-0.1-0.1-0.1-0.1-0.2c0-0.1,0.1-0.2,0.4-0.2
		c1.1-0.2,1.3-2.2,1.3-3.2c0-0.1,0.1-0.2,0.2-0.2h0.8c0.1,0,0.2,0.1,0.2,0.2v2.9c0,0.1,0,0.2,0.2,0.2h0.6c0.1,0,0.2,0.2,0,0.3
		l-0.6,0.7c-0.1,0.1-0.2,0.3-0.2,0.5v10.9L192,216.6L192,216.6z"/>
	<path class="st1" d="M196.5,205.3L196.5,205.3c0.5-0.5,0.9-0.9,1.8-0.9c1.3,0,2.1,0.9,2.1,2.6v10.2c0,0.1,0,0.2,0.1,0.2l0.8,0.9
		c0.1,0.1,0.1,0.1,0.1,0.2c0,0.1-0.1,0.1-0.2,0.1h-3.4c-0.1,0-0.2,0-0.2-0.1s0.1-0.1,0.1-0.2l0.8-0.9c0.1-0.1,0.1-0.1,0.1-0.2V207
		c0-1-0.3-1.5-0.9-1.5c-0.6,0-1.3,0.8-1.3,2.2v9.5c0,0.1,0,0.2,0,0.2l0.8,0.9c0.1,0.1,0.1,0.1,0.1,0.2c0,0.1-0.1,0.1-0.2,0.1h-3.4
		c-0.1,0-0.2,0-0.2-0.1s0-0.1,0.1-0.2l0.8-0.9c0.1-0.1,0.1-0.1,0.1-0.2v-16.6c0-0.1,0-0.2-0.1-0.2l-0.7-0.7
		c-0.1-0.1-0.1-0.1-0.1-0.2c0-0.1,0.1-0.1,0.2-0.1h2.4c0.1,0,0.2,0.1,0.2,0.2L196.5,205.3L196.5,205.3z"/>
	<path class="st1" d="M204.2,213.1c0,3.2,0.4,4.5,1.6,4.5c0.8,0,1.3-0.4,1.8-1.2c0.1-0.1,0.1-0.1,0.2-0.1c0.1,0,0.1,0.1,0.1,0.2
		c-0.3,1.2-1.1,2.3-2.4,2.3c-2.3,0-3.3-2.3-3.3-8c0-3.9,1.1-6.2,2.9-6.2c1.5,0,2.8,1.1,2.8,4.8v1.6c0,0.2-0.1,0.3-0.2,0.3h-3.5
		L204.2,213.1L204.2,213.1z M206.1,210.1v-2.6c0-1.4-0.4-2.1-1-2.1c-0.7,0-0.9,0.7-0.9,2.1v2.6H206.1z"/>
	<path class="st1" d="M212.7,205.4c0-0.1,0-0.2-0.1-0.2l-0.7-0.6c-0.1-0.1-0.1-0.2-0.1-0.2c0-0.1,0.1-0.1,0.2-0.1h2.5
		c0.1,0,0.1,0.1,0.1,0.2v0.7h0.1c0.4-0.5,0.9-0.9,1.7-0.9c1.1,0,2.3,0.7,2.3,6.4c-0.1,7.2-1.2,7.9-2.4,7.9c-0.8,0-1.3-0.5-1.7-1
		h-0.1v3c0,0.1,0,0.2,0,0.2l0.8,0.9c0.1,0.1,0.1,0.1,0.1,0.2c0,0.1-0.1,0.1-0.2,0.1h-3.4c-0.1,0-0.2,0-0.2-0.1s0-0.1,0.1-0.2
		l0.8-0.9c0.1,0,0.1-0.1,0.1-0.2L212.7,205.4L212.7,205.4z M214.5,215.6c0,1.1,0.7,1.9,1.3,1.9s0.8-0.6,0.8-6.8
		c0-4.7-0.3-5.3-0.9-5.3c-0.4,0-1.1,0.7-1.1,1.9v8.3L214.5,215.6L214.5,215.6z"/>
	<path class="st1" d="M225.4,216.9c0,0.3,0.1,0.6,0.3,0.6c0.3,0,0.5-0.1,0.7-0.4c0.1-0.1,0.1-0.1,0.1-0.1c0.1,0,0.1,0.1,0.1,0.1
		c-0.1,0.7-0.7,1.5-1.3,1.5c-0.8,0-1.2-0.5-1.5-1c-0.4,0.5-1.1,1-1.8,1c-1,0-2.2-0.6-2.2-4.2c0-2.9,0.4-3.6,3.3-5.9
		c0.5-0.4,0.5-0.6,0.5-1.7c0-1.1-0.3-1.4-1.1-1.4c-0.7,0-1.8,0.6-2.3,1.1c-0.1,0.1-0.1,0.1-0.2,0.1c-0.1,0-0.1-0.1-0.1-0.1
		c0-0.3,1.5-2.1,2.9-2.1c0.9,0,2.5,0.6,2.5,3.2v9.3L225.4,216.9L225.4,216.9z M223.6,209.3L223.6,209.3c-1.5,1.2-1.9,2.1-1.9,4.7
		c0,2.9,0.3,3.5,0.8,3.5c0.6,0,1-0.8,1-1.5L223.6,209.3L223.6,209.3z"/>
	<path class="st1" d="M231.8,209.4c0,0.1-0.1,0.2-0.2,0.2c-0.1,0-0.1-0.1-0.2-0.2c-0.2-0.8-0.3-1.6-0.8-2.7
		c-0.3-0.8-0.7-1.3-1.2-1.3s-0.6,0.6-0.6,1.4c0,1.1,0.5,2.5,1.6,4.2c1,1.6,1.7,3.4,1.7,5s-1.1,2.6-2.2,2.6c-0.7,0-1.2-0.3-1.5-0.8
		l-0.7,0.7c-0.1,0.1-0.2,0.1-0.3,0.1s-0.1-0.1-0.1-0.2v-4.9c0-0.1,0-0.2,0.1-0.2s0.1,0.1,0.2,0.2c0.4,2.1,1,3.9,1.9,3.9
		c0.6,0,0.8-0.4,0.8-1.1c0-1.6-0.8-3.3-1.6-4.6c-0.9-1.5-1.5-3.1-1.5-4.7c0-1.7,1-2.7,1.9-2.7c0.6,0,1.1,0.3,1.5,0.8l0.7-0.7
		c0.1-0.1,0.1-0.2,0.2-0.2c0.1,0,0.1,0.1,0.1,0.3v4.9H231.8z"/>
	<path class="st1" d="M235.7,216.6c0,0.5,0.3,0.9,0.6,0.9s0.6-0.3,0.8-0.5c0.1-0.1,0.1-0.1,0.2-0.1c0.1,0,0.1,0.1,0.1,0.2
		c-0.2,0.7-0.7,1.6-1.8,1.6s-1.7-0.5-1.7-2.6v-10.4c0-0.1,0-0.3-0.1-0.3l-0.7-0.7c-0.1-0.1-0.1-0.1-0.1-0.2c0-0.1,0.1-0.2,0.4-0.2
		c1.1-0.2,1.3-2.2,1.3-3.2c0-0.1,0.1-0.2,0.2-0.2h0.8c0.1,0,0.2,0.1,0.2,0.2v2.9c0,0.1,0,0.2,0.2,0.2h0.6c0.1,0,0.2,0.2,0,0.3
		l-0.6,0.7c-0.1,0.1-0.2,0.3-0.2,0.5v10.9L235.7,216.6L235.7,216.6z"/>
	<path class="st1" d="M247.2,210.9c0,6.3-1.4,7.7-3.1,7.7c-1.6,0-3-1.4-3-7.7c0-5,1.4-6.5,3-6.5
		C245.8,204.4,247.2,205.8,247.2,210.9z M245.2,210.9c0-4.5-0.4-5.4-1.1-5.4c-0.7,0-1,0.9-1,5.4c0,5.8,0.4,6.6,1,6.6
		C244.8,217.5,245.2,216.6,245.2,210.9z"/>
	<path class="st1" d="M250.7,217.2c0,0.1,0,0.2,0,0.2l0.9,0.9c0.1,0.1,0.1,0.1,0.1,0.2c0,0.1-0.1,0.1-0.2,0.1h-3.4
		c-0.1,0-0.2,0-0.2-0.1s0-0.1,0.1-0.2l0.8-0.9c0.1-0.1,0.1-0.1,0.1-0.2v-11.6c0-0.1,0-0.2-0.1-0.2l-0.7-0.7
		c-0.1-0.1-0.1-0.2-0.1-0.2c0-0.1,0.1-0.1,0.2-0.1h2.5c0.1,0,0.1,0.1,0.1,0.2v0.9h0.1c0.4-0.5,0.8-1,1.4-1c0.8,0,1.4,1.4,1.4,2.2
		c0,0.1,0,0.2-0.1,0.2s-0.2-0.1-0.2-0.2c-0.3-0.7-0.8-1-1.3-1c-0.7,0-1.2,1-1.2,2.4v9.1L250.7,217.2L250.7,217.2z"/>
	<path class="st1" d="M258.1,201.2c0-0.3-0.1-0.5-0.2-0.7l-0.8-0.7c-0.1-0.1-0.2-0.2-0.2-0.2c0-0.1,0-0.2,0.2-0.2h3.2
		c2.7,0,4,1.6,4,4.7c0,2.9-0.9,3.9-1.9,4.6c1,0.5,1.9,1.6,1.9,4.4c0,3.7-1.2,5.5-3.3,5.5h-4c-0.1,0-0.2-0.1-0.2-0.2
		c0-0.1,0.1-0.1,0.2-0.2l0.8-0.7c0.2-0.2,0.2-0.4,0.2-0.7L258.1,201.2L258.1,201.2z M260.1,208.2h0.4c1.3,0,1.8-1,1.8-4.1
		c0-2.6-0.5-3.5-1.8-3.5h-0.4V208.2z M260.1,217.3h0.8c1.1,0,1.4-0.9,1.4-4.4c0-2.5-0.5-3.5-1.8-3.5h-0.4V217.3z"/>
	<path class="st1" d="M267.3,213.1c0,3.2,0.4,4.5,1.6,4.5c0.8,0,1.3-0.4,1.8-1.2c0.1-0.1,0.1-0.1,0.2-0.1s0.1,0.1,0.1,0.2
		c-0.3,1.2-1.1,2.3-2.4,2.3c-2.3,0-3.3-2.3-3.3-8c0-3.9,1.1-6.2,2.9-6.2c1.5,0,2.8,1.1,2.8,4.8v1.6c0,0.2-0.1,0.3-0.2,0.3h-3.5
		V213.1z M269.2,210.1v-2.6c0-1.4-0.4-2.1-1-2.1c-0.7,0-0.9,0.7-0.9,2.1v2.6H269.2z"/>
	<path class="st1" d="M275.3,204.4c1.3,0,1.9,1.3,2.2,2.6c0,0.1,0,0.2-0.1,0.2s-0.1-0.1-0.2-0.1c-0.7-1.1-1.2-1.6-1.8-1.6
		c-0.9,0-1.2,1.1-1.2,5.5c0,5.3,0.4,6.6,1.3,6.6c0.7,0,1.3-0.6,1.7-1.4c0.1-0.1,0.2-0.2,0.2-0.2s0.1,0.1,0.1,0.2
		c-0.3,1.2-0.9,2.5-2.3,2.5c-2.1,0-3-2.3-3-7.7C272.3,206.7,273.4,204.4,275.3,204.4z"/>
	<path class="st1" d="M284.2,216.9c0,0.3,0.1,0.6,0.3,0.6c0.3,0,0.5-0.1,0.7-0.4c0.1-0.1,0.1-0.1,0.1-0.1c0.1,0,0.1,0.1,0.1,0.1
		c-0.1,0.7-0.7,1.5-1.3,1.5c-0.8,0-1.2-0.5-1.5-1c-0.4,0.5-1.1,1-1.8,1c-1,0-2.2-0.6-2.2-4.2c0-2.9,0.4-3.6,3.3-5.9
		c0.5-0.4,0.5-0.6,0.5-1.7c0-1.1-0.3-1.4-1.1-1.4c-0.7,0-1.8,0.6-2.3,1.1c-0.1,0.1-0.1,0.1-0.2,0.1s-0.1-0.1-0.1-0.1
		c0-0.3,1.5-2.1,2.9-2.1c0.9,0,2.5,0.6,2.5,3.2v9.3L284.2,216.9L284.2,216.9z M282.4,209.3L282.4,209.3c-1.5,1.2-1.9,2.1-1.9,4.7
		c0,2.9,0.3,3.5,0.8,3.5c0.6,0,1-0.8,1-1.5v-6.7H282.4z"/>
	<path class="st1" d="M292.3,217.2c0,0.1,0,0.2,0,0.2l0.8,0.9c0.1,0.1,0.1,0.1,0.1,0.2c0,0.1-0.1,0.1-0.2,0.1h-2.4
		c-0.1,0-0.2-0.1-0.2-0.1v-0.9h-0.1c-0.4,0.5-0.9,1-1.7,1c-1.5,0-2.2-0.9-2.2-2.6v-10.4c0-0.1,0-0.2-0.1-0.2l-0.8-0.7
		c-0.1-0.1-0.1-0.2-0.1-0.2c0-0.1,0.1-0.1,0.2-0.1h2.5c0.1,0,0.1,0.1,0.1,0.2V216c0,1,0.3,1.5,1,1.5c0.6,0,1.2-0.8,1.2-2.1v-9.9
		c0-0.1,0-0.2-0.1-0.2l-0.7-0.7c-0.1-0.1-0.1-0.2-0.1-0.2c0-0.1,0.1-0.1,0.2-0.1h2.5c0.1,0,0.1,0.1,0.1,0.2L292.3,217.2L292.3,217.2
		z"/>
	<path class="st1" d="M298.6,209.4c0,0.1-0.1,0.2-0.2,0.2s-0.1-0.1-0.2-0.2c-0.2-0.8-0.3-1.6-0.8-2.7c-0.3-0.8-0.7-1.3-1.2-1.3
		s-0.6,0.6-0.6,1.4c0,1.1,0.5,2.5,1.6,4.2c1,1.6,1.7,3.4,1.7,5s-1.1,2.6-2.2,2.6c-0.7,0-1.2-0.3-1.5-0.8l-0.7,0.7
		c-0.1,0.1-0.2,0.1-0.3,0.1c-0.1,0-0.1-0.1-0.1-0.2v-4.9c0-0.1,0-0.2,0.1-0.2s0.1,0.1,0.2,0.2c0.4,2.1,1,3.9,1.9,3.9
		c0.6,0,0.8-0.4,0.8-1.1c0-1.6-0.8-3.3-1.6-4.6c-0.9-1.5-1.5-3.1-1.5-4.7c0-1.7,1-2.7,1.9-2.7c0.6,0,1.1,0.3,1.5,0.8l0.7-0.7
		c0.1-0.1,0.1-0.2,0.2-0.2s0.1,0.1,0.1,0.3v4.9H298.6z"/>
	<path class="st1" d="M302.2,213.1c0,3.2,0.4,4.5,1.6,4.5c0.8,0,1.3-0.4,1.8-1.2c0.1-0.1,0.1-0.1,0.2-0.1s0.1,0.1,0.1,0.2
		c-0.3,1.2-1.1,2.3-2.4,2.3c-2.3,0-3.3-2.3-3.3-8c0-3.9,1.1-6.2,2.9-6.2c1.5,0,2.8,1.1,2.8,4.8v1.6c0,0.2-0.1,0.3-0.2,0.3h-3.5
		V213.1z M304.1,210.1v-2.6c0-1.4-0.4-2.1-1-2.1c-0.7,0-0.9,0.7-0.9,2.1v2.6H304.1z"/>
	<path class="st1" d="M310.7,205.6c0-0.1,0-0.2-0.1-0.2l-0.8-0.7c-0.1-0.1-0.1-0.2-0.1-0.2c0-0.1,0.1-0.1,0.2-0.1h2.5
		c0.1,0,0.1,0.1,0.1,0.2v12.7c0,0.1,0,0.2,0.1,0.2l0.8,0.9c0.1,0.1,0.1,0.1,0.1,0.2c0,0.1-0.1,0.1-0.2,0.1h-3.4
		c-0.1,0-0.2,0-0.2-0.1s0.1-0.1,0.1-0.2l0.8-0.9c0.1-0.1,0.1-0.1,0.1-0.2V205.6z M312.5,200.8c0,0.7-0.4,1.4-0.9,1.4
		s-0.9-0.7-0.9-1.4s0.4-1.4,0.9-1.4C312.1,199.4,312.5,200.1,312.5,200.8z"/>
	<path class="st1" d="M316.5,216.6c0,0.5,0.3,0.9,0.6,0.9c0.3,0,0.6-0.3,0.8-0.5c0.1-0.1,0.1-0.1,0.2-0.1s0.1,0.1,0.1,0.2
		c-0.2,0.7-0.7,1.6-1.8,1.6s-1.7-0.5-1.7-2.6v-10.4c0-0.1,0-0.3-0.1-0.3l-0.7-0.7c-0.1-0.1-0.1-0.1-0.1-0.2c0-0.1,0.1-0.2,0.4-0.2
		c1.1-0.2,1.3-2.2,1.3-3.2c0-0.1,0.1-0.2,0.2-0.2h0.8c0.1,0,0.2,0.1,0.2,0.2v2.9c0,0.1,0,0.2,0.2,0.2h0.6c0.1,0,0.2,0.2,0,0.3
		l-0.6,0.7c-0.1,0.1-0.2,0.3-0.2,0.5v10.9L316.5,216.6L316.5,216.6z"/>
	<path class="st1" d="M322.1,205.8c0-0.2-0.1-0.3-0.2-0.5l-0.5-0.6c-0.1-0.1-0.1-0.2-0.1-0.2c0-0.1,0.1-0.1,0.2-0.1h2.9
		c0.1,0,0.2,0,0.2,0.1s-0.1,0.1-0.1,0.2l-0.5,0.6c-0.1,0.2-0.2,0.3-0.2,0.5l1.1,7.2h0.1l0.9-6.8c0-0.3-0.1-0.5-0.3-0.7l-0.5-0.7
		c-0.1-0.1-0.1-0.2-0.1-0.2c0-0.1,0.1-0.1,0.2-0.1h2.7c0.1,0,0.2,0,0.2,0.1s-0.1,0.1-0.1,0.2l-0.6,0.8c-0.2,0.2-0.3,0.4-0.3,0.7
		l1,6.8h0.1l0.9-7.3c0-0.2,0-0.3-0.1-0.4l-0.5-0.6c0-0.1-0.1-0.2-0.1-0.2c0-0.1,0.1-0.1,0.2-0.1h2.5c0.1,0,0.2,0,0.2,0.1
		s-0.1,0.1-0.1,0.2l-0.6,0.6c-0.2,0.2-0.2,0.4-0.3,0.6l-1.6,12.3c0,0.2-0.2,0.4-0.3,0.4h-0.5c-0.2,0-0.2-0.2-0.3-0.3l-1.2-8.1h-0.1
		l-1,8c0,0.2-0.1,0.4-0.2,0.4h-0.5c-0.2,0-0.3-0.1-0.3-0.3L322.1,205.8z"/>
	<path class="st1" d="M337.2,210.9c0,6.3-1.4,7.7-3,7.7s-3-1.4-3-7.7c0-5,1.4-6.5,3-6.5C335.8,204.4,337.2,205.8,337.2,210.9z
		 M335.2,210.9c0-4.5-0.4-5.4-1-5.4c-0.7,0-1,0.9-1,5.4c0,5.8,0.4,6.6,1,6.6C334.8,217.5,335.2,216.6,335.2,210.9z"/>
	<path class="st1" d="M340.7,217.2c0,0.1,0,0.2,0,0.2l0.9,0.9c0.1,0.1,0.1,0.1,0.1,0.2c0,0.1-0.1,0.1-0.2,0.1h-3.4
		c-0.1,0-0.2,0-0.2-0.1s0-0.1,0.1-0.2l0.8-0.9c0-0.1,0-0.1,0-0.2v-11.6c0-0.1,0-0.2-0.1-0.2l-0.7-0.7c-0.1-0.1-0.1-0.2-0.1-0.2
		c0-0.1,0.1-0.1,0.2-0.1h2.5c0.1,0,0.1,0.1,0.1,0.2v0.9h0.1c0.4-0.5,0.8-1,1.4-1c0.8,0,1.4,1.4,1.4,2.2c0,0.1,0,0.2-0.1,0.2
		s-0.2-0.1-0.2-0.2c-0.3-0.7-0.8-1-1.3-1c-0.7,0-1.2,1-1.2,2.4L340.7,217.2L340.7,217.2z"/>
	<path class="st1" d="M346.4,216.6c0,0.5,0.3,0.9,0.6,0.9c0.3,0,0.6-0.3,0.8-0.5c0.1-0.1,0.1-0.1,0.2-0.1s0.1,0.1,0.1,0.2
		c-0.2,0.7-0.7,1.6-1.8,1.6c-1.1,0-1.7-0.5-1.7-2.6v-10.4c0-0.1,0-0.3-0.1-0.3l-0.7-0.7c-0.1-0.1-0.1-0.1-0.1-0.2
		c0-0.1,0.1-0.2,0.4-0.2c1.1-0.2,1.3-2.2,1.3-3.2c0-0.1,0.1-0.2,0.2-0.2h0.8c0.1,0,0.2,0.1,0.2,0.2v2.9c0,0.1,0,0.2,0.2,0.2h0.6
		c0.1,0,0.2,0.2,0,0.3l-0.6,0.7c-0.1,0.1-0.2,0.3-0.2,0.5v10.9L346.4,216.6L346.4,216.6z"/>
	<path class="st1" d="M350.9,205.3L350.9,205.3c0.5-0.5,0.9-0.9,1.8-0.9c1.3,0,2.1,0.9,2.1,2.6v10.2c0,0.1,0,0.2,0.1,0.2l0.8,0.9
		c0.1,0.1,0.1,0.1,0.1,0.2c0,0.1-0.1,0.1-0.2,0.1h-3.4c-0.1,0-0.2,0-0.2-0.1s0.1-0.1,0.1-0.2l0.8-0.9c0.1-0.1,0.1-0.1,0.1-0.2V207
		c0-1-0.3-1.5-0.9-1.5s-1.3,0.8-1.3,2.2v9.5c0,0.1,0,0.2,0,0.2l0.8,0.9c0.1,0.1,0.1,0.1,0.1,0.2c0,0.1-0.1,0.1-0.2,0.1h-3.4
		c-0.1,0-0.2,0-0.2-0.1s0-0.1,0.1-0.2l0.8-0.9c0.1-0.1,0.1-0.1,0.1-0.2v-16.6c0-0.1,0-0.2-0.1-0.2l-0.7-0.7
		c-0.1-0.1-0.1-0.1-0.1-0.2c0-0.1,0.1-0.1,0.2-0.1h2.4c0.1,0,0.2,0.1,0.2,0.2v5.7L350.9,205.3L350.9,205.3z"/>
	<path class="st1" d="M360.1,205.6c0-0.1,0-0.2-0.1-0.2l-0.8-0.7c-0.1-0.1-0.1-0.2-0.1-0.2c0-0.1,0.1-0.1,0.2-0.1h2.5
		c0.1,0,0.1,0.1,0.1,0.2v12.7c0,0.1,0,0.2,0.1,0.2l0.8,0.9c0.1,0.1,0.1,0.1,0.1,0.2c0,0.1-0.1,0.1-0.2,0.1h-3.4
		c-0.1,0-0.2,0-0.2-0.1s0.1-0.1,0.1-0.2l0.8-0.9c0-0.1,0-0.1,0-0.2v-11.7H360.1z M361.9,200.8c0,0.7-0.4,1.4-0.9,1.4
		s-0.9-0.7-0.9-1.4s0.4-1.4,0.9-1.4C361.5,199.4,361.9,200.1,361.9,200.8z"/>
	<path class="st1" d="M365.8,216.6c0,0.5,0.3,0.9,0.6,0.9c0.3,0,0.6-0.3,0.8-0.5c0.1-0.1,0.1-0.1,0.2-0.1s0.1,0.1,0.1,0.2
		c-0.2,0.7-0.7,1.6-1.8,1.6c-1.1,0-1.7-0.5-1.7-2.6v-10.4c0-0.1,0-0.3-0.1-0.3l-0.7-0.7c-0.1-0.1-0.1-0.1-0.1-0.2
		c0-0.1,0.1-0.2,0.4-0.2c1.1-0.2,1.3-2.2,1.3-3.2c0-0.1,0.1-0.2,0.2-0.2h0.8c0.1,0,0.2,0.1,0.2,0.2v2.9c0,0.1,0,0.2,0.2,0.2h0.6
		c0.1,0,0.2,0.2,0,0.3l-0.6,0.7c-0.1,0.1-0.2,0.3-0.2,0.5v10.9L365.8,216.6L365.8,216.6z"/>
	<path class="st1" d="M371.4,201c-0.1-1.1,0.2-1.6,1-1.6c0.9,0,1.1,0.6,1.1,1.6l-0.8,12.6c0,0.2-0.1,0.4-0.3,0.4
		c-0.2,0-0.3-0.2-0.3-0.4L371.4,201z M373.3,217.3c0,0.6-0.2,1.3-0.9,1.3c-0.7,0-0.9-0.7-0.9-1.3s0.3-1.3,0.9-1.3
		C373.1,216,373.3,216.7,373.3,217.3z"/>
</g>
</svg>
