<?xml version="1.0" encoding="utf-8"?>
<!-- Generator: Adobe Illustrator 22.0.0, SVG Export Plug-In . SVG Version: 6.00 Build 0)  -->
<svg version="1.1" id="Capa_1" xmlns="http://www.w3.org/2000/svg" xmlns:xlink="http://www.w3.org/1999/xlink" x="0px" y="0px"
	 viewBox="0 0 400 300" style="enable-background:new 0 0 400 300;" xml:space="preserve">
<style type="text/css">
	.st0{fill:#EBBAF4;}
	.st1{fill:#823175;}
	.st2{fill:#A3B61D;}
	.st3{opacity:0.79;fill:#A3B61D;enable-background:new    ;}
</style>
<rect class="st0" width="400" height="300"/>
<g id="XMLID_1_">
	<path id="XMLID_8_" class="st1" d="M9.8,167.8c0,0-9.8-28.2,21.6-56.9c0,0,1-1,2.2,1.6c0,0,4.3,11.7,5.2,17.9
		c0,0-6.3-15.7-7.3-15.9C31.5,114.5,8.4,142.5,9.8,167.8z"/>
	<path id="XMLID_9_" class="st1" d="M38.8,177.6c0,0,23.2,0.5,23.3-26.8c0,0-6.3-5.2-8.7-8.4c0,0-6.8-9.4-11.9-9.2
		c0,0,5.2,3.6,9.7,11.7c0,0,2.3,5.5,6.5,7.8C57.7,152.7,60.5,168.4,38.8,177.6z"/>
</g>
<path id="XMLID_10_" class="st1" d="M192.9,140c0,0,7.7,18.3,2.2,34.7c0,0-8.4,26.5-33.8,9.4c0,0,22,12,31.4-11.5
	c0,0,3.7-11-1.5-27.7c0,0-8,4.7-15.3,0.6c0,0-8.3-6.2-16-17.4c0,0,1.4-5.1,2.9-3.6c4.6,4.6,14.3,20.1,19.9,19
	C182.6,143.5,192.2,142.4,192.9,140z"/>
<g id="XMLID_2_">
	<path id="XMLID_6_" class="st1" d="M105.8,156.2c0,3.4-0.5,6.2-1.5,8.5c-1.2,2.6-3.1,4.7-5.8,6.3l-2.9,1.7
		c-3.3,1.8-6.3,2.7-9.3,2.7c-8.4,0-14.1-2-17.1-6.1c-2.2-2.9-3.3-7.7-3.3-14.4c0-3.3,0.9-6.3,2.6-9c1.5-2.4,3.3-4.2,5.5-5.2l3.1-1.5
		c1.7-0.8,3.3-1.3,4.8-1.5s3.5-0.3,6-0.3c7.1,0,12,1.9,14.7,5.6C104.8,145.8,105.8,150.2,105.8,156.2z M101.9,159.4
		c0-6.4-0.7-10.8-2-13.1c-2.4-4.3-7.7-6.4-15.7-6.4c-5.9,0-9.8,0.9-11.6,2.6c-1.8,1.7-2.7,5.2-2.7,10.4c0,5.8,1,10.2,3,13.2
		c2.6,4,7.3,6.1,13.9,6.1c7,0,11.4-1.2,13.4-3.7C101.4,167,101.9,164,101.9,159.4z"/>
	<path id="XMLID_12_" class="st1" d="M165.7,168c-1.4,0.7-2.7,1.3-4.1,1.8c-1.8,0.8-3,1.3-3.7,1.5c-3.6,1.5-6.1,2.5-7.5,3
		c-2.4,0.8-5.8,1.2-10.3,1.2c-11.1,0-18.9-2.7-23.3-8.1c-3.5-4.3-5.3-10.9-5.3-19.8c0-3.9,0.7-7.3,2.1-10.2s3.7-5.5,6.8-7.9l2.5-1.9
		c2.7-2,6-3.6,10-4.7c3.9-1.1,8.2-1.7,12.6-1.7c3.1,0,7.2,0.3,12.2,1c1.7,0.2,3.9,0.6,6.7,1l0.4,0.6c-0.4,0.9-0.7,1.6-0.9,2
		s-0.3,0.9-0.5,1.6c-0.2,0.6-0.3,1.3-0.5,2.1s1.5,0.5,1.5,1.3l-0.6,0.9c2.1-1-1.6-0.9-1.6-1.1c-1.2-0.7-1.5-1.4-2.5-2.1
		c-0.9-0.7-3.7-1.5-8.2-2.4c-4.6-0.9-8.6-1.3-12.1-1.3c-7.1,0-12.2,1.2-15.3,3.6c-4.3,3.3-6.5,9.2-6.5,17.9c0,9.4,3,16.3,9.1,20.5
		c4.6,3.2,10.6,4.8,18,4.8c4.4,0,8.1-0.4,11.3-1.2c1-0.2,2.2-0.6,3.6-1.2V156c0-1.2-0.1-2.1-0.3-2.7c-0.2-0.7-0.6-1.4-1.4-2.1
		c-0.4-0.4-1.2-0.9-2.3-1.3c-1.1-0.4-2.1-0.5-3-0.4l1.2-1c0.4,0,0.9,0,1.4,0s1.1,0,1.9,0c0.9,0,1.8,0,2.7-0.1s1.6-0.2,2-0.2
		c0.4-0.1,1.5-0.4,3.3-0.9l0.6,0.4L165.7,168L165.7,168z"/>
	<path id="XMLID_14_" class="st2" d="M247.1,121c-2.2,5-4.3,9.9-6.5,14.8c-2.2,4.9-4.7,9.6-7.6,14.3c-4.3,6.9-7.9,12.8-10.9,18
		c-1.7,2.9-3.1,5.6-4.4,8.1l-0.8,0.5c-1.9-5.5-3.8-10.5-5.7-14.8c-1.9-4.4-4.1-9.2-6.7-14.5c-2.8-5.6-4.5-9.2-5.3-10.7
		c-1.9-3.7-3.7-6.9-5.4-9.7c-1.7-2.8-2.8-4.3-3.6-4.6c-0.7-0.3-1.7-0.5-2.8-0.7l0.4-0.8l3.7,0.1c0.7,0,1.4,0,2.2-0.1
		c1.5-0.2,2.6-0.4,3.5-0.4c2.6,4.5,4.6,8.1,6,10.7c1.7,3.1,3.5,6.8,5.5,11c2.3,4.7,4.3,9,6,12.8c1.9,4.4,3.8,8.8,5.5,13.1l10.8-18.9
		c2.8-4.9,4.9-9,6.2-12.2c1.8-4.4,2.6-8.1,2.6-11.3c0-1.6-0.6-2.7-1.7-3.3c-1.2-0.3-1.9-0.4-2-0.5v-0.7c1.4,0.3,3.1,0.4,4.9,0.4
		c1,0,1.8,0,2.2-0.1c0.3-0.1,1.5-0.4,3.4-0.9L247.1,121z"/>
	<path id="XMLID_16_" class="st2" d="M280.5,168l-1.7,5.5c-2.9,0-6.2,0-9.9,0c-3.8,0-6.8,0-9.1,0c-0.6,0-1.1,0.1-1.8,0.2
		c-0.6,0.1-1.3,0.3-2.1,0.4l0.1-14.2c0-5.8-0.1-10.7-0.4-14.8c-0.3-4-0.8-6.3-1.6-6.7c-0.4-0.2-1.1-0.4-2.1-0.5V137
		c0.4,0.1,0.9,0.1,1.4,0.1s0.9,0,1.1,0c0.5,0,1,0,1.6,0s1.1,0,1.7-0.1c0.9,0,1.9-0.1,2.8-0.2c0.9-0.2,1.7-0.3,2.3-0.4l15.1-0.2
		l0.3,0.5c-0.4,0.8-0.7,1.7-1,2.5c-0.2,0.8-0.4,1.8-0.4,3h-0.7c-0.1-0.6-0.2-1.1-0.2-1.7c-0.2-0.6-0.5-1-1.1-1.3
		c-0.6-0.2-1.6-0.4-3.3-0.5c-1.6-0.1-3.4-0.2-5.3-0.2c-1.4,0-2.7,0-3.8,0c-1.1,0-2.1,0-2.9,0l0.2,13.9l16.5-0.5
		c-0.3,0.8-0.6,1.5-0.8,2.2l-0.5,2.6l-0.6,0.2c-0.1-0.6-0.1-1-0.2-1.2c-0.1-0.5-0.4-0.8-1-0.9c-0.6-0.1-1.7-0.2-3.4-0.2
		c-1.7-0.1-4.4-0.1-8.1-0.1c-0.7,0-1.1,0-1.2,0s-0.3,0-0.5,0l0.3,16.4h13.7c1.2,0,2-0.1,2.6-0.2c0.7-0.3,1.3-0.5,1.8-0.7
		s0.9-0.5,1.2-1c0.3-0.5,0.6-1.1,0.7-1.9L280.5,168z"/>
	<path id="XMLID_18_" class="st2" d="M322,137.3l-0.8,1.8c-0.2,0.8-0.3,1.3-0.3,1.4c-0.2,0.6-0.2,1.1-0.2,1.5l-0.5-0.1
		c0-0.5,0-0.9,0-1.1c0-0.7-0.2-1.1-0.7-1.2c-0.1-0.1-1.5-0.1-4.3-0.2c-2.7-0.1-5-0.1-6.7-0.1c-1.3,0-2.2,0-2.7,0
		c-0.3,0-0.6,0.1-1.1,0.2l0.5,28.1c0,2.3,0.4,3.9,1.2,4.9c0.6,0.7,1.3,1.2,2.3,1.3l-0.4,0.4c-0.5-0.1-1.2-0.2-2.3-0.3
		c-1.1-0.1-1.8-0.2-2-0.2l-2.6,0.2l-0.2-0.5c0-2.1,0-5,0-8.4s0-6.3,0-8.5c0-2.8,0-4.9-0.1-6.4c-0.2-6-0.3-9.4-0.3-10.3
		c-0.7-0.1-1.6-0.1-2.5-0.1c-1,0-2.2,0-3.5,0c-1.1,0-2.3,0-3.5,0.1s-2.1,0.1-2.8,0.3s-1.3,0.5-1.7,1.1c-0.4,0.6-0.7,1.1-0.9,1.5
		l-0.5-0.4c0.1-0.3,0.3-0.9,0.6-1.5c0.3-0.7,0.4-1.2,0.5-1.6l0.4-2.2c2,0,4.7,0.1,8.1,0.2c3.4,0.2,6.1,0.2,8.2,0.2
		c2.4,0,5.5-0.1,9.4-0.2c3.9-0.2,7-0.2,9.3-0.2L322,137.3z"/>
</g>
<path id="XMLID_4_" class="st1" d="M361.2,182.5h-3.9c-6.6,0-12-5.4-12-12v-44.2c0-6.6,5.4-12,12-12h3.9c6.6,0,12,5.4,12,12v44.2
	C373.2,177.1,367.8,182.5,361.2,182.5z"/>
<path id="XMLID_21_" class="st3" d="M393,146.5v3.9c0,6.6-5.4,12-12,12h-44.2c-6.6,0-12-5.4-12-12v-3.9c0-6.6,5.4-12,12-12H381
	C387.6,134.5,393,139.9,393,146.5z"/>
<g id="XMLID_5_">
	<path id="XMLID_20_" class="st1" d="M206.3,186.7l1,0.7c-0.4,0.8-1.1,1.5-1.8,1.9c-0.8,0.5-1.7,0.7-2.6,0.7c-1.5,0-2.7-0.5-3.6-1.4
		c-0.9-1-1.4-2.2-1.4-3.6c0-1.5,0.5-2.7,1.4-3.7s2.1-1.4,3.6-1.4c0.9,0,1.7,0.2,2.5,0.6s1.3,1,1.8,1.7l-1,0.7
		c-0.3-0.6-0.7-1-1.3-1.4s-1.2-0.5-1.9-0.5c-1.1,0-2,0.4-2.7,1.1c-0.7,0.7-1.1,1.7-1.1,2.8s0.4,2.1,1.1,2.8s1.6,1.1,2.7,1.1
		c0.8,0,1.4-0.2,2-0.6S205.9,187.5,206.3,186.7z"/>
	<path id="XMLID_23_" class="st1" d="M209.2,189.8v-7.5h1.2v6.4h5.6v1.1H209.2z"/>
	<path id="XMLID_25_" class="st1" d="M217.3,189.8v-7.5h1.2v7.5H217.3z"/>
	<path id="XMLID_27_" class="st1" d="M221.1,189.8v-7.5h0.6l4.8,5.3v-5.3h1.2v7.5H227l-4.8-5.3v5.3H221.1z"/>
	<path id="XMLID_29_" class="st1" d="M230.2,189.8v-7.5h1.2v7.5H230.2z"/>
	<path id="XMLID_31_" class="st1" d="M241.9,188c-0.4,0.7-1,1.2-1.7,1.5c-0.7,0.4-1.5,0.5-2.4,0.5c-1.3,0-2.4-0.4-3.3-1.1
		c-0.9-0.7-1.3-1.7-1.3-2.8s0.4-2.1,1.3-2.9s1.9-1.1,3.3-1.1c0.8,0,1.6,0.2,2.2,0.5c0.7,0.3,1.2,0.7,1.6,1.3l-0.9,0.7
		c-0.3-0.4-0.7-0.8-1.2-1s-1.1-0.3-1.7-0.3c-1,0-1.8,0.3-2.4,0.8s-0.9,1.2-0.9,2.1s0.3,1.5,0.9,2.1c0.6,0.5,1.4,0.8,2.4,0.8
		c0.7,0,1.3-0.1,1.8-0.4s1-0.7,1.3-1.2L241.9,188z"/>
	<path id="XMLID_33_" class="st1" d="M242.8,189.8l3.8-7.5h0.7l3.8,7.5H250l-1-1.9h-4l-1,1.9H242.8z M245.5,186.9h2.9l-1.5-2.9
		L245.5,186.9z"/>
	<path id="XMLID_36_" class="st1" d="M262.4,189.8h-0.8l-4.7-9.7h1.3l3.7,7.8l3.7-7.8h1.3L262.4,189.8z"/>
	<path id="XMLID_38_" class="st1" d="M267.6,189.8v-7.5h7v1.1h-5.9v1.9h3.8v1.1h-3.8v2.4h6.2v1.1h-7.3V189.8z"/>
	<path id="XMLID_40_" class="st1" d="M278.4,189.8v-6.5h-3.2v-1h7.5v1h-3.2v6.5H278.4z"/>
	<path id="XMLID_42_" class="st1" d="M283.9,189.8v-7.5h7v1.1H285v1.9h3.8v1.1H285v2.4h6.2v1.1h-7.3V189.8z"/>
	<path id="XMLID_44_" class="st1" d="M294.1,186.6v3.3h-1.2v-7.5h5.2c0.8,0,1.4,0.2,1.8,0.6s0.7,0.9,0.7,1.5c0,0.5-0.2,1-0.5,1.4
		s-0.8,0.6-1.3,0.7l2.1,3.3h-1.3l-2.1-3.3H294.1z M294.1,185.5h4c0.4,0,0.7-0.1,0.9-0.3s0.3-0.4,0.3-0.8s-0.1-0.6-0.3-0.8
		c-0.2-0.2-0.5-0.3-0.9-0.3h-4V185.5z"/>
	<path id="XMLID_47_" class="st1" d="M302.7,189.8v-7.5h1.2v7.5H302.7z"/>
	<path id="XMLID_49_" class="st1" d="M306.5,189.8v-7.5h0.6l4.8,5.3v-5.3h1.2v7.5h-0.6l-4.8-5.3v5.3H306.5z"/>
	<path id="XMLID_51_" class="st1" d="M314.2,189.8l3.8-7.5h0.7l3.8,7.5h-1.3l-1-1.9h-4l-1,1.9H314.2z M316.9,186.9h2.9l-1.5-2.9
		L316.9,186.9z"/>
	<path id="XMLID_54_" class="st1" d="M324.9,186.6v3.3h-1.2v-7.5h5.2c0.8,0,1.4,0.2,1.8,0.6s0.7,0.9,0.7,1.5c0,0.5-0.2,1-0.5,1.4
		s-0.8,0.6-1.3,0.7l2.1,3.3h-1.3l-2.1-3.3H324.9z M324.9,185.5h4c0.4,0,0.7-0.1,0.9-0.3s0.3-0.4,0.3-0.8s-0.1-0.6-0.3-0.8
		c-0.2-0.2-0.5-0.3-0.9-0.3h-4V185.5z"/>
	<path id="XMLID_57_" class="st1" d="M333.5,189.8v-7.5h1.2v7.5H333.5z"/>
	<path id="XMLID_59_" class="st1" d="M335.8,189.8l3.8-7.5h0.7l3.8,7.5H343l-1-1.9h-4l-1,1.9H335.8z M338.5,186.9h2.9l-1.5-2.9
		L338.5,186.9z"/>
</g>
</svg>
