<?xml version="1.0" encoding="utf-8"?>
<!-- Generator: Adobe Illustrator 22.0.0, SVG Export Plug-In . SVG Version: 6.00 Build 0)  -->
<svg version="1.1" id="Capa_1" xmlns="http://www.w3.org/2000/svg" xmlns:xlink="http://www.w3.org/1999/xlink" x="0px" y="0px"
	 viewBox="0 0 1024 600" style="enable-background:new 0 0 1024 600;" xml:space="preserve">
<style type="text/css">
	.st0{fill:#2B2F5B;}
	.st1{fill:#858683;}
	.st2{fill:#7FB040;}
	.st3{fill:#80B142;}
</style>
<rect class="st0" width="1024" height="600"/>
<g id="XMLID_2060_">
	<g id="XMLID_1863_">
		<g id="XMLID_1864_">
			<path id="XMLID_1865_" class="st1" d="M250.7,209c0-1.4-0.3-2.8-0.8-4.2c-0.5-1.4-1.4-2.7-2.5-3.9c-1.1-1.3-2.6-2.2-4.6-2.9
				c-2-0.6-4.4-1-7.2-1c-0.4,0-0.9,0-1.4,0.1c-0.5,0.1-1,0.2-1.6,0.3c-0.6,0.1-1.2,0.2-1.7,0.4c-0.6,0.2-1.2,0.4-1.7,0.8
				c-1,0.5-2,1.1-3,1.9c-1,0.8-1.9,1.7-2.8,2.8c-0.8,1-1.5,2.3-2,3.8c-0.5,1.5-0.8,3.2-1,5.2c0,2.6,0.4,4.8,1.1,6.7
				c0.7,1.9,1.8,3.5,3.2,4.8c1.5,1.2,3,2.2,4.6,2.9c1.6,0.7,3.2,1.2,5,1.4c0.1,0,0.1,0,0.2,0c0.1,0,0.2,0,0.2,0
				c0.1,0.1,0.2,0.1,0.3,0.1c0.1,0,0.2,0,0.2,0c0.1,0,0.2,0,0.3,0c0.1,0,0.2,0,0.3,0c0.1,0,0.1,0,0.2,0c0.1,0,0.2,0,0.2,0
				c0.8,0,1.5,0,2.2-0.1c0.7-0.1,1.3-0.3,2-0.5c0.3-0.1,0.6-0.3,0.9-0.4c0.3-0.1,0.6-0.3,0.9-0.4c0.3-0.2,0.5-0.4,0.9-0.6
				c0.3-0.2,0.6-0.4,0.9-0.7c0.3-0.2,0.6-0.4,0.9-0.7c0.3-0.3,0.6-0.6,0.9-0.8c0.3-0.3,0.6-0.6,1-0.9c0.3-0.3,0.6-0.6,1-0.9v10.5
				c-0.1,0.1-0.1,0.2-0.2,0.3v0.1c-0.8,0.5-1.6,1-2.4,1.4c-0.8,0.4-1.7,0.8-2.6,1.1c-0.9,0.3-2,0.5-3.3,0.6
				c-1.3,0.2-2.8,0.2-4.4,0.2c-0.1,0-0.1,0-0.1,0c0,0-0.1,0-0.1,0c-0.1,0-0.2,0-0.3,0c-0.1,0-0.1,0-0.2,0c-0.1,0-0.1,0-0.2,0
				c-0.1,0-0.1,0-0.1,0c0,0-0.1,0-0.1,0c-3,0-5.7-0.5-8.2-1.6c-2.5-1.1-4.9-2.7-7-4.9c-2.1-2.2-3.7-4.8-4.8-7.7
				c-1.1-2.9-1.6-6.2-1.6-9.9c0-3.2,0.5-6.2,1.5-9c1-2.8,2.6-5.3,4.6-7.6c2.1-2.3,4.6-4,7.6-5.2c3-1.2,6.5-1.7,10.5-1.7
				c3.8,0,7.2,0.5,10.1,1.5c3,1,5.4,2.6,7.4,4.6c2.1,2.1,3.6,4.2,4.6,6.5c1,2.3,1.5,4.6,1.5,7.1v27.1h-9.1V209z"/>
			<path id="XMLID_1867_" class="st2" d="M268.1,203.7c0-2,0.4-3.9,1.2-5.6c0.8-1.8,2-3.4,3.6-4.9c1.6-1.5,3.5-2.6,5.6-3.3
				c2.1-0.7,4.5-1.1,7.1-1.1c1.9,0,3.5,0.1,4.9,0.4c1.4,0.3,2.6,0.7,3.5,1.2c0.9,0.5,1.7,1.1,2.5,1.9c0.8,0.7,1.4,1.6,2,2.6
				c0.6-0.8,1.3-1.5,2.1-2.2c0.8-0.7,1.8-1.3,3-2c1.2-0.6,2.4-1.1,3.9-1.4c1.4-0.3,3-0.5,4.7-0.5c2.2,0,4.2,0.3,6.2,0.9
				c1.9,0.6,3.7,1.6,5.4,2.8c1.7,1.2,2.9,2.6,3.8,4.2c0.9,1.6,1.3,3.3,1.4,5.2c0,0.1,0,0.1,0,0.1s0,0.1,0,0.1c0,0.1,0,0.1,0,0.1
				c0,0,0,0.1,0,0.1c-0.1,0.1-0.1,0.1-0.1,0.1c0,0,0,0.1,0,0.1c0,0.1,0,0.1,0,0.1c0,0,0,0.1,0,0.1v32.4h-8.4V206c0,0.1,0,0.1,0,0
				c0,0,0,0,0.1,0c0-0.1,0-0.1,0-0.1c0,0,0-0.1,0-0.1c0-0.1,0-0.2,0-0.3c0-0.1,0-0.2,0-0.2c0-0.2,0-0.4,0-0.6c0-0.2-0.1-0.4-0.1-0.7
				c-0.1-0.2-0.1-0.4-0.1-0.6c0-0.2-0.1-0.5-0.1-0.7c-0.3-0.8-0.6-1.5-1.2-2.2c-0.5-0.7-1.1-1.4-1.8-2c-0.7-0.6-1.5-1.1-2.3-1.4
				c-0.8-0.3-1.7-0.5-2.6-0.5c-1.2,0-2.2,0.2-3.2,0.6c-1,0.4-1.9,1-2.7,1.9c-0.8,0.8-1.5,1.7-2,2.6c-0.5,0.9-0.8,1.9-1,2.9
				c-0.1,0.1-0.1,0.3-0.1,0.4c0,0.2,0,0.3,0,0.4c0,0.2,0,0.4,0,0.5c0,0.1,0,0.3,0,0.4v29.4h-8.3v-28.8c0-1.4-0.2-2.7-0.6-3.9
				c-0.4-1.2-1-2.3-1.7-3.4c-0.8-1-1.7-1.8-2.9-2.3c-1.2-0.5-2.5-0.8-3.9-0.8c-1.9,0.2-3.4,0.6-4.6,1.3c-1.2,0.6-2.1,1.5-2.7,2.6
				c-0.6,1.1-1,2.2-1.3,3.5c-0.3,1.2-0.4,2.5-0.4,3.8c0,0.1,0,0.1,0,0.2v0.1v27.8h-8.4V203.7z"/>
			<path id="XMLID_1869_" class="st1" d="M391.2,201.7c1.2-2.8,3-5.3,5.4-7.4c2.4-2.1,5-3.7,7.8-4.8c2.7-1.1,5.6-1.6,8.6-1.6
				c0.1,0,0.3,0,0.4,0c0.2,0,0.3,0,0.4,0c0.1,0.1,0.3,0.1,0.4,0.1c0.2,0,0.3,0,0.5,0c0.1,0,0.3,0,0.4,0c0.2,0,0.3,0,0.5,0
				c0.1,0.1,0.3,0.1,0.4,0.1c0.2,0,0.3,0,0.4,0c2.6,0.4,5,1.1,7.4,2.3c2.3,1.1,4.6,2.6,6.8,4.5c2.1,1.9,3.7,4.3,4.8,7.2
				c1.1,2.9,1.6,6.3,1.6,10.1c0,0.3,0,0.5,0,0.8c0,0.3,0,0.5-0.1,0.7c0,0.3,0,0.5,0,0.8c0,0.3,0,0.5,0,0.8c-0.1,0.5-0.1,1-0.2,1.5
				c-0.1,0.5-0.2,1-0.3,1.5c-0.6,2.3-1.5,4.5-2.6,6.6c-1.2,2.1-2.7,4.1-4.6,5.9c-1.8,1.9-3.9,3.2-6.5,4.1c-2.5,0.9-5.3,1.3-8.4,1.3
				c-4.4,0-8.1-0.6-11.3-1.8s-5.8-3-7.8-5.4c-2-2.4-3.5-5.1-4.5-8.1c-1-3-1.5-6.1-1.5-9.5v-0.2C389.3,207.7,389.9,204.6,391.2,201.7
				z M398.5,212.7c0,0.4,0,0.9,0.1,1.3c0.1,0.4,0.1,0.9,0.2,1.3c0.1,0.4,0.2,0.9,0.2,1.3c0.3,1.4,0.8,2.8,1.5,4.1
				c0.7,1.3,1.6,2.6,2.6,3.9c1.1,1.2,2.4,2.1,4,2.7c1.6,0.6,3.5,0.9,5.7,0.9c2.1,0,4-0.3,5.8-0.9c1.8-0.6,3.4-1.4,4.9-2.6
				c1.5-1.2,2.6-2.8,3.3-5.1c0.7-2.2,1.1-4.9,1.1-8.1c0-2.2-0.3-4.3-1-6.1c-0.6-1.8-1.6-3.4-2.9-4.9c-1.3-1.3-2.9-2.4-4.8-3.1
				c-1.9-0.7-4.1-1.1-6.5-1.1c-2.3,0-4.3,0.3-6,0.9c-1.7,0.6-3,1.6-4.1,2.8c-1.1,1.2-2,2.5-2.6,3.9c-0.7,1.4-1.1,2.9-1.4,4.3
				c-0.1,0.3-0.1,0.5-0.2,0.8c-0.1,0.3-0.1,0.5-0.1,0.8c0,0.3,0,0.5,0,0.8c0,0.3,0,0.5,0,0.8v-0.2
				C398.5,211.8,398.5,212.2,398.5,212.7z"/>
			<path id="XMLID_1872_" class="st1" d="M445,201.7c1.2-2.8,3-5.3,5.4-7.4c2.4-2.1,5-3.7,7.7-4.8c2.7-1.1,5.6-1.6,8.6-1.6
				c0.1,0,0.3,0,0.4,0c0.2,0,0.3,0,0.4,0c0.1,0.1,0.3,0.1,0.4,0.1c0.2,0,0.3,0,0.5,0c0.1,0,0.3,0,0.4,0c0.2,0,0.3,0,0.5,0
				c0.1,0.1,0.3,0.1,0.4,0.1c0.2,0,0.3,0,0.4,0c2.6,0.4,5,1.1,7.4,2.3c2.3,1.1,4.6,2.6,6.8,4.5c2.1,1.9,3.7,4.3,4.8,7.2
				c1.1,2.9,1.6,6.3,1.6,10.1c0,0.3,0,0.5,0,0.8c0,0.3,0,0.5-0.1,0.7c0,0.3,0,0.5,0,0.8c0,0.3,0,0.5,0,0.8c-0.1,0.5-0.1,1-0.2,1.5
				c-0.1,0.5-0.2,1-0.3,1.5c-0.6,2.3-1.5,4.5-2.6,6.6c-1.2,2.1-2.7,4.1-4.6,5.9c-1.8,1.9-3.9,3.2-6.5,4.1c-2.5,0.9-5.3,1.3-8.4,1.3
				c-4.4,0-8.1-0.6-11.3-1.8s-5.8-3-7.7-5.4c-2-2.4-3.5-5.1-4.5-8.1c-1-3-1.5-6.1-1.5-9.5v-0.2C443.2,207.7,443.8,204.6,445,201.7z
				 M452.3,212.7c0,0.4,0,0.9,0.1,1.3c0.1,0.4,0.1,0.9,0.2,1.3c0.1,0.4,0.2,0.9,0.2,1.3c0.3,1.4,0.8,2.8,1.5,4.1
				c0.7,1.3,1.6,2.6,2.6,3.9c1.1,1.2,2.4,2.1,4,2.7c1.6,0.6,3.5,0.9,5.7,0.9c2.1,0,4-0.3,5.8-0.9c1.8-0.6,3.4-1.4,4.9-2.6
				c1.5-1.2,2.6-2.8,3.3-5.1c0.7-2.2,1.1-4.9,1.1-8.1c0-2.2-0.3-4.3-1-6.1c-0.6-1.8-1.6-3.4-2.9-4.9c-1.3-1.3-2.9-2.4-4.8-3.1
				c-1.9-0.7-4.1-1.1-6.5-1.1c-2.3,0-4.3,0.3-6,0.9c-1.7,0.6-3,1.6-4.1,2.8c-1.1,1.2-2,2.5-2.6,3.9c-0.7,1.4-1.1,2.9-1.4,4.3
				c-0.1,0.3-0.1,0.5-0.2,0.8c-0.1,0.3-0.1,0.5-0.1,0.8c0,0.3,0,0.5,0,0.8c0,0.3,0,0.5,0,0.8v-0.2
				C452.3,211.8,452.3,212.2,452.3,212.7z"/>
		</g>
		<g id="XMLID_1875_">
			<path id="XMLID_1876_" class="st1" d="M199.7,195c-2.3-2.1-4.8-3.6-7.4-4.6c-2.6-1-5.5-1.5-8.5-1.5c-0.2,0-0.4,0-0.6,0
				s-0.4,0-0.5,0c-0.2,0.1-0.4,0.1-0.5,0.1c-0.2,0-0.3,0-0.5,0c-0.4,0.1-0.8,0.1-1.1,0.1c-0.4,0-0.7,0.1-1,0.1
				c-0.8,0.1-1.5,0.3-2.2,0.5c-0.7,0.2-1.4,0.4-2.1,0.7c-0.7,0.3-1.4,0.5-2.1,0.9c-0.7,0.3-1.4,0.6-2.1,1v8.6
				c0.3-0.1,0.5-0.2,0.7-0.3c0.2-0.1,0.5-0.2,0.7-0.2c0.1-0.1,0.2-0.1,0.3-0.2c0.1-0.1,0.2-0.1,0.3-0.2c0.1,0,0.2,0,0.3-0.1
				c0.1-0.1,0.3-0.1,0.4-0.2h0.1l0.1-0.1c0.7-0.3,1.4-0.6,2.1-0.9c0.7-0.3,1.4-0.6,2.1-0.8c0.7-0.3,1.5-0.4,2.3-0.6
				c0.8-0.1,1.7-0.2,2.7-0.2c0.1,0,0.1,0,0.2,0c0.1,0,0.2,0,0.3,0c0.1,0.1,0.1,0.1,0.2,0.1c0.1,0,0.2,0,0.2,0c0.1,0,0.3,0,0.4,0
				c0.2,0,0.3,0,0.5,0c1.5,0.2,3,0.7,4.5,1.4c1.4,0.7,2.8,1.7,4.1,3c1.3,1.2,2.3,2.8,2.9,4.7c0.7,1.9,1,4.2,1,6.7c0,0.3,0,0.7,0,1
				c0,0.4-0.1,0.7-0.1,1.1c-0.1,0.4-0.1,0.8-0.1,1.1c0,0.4-0.1,0.7-0.2,1c-0.4,1.4-1,2.8-1.7,4.1c-0.8,1.3-1.7,2.6-2.9,3.9
				c-1.2,1.2-2.7,2.1-4.3,2.7c-1.7,0.6-3.6,0.9-5.7,0.9c-2.2,0-4.3-0.4-6-1.2c-1.8-0.8-3.3-1.9-4.6-3.5c-1.2-1.5-2.2-3.3-2.8-5.3
				c-0.6-2-1-4.3-1-6.9v-27.5H159v26.9c0,3.4,0.5,6.6,1.4,9.6c1,3,2.4,5.8,4.3,8.4c1.9,2.6,4.4,4.5,7.3,5.7c3,1.3,6.4,1.9,10.4,1.9
				c4,0,7.5-0.6,10.5-1.9c3-1.3,5.6-3.3,7.6-6c2.1-2.7,3.6-5.5,4.6-8.5c1-3,1.5-6,1.5-9.2c0-3.5-0.6-6.6-1.8-9.3
				C203.7,199.4,202,197,199.7,195z"/>
			<rect id="XMLID_1877_" x="159" y="168.8" class="st1" width="9.1" height="11.6"/>
		</g>
		<g id="XMLID_1878_">
			<rect id="XMLID_1879_" x="336.3" y="168.8" class="st2" width="9.1" height="11.6"/>
			<path id="XMLID_1880_" class="st2" d="M382.3,202.1c-1.2-2.8-2.9-5.1-5.2-7.1c-2.3-2.1-4.8-3.6-7.4-4.6c-2.6-1-5.5-1.5-8.5-1.5
				c-0.2,0-0.4,0-0.6,0c-0.2,0-0.4,0-0.5,0c-0.2,0.1-0.4,0.1-0.5,0.1c-0.2,0-0.3,0-0.5,0c-0.4,0.1-0.8,0.1-1.1,0.1
				c-0.4,0-0.7,0.1-1,0.1c-0.8,0.1-1.5,0.3-2.2,0.5c-0.7,0.2-1.4,0.4-2.1,0.7c-0.7,0.3-1.4,0.5-2.1,0.9c-0.7,0.3-1.4,0.6-2.1,1v8.6
				c0.3-0.1,0.5-0.2,0.7-0.3c0.2-0.1,0.5-0.2,0.7-0.2c0.1-0.1,0.2-0.1,0.3-0.2c0.1-0.1,0.2-0.1,0.3-0.2c0.1,0,0.2,0,0.3-0.1
				c0.1-0.1,0.3-0.1,0.4-0.2h0.1l0.1-0.1c0.7-0.3,1.4-0.6,2.1-0.9c0.7-0.3,1.4-0.6,2.1-0.8c0.7-0.3,1.5-0.4,2.3-0.6
				c0.8-0.1,1.7-0.2,2.7-0.2c0.1,0,0.1,0,0.2,0c0.1,0,0.2,0,0.3,0c0.1,0.1,0.1,0.1,0.2,0.1c0.1,0,0.2,0,0.2,0c0.1,0,0.3,0,0.4,0
				c0.2,0,0.3,0,0.5,0c1.5,0.2,3,0.7,4.5,1.4c1.4,0.7,2.8,1.7,4.1,3c1.3,1.2,2.3,2.8,2.9,4.7c0.7,1.9,1,4.2,1,6.7c0,0.3,0,0.7,0,1
				c0,0.4-0.1,0.7-0.1,1.1c-0.1,0.4-0.1,0.8-0.1,1.1c0,0.4-0.1,0.7-0.2,1c-0.4,1.4-1,2.8-1.7,4.1c-0.8,1.3-1.7,2.6-2.9,3.9
				c-1.2,1.2-2.7,2.1-4.3,2.7c-1.7,0.6-3.6,0.9-5.7,0.9c-2.2,0-4.3-0.4-6-1.2c-1.8-0.8-3.3-1.9-4.6-3.5c-1.2-1.5-2.2-3.3-2.8-5.3
				c-0.6-2-1-4.3-1-6.9v-27.5h-9.1v26.9c0,3.4,0.5,6.6,1.4,9.6c1,3,2.4,5.8,4.3,8.4c1.9,2.6,4.4,4.5,7.3,5.7c3,1.3,6.4,1.9,10.4,1.9
				c4,0,7.5-0.6,10.5-1.9c3-1.3,5.6-3.3,7.6-6c2.1-2.7,3.6-5.5,4.6-8.5c1-3,1.5-6,1.5-9.2C384,208,383.4,204.9,382.3,202.1z"/>
		</g>
	</g>
	<g id="XMLID_1938_">
		<path id="XMLID_1939_" class="st1" d="M225.6,270.6v1.3h-16.7v-24.6h16.6v1.3h-15v9.9h14.2v1.3h-14.2v10.8H225.6z"/>
		<path id="XMLID_1941_" class="st1" d="M228.6,266c0.1,1.6,0.7,2.9,1.8,3.8c1.1,0.9,2.4,1.4,4,1.4c0.6,0,1.2-0.1,1.9-0.2
			c0.7-0.1,1.3-0.3,1.8-0.6c0.6-0.3,1-0.7,1.4-1.2c0.4-0.5,0.5-1.1,0.5-1.8c0-0.8-0.2-1.4-0.5-1.9c-0.3-0.5-0.8-0.8-1.4-1.1
			c-0.6-0.3-1.2-0.5-1.9-0.7c-0.7-0.2-1.5-0.3-2.2-0.5c-0.8-0.2-1.5-0.4-2.2-0.6c-0.7-0.2-1.4-0.5-2-0.8c-0.6-0.4-1.1-0.8-1.4-1.4
			c-0.4-0.6-0.5-1.3-0.5-2.2c0-0.9,0.2-1.6,0.6-2.2c0.4-0.6,0.9-1,1.5-1.4c1.3-0.6,2.7-0.9,4.3-0.9c1.9,0,3.5,0.4,4.7,1.3
			c1.2,0.9,1.8,2.3,1.8,4.4h-1.3c0-1.6-0.5-2.8-1.5-3.5c-1-0.7-2.2-1-3.8-1c-1.3,0-2.4,0.2-3.4,0.7c-0.5,0.3-0.9,0.6-1.2,1
			c-0.3,0.4-0.5,1-0.5,1.7c0,0.7,0.2,1.3,0.6,1.7c0.3,0.4,0.8,0.8,1.3,1.1c0.3,0.1,0.6,0.2,0.9,0.3c0.3,0.1,0.6,0.2,1,0.3
			c0.4,0.1,0.7,0.1,1.1,0.2c0.3,0.1,0.7,0.2,1,0.3c1.8,0.2,3.3,0.7,4.5,1.4c0.6,0.4,1,0.8,1.3,1.4c0.3,0.6,0.5,1.4,0.5,2.3
			c0,0.9-0.2,1.7-0.6,2.3c-0.4,0.6-1,1.2-1.7,1.6c-0.7,0.4-1.4,0.6-2.2,0.8c-0.8,0.2-1.6,0.3-2.4,0.3c-2.1,0-3.7-0.5-5-1.6
			c-1.3-1.1-2-2.6-2.1-4.7H228.6z"/>
		<path id="XMLID_1943_" class="st1" d="M251.1,255.3h-3.9v12.4c0,1.4,0.3,2.3,1,2.6c0.6,0.4,1.6,0.5,2.8,0.4v1.1
			c-0.7,0-1.3,0-1.9-0.1c-0.6-0.1-1.2-0.2-1.7-0.5c-0.5-0.3-0.9-0.7-1.1-1.3c-0.3-0.6-0.4-1.4-0.4-2.3v-12.4h-3.3v-1.1h3.3v-5.5h1.3
			v5.5h3.9V255.3z"/>
		<path id="XMLID_1945_" class="st1" d="M267.5,271.9h-1.3v-3.8h-0.1c-0.5,1.3-1.3,2.3-2.4,3.1c-1.2,0.7-2.5,1.1-3.9,1.1
			c-1.5,0-2.7-0.3-3.6-0.9c-0.9-0.5-1.5-1.1-1.9-1.9c-0.4-0.8-0.6-1.6-0.7-2.4c-0.1-0.8-0.1-1.4-0.1-2v-11h1.3v11.2
			c0,0.5,0.1,1,0.2,1.7c0.1,0.6,0.3,1.3,0.6,1.9c0.3,0.6,0.8,1.2,1.5,1.6c0.7,0.5,1.6,0.7,2.8,0.7c2,0,3.6-0.7,4.7-2.1
			c1.1-1.3,1.7-3.1,1.7-5.3v-9.6h1.3V271.9z"/>
		<path id="XMLID_1947_" class="st1" d="M285.1,268.1L285.1,268.1c-1.5,2.8-3.7,4.2-6.9,4.2c-2.6-0.1-4.6-1-5.8-2.8
			c-1.3-1.8-1.9-3.9-1.9-6.5c0-2.7,0.7-4.9,2-6.7c1.3-1.8,3.3-2.6,5.9-2.7c1.5,0,2.9,0.4,4,1.1c0.6,0.4,1.1,0.8,1.6,1.4
			c0.4,0.6,0.8,1.2,1,1.9h0.1v-10.9h1.3v24.6h-1.3V268.1z M283.5,268.6c1.1-1.6,1.6-3.4,1.6-5.5c0-2.2-0.5-4.1-1.6-5.7
			c-1.1-1.6-2.8-2.5-5-2.5c-2.3,0.1-4,0.9-5,2.5c-1.1,1.6-1.6,3.5-1.6,5.7c0,2.2,0.5,4,1.6,5.6c1.1,1.6,2.7,2.5,5,2.5
			C280.8,271.2,282.4,270.3,283.5,268.6z"/>
		<path id="XMLID_1950_" class="st1" d="M290.9,250.8v-3.6h1.3v3.6H290.9z M290.9,271.9v-17.7h1.3v17.7H290.9z"/>
		<path id="XMLID_1953_" class="st1" d="M297.7,256.5c1.4-1.8,3.4-2.7,6-2.7c2.6,0,4.7,1,6,2.7c1.4,1.8,2.1,3.9,2.1,6.6
			c0,2.6-0.7,4.7-2.1,6.5c-1.4,1.8-3.4,2.7-6,2.8c-2.6-0.1-4.6-1-6-2.8c-1.4-1.8-2.1-3.9-2.1-6.5
			C295.6,260.5,296.3,258.3,297.7,256.5z M298.7,268.7c1.1,1.6,2.8,2.5,5,2.5c2.3,0,4-0.9,5.1-2.5c1.1-1.6,1.7-3.4,1.7-5.6
			c0-2.2-0.6-4.1-1.7-5.7c-1.1-1.6-2.8-2.4-5.1-2.5c-2.2,0.1-3.9,0.9-5,2.5c-1.2,1.6-1.8,3.5-1.8,5.7
			C296.9,265.2,297.5,267.1,298.7,268.7z"/>
		<path id="XMLID_1956_" class="st1" d="M346.2,259.8v12.1h-1.3v-5.2h-0.1c-0.6,1.8-1.8,3.2-3.5,4.2c-1.7,1-3.7,1.6-5.9,1.6
			c-1.9,0-3.5-0.4-4.9-1c-1.4-0.7-2.7-1.6-3.7-2.7c-2-2.4-3-5.4-3-9c0-3.6,1-6.7,3.1-9.2c2-2.5,4.9-3.8,8.6-3.9
			c2.6,0,4.8,0.7,6.7,2.1c1.9,1.4,3.1,3.4,3.5,6.1h-1.4c-1.2-4.5-4.2-6.8-8.8-6.9c-3.3,0-5.8,1.2-7.5,3.6c-1.8,2.3-2.6,5-2.6,8.2
			c0,3.2,0.8,5.9,2.5,8.1c1.7,2.2,4.2,3.3,7.6,3.4c3,0,5.3-0.9,7-2.8c1.7-1.8,2.4-4.2,2.3-7.3h-9.1v-1.3H346.2z"/>
		<path id="XMLID_1958_" class="st1" d="M351.4,258.1h0.1c0.4-1.2,1.2-2.2,2.5-3c1.2-0.8,2.7-1.1,4.3-1.1v1.3
			c-0.7-0.1-1.5-0.1-2.3,0.2c-0.9,0.3-1.7,0.8-2.6,1.6c-0.6,0.6-1.1,1.3-1.4,2c-0.3,0.7-0.5,1.8-0.6,3.1v9.7h-1.3v-17.7h1.3V258.1z"
			/>
		<path id="XMLID_1960_" class="st1" d="M372.8,268.6c0,0.5,0,1,0.2,1.4c0.1,0.5,0.4,0.7,1,0.7c0.2,0,0.6,0,1-0.1v1.1
			c-0.4,0.1-0.7,0.1-1.1,0.1c-1,0-1.7-0.3-1.9-0.8c-0.3-0.5-0.5-1.1-0.5-1.8v-0.9h-0.1c-0.4,1.1-1.2,2-2.3,2.7
			c-1.2,0.8-2.6,1.2-4.3,1.2c-1.7,0-3.1-0.4-4.2-1.1c-1.1-0.7-1.7-2-1.7-3.9c0-1,0.2-1.9,0.6-2.6c0.4-0.6,0.9-1.1,1.6-1.5
			c0.7-0.4,1.4-0.7,2.1-0.8c0.4-0.1,0.8-0.2,1.1-0.3c0.4,0,0.7-0.1,1.1-0.1c2.8-0.2,4.6-0.5,5.3-0.9c0.4-0.3,0.6-0.6,0.7-1.1
			c0.1-0.4,0.1-1,0.1-1.7c0-0.2-0.1-0.5-0.2-0.9c-0.1-0.4-0.4-0.8-0.8-1.1c-0.3-0.4-0.8-0.7-1.5-1c-0.7-0.3-1.5-0.4-2.5-0.4
			c-3.3,0-5.1,1.6-5.4,4.7h-1.3c0.2-3.9,2.5-5.9,6.8-5.9c1.6,0,3,0.3,4.3,0.9c1.3,0.7,1.9,1.9,1.9,3.7V268.6z M370.4,262.5
			c-0.4,0.2-1,0.3-1.6,0.3c-1.2,0.1-2.5,0.3-3.8,0.4c-3.2,0.2-4.8,1.6-4.9,4.1c0,1.1,0.4,2,1.2,2.7c0.8,0.7,1.9,1.1,3.5,1.1
			c1.5,0,2.7-0.3,3.6-0.9c0.9-0.5,1.6-1.1,2-1.8c0.4-0.7,0.7-1.4,0.9-2c0.1-0.6,0.2-1.1,0.2-1.3v-3.3
			C371.2,262.1,370.8,262.3,370.4,262.5z M368.8,246.7h1.8l-4.6,4.8h-1.3L368.8,246.7z"/>
		<path id="XMLID_1964_" class="st1" d="M375,255.3v-1.1h3.2v-3.7c0-1.2,0.4-2.1,1.2-2.7c0.7-0.5,1.6-0.8,2.7-0.8
			c0.5,0,1,0.1,1.6,0.2v1.1c-0.5-0.1-1-0.2-1.6-0.2c-0.7,0-1.3,0.2-1.8,0.5c-0.5,0.3-0.8,1-0.8,2v3.6h3.7v1.1h-3.7v16.6h-1.3v-16.6
			H375z"/>
		<path id="XMLID_1966_" class="st1" d="M385.6,250.8v-3.6h1.3v3.6H385.6z M385.6,271.9v-17.7h1.3v17.7H385.6z"/>
		<path id="XMLID_1969_" class="st1" d="M404.4,259.7c-0.1-1.6-0.8-2.8-1.9-3.6c-1.1-0.8-2.5-1.2-4.1-1.2c-2.2,0.1-3.9,0.9-5,2.5
			c-1.2,1.6-1.8,3.4-1.8,5.5c0,2.4,0.6,4.4,1.7,5.9c1.1,1.6,2.8,2.4,5.1,2.4c1.7,0,3.1-0.5,4.2-1.6c1.1-1,1.8-2.3,2-4h1.3
			c-0.3,2.1-1.1,3.8-2.5,4.9c-1.4,1.2-3.1,1.7-5,1.8c-2.9-0.1-4.9-1-6.2-2.9c-1.3-1.8-1.9-4-1.9-6.6c0-2.5,0.7-4.7,2.1-6.4
			c1.4-1.8,3.4-2.7,6.1-2.7c2,0,3.6,0.5,5,1.4c1.4,1,2.1,2.5,2.3,4.5H404.4z"/>
		<path id="XMLID_1971_" class="st1" d="M410.3,256.5c1.4-1.8,3.4-2.7,6-2.7c2.6,0,4.7,1,6,2.7c1.4,1.8,2.1,3.9,2.1,6.6
			c0,2.6-0.7,4.7-2.1,6.5c-1.4,1.8-3.4,2.7-6,2.8c-2.6-0.1-4.6-1-6-2.8c-1.4-1.8-2.1-3.9-2.1-6.5
			C408.2,260.5,408.9,258.3,410.3,256.5z M411.3,268.7c1.1,1.6,2.8,2.5,5,2.5c2.3,0,4-0.9,5.1-2.5c1.1-1.6,1.7-3.4,1.7-5.6
			c0-2.2-0.6-4.1-1.7-5.7c-1.1-1.6-2.8-2.4-5.1-2.5c-2.2,0.1-3.9,0.9-5,2.5c-1.2,1.6-1.8,3.5-1.8,5.7
			C409.5,265.2,410.1,267.1,411.3,268.7z"/>
	</g>
	<g id="XMLID_1974_">
		<g id="XMLID_1975_">
			<path id="XMLID_1976_" class="st2" d="M126.1,163.5c0.6,10.3,2.6,35.8,0,47.2h19.2c-1.6-9.3-1.4-41.2,0-47.2H126.1z M126.1,163.5
				"/>
			<path id="XMLID_1979_" class="st2" d="M126.1,216.9c0.6,13.9,2.6,48.6,0,64h19.2c-1.6-12.7-1.4-56,0-64H126.1z M126.1,216.9"/>
			<path id="XMLID_1982_" class="st2" d="M127.3,213.9l-1-1.3c-13.6-2.4-25.1-8.9-32.6-14c1.4-2.1,3.8-6.5,3.9-11.8
				c0.2-7.3-4-21.9-4-21.9s-4.9,14.4-5.1,21.7c-0.1,4,1.2,7.6,2.3,10.1c-3.9-2.9-6.2-5-6.3-5.1l-0.1,0c-0.9-3.3-2.9-8.6-7-12.7
				c-6.5-6.5-23.4-15.3-23.4-15.3s8.8,16.9,15.3,23.4c5.3,5.3,12.5,7.1,14.9,7.5c2.3,2,7.7,6.3,15.1,10.5c-2.4-1.1-6.9-2.6-11.9-2
				c-7.2,0.9-21.1,7.2-21.1,7.2s15,2.8,22.2,1.9c7-0.9,12.1-5.7,12.5-6c6.9,3.8,15.4,7.4,24.8,9l0.2,0L127.3,213.9z M127.3,213.9"/>
		</g>
		<path id="XMLID_1985_" class="st1" d="M127.5,284.4H144c0.6,0,0.9,0.6,0.6,1.1l-8.3,12.5c-0.3,0.4-0.9,0.4-1.2,0l-8.3-12.5
			C126.6,285.1,126.9,284.4,127.5,284.4z"/>
		<path id="XMLID_1986_" class="st1" d="M126.1,159.2h19.2c0,0-0.8-11.6-9.6-11.6C135.7,147.6,126.5,147.6,126.1,159.2z"/>
	</g>
	<g id="XMLID_1862_">
		<path id="XMLID_1881_" class="st2" d="M250.2,289.3h3.1c0.9,0,1.5,0.2,1.8,0.7c0.3,0.4,0.5,1,0.5,1.7v4.3c0,0.8-0.3,1.4-0.7,1.8
			c-0.5,0.4-1,0.5-1.5,0.5h-3.1V289.3z M252.3,296.8h0.3c0.6,0,0.9-0.2,0.9-0.8v-4.4c0-0.5-0.3-0.8-0.9-0.8h-0.3V296.8z"/>
		<path id="XMLID_1884_" class="st2" d="M256.8,289.3h1.9v1.3h-1.9V289.3z M256.8,291.1h1.9v7.2h-1.9V291.1z"/>
		<path id="XMLID_1887_" class="st2" d="M259.5,296.1h1.7v0.4c0,0.1,0,0.3,0.1,0.4c0.1,0.1,0.2,0.2,0.4,0.2c0.3,0,0.5-0.2,0.5-0.5
			c0-0.3-0.1-0.5-0.4-0.8c-0.3-0.2-0.6-0.4-0.9-0.7c-0.3-0.2-0.6-0.5-0.9-0.9c-0.3-0.3-0.4-0.8-0.4-1.3c0-0.7,0.2-1.2,0.6-1.6
			c0.4-0.3,0.9-0.5,1.5-0.5c1.4,0,2.1,0.6,2.1,1.9v0.4h-1.7v-0.4c0-0.1,0-0.2,0-0.4c-0.1-0.1-0.2-0.2-0.4-0.2
			c-0.3,0-0.5,0.2-0.5,0.5c0,0.1,0,0.3,0.1,0.4c0.1,0.1,0.2,0.2,0.3,0.4c0.1,0.1,0.3,0.2,0.5,0.3c0.2,0.1,0.3,0.2,0.4,0.4
			c0.3,0.2,0.6,0.5,0.9,0.8c0.3,0.3,0.4,0.8,0.4,1.3c0,0.2,0,0.3,0,0.6c0,0.2-0.1,0.5-0.3,0.7c-0.1,0.2-0.4,0.4-0.7,0.6
			c-0.3,0.2-0.7,0.3-1.2,0.3c-0.8,0-1.4-0.2-1.7-0.5c-0.3-0.3-0.5-0.8-0.5-1.4V296.1z"/>
		<path id="XMLID_1889_" class="st2" d="M264.7,293c0-0.2,0-0.5,0.1-0.7c0.1-0.2,0.2-0.5,0.4-0.7c0.2-0.2,0.4-0.4,0.7-0.5
			c0.3-0.1,0.7-0.2,1.2-0.2c0.5,0,0.9,0.1,1.2,0.2c0.3,0.1,0.6,0.3,0.7,0.5c0.1,0.1,0.2,0.2,0.2,0.3c0.1,0.1,0.1,0.2,0.1,0.4
			c0.1,0.2,0.1,0.5,0.1,0.7v2h-2.8v1.5c0,0.1,0,0.3,0.1,0.4c0.1,0.1,0.2,0.2,0.4,0.2c0.2,0,0.4-0.1,0.4-0.2c0-0.1,0-0.2,0-0.4v-0.9
			h1.9v0.8c0,0.2,0,0.4-0.1,0.7c0,0.1-0.1,0.2-0.1,0.3c-0.1,0.1-0.1,0.2-0.2,0.3c-0.2,0.2-0.4,0.4-0.7,0.5c-0.3,0.1-0.7,0.2-1.2,0.2
			c-0.5,0-0.9-0.1-1.2-0.2c-0.3-0.1-0.5-0.3-0.7-0.5c-0.2-0.2-0.3-0.4-0.4-0.7c-0.1-0.2-0.1-0.5-0.1-0.7V293z M266.6,293.7h0.9v-0.8
			c0-0.1,0-0.3,0-0.4c0-0.1-0.1-0.1-0.1-0.1c-0.1,0-0.2,0-0.3,0c-0.2,0-0.4,0.1-0.4,0.2c0,0.1-0.1,0.3-0.1,0.4V293.7z"/>
		<path id="XMLID_1892_" class="st2" d="M270.3,291.1h1.8v0.8h0c0.2-0.3,0.4-0.5,0.6-0.7c0.2-0.2,0.5-0.2,0.9-0.2
			c0.5,0,0.8,0.2,1.1,0.4c0.2,0.3,0.3,0.6,0.3,1.1v5.8h-1.9v-4.9c0-0.1,0-0.3,0-0.5c0-0.1-0.1-0.1-0.1-0.2c-0.1,0-0.2-0.1-0.3-0.1
			c-0.2,0-0.4,0.1-0.4,0.3c0,0.2-0.1,0.3-0.1,0.4v4.9h-1.9V291.1z M274.6,289.3c-0.1,0.1-0.1,0.3-0.2,0.4c-0.1,0.1-0.2,0.3-0.3,0.4
			c-0.2,0.2-0.5,0.3-0.8,0.3c-0.3,0-0.5-0.1-0.6-0.2c-0.2-0.1-0.4-0.2-0.6-0.2c-0.1,0-0.2,0.1-0.3,0.1c-0.1,0.1-0.2,0.2-0.2,0.3
			l-0.5-0.2c0-0.1,0.1-0.3,0.2-0.4c0.1-0.1,0.1-0.2,0.2-0.4c0.2-0.2,0.4-0.4,0.7-0.4c0.3,0,0.5,0.1,0.7,0.2c0.2,0.1,0.4,0.2,0.6,0.2
			c0.1,0,0.3,0,0.4-0.1c0.1-0.1,0.2-0.2,0.2-0.3L274.6,289.3z"/>
		<path id="XMLID_1895_" class="st2" d="M276,293c0-0.2,0-0.5,0.1-0.7c0.1-0.2,0.2-0.5,0.4-0.7c0.2-0.2,0.4-0.4,0.7-0.5
			c0.3-0.1,0.7-0.2,1.2-0.2c0.5,0,0.9,0.1,1.2,0.2c0.3,0.1,0.6,0.3,0.7,0.5c0.1,0.1,0.2,0.2,0.2,0.3c0.1,0.1,0.1,0.2,0.1,0.4
			c0.1,0.2,0.1,0.5,0.1,0.7v3.4c0,0.2,0,0.4-0.1,0.7c0,0.1-0.1,0.2-0.1,0.3c-0.1,0.1-0.1,0.2-0.2,0.3c-0.2,0.2-0.4,0.4-0.7,0.5
			c-0.3,0.1-0.7,0.2-1.2,0.2c-0.5,0-0.9-0.1-1.2-0.2c-0.3-0.1-0.5-0.3-0.7-0.5c-0.2-0.2-0.3-0.4-0.4-0.7c-0.1-0.2-0.1-0.5-0.1-0.7
			V293z M277.9,296.6c0,0.1,0,0.3,0.1,0.4c0.1,0.1,0.2,0.2,0.4,0.2c0.2,0,0.4-0.1,0.4-0.2c0-0.1,0-0.2,0-0.4v-3.7c0-0.1,0-0.3,0-0.4
			c0-0.1-0.1-0.1-0.1-0.1c-0.1,0-0.2,0-0.3,0c-0.2,0-0.4,0.1-0.4,0.2c0,0.1-0.1,0.3-0.1,0.4V296.6z"/>
		<path id="XMLID_1898_" class="st2" d="M284.4,291.8c0-0.9,0.3-1.5,0.8-2c0.5-0.4,1.1-0.6,1.9-0.6c0.7,0,1.4,0.1,1.9,0.5
			c0.3,0.2,0.5,0.4,0.6,0.7c0.1,0.3,0.2,0.6,0.2,1.1v1h-2v-0.9c0-0.5-0.2-0.7-0.7-0.7c-0.3,0-0.4,0.1-0.5,0.3
			c-0.1,0.2-0.1,0.4-0.1,0.5v4.5c0,0.1,0,0.1,0,0.2c0,0.1,0,0.2,0.1,0.3c0.1,0.2,0.3,0.3,0.5,0.3c0.5,0,0.7-0.2,0.7-0.7V295H287
			v-1.7h2.7v5h-1.8v-0.7h0c-0.4,0.6-0.9,0.9-1.6,0.9c-0.4,0-0.7-0.1-0.9-0.2c-0.2-0.1-0.4-0.3-0.6-0.6c-0.3-0.5-0.4-1.1-0.4-1.8
			V291.8z"/>
		<path id="XMLID_1900_" class="st2" d="M290.8,291.1h1.8v1.3h0c0.1-0.2,0.1-0.3,0.2-0.5c0.1-0.2,0.2-0.3,0.3-0.5
			c0.1-0.1,0.2-0.2,0.4-0.3c0.1-0.1,0.3-0.1,0.5-0.1v2.3h-0.5c-0.3,0-0.5,0.1-0.7,0.3c-0.1,0.2-0.2,0.4-0.2,0.7v4.1h-1.9V291.1z"/>
		<path id="XMLID_1902_" class="st2" d="M299.3,298.3h-1.8v-0.6l0,0c-0.3,0.5-0.8,0.7-1.4,0.7c-0.3,0-0.6-0.1-0.8-0.2
			c-0.2-0.1-0.4-0.3-0.5-0.5c-0.1-0.2-0.2-0.4-0.2-0.7c0-0.3-0.1-0.5-0.1-0.8c0-0.3,0-0.6,0.1-0.9c0.1-0.2,0.2-0.4,0.3-0.6
			c0.2-0.2,0.3-0.3,0.5-0.4c0.2-0.1,0.3-0.2,0.5-0.3c0.2-0.1,0.4-0.2,0.5-0.2c0.2-0.1,0.3-0.1,0.5-0.2c0.3-0.2,0.4-0.4,0.4-0.8
			c0-0.4-0.1-0.6-0.5-0.6c-0.4,0-0.5,0.2-0.5,0.5v0.6h-1.7v-0.7c0-0.5,0.2-1,0.6-1.3c0.4-0.3,0.9-0.5,1.6-0.5c0.9,0,1.5,0.2,1.8,0.5
			c0.3,0.4,0.5,0.9,0.5,1.7V298.3z M297.5,294.7l-0.6,0.4c-0.2,0.2-0.4,0.4-0.4,0.6v1c0,0.4,0.2,0.6,0.5,0.6c0.2,0,0.3-0.1,0.4-0.2
			c0.1-0.1,0.1-0.3,0.1-0.4V294.7z"/>
		<path id="XMLID_1905_" class="st2" d="M299.9,291.2h0.4v-0.5c0-0.3,0-0.6,0.1-0.8c0.1-0.2,0.2-0.3,0.4-0.4
			c0.2-0.1,0.3-0.1,0.5-0.2c0.2,0,0.4,0,0.6,0h0.7v1.3h-0.2c-0.3,0-0.4,0.1-0.4,0.4v0.3h0.5v1.4h-0.5v5.7h-1.9v-5.7h-0.4V291.2z"/>
		<path id="XMLID_1907_" class="st2" d="M303.5,289.3h1.9v1.3h-1.9V289.3z M303.5,291.1h1.9v7.2h-1.9V291.1z"/>
		<path id="XMLID_1910_" class="st2" d="M306.4,293c0-0.2,0-0.5,0.1-0.7c0.1-0.2,0.2-0.5,0.4-0.7c0.2-0.2,0.4-0.4,0.7-0.5
			c0.3-0.1,0.7-0.2,1.2-0.2c0.5,0,0.9,0.1,1.2,0.2c0.3,0.1,0.6,0.3,0.7,0.5c0.1,0.1,0.2,0.2,0.2,0.3c0.1,0.1,0.1,0.2,0.1,0.4
			c0.1,0.2,0.1,0.5,0.1,0.7v0.8h-1.9v-0.9c0-0.1,0-0.3,0-0.4c0-0.1-0.1-0.1-0.1-0.1c-0.1,0-0.2,0-0.3,0c-0.2,0-0.4,0.1-0.4,0.2
			c0,0.1-0.1,0.3-0.1,0.4v3.7c0,0.1,0,0.3,0.1,0.4c0.1,0.1,0.2,0.2,0.4,0.2c0.2,0,0.4-0.1,0.4-0.2c0-0.1,0-0.2,0-0.4v-1.3h1.9v1.2
			c0,0.2,0,0.4-0.1,0.7c0,0.1-0.1,0.2-0.1,0.3c-0.1,0.1-0.1,0.2-0.2,0.3c-0.2,0.2-0.4,0.4-0.7,0.5c-0.3,0.1-0.7,0.2-1.2,0.2
			c-0.5,0-0.9-0.1-1.2-0.2c-0.3-0.1-0.5-0.3-0.7-0.5c-0.2-0.2-0.3-0.4-0.4-0.7c-0.1-0.2-0.1-0.5-0.1-0.7V293z"/>
		<path id="XMLID_1912_" class="st2" d="M312,293c0-0.2,0-0.5,0.1-0.7c0.1-0.2,0.2-0.5,0.4-0.7c0.2-0.2,0.4-0.4,0.7-0.5
			c0.3-0.1,0.7-0.2,1.2-0.2c0.5,0,0.9,0.1,1.2,0.2c0.3,0.1,0.6,0.3,0.7,0.5c0.1,0.1,0.2,0.2,0.2,0.3c0.1,0.1,0.1,0.2,0.1,0.4
			c0.1,0.2,0.1,0.5,0.1,0.7v3.4c0,0.2,0,0.4-0.1,0.7c0,0.1-0.1,0.2-0.1,0.3c-0.1,0.1-0.1,0.2-0.2,0.3c-0.2,0.2-0.4,0.4-0.7,0.5
			c-0.3,0.1-0.7,0.2-1.2,0.2c-0.5,0-0.9-0.1-1.2-0.2c-0.3-0.1-0.5-0.3-0.7-0.5c-0.2-0.2-0.3-0.4-0.4-0.7c-0.1-0.2-0.1-0.5-0.1-0.7
			V293z M313.9,296.6c0,0.1,0,0.3,0.1,0.4c0.1,0.1,0.2,0.2,0.4,0.2c0.2,0,0.4-0.1,0.4-0.2c0-0.1,0-0.2,0-0.4v-3.7c0-0.1,0-0.3,0-0.4
			c0-0.1-0.1-0.1-0.1-0.1c-0.1,0-0.2,0-0.3,0c-0.2,0-0.4,0.1-0.4,0.2c0,0.1-0.1,0.3-0.1,0.4V296.6z"/>
		<path id="XMLID_1915_" class="st2" d="M328.9,289.3h3.1c0.9,0,1.5,0.2,1.8,0.7c0.3,0.4,0.5,1,0.5,1.7v4.3c0,0.8-0.3,1.4-0.7,1.8
			c-0.5,0.4-1,0.5-1.5,0.5h-3.1V289.3z M331,296.8h0.3c0.6,0,0.9-0.2,0.9-0.8v-4.4c0-0.5-0.3-0.8-0.9-0.8H331V296.8z"/>
		<path id="XMLID_1918_" class="st2" d="M335.5,289.3h1.9v1.3h-1.9V289.3z M335.5,291.1h1.9v7.2h-1.9V291.1z"/>
		<path id="XMLID_1921_" class="st2" d="M338.2,296.1h1.7v0.4c0,0.1,0,0.3,0.1,0.4c0.1,0.1,0.2,0.2,0.4,0.2c0.3,0,0.5-0.2,0.5-0.5
			c0-0.3-0.1-0.5-0.4-0.8c-0.3-0.2-0.6-0.4-0.9-0.7c-0.3-0.2-0.6-0.5-0.9-0.9c-0.3-0.3-0.4-0.8-0.4-1.3c0-0.7,0.2-1.2,0.6-1.6
			c0.4-0.3,0.9-0.5,1.5-0.5c1.4,0,2.1,0.6,2.1,1.9v0.4h-1.7v-0.4c0-0.1,0-0.2,0-0.4c-0.1-0.1-0.2-0.2-0.4-0.2
			c-0.3,0-0.5,0.2-0.5,0.5c0,0.1,0,0.3,0.1,0.4c0.1,0.1,0.2,0.2,0.3,0.4c0.1,0.1,0.3,0.2,0.5,0.3c0.2,0.1,0.3,0.2,0.4,0.4
			c0.3,0.2,0.6,0.5,0.9,0.8c0.3,0.3,0.4,0.8,0.4,1.3c0,0.2,0,0.3,0,0.6c0,0.2-0.1,0.5-0.3,0.7c-0.1,0.2-0.4,0.4-0.7,0.6
			c-0.3,0.2-0.7,0.3-1.2,0.3c-0.8,0-1.4-0.2-1.7-0.5c-0.3-0.3-0.5-0.8-0.5-1.4V296.1z"/>
		<path id="XMLID_1923_" class="st2" d="M343.4,293c0-0.2,0-0.5,0.1-0.7c0.1-0.2,0.2-0.5,0.4-0.7c0.2-0.2,0.4-0.4,0.7-0.5
			c0.3-0.1,0.7-0.2,1.2-0.2c0.5,0,0.9,0.1,1.2,0.2c0.3,0.1,0.6,0.3,0.7,0.5c0.1,0.1,0.2,0.2,0.2,0.3c0.1,0.1,0.1,0.2,0.1,0.4
			c0.1,0.2,0.1,0.5,0.1,0.7v2h-2.8v1.5c0,0.1,0,0.3,0.1,0.4c0.1,0.1,0.2,0.2,0.4,0.2c0.2,0,0.4-0.1,0.4-0.2c0-0.1,0-0.2,0-0.4v-0.9
			h1.9v0.8c0,0.2,0,0.4-0.1,0.7c0,0.1-0.1,0.2-0.1,0.3c-0.1,0.1-0.1,0.2-0.2,0.3c-0.2,0.2-0.4,0.4-0.7,0.5c-0.3,0.1-0.7,0.2-1.2,0.2
			c-0.5,0-0.9-0.1-1.2-0.2c-0.3-0.1-0.5-0.3-0.7-0.5c-0.2-0.2-0.3-0.4-0.4-0.7c-0.1-0.2-0.1-0.5-0.1-0.7V293z M345.3,293.7h0.9v-0.8
			c0-0.1,0-0.3,0-0.4c0-0.1-0.1-0.1-0.1-0.1c-0.1,0-0.2,0-0.3,0c-0.2,0-0.4,0.1-0.4,0.2c0,0.1-0.1,0.3-0.1,0.4V293.7z"/>
		<path id="XMLID_1926_" class="st2" d="M349,291.1h1.8v0.8h0c0.2-0.3,0.4-0.5,0.6-0.7c0.2-0.2,0.5-0.2,0.9-0.2
			c0.5,0,0.8,0.2,1.1,0.4c0.2,0.3,0.3,0.6,0.3,1.1v5.8h-1.9v-4.9c0-0.1,0-0.3,0-0.5c0-0.1-0.1-0.1-0.1-0.2c-0.1,0-0.2-0.1-0.3-0.1
			c-0.2,0-0.4,0.1-0.4,0.3c0,0.2-0.1,0.3-0.1,0.4v4.9H349V291.1z M353.3,289.3c-0.1,0.1-0.1,0.3-0.2,0.4c-0.1,0.1-0.2,0.3-0.3,0.4
			c-0.2,0.2-0.5,0.3-0.8,0.3c-0.3,0-0.5-0.1-0.6-0.2c-0.2-0.1-0.4-0.2-0.6-0.2c-0.1,0-0.2,0.1-0.3,0.1c-0.1,0.1-0.2,0.2-0.2,0.3
			l-0.5-0.2c0-0.1,0.1-0.3,0.2-0.4c0.1-0.1,0.1-0.2,0.2-0.4c0.2-0.2,0.4-0.4,0.7-0.4c0.3,0,0.5,0.1,0.7,0.2c0.2,0.1,0.4,0.2,0.6,0.2
			c0.1,0,0.3,0,0.4-0.1c0.1-0.1,0.2-0.2,0.2-0.3L353.3,289.3z"/>
		<path id="XMLID_1929_" class="st2" d="M354.7,293c0-0.2,0-0.5,0.1-0.7c0.1-0.2,0.2-0.5,0.4-0.7c0.2-0.2,0.4-0.4,0.7-0.5
			c0.3-0.1,0.7-0.2,1.2-0.2c0.5,0,0.9,0.1,1.2,0.2c0.3,0.1,0.6,0.3,0.7,0.5c0.1,0.1,0.2,0.2,0.2,0.3c0.1,0.1,0.1,0.2,0.1,0.4
			c0.1,0.2,0.1,0.5,0.1,0.7v3.4c0,0.2,0,0.4-0.1,0.7c0,0.1-0.1,0.2-0.1,0.3c-0.1,0.1-0.1,0.2-0.2,0.3c-0.2,0.2-0.4,0.4-0.7,0.5
			c-0.3,0.1-0.7,0.2-1.2,0.2c-0.5,0-0.9-0.1-1.2-0.2c-0.3-0.1-0.5-0.3-0.7-0.5c-0.2-0.2-0.3-0.4-0.4-0.7c-0.1-0.2-0.1-0.5-0.1-0.7
			V293z M356.6,296.6c0,0.1,0,0.3,0.1,0.4c0.1,0.1,0.2,0.2,0.4,0.2c0.2,0,0.4-0.1,0.4-0.2c0-0.1,0-0.2,0-0.4v-3.7c0-0.1,0-0.3,0-0.4
			c0-0.1-0.1-0.1-0.1-0.1c-0.1,0-0.2,0-0.3,0c-0.2,0-0.4,0.1-0.4,0.2c0,0.1-0.1,0.3-0.1,0.4V296.6z"/>
		<path id="XMLID_1932_" class="st2" d="M363,289.3h2.1l0.7,6.4h0l0.6-6.4h2l0.6,6.4h0l0.7-6.4h2l-1.5,9H368l-0.6-5.6h0l-0.7,5.6
			h-2.2L363,289.3z"/>
		<path id="XMLID_1934_" class="st2" d="M372.2,293c0-0.2,0-0.5,0.1-0.7c0.1-0.2,0.2-0.5,0.4-0.7c0.2-0.2,0.4-0.4,0.7-0.5
			c0.3-0.1,0.7-0.2,1.2-0.2c0.5,0,0.9,0.1,1.2,0.2c0.3,0.1,0.6,0.3,0.7,0.5c0.1,0.1,0.2,0.2,0.2,0.3c0.1,0.1,0.1,0.2,0.1,0.4
			c0.1,0.2,0.1,0.5,0.1,0.7v2h-2.8v1.5c0,0.1,0,0.3,0.1,0.4c0.1,0.1,0.2,0.2,0.4,0.2c0.2,0,0.4-0.1,0.4-0.2c0-0.1,0-0.2,0-0.4v-0.9
			h1.9v0.8c0,0.2,0,0.4-0.1,0.7c0,0.1-0.1,0.2-0.1,0.3c-0.1,0.1-0.1,0.2-0.2,0.3c-0.2,0.2-0.4,0.4-0.7,0.5c-0.3,0.1-0.7,0.2-1.2,0.2
			c-0.5,0-0.9-0.1-1.2-0.2c-0.3-0.1-0.5-0.3-0.7-0.5c-0.2-0.2-0.3-0.4-0.4-0.7c-0.1-0.2-0.1-0.5-0.1-0.7V293z M374.1,293.7h0.9v-0.8
			c0-0.1,0-0.3,0-0.4c0-0.1-0.1-0.1-0.1-0.1c-0.1,0-0.2,0-0.3,0c-0.2,0-0.4,0.1-0.4,0.2c0,0.1-0.1,0.3-0.1,0.4V293.7z"/>
		<path id="XMLID_1937_" class="st2" d="M377.9,289.3h1.9v2.5h0c0.3-0.5,0.8-0.8,1.4-0.8c0.9,0,1.4,0.6,1.4,1.8v3.5
			c0,1.4-0.5,2.1-1.4,2.2c-0.6,0-1.1-0.3-1.4-0.9l0,0v0.7h-1.9V289.3z M379.7,295.8c0,0.3,0,0.5,0.1,0.8c0.1,0.3,0.2,0.4,0.5,0.4
			c0.1,0,0.2,0,0.3-0.1c0.1-0.1,0.1-0.2,0.1-0.4v-3.7c0-0.2,0-0.3-0.1-0.3c-0.1-0.1-0.2-0.1-0.3-0.1c-0.2,0-0.3,0.1-0.4,0.3
			c-0.1,0.2-0.1,0.4-0.1,0.6V295.8z"/>
	</g>
	<rect id="XMLID_2112_" x="321.8" y="287.5" class="st2" width="2.1" height="10.8"/>
</g>
<g>
	
		<image style="overflow:visible;opacity:0.75;" width="211" height="212" xlink:href="916A70D9.png"  transform="matrix(1 0 0 1 780 135)">
	</image>
	<g>
		<path class="st3" d="M969,213.9c-8.2,4-16.3,8-24.4,12.1c-0.5,0.2-0.9,1.2-0.9,1.7c0.5,6.3,0.4,12.6-1,18.8
			c-0.3,1.5,0.1,2.3,1.4,3.1c6.9,4.3,13.7,8.8,20.6,13.2c1.2,0.8,1.8,1.5,1.1,2.9c-2.7,5.4-5.3,10.9-7.9,16.4
			c-0.6,1.2-1.3,1.4-2.6,0.9c-7.8-2.7-15.7-5.3-23.5-8c-1.3-0.4-2.1-0.4-3,0.7c-3.9,4.9-8.6,9-13.9,12.4c-1.1,0.7-1.4,1.3-1.1,2.6
			c1.8,8.1,3.5,16.2,5.3,24.2c0.3,1.4,0.2,2.3-1.3,2.8c-5.7,2-11.5,3.9-17.2,6c-1.3,0.5-1.9,0-2.5-1.2c-3.6-7.4-7.3-14.8-11-22.3
			c-0.5-1.1-1.2-1.6-2.5-1.5c-6.4,0.5-12.9,0.3-19.2-1.2c-1.2-0.3-1.7,0.3-2.3,1.2c-4.4,6.9-8.8,13.7-13.2,20.6
			c-0.4,0.6-0.8,1.2-1.3,1.9c-6.7-2.2-12.9-5.2-18.7-8.9c-0.4-0.3-0.5-1.4-0.3-2c2.6-8,5.3-15.9,8-23.9c0.4-1.2,0.2-1.8-0.7-2.6
			c-4.9-4-9.1-8.7-12.6-14c-0.7-1-1.2-1.4-2.6-1.1c-8.1,1.9-16.1,3.6-24.2,5.3c-1.3,0.3-2.3,0.2-2.8-1.3c-1.9-5.7-3.9-11.4-5.9-17
			c-0.6-1.6,0-2.2,1.3-2.8c7.4-3.6,14.7-7.3,22.1-10.9c1.2-0.6,1.6-1.2,1.5-2.6c-0.4-6.3-0.4-12.6,1.1-18.8c0.3-1.2,0-1.8-1.1-2.5
			c-7-4.4-13.9-9-20.9-13.4c-1.3-0.8-1.7-1.5-1-2.9c2.8-5.9,5.5-11.9,8.3-18c4.6,1.5,8.6,2.9,12.7,4.3c4.5,1.5,8.9,3,13.4,4.6
			c1.1,0.4,1.7,0.2,2.4-0.7c4.1-5,8.9-9.3,14.4-12.8c0.9-0.6,1-1.1,0.8-2.2c-1.8-8.1-3.6-16.3-5.3-24.4c-0.2-1-0.6-1.9,0.7-2.6
			c6.2-2.8,12.6-5.1,19.5-6.6c2.3,4.6,4.5,9.1,6.8,13.6c1.8,3.6,3.5,7.1,5.3,10.6c0.3,0.5,1.2,1.2,1.7,1.1
			c6.9-0.8,13.8-0.1,20.8,1.3c5.1-7.9,10.2-15.8,15.5-24.1c4.1,1.8,8.3,3.6,12.3,5.5c2,1,3.9,2.3,5.9,3.3c1.1,0.6,1.3,1.2,0.9,2.4
			c-2.7,7.9-5.3,15.8-8,23.7c-0.4,1.3-0.3,2,0.8,2.9c4.9,3.9,9,8.6,12.4,13.9c0.7,1,1.2,1.3,2.5,1c8.1-1.9,16.3-3.6,24.4-5.4
			c1.3-0.3,2.2-0.2,2.7,1.3c1.9,5.7,4,11.3,6,17c0.1,0.3,0.3,0.6,0.4,0.9C969,213.1,969,213.5,969,213.9z M878.6,264.2
			c16.8,0,30.4-13.4,30.4-29.9c0-17-13.4-30.6-30.2-30.6c-16.8,0-30.3,13.5-30.4,30.2C848.4,250.7,861.8,264.2,878.6,264.2z"/>
	</g>
</g>
<g>
	
		<image style="overflow:visible;opacity:0.75;" width="296" height="296" xlink:href="916A70DB.png"  transform="matrix(1 0 0 1 545 161)">
	</image>
	<g>
		<path class="st0" d="M581.7,324.6c-8.4-0.2-17.2-0.5-26.6-0.7c-0.6-7.5-1.2-15-1.8-22.7c3.3-0.6,6.1-1.2,9-1.7
			c5.5-1,11-1.9,16.5-3c0.6-0.1,1.3-1,1.4-1.6c0.7-8.1,2.2-16.1,4.6-23.9c0.2-0.5-0.6-1.6-1.2-1.9c-6.4-4.1-12.9-8-19.4-12
			c-0.6-0.4-1.2-0.8-2.3-1.5c3.3-6.8,6.5-13.5,9.8-20.5c8.8,3.1,17.2,6.1,25.5,9.1c2.8-3.6,5.4-7.2,8.3-10.5
			c2.9-3.4,6.1-6.5,9.3-9.9c-4.1-7.7-8.4-15.6-12.8-23.8c6.3-4.3,12.5-8.5,18.8-12.8c3.6,4.3,6.9,8.2,10.3,12.1
			c2.1,2.5,4.3,5,6.4,7.5c0.8,1,1.5,1,2.6,0.5c7.1-3.5,14.5-6.1,22.2-7.7c1.2-0.3,1.6-0.9,1.6-2.1c0.2-7.7,0.4-15.3,0.5-23
			c0-1.7,0.4-2.4,2.2-2.6c6.8-0.5,13.6-1.2,20.6-1.8c0.9,5,1.8,9.4,2.6,13.9c0.7,3.9,1.4,7.8,2.1,11.7c0.1,0.5,0.8,1.4,1.3,1.4
			c8.6,0.6,16.9,2.3,25.2,4.9c4.7-7.6,9.4-15.1,14.3-23.2c6.8,3.3,13.6,6.5,20.5,9.8c-3.1,8.8-6.1,17.2-8.9,25.1
			c6.9,5.9,13.6,11.7,20.6,17.7c3.2-1.7,7-3.8,10.8-5.8c3.7-2,7.4-3.9,11-6c1-0.6,1.6-0.7,2.4,0.4c4,5.8,8.1,11.5,12.3,17.5
			c-3.5,2.9-6.6,5.6-9.7,8.2c-3.3,2.8-6.7,5.6-10,8.6c-0.5,0.4-0.9,1.5-0.7,1.9c3.6,7.6,6.3,15.6,8.2,23.8c0,0.1,0.1,0.2,0.2,0.5
			c8.8,0.3,17.7,0.6,26.8,0.8c0.5,3.7,1,7.3,1.3,10.9c0.3,3.4,0.3,6.8,0.5,10.3c0.1,1.3-0.4,1.7-1.7,1.9c-8.3,1.4-16.5,3-24.3,4.4
			c-1.7,9-3.4,17.7-5.1,26.7c7.1,4.4,14.7,9.1,22.7,14.1c-3.3,6.8-6.5,13.6-9.9,20.5c-6.5-2.3-12.4-4.4-18.4-6.5c-2-0.7-4-1.5-6-2.1
			c-0.6-0.2-1.7,0.1-2,0.6c-4.7,6.9-10.1,13.1-16.2,18.8c-0.1,0.1-0.2,0.3-0.4,0.6c4.2,7.8,8.4,15.6,12.8,23.9
			c-4.8,3.3-9.5,6.7-14.4,9.8c-4.5,2.9-4.6,2.8-8.1-1.3c-4.6-5.4-9.2-10.9-13.6-16c-8.5,3-16.9,5.9-25.6,9
			c-0.3,8.3-0.6,17.3-0.9,26.8c-7.2,0.5-14.3,0.9-21.4,1.3c-1.3,0.1-1.5-0.6-1.7-1.7c-1.3-7.7-2.8-15.3-4.1-23
			c-0.2-1.3-0.7-2-2.2-2.1c-7.7-0.3-15.2-1.9-22.5-4.2c-1.4-0.4-2.1-0.3-3,1.1c-4.3,7.1-8.7,14.1-13.3,21.5c-5.4-2.6-10.8-5-16-7.7
			c-4.5-2.3-4.4-2.5-2.7-7.2c2.3-6.4,4.5-12.7,6.7-19.1c0.2-0.6,0.1-1.8-0.3-2c-7.1-4.9-13.5-10.5-19.4-16.9
			c-7.9,4.3-15.7,8.5-24,12.9c-4.3-6.2-8.5-12.5-12.8-18.8c7.1-6,13.9-11.8,20.3-17.3C587.7,341.7,584.8,333.4,581.7,324.6z
			 M632.4,302.4c-0.3,29.1,23.6,53.2,52.9,53.5c29.3,0.3,53-22.9,53.9-51.6c1-31.1-24-55-52.8-55.1
			C656.6,249,632.6,272.6,632.4,302.4z"/>
	</g>
</g>
</svg>
