<?xml version="1.0" encoding="utf-8"?>
<!-- Generator: Adobe Illustrator 21.1.0, SVG Export Plug-In . SVG Version: 6.00 Build 0)  -->
<svg version="1.1" id="Capa_1" xmlns="http://www.w3.org/2000/svg" xmlns:xlink="http://www.w3.org/1999/xlink" x="0px" y="0px"
	 viewBox="0 0 1440 600" style="enable-background:new 0 0 1440 600;" xml:space="preserve">
<style type="text/css">
	.st0{fill:url(#SVGID_1_);}
	.st1{fill:#FFFFFF;}
</style>
<g>
	<linearGradient id="SVGID_1_" gradientUnits="userSpaceOnUse" x1="0" y1="300" x2="1440" y2="300">
		<stop  offset="0" style="stop-color:#7AC943"/>
		<stop  offset="0.1295" style="stop-color:#4EBC48"/>
		<stop  offset="0.1886" style="stop-color:#39B54A"/>
		<stop  offset="0.284" style="stop-color:#229F32"/>
		<stop  offset="0.4069" style="stop-color:#098818"/>
		<stop  offset="0.4809" style="stop-color:#007F0F"/>
		<stop  offset="0.5571" style="stop-color:#068415"/>
		<stop  offset="0.6583" style="stop-color:#169426"/>
		<stop  offset="0.7731" style="stop-color:#30AD41"/>
		<stop  offset="0.8045" style="stop-color:#39B54A"/>
		<stop  offset="1" style="stop-color:#7AC943"/>
	</linearGradient>
	<rect class="st0" width="1440" height="600"/>
</g>
<g id="XMLID_2060_">
	<g id="XMLID_1863_">
		<g id="XMLID_1864_">
			<path id="XMLID_1865_" class="st1" d="M702.8,151.6c0-1.1-0.2-2.2-0.6-3.3c-0.4-1.1-1.1-2.1-1.9-3.1c-0.9-1-2.1-1.8-3.6-2.3
				c-1.6-0.5-3.5-0.8-5.7-0.8c-0.4,0-0.7,0-1.1,0.1c-0.4,0.1-0.8,0.1-1.2,0.2c-0.5,0.1-0.9,0.2-1.4,0.3c-0.5,0.2-0.9,0.4-1.4,0.6
				c-0.8,0.4-1.6,0.8-2.3,1.5c-0.8,0.6-1.5,1.4-2.2,2.2c-0.7,0.8-1.2,1.8-1.6,3c-0.4,1.2-0.7,2.5-0.8,4.1c0,2,0.3,3.8,0.8,5.3
				c0.6,1.5,1.4,2.7,2.5,3.7c1.2,1,2.4,1.7,3.6,2.3c1.2,0.6,2.5,0.9,3.9,1.1c0,0,0.1,0,0.2,0c0.1,0,0.1,0,0.2,0
				c0.1,0.1,0.2,0.1,0.3,0.1c0.1,0,0.1,0,0.2,0c0.1,0,0.2,0,0.2,0c0,0,0.1,0,0.2,0c0,0,0.1,0,0.2,0c0.1,0,0.1,0,0.2,0
				c0.6,0,1.2,0,1.7-0.1c0.5-0.1,1-0.2,1.6-0.4c0.3-0.1,0.5-0.2,0.7-0.3c0.2-0.1,0.5-0.2,0.7-0.3c0.2-0.2,0.4-0.3,0.7-0.5
				c0.3-0.2,0.5-0.3,0.7-0.5c0.3-0.2,0.5-0.3,0.7-0.6c0.2-0.2,0.5-0.4,0.7-0.6c0.3-0.3,0.5-0.5,0.8-0.7c0.3-0.2,0.5-0.5,0.8-0.7v8.3
				c-0.1,0.1-0.1,0.2-0.2,0.2v0.1c-0.6,0.4-1.2,0.8-1.9,1.1c-0.7,0.3-1.3,0.6-2,0.9c-0.7,0.2-1.6,0.4-2.6,0.5
				c-1,0.1-2.2,0.2-3.5,0.2c-0.1,0-0.1,0-0.1,0c0,0-0.1,0-0.1,0c-0.1,0-0.1,0-0.2,0c-0.1,0-0.1,0-0.2,0c-0.1,0-0.1,0-0.2,0
				c-0.1,0-0.1,0-0.1,0c0,0-0.1,0-0.1,0c-2.3,0-4.5-0.4-6.5-1.3c-2-0.8-3.8-2.1-5.5-3.8c-1.7-1.8-2.9-3.8-3.7-6.1
				c-0.8-2.3-1.2-4.9-1.2-7.8c0-2.5,0.4-4.9,1.2-7c0.8-2.2,2-4.2,3.6-6c1.6-1.8,3.6-3.2,6-4.1c2.4-0.9,5.1-1.4,8.3-1.4
				c3,0,5.6,0.4,8,1.2c2.3,0.8,4.3,2,5.8,3.6c1.6,1.6,2.8,3.3,3.6,5.1c0.8,1.8,1.2,3.6,1.2,5.6v21.3h-7.2V151.6z"/>
			<path id="XMLID_1867_" class="st1" d="M716.5,147.4c0-1.6,0.3-3,0.9-4.4c0.6-1.4,1.5-2.7,2.8-3.8c1.3-1.2,2.7-2,4.4-2.6
				c1.7-0.6,3.5-0.9,5.6-0.9c1.5,0,2.8,0.1,3.9,0.3c1.1,0.2,2,0.5,2.7,0.9c0.7,0.4,1.4,0.9,2,1.5c0.6,0.6,1.1,1.3,1.6,2
				c0.5-0.6,1-1.2,1.7-1.7c0.7-0.5,1.4-1,2.3-1.6c0.9-0.5,1.9-0.9,3-1.1c1.1-0.3,2.3-0.4,3.7-0.4c1.7,0,3.3,0.2,4.8,0.7
				s2.9,1.2,4.2,2.2c1.3,1,2.3,2.1,3,3.3c0.7,1.2,1,2.6,1.1,4.1c0,0.1,0,0.1,0,0.1s0,0.1,0,0.1c0,0.1,0,0.1,0,0.1c0,0,0,0.1,0,0.1
				c-0.1,0.1-0.1,0.1-0.1,0.1c0,0,0,0.1,0,0.1c0,0.1,0,0.1,0,0.1c0,0,0,0.1,0,0.1v25.5h-6.6v-23.2c0,0.1,0,0.1,0,0c0,0,0,0,0.1,0
				c0-0.1,0-0.1,0-0.1c0,0,0-0.1,0-0.1c0-0.1,0-0.2,0-0.3c0-0.1,0-0.1,0-0.2c0-0.2,0-0.3,0-0.5c0-0.2-0.1-0.3-0.1-0.5
				c-0.1-0.2-0.1-0.3-0.1-0.5c0-0.2-0.1-0.4-0.1-0.6c-0.2-0.6-0.5-1.2-0.9-1.7c-0.4-0.6-0.9-1.1-1.4-1.6c-0.6-0.5-1.2-0.9-1.8-1.1
				c-0.7-0.3-1.3-0.4-2-0.4c-0.9,0-1.8,0.2-2.5,0.5c-0.8,0.3-1.5,0.8-2.2,1.5c-0.7,0.7-1.2,1.4-1.6,2.1c-0.4,0.7-0.6,1.5-0.8,2.3
				c-0.1,0.1-0.1,0.2-0.1,0.3c0,0.1,0,0.2,0,0.3c0,0.2,0,0.3,0,0.4c0,0.1,0,0.2,0,0.3v23.1h-6.5v-22.6c0-1.1-0.2-2.1-0.5-3.1
				c-0.3-1-0.8-1.8-1.4-2.6c-0.6-0.8-1.4-1.4-2.3-1.8c-0.9-0.4-1.9-0.6-3.1-0.6c-1.5,0.2-2.7,0.5-3.6,1c-1,0.5-1.7,1.2-2.1,2
				c-0.5,0.9-0.8,1.8-1,2.7c-0.2,1-0.3,1.9-0.3,3c0,0.1,0,0.1,0,0.2v0.1v21.9h-6.6V147.4z"/>
			<path id="XMLID_1869_" class="st1" d="M813.3,145.9c1-2.2,2.4-4.2,4.2-5.8c1.9-1.7,3.9-2.9,6.1-3.7c2.1-0.8,4.4-1.2,6.8-1.2
				c0.1,0,0.2,0,0.3,0c0.1,0,0.2,0,0.3,0c0.1,0.1,0.2,0.1,0.3,0.1c0.1,0,0.3,0,0.4,0c0.1,0,0.2,0,0.3,0c0.1,0,0.3,0,0.4,0
				c0.1,0.1,0.2,0.1,0.3,0.1c0.1,0,0.2,0,0.3,0c2,0.3,3.9,0.9,5.8,1.8c1.8,0.9,3.6,2.1,5.3,3.5c1.7,1.5,2.9,3.4,3.8,5.7
				c0.9,2.3,1.3,4.9,1.3,8c0,0.2,0,0.4,0,0.6c0,0.2,0,0.4-0.1,0.5c0,0.2,0,0.4,0,0.6c0,0.2,0,0.4,0,0.6c-0.1,0.4-0.1,0.8-0.2,1.2
				c-0.1,0.4-0.2,0.8-0.3,1.2c-0.5,1.8-1.1,3.5-2.1,5.2c-0.9,1.6-2.1,3.2-3.6,4.7c-1.4,1.5-3.1,2.6-5.1,3.3c-2,0.7-4.2,1.1-6.6,1.1
				c-3.4,0-6.4-0.5-8.9-1.4c-2.5-0.9-4.5-2.4-6.1-4.3c-1.6-1.9-2.7-4-3.5-6.4c-0.8-2.3-1.2-4.8-1.2-7.5v-0.2
				C811.8,150.6,812.3,148.1,813.3,145.9z M819,154.5c0,0.3,0,0.7,0.1,1c0,0.4,0.1,0.7,0.2,1c0.1,0.3,0.1,0.7,0.2,1
				c0.3,1.1,0.7,2.2,1.2,3.3c0.6,1.1,1.2,2.1,2,3c0.9,1,1.9,1.7,3.2,2.1c1.3,0.5,2.8,0.7,4.5,0.7c1.6,0,3.1-0.2,4.5-0.7
				c1.4-0.5,2.7-1.1,3.9-2c1.2-0.9,2-2.2,2.6-4s0.9-3.9,0.9-6.4c0-1.8-0.3-3.4-0.8-4.8c-0.5-1.4-1.3-2.7-2.3-3.8
				c-1-1.1-2.3-1.9-3.7-2.4c-1.5-0.6-3.2-0.8-5.1-0.8c-1.8,0-3.4,0.2-4.7,0.7c-1.3,0.5-2.4,1.2-3.3,2.2c-0.9,1-1.6,2-2.1,3.1
				c-0.5,1.1-0.9,2.2-1.1,3.4c-0.1,0.2-0.1,0.4-0.2,0.6c-0.1,0.2-0.1,0.4-0.1,0.6c0,0.2,0,0.4,0,0.6c0,0.2,0,0.4,0,0.6v-0.2
				C819,153.8,819,154.2,819,154.5z"/>
			<path id="XMLID_1872_" class="st1" d="M855.6,145.9c1-2.2,2.4-4.2,4.2-5.8c1.9-1.7,3.9-2.9,6.1-3.7c2.1-0.8,4.4-1.2,6.8-1.2
				c0.1,0,0.2,0,0.3,0c0.1,0,0.2,0,0.3,0c0.1,0.1,0.2,0.1,0.3,0.1c0.1,0,0.3,0,0.4,0c0.1,0,0.2,0,0.3,0c0.1,0,0.3,0,0.4,0
				c0.1,0.1,0.2,0.1,0.3,0.1c0.1,0,0.2,0,0.3,0c2,0.3,3.9,0.9,5.8,1.8c1.8,0.9,3.6,2.1,5.3,3.5c1.7,1.5,2.9,3.4,3.8,5.7
				c0.9,2.3,1.3,4.9,1.3,8c0,0.2,0,0.4,0,0.6c0,0.2,0,0.4-0.1,0.5c0,0.2,0,0.4,0,0.6c0,0.2,0,0.4,0,0.6c-0.1,0.4-0.1,0.8-0.2,1.2
				c-0.1,0.4-0.2,0.8-0.3,1.2c-0.5,1.8-1.1,3.5-2.1,5.2c-0.9,1.6-2.1,3.2-3.6,4.7c-1.4,1.5-3.1,2.6-5.1,3.3c-2,0.7-4.2,1.1-6.6,1.1
				c-3.4,0-6.4-0.5-8.9-1.4c-2.5-0.9-4.5-2.4-6.1-4.3c-1.6-1.9-2.7-4-3.5-6.4c-0.8-2.3-1.2-4.8-1.2-7.5v-0.2
				C854.2,150.6,854.7,148.1,855.6,145.9z M861.4,154.5c0,0.3,0,0.7,0.1,1c0.1,0.4,0.1,0.7,0.2,1c0.1,0.3,0.1,0.7,0.2,1
				c0.3,1.1,0.7,2.2,1.2,3.3c0.6,1.1,1.2,2.1,2,3c0.9,1,1.9,1.7,3.2,2.1c1.3,0.5,2.8,0.7,4.5,0.7c1.6,0,3.1-0.2,4.5-0.7
				c1.4-0.5,2.7-1.1,3.9-2c1.2-0.9,2-2.2,2.6-4s0.9-3.9,0.9-6.4c0-1.8-0.3-3.4-0.8-4.8c-0.5-1.4-1.3-2.7-2.3-3.8
				c-1-1.1-2.3-1.9-3.7-2.4c-1.5-0.6-3.2-0.8-5.1-0.8c-1.8,0-3.4,0.2-4.7,0.7c-1.3,0.5-2.4,1.2-3.3,2.2c-0.9,1-1.6,2-2.1,3.1
				c-0.5,1.1-0.9,2.2-1.1,3.4c-0.1,0.2-0.1,0.4-0.2,0.6c-0.1,0.2-0.1,0.4-0.1,0.6c0,0.2,0,0.4,0,0.6c0,0.2,0,0.4,0,0.6v-0.2
				C861.4,153.8,861.4,154.2,861.4,154.5z"/>
		</g>
		<g id="XMLID_1875_">
			<path id="XMLID_1876_" class="st1" d="M662.7,140.6c-1.8-1.6-3.8-2.8-5.8-3.6c-2.1-0.8-4.3-1.2-6.7-1.2c-0.2,0-0.3,0-0.5,0
				c-0.2,0-0.3,0-0.4,0c-0.2,0.1-0.3,0.1-0.4,0.1c-0.1,0-0.3,0-0.4,0c-0.3,0.1-0.6,0.1-0.9,0.1c-0.3,0-0.5,0.1-0.8,0.1
				c-0.6,0.1-1.2,0.2-1.7,0.4c-0.6,0.2-1.1,0.3-1.7,0.5c-0.6,0.2-1.1,0.4-1.6,0.7c-0.5,0.3-1.1,0.5-1.6,0.8v6.7
				c0.2-0.1,0.4-0.2,0.6-0.3c0.2-0.1,0.4-0.1,0.6-0.2c0.1-0.1,0.2-0.1,0.3-0.2c0.1,0,0.2-0.1,0.3-0.2c0,0,0.1,0,0.2-0.1
				c0.1,0,0.2-0.1,0.3-0.2h0.1l0.1-0.1c0.6-0.3,1.1-0.5,1.6-0.7c0.5-0.2,1.1-0.4,1.6-0.6c0.6-0.2,1.2-0.4,1.8-0.5
				c0.7-0.1,1.4-0.2,2.1-0.2c0,0,0.1,0,0.2,0c0,0,0.1,0,0.2,0c0,0.1,0.1,0.1,0.2,0.1c0.1,0,0.1,0,0.2,0c0.1,0,0.2,0,0.3,0
				c0.1,0,0.3,0,0.4,0c1.2,0.2,2.4,0.5,3.5,1.1c1.1,0.6,2.2,1.4,3.2,2.4c1,1,1.8,2.2,2.3,3.7c0.5,1.5,0.8,3.3,0.8,5.3
				c0,0.3,0,0.5,0,0.8c0,0.3-0.1,0.6-0.1,0.9c-0.1,0.3-0.1,0.6-0.1,0.9c0,0.3-0.1,0.5-0.2,0.8c-0.3,1.1-0.8,2.2-1.4,3.3
				c-0.6,1.1-1.4,2.1-2.3,3c-1,1-2.1,1.7-3.4,2.2c-1.3,0.5-2.8,0.7-4.5,0.7c-1.8,0-3.3-0.3-4.7-0.9c-1.4-0.6-2.6-1.5-3.6-2.7
				c-1-1.2-1.7-2.6-2.2-4.2c-0.5-1.6-0.8-3.4-0.8-5.4v-21.6h-7.2v21.2c0,2.7,0.4,5.2,1.1,7.5c0.8,2.3,1.9,4.6,3.4,6.6
				c1.5,2,3.4,3.5,5.8,4.5c2.3,1,5,1.5,8.2,1.5c3.1,0,5.9-0.5,8.3-1.5c2.4-1,4.4-2.6,5.9-4.7c1.6-2.1,2.8-4.3,3.6-6.7
				c0.8-2.3,1.2-4.7,1.2-7.3c0-2.7-0.5-5.2-1.4-7.3C665.9,144,664.5,142.2,662.7,140.6z"/>
			<rect id="XMLID_1877_" x="630.6" y="120" class="st1" width="7.2" height="9.1"/>
		</g>
		<g id="XMLID_1878_">
			<rect id="XMLID_1879_" x="770.1" y="120" class="st1" width="7.2" height="9.1"/>
			<path id="XMLID_1880_" class="st1" d="M806.3,146.2c-0.9-2.2-2.3-4-4.1-5.6c-1.8-1.6-3.8-2.8-5.8-3.6c-2.1-0.8-4.3-1.2-6.7-1.2
				c-0.2,0-0.3,0-0.5,0s-0.3,0-0.4,0c-0.2,0.1-0.3,0.1-0.4,0.1c-0.1,0-0.3,0-0.4,0c-0.3,0.1-0.6,0.1-0.9,0.1c-0.3,0-0.5,0.1-0.8,0.1
				c-0.6,0.1-1.2,0.2-1.7,0.4c-0.6,0.2-1.1,0.3-1.7,0.5c-0.6,0.2-1.1,0.4-1.6,0.7c-0.5,0.3-1.1,0.5-1.6,0.8v6.7
				c0.2-0.1,0.4-0.2,0.6-0.3c0.2-0.1,0.4-0.1,0.6-0.2c0.1-0.1,0.2-0.1,0.3-0.2c0.1,0,0.2-0.1,0.3-0.2c0,0,0.1,0,0.2-0.1
				c0.1,0,0.2-0.1,0.3-0.2h0.1l0.1-0.1c0.6-0.3,1.1-0.5,1.6-0.7c0.5-0.2,1.1-0.4,1.6-0.6c0.6-0.2,1.2-0.4,1.8-0.5
				c0.7-0.1,1.4-0.2,2.1-0.2c0,0,0.1,0,0.2,0c0,0,0.1,0,0.2,0c0,0.1,0.1,0.1,0.2,0.1c0.1,0,0.1,0,0.2,0c0.1,0,0.2,0,0.3,0
				c0.1,0,0.3,0,0.4,0c1.2,0.2,2.4,0.5,3.5,1.1c1.1,0.6,2.2,1.4,3.2,2.4c1,1,1.8,2.2,2.3,3.7c0.5,1.5,0.8,3.3,0.8,5.3
				c0,0.3,0,0.5,0,0.8c0,0.3-0.1,0.6-0.1,0.9c-0.1,0.3-0.1,0.6-0.1,0.9c0,0.3-0.1,0.5-0.2,0.8c-0.3,1.1-0.8,2.2-1.4,3.3
				c-0.6,1.1-1.4,2.1-2.3,3c-1,1-2.1,1.7-3.4,2.2c-1.3,0.5-2.8,0.7-4.5,0.7c-1.8,0-3.3-0.3-4.7-0.9c-1.4-0.6-2.6-1.5-3.6-2.7
				c-1-1.2-1.7-2.6-2.2-4.2c-0.5-1.6-0.8-3.4-0.8-5.4v-21.6h-7.2v21.2c0,2.7,0.4,5.2,1.1,7.5c0.8,2.3,1.9,4.6,3.4,6.6
				c1.5,2,3.4,3.5,5.8,4.5c2.3,1,5,1.5,8.2,1.5c3.1,0,5.9-0.5,8.3-1.5c2.4-1,4.4-2.6,5.9-4.7c1.6-2.1,2.8-4.3,3.6-6.7
				c0.8-2.3,1.2-4.7,1.2-7.3C807.7,150.8,807.2,148.4,806.3,146.2z"/>
		</g>
	</g>
	<g id="XMLID_1938_">
		<path id="XMLID_1939_" class="st1" d="M683.1,200.1v1h-13.2v-19.4h13v1h-11.8v7.8h11.1v1h-11.1v8.5H683.1z"/>
		<path id="XMLID_1941_" class="st1" d="M685.4,196.5c0.1,1.3,0.6,2.3,1.4,3c0.8,0.7,1.9,1.1,3.2,1.1c0.5,0,1-0.1,1.5-0.2
			c0.5-0.1,1-0.2,1.4-0.4c0.5-0.2,0.8-0.5,1.1-0.9c0.3-0.4,0.4-0.9,0.4-1.4c0-0.6-0.1-1.1-0.4-1.5c-0.3-0.4-0.6-0.7-1.1-0.9
			c-0.4-0.2-0.9-0.4-1.5-0.5c-0.6-0.1-1.2-0.3-1.8-0.4c-0.6-0.1-1.2-0.3-1.7-0.5c-0.6-0.2-1.1-0.4-1.6-0.6c-0.5-0.3-0.8-0.7-1.1-1.1
			c-0.3-0.5-0.4-1-0.4-1.7c0-0.7,0.2-1.3,0.5-1.8c0.3-0.5,0.7-0.8,1.2-1.1c1-0.5,2.2-0.7,3.4-0.7c1.5,0,2.8,0.3,3.7,1
			c0.9,0.7,1.4,1.8,1.4,3.4h-1c0-1.3-0.4-2.2-1.2-2.7c-0.8-0.5-1.8-0.8-3-0.8c-1,0-1.9,0.2-2.7,0.6c-0.4,0.2-0.7,0.5-0.9,0.8
			c-0.3,0.3-0.4,0.8-0.4,1.3c0,0.5,0.1,1,0.4,1.3c0.3,0.3,0.6,0.6,1.1,0.8c0.2,0.1,0.5,0.2,0.7,0.3c0.2,0.1,0.5,0.2,0.8,0.3
			c0.3,0.1,0.6,0.1,0.8,0.2c0.3,0.1,0.5,0.1,0.8,0.2c1.4,0.2,2.6,0.6,3.5,1.1c0.4,0.3,0.8,0.7,1,1.1c0.2,0.5,0.4,1.1,0.4,1.8
			s-0.2,1.3-0.5,1.8c-0.3,0.5-0.8,0.9-1.3,1.2c-0.5,0.3-1.1,0.5-1.7,0.6c-0.7,0.1-1.3,0.2-1.9,0.2c-1.6,0-2.9-0.4-4-1.3
			c-1-0.8-1.6-2.1-1.7-3.7H685.4z"/>
		<path id="XMLID_1943_" class="st1" d="M703.1,188.1h-3v9.7c0,1.1,0.3,1.8,0.8,2.1c0.5,0.3,1.2,0.4,2.2,0.3v0.9c-0.5,0-1,0-1.5-0.1
			c-0.5-0.1-0.9-0.2-1.3-0.4c-0.4-0.2-0.7-0.5-0.9-1c-0.2-0.5-0.3-1.1-0.3-1.8v-9.7h-2.6v-0.9h2.6v-4.3h1v4.3h3V188.1z"/>
		<path id="XMLID_1945_" class="st1" d="M716,201.1h-1v-3H715c-0.4,1-1,1.8-1.9,2.4c-0.9,0.6-2,0.9-3.1,0.9c-1.2,0-2.2-0.2-2.8-0.7
			c-0.7-0.4-1.2-0.9-1.5-1.5c-0.3-0.6-0.5-1.2-0.5-1.9c-0.1-0.6-0.1-1.1-0.1-1.6v-8.6h1v8.8c0,0.4,0,0.8,0.1,1.3
			c0.1,0.5,0.2,1,0.5,1.5c0.3,0.5,0.7,0.9,1.2,1.2c0.5,0.4,1.2,0.5,2.2,0.5c1.6,0,2.8-0.6,3.7-1.7c0.9-1.1,1.3-2.4,1.3-4.2v-7.6h1
			V201.1z"/>
		<path id="XMLID_1947_" class="st1" d="M729.9,198.1L729.9,198.1c-1.2,2.2-2.9,3.3-5.4,3.3c-2.1,0-3.6-0.8-4.6-2.2
			c-1-1.4-1.5-3.1-1.5-5.1c0-2.1,0.5-3.9,1.5-5.2c1-1.4,2.6-2.1,4.7-2.1c1.2,0,2.2,0.3,3.2,0.9c0.5,0.3,0.9,0.7,1.2,1.1
			c0.3,0.4,0.6,0.9,0.8,1.5h0.1v-8.5h1v19.4h-1V198.1z M728.6,198.5c0.8-1.2,1.3-2.7,1.3-4.4c0-1.7-0.4-3.2-1.2-4.5
			c-0.8-1.3-2.2-1.9-4-2c-1.8,0-3.1,0.7-4,1.9c-0.8,1.2-1.3,2.7-1.2,4.5c0,1.7,0.4,3.2,1.3,4.4c0.8,1.3,2.1,1.9,3.9,2
			C726.5,200.5,727.8,199.8,728.6,198.5z"/>
		<path id="XMLID_1950_" class="st1" d="M734.4,184.5v-2.8h1v2.8H734.4z M734.4,201.1v-14h1v14H734.4z"/>
		<path id="XMLID_1953_" class="st1" d="M739.8,189c1.1-1.4,2.7-2.1,4.7-2.1c2.1,0,3.7,0.8,4.7,2.1c1.1,1.4,1.7,3.1,1.7,5.2
			c0,2-0.6,3.7-1.7,5.1c-1.1,1.4-2.7,2.1-4.7,2.2c-2.1,0-3.6-0.8-4.7-2.2c-1.1-1.4-1.7-3.1-1.7-5.1
			C738.1,192.1,738.7,190.4,739.8,189z M740.5,198.6c0.9,1.3,2.2,1.9,4,2c1.8,0,3.1-0.7,4-2c0.9-1.2,1.4-2.7,1.4-4.4
			c0-1.7-0.5-3.2-1.4-4.5c-0.9-1.2-2.2-1.9-4-1.9c-1.7,0-3.1,0.7-4,1.9c-0.9,1.2-1.4,2.7-1.4,4.5
			C739.1,195.9,739.6,197.3,740.5,198.6z"/>
		<path id="XMLID_1956_" class="st1" d="M777.9,191.6v9.5h-1V197h-0.1c-0.5,1.4-1.4,2.5-2.7,3.3c-1.3,0.8-2.9,1.2-4.6,1.2
			c-1.5,0-2.8-0.3-3.9-0.8c-1.1-0.5-2.1-1.2-2.9-2.1c-1.6-1.9-2.4-4.2-2.4-7.1c0-2.8,0.8-5.2,2.4-7.2c1.6-2,3.8-3,6.7-3.1
			c2,0,3.8,0.6,5.3,1.7c1.5,1.1,2.4,2.7,2.8,4.8h-1.1c-1-3.5-3.3-5.4-6.9-5.4c-2.6,0-4.6,1-5.9,2.8c-1.4,1.8-2.1,3.9-2.1,6.4
			c0,2.5,0.7,4.7,2,6.3c1.3,1.7,3.3,2.6,6,2.7c2.4,0,4.2-0.7,5.5-2.2c1.3-1.4,1.9-3.3,1.8-5.7h-7.1v-1H777.9z"/>
		<path id="XMLID_1958_" class="st1" d="M782,190.3L782,190.3c0.4-0.9,1-1.7,2-2.3c1-0.6,2.1-0.9,3.4-0.8v1c-0.6-0.1-1.2,0-1.8,0.1
			c-0.7,0.2-1.4,0.6-2,1.2c-0.5,0.5-0.9,1-1.1,1.6c-0.2,0.6-0.4,1.4-0.5,2.4v7.6h-1v-14h1V190.3z"/>
		<path id="XMLID_1960_" class="st1" d="M798.8,198.5c0,0.4,0,0.8,0.1,1.1c0.1,0.4,0.3,0.5,0.8,0.5c0.2,0,0.4,0,0.8-0.1v0.9
			c-0.3,0.1-0.6,0.1-0.8,0.1c-0.8,0-1.3-0.2-1.5-0.6c-0.3-0.4-0.4-0.8-0.4-1.4v-0.7h-0.1c-0.3,0.8-0.9,1.5-1.8,2.1
			c-0.9,0.6-2,0.9-3.4,1c-1.3,0-2.4-0.3-3.3-0.9c-0.9-0.6-1.3-1.6-1.4-3c0-0.8,0.2-1.5,0.5-2c0.3-0.5,0.7-0.9,1.2-1.2
			c0.5-0.3,1.1-0.5,1.7-0.6c0.3-0.1,0.6-0.1,0.9-0.2c0.3,0,0.6-0.1,0.8-0.1c2.2-0.1,3.6-0.4,4.1-0.7c0.3-0.2,0.5-0.5,0.6-0.8
			c0.1-0.3,0.1-0.8,0.1-1.3c0-0.2,0-0.4-0.1-0.7c-0.1-0.3-0.3-0.6-0.6-0.9c-0.3-0.3-0.7-0.6-1.2-0.8c-0.5-0.2-1.2-0.3-2-0.3
			c-2.6,0-4,1.3-4.3,3.7h-1c0.2-3.1,2-4.6,5.3-4.6c1.3,0,2.4,0.2,3.4,0.7c1,0.5,1.5,1.5,1.5,2.9V198.5z M796.9,193.7
			c-0.3,0.1-0.8,0.2-1.2,0.3c-1,0.1-1.9,0.2-3,0.3c-2.5,0.2-3.8,1.2-3.8,3.2c0,0.9,0.3,1.6,1,2.1c0.6,0.6,1.5,0.9,2.7,0.9
			c1.2,0,2.1-0.2,2.8-0.7c0.7-0.4,1.2-0.9,1.6-1.4c0.3-0.6,0.6-1.1,0.7-1.6c0.1-0.5,0.1-0.8,0.1-1v-2.6
			C797.6,193.4,797.3,193.6,796.9,193.7z M795.7,181.3h1.4l-3.6,3.8h-1L795.7,181.3z"/>
		<path id="XMLID_1964_" class="st1" d="M800.6,188.1v-0.9h2.5v-2.9c0-1,0.3-1.7,0.9-2.1c0.6-0.4,1.3-0.6,2.1-0.6
			c0.4,0,0.8,0,1.2,0.1v0.9c-0.4-0.1-0.8-0.1-1.2-0.1c-0.6,0-1.1,0.1-1.4,0.4c-0.4,0.3-0.6,0.8-0.6,1.6v2.8h2.9v0.9h-2.9v13.1h-1
			v-13.1H800.6z"/>
		<path id="XMLID_1966_" class="st1" d="M808.9,184.5v-2.8h1v2.8H808.9z M808.9,201.1v-14h1v14H808.9z"/>
		<path id="XMLID_1969_" class="st1" d="M823.7,191.5c-0.1-1.2-0.6-2.2-1.5-2.8c-0.9-0.6-2-0.9-3.3-0.9c-1.7,0-3.1,0.7-4,1.9
			c-0.9,1.2-1.4,2.7-1.4,4.3c0,1.9,0.5,3.5,1.4,4.7c0.9,1.2,2.2,1.9,4,1.9c1.3,0,2.4-0.4,3.3-1.2c0.9-0.8,1.4-1.8,1.6-3.1h1
			c-0.2,1.7-0.9,3-1.9,3.9c-1.1,0.9-2.4,1.4-3.9,1.4c-2.2,0-3.9-0.8-4.9-2.3c-1-1.4-1.5-3.2-1.5-5.2c0-2,0.5-3.7,1.6-5
			c1.1-1.4,2.7-2.1,4.8-2.1c1.6,0,2.9,0.4,3.9,1.1c1.1,0.8,1.7,1.9,1.8,3.5H823.7z"/>
		<path id="XMLID_1971_" class="st1" d="M828.3,189c1.1-1.4,2.7-2.1,4.7-2.1c2.1,0,3.7,0.8,4.7,2.1c1.1,1.4,1.7,3.1,1.7,5.2
			c0,2-0.6,3.7-1.7,5.1c-1.1,1.4-2.7,2.1-4.7,2.2c-2.1,0-3.6-0.8-4.7-2.2c-1.1-1.4-1.7-3.1-1.7-5.1
			C826.6,192.1,827.2,190.4,828.3,189z M829.1,198.6c0.9,1.3,2.2,1.9,4,2c1.8,0,3.1-0.7,4-2c0.9-1.2,1.4-2.7,1.4-4.4
			c0-1.7-0.5-3.2-1.4-4.5c-0.9-1.2-2.2-1.9-4-1.9c-1.7,0-3.1,0.7-4,1.9c-0.9,1.2-1.4,2.7-1.4,4.5
			C827.7,195.9,828.1,197.3,829.1,198.6z"/>
	</g>
	<g id="XMLID_1974_">
		<g id="XMLID_1975_">
			<path id="XMLID_1976_" class="st1" d="M604.8,115.9c0.5,8.1,2,28.2,0,37.1h15.1c-1.2-7.3-1.1-32.4,0-37.1H604.8z M604.8,115.9"/>
			<path id="XMLID_1979_" class="st1" d="M604.8,157.8c0.5,10.9,2,38.2,0,50.3h15.1c-1.2-10-1.1-44,0-50.3H604.8z M604.8,157.8"/>
			<path id="XMLID_1982_" class="st1" d="M605.7,155.5l-0.8-1.1c-10.7-1.9-19.7-7-25.6-11c1.1-1.7,3-5.1,3.1-9.3
				c0.1-5.8-3.1-17.2-3.1-17.2s-3.9,11.3-4,17c-0.1,3.2,0.9,6,1.8,7.9c-3.1-2.3-4.9-4-4.9-4l-0.1,0c-0.7-2.6-2.3-6.8-5.5-10
				c-5.1-5.1-18.4-12-18.4-12s6.9,13.3,12.1,18.4c4.2,4.2,9.8,5.6,11.7,5.9c1.8,1.6,6.1,5,11.9,8.3c-1.9-0.8-5.5-2.1-9.4-1.6
				c-5.7,0.7-16.6,5.7-16.6,5.7s11.8,2.2,17.5,1.5c5.5-0.7,9.5-4.5,9.8-4.8c5.4,3,12.1,5.8,19.5,7.1l0.1,0L605.7,155.5z
				 M605.7,155.5"/>
		</g>
		<path id="XMLID_1985_" class="st1" d="M605.9,211h13c0.4,0,0.7,0.5,0.5,0.9l-6.5,9.8c-0.2,0.3-0.7,0.3-0.9,0l-6.5-9.8
			C605.1,211.5,605.4,211,605.9,211z"/>
		<path id="XMLID_1986_" class="st1" d="M604.8,112.4h15.1c0,0-0.6-9.1-7.6-9.1C612.4,103.3,605.1,103.3,604.8,112.4z"/>
	</g>
	<g id="XMLID_1862_">
		<path id="XMLID_1881_" class="st1" d="M702.4,214.8h2.4c0.7,0,1.2,0.2,1.4,0.5c0.2,0.3,0.4,0.8,0.4,1.4v3.4c0,0.6-0.2,1.1-0.6,1.4
			c-0.4,0.3-0.8,0.4-1.2,0.4h-2.4V214.8z M704.1,220.7h0.3c0.5,0,0.7-0.2,0.7-0.6v-3.5c0-0.4-0.2-0.6-0.7-0.6h-0.3V220.7z"/>
		<path id="XMLID_1884_" class="st1" d="M707.6,214.8h1.5v1h-1.5V214.8z M707.6,216.2h1.5v5.7h-1.5V216.2z"/>
		<path id="XMLID_1887_" class="st1" d="M709.7,220.1h1.3v0.3c0,0.1,0,0.2,0.1,0.3c0.1,0.1,0.2,0.2,0.3,0.2c0.2,0,0.4-0.1,0.4-0.4
			c0-0.2-0.1-0.4-0.3-0.6c-0.2-0.2-0.5-0.3-0.7-0.5c-0.2-0.2-0.5-0.4-0.7-0.7c-0.2-0.3-0.3-0.6-0.3-1c0-0.5,0.2-1,0.5-1.2
			c0.3-0.3,0.7-0.4,1.2-0.4c1.1,0,1.7,0.5,1.7,1.5v0.3h-1.3v-0.3c0-0.1,0-0.2,0-0.3c0-0.1-0.1-0.2-0.3-0.2c-0.2,0-0.4,0.1-0.4,0.4
			c0,0.1,0,0.2,0.1,0.3c0.1,0.1,0.2,0.2,0.3,0.3c0.1,0.1,0.2,0.2,0.4,0.3c0.1,0.1,0.2,0.2,0.3,0.3c0.3,0.2,0.5,0.4,0.7,0.7
			c0.2,0.3,0.3,0.6,0.3,1c0,0.1,0,0.3,0,0.5c0,0.2-0.1,0.4-0.2,0.6c-0.1,0.2-0.3,0.3-0.5,0.5c-0.2,0.1-0.6,0.2-1,0.2
			c-0.7,0-1.1-0.1-1.4-0.4c-0.3-0.3-0.4-0.6-0.4-1.1V220.1z"/>
		<path id="XMLID_1889_" class="st1" d="M713.8,217.7c0-0.2,0-0.4,0.1-0.5c0.1-0.2,0.1-0.4,0.3-0.5c0.1-0.2,0.3-0.3,0.6-0.4
			c0.2-0.1,0.5-0.2,0.9-0.2c0.4,0,0.7,0.1,0.9,0.2c0.2,0.1,0.4,0.2,0.6,0.4c0.1,0.1,0.1,0.2,0.2,0.2c0,0.1,0.1,0.2,0.1,0.3
			c0,0.2,0.1,0.4,0.1,0.5v1.6h-2.2v1.2c0,0.1,0,0.2,0,0.3c0,0.1,0.2,0.2,0.3,0.2c0.2,0,0.3-0.1,0.3-0.2c0-0.1,0-0.2,0-0.3v-0.7h1.5
			v0.6c0,0.2,0,0.3-0.1,0.5c0,0.1-0.1,0.2-0.1,0.3c0,0.1-0.1,0.2-0.2,0.3c-0.1,0.2-0.3,0.3-0.6,0.4c-0.2,0.1-0.6,0.2-0.9,0.2
			c-0.4,0-0.7-0.1-0.9-0.2c-0.2-0.1-0.4-0.2-0.6-0.4c-0.1-0.2-0.2-0.3-0.3-0.5c-0.1-0.2-0.1-0.4-0.1-0.5V217.7z M715.3,218.2h0.7
			v-0.6c0-0.1,0-0.2,0-0.3c0,0-0.1-0.1-0.1-0.1c-0.1,0-0.1,0-0.2,0c-0.2,0-0.3,0.1-0.3,0.2c0,0.1-0.1,0.2,0,0.3V218.2z"/>
		<path id="XMLID_1892_" class="st1" d="M718.2,216.2h1.4v0.6h0c0.1-0.2,0.3-0.4,0.5-0.6c0.2-0.1,0.4-0.2,0.7-0.2
			c0.4,0,0.7,0.1,0.9,0.3c0.2,0.2,0.3,0.5,0.3,0.9v4.6h-1.5V218c0-0.1,0-0.2,0-0.4c0-0.1-0.1-0.1-0.1-0.1c-0.1,0-0.1,0-0.2,0
			c-0.2,0-0.3,0.1-0.3,0.2c0,0.1-0.1,0.2,0,0.3v3.9h-1.5V216.2z M721.6,214.8c0,0.1-0.1,0.2-0.1,0.3c-0.1,0.1-0.1,0.2-0.2,0.3
			c-0.1,0.2-0.4,0.3-0.6,0.3c-0.2,0-0.4-0.1-0.5-0.2c-0.1-0.1-0.3-0.1-0.5-0.1c-0.1,0-0.2,0-0.2,0.1c-0.1,0.1-0.1,0.1-0.2,0.2
			l-0.4-0.2c0-0.1,0.1-0.2,0.1-0.3c0.1-0.1,0.1-0.2,0.2-0.3c0.1-0.2,0.3-0.3,0.5-0.3c0.2,0,0.4,0.1,0.6,0.1c0.2,0.1,0.3,0.2,0.5,0.2
			c0.1,0,0.2,0,0.3-0.1c0.1-0.1,0.1-0.2,0.2-0.3L721.6,214.8z"/>
		<path id="XMLID_1895_" class="st1" d="M722.7,217.7c0-0.2,0-0.4,0.1-0.5c0.1-0.2,0.1-0.4,0.3-0.5c0.1-0.2,0.3-0.3,0.6-0.4
			c0.2-0.1,0.5-0.2,0.9-0.2c0.4,0,0.7,0.1,0.9,0.2c0.2,0.1,0.4,0.2,0.6,0.4c0.1,0.1,0.1,0.2,0.2,0.2c0,0.1,0.1,0.2,0.1,0.3
			c0,0.2,0.1,0.4,0.1,0.5v2.7c0,0.2,0,0.3-0.1,0.5c0,0.1-0.1,0.2-0.1,0.3c0,0.1-0.1,0.2-0.2,0.3c-0.1,0.2-0.3,0.3-0.6,0.4
			c-0.2,0.1-0.6,0.2-0.9,0.2c-0.4,0-0.7-0.1-0.9-0.2c-0.2-0.1-0.4-0.2-0.6-0.4c-0.1-0.2-0.2-0.3-0.3-0.5c-0.1-0.2-0.1-0.4-0.1-0.5
			V217.7z M724.2,220.5c0,0.1,0,0.2,0,0.3c0,0.1,0.2,0.2,0.3,0.2c0.2,0,0.3-0.1,0.3-0.2c0-0.1,0-0.2,0-0.3v-2.9c0-0.1,0-0.2,0-0.3
			c0,0-0.1-0.1-0.1-0.1c-0.1,0-0.1,0-0.2,0c-0.2,0-0.3,0.1-0.3,0.2c0,0.1-0.1,0.2,0,0.3V220.5z"/>
		<path id="XMLID_1898_" class="st1" d="M729.3,216.7c0-0.7,0.2-1.2,0.6-1.6c0.4-0.3,0.9-0.5,1.5-0.5c0.6,0,1.1,0.1,1.5,0.4
			c0.2,0.1,0.4,0.3,0.5,0.5c0.1,0.2,0.2,0.5,0.2,0.8v0.8h-1.6v-0.7c0-0.4-0.2-0.6-0.5-0.6c-0.2,0-0.3,0.1-0.4,0.2
			c-0.1,0.1-0.1,0.3-0.1,0.4v3.5c0,0,0,0.1,0,0.2c0,0.1,0,0.1,0.1,0.2c0.1,0.2,0.2,0.3,0.4,0.3c0.4,0,0.6-0.2,0.6-0.5v-0.9h-0.6V218
			h2.1v3.9h-1.4v-0.6h0c-0.3,0.5-0.7,0.7-1.3,0.7c-0.3,0-0.5-0.1-0.7-0.2c-0.2-0.1-0.3-0.3-0.5-0.5c-0.2-0.4-0.3-0.9-0.3-1.4V216.7z
			"/>
		<path id="XMLID_1900_" class="st1" d="M734.3,216.2h1.4v1h0c0-0.1,0.1-0.3,0.2-0.4c0.1-0.1,0.1-0.2,0.2-0.4
			c0.1-0.1,0.2-0.2,0.3-0.3c0.1-0.1,0.3-0.1,0.4-0.1v1.8h-0.4c-0.3,0-0.4,0.1-0.5,0.2c-0.1,0.1-0.2,0.3-0.2,0.5v3.2h-1.5V216.2z"/>
		<path id="XMLID_1902_" class="st1" d="M741,221.9h-1.4v-0.4l0,0c-0.3,0.4-0.6,0.5-1.1,0.6c-0.3,0-0.5-0.1-0.7-0.2
			c-0.2-0.1-0.3-0.2-0.4-0.4c-0.1-0.2-0.1-0.4-0.2-0.6c0-0.2,0-0.4,0-0.6c0-0.3,0-0.5,0.1-0.7c0.1-0.2,0.2-0.3,0.3-0.5
			c0.1-0.1,0.2-0.2,0.4-0.3c0.1-0.1,0.3-0.1,0.4-0.2c0.1-0.1,0.3-0.1,0.4-0.2c0.1-0.1,0.3-0.1,0.4-0.2c0.2-0.1,0.3-0.3,0.3-0.6
			c0-0.3-0.1-0.5-0.4-0.5c-0.3,0-0.4,0.1-0.4,0.4v0.5h-1.4v-0.5c0-0.4,0.2-0.8,0.5-1c0.3-0.2,0.7-0.4,1.3-0.4c0.7,0,1.1,0.1,1.4,0.4
			c0.3,0.3,0.4,0.7,0.4,1.4V221.9z M739.6,219l-0.5,0.3c-0.2,0.1-0.3,0.3-0.3,0.5v0.8c0,0.3,0.1,0.5,0.4,0.5c0.1,0,0.2-0.1,0.3-0.2
			c0.1-0.1,0.1-0.2,0.1-0.3V219z"/>
		<path id="XMLID_1905_" class="st1" d="M741.5,216.3h0.4v-0.4c0-0.3,0-0.5,0.1-0.6c0.1-0.1,0.2-0.3,0.3-0.3
			c0.1-0.1,0.3-0.1,0.4-0.1c0.2,0,0.3,0,0.5,0h0.6v1h-0.1c-0.2,0-0.3,0.1-0.3,0.3v0.2h0.4v1.1h-0.4v4.5h-1.5v-4.5h-0.4V216.3z"/>
		<path id="XMLID_1907_" class="st1" d="M744.3,214.8h1.5v1h-1.5V214.8z M744.3,216.2h1.5v5.7h-1.5V216.2z"/>
		<path id="XMLID_1910_" class="st1" d="M746.6,217.7c0-0.2,0-0.4,0.1-0.5c0.1-0.2,0.1-0.4,0.3-0.5c0.1-0.2,0.3-0.3,0.6-0.4
			c0.2-0.1,0.5-0.2,0.9-0.2c0.4,0,0.7,0.1,0.9,0.2c0.2,0.1,0.4,0.2,0.6,0.4c0.1,0.1,0.1,0.2,0.2,0.2c0,0.1,0.1,0.2,0.1,0.3
			c0,0.2,0.1,0.4,0.1,0.5v0.6h-1.5v-0.7c0-0.1,0-0.2,0-0.3c0,0-0.1-0.1-0.1-0.1c-0.1,0-0.1,0-0.2,0c-0.2,0-0.3,0.1-0.3,0.2
			c0,0.1-0.1,0.2,0,0.3v2.9c0,0.1,0,0.2,0,0.3c0,0.1,0.2,0.2,0.3,0.2c0.2,0,0.3-0.1,0.3-0.2c0-0.1,0-0.2,0-0.3v-1h1.5v0.9
			c0,0.2,0,0.3-0.1,0.5c0,0.1-0.1,0.2-0.1,0.3c0,0.1-0.1,0.2-0.2,0.3c-0.1,0.2-0.3,0.3-0.6,0.4c-0.2,0.1-0.6,0.2-0.9,0.2
			c-0.4,0-0.7-0.1-0.9-0.2c-0.2-0.1-0.4-0.2-0.6-0.4c-0.1-0.2-0.2-0.3-0.3-0.5c-0.1-0.2-0.1-0.4-0.1-0.5V217.7z"/>
		<path id="XMLID_1912_" class="st1" d="M751,217.7c0-0.2,0-0.4,0.1-0.5c0.1-0.2,0.1-0.4,0.3-0.5c0.1-0.2,0.3-0.3,0.6-0.4
			c0.2-0.1,0.5-0.2,0.9-0.2c0.4,0,0.7,0.1,0.9,0.2c0.2,0.1,0.4,0.2,0.6,0.4c0.1,0.1,0.1,0.2,0.2,0.2c0,0.1,0.1,0.2,0.1,0.3
			c0,0.2,0.1,0.4,0.1,0.5v2.7c0,0.2,0,0.3-0.1,0.5c0,0.1-0.1,0.2-0.1,0.3c0,0.1-0.1,0.2-0.2,0.3c-0.1,0.2-0.3,0.3-0.6,0.4
			c-0.2,0.1-0.6,0.2-0.9,0.2c-0.4,0-0.7-0.1-0.9-0.2c-0.2-0.1-0.4-0.2-0.6-0.4c-0.1-0.2-0.2-0.3-0.3-0.5c-0.1-0.2-0.1-0.4-0.1-0.5
			V217.7z M752.5,220.5c0,0.1,0,0.2,0,0.3c0,0.1,0.2,0.2,0.3,0.2c0.2,0,0.3-0.1,0.3-0.2c0-0.1,0-0.2,0-0.3v-2.9c0-0.1,0-0.2,0-0.3
			c0,0-0.1-0.1-0.1-0.1c-0.1,0-0.1,0-0.2,0c-0.2,0-0.3,0.1-0.3,0.2c0,0.1-0.1,0.2,0,0.3V220.5z"/>
		<path id="XMLID_1915_" class="st1" d="M764.3,214.8h2.4c0.7,0,1.2,0.2,1.4,0.5c0.2,0.3,0.4,0.8,0.4,1.4v3.4c0,0.6-0.2,1.1-0.6,1.4
			c-0.4,0.3-0.8,0.4-1.2,0.4h-2.4V214.8z M766,220.7h0.3c0.5,0,0.7-0.2,0.7-0.6v-3.5c0-0.4-0.2-0.6-0.7-0.6H766V220.7z"/>
		<path id="XMLID_1918_" class="st1" d="M769.5,214.8h1.5v1h-1.5V214.8z M769.5,216.2h1.5v5.7h-1.5V216.2z"/>
		<path id="XMLID_1921_" class="st1" d="M771.6,220.1h1.3v0.3c0,0.1,0,0.2,0.1,0.3c0.1,0.1,0.2,0.2,0.3,0.2c0.2,0,0.4-0.1,0.4-0.4
			c0-0.2-0.1-0.4-0.3-0.6c-0.2-0.2-0.5-0.3-0.7-0.5c-0.2-0.2-0.5-0.4-0.7-0.7c-0.2-0.3-0.3-0.6-0.3-1c0-0.5,0.2-1,0.5-1.2
			c0.3-0.3,0.7-0.4,1.2-0.4c1.1,0,1.7,0.5,1.7,1.5v0.3h-1.3v-0.3c0-0.1,0-0.2,0-0.3c0-0.1-0.1-0.2-0.3-0.2c-0.2,0-0.4,0.1-0.4,0.4
			c0,0.1,0,0.2,0.1,0.3c0.1,0.1,0.2,0.2,0.3,0.3c0.1,0.1,0.2,0.2,0.4,0.3c0.1,0.1,0.2,0.2,0.3,0.3c0.3,0.2,0.5,0.4,0.7,0.7
			c0.2,0.3,0.3,0.6,0.3,1c0,0.1,0,0.3,0,0.5c0,0.2-0.1,0.4-0.2,0.6c-0.1,0.2-0.3,0.3-0.5,0.5c-0.2,0.1-0.6,0.2-1,0.2
			c-0.7,0-1.1-0.1-1.4-0.4c-0.3-0.3-0.4-0.6-0.4-1.1V220.1z"/>
		<path id="XMLID_1923_" class="st1" d="M775.7,217.7c0-0.2,0-0.4,0.1-0.5c0.1-0.2,0.1-0.4,0.3-0.5c0.1-0.2,0.3-0.3,0.6-0.4
			c0.2-0.1,0.5-0.2,0.9-0.2c0.4,0,0.7,0.1,0.9,0.2c0.2,0.1,0.4,0.2,0.6,0.4c0.1,0.1,0.1,0.2,0.2,0.2c0,0.1,0.1,0.2,0.1,0.3
			c0,0.2,0.1,0.4,0.1,0.5v1.6h-2.2v1.2c0,0.1,0,0.2,0,0.3c0,0.1,0.2,0.2,0.3,0.2c0.2,0,0.3-0.1,0.3-0.2c0-0.1,0-0.2,0-0.3v-0.7h1.5
			v0.6c0,0.2,0,0.3-0.1,0.5c0,0.1-0.1,0.2-0.1,0.3c0,0.1-0.1,0.2-0.2,0.3c-0.1,0.2-0.3,0.3-0.6,0.4c-0.2,0.1-0.6,0.2-0.9,0.2
			c-0.4,0-0.7-0.1-0.9-0.2c-0.2-0.1-0.4-0.2-0.6-0.4c-0.1-0.2-0.2-0.3-0.3-0.5c-0.1-0.2-0.1-0.4-0.1-0.5V217.7z M777.2,218.2h0.7
			v-0.6c0-0.1,0-0.2,0-0.3c0,0-0.1-0.1-0.1-0.1c-0.1,0-0.1,0-0.2,0c-0.2,0-0.3,0.1-0.3,0.2c0,0.1-0.1,0.2,0,0.3V218.2z"/>
		<path id="XMLID_1926_" class="st1" d="M780.1,216.2h1.4v0.6h0c0.1-0.2,0.3-0.4,0.5-0.6c0.2-0.1,0.4-0.2,0.7-0.2
			c0.4,0,0.7,0.1,0.9,0.3c0.2,0.2,0.3,0.5,0.3,0.9v4.6h-1.5V218c0-0.1,0-0.2,0-0.4c0-0.1-0.1-0.1-0.1-0.1c-0.1,0-0.1,0-0.2,0
			c-0.2,0-0.3,0.1-0.3,0.2c0,0.1-0.1,0.2,0,0.3v3.9h-1.5V216.2z M783.5,214.8c0,0.1-0.1,0.2-0.1,0.3c-0.1,0.1-0.1,0.2-0.2,0.3
			c-0.1,0.2-0.4,0.3-0.6,0.3c-0.2,0-0.4-0.1-0.5-0.2c-0.1-0.1-0.3-0.1-0.5-0.1c-0.1,0-0.2,0-0.2,0.1c-0.1,0.1-0.1,0.1-0.2,0.2
			l-0.4-0.2c0-0.1,0.1-0.2,0.1-0.3c0.1-0.1,0.1-0.2,0.2-0.3c0.1-0.2,0.3-0.3,0.5-0.3c0.2,0,0.4,0.1,0.6,0.1c0.2,0.1,0.3,0.2,0.5,0.2
			c0.1,0,0.2,0,0.3-0.1c0.1-0.1,0.1-0.2,0.2-0.3L783.5,214.8z"/>
		<path id="XMLID_1929_" class="st1" d="M784.6,217.7c0-0.2,0-0.4,0.1-0.5c0.1-0.2,0.1-0.4,0.3-0.5c0.1-0.2,0.3-0.3,0.6-0.4
			c0.2-0.1,0.5-0.2,0.9-0.2c0.4,0,0.7,0.1,0.9,0.2c0.2,0.1,0.4,0.2,0.6,0.4c0.1,0.1,0.1,0.2,0.2,0.2c0,0.1,0.1,0.2,0.1,0.3
			c0,0.2,0.1,0.4,0.1,0.5v2.7c0,0.2,0,0.3-0.1,0.5c0,0.1-0.1,0.2-0.1,0.3c0,0.1-0.1,0.2-0.2,0.3c-0.1,0.2-0.3,0.3-0.6,0.4
			c-0.2,0.1-0.6,0.2-0.9,0.2c-0.4,0-0.7-0.1-0.9-0.2c-0.2-0.1-0.4-0.2-0.6-0.4c-0.1-0.2-0.2-0.3-0.3-0.5c-0.1-0.2-0.1-0.4-0.1-0.5
			V217.7z M786.1,220.5c0,0.1,0,0.2,0,0.3c0,0.1,0.2,0.2,0.3,0.2c0.2,0,0.3-0.1,0.3-0.2c0-0.1,0-0.2,0-0.3v-2.9c0-0.1,0-0.2,0-0.3
			c0,0-0.1-0.1-0.1-0.1c-0.1,0-0.1,0-0.2,0c-0.2,0-0.3,0.1-0.3,0.2c0,0.1-0.1,0.2,0,0.3V220.5z"/>
		<path id="XMLID_1932_" class="st1" d="M791.1,214.8h1.6l0.6,5h0l0.5-5h1.5l0.5,5h0l0.6-5h1.6l-1.2,7.1H795l-0.5-4.4h0l-0.5,4.4
			h-1.8L791.1,214.8z"/>
		<path id="XMLID_1934_" class="st1" d="M798.4,217.7c0-0.2,0-0.4,0.1-0.5c0.1-0.2,0.1-0.4,0.3-0.5c0.1-0.2,0.3-0.3,0.6-0.4
			c0.2-0.1,0.5-0.2,0.9-0.2c0.4,0,0.7,0.1,0.9,0.2c0.2,0.1,0.4,0.2,0.6,0.4c0.1,0.1,0.1,0.2,0.2,0.2c0,0.1,0.1,0.2,0.1,0.3
			c0,0.2,0.1,0.4,0.1,0.5v1.6h-2.2v1.2c0,0.1,0,0.2,0,0.3c0,0.1,0.2,0.2,0.3,0.2c0.2,0,0.3-0.1,0.3-0.2c0-0.1,0-0.2,0-0.3v-0.7h1.5
			v0.6c0,0.2,0,0.3-0.1,0.5c0,0.1-0.1,0.2-0.1,0.3c0,0.1-0.1,0.2-0.2,0.3c-0.1,0.2-0.3,0.3-0.6,0.4c-0.2,0.1-0.6,0.2-0.9,0.2
			c-0.4,0-0.7-0.1-0.9-0.2c-0.2-0.1-0.4-0.2-0.6-0.4c-0.1-0.2-0.2-0.3-0.3-0.5c-0.1-0.2-0.1-0.4-0.1-0.5V217.7z M799.9,218.2h0.7
			v-0.6c0-0.1,0-0.2,0-0.3c0,0-0.1-0.1-0.1-0.1c-0.1,0-0.1,0-0.2,0c-0.2,0-0.3,0.1-0.3,0.2c0,0.1-0.1,0.2,0,0.3V218.2z"/>
		<path id="XMLID_1937_" class="st1" d="M802.8,214.8h1.5v1.9h0c0.2-0.4,0.6-0.6,1.1-0.6c0.7,0,1.1,0.5,1.1,1.4v2.8
			c0,1.1-0.4,1.7-1.1,1.7c-0.5,0-0.9-0.2-1.1-0.7l0,0v0.6h-1.5V214.8z M804.3,219.9c0,0.2,0,0.4,0.1,0.6c0,0.2,0.2,0.3,0.4,0.3
			c0.1,0,0.2,0,0.2-0.1c0.1-0.1,0.1-0.2,0.1-0.3v-2.9c0-0.1,0-0.2-0.1-0.3c-0.1-0.1-0.1-0.1-0.2-0.1c-0.2,0-0.3,0.1-0.3,0.2
			c-0.1,0.1-0.1,0.3-0.1,0.5V219.9z"/>
	</g>
	<rect id="XMLID_2112_" x="758.7" y="213.4" class="st1" width="1.6" height="8.5"/>
</g>
</svg>
