<?xml version="1.0" encoding="utf-8"?>
<!-- Generator: Adobe Illustrator 22.0.0, SVG Export Plug-In . SVG Version: 6.00 Build 0)  -->
<svg version="1.1" id="Capa_1" xmlns="http://www.w3.org/2000/svg" xmlns:xlink="http://www.w3.org/1999/xlink" x="0px" y="0px"
	 viewBox="0 0 350 200" style="enable-background:new 0 0 350 200;" xml:space="preserve">
<style type="text/css">
	.st0{fill:#2B2F5B;}
	.st1{fill:#FFFFFF;}
	.st2{fill:#83AE38;}
</style>
<rect class="st0" width="350" height="200"/>
<g>
	<g id="XMLID_2359_">
		<g id="XMLID_2366_">
			<path id="XMLID_2375_" class="st1" d="M157.4,66.1c0-0.4-0.1-0.8-0.2-1.2c-0.2-0.4-0.4-0.8-0.7-1.1c-0.3-0.4-0.7-0.6-1.3-0.8
				c-0.6-0.2-1.2-0.3-2-0.3c-0.1,0-0.3,0-0.4,0c-0.1,0-0.3,0-0.4,0.1c-0.2,0-0.3,0.1-0.5,0.1c-0.2,0.1-0.3,0.1-0.5,0.2
				c-0.3,0.1-0.6,0.3-0.8,0.5c-0.3,0.2-0.5,0.5-0.8,0.8c-0.2,0.3-0.4,0.6-0.6,1.1c-0.1,0.4-0.2,0.9-0.3,1.4c0,0.7,0.1,1.3,0.3,1.9
				c0.2,0.5,0.5,1,0.9,1.3c0.4,0.3,0.8,0.6,1.3,0.8c0.4,0.2,0.9,0.3,1.4,0.4c0,0,0,0,0.1,0c0,0,0,0,0.1,0c0,0,0.1,0,0.1,0
				c0,0,0,0,0.1,0c0,0,0.1,0,0.1,0c0,0,0,0,0.1,0c0,0,0,0,0.1,0c0,0,0,0,0.1,0c0.2,0,0.4,0,0.6,0c0.2,0,0.4-0.1,0.6-0.1
				c0.1,0,0.2-0.1,0.3-0.1c0.1,0,0.2-0.1,0.3-0.1c0.1-0.1,0.2-0.1,0.2-0.2c0.1-0.1,0.2-0.1,0.2-0.2c0.1-0.1,0.2-0.1,0.3-0.2
				c0.1-0.1,0.2-0.2,0.3-0.2c0.1-0.1,0.2-0.2,0.3-0.3c0.1-0.1,0.2-0.2,0.3-0.3v2.9c0,0,0,0.1-0.1,0.1v0c-0.2,0.1-0.4,0.3-0.7,0.4
				c-0.2,0.1-0.5,0.2-0.7,0.3c-0.3,0.1-0.6,0.1-0.9,0.2c-0.4,0-0.8,0.1-1.2,0.1c0,0,0,0,0,0c0,0,0,0,0,0c0,0,0,0-0.1,0
				c0,0,0,0-0.1,0c0,0,0,0-0.1,0c0,0,0,0,0,0c0,0,0,0,0,0c-0.8,0-1.6-0.1-2.3-0.4c-0.7-0.3-1.4-0.8-2-1.4c-0.6-0.6-1-1.4-1.3-2.2
				c-0.3-0.8-0.4-1.7-0.4-2.8c0-0.9,0.1-1.7,0.4-2.5c0.3-0.8,0.7-1.5,1.3-2.1c0.6-0.6,1.3-1.1,2.1-1.5c0.8-0.3,1.8-0.5,2.9-0.5
				c1.1,0,2,0.1,2.8,0.4c0.8,0.3,1.5,0.7,2.1,1.3c0.6,0.6,1,1.2,1.3,1.8c0.3,0.6,0.4,1.3,0.4,2v7.6h-2.6V66.1z"/>
			<path id="XMLID_2373_" class="st2" d="M162.3,64.6c0-0.6,0.1-1.1,0.3-1.6c0.2-0.5,0.5-0.9,1-1.4c0.4-0.4,1-0.7,1.6-0.9
				c0.6-0.2,1.3-0.3,2-0.3c0.5,0,1,0,1.4,0.1c0.4,0.1,0.7,0.2,1,0.3c0.3,0.1,0.5,0.3,0.7,0.5c0.2,0.2,0.4,0.4,0.6,0.7
				c0.2-0.2,0.4-0.4,0.6-0.6c0.2-0.2,0.5-0.4,0.8-0.6c0.3-0.2,0.7-0.3,1.1-0.4c0.4-0.1,0.8-0.1,1.3-0.1c0.6,0,1.2,0.1,1.7,0.3
				c0.5,0.2,1,0.4,1.5,0.8c0.5,0.3,0.8,0.7,1.1,1.2c0.2,0.4,0.4,0.9,0.4,1.5c0,0,0,0,0,0s0,0,0,0c0,0,0,0,0,0c0,0,0,0,0,0
				c0,0,0,0,0,0c0,0,0,0,0,0c0,0,0,0,0,0c0,0,0,0,0,0v9.1h-2.3v-8.3c0,0,0,0,0,0c0,0,0,0,0,0c0,0,0,0,0,0c0,0,0,0,0,0
				c0,0,0-0.1,0-0.1c0,0,0,0,0-0.1c0-0.1,0-0.1,0-0.2c0-0.1,0-0.1,0-0.2c0-0.1,0-0.1,0-0.2c0-0.1,0-0.1,0-0.2
				c-0.1-0.2-0.2-0.4-0.3-0.6c-0.1-0.2-0.3-0.4-0.5-0.6c-0.2-0.2-0.4-0.3-0.6-0.4c-0.2-0.1-0.5-0.1-0.7-0.1c-0.3,0-0.6,0.1-0.9,0.2
				c-0.3,0.1-0.5,0.3-0.8,0.5c-0.2,0.2-0.4,0.5-0.6,0.7c-0.1,0.3-0.2,0.5-0.3,0.8c0,0,0,0.1,0,0.1c0,0,0,0.1,0,0.1
				c0,0.1,0,0.1,0,0.1c0,0,0,0.1,0,0.1v8.2h-2.3v-8.1c0-0.4-0.1-0.8-0.2-1.1c-0.1-0.3-0.3-0.7-0.5-0.9c-0.2-0.3-0.5-0.5-0.8-0.6
				c-0.3-0.1-0.7-0.2-1.1-0.2c-0.5,0.1-1,0.2-1.3,0.4c-0.3,0.2-0.6,0.4-0.8,0.7c-0.2,0.3-0.3,0.6-0.4,1c-0.1,0.3-0.1,0.7-0.1,1.1
				c0,0,0,0,0,0.1v0v7.8h-2.3V64.6z"/>
			<path id="XMLID_2370_" class="st1" d="M196.8,64.1c0.3-0.8,0.8-1.5,1.5-2.1c0.7-0.6,1.4-1,2.2-1.3c0.8-0.3,1.6-0.4,2.4-0.4
				c0,0,0.1,0,0.1,0c0,0,0.1,0,0.1,0c0,0,0.1,0,0.1,0c0,0,0.1,0,0.1,0c0,0,0.1,0,0.1,0c0,0,0.1,0,0.1,0c0,0,0.1,0,0.1,0
				c0,0,0.1,0,0.1,0c0.7,0.1,1.4,0.3,2.1,0.6c0.7,0.3,1.3,0.7,1.9,1.3c0.6,0.5,1,1.2,1.3,2c0.3,0.8,0.5,1.8,0.5,2.8
				c0,0.1,0,0.1,0,0.2c0,0.1,0,0.1,0,0.2c0,0.1,0,0.1,0,0.2c0,0.1,0,0.1,0,0.2c0,0.1,0,0.3-0.1,0.4c0,0.1-0.1,0.3-0.1,0.4
				c-0.2,0.6-0.4,1.3-0.7,1.8c-0.3,0.6-0.8,1.1-1.3,1.7c-0.5,0.5-1.1,0.9-1.8,1.2c-0.7,0.3-1.5,0.4-2.3,0.4c-1.2,0-2.3-0.2-3.2-0.5
				c-0.9-0.3-1.6-0.8-2.2-1.5c-0.6-0.7-1-1.4-1.3-2.3c-0.3-0.8-0.4-1.7-0.4-2.7v-0.1C196.2,65.8,196.4,64.9,196.8,64.1z M198.8,67.2
				c0,0.1,0,0.2,0,0.4c0,0.1,0,0.2,0.1,0.4c0,0.1,0,0.2,0.1,0.4c0.1,0.4,0.2,0.8,0.4,1.2c0.2,0.4,0.4,0.7,0.7,1.1
				c0.3,0.3,0.7,0.6,1.1,0.8c0.4,0.2,1,0.2,1.6,0.2c0.6,0,1.1-0.1,1.6-0.2c0.5-0.2,1-0.4,1.4-0.7c0.4-0.3,0.7-0.8,0.9-1.4
				s0.3-1.4,0.3-2.3c0-0.6-0.1-1.2-0.3-1.7c-0.2-0.5-0.4-1-0.8-1.4c-0.4-0.4-0.8-0.7-1.3-0.9c-0.5-0.2-1.1-0.3-1.8-0.3
				c-0.6,0-1.2,0.1-1.7,0.3c-0.5,0.2-0.9,0.4-1.2,0.8c-0.3,0.3-0.6,0.7-0.7,1.1c-0.2,0.4-0.3,0.8-0.4,1.2c0,0.1,0,0.1-0.1,0.2
				c0,0.1,0,0.1,0,0.2c0,0.1,0,0.1,0,0.2c0,0.1,0,0.1,0,0.2v-0.1C198.8,66.9,198.8,67.1,198.8,67.2z"/>
			<path id="XMLID_2367_" class="st1" d="M211.8,64.1c0.3-0.8,0.8-1.5,1.5-2.1c0.7-0.6,1.4-1,2.2-1.3c0.8-0.3,1.6-0.4,2.4-0.4
				c0,0,0.1,0,0.1,0c0,0,0.1,0,0.1,0c0,0,0.1,0,0.1,0c0,0,0.1,0,0.1,0c0,0,0.1,0,0.1,0c0,0,0.1,0,0.1,0c0,0,0.1,0,0.1,0
				c0,0,0.1,0,0.1,0c0.7,0.1,1.4,0.3,2.1,0.6c0.7,0.3,1.3,0.7,1.9,1.3c0.6,0.5,1,1.2,1.3,2c0.3,0.8,0.5,1.8,0.5,2.8
				c0,0.1,0,0.1,0,0.2c0,0.1,0,0.1,0,0.2c0,0.1,0,0.1,0,0.2c0,0.1,0,0.1,0,0.2c0,0.1,0,0.3-0.1,0.4c0,0.1-0.1,0.3-0.1,0.4
				c-0.2,0.6-0.4,1.3-0.7,1.8c-0.3,0.6-0.8,1.1-1.3,1.7c-0.5,0.5-1.1,0.9-1.8,1.2c-0.7,0.3-1.5,0.4-2.3,0.4c-1.2,0-2.3-0.2-3.2-0.5
				c-0.9-0.3-1.6-0.8-2.2-1.5c-0.6-0.7-1-1.4-1.3-2.3c-0.3-0.8-0.4-1.7-0.4-2.7v-0.1C211.3,65.8,211.5,64.9,211.8,64.1z M213.9,67.2
				c0,0.1,0,0.2,0,0.4c0,0.1,0,0.2,0.1,0.4c0,0.1,0,0.2,0.1,0.4c0.1,0.4,0.2,0.8,0.4,1.2c0.2,0.4,0.4,0.7,0.7,1.1
				c0.3,0.3,0.7,0.6,1.1,0.8c0.4,0.2,1,0.2,1.6,0.2c0.6,0,1.1-0.1,1.6-0.2c0.5-0.2,1-0.4,1.4-0.7c0.4-0.3,0.7-0.8,0.9-1.4
				s0.3-1.4,0.3-2.3c0-0.6-0.1-1.2-0.3-1.7c-0.2-0.5-0.4-1-0.8-1.4c-0.4-0.4-0.8-0.7-1.3-0.9c-0.5-0.2-1.1-0.3-1.8-0.3
				c-0.6,0-1.2,0.1-1.7,0.3c-0.5,0.2-0.9,0.4-1.2,0.8c-0.3,0.3-0.6,0.7-0.7,1.1c-0.2,0.4-0.3,0.8-0.4,1.2c0,0.1,0,0.1-0.1,0.2
				c0,0.1,0,0.1,0,0.2c0,0.1,0,0.1,0,0.2c0,0.1,0,0.1,0,0.2v-0.1C213.9,66.9,213.9,67.1,213.9,67.2z"/>
		</g>
		<g id="XMLID_2363_">
			<path id="XMLID_2365_" class="st1" d="M143.1,62.2c-0.6-0.6-1.3-1-2.1-1.3c-0.7-0.3-1.5-0.4-2.4-0.4c-0.1,0-0.1,0-0.2,0
				c-0.1,0-0.1,0-0.1,0c-0.1,0-0.1,0-0.1,0c0,0-0.1,0-0.1,0c-0.1,0-0.2,0-0.3,0c-0.1,0-0.2,0-0.3,0c-0.2,0-0.4,0.1-0.6,0.1
				c-0.2,0.1-0.4,0.1-0.6,0.2c-0.2,0.1-0.4,0.2-0.6,0.2c-0.2,0.1-0.4,0.2-0.6,0.3v2.4c0.1,0,0.1-0.1,0.2-0.1c0.1,0,0.1,0,0.2-0.1
				c0,0,0.1,0,0.1-0.1c0,0,0.1,0,0.1-0.1c0,0,0,0,0.1,0c0,0,0.1,0,0.1-0.1h0l0,0c0.2-0.1,0.4-0.2,0.6-0.3c0.2-0.1,0.4-0.2,0.6-0.2
				c0.2-0.1,0.4-0.1,0.6-0.2c0.2,0,0.5-0.1,0.8-0.1c0,0,0,0,0.1,0c0,0,0,0,0.1,0c0,0,0,0,0.1,0c0,0,0,0,0.1,0c0,0,0.1,0,0.1,0
				c0,0,0.1,0,0.1,0c0.4,0.1,0.8,0.2,1.3,0.4c0.4,0.2,0.8,0.5,1.1,0.8c0.4,0.3,0.6,0.8,0.8,1.3c0.2,0.5,0.3,1.2,0.3,1.9
				c0,0.1,0,0.2,0,0.3c0,0.1,0,0.2,0,0.3c0,0.1,0,0.2,0,0.3c0,0.1,0,0.2-0.1,0.3c-0.1,0.4-0.3,0.8-0.5,1.2c-0.2,0.4-0.5,0.7-0.8,1.1
				c-0.3,0.3-0.7,0.6-1.2,0.8c-0.5,0.2-1,0.3-1.6,0.3c-0.6,0-1.2-0.1-1.7-0.3c-0.5-0.2-0.9-0.5-1.3-1c-0.3-0.4-0.6-0.9-0.8-1.5
				c-0.2-0.6-0.3-1.2-0.3-1.9v-7.7h-2.6v7.5c0,1,0.1,1.8,0.4,2.7c0.3,0.8,0.7,1.6,1.2,2.4c0.5,0.7,1.2,1.3,2.1,1.6
				c0.8,0.4,1.8,0.5,2.9,0.5c1.1,0,2.1-0.2,3-0.5c0.9-0.4,1.6-0.9,2.1-1.7c0.6-0.8,1-1.5,1.3-2.4c0.3-0.8,0.4-1.7,0.4-2.6
				c0-1-0.2-1.8-0.5-2.6C144.2,63.4,143.7,62.8,143.1,62.2z"/>
			<rect id="XMLID_2364_" x="131.7" y="54.9" class="st1" width="2.6" height="3.3"/>
		</g>
		<g id="XMLID_2360_">
			<rect id="XMLID_2362_" x="181.4" y="54.9" class="st2" width="2.6" height="3.3"/>
			<path id="XMLID_2361_" class="st2" d="M194.3,64.2c-0.3-0.8-0.8-1.4-1.5-2c-0.6-0.6-1.3-1-2.1-1.3c-0.7-0.3-1.5-0.4-2.4-0.4
				c-0.1,0-0.1,0-0.2,0c-0.1,0-0.1,0-0.1,0c-0.1,0-0.1,0-0.1,0c0,0-0.1,0-0.1,0c-0.1,0-0.2,0-0.3,0c-0.1,0-0.2,0-0.3,0
				c-0.2,0-0.4,0.1-0.6,0.1c-0.2,0.1-0.4,0.1-0.6,0.2c-0.2,0.1-0.4,0.2-0.6,0.2c-0.2,0.1-0.4,0.2-0.6,0.3v2.4c0.1,0,0.1-0.1,0.2-0.1
				c0.1,0,0.1,0,0.2-0.1c0,0,0.1,0,0.1-0.1c0,0,0.1,0,0.1-0.1c0,0,0,0,0.1,0c0,0,0.1,0,0.1-0.1h0l0,0c0.2-0.1,0.4-0.2,0.6-0.3
				c0.2-0.1,0.4-0.2,0.6-0.2c0.2-0.1,0.4-0.1,0.6-0.2c0.2,0,0.5-0.1,0.8-0.1c0,0,0,0,0.1,0c0,0,0,0,0.1,0c0,0,0,0,0.1,0
				c0,0,0,0,0.1,0c0,0,0.1,0,0.1,0c0,0,0.1,0,0.1,0c0.4,0.1,0.8,0.2,1.3,0.4c0.4,0.2,0.8,0.5,1.1,0.8c0.4,0.3,0.6,0.8,0.8,1.3
				c0.2,0.5,0.3,1.2,0.3,1.9c0,0.1,0,0.2,0,0.3c0,0.1,0,0.2,0,0.3c0,0.1,0,0.2,0,0.3c0,0.1,0,0.2-0.1,0.3c-0.1,0.4-0.3,0.8-0.5,1.2
				c-0.2,0.4-0.5,0.7-0.8,1.1c-0.3,0.3-0.7,0.6-1.2,0.8c-0.5,0.2-1,0.3-1.6,0.3c-0.6,0-1.2-0.1-1.7-0.3c-0.5-0.2-0.9-0.5-1.3-1
				c-0.3-0.4-0.6-0.9-0.8-1.5c-0.2-0.6-0.3-1.2-0.3-1.9v-7.7h-2.6v7.5c0,1,0.1,1.8,0.4,2.7c0.3,0.8,0.7,1.6,1.2,2.4
				c0.5,0.7,1.2,1.3,2.1,1.6c0.8,0.4,1.8,0.5,2.9,0.5c1.1,0,2.1-0.2,3-0.5c0.9-0.4,1.6-0.9,2.1-1.7c0.6-0.8,1-1.5,1.3-2.4
				c0.3-0.8,0.4-1.7,0.4-2.6C194.8,65.9,194.6,65,194.3,64.2z"/>
		</g>
	</g>
	<g id="XMLID_2323_">
		<path id="XMLID_2357_" class="st1" d="M150.4,83.4v0.4h-4.7v-6.9h4.6v0.4h-4.2V80h4v0.4h-4v3H150.4z"/>
		<path id="XMLID_2355_" class="st1" d="M151.2,82.1c0,0.5,0.2,0.8,0.5,1.1c0.3,0.3,0.7,0.4,1.1,0.4c0.2,0,0.3,0,0.5-0.1
			c0.2,0,0.4-0.1,0.5-0.2c0.2-0.1,0.3-0.2,0.4-0.3c0.1-0.1,0.2-0.3,0.2-0.5c0-0.2,0-0.4-0.1-0.5c-0.1-0.1-0.2-0.2-0.4-0.3
			c-0.2-0.1-0.3-0.1-0.5-0.2c-0.2,0-0.4-0.1-0.6-0.1c-0.2,0-0.4-0.1-0.6-0.2c-0.2-0.1-0.4-0.1-0.6-0.2c-0.2-0.1-0.3-0.2-0.4-0.4
			c-0.1-0.2-0.2-0.4-0.2-0.6c0-0.3,0.1-0.5,0.2-0.6c0.1-0.2,0.2-0.3,0.4-0.4c0.4-0.2,0.8-0.3,1.2-0.3c0.5,0,1,0.1,1.3,0.4
			c0.3,0.2,0.5,0.7,0.5,1.2h-0.4c0-0.5-0.1-0.8-0.4-1c-0.3-0.2-0.6-0.3-1.1-0.3c-0.4,0-0.7,0.1-1,0.2c-0.1,0.1-0.2,0.2-0.3,0.3
			c-0.1,0.1-0.1,0.3-0.1,0.5c0,0.2,0.1,0.4,0.2,0.5c0.1,0.1,0.2,0.2,0.4,0.3c0.1,0,0.2,0.1,0.3,0.1c0.1,0,0.2,0.1,0.3,0.1
			c0.1,0,0.2,0,0.3,0.1c0.1,0,0.2,0.1,0.3,0.1c0.5,0.1,0.9,0.2,1.3,0.4c0.2,0.1,0.3,0.2,0.4,0.4c0.1,0.2,0.1,0.4,0.1,0.6
			c0,0.3-0.1,0.5-0.2,0.6c-0.1,0.2-0.3,0.3-0.5,0.4c-0.2,0.1-0.4,0.2-0.6,0.2c-0.2,0-0.5,0.1-0.7,0.1c-0.6,0-1-0.2-1.4-0.5
			c-0.4-0.3-0.6-0.7-0.6-1.3H151.2z"/>
		<path id="XMLID_2353_" class="st1" d="M157.5,79.1h-1.1v3.5c0,0.4,0.1,0.6,0.3,0.7c0.2,0.1,0.4,0.1,0.8,0.1v0.3
			c-0.2,0-0.4,0-0.5,0c-0.2,0-0.3-0.1-0.5-0.1c-0.1-0.1-0.2-0.2-0.3-0.4c-0.1-0.2-0.1-0.4-0.1-0.7v-3.5h-0.9v-0.3h0.9v-1.5h0.4v1.5
			h1.1V79.1z"/>
		<path id="XMLID_2351_" class="st1" d="M162.1,83.8h-0.4v-1.1h0c-0.1,0.4-0.4,0.7-0.7,0.9c-0.3,0.2-0.7,0.3-1.1,0.3
			c-0.4,0-0.8-0.1-1-0.2c-0.2-0.1-0.4-0.3-0.5-0.5c-0.1-0.2-0.2-0.4-0.2-0.7c0-0.2,0-0.4,0-0.6v-3.1h0.4V82c0,0.1,0,0.3,0,0.5
			c0,0.2,0.1,0.4,0.2,0.5c0.1,0.2,0.2,0.3,0.4,0.4c0.2,0.1,0.4,0.2,0.8,0.2c0.6,0,1-0.2,1.3-0.6c0.3-0.4,0.5-0.9,0.5-1.5v-2.7h0.4
			V83.8z"/>
		<path id="XMLID_2348_" class="st1" d="M167,82.7L167,82.7c-0.4,0.8-1,1.2-1.9,1.2c-0.7,0-1.3-0.3-1.6-0.8
			c-0.4-0.5-0.5-1.1-0.5-1.8c0-0.8,0.2-1.4,0.5-1.9c0.4-0.5,0.9-0.7,1.7-0.7c0.4,0,0.8,0.1,1.1,0.3c0.2,0.1,0.3,0.2,0.4,0.4
			c0.1,0.2,0.2,0.3,0.3,0.5h0v-3h0.4v6.9H167V82.7z M166.6,82.9c0.3-0.4,0.4-1,0.4-1.6c0-0.6-0.1-1.1-0.4-1.6
			c-0.3-0.5-0.8-0.7-1.4-0.7c-0.6,0-1.1,0.2-1.4,0.7c-0.3,0.4-0.4,1-0.4,1.6c0,0.6,0.2,1.1,0.5,1.6c0.3,0.5,0.8,0.7,1.4,0.7
			C165.8,83.6,166.3,83.3,166.6,82.9z"/>
		<path id="XMLID_2345_" class="st1" d="M168.7,77.9v-1h0.4v1H168.7z M168.7,83.8v-5h0.4v5H168.7z"/>
		<path id="XMLID_2342_" class="st1" d="M170.6,79.5c0.4-0.5,1-0.8,1.7-0.8c0.7,0,1.3,0.3,1.7,0.8c0.4,0.5,0.6,1.1,0.6,1.8
			c0,0.7-0.2,1.3-0.6,1.8c-0.4,0.5-1,0.8-1.7,0.8c-0.7,0-1.3-0.3-1.7-0.8c-0.4-0.5-0.6-1.1-0.6-1.8C170,80.6,170.2,80,170.6,79.5z
			 M170.8,82.9c0.3,0.5,0.8,0.7,1.4,0.7c0.6,0,1.1-0.2,1.4-0.7c0.3-0.4,0.5-1,0.5-1.6c0-0.6-0.2-1.2-0.5-1.6
			c-0.3-0.4-0.8-0.7-1.4-0.7c-0.6,0-1.1,0.2-1.4,0.7c-0.3,0.4-0.5,1-0.5,1.6C170.3,81.9,170.5,82.4,170.8,82.9z"/>
		<path id="XMLID_2340_" class="st1" d="M184.1,80.4v3.4h-0.4v-1.5h0c-0.2,0.5-0.5,0.9-1,1.2c-0.5,0.3-1,0.4-1.6,0.4
			c-0.5,0-1-0.1-1.4-0.3c-0.4-0.2-0.7-0.4-1-0.8c-0.6-0.7-0.8-1.5-0.8-2.5c0-1,0.3-1.9,0.9-2.6c0.6-0.7,1.4-1.1,2.4-1.1
			c0.7,0,1.4,0.2,1.9,0.6c0.5,0.4,0.9,1,1,1.7h-0.4c-0.3-1.3-1.2-1.9-2.5-1.9c-0.9,0-1.6,0.3-2.1,1c-0.5,0.6-0.7,1.4-0.7,2.3
			c0,0.9,0.2,1.7,0.7,2.3c0.5,0.6,1.2,0.9,2.1,0.9c0.8,0,1.5-0.3,2-0.8c0.5-0.5,0.7-1.2,0.7-2h-2.5v-0.4H184.1z"/>
		<path id="XMLID_2338_" class="st1" d="M185.6,79.9L185.6,79.9c0.1-0.3,0.4-0.6,0.7-0.8c0.3-0.2,0.8-0.3,1.2-0.3v0.4
			c-0.2,0-0.4,0-0.7,0c-0.2,0.1-0.5,0.2-0.7,0.4c-0.2,0.2-0.3,0.4-0.4,0.6c-0.1,0.2-0.1,0.5-0.2,0.9v2.7h-0.4v-5h0.4V79.9z"/>
		<path id="XMLID_2334_" class="st1" d="M191.6,82.9c0,0.2,0,0.3,0,0.4c0,0.1,0.1,0.2,0.3,0.2c0.1,0,0.2,0,0.3,0v0.3
			c-0.1,0-0.2,0-0.3,0c-0.3,0-0.5-0.1-0.5-0.2c-0.1-0.1-0.1-0.3-0.1-0.5v-0.3h0c-0.1,0.3-0.3,0.6-0.6,0.8c-0.3,0.2-0.7,0.3-1.2,0.3
			c-0.5,0-0.9-0.1-1.2-0.3c-0.3-0.2-0.5-0.6-0.5-1.1c0-0.3,0.1-0.5,0.2-0.7c0.1-0.2,0.3-0.3,0.4-0.4c0.2-0.1,0.4-0.2,0.6-0.2
			c0.1,0,0.2,0,0.3-0.1c0.1,0,0.2,0,0.3,0c0.8,0,1.3-0.1,1.5-0.3c0.1-0.1,0.2-0.2,0.2-0.3c0-0.1,0-0.3,0-0.5c0-0.1,0-0.1,0-0.3
			c0-0.1-0.1-0.2-0.2-0.3c-0.1-0.1-0.2-0.2-0.4-0.3c-0.2-0.1-0.4-0.1-0.7-0.1c-0.9,0-1.4,0.4-1.5,1.3H188c0.1-1.1,0.7-1.6,1.9-1.6
			c0.5,0,0.9,0.1,1.2,0.3c0.4,0.2,0.5,0.5,0.5,1V82.9z M190.9,81.1c-0.1,0-0.3,0.1-0.4,0.1c-0.3,0-0.7,0.1-1.1,0.1
			c-0.9,0.1-1.4,0.4-1.4,1.2c0,0.3,0.1,0.6,0.3,0.8c0.2,0.2,0.5,0.3,1,0.3c0.4,0,0.8-0.1,1-0.2c0.3-0.1,0.4-0.3,0.6-0.5
			c0.1-0.2,0.2-0.4,0.2-0.6c0-0.2,0-0.3,0-0.4V81C191.2,81,191.1,81.1,190.9,81.1z M190.5,76.7h0.5l-1.3,1.4h-0.4L190.5,76.7z"/>
		<path id="XMLID_2332_" class="st1" d="M192.2,79.1v-0.3h0.9v-1c0-0.3,0.1-0.6,0.3-0.8c0.2-0.2,0.5-0.2,0.8-0.2
			c0.1,0,0.3,0,0.4,0.1v0.3c-0.1,0-0.3,0-0.4,0c-0.2,0-0.4,0-0.5,0.1c-0.1,0.1-0.2,0.3-0.2,0.6v1h1v0.3h-1v4.7h-0.4v-4.7H192.2z"/>
		<path id="XMLID_2329_" class="st1" d="M195.2,77.9v-1h0.4v1H195.2z M195.2,83.8v-5h0.4v5H195.2z"/>
		<path id="XMLID_2327_" class="st1" d="M200.5,80.3c0-0.4-0.2-0.8-0.5-1c-0.3-0.2-0.7-0.3-1.2-0.3c-0.6,0-1.1,0.2-1.4,0.7
			c-0.3,0.4-0.5,1-0.5,1.5c0,0.7,0.2,1.2,0.5,1.7c0.3,0.4,0.8,0.7,1.4,0.7c0.5,0,0.9-0.2,1.2-0.4c0.3-0.3,0.5-0.6,0.6-1.1h0.4
			c-0.1,0.6-0.3,1.1-0.7,1.4c-0.4,0.3-0.9,0.5-1.4,0.5c-0.8,0-1.4-0.3-1.7-0.8c-0.4-0.5-0.5-1.1-0.5-1.8c0-0.7,0.2-1.3,0.6-1.8
			c0.4-0.5,1-0.7,1.7-0.8c0.6,0,1,0.1,1.4,0.4c0.4,0.3,0.6,0.7,0.7,1.3H200.5z"/>
		<path id="XMLID_2324_" class="st1" d="M202.1,79.5c0.4-0.5,1-0.8,1.7-0.8c0.7,0,1.3,0.3,1.7,0.8c0.4,0.5,0.6,1.1,0.6,1.8
			c0,0.7-0.2,1.3-0.6,1.8c-0.4,0.5-1,0.8-1.7,0.8c-0.7,0-1.3-0.3-1.7-0.8c-0.4-0.5-0.6-1.1-0.6-1.8C201.5,80.6,201.7,80,202.1,79.5z
			 M202.4,82.9c0.3,0.5,0.8,0.7,1.4,0.7c0.6,0,1.1-0.2,1.4-0.7c0.3-0.4,0.5-1,0.5-1.6c0-0.6-0.2-1.2-0.5-1.6
			c-0.3-0.4-0.8-0.7-1.4-0.7c-0.6,0-1.1,0.2-1.4,0.7c-0.3,0.4-0.5,1-0.5,1.6C201.9,81.9,202,82.4,202.4,82.9z"/>
	</g>
	<g id="XMLID_2313_">
		<path id="XMLID_2320_" class="st2" d="M122.5,53.4c0.2,2.9,0.7,10,0,13.2h5.4c-0.4-2.6-0.4-11.6,0-13.2H122.5z M122.5,53.4"/>
		<path id="XMLID_2317_" class="st2" d="M122.5,68.4c0.2,3.9,0.7,13.6,0,17.9h5.4c-0.4-3.6-0.4-15.7,0-17.9H122.5z M122.5,68.4"/>
		<path id="XMLID_2314_" class="st2" d="M122.8,67.5l-0.3-0.4c-3.8-0.7-7-2.5-9.1-3.9c0.4-0.6,1.1-1.8,1.1-3.3
			c0-2.1-1.1-6.1-1.1-6.1s-1.4,4-1.4,6.1c0,1.1,0.3,2.1,0.7,2.8c-1.1-0.8-1.7-1.4-1.8-1.4l0,0c-0.3-0.9-0.8-2.4-2-3.6
			c-1.8-1.8-6.5-4.3-6.5-4.3s2.5,4.7,4.3,6.6c1.5,1.5,3.5,2,4.2,2.1c0.7,0.6,2.2,1.8,4.2,3c-0.7-0.3-1.9-0.7-3.3-0.6
			c-2,0.2-5.9,2-5.9,2s4.2,0.8,6.2,0.5c2-0.2,3.4-1.6,3.5-1.7c1.9,1.1,4.3,2.1,7,2.5l0,0L122.8,67.5z M122.8,67.5"/>
	</g>
	<path id="XMLID_2312_" class="st1" d="M122.8,87.3h4.6c0.2,0,0.3,0.2,0.2,0.3l-2.3,3.5c-0.1,0.1-0.3,0.1-0.3,0l-2.3-3.5
		C122.6,87.5,122.7,87.3,122.8,87.3z"/>
	<path id="XMLID_2311_" class="st1" d="M122.5,52.2h5.4c0,0-0.2-3.2-2.7-3.2C125.2,48.9,122.6,48.9,122.5,52.2z"/>
	<g>
		<path class="st2" d="M150.7,89.8V87h0.9c0.2,0,0.4,0,0.6,0.1c0.2,0.1,0.3,0.2,0.4,0.3c0.1,0.1,0.2,0.3,0.2,0.4
			c0.1,0.2,0.1,0.4,0.1,0.5c0,0.2,0,0.4-0.1,0.6c-0.1,0.2-0.2,0.3-0.3,0.4c-0.1,0.1-0.3,0.2-0.4,0.3c-0.2,0.1-0.3,0.1-0.6,0.1H150.7
			z M152.8,88.4c0-0.2,0-0.3-0.1-0.5c-0.1-0.1-0.1-0.3-0.2-0.4s-0.2-0.2-0.4-0.3c-0.1-0.1-0.3-0.1-0.5-0.1h-0.7v2.4h0.7
			c0.2,0,0.3,0,0.5-0.1c0.1-0.1,0.3-0.1,0.4-0.3c0.1-0.1,0.2-0.2,0.2-0.4C152.8,88.8,152.8,88.6,152.8,88.4z"/>
		<path class="st2" d="M153.5,87.3V87h0.2v0.4H153.5z M153.5,89.8v-2.1h0.2v2.1H153.5z"/>
		<path class="st2" d="M155,89.9c-0.2,0-0.3,0-0.5-0.1c-0.1-0.1-0.3-0.1-0.4-0.2l0.1-0.1c0.1,0.1,0.2,0.2,0.3,0.2
			c0.1,0,0.2,0.1,0.4,0.1c0.2,0,0.3,0,0.4-0.1s0.2-0.2,0.2-0.3c0-0.1,0-0.1,0-0.2c0,0-0.1-0.1-0.1-0.1c-0.1,0-0.1-0.1-0.2-0.1
			c-0.1,0-0.2,0-0.3-0.1c-0.1,0-0.2-0.1-0.3-0.1c-0.1,0-0.2-0.1-0.2-0.1c-0.1,0-0.1-0.1-0.1-0.1c0-0.1,0-0.1,0-0.2
			c0-0.1,0-0.2,0.1-0.3c0-0.1,0.1-0.1,0.2-0.2c0.1,0,0.2-0.1,0.2-0.1c0.1,0,0.2,0,0.3,0c0.2,0,0.3,0,0.4,0.1
			c0.1,0.1,0.2,0.1,0.3,0.2l-0.1,0.1c-0.1-0.1-0.2-0.1-0.3-0.2c-0.1,0-0.2-0.1-0.3-0.1c-0.1,0-0.1,0-0.2,0c-0.1,0-0.1,0-0.2,0.1
			c0,0-0.1,0.1-0.1,0.1c0,0.1,0,0.1,0,0.2c0,0.1,0,0.1,0,0.1c0,0,0.1,0.1,0.1,0.1s0.1,0,0.2,0.1c0.1,0,0.2,0,0.2,0.1
			c0.1,0,0.2,0.1,0.3,0.1c0.1,0,0.2,0.1,0.3,0.1c0.1,0,0.1,0.1,0.2,0.2c0,0.1,0.1,0.1,0.1,0.2c0,0.2-0.1,0.3-0.2,0.4
			C155.4,89.8,155.2,89.9,155,89.9z"/>
		<path class="st2" d="M157.1,89.9c-0.1,0-0.3,0-0.4-0.1c-0.1-0.1-0.2-0.1-0.3-0.2c-0.1-0.1-0.2-0.2-0.2-0.3
			c-0.1-0.1-0.1-0.3-0.1-0.4c0-0.1,0-0.3,0.1-0.4c0.1-0.1,0.1-0.2,0.2-0.3c0.1-0.1,0.2-0.2,0.3-0.2s0.3-0.1,0.4-0.1
			c0.1,0,0.3,0,0.4,0.1c0.1,0.1,0.2,0.1,0.3,0.2c0.1,0.1,0.2,0.2,0.2,0.3c0,0.1,0.1,0.3,0.1,0.4c0,0,0,0,0,0c0,0,0,0,0,0h-1.8
			c0,0.1,0,0.2,0.1,0.3c0,0.1,0.1,0.2,0.2,0.3c0.1,0.1,0.2,0.1,0.3,0.2c0.1,0,0.2,0.1,0.3,0.1c0.1,0,0.1,0,0.2,0
			c0.1,0,0.1,0,0.2-0.1c0.1,0,0.1-0.1,0.2-0.1s0.1-0.1,0.1-0.2l0.2,0c0,0.1-0.1,0.1-0.1,0.2c-0.1,0.1-0.1,0.1-0.2,0.2
			c-0.1,0-0.2,0.1-0.2,0.1C157.3,89.9,157.2,89.9,157.1,89.9z M157.9,88.7c0-0.1,0-0.2-0.1-0.3s-0.1-0.2-0.2-0.3
			c-0.1-0.1-0.2-0.1-0.3-0.2c-0.1,0-0.2-0.1-0.3-0.1s-0.2,0-0.3,0.1c-0.1,0-0.2,0.1-0.3,0.2c-0.1,0.1-0.1,0.2-0.2,0.3
			c0,0.1-0.1,0.2-0.1,0.3H157.9z"/>
		<path class="st2" d="M160.2,89.8H160v-1.1c0-0.3,0-0.5-0.1-0.6c-0.1-0.1-0.2-0.2-0.4-0.2c-0.1,0-0.2,0-0.3,0
			c-0.1,0-0.2,0.1-0.2,0.1c-0.1,0.1-0.1,0.1-0.2,0.2c-0.1,0.1-0.1,0.2-0.1,0.3v1.3h-0.2v-2.1h0.2v0.5c0-0.1,0.1-0.2,0.2-0.2
			c0.1-0.1,0.1-0.1,0.2-0.2c0.1,0,0.2-0.1,0.2-0.1c0.1,0,0.2,0,0.3,0c0.2,0,0.4,0.1,0.5,0.2c0.1,0.2,0.1,0.4,0.1,0.7V89.8z
			 M159.6,87.3c-0.1,0-0.1,0-0.2,0c0,0-0.1,0-0.1-0.1c0,0-0.1,0-0.1-0.1c0,0-0.1,0-0.1,0c0,0-0.1,0-0.1,0c0,0,0,0-0.1,0.1
			c0,0,0,0,0,0.1c0,0,0,0,0,0h-0.1c0,0,0,0,0-0.1c0,0,0-0.1,0-0.1c0,0,0.1-0.1,0.1-0.1c0,0,0.1,0,0.2,0c0.1,0,0.1,0,0.1,0
			s0.1,0,0.1,0.1c0,0,0.1,0,0.1,0.1s0.1,0,0.1,0c0.1,0,0.1,0,0.1,0c0,0,0.1,0,0.1-0.1c0,0,0,0,0-0.1c0,0,0,0,0,0h0.1c0,0,0,0,0,0.1
			c0,0,0,0.1-0.1,0.1c0,0-0.1,0.1-0.1,0.1C159.7,87.3,159.7,87.3,159.6,87.3z"/>
		<path class="st2" d="M161.6,89.9c-0.1,0-0.3,0-0.4-0.1c-0.1-0.1-0.2-0.1-0.3-0.2s-0.2-0.2-0.2-0.3c-0.1-0.1-0.1-0.3-0.1-0.4
			c0-0.1,0-0.3,0.1-0.4c0.1-0.1,0.1-0.2,0.2-0.3s0.2-0.2,0.3-0.2c0.1-0.1,0.3-0.1,0.4-0.1s0.3,0,0.4,0.1c0.1,0.1,0.2,0.1,0.3,0.2
			s0.2,0.2,0.2,0.3c0.1,0.1,0.1,0.3,0.1,0.4c0,0.1,0,0.3-0.1,0.4c-0.1,0.1-0.1,0.2-0.2,0.3c-0.1,0.1-0.2,0.2-0.3,0.2
			C161.9,89.9,161.8,89.9,161.6,89.9z M160.8,88.8c0,0.1,0,0.2,0.1,0.3c0,0.1,0.1,0.2,0.2,0.3c0.1,0.1,0.2,0.1,0.3,0.2
			c0.1,0,0.2,0.1,0.3,0.1s0.2,0,0.3-0.1c0.1,0,0.2-0.1,0.3-0.2c0.1-0.1,0.1-0.2,0.2-0.3c0-0.1,0.1-0.2,0.1-0.3c0-0.1,0-0.2-0.1-0.3
			c0-0.1-0.1-0.2-0.2-0.3c-0.1-0.1-0.2-0.1-0.3-0.2c-0.1,0-0.2-0.1-0.3-0.1c-0.1,0-0.2,0-0.3,0.1c-0.1,0-0.2,0.1-0.3,0.2
			c-0.1,0.1-0.1,0.2-0.2,0.3C160.9,88.6,160.8,88.7,160.8,88.8z"/>
		<path class="st2" d="M166.3,89.4c-0.3,0.3-0.6,0.5-0.9,0.5c-0.2,0-0.4,0-0.5-0.1c-0.2-0.1-0.3-0.2-0.4-0.3
			c-0.1-0.1-0.2-0.3-0.3-0.5c-0.1-0.2-0.1-0.3-0.1-0.5c0-0.2,0-0.4,0.1-0.5c0.1-0.2,0.2-0.3,0.3-0.5c0.1-0.1,0.3-0.2,0.4-0.3
			c0.2-0.1,0.3-0.1,0.5-0.1c0.1,0,0.3,0,0.4,0c0.1,0,0.2,0.1,0.3,0.1s0.2,0.1,0.2,0.2c0.1,0.1,0.1,0.2,0.2,0.2l-0.2,0.1
			c-0.1-0.2-0.2-0.3-0.4-0.4c-0.2-0.1-0.3-0.1-0.5-0.1c-0.2,0-0.3,0-0.5,0.1c-0.1,0.1-0.2,0.2-0.3,0.3c-0.1,0.1-0.2,0.2-0.2,0.4
			c-0.1,0.1-0.1,0.3-0.1,0.5c0,0.2,0,0.3,0.1,0.5c0.1,0.1,0.1,0.3,0.2,0.4c0.1,0.1,0.2,0.2,0.4,0.3c0.1,0.1,0.3,0.1,0.4,0.1
			c0.2,0,0.3,0,0.5-0.1c0.2-0.1,0.3-0.2,0.4-0.4v-0.5h-0.6v-0.2h0.8v1.4h-0.2V89.4z"/>
		<path class="st2" d="M168,88c-0.2,0-0.3,0.1-0.5,0.2s-0.2,0.2-0.3,0.4v1.3H167v-2.1h0.2v0.5c0.1-0.1,0.2-0.3,0.3-0.4
			c0.1-0.1,0.2-0.1,0.4-0.2c0,0,0.1,0,0.1,0c0,0,0,0,0.1,0V88z"/>
		<path class="st2" d="M168.8,89.9c-0.1,0-0.2,0-0.3,0c-0.1,0-0.2-0.1-0.2-0.1c-0.1-0.1-0.1-0.1-0.1-0.2c0-0.1-0.1-0.2-0.1-0.3
			c0-0.1,0-0.2,0.1-0.2s0.1-0.1,0.2-0.2c0.1-0.1,0.2-0.1,0.3-0.1c0.1,0,0.2,0,0.3,0c0.1,0,0.2,0,0.3,0c0.1,0,0.2,0,0.3,0.1v-0.2
			c0-0.2-0.1-0.3-0.2-0.5c-0.1-0.1-0.3-0.2-0.5-0.2c-0.1,0-0.2,0-0.3,0.1c-0.1,0-0.2,0.1-0.3,0.2l-0.1-0.1c0.3-0.2,0.5-0.3,0.8-0.3
			c0.2,0,0.4,0.1,0.6,0.2c0.1,0.1,0.2,0.3,0.2,0.6v1c0,0.1,0,0.1,0.1,0.1v0.2c0,0,0,0,0,0c0,0,0,0,0,0c-0.1,0-0.1,0-0.1-0.1
			c0,0-0.1-0.1-0.1-0.1v-0.2c-0.1,0.1-0.2,0.2-0.4,0.3C169.1,89.8,169,89.9,168.8,89.9z M168.8,89.7c0.2,0,0.3,0,0.4-0.1
			c0.1-0.1,0.2-0.1,0.3-0.2c0-0.1,0.1-0.1,0.1-0.2v-0.4c-0.1,0-0.2-0.1-0.3-0.1c-0.1,0-0.2,0-0.3,0c-0.1,0-0.2,0-0.3,0
			c-0.1,0-0.2,0.1-0.2,0.1c-0.1,0-0.1,0.1-0.1,0.1c0,0.1,0,0.1,0,0.2c0,0.1,0,0.1,0,0.2c0,0.1,0.1,0.1,0.1,0.2c0,0,0.1,0.1,0.2,0.1
			C168.7,89.7,168.8,89.7,168.8,89.7z M169,87.4l-0.1-0.1l0.2-0.3h0.2L169,87.4z"/>
		<path class="st2" d="M170.5,87.9h-0.3v-0.2h0.3v-0.1c0-0.1,0-0.2,0-0.3c0-0.1,0.1-0.2,0.1-0.3c0.1-0.1,0.1-0.1,0.2-0.2
			s0.2-0.1,0.3-0.1c0.1,0,0.1,0,0.2,0c0.1,0,0.1,0,0.2,0c0,0,0.1,0,0.1,0.1c0,0,0.1,0,0.1,0l-0.1,0.1c0,0-0.1-0.1-0.2-0.1
			c-0.1,0-0.2,0-0.3,0c-0.1,0-0.2,0-0.2,0.1c-0.1,0-0.1,0.1-0.2,0.1c0,0.1-0.1,0.1-0.1,0.2c0,0.1,0,0.1,0,0.2v0.1h1v2.1h-0.2v-1.9
			h-0.8v1.9h-0.2V87.9z"/>
		<path class="st2" d="M172.2,88.8c0-0.1,0-0.3,0.1-0.4c0-0.1,0.1-0.2,0.2-0.3c0.1-0.1,0.2-0.2,0.3-0.2s0.3-0.1,0.4-0.1
			c0.2,0,0.4,0,0.5,0.1c0.1,0.1,0.2,0.2,0.3,0.4l-0.2,0.1c-0.1-0.1-0.1-0.2-0.3-0.3c-0.1-0.1-0.2-0.1-0.4-0.1c-0.1,0-0.2,0-0.3,0.1
			c-0.1,0-0.2,0.1-0.3,0.2c-0.1,0.1-0.1,0.2-0.2,0.3c0,0.1-0.1,0.2-0.1,0.3c0,0.1,0,0.2,0.1,0.3c0,0.1,0.1,0.2,0.2,0.3
			c0.1,0.1,0.2,0.1,0.3,0.2c0.1,0,0.2,0.1,0.3,0.1c0.1,0,0.1,0,0.2,0c0.1,0,0.1,0,0.2-0.1c0.1,0,0.1-0.1,0.2-0.1
			c0,0,0.1-0.1,0.1-0.1l0.2,0.1c0,0.1-0.1,0.1-0.1,0.2c-0.1,0.1-0.1,0.1-0.2,0.2c-0.1,0-0.2,0.1-0.2,0.1c-0.1,0-0.2,0-0.3,0
			c-0.1,0-0.3,0-0.4-0.1c-0.1-0.1-0.2-0.1-0.3-0.2s-0.2-0.2-0.2-0.3C172.2,89.1,172.2,89,172.2,88.8z"/>
		<path class="st2" d="M175.3,89.9c-0.1,0-0.3,0-0.4-0.1c-0.1-0.1-0.2-0.1-0.3-0.2c-0.1-0.1-0.2-0.2-0.2-0.3
			c-0.1-0.1-0.1-0.3-0.1-0.4c0-0.1,0-0.3,0.1-0.4c0.1-0.1,0.1-0.2,0.2-0.3s0.2-0.2,0.3-0.2c0.1-0.1,0.3-0.1,0.4-0.1s0.3,0,0.4,0.1
			c0.1,0.1,0.2,0.1,0.3,0.2c0.1,0.1,0.2,0.2,0.2,0.3c0.1,0.1,0.1,0.3,0.1,0.4c0,0.1,0,0.3-0.1,0.4c-0.1,0.1-0.1,0.2-0.2,0.3
			c-0.1,0.1-0.2,0.2-0.3,0.2C175.6,89.9,175.5,89.9,175.3,89.9z M174.5,88.8c0,0.1,0,0.2,0.1,0.3c0,0.1,0.1,0.2,0.2,0.3
			c0.1,0.1,0.2,0.1,0.3,0.2c0.1,0,0.2,0.1,0.3,0.1s0.2,0,0.3-0.1c0.1,0,0.2-0.1,0.3-0.2c0.1-0.1,0.1-0.2,0.2-0.3
			c0-0.1,0.1-0.2,0.1-0.3c0-0.1,0-0.2-0.1-0.3c0-0.1-0.1-0.2-0.2-0.3c-0.1-0.1-0.2-0.1-0.3-0.2c-0.1,0-0.2-0.1-0.3-0.1
			c-0.1,0-0.2,0-0.3,0.1c-0.1,0-0.2,0.1-0.3,0.2c-0.1,0.1-0.1,0.2-0.2,0.3C174.5,88.6,174.5,88.7,174.5,88.8z"/>
		<path class="st2" d="M177.9,90.4v-3.6h0.2v3.6H177.9z"/>
		<path class="st2" d="M179.8,89.8V87h0.9c0.2,0,0.4,0,0.6,0.1c0.2,0.1,0.3,0.2,0.4,0.3c0.1,0.1,0.2,0.3,0.2,0.4
			c0.1,0.2,0.1,0.4,0.1,0.5c0,0.2,0,0.4-0.1,0.6c-0.1,0.2-0.2,0.3-0.3,0.4c-0.1,0.1-0.3,0.2-0.4,0.3c-0.2,0.1-0.3,0.1-0.6,0.1H179.8
			z M181.8,88.4c0-0.2,0-0.3-0.1-0.5c-0.1-0.1-0.1-0.3-0.2-0.4s-0.2-0.2-0.4-0.3c-0.1-0.1-0.3-0.1-0.5-0.1H180v2.4h0.7
			c0.2,0,0.3,0,0.5-0.1s0.3-0.1,0.4-0.3c0.1-0.1,0.2-0.2,0.2-0.4C181.8,88.8,181.8,88.6,181.8,88.4z"/>
		<path class="st2" d="M182.5,87.3V87h0.2v0.4H182.5z M182.5,89.8v-2.1h0.2v2.1H182.5z"/>
		<path class="st2" d="M184,89.9c-0.2,0-0.3,0-0.5-0.1c-0.1-0.1-0.3-0.1-0.4-0.2l0.1-0.1c0.1,0.1,0.2,0.2,0.3,0.2
			c0.1,0,0.2,0.1,0.4,0.1c0.2,0,0.3,0,0.4-0.1c0.1-0.1,0.2-0.2,0.2-0.3c0-0.1,0-0.1,0-0.2c0,0-0.1-0.1-0.1-0.1
			c-0.1,0-0.1-0.1-0.2-0.1c-0.1,0-0.2,0-0.3-0.1c-0.1,0-0.2-0.1-0.3-0.1c-0.1,0-0.2-0.1-0.2-0.1c-0.1,0-0.1-0.1-0.1-0.1
			c0-0.1,0-0.1,0-0.2c0-0.1,0-0.2,0.1-0.3c0-0.1,0.1-0.1,0.2-0.2c0.1,0,0.2-0.1,0.2-0.1c0.1,0,0.2,0,0.3,0c0.2,0,0.3,0,0.4,0.1
			c0.1,0.1,0.2,0.1,0.3,0.2l-0.1,0.1c-0.1-0.1-0.2-0.1-0.3-0.2c-0.1,0-0.2-0.1-0.3-0.1c-0.1,0-0.1,0-0.2,0c-0.1,0-0.1,0-0.2,0.1
			c0,0-0.1,0.1-0.1,0.1c0,0.1,0,0.1,0,0.2c0,0.1,0,0.1,0,0.1c0,0,0.1,0.1,0.1,0.1s0.1,0,0.2,0.1c0.1,0,0.2,0,0.2,0.1
			c0.1,0,0.2,0.1,0.3,0.1c0.1,0,0.2,0.1,0.3,0.1c0.1,0,0.1,0.1,0.2,0.2c0,0.1,0.1,0.1,0.1,0.2c0,0.2-0.1,0.3-0.2,0.4
			C184.4,89.8,184.2,89.9,184,89.9z"/>
		<path class="st2" d="M186.1,89.9c-0.1,0-0.3,0-0.4-0.1c-0.1-0.1-0.2-0.1-0.3-0.2c-0.1-0.1-0.2-0.2-0.2-0.3
			c-0.1-0.1-0.1-0.3-0.1-0.4c0-0.1,0-0.3,0.1-0.4c0.1-0.1,0.1-0.2,0.2-0.3c0.1-0.1,0.2-0.2,0.3-0.2s0.3-0.1,0.4-0.1
			c0.1,0,0.3,0,0.4,0.1c0.1,0.1,0.2,0.1,0.3,0.2c0.1,0.1,0.2,0.2,0.2,0.3c0,0.1,0.1,0.3,0.1,0.4c0,0,0,0,0,0c0,0,0,0,0,0h-1.8
			c0,0.1,0,0.2,0.1,0.3c0,0.1,0.1,0.2,0.2,0.3c0.1,0.1,0.2,0.1,0.3,0.2c0.1,0,0.2,0.1,0.3,0.1c0.1,0,0.1,0,0.2,0
			c0.1,0,0.1,0,0.2-0.1c0.1,0,0.1-0.1,0.2-0.1s0.1-0.1,0.1-0.2l0.2,0c0,0.1-0.1,0.1-0.1,0.2c-0.1,0.1-0.1,0.1-0.2,0.2
			c-0.1,0-0.2,0.1-0.2,0.1C186.3,89.9,186.2,89.9,186.1,89.9z M186.9,88.7c0-0.1,0-0.2-0.1-0.3s-0.1-0.2-0.2-0.3
			c-0.1-0.1-0.2-0.1-0.3-0.2c-0.1,0-0.2-0.1-0.3-0.1s-0.2,0-0.3,0.1c-0.1,0-0.2,0.1-0.3,0.2c-0.1,0.1-0.1,0.2-0.2,0.3
			c0,0.1-0.1,0.2-0.1,0.3H186.9z"/>
		<path class="st2" d="M189.2,89.8H189v-1.1c0-0.3,0-0.5-0.1-0.6c-0.1-0.1-0.2-0.2-0.4-0.2c-0.1,0-0.2,0-0.3,0
			c-0.1,0-0.2,0.1-0.2,0.1c-0.1,0.1-0.1,0.1-0.2,0.2c-0.1,0.1-0.1,0.2-0.1,0.3v1.3h-0.2v-2.1h0.2v0.5c0-0.1,0.1-0.2,0.2-0.2
			c0.1-0.1,0.1-0.1,0.2-0.2c0.1,0,0.2-0.1,0.2-0.1c0.1,0,0.2,0,0.3,0c0.2,0,0.4,0.1,0.5,0.2c0.1,0.2,0.1,0.4,0.1,0.7V89.8z
			 M188.6,87.3c-0.1,0-0.1,0-0.2,0c0,0-0.1,0-0.1-0.1c0,0-0.1,0-0.1-0.1c0,0-0.1,0-0.1,0c0,0-0.1,0-0.1,0c0,0,0,0-0.1,0.1
			c0,0,0,0,0,0.1c0,0,0,0,0,0h-0.1c0,0,0,0,0-0.1c0,0,0-0.1,0-0.1c0,0,0.1-0.1,0.1-0.1c0,0,0.1,0,0.2,0c0.1,0,0.1,0,0.1,0
			c0,0,0.1,0,0.1,0.1c0,0,0.1,0,0.1,0.1s0.1,0,0.1,0c0.1,0,0.1,0,0.1,0c0,0,0.1,0,0.1-0.1c0,0,0,0,0-0.1c0,0,0,0,0,0h0.1
			c0,0,0,0,0,0.1c0,0,0,0.1-0.1,0.1c0,0-0.1,0.1-0.1,0.1C188.8,87.3,188.7,87.3,188.6,87.3z"/>
		<path class="st2" d="M190.7,89.9c-0.1,0-0.3,0-0.4-0.1c-0.1-0.1-0.2-0.1-0.3-0.2c-0.1-0.1-0.2-0.2-0.2-0.3
			c-0.1-0.1-0.1-0.3-0.1-0.4c0-0.1,0-0.3,0.1-0.4c0.1-0.1,0.1-0.2,0.2-0.3c0.1-0.1,0.2-0.2,0.3-0.2c0.1-0.1,0.3-0.1,0.4-0.1
			s0.3,0,0.4,0.1c0.1,0.1,0.2,0.1,0.3,0.2c0.1,0.1,0.2,0.2,0.2,0.3c0.1,0.1,0.1,0.3,0.1,0.4c0,0.1,0,0.3-0.1,0.4
			c-0.1,0.1-0.1,0.2-0.2,0.3c-0.1,0.1-0.2,0.2-0.3,0.2C191,89.9,190.8,89.9,190.7,89.9z M189.9,88.8c0,0.1,0,0.2,0.1,0.3
			c0,0.1,0.1,0.2,0.2,0.3c0.1,0.1,0.2,0.1,0.3,0.2c0.1,0,0.2,0.1,0.3,0.1s0.2,0,0.3-0.1c0.1,0,0.2-0.1,0.3-0.2
			c0.1-0.1,0.1-0.2,0.2-0.3c0-0.1,0.1-0.2,0.1-0.3c0-0.1,0-0.2-0.1-0.3c0-0.1-0.1-0.2-0.2-0.3c-0.1-0.1-0.2-0.1-0.3-0.2
			c-0.1,0-0.2-0.1-0.3-0.1c-0.1,0-0.2,0-0.3,0.1c-0.1,0-0.2,0.1-0.3,0.2c-0.1,0.1-0.1,0.2-0.2,0.3C189.9,88.6,189.9,88.7,189.9,88.8
			z"/>
		<path class="st2" d="M194.2,87.1h0.2l0.4,1l0.4-1h0.2l-0.5,1.2l0.6,1.4l1.1-2.6h0.2l-1.2,2.8h-0.2l-0.6-1.4l-0.6,1.4H194l-1.2-2.8
			h0.2l1.1,2.6l0.6-1.4L194.2,87.1z"/>
		<path class="st2" d="M197.8,89.9c-0.1,0-0.3,0-0.4-0.1c-0.1-0.1-0.2-0.1-0.3-0.2c-0.1-0.1-0.2-0.2-0.2-0.3
			c-0.1-0.1-0.1-0.3-0.1-0.4c0-0.1,0-0.3,0.1-0.4c0.1-0.1,0.1-0.2,0.2-0.3c0.1-0.1,0.2-0.2,0.3-0.2s0.3-0.1,0.4-0.1
			c0.1,0,0.3,0,0.4,0.1c0.1,0.1,0.2,0.1,0.3,0.2c0.1,0.1,0.2,0.2,0.2,0.3c0,0.1,0.1,0.3,0.1,0.4c0,0,0,0,0,0c0,0,0,0,0,0H197
			c0,0.1,0,0.2,0.1,0.3c0,0.1,0.1,0.2,0.2,0.3c0.1,0.1,0.2,0.1,0.3,0.2c0.1,0,0.2,0.1,0.3,0.1c0.1,0,0.1,0,0.2,0
			c0.1,0,0.1,0,0.2-0.1c0.1,0,0.1-0.1,0.2-0.1s0.1-0.1,0.1-0.2l0.2,0c0,0.1-0.1,0.1-0.1,0.2c-0.1,0.1-0.1,0.1-0.2,0.2
			c-0.1,0-0.2,0.1-0.2,0.1C198,89.9,197.9,89.9,197.8,89.9z M198.6,88.7c0-0.1,0-0.2-0.1-0.3s-0.1-0.2-0.2-0.3
			c-0.1-0.1-0.2-0.1-0.3-0.2c-0.1,0-0.2-0.1-0.3-0.1s-0.2,0-0.3,0.1c-0.1,0-0.2,0.1-0.3,0.2c-0.1,0.1-0.1,0.2-0.2,0.3
			c0,0.1-0.1,0.2-0.1,0.3H198.6z"/>
		<path class="st2" d="M200.2,89.9c-0.2,0-0.3,0-0.5-0.1c-0.1-0.1-0.2-0.2-0.3-0.3v0.4h-0.2V87h0.2v1.3c0.1-0.1,0.2-0.3,0.3-0.3
			c0.1-0.1,0.3-0.1,0.5-0.1c0.1,0,0.3,0,0.4,0.1c0.1,0.1,0.2,0.1,0.3,0.2c0.1,0.1,0.1,0.2,0.2,0.3c0,0.1,0.1,0.3,0.1,0.4
			c0,0.1,0,0.3-0.1,0.4c0,0.1-0.1,0.2-0.2,0.3c-0.1,0.1-0.2,0.2-0.3,0.2C200.5,89.9,200.3,89.9,200.2,89.9z M200.2,89.7
			c0.1,0,0.2,0,0.3-0.1c0.1-0.1,0.2-0.1,0.3-0.2c0.1-0.1,0.1-0.2,0.2-0.3c0-0.1,0.1-0.2,0.1-0.3c0-0.1,0-0.2-0.1-0.3
			c0-0.1-0.1-0.2-0.2-0.3c-0.1-0.1-0.2-0.1-0.2-0.2c-0.1-0.1-0.2-0.1-0.3-0.1c-0.1,0-0.2,0-0.2,0s-0.1,0.1-0.2,0.1s-0.1,0.1-0.2,0.2
			c-0.1,0.1-0.1,0.1-0.1,0.2v0.7c0,0.1,0,0.1,0.1,0.2c0,0.1,0.1,0.1,0.2,0.2c0.1,0,0.1,0.1,0.2,0.1C200,89.7,200.1,89.7,200.2,89.7z
			"/>
	</g>
</g>
</svg>
