<?xml version="1.0" encoding="utf-8"?>
<!-- Generator: Adobe Illustrator 22.0.0, SVG Export Plug-In . SVG Version: 6.00 Build 0)  -->
<svg version="1.1" id="Capa_1" xmlns="http://www.w3.org/2000/svg" xmlns:xlink="http://www.w3.org/1999/xlink" x="0px" y="0px"
	 viewBox="0 0 1366 396.6" style="enable-background:new 0 0 1366 396.6;" xml:space="preserve">
<style type="text/css">
	.st0{clip-path:url(#SVGID_2_);fill:#FFFFFF;}
	.st1{clip-path:url(#SVGID_2_);}
	.st2{fill:#9BD745;}
	.st3{fill:#059CAE;}
	.st4{fill:#00304B;}
	.st5{fill:#002F4B;}
	.st6{opacity:0.5;clip-path:url(#SVGID_2_);}
	.st7{opacity:0.88;fill:#2B2F5B;}
</style>
<g>
	<defs>
		<rect id="SVGID_1_" y="0.2" width="1366" height="397.4"/>
	</defs>
	<clipPath id="SVGID_2_">
		<use xlink:href="#SVGID_1_"  style="overflow:visible;"/>
	</clipPath>
	<rect y="0.2" class="st0" width="1366" height="397.4"/>
	<g class="st1">
		<g>
			
				<rect x="54.2" y="174.6" transform="matrix(0.7071 0.7071 -0.7071 0.7071 273.7034 -42.8142)" class="st2" width="268.7" height="268.7"/>
			
				<rect x="216.4" y="51.8" transform="matrix(0.7071 0.7071 -0.7071 0.7071 167.1653 -165.6534)" class="st3" width="134.4" height="134.4"/>
			
				<rect x="297.4" y="-9.5" transform="matrix(0.7071 0.7071 -0.7071 0.7071 113.8465 -226.9537)" class="st4" width="66.9" height="66.9"/>
			
				<rect x="344.7" y="37.8" transform="matrix(0.7071 0.7071 -0.7071 0.7071 161.1833 -246.5613)" class="st2" width="66.9" height="66.9"/>
			
				<rect x="-34.6" y="228.2" transform="matrix(0.7071 -0.7071 0.7071 0.7071 -185.3469 75.8181)" class="st4" width="66.9" height="66.9"/>
			
				<rect x="12.7" y="180.8" transform="matrix(0.7071 -0.7071 0.7071 0.7071 -138.0125 95.4279)" class="st3" width="66.9" height="66.9"/>
			
				<rect x="440.1" y="133.1" transform="matrix(0.7071 0.7071 -0.7071 0.7071 256.4862 -286.0362)" class="st2" width="66.9" height="66.9"/>
			
				<rect x="453.9" y="222.1" transform="matrix(0.7071 0.7071 -0.7071 0.7071 309.6138 -264.035)" class="st3" width="39.2" height="39.2"/>
			
				<rect x="504" y="277.6" transform="matrix(0.7071 0.7071 -0.7071 0.7071 363.5501 -283.1733)" class="st2" width="39.2" height="39.2"/>
			
				<rect x="26.3" y="51.8" transform="matrix(0.7071 0.7071 -0.7071 0.7071 111.5087 -31.2873)" class="st4" width="134.4" height="134.4"/>
			
				<rect x="-68.7" y="-43.2" transform="matrix(0.7071 0.7071 -0.7071 0.7071 16.4977 8.0677)" class="st3" width="134.4" height="134.4"/>
			
				<rect x="-116" y="99.4" transform="matrix(0.7071 0.7071 -0.7071 0.7071 103.4981 83.3192)" class="st2" width="134.4" height="134.4"/>
			
				<rect x="65.7" y="-177.7" transform="matrix(0.7071 0.7071 -0.7071 0.7071 16.461 -149.3675)" class="st2" width="245.8" height="245.8"/>
			
				<rect x="529.6" y="144.9" transform="matrix(0.7071 0.7071 -0.7071 0.7071 279.2583 -341.0201)" class="st4" width="43.4" height="43.4"/>
			
				<rect x="590.4" y="144.9" transform="matrix(0.7071 0.7071 -0.7071 0.7071 297.0746 -384.015)" class="st3" width="43.4" height="43.4"/>
			
				<rect x="311.4" y="146.8" transform="matrix(0.7071 0.7071 -0.7071 0.7071 262.174 -205.0078)" class="st4" width="134.4" height="134.4"/>
			
				<rect x="-68.7" y="336.8" transform="matrix(0.7071 0.7071 -0.7071 0.7071 285.2295 119.3798)" class="st5" width="134.4" height="134.4"/>
			
				<rect x="26.3" y="431.8" transform="matrix(0.7071 0.7071 -0.7071 0.7071 380.2405 80.0249)" class="st3" width="134.4" height="134.4"/>
		</g>
		<image style="overflow:visible;" width="749" height="749" xlink:href="2DB94439.png"  transform="matrix(1 0 0 1 -176 -132)">
		</image>
		<image style="overflow:visible;" width="353" height="354" xlink:href="2DB9443B.png"  transform="matrix(1 0 0 1 184 22)">
		</image>
		
			<image style="overflow:visible;opacity:0.5;" width="193" height="193" xlink:href="2DB9443E.png"  transform="matrix(1 0 0 1 483 103)">
		</image>
		
			<image style="overflow:visible;opacity:0.5;" width="193" height="192" xlink:href="2DB9443F.png"  transform="matrix(1 0 0 1 238 295)">
		</image>
		
			<image style="overflow:visible;opacity:0.5;" width="193" height="192" xlink:href="2DB9443A.png"  transform="matrix(1 0 0 1 -24 70)">
		</image>
		
			<image style="overflow:visible;opacity:0.5;" width="119" height="120" xlink:href="2DB94435.png"  transform="matrix(1 0 0 1 447 265)">
		</image>
		
			<image style="overflow:visible;opacity:0.5;" width="119" height="120" xlink:href="2DB94436.png"  transform="matrix(1 0 0 1 424 88)">
		</image>
		
			<image style="overflow:visible;opacity:0.5;" width="220" height="219" xlink:href="2DB94437.png"  transform="matrix(1 0 0 1 154 124)">
		</image>
		
			<image style="overflow:visible;opacity:0.5;" width="219" height="220" xlink:href="2DB94449.png"  transform="matrix(1 0 0 1 -37 315)">
		</image>
	</g>
	<g class="st1">
		<g>
			<path class="st2" d="M189.3,538.6l-0.3-0.3L-24.7,324.6l0.3-0.3l213.8-213.8l0.3,0.3l213.8,213.8l-0.3,0.3L189.3,538.6z
				 M-23.5,324.6l212.9,212.9l212.9-212.9L189.3,111.7L-23.5,324.6z"/>
		</g>
		<g>
			<path class="st3" d="M296.1,218.4l-0.3-0.3l-107-107l0.3-0.3l107-107l0.3,0.3l107,107l-0.3,0.3L296.1,218.4z M190,111.1
				l106.1,106.1l106.1-106.1L296.1,5L190,111.1z"/>
		</g>
		<g>
			<path class="st4" d="M349.3,58.1l-0.3-0.3L295.5,4.4l0.3-0.3l53.5-53.5l0.3,0.3l53.5,53.5l-0.3,0.3L349.3,58.1z M296.7,4.4
				l52.6,52.6l52.6-52.6l-52.6-52.6L296.7,4.4z"/>
		</g>
		<g>
			<path class="st2" d="M402.4,111.3l-0.3-0.3l-53.5-53.5l0.3-0.3l53.5-53.5l0.3,0.3l53.5,53.5l-0.3,0.3L402.4,111.3z M349.9,57.5
				l52.6,52.6L455,57.5L402.4,5L349.9,57.5z"/>
		</g>
		<g>
			<path class="st4" d="M-23.7,325.2l-0.3-0.3l-53.5-53.5l0.3-0.3l53.5-53.5l0.3,0.3L30,271.4l-0.3,0.3L-23.7,325.2z M-76.3,271.4
				l52.6,52.6l52.6-52.6l-52.6-52.6L-76.3,271.4z"/>
		</g>
		<g>
			<path class="st3" d="M29.4,272l-0.3-0.3l-53.5-53.5l0.3-0.3l53.5-53.5l0.3,0.3l53.5,53.5l-0.3,0.3L29.4,272z M-23.1,218.2
				l52.6,52.6L82,218.2l-52.6-52.6L-23.1,218.2z"/>
		</g>
		<g>
			<path class="st2" d="M509.5,218.4l-0.3-0.3l-53.5-53.5l0.3-0.3l53.5-53.5l0.3,0.3l53.5,53.5l-0.3,0.3L509.5,218.4z M456.9,164.6
				l52.6,52.6l52.6-52.6L509.5,112L456.9,164.6z"/>
		</g>
		<g>
			<path class="st3" d="M509.5,280.8l-0.3-0.3L477.7,249l0.3-0.3l31.5-31.5l0.3,0.3l31.5,31.5l-0.3,0.3L509.5,280.8z M478.9,249
				l30.6,30.6l30.6-30.6l-30.6-30.6L478.9,249z"/>
		</g>
		<g>
			<path class="st2" d="M565.8,343.2l-0.3-0.3L534,311.4l0.3-0.3l31.5-31.5l0.3,0.3l31.5,31.5l-0.3,0.3L565.8,343.2z M535.2,311.4
				l30.6,30.6l30.6-30.6l-30.6-30.6L535.2,311.4z"/>
		</g>
		<g>
			<path class="st4" d="M82.6,218.4l-0.3-0.3l-107-107l0.3-0.3l107-107L82.9,4l107,107l-0.3,0.3L82.6,218.4z M-23.5,111.1
				L82.6,217.2l106.1-106.1L82.6,5L-23.5,111.1z"/>
		</g>
		<g>
			<path class="st3" d="M-24.1,111.7l-0.3-0.3l-107-107l0.3-0.3l107-107l0.3,0.3l107,107l-0.3,0.3L-24.1,111.7z M-130.3,4.4
				l106.1,106.1L82,4.4L-24.1-101.8L-130.3,4.4z"/>
		</g>
		<g>
			<path class="st2" d="M-77.3,272l-0.3-0.3l-107-107l0.3-0.3l107-107l0.3,0.3l107,107l-0.3,0.3L-77.3,272z M-183.4,164.6
				l106.1,106.1L28.8,164.6L-77.3,58.5L-183.4,164.6z"/>
		</g>
		<g>
			<path class="st2" d="M189.3,111.7l-0.3-0.3L-6.5-84.1l0.3-0.3L189.3-280l0.3,0.3L385.2-84.1l-0.3,0.3L189.3,111.7z M-5.3-84.1
				l194.6,194.6L384-84.1L189.3-278.7L-5.3-84.1z"/>
		</g>
		<g>
			<path class="st4" d="M596.9,199.7l-0.3-0.3l-34.8-34.8l0.3-0.3l34.8-34.8l0.3,0.3l34.8,34.8l-0.3,0.3L596.9,199.7z M563,164.6
				l33.9,33.9l33.9-33.9l-33.9-33.9L563,164.6z"/>
		</g>
		<g>
			<path class="st3" d="M665.2,199.7l-0.3-0.3l-34.8-34.8l0.3-0.3l34.8-34.8l0.3,0.3l34.8,34.8l-0.3,0.3L665.2,199.7z M631.3,164.6
				l33.9,33.9l33.9-33.9l-33.9-33.9L631.3,164.6z"/>
		</g>
		<g>
			<path class="st4" d="M402.8,325.2l-0.3-0.3l-107-107l0.3-0.3l107-107l0.3,0.3l107,107l-0.3,0.3L402.8,325.2z M296.7,217.8
				L402.8,324L509,217.8L402.8,111.7L296.7,217.8z"/>
		</g>
		<g>
			<path class="st4" d="M-24.1,538.6l-0.3-0.3l-107-107l0.3-0.3l107-107l0.3,0.3l107,107l-0.3,0.3L-24.1,538.6z M-130.3,431.3
				l106.1,106.1L82,431.3L-24.1,325.2L-130.3,431.3z"/>
		</g>
		<g>
			<path class="st3" d="M82.6,645.4l-0.3-0.3l-107-107l0.3-0.3l107-107l0.3,0.3l107,107l-0.3,0.3L82.6,645.4z M-23.5,538L82.6,644.2
				L188.7,538L82.6,431.9L-23.5,538z"/>
		</g>
	</g>
	<g class="st6">
		<g>
			<path class="st2" d="M1150.9,343.6l-0.3-0.3L936.8,129.5l0.3-0.3l213.8-213.8l0.3,0.3L1365,129.5l-0.3,0.3L1150.9,343.6z
				 M938,129.5l212.9,212.9l212.9-212.9L1150.9-83.3L938,129.5z"/>
		</g>
		<g>
			<path class="st3" d="M1044.1,450.4l-0.3-0.3l-107-107l0.3-0.3l107-107l0.3,0.3l107,107l-0.3,0.3L1044.1,450.4z M938,343
				l106.1,106.1L1150.3,343l-106.1-106.1L938,343z"/>
		</g>
		<g>
			<path class="st4" d="M991,503.5l-0.3-0.3l-53.5-53.5l0.3-0.3L991,396l0.3,0.3l53.5,53.5l-0.3,0.3L991,503.5z M938.4,449.7
				l52.6,52.6l52.6-52.6L991,397.2L938.4,449.7z"/>
		</g>
		<g>
			<path class="st2" d="M937.8,450.4l-0.3-0.3L884,396.6l0.3-0.3l53.5-53.5l0.3,0.3l53.5,53.5l-0.3,0.3L937.8,450.4z M885.2,396.6
				l52.6,52.6l52.6-52.6L937.8,344L885.2,396.6z"/>
		</g>
		<g>
			<path class="st4" d="M1364,236.5l-0.3-0.3l-53.5-53.5l0.3-0.3l53.5-53.5l0.3,0.3l53.5,53.5l-0.3,0.3L1364,236.5z M1311.4,182.7
				l52.6,52.6l52.6-52.6l-52.6-52.6L1311.4,182.7z"/>
		</g>
		<g>
			<path class="st3" d="M1310.8,289.7l-0.3-0.3l-53.5-53.5l0.3-0.3l53.5-53.5l0.3,0.3l53.5,53.5l-0.3,0.3L1310.8,289.7z
				 M1258.2,235.9l52.6,52.6l52.6-52.6l-52.6-52.6L1258.2,235.9z"/>
		</g>
		<g>
			<path class="st2" d="M830.7,343.3l-0.3-0.3l-53.5-53.5l0.3-0.3l53.5-53.5l0.3,0.3l53.5,53.5l-0.3,0.3L830.7,343.3z M778.1,289.5
				l52.6,52.6l52.6-52.6l-52.6-52.6L778.1,289.5z"/>
		</g>
		<g>
			<path class="st3" d="M830.7,236.9l-0.3-0.3l-31.5-31.5l0.3-0.3l31.5-31.5l0.3,0.3l31.5,31.5l-0.3,0.3L830.7,236.9z M800.1,205.1
				l30.6,30.6l30.6-30.6l-30.6-30.6L800.1,205.1z"/>
		</g>
		<g>
			<path class="st2" d="M675.2,334.3l-0.3-0.3l-31.5-31.5l0.3-0.3l31.5-31.5l0.3,0.3l31.5,31.5l-0.3,0.3L675.2,334.3z M644.6,302.6
				l30.6,30.6l30.6-30.6L675.2,272L644.6,302.6z"/>
		</g>
		<g>
			<path class="st4" d="M1257.6,450.4l-0.3-0.3l-107-107l0.3-0.3l107-107l0.3,0.3l107,107l-0.3,0.3L1257.6,450.4z M1151.5,343
				l106.1,106.1L1363.7,343l-106.1-106.1L1151.5,343z"/>
		</g>
		<g>
			<path class="st3" d="M1364.3,557.1l-0.3-0.3l-107-107l0.3-0.3l107-107l0.3,0.3l107,107l-0.3,0.3L1364.3,557.1z M1258.2,449.7
				l106.1,106.1l106.1-106.1l-106.1-106.1L1258.2,449.7z"/>
		</g>
		<g>
			<path class="st2" d="M1417.5,396.8l-0.3-0.3l-107-107l0.3-0.3l107-107l0.3,0.3l107,107l-0.3,0.3L1417.5,396.8z M1311.4,289.5
				l106.1,106.1l106.1-106.1l-106.1-106.1L1311.4,289.5z"/>
		</g>
		<g>
			<path class="st2" d="M1150.9,734.1l-0.3-0.3L955,538.2l0.3-0.3l195.5-195.5l0.3,0.3l195.5,195.5l-0.3,0.3L1150.9,734.1z
				 M956.3,538.2l194.6,194.6l194.6-194.6l-194.6-194.6L956.3,538.2z"/>
		</g>
		<g>
			<path class="st4" d="M917,82.7l-0.3-0.3l-34.8-34.8l0.3-0.3L917,12.5l0.3,0.3l34.8,34.8l-0.3,0.3L917,82.7z M883.1,47.6L917,81.5
				l33.9-33.9L917,13.7L883.1,47.6z"/>
		</g>
		<g>
			<path class="st3" d="M1139.3,194.1l-0.3-0.3l-34.8-34.8l0.3-0.3l34.8-34.8l0.3,0.3l34.8,34.8l-0.3,0.3L1139.3,194.1z M1105.4,159
				l33.9,33.9l33.9-33.9l-33.9-33.9L1105.4,159z"/>
		</g>
		<g>
			<path class="st4" d="M937.4,343.6l-0.3-0.3l-107-107l0.3-0.3l107-107l0.3,0.3l107,107l-0.3,0.3L937.4,343.6z M831.3,236.3
				l106.1,106.1l106.1-106.1L937.4,130.1L831.3,236.3z"/>
		</g>
		<g>
			<path class="st4" d="M1364.3,130.1l-0.3-0.3l-107-107l0.3-0.3l107-107l0.3,0.3l107,107l-0.3,0.3L1364.3,130.1z M1258.2,22.8
				l106.1,106.1l106.1-106.1L1364.3-83.3L1258.2,22.8z"/>
		</g>
		<g>
			<path class="st3" d="M1257.6,23.4l-0.3-0.3l-107-107l0.3-0.3l107-107l0.3,0.3l107,107l-0.3,0.3L1257.6,23.4z M1151.5-83.9
				l106.1,106.1l106.1-106.1l-106.1-106.1L1151.5-83.9z"/>
		</g>
	</g>
</g>
<rect x="0" class="st7" width="1366" height="398"/>
</svg>
