<?xml version="1.0" encoding="utf-8"?>
<!-- Generator: Adobe Illustrator 22.0.0, SVG Export Plug-In . SVG Version: 6.00 Build 0)  -->
<svg version="1.1" id="Capa_1" xmlns="http://www.w3.org/2000/svg" xmlns:xlink="http://www.w3.org/1999/xlink" x="0px" y="0px"
	 viewBox="0 0 400 300" style="enable-background:new 0 0 400 300;" xml:space="preserve">
<style type="text/css">
	.st0{fill:#D5EDF7;}
	.st1{fill:#009EE2;}
	.st2{fill:#1D1D1B;}
</style>
<rect class="st0" width="400" height="300"/>
<polygon class="st1" points="191.1,135.3 186.9,135.3 171.5,143.9 182.8,143.9 "/>
<polygon class="st1" points="192.2,135.3 199.3,135.3 205.7,143.9 185.8,143.9 "/>
<polygon class="st1" points="208.6,144.1 220,144.1 204.6,135.1 200.3,135.1 "/>
<polygon class="st1" points="208.4,145.4 219.6,145.4 197.1,175.1 "/>
<polygon class="st1" points="205.9,145.2 185.8,145.2 195.8,176.2 "/>
<polygon class="st1" points="183.2,145.4 171.7,145.4 194.6,175.3 "/>
<g>
	<path class="st2" d="M11,136.1h7.1c2.8,0,5,0.3,6.6,1c1.5,0.7,2.7,1.7,3.6,3.1c0.9,1.4,1.3,2.9,1.3,4.7c0,1.6-0.4,3-1.2,4.3
		c-0.8,1.3-1.9,2.4-3.4,3.2c1.9,0.6,3.3,1.4,4.3,2.2c1,0.9,1.8,1.9,2.3,3.1c0.6,1.2,0.8,2.5,0.8,3.9c0,2.9-1.1,5.3-3.2,7.3
		s-4.9,3-8.5,3H11V136.1z M14.5,139.6V151h2c2.5,0,4.3-0.2,5.5-0.7s2.1-1.2,2.8-2.2c0.7-1,1-2.1,1-3.3c0-1.6-0.6-2.9-1.7-3.9
		c-1.1-0.9-3-1.4-5.5-1.4L14.5,139.6L14.5,139.6z M14.5,154.7v13.7h4.4c2.6,0,4.5-0.3,5.8-0.8c1.2-0.5,2.2-1.3,2.9-2.4
		c0.7-1.1,1.1-2.3,1.1-3.5c0-1.6-0.5-3-1.6-4.2c-1-1.2-2.5-2-4.3-2.4c-1.2-0.3-3.3-0.4-6.4-0.4L14.5,154.7L14.5,154.7z"/>
	<path class="st2" d="M39.6,136.1h20.5v3.5h-17v11.2H60v3.5H43.1v14.1H60v3.5H39.6V136.1z"/>
	<path class="st2" d="M66.3,171.9v-35.8h0.8l23.8,27.5v-27.5h3.5v35.8h-0.8L70,144.8v27.1L66.3,171.9L66.3,171.9z"/>
	<path class="st2" d="M136.5,142.7l-2.8,2.2c-1.6-2-3.4-3.6-5.6-4.6c-2.2-1-4.6-1.6-7.2-1.6c-2.9,0-5.5,0.7-7.9,2.1
		c-2.4,1.4-4.3,3.2-5.7,5.5c-1.3,2.3-2,4.9-2,7.8c0,4.4,1.5,8,4.5,10.9s6.8,4.4,11.3,4.4c5,0,9.2-2,12.6-5.9l2.8,2.1
		c-1.8,2.3-4,4-6.7,5.3c-2.7,1.2-5.7,1.9-9,1.9c-6.3,0-11.2-2.1-14.8-6.3c-3-3.5-4.6-7.8-4.6-12.8c0-5.2,1.8-9.7,5.5-13.2
		c3.7-3.6,8.3-5.4,13.8-5.4c3.3,0,6.4,0.7,9.1,2C132.6,138.5,134.8,140.3,136.5,142.7z"/>
	<path class="st2" d="M227,137.1l16.7,35.8h-3.9l-5.6-11.8h-15.4l-5.6,11.8h-4l16.9-35.8H227z M226.5,144.7l-6.1,13h12.2
		L226.5,144.7z"/>
	<path class="st2" d="M249.3,172.9v-35.8h7.4c5.4,0,9.2,0.4,11.7,1.3c3.5,1.2,6.2,3.3,8.1,6.3c2,3,2.9,6.6,2.9,10.7
		c0,3.6-0.8,6.7-2.3,9.5s-3.6,4.7-6,6c-2.5,1.3-5.9,1.9-10.4,1.9h-11.4V172.9z M252.7,169.6h4.1c5,0,8.4-0.3,10.3-0.9
		c2.7-0.9,4.8-2.5,6.4-4.7c1.5-2.3,2.3-5.1,2.3-8.4c0-3.5-0.8-6.4-2.5-8.9c-1.7-2.4-4-4.1-7-5c-2.2-0.7-5.9-1-11.1-1h-2.5
		L252.7,169.6L252.7,169.6z"/>
	<path class="st2" d="M286.4,172.9v-35.8h7.4c5.4,0,9.2,0.4,11.7,1.3c3.5,1.2,6.2,3.3,8.1,6.3c2,3,2.9,6.6,2.9,10.7
		c0,3.6-0.8,6.7-2.3,9.5c-1.6,2.7-3.6,4.7-6,6c-2.5,1.3-5.9,1.9-10.4,1.9h-11.4V172.9z M289.8,169.6h4.1c5,0,8.4-0.3,10.3-0.9
		c2.7-0.9,4.8-2.5,6.4-4.7c1.5-2.3,2.3-5.1,2.3-8.4c0-3.5-0.8-6.4-2.5-8.9c-1.7-2.4-4-4.1-7-5c-2.2-0.7-5.9-1-11.1-1h-2.5
		L289.8,169.6L289.8,169.6z"/>
	<path class="st2" d="M323,137.1h3.6v35.8H323V137.1z"/>
	<path class="st2" d="M368.1,143.8l-2.8,2.2c-1.6-2-3.4-3.6-5.6-4.6s-4.6-1.6-7.2-1.6c-2.9,0-5.5,0.7-7.9,2.1
		c-2.4,1.4-4.3,3.2-5.7,5.5c-1.3,2.3-2,4.9-2,7.8c0,4.4,1.5,8,4.5,10.9s6.8,4.4,11.3,4.4c5,0,9.2-2,12.6-5.9l2.8,2.1
		c-1.8,2.3-4,4-6.7,5.3c-2.7,1.2-5.7,1.9-9,1.9c-6.3,0-11.2-2.1-14.8-6.3c-3-3.5-4.6-7.8-4.6-12.8c0-5.2,1.8-9.7,5.5-13.2
		c3.7-3.6,8.3-5.4,13.8-5.4c3.3,0,6.4,0.7,9.1,2C364.2,139.5,366.4,141.4,368.1,143.8z"/>
	<path class="st2" d="M369,116.2v-5.4h21v5.4h-8.6v56.7h-3.9v-56.7H369z"/>
</g>
<path class="st2" d="M185.2,123.3l-1.8,0.2c0,0-4.6,2.1-5.3,2.3c0,0-22.3,6.1-23.4,6.1c0,0-17.2,4.4-18.2,5.4c0,0-1.9,1.1-1.5,2.3
	c0,0,0.6,1.7,2.6,1.4c0,0,0.1,0.3,8.2-2.2l21.5-7l12.3-3.8l4.3-0.5l2.1-1.1L185.2,123.3z"/>
<path class="st2" d="M188.8,132.8c0,0,1.7,0.6,2.9-0.8l-0.2-0.7c0,0-1.1-0.5-1.1-1.6c0,0,0.8-6.6-4.9-13.2l-0.8-1.2l0.4,1.8
	c0,0,2.1,4.9,0.2,5.7c0,0,1.5,3,1.1,4.1c0,0,2.6,0.8,2.5,4.7l-0.4,0.8L188.8,132.8z"/>
<path class="st2" d="M189.7,122.1l0.8,2.6l-0.2,0.8c0,0-0.7-2.4-1.1-3.4H189.7z"/>
<g>
	<polygon class="st2" points="166.3,110.8 166.3,116.7 166.3,116.7 166.3,142.1 166.3,142.1 166.3,171.9 170.8,171.9 170.8,110.8 	
		"/>
	<polygon class="st2" points="143.2,127 143,127 143,110.8 138.5,110.8 138.5,171.9 143,171.9 143,132.8 143.2,132.8 	"/>
</g>
</svg>
