<?xml version="1.0" encoding="utf-8"?>
<!-- Generator: Adobe Illustrator 22.0.0, SVG Export Plug-In . SVG Version: 6.00 Build 0)  -->
<svg version="1.1" id="Capa_1" xmlns="http://www.w3.org/2000/svg" xmlns:xlink="http://www.w3.org/1999/xlink" x="0px" y="0px"
	 viewBox="0 0 350 200" style="enable-background:new 0 0 350 200;" xml:space="preserve">
<style type="text/css">
	.st0{fill:#FFFFFF;}
	.st1{fill:#83AE38;}
</style>
<g id="XMLID_2359_">
	<g id="XMLID_2366_">
		<path id="XMLID_2375_" class="st0" d="M159.8,84c0-0.7-0.1-1.4-0.4-2.1c-0.3-0.7-0.7-1.3-1.2-1.9s-1.3-1.1-2.3-1.4
			s-2.2-0.5-3.6-0.5c-0.2,0-0.5,0-0.7,0s-0.5,0.1-0.8,0.1s-0.6,0.1-0.9,0.2c-0.3,0.1-0.6,0.2-0.9,0.4c-0.5,0.2-1,0.5-1.5,0.9
			s-0.9,0.9-1.4,1.4c-0.4,0.5-0.7,1.1-1,1.9c-0.3,0.7-0.4,1.6-0.5,2.5c0,1.3,0.2,2.4,0.5,3.3s0.9,1.7,1.6,2.3
			c0.7,0.6,1.5,1.1,2.3,1.4c0.8,0.4,1.6,0.6,2.4,0.7h0.1h0.1c0.1,0,0.1,0,0.2,0h0.1c0.1,0,0.1,0,0.1,0h0.1h0.1h0.1
			c0.4,0,0.7,0,1.1-0.1c0.3,0,0.7-0.1,1-0.3c0.2-0.1,0.3-0.1,0.5-0.2c0.1-0.1,0.3-0.1,0.5-0.2c0.1-0.1,0.3-0.2,0.4-0.3
			c0.2-0.1,0.3-0.2,0.4-0.3c0.2-0.1,0.3-0.2,0.5-0.4c0.1-0.1,0.3-0.3,0.5-0.4c0.2-0.2,0.3-0.3,0.5-0.5c0.2-0.1,0.3-0.3,0.5-0.5v5.2
			c0,0.1-0.1,0.1-0.1,0.1l0,0c-0.4,0.3-0.8,0.5-1.2,0.7s-0.8,0.4-1.3,0.5c-0.4,0.1-1,0.2-1.6,0.3c-0.6,0.1-1.4,0.1-2.2,0.1h-0.1
			c0,0,0,0-0.1,0h-0.1h-0.1h-0.1h-0.1c0,0,0,0-0.1,0c-1.5,0-2.8-0.3-4.1-0.8s-2.4-1.3-3.4-2.4s-1.8-2.4-2.3-3.8s-0.8-3.1-0.8-4.9
			c0-1.6,0.3-3.1,0.8-4.4c0.5-1.4,1.3-2.6,2.3-3.7s2.3-2,3.7-2.6c1.5-0.6,3.2-0.9,5.2-0.9c1.9,0,3.5,0.3,5,0.8s2.7,1.3,3.7,2.3
			s1.8,2.1,2.3,3.2s0.7,2.3,0.7,3.5v13.3h-4.5V84H159.8z"/>
		<path id="XMLID_2373_" class="st1" d="M168.4,81.3c0-1,0.2-1.9,0.6-2.8c0.4-0.9,1-1.7,1.8-2.4c0.8-0.7,1.7-1.3,2.8-1.6
			c1-0.4,2.2-0.5,3.5-0.5c0.9,0,1.7,0.1,2.4,0.2s1.3,0.3,1.7,0.6c0.4,0.3,0.9,0.6,1.2,0.9c0.4,0.4,0.7,0.8,1,1.3
			c0.3-0.4,0.6-0.7,1-1.1c0.4-0.3,0.9-0.7,1.5-1s1.2-0.6,1.9-0.7c0.7-0.2,1.5-0.2,2.3-0.2c1.1,0,2.1,0.2,3,0.5s1.8,0.8,2.7,1.4
			c0.8,0.6,1.4,1.3,1.9,2.1c0.4,0.8,0.7,1.6,0.7,2.6v0.1c0,0,0,0,0,0.1v0.1c0,0,0,0,0,0.1v0.1c0,0,0,0,0,0.1v0.1c0,0,0,0,0,0.1v16
			h-4.1V82.5l0,0l0,0v-0.1c0,0,0,0,0-0.1s0-0.1,0-0.2V82c0-0.1,0-0.2,0-0.3c0-0.1,0-0.2-0.1-0.3c0-0.1-0.1-0.2-0.1-0.3
			c0-0.1,0-0.2-0.1-0.4c-0.1-0.4-0.3-0.7-0.6-1.1c-0.3-0.3-0.6-0.7-0.9-1c-0.3-0.3-0.7-0.6-1.1-0.7c-0.4-0.2-0.8-0.2-1.3-0.2
			c-0.6,0-1.1,0.1-1.6,0.3c-0.5,0.2-0.9,0.5-1.4,0.9c-0.4,0.4-0.7,0.8-1,1.3c-0.2,0.5-0.4,0.9-0.5,1.4c0,0.1-0.1,0.1-0.1,0.2
			s0,0.1,0,0.2s0,0.2,0,0.2c0,0.1,0,0.1,0,0.2v14.5h-4.1v-14c0-0.7-0.1-1.3-0.3-1.9s-0.5-1.2-0.9-1.7s-0.9-0.9-1.4-1.1
			c-0.6-0.3-1.2-0.4-1.9-0.4c-0.9,0.1-1.7,0.3-2.3,0.6c-0.6,0.3-1,0.7-1.3,1.3c-0.3,0.5-0.5,1.1-0.6,1.7s-0.2,1.2-0.2,1.9v0.1l0,0
			v13.7h-4.1L168.4,81.3L168.4,81.3z"/>
		<path id="XMLID_2370_" class="st0" d="M229,80.4c0.6-1.4,1.5-2.6,2.7-3.7c1.2-1,2.5-1.8,3.8-2.3s2.8-0.8,4.2-0.8
			c0.1,0,0.1,0,0.2,0c0.1,0,0.1,0,0.2,0c0.1,0,0.1,0,0.2,0c0.1,0,0.2,0,0.3,0s0.1,0,0.2,0c0.1,0,0.2,0,0.3,0s0.1,0,0.2,0
			c0.1,0,0.1,0,0.2,0c1.3,0.2,2.5,0.6,3.6,1.1c1.2,0.6,2.3,1.3,3.3,2.2c1,0.9,1.8,2.1,2.4,3.6c0.5,1.4,0.8,3.1,0.8,5
			c0,0.1,0,0.3,0,0.4s0,0.2,0,0.3c0,0.1,0,0.3,0,0.4s0,0.3,0,0.4c0,0.3-0.1,0.5-0.1,0.8s-0.1,0.5-0.2,0.8c-0.3,1.1-0.7,2.2-1.3,3.3
			c-0.6,1-1.3,2-2.3,2.9c-0.9,0.9-1.9,1.6-3.2,2c-1.2,0.4-2.6,0.7-4.1,0.7c-2.2,0-4-0.3-5.6-0.9s-2.8-1.5-3.8-2.7s-1.7-2.5-2.2-4
			s-0.7-3-0.7-4.7v-0.1C228.1,83.4,228.4,81.8,229,80.4z M232.6,85.8c0,0.2,0,0.4,0,0.6s0.1,0.4,0.1,0.6s0.1,0.4,0.1,0.6
			c0.2,0.7,0.4,1.4,0.8,2c0.3,0.7,0.8,1.3,1.3,1.9s1.2,1,2,1.3s1.7,0.4,2.8,0.4c1,0,2-0.1,2.8-0.4c0.9-0.3,1.7-0.7,2.4-1.3
			c0.7-0.6,1.3-1.4,1.6-2.5c0.4-1.1,0.5-2.4,0.5-4c0-1.1-0.2-2.1-0.5-3s-0.8-1.7-1.4-2.4c-0.6-0.7-1.4-1.2-2.3-1.5
			c-0.9-0.3-2-0.5-3.2-0.5c-1.1,0-2.1,0.2-2.9,0.5c-0.8,0.3-1.5,0.8-2,1.4s-1,1.2-1.3,1.9c-0.3,0.7-0.6,1.4-0.7,2.1
			c0,0.1-0.1,0.3-0.1,0.4s0,0.3,0,0.4s0,0.3,0,0.4s0,0.3,0,0.4V85C232.6,85.3,232.6,85.6,232.6,85.8z"/>
		<path id="XMLID_2367_" class="st0" d="M255.5,80.4c0.6-1.4,1.5-2.6,2.7-3.7c1.2-1,2.5-1.8,3.8-2.3s2.8-0.8,4.2-0.8
			c0.1,0,0.1,0,0.2,0s0.1,0,0.2,0s0.1,0,0.2,0s0.2,0,0.3,0c0.1,0,0.1,0,0.2,0s0.2,0,0.3,0c0.1,0,0.1,0,0.2,0s0.1,0,0.2,0
			c1.3,0.2,2.5,0.6,3.6,1.1c1.2,0.6,2.3,1.3,3.3,2.2c1,0.9,1.8,2.1,2.4,3.6c0.5,1.4,0.8,3.1,0.8,5c0,0.1,0,0.3,0,0.4s0,0.2,0,0.3
			c0,0.1,0,0.3,0,0.4s0,0.3,0,0.4c0,0.3-0.1,0.5-0.1,0.8s-0.1,0.5-0.2,0.8c-0.3,1.1-0.7,2.2-1.3,3.3c-0.6,1-1.3,2-2.3,2.9
			c-0.9,0.9-1.9,1.6-3.2,2c-1.2,0.4-2.6,0.7-4.1,0.7c-2.2,0-4-0.3-5.6-0.9s-2.8-1.5-3.8-2.7s-1.7-2.5-2.2-4s-0.7-3-0.7-4.7v-0.1
			C254.6,83.4,254.9,81.8,255.5,80.4z M259.1,85.8c0,0.2,0,0.4,0,0.6s0.1,0.4,0.1,0.6s0.1,0.4,0.1,0.6c0.2,0.7,0.4,1.4,0.8,2
			c0.3,0.7,0.8,1.3,1.3,1.9s1.2,1,2,1.3s1.7,0.4,2.8,0.4c1,0,2-0.1,2.8-0.4c0.9-0.3,1.7-0.7,2.4-1.3c0.7-0.6,1.3-1.4,1.6-2.5
			c0.4-1.1,0.5-2.4,0.5-4c0-1.1-0.2-2.1-0.5-3s-0.8-1.7-1.4-2.4c-0.6-0.7-1.4-1.2-2.3-1.5s-2-0.5-3.2-0.5c-1.1,0-2.1,0.2-2.9,0.5
			s-1.5,0.8-2,1.4s-1,1.2-1.3,1.9c-0.3,0.7-0.6,1.4-0.7,2.1c0,0.1-0.1,0.3-0.1,0.4s0,0.3,0,0.4s0,0.3,0,0.4s0,0.3,0,0.4V85
			C259.1,85.3,259.1,85.6,259.1,85.8z"/>
	</g>
	<g id="XMLID_2363_">
		<path id="XMLID_2365_" class="st0" d="M134.6,77.1c-1.1-1-2.4-1.8-3.7-2.3s-2.7-0.7-4.2-0.7c-0.1,0-0.2,0-0.3,0s-0.2,0-0.2,0
			c-0.1,0-0.2,0-0.3,0c-0.1,0-0.2,0-0.3,0c-0.2,0-0.4,0.1-0.5,0.1c-0.2,0-0.3,0-0.5,0.1c-0.4,0.1-0.7,0.1-1.1,0.2
			c-0.3,0.1-0.7,0.2-1,0.3c-0.3,0.1-0.7,0.3-1,0.4c-0.3,0.2-0.7,0.3-1,0.5V80c0.1-0.1,0.2-0.1,0.4-0.2c0.1,0,0.2-0.1,0.4-0.1
			c0.1,0,0.1-0.1,0.2-0.1c0,0,0.1-0.1,0.2-0.1h0.1c0.1,0,0.1-0.1,0.2-0.1l0,0l0,0c0.3-0.2,0.7-0.3,1-0.5c0.3-0.1,0.7-0.3,1-0.4
			s0.7-0.2,1.1-0.3c0.4-0.1,0.9-0.1,1.3-0.1h0.1h0.1h0.1h0.1c0.1,0,0.1,0,0.2,0s0.2,0,0.3,0c0.8,0.1,1.5,0.3,2.2,0.7
			c0.7,0.4,1.4,0.9,2,1.5s1.1,1.4,1.4,2.3c0.3,0.9,0.5,2.1,0.5,3.3c0,0.2,0,0.3,0,0.5s0,0.4-0.1,0.5c0,0.2-0.1,0.4-0.1,0.5
			c0,0.2-0.1,0.3-0.1,0.5c-0.2,0.7-0.5,1.4-0.9,2c-0.4,0.7-0.9,1.3-1.4,1.9c-0.6,0.6-1.3,1.1-2.1,1.4s-1.8,0.5-2.8,0.5
			c-1.1,0-2.1-0.2-3-0.6s-1.6-0.9-2.3-1.7c-0.6-0.8-1.1-1.6-1.4-2.6s-0.5-2.1-0.5-3.4V71.9h-4.5v13.3c0,1.7,0.2,3.3,0.7,4.7
			c0.5,1.5,1.2,2.9,2.1,4.2c0.9,1.3,2.2,2.2,3.6,2.8c1.5,0.6,3.2,0.9,5.1,0.9c2,0,3.7-0.3,5.2-0.9s2.7-1.6,3.7-2.9s1.8-2.7,2.3-4.2
			s0.8-3,0.8-4.6c0-1.7-0.3-3.2-0.9-4.6C136.6,79.2,135.8,78.1,134.6,77.1z"/>
		<rect id="XMLID_2364_" x="114.6" y="64.2" class="st0" width="4.5" height="5.7"/>
	</g>
	<g id="XMLID_2360_">
		<rect id="XMLID_2362_" x="202" y="64.2" class="st1" width="4.5" height="5.7"/>
		<path id="XMLID_2361_" class="st1" d="M224.6,80.6c-0.6-1.4-1.4-2.5-2.6-3.5c-1.1-1-2.4-1.8-3.7-2.3s-2.7-0.7-4.2-0.7
			c-0.1,0-0.2,0-0.3,0s-0.2,0-0.2,0c-0.1,0-0.2,0-0.3,0s-0.2,0-0.3,0c-0.2,0-0.4,0.1-0.5,0.1c-0.2,0-0.3,0-0.5,0.1
			c-0.4,0.1-0.7,0.1-1.1,0.2c-0.3,0.1-0.7,0.2-1,0.3c-0.3,0.1-0.7,0.3-1,0.4c-0.3,0.2-0.7,0.3-1,0.5V80c0.1-0.1,0.2-0.1,0.4-0.2
			c0.1,0,0.2-0.1,0.4-0.1c0.1,0,0.1-0.1,0.2-0.1c0,0,0.1-0.1,0.2-0.1h0.1c0.1,0,0.1-0.1,0.2-0.1l0,0l0,0c0.3-0.2,0.7-0.3,1-0.5
			c0.3-0.1,0.7-0.3,1-0.4s0.7-0.2,1.1-0.3c0.4-0.1,0.9-0.1,1.3-0.1h0.1h0.1h0.1h0.1c0.1,0,0.1,0,0.2,0c0.1,0,0.2,0,0.3,0
			c0.8,0.1,1.5,0.3,2.2,0.7c0.7,0.4,1.4,0.9,2,1.5s1.1,1.4,1.4,2.3c0.3,0.9,0.5,2.1,0.5,3.3c0,0.2,0,0.3,0,0.5s0,0.4-0.1,0.5
			c0,0.2-0.1,0.4-0.1,0.5c0,0.2-0.1,0.3-0.1,0.5c-0.2,0.7-0.5,1.4-0.9,2c-0.4,0.7-0.9,1.3-1.4,1.9c-0.6,0.6-1.3,1.1-2.1,1.4
			s-1.8,0.5-2.8,0.5c-1.1,0-2.1-0.2-3-0.6s-1.6-0.9-2.3-1.7c-0.6-0.8-1.1-1.6-1.4-2.6c-0.3-1-0.5-2.1-0.5-3.4V71.9H202v13.3
			c0,1.7,0.2,3.3,0.7,4.7c0.5,1.5,1.2,2.9,2.1,4.2c0.9,1.3,2.2,2.2,3.6,2.8c1.5,0.6,3.2,0.9,5.1,0.9c2,0,3.7-0.3,5.2-0.9
			s2.7-1.6,3.7-2.9s1.8-2.7,2.3-4.2s0.8-3,0.8-4.6C225.5,83.5,225.2,81.9,224.6,80.6z"/>
	</g>
</g>
<g id="XMLID_2323_">
	<path id="XMLID_2357_" class="st0" d="M147.4,114.3v0.6h-8.2v-12.1h8.2v0.6H140v4.9h7v0.6h-7v5.3L147.4,114.3L147.4,114.3z"/>
	<path id="XMLID_2355_" class="st0" d="M148.9,112.1c0.1,0.8,0.4,1.4,0.9,1.9s1.2,0.7,2,0.7c0.3,0,0.6,0,0.9-0.1
		c0.3,0,0.6-0.1,0.9-0.3c0.3-0.1,0.5-0.3,0.7-0.6c0.2-0.2,0.3-0.5,0.3-0.9s-0.1-0.7-0.2-0.9c-0.2-0.2-0.4-0.4-0.7-0.5
		s-0.6-0.2-1-0.3c-0.4-0.1-0.7-0.2-1.1-0.2c-0.4-0.1-0.7-0.2-1.1-0.3c-0.3-0.1-0.7-0.2-1-0.4c-0.3-0.2-0.5-0.4-0.7-0.7
		c-0.2-0.3-0.3-0.6-0.3-1.1c0-0.4,0.1-0.8,0.3-1.1c0.2-0.3,0.4-0.5,0.7-0.7c0.6-0.3,1.3-0.5,2.1-0.5c1,0,1.7,0.2,2.3,0.6
		s0.9,1.2,0.9,2.2h-0.6c0-0.8-0.3-1.4-0.7-1.7c-0.5-0.3-1.1-0.5-1.9-0.5c-0.6,0-1.2,0.1-1.7,0.4c-0.2,0.1-0.4,0.3-0.6,0.5
		c-0.2,0.2-0.2,0.5-0.2,0.8s0.1,0.6,0.3,0.8c0.2,0.2,0.4,0.4,0.7,0.5c0.1,0.1,0.3,0.1,0.5,0.2c0.1,0,0.3,0.1,0.5,0.2
		c0.2,0,0.4,0.1,0.5,0.1c0.2,0,0.3,0.1,0.5,0.1c0.9,0.1,1.6,0.4,2.2,0.7c0.3,0.2,0.5,0.4,0.6,0.7c0.2,0.3,0.2,0.7,0.2,1.1
		s-0.1,0.8-0.3,1.1c-0.2,0.3-0.5,0.6-0.8,0.8c-0.3,0.2-0.7,0.3-1.1,0.4c-0.4,0.1-0.8,0.1-1.2,0.1c-1,0-1.8-0.3-2.5-0.8
		c-0.6-0.5-1-1.3-1.1-2.3L148.9,112.1L148.9,112.1z"/>
	<path id="XMLID_2353_" class="st0" d="M160,106.8h-1.9v6.1c0,0.7,0.2,1.1,0.5,1.3c0.3,0.2,0.8,0.3,1.4,0.2v0.6c-0.3,0-0.7,0-1,0
		s-0.6-0.1-0.8-0.3c-0.2-0.1-0.4-0.3-0.6-0.6c-0.1-0.3-0.2-0.7-0.2-1.2v-6.1h-1.6v-0.6h1.6v-2.7h0.6v2.7h1.9v0.6H160z"/>
	<path id="XMLID_2351_" class="st0" d="M168.1,115h-0.6v-1.9l0,0c-0.2,0.6-0.6,1.1-1.2,1.5c-0.6,0.4-1.2,0.6-1.9,0.6
		c-0.8,0-1.3-0.2-1.8-0.4c-0.4-0.2-0.7-0.6-0.9-0.9c-0.2-0.4-0.3-0.8-0.3-1.2c0-0.4-0.1-0.7-0.1-1v-5.4h0.6v5.5c0,0.2,0,0.5,0.1,0.8
		c0,0.3,0.1,0.6,0.3,0.9s0.4,0.6,0.7,0.8c0.3,0.2,0.8,0.3,1.4,0.3c1,0,1.8-0.4,2.3-1c0.6-0.7,0.8-1.5,0.8-2.6v-4.7h0.6L168.1,115
		L168.1,115z"/>
	<path id="XMLID_2348_" class="st0" d="M176.7,113.1L176.7,113.1c-0.7,1.4-1.8,2.1-3.4,2.1c-1.3,0-2.3-0.5-2.9-1.4
		c-0.6-0.9-0.9-1.9-0.9-3.2c0-1.3,0.3-2.4,1-3.3c0.6-0.9,1.6-1.3,2.9-1.3c0.7,0,1.4,0.2,2,0.5c0.3,0.2,0.5,0.4,0.8,0.7
		c0.2,0.3,0.4,0.6,0.5,0.9l0,0v-5.4h0.6V115h-0.6L176.7,113.1L176.7,113.1z M175.9,113.4c0.5-0.8,0.8-1.7,0.8-2.7
		c0-1.1-0.3-2-0.8-2.8s-1.4-1.2-2.5-1.2s-2,0.4-2.5,1.2c-0.5,0.8-0.8,1.7-0.8,2.8c0,1.1,0.3,2,0.8,2.8s1.3,1.2,2.5,1.2
		C174.6,114.6,175.4,114.2,175.9,113.4z"/>
	<path id="XMLID_2345_" class="st0" d="M179.6,104.6v-1.8h0.6v1.8H179.6z M179.6,115v-8.7h0.6v8.7H179.6z"/>
	<path id="XMLID_2342_" class="st0" d="M182.9,107.4c0.7-0.9,1.7-1.3,3-1.3s2.3,0.5,3,1.3c0.7,0.9,1,1.9,1,3.2c0,1.3-0.3,2.3-1,3.2
		c-0.7,0.9-1.7,1.3-3,1.4c-1.3,0-2.3-0.5-3-1.4s-1-1.9-1-3.2S182.3,108.3,182.9,107.4z M183.4,113.4c0.6,0.8,1.4,1.2,2.5,1.2
		s2-0.4,2.5-1.2c0.6-0.8,0.8-1.7,0.8-2.8c0-1.1-0.3-2-0.8-2.8c-0.6-0.8-1.4-1.2-2.5-1.2s-1.9,0.4-2.5,1.2c-0.6,0.8-0.9,1.7-0.9,2.8
		C182.5,111.7,182.8,112.6,183.4,113.4z"/>
	<path id="XMLID_2340_" class="st0" d="M206.8,109v6h-0.6v-2.6l0,0c-0.3,0.9-0.9,1.6-1.7,2.1s-1.8,0.8-2.9,0.8
		c-0.9,0-1.7-0.2-2.4-0.5s-1.3-0.8-1.8-1.3c-1-1.2-1.5-2.7-1.5-4.4c0-1.8,0.5-3.3,1.5-4.5s2.4-1.9,4.2-1.9c1.3,0,2.4,0.4,3.3,1.1
		c0.9,0.7,1.5,1.7,1.7,3h-0.7c-0.6-2.2-2-3.4-4.3-3.4c-1.6,0-2.9,0.6-3.7,1.8c-0.9,1.1-1.3,2.5-1.3,4c0,1.6,0.4,2.9,1.3,4
		c0.8,1.1,2.1,1.6,3.7,1.7c1.5,0,2.6-0.5,3.4-1.4c0.8-0.9,1.2-2.1,1.2-3.6h-4.5V109H206.8z"/>
	<path id="XMLID_2338_" class="st0" d="M209.4,108.2L209.4,108.2c0.2-0.6,0.7-1.1,1.3-1.5s1.3-0.6,2.1-0.5v0.6
		c-0.3-0.1-0.7,0-1.2,0.1c-0.4,0.1-0.9,0.4-1.3,0.8c-0.3,0.3-0.5,0.6-0.7,1s-0.3,0.9-0.3,1.5v4.8h-0.6v-8.7h0.6L209.4,108.2
		L209.4,108.2z"/>
	<path id="XMLID_2334_" class="st0" d="M219.9,113.4c0,0.3,0,0.5,0.1,0.7s0.2,0.3,0.5,0.3c0.1,0,0.3,0,0.5,0v0.5
		c-0.2,0-0.4,0.1-0.5,0.1c-0.5,0-0.8-0.1-0.9-0.4c-0.2-0.2-0.2-0.5-0.2-0.9v-0.5l0,0c-0.2,0.5-0.6,1-1.1,1.3
		c-0.6,0.4-1.3,0.6-2.1,0.6s-1.5-0.2-2.1-0.6s-0.8-1-0.8-1.9c0-0.5,0.1-0.9,0.3-1.3c0.2-0.3,0.5-0.6,0.8-0.7
		c0.3-0.2,0.7-0.3,1.1-0.4c0.2,0,0.4-0.1,0.6-0.1c0.2,0,0.4,0,0.5,0c1.4-0.1,2.3-0.2,2.6-0.5c0.2-0.1,0.3-0.3,0.4-0.5
		c0-0.2,0-0.5,0-0.8c0-0.1,0-0.3-0.1-0.5s-0.2-0.4-0.4-0.6s-0.4-0.4-0.7-0.5s-0.7-0.2-1.2-0.2c-1.6,0-2.5,0.8-2.7,2.3h-0.6
		c0.1-1.9,1.2-2.9,3.3-2.9c0.8,0,1.5,0.1,2.1,0.5c0.6,0.3,0.9,0.9,1,1.8v5.2H219.9z M218.8,110.3c-0.2,0.1-0.5,0.1-0.8,0.2
		c-0.6,0.1-1.2,0.1-1.9,0.2c-1.6,0.1-2.4,0.8-2.4,2c0,0.5,0.2,1,0.6,1.3c0.4,0.4,0.9,0.6,1.7,0.6c0.7,0,1.3-0.1,1.8-0.4
		c0.4-0.2,0.8-0.6,1-0.9s0.4-0.7,0.4-1c0.1-0.3,0.1-0.5,0.1-0.6V110C219.2,110.2,219,110.3,218.8,110.3z M218,102.6h0.9l-2.3,2.4
		H216L218,102.6z"/>
	<path id="XMLID_2332_" class="st0" d="M221,106.8v-0.6h1.6v-1.8c0-0.6,0.2-1.1,0.6-1.3c0.4-0.3,0.8-0.4,1.3-0.4
		c0.3,0,0.5,0,0.8,0.1v0.6c-0.2-0.1-0.5-0.1-0.8-0.1c-0.4,0-0.7,0.1-0.9,0.2c-0.3,0.2-0.4,0.5-0.4,1v1.8h1.8v0.6h-1.8v8.2h-0.6v-8.2
		L221,106.8L221,106.8z"/>
	<path id="XMLID_2329_" class="st0" d="M226.3,104.6v-1.8h0.6v1.8H226.3z M226.3,115v-8.7h0.6v8.7H226.3z"/>
	<path id="XMLID_2327_" class="st0" d="M235.5,108.9c-0.1-0.8-0.4-1.4-0.9-1.8s-1.2-0.6-2-0.6c-1.1,0-1.9,0.4-2.5,1.2
		c-0.6,0.8-0.9,1.7-0.9,2.7c0,1.2,0.3,2.2,0.9,2.9c0.6,0.8,1.4,1.2,2.5,1.2c0.8,0,1.5-0.3,2.1-0.8c0.5-0.5,0.9-1.1,1-2h0.6
		c-0.1,1-0.6,1.9-1.2,2.4c-0.7,0.6-1.5,0.9-2.5,0.9c-1.4,0-2.4-0.5-3.1-1.4c-0.6-0.9-0.9-2-0.9-3.2c0-1.3,0.3-2.3,1-3.2
		c0.7-0.9,1.7-1.3,3-1.3c1,0,1.8,0.2,2.5,0.7s1.1,1.2,1.2,2.2h-0.8V108.9z"/>
	<path id="XMLID_2324_" class="st0" d="M238.4,107.4c0.7-0.9,1.7-1.3,3-1.3s2.3,0.5,3,1.3c0.7,0.9,1,1.9,1,3.2c0,1.3-0.3,2.3-1,3.2
		c-0.7,0.9-1.7,1.3-3,1.4c-1.3,0-2.3-0.5-3-1.4s-1-1.9-1-3.2S237.7,108.3,238.4,107.4z M238.9,113.4c0.6,0.8,1.4,1.2,2.5,1.2
		s2-0.4,2.5-1.2c0.6-0.8,0.8-1.7,0.8-2.8c0-1.1-0.3-2-0.8-2.8c-0.6-0.8-1.4-1.2-2.5-1.2s-1.9,0.4-2.5,1.2c-0.6,0.8-0.9,1.7-0.9,2.8
		C238,111.7,238.3,112.6,238.9,113.4z"/>
</g>
<g id="XMLID_2313_">
	<path id="XMLID_2320_" class="st1" d="M98.4,61.6c0.3,5.1,1.3,17.7,0,23.3h9.5c-0.8-4.6-0.7-20.3,0-23.3
		C107.9,61.6,98.4,61.6,98.4,61.6z"/>
	<path id="XMLID_2317_" class="st1" d="M98.4,87.9c0.3,6.8,1.3,23.9,0,31.5h9.5c-0.8-6.3-0.7-27.6,0-31.5H98.4z"/>
	<path id="XMLID_2314_" class="st1" d="M98.9,86.4l-0.5-0.7c-6.7-1.2-12.4-4.4-16.1-6.9c0.7-1,1.9-3.2,1.9-5.8
		c0.1-3.6-2-10.8-2-10.8s-2.4,7.1-2.5,10.7c-0.1,2,0.6,3.8,1.2,5c-1.9-1.4-3.1-2.5-3.1-2.5l0,0c-0.4-1.6-1.4-4.2-3.5-6.3
		c-3.2-3.2-11.5-7.5-11.5-7.5s4.4,8.3,7.6,11.5c2.6,2.6,6.2,3.5,7.3,3.7c1.1,1,3.8,3.1,7.4,5.2c-1.2-0.5-3.4-1.3-5.9-1
		C75.8,81.4,69,84.5,69,84.5s7.4,1.4,10.9,0.9c3.5-0.4,6-2.8,6.1-3c3.4,1.9,7.6,3.6,12.2,4.4h0.1L98.9,86.4z"/>
</g>
<path id="XMLID_2312_" class="st0" d="M99,121.2h8.2c0.3,0,0.4,0.3,0.3,0.5l-4.1,6.1c-0.1,0.2-0.4,0.2-0.6,0l-4.1-6.1
	C98.6,121.5,98.8,121.2,99,121.2z"/>
<path id="XMLID_2311_" class="st0" d="M98.4,59.4h9.5c0,0-0.4-5.7-4.7-5.7C103.1,53.7,98.6,53.7,98.4,59.4z"/>
</svg>
