<?xml version="1.0" encoding="utf-8"?>
<!-- Generator: Adobe Illustrator 22.0.0, SVG Export Plug-In . SVG Version: 6.00 Build 0)  -->
<svg version="1.1" id="Capa_1" xmlns="http://www.w3.org/2000/svg" xmlns:xlink="http://www.w3.org/1999/xlink" x="0px" y="0px"
	 viewBox="0 0 350 200" style="enable-background:new 0 0 350 200;" xml:space="preserve">
<style type="text/css">
	.st0{fill:#FFFFFF;}
	.st1{fill:#85B037;}
</style>
<g>
	<g id="XMLID_2359_">
		<g id="XMLID_2366_">
			<path id="XMLID_2375_" class="st0" d="M157,89c0-0.9-0.2-1.7-0.5-2.6c-0.3-0.8-0.8-1.6-1.5-2.4c-0.7-0.8-1.6-1.4-2.8-1.8
				c-1.2-0.4-2.7-0.6-4.4-0.6c-0.3,0-0.6,0-0.9,0.1c-0.3,0-0.6,0.1-1,0.2c-0.4,0-0.7,0.1-1.1,0.2c-0.4,0.1-0.7,0.3-1.1,0.5
				c-0.6,0.3-1.2,0.7-1.8,1.2c-0.6,0.5-1.2,1.1-1.7,1.7c-0.5,0.6-0.9,1.4-1.2,2.3c-0.3,0.9-0.5,2-0.6,3.2c0,1.6,0.2,3,0.7,4.1
				c0.4,1.2,1.1,2.1,2,2.9c0.9,0.8,1.8,1.4,2.8,1.8c1,0.5,2,0.7,3.1,0.9c0,0,0.1,0,0.1,0c0.1,0,0.1,0,0.1,0c0.1,0,0.1,0.1,0.2,0.1
				c0.1,0,0.1,0,0.1,0c0.1,0,0.1,0,0.2,0c0,0,0.1,0,0.2,0c0,0,0.1,0,0.1,0c0.1,0,0.1,0,0.1,0c0.5,0,0.9,0,1.3-0.1
				c0.4-0.1,0.8-0.2,1.2-0.3c0.2-0.1,0.4-0.2,0.6-0.2c0.2-0.1,0.4-0.2,0.6-0.2c0.2-0.1,0.3-0.2,0.5-0.4c0.2-0.1,0.4-0.3,0.5-0.4
				c0.2-0.1,0.4-0.3,0.6-0.4c0.2-0.2,0.4-0.3,0.6-0.5c0.2-0.2,0.4-0.4,0.6-0.6c0.2-0.2,0.4-0.4,0.6-0.6v6.5c0,0.1-0.1,0.1-0.1,0.2
				v0.1c-0.5,0.3-1,0.6-1.5,0.9c-0.5,0.3-1,0.5-1.6,0.7c-0.6,0.2-1.2,0.3-2,0.4c-0.8,0.1-1.7,0.1-2.7,0.1c0,0-0.1,0-0.1,0
				c0,0,0,0-0.1,0c0,0-0.1,0-0.2,0c0,0-0.1,0-0.1,0c0,0-0.1,0-0.1,0c0,0-0.1,0-0.1,0c0,0,0,0-0.1,0c-1.8,0-3.5-0.3-5.1-1
				c-1.6-0.7-3-1.6-4.3-3c-1.3-1.4-2.3-3-2.9-4.8c-0.7-1.8-1-3.8-1-6.1c0-2,0.3-3.8,0.9-5.5c0.6-1.7,1.6-3.3,2.8-4.7
				c1.3-1.4,2.8-2.5,4.7-3.2c1.9-0.7,4-1.1,6.5-1.1c2.3,0,4.4,0.3,6.2,0.9c1.8,0.6,3.3,1.6,4.6,2.8c1.3,1.3,2.2,2.6,2.8,4
				c0.6,1.4,0.9,2.9,0.9,4.4v16.7H157V89z"/>
			<path id="XMLID_2373_" class="st1" d="M167.8,85.7c0-1.2,0.2-2.4,0.7-3.5c0.5-1.1,1.2-2.1,2.2-3c1-0.9,2.1-1.6,3.4-2
				c1.3-0.5,2.8-0.7,4.4-0.7c1.1,0,2.2,0.1,3,0.3c0.9,0.2,1.6,0.4,2.1,0.7c0.6,0.3,1.1,0.7,1.5,1.2c0.5,0.5,0.9,1,1.2,1.6
				c0.4-0.5,0.8-0.9,1.3-1.3c0.5-0.4,1.1-0.8,1.8-1.2c0.7-0.4,1.5-0.7,2.4-0.9c0.9-0.2,1.8-0.3,2.9-0.3c1.3,0,2.6,0.2,3.8,0.6
				c1.2,0.4,2.3,1,3.3,1.7c1,0.8,1.8,1.6,2.3,2.6c0.5,1,0.8,2,0.9,3.2c0,0,0,0.1,0,0.1c0,0,0,0,0,0.1c0,0,0,0.1,0,0.1c0,0,0,0,0,0.1
				c0,0-0.1,0.1-0.1,0.1c0,0,0,0,0,0.1c0,0,0,0.1,0,0.1c0,0,0,0,0,0.1v20H200V87.1c0,0,0,0,0,0c0,0,0,0,0.1,0c0,0,0-0.1,0-0.1
				c0,0,0,0,0-0.1c0-0.1,0-0.1,0-0.2c0-0.1,0-0.1,0-0.1c0-0.1,0-0.2,0-0.4c0-0.1,0-0.3-0.1-0.4c0-0.1-0.1-0.2-0.1-0.4
				c0-0.1,0-0.3-0.1-0.4c-0.2-0.5-0.4-0.9-0.7-1.4c-0.3-0.4-0.7-0.8-1.1-1.2c-0.4-0.4-0.9-0.7-1.4-0.9c-0.5-0.2-1-0.3-1.6-0.3
				c-0.7,0-1.4,0.1-2,0.4c-0.6,0.3-1.2,0.6-1.7,1.2c-0.5,0.5-0.9,1.1-1.2,1.6c-0.3,0.6-0.5,1.2-0.6,1.8c0,0.1-0.1,0.2-0.1,0.3
				c0,0.1,0,0.2,0,0.3c0,0.1,0,0.2,0,0.3c0,0.1,0,0.2,0,0.2v18.1h-5.1V87.6c0-0.9-0.1-1.7-0.4-2.4c-0.2-0.8-0.6-1.4-1.1-2.1
				c-0.5-0.6-1.1-1.1-1.8-1.4c-0.7-0.3-1.5-0.5-2.4-0.5c-1.1,0.1-2.1,0.4-2.8,0.8c-0.8,0.4-1.3,0.9-1.7,1.6
				c-0.4,0.7-0.6,1.4-0.8,2.1c-0.2,0.8-0.3,1.5-0.3,2.3c0,0,0,0.1,0,0.1v0.1v17.1h-5.2V85.7z"/>
			<path id="XMLID_2370_" class="st0" d="M243.5,84.5c0.8-1.7,1.9-3.3,3.3-4.6c1.5-1.3,3.1-2.3,4.8-2.9c1.7-0.7,3.4-1,5.3-1
				c0.1,0,0.2,0,0.3,0c0.1,0,0.2,0,0.3,0c0.1,0,0.2,0.1,0.3,0.1c0.1,0,0.2,0,0.3,0c0.1,0,0.2,0,0.3,0c0.1,0,0.2,0,0.3,0
				c0.1,0,0.2,0.1,0.3,0.1c0.1,0,0.2,0,0.3,0c1.6,0.2,3.1,0.7,4.5,1.4c1.4,0.7,2.8,1.6,4.2,2.8c1.3,1.2,2.3,2.7,3,4.4
				c0.7,1.8,1,3.9,1,6.2c0,0.2,0,0.3,0,0.5c0,0.2,0,0.3-0.1,0.4c0,0.2,0,0.3,0,0.5c0,0.2,0,0.3,0,0.5c0,0.3-0.1,0.6-0.1,0.9
				c-0.1,0.3-0.1,0.6-0.2,0.9c-0.4,1.4-0.9,2.8-1.6,4.1c-0.7,1.3-1.7,2.5-2.8,3.6c-1.1,1.1-2.4,2-4,2.5c-1.5,0.6-3.3,0.8-5.2,0.8
				c-2.7,0-5-0.4-7-1.1s-3.5-1.8-4.8-3.3c-1.2-1.5-2.1-3.2-2.8-5c-0.6-1.8-0.9-3.8-0.9-5.9v-0.1C242.4,88.2,242.8,86.3,243.5,84.5z
				 M248,91.3c0,0.3,0,0.5,0.1,0.8c0,0.3,0.1,0.5,0.1,0.8c0.1,0.3,0.1,0.5,0.1,0.8c0.2,0.9,0.5,1.7,0.9,2.5c0.4,0.8,1,1.6,1.6,2.4
				c0.7,0.8,1.5,1.3,2.5,1.7c1,0.4,2.2,0.5,3.5,0.5c1.3,0,2.4-0.2,3.6-0.5c1.1-0.4,2.1-0.9,3-1.6c0.9-0.7,1.6-1.7,2-3.1
				c0.5-1.4,0.7-3,0.7-5c0-1.4-0.2-2.6-0.6-3.8c-0.4-1.1-1-2.1-1.8-3c-0.8-0.8-1.8-1.5-2.9-1.9c-1.2-0.4-2.5-0.7-4-0.7
				c-1.4,0-2.6,0.2-3.7,0.6c-1,0.4-1.9,1-2.5,1.7c-0.7,0.8-1.2,1.6-1.6,2.4c-0.4,0.9-0.7,1.8-0.9,2.7c0,0.2-0.1,0.3-0.1,0.5
				c0,0.2-0.1,0.3-0.1,0.5c0,0.2,0,0.3,0,0.5c0,0.2,0,0.3,0,0.5v-0.1C248,90.7,248,91,248,91.3z"/>
			<path id="XMLID_2367_" class="st0" d="M276.7,84.5c0.8-1.7,1.9-3.3,3.3-4.6c1.5-1.3,3.1-2.3,4.8-2.9s3.4-1,5.3-1
				c0.1,0,0.2,0,0.3,0c0.1,0,0.2,0,0.3,0c0.1,0,0.2,0.1,0.3,0.1c0.1,0,0.2,0,0.3,0c0.1,0,0.2,0,0.3,0c0.1,0,0.2,0,0.3,0
				c0.1,0,0.2,0.1,0.3,0.1c0.1,0,0.2,0,0.3,0c1.6,0.2,3.1,0.7,4.5,1.4c1.4,0.7,2.8,1.6,4.2,2.8c1.3,1.2,2.3,2.7,3,4.4
				c0.7,1.8,1,3.9,1,6.2c0,0.2,0,0.3,0,0.5c0,0.2,0,0.3-0.1,0.4c0,0.2,0,0.3,0,0.5c0,0.2,0,0.3,0,0.5c0,0.3-0.1,0.6-0.1,0.9
				c-0.1,0.3-0.1,0.6-0.2,0.9c-0.4,1.4-0.9,2.8-1.6,4.1c-0.7,1.3-1.7,2.5-2.8,3.6c-1.1,1.1-2.4,2-4,2.5c-1.5,0.6-3.3,0.8-5.2,0.8
				c-2.7,0-5-0.4-7-1.1s-3.5-1.8-4.8-3.3c-1.2-1.5-2.1-3.2-2.8-5c-0.6-1.8-0.9-3.8-0.9-5.9v-0.1C275.5,88.2,275.9,86.3,276.7,84.5z
				 M281.2,91.3c0,0.3,0,0.5,0.1,0.8c0,0.3,0.1,0.5,0.1,0.8c0.1,0.3,0.1,0.5,0.1,0.8c0.2,0.9,0.5,1.7,0.9,2.5c0.4,0.8,1,1.6,1.6,2.4
				c0.7,0.8,1.5,1.3,2.5,1.7c1,0.4,2.2,0.5,3.5,0.5c1.3,0,2.4-0.2,3.6-0.5c1.1-0.4,2.1-0.9,3-1.6c0.9-0.7,1.6-1.7,2-3.1
				c0.5-1.4,0.7-3,0.7-5c0-1.4-0.2-2.6-0.6-3.8c-0.4-1.1-1-2.1-1.8-3c-0.8-0.8-1.8-1.5-2.9-1.9c-1.2-0.4-2.5-0.7-4-0.7
				c-1.4,0-2.6,0.2-3.7,0.6c-1,0.4-1.9,1-2.5,1.7c-0.7,0.8-1.2,1.6-1.6,2.4c-0.4,0.9-0.7,1.8-0.9,2.7c0,0.2-0.1,0.3-0.1,0.5
				c0,0.2-0.1,0.3-0.1,0.5c0,0.2,0,0.3,0,0.5c0,0.2,0,0.3,0,0.5v-0.1C281.2,90.7,281.2,91,281.2,91.3z"/>
		</g>
		<g id="XMLID_2363_">
			<path id="XMLID_2365_" class="st0" d="M125.6,80.4c-1.4-1.3-2.9-2.2-4.6-2.8c-1.6-0.6-3.4-0.9-5.2-0.9c-0.1,0-0.2,0-0.4,0
				c-0.1,0-0.2,0-0.3,0c-0.1,0-0.2,0.1-0.3,0.1c-0.1,0-0.2,0-0.3,0c-0.2,0-0.5,0.1-0.7,0.1c-0.2,0-0.4,0-0.6,0.1
				c-0.5,0.1-0.9,0.2-1.4,0.3c-0.4,0.1-0.9,0.3-1.3,0.4c-0.4,0.2-0.9,0.3-1.3,0.5c-0.4,0.2-0.8,0.4-1.3,0.6V84
				c0.2-0.1,0.3-0.1,0.4-0.2c0.1-0.1,0.3-0.1,0.4-0.1c0.1,0,0.1-0.1,0.2-0.1c0.1,0,0.1-0.1,0.2-0.1c0,0,0.1,0,0.2-0.1
				c0.1,0,0.2-0.1,0.2-0.1h0.1l0.1-0.1c0.4-0.2,0.9-0.4,1.3-0.6c0.4-0.2,0.8-0.3,1.3-0.5c0.4-0.2,0.9-0.3,1.4-0.4
				c0.5-0.1,1.1-0.1,1.7-0.1c0,0,0.1,0,0.1,0c0,0,0.1,0,0.2,0c0,0,0.1,0.1,0.1,0.1c0.1,0,0.1,0,0.1,0c0.1,0,0.2,0,0.3,0
				c0.1,0,0.2,0,0.3,0c0.9,0.1,1.9,0.4,2.8,0.9c0.9,0.5,1.7,1.1,2.5,1.9c0.8,0.8,1.4,1.7,1.8,2.9c0.4,1.2,0.6,2.6,0.6,4.1
				c0,0.2,0,0.4,0,0.6c0,0.2,0,0.4-0.1,0.7c0,0.2-0.1,0.5-0.1,0.7c0,0.2-0.1,0.4-0.1,0.6c-0.2,0.9-0.6,1.7-1.1,2.5
				c-0.5,0.8-1.1,1.6-1.8,2.4c-0.8,0.8-1.6,1.3-2.7,1.7c-1,0.4-2.2,0.6-3.5,0.6c-1.4,0-2.6-0.2-3.7-0.7c-1.1-0.5-2-1.2-2.8-2.1
				c-0.8-0.9-1.3-2-1.7-3.3c-0.4-1.2-0.6-2.7-0.6-4.2V73.9h-5.6v16.6c0,2.1,0.3,4.1,0.9,5.9c0.6,1.8,1.5,3.6,2.7,5.2
				c1.2,1.6,2.7,2.8,4.5,3.5c1.8,0.8,4,1.2,6.4,1.2c2.4,0,4.6-0.4,6.5-1.2c1.9-0.8,3.4-2,4.7-3.7c1.3-1.7,2.2-3.4,2.8-5.2
				c0.6-1.8,0.9-3.7,0.9-5.7c0-2.1-0.4-4.1-1.1-5.8C128.1,83.1,127,81.6,125.6,80.4z"/>
			<rect id="XMLID_2364_" x="100.5" y="64.3" class="st0" width="5.6" height="7.1"/>
		</g>
		<g id="XMLID_2360_">
			<rect id="XMLID_2362_" x="209.7" y="64.3" class="st1" width="5.6" height="7.1"/>
			<path id="XMLID_2361_" class="st1" d="M238,84.8c-0.7-1.7-1.8-3.2-3.2-4.4c-1.4-1.3-2.9-2.2-4.6-2.8c-1.6-0.6-3.4-0.9-5.2-0.9
				c-0.1,0-0.2,0-0.4,0c-0.1,0-0.2,0-0.3,0c-0.1,0-0.2,0.1-0.3,0.1c-0.1,0-0.2,0-0.3,0c-0.2,0-0.5,0.1-0.7,0.1c-0.2,0-0.4,0-0.6,0.1
				c-0.5,0.1-0.9,0.2-1.4,0.3c-0.4,0.1-0.9,0.3-1.3,0.4c-0.4,0.2-0.9,0.3-1.3,0.5c-0.4,0.2-0.8,0.4-1.3,0.6V84
				c0.2-0.1,0.3-0.1,0.4-0.2c0.1-0.1,0.3-0.1,0.4-0.1c0.1,0,0.1-0.1,0.2-0.1c0.1,0,0.1-0.1,0.2-0.1c0,0,0.1,0,0.2-0.1
				c0.1,0,0.2-0.1,0.2-0.1h0.1l0.1-0.1c0.4-0.2,0.9-0.4,1.3-0.6c0.4-0.2,0.8-0.3,1.3-0.5c0.4-0.2,0.9-0.3,1.4-0.4
				c0.5-0.1,1.1-0.1,1.7-0.1c0,0,0.1,0,0.1,0c0,0,0.1,0,0.2,0c0,0,0.1,0.1,0.1,0.1c0.1,0,0.1,0,0.1,0c0.1,0,0.2,0,0.3,0
				c0.1,0,0.2,0,0.3,0c0.9,0.1,1.9,0.4,2.8,0.9c0.9,0.5,1.7,1.1,2.5,1.9c0.8,0.8,1.4,1.7,1.8,2.9c0.4,1.2,0.6,2.6,0.6,4.1
				c0,0.2,0,0.4,0,0.6c0,0.2,0,0.4-0.1,0.7c0,0.2-0.1,0.5-0.1,0.7c0,0.2-0.1,0.4-0.1,0.6c-0.2,0.9-0.6,1.7-1.1,2.5
				c-0.5,0.8-1.1,1.6-1.8,2.4c-0.8,0.8-1.6,1.3-2.7,1.7c-1,0.4-2.2,0.6-3.5,0.6c-1.4,0-2.6-0.2-3.7-0.7c-1.1-0.5-2-1.2-2.8-2.1
				c-0.8-0.9-1.3-2-1.7-3.3c-0.4-1.2-0.6-2.7-0.6-4.2V73.9h-5.6v16.6c0,2.1,0.3,4.1,0.9,5.9c0.6,1.8,1.5,3.6,2.7,5.2
				c1.2,1.6,2.7,2.8,4.5,3.5c1.8,0.8,4,1.2,6.4,1.2c2.4,0,4.6-0.4,6.5-1.2c1.9-0.8,3.4-2,4.7-3.7c1.3-1.7,2.2-3.4,2.8-5.2
				c0.6-1.8,0.9-3.7,0.9-5.7C239.1,88.4,238.8,86.5,238,84.8z"/>
		</g>
	</g>
	<g id="XMLID_2323_">
		<path id="XMLID_2357_" class="st0" d="M141.6,126.9v0.8h-10.3v-15.2h10.2v0.8h-9.3v6.1h8.7v0.8h-8.7v6.7H141.6z"/>
		<path id="XMLID_2355_" class="st0" d="M143.4,124.1c0.1,1,0.5,1.8,1.1,2.3c0.7,0.6,1.5,0.9,2.5,0.9c0.4,0,0.8,0,1.2-0.1
			c0.4-0.1,0.8-0.2,1.1-0.3c0.4-0.2,0.6-0.4,0.9-0.7c0.2-0.3,0.3-0.7,0.3-1.1c0-0.5-0.1-0.9-0.3-1.2c-0.2-0.3-0.5-0.5-0.9-0.7
			c-0.3-0.2-0.7-0.3-1.2-0.4c-0.4-0.1-0.9-0.2-1.4-0.3c-0.5-0.1-0.9-0.2-1.4-0.4c-0.4-0.1-0.8-0.3-1.2-0.5c-0.4-0.2-0.7-0.5-0.9-0.9
			c-0.2-0.4-0.3-0.8-0.3-1.4c0-0.6,0.1-1,0.4-1.4c0.2-0.4,0.5-0.6,0.9-0.9c0.8-0.4,1.7-0.6,2.6-0.6c1.2,0,2.2,0.3,2.9,0.8
			c0.7,0.5,1.1,1.4,1.1,2.7h-0.8c0-1-0.3-1.7-0.9-2.1c-0.6-0.4-1.4-0.6-2.3-0.6c-0.8,0-1.5,0.1-2.1,0.4c-0.3,0.2-0.5,0.4-0.7,0.6
			c-0.2,0.3-0.3,0.6-0.3,1c0,0.4,0.1,0.8,0.3,1c0.2,0.3,0.5,0.5,0.8,0.7c0.2,0.1,0.4,0.2,0.6,0.2c0.2,0.1,0.4,0.1,0.6,0.2
			c0.2,0,0.4,0.1,0.7,0.1c0.2,0.1,0.4,0.1,0.6,0.2c1.1,0.2,2,0.4,2.8,0.9c0.3,0.2,0.6,0.5,0.8,0.9c0.2,0.4,0.3,0.9,0.3,1.4
			s-0.1,1-0.4,1.4c-0.2,0.4-0.6,0.7-1,1c-0.4,0.2-0.9,0.4-1.4,0.5c-0.5,0.1-1,0.2-1.5,0.2c-1.3,0-2.3-0.3-3.1-1
			c-0.8-0.7-1.2-1.6-1.3-2.9H143.4z"/>
		<path id="XMLID_2353_" class="st0" d="M157.3,117.5h-2.4v7.6c0,0.9,0.2,1.4,0.6,1.6c0.4,0.2,1,0.3,1.7,0.3v0.7c-0.4,0-0.8,0-1.2,0
			c-0.4,0-0.7-0.1-1-0.3c-0.3-0.2-0.5-0.4-0.7-0.8c-0.2-0.4-0.2-0.8-0.2-1.4v-7.6h-2v-0.7h2v-3.4h0.8v3.4h2.4V117.5z"/>
		<path id="XMLID_2351_" class="st0" d="M167.4,127.7h-0.8v-2.3h0c-0.3,0.8-0.8,1.4-1.5,1.9c-0.7,0.5-1.5,0.7-2.4,0.7
			c-0.9,0-1.7-0.2-2.2-0.5c-0.5-0.3-0.9-0.7-1.2-1.2c-0.2-0.5-0.4-1-0.4-1.5c-0.1-0.5-0.1-0.9-0.1-1.2v-6.8h0.8v6.9
			c0,0.3,0,0.6,0.1,1c0.1,0.4,0.2,0.8,0.4,1.2c0.2,0.4,0.5,0.7,0.9,1c0.4,0.3,1,0.4,1.7,0.4c1.3,0,2.2-0.4,2.9-1.3
			c0.7-0.8,1-1.9,1-3.3v-5.9h0.8V127.7z"/>
		<path id="XMLID_2348_" class="st0" d="M178.2,125.4L178.2,125.4c-0.9,1.7-2.3,2.6-4.2,2.6c-1.6,0-2.8-0.6-3.6-1.7
			c-0.8-1.1-1.2-2.4-1.1-4c0-1.7,0.4-3,1.2-4.1c0.8-1.1,2-1.6,3.7-1.6c0.9,0,1.8,0.2,2.5,0.7c0.4,0.2,0.7,0.5,1,0.9
			c0.3,0.3,0.5,0.7,0.6,1.2h0v-6.7h0.8v15.2h-0.8V125.4z M177.2,125.7c0.7-1,1-2.1,1-3.4c0-1.3-0.3-2.5-1-3.5
			c-0.7-1-1.7-1.5-3.1-1.6c-1.4,0-2.5,0.5-3.1,1.5c-0.7,1-1,2.2-1,3.5c0,1.3,0.3,2.5,1,3.4c0.7,1,1.7,1.5,3.1,1.5
			C175.6,127.3,176.6,126.7,177.2,125.7z"/>
		<path id="XMLID_2345_" class="st0" d="M181.8,114.8v-2.2h0.8v2.2H181.8z M181.8,127.7v-10.9h0.8v10.9H181.8z"/>
		<path id="XMLID_2342_" class="st0" d="M186,118.2c0.9-1.1,2.1-1.7,3.7-1.7c1.6,0,2.9,0.6,3.7,1.7c0.9,1.1,1.3,2.4,1.3,4
			c0,1.6-0.4,2.9-1.3,4c-0.9,1.1-2.1,1.7-3.7,1.7c-1.6,0-2.8-0.6-3.7-1.7c-0.9-1.1-1.3-2.4-1.3-4C184.7,120.7,185.1,119.3,186,118.2
			z M186.6,125.7c0.7,1,1.7,1.5,3.1,1.5c1.4,0,2.4-0.5,3.1-1.5c0.7-1,1.1-2.1,1.1-3.5c0-1.4-0.4-2.5-1.1-3.5c-0.7-1-1.8-1.5-3.1-1.5
			c-1.4,0-2.4,0.5-3.1,1.5c-0.7,1-1.1,2.1-1.1,3.5C185.5,123.6,185.8,124.8,186.6,125.7z"/>
		<path id="XMLID_2340_" class="st0" d="M215.8,120.3v7.4H215v-3.2h0c-0.4,1.1-1.1,2-2.1,2.6c-1.1,0.6-2.3,1-3.6,1
			c-1.1,0-2.2-0.2-3-0.6c-0.9-0.4-1.6-1-2.3-1.7c-1.2-1.5-1.8-3.3-1.8-5.6c0-2.2,0.6-4.1,1.9-5.6c1.2-1.6,3-2.4,5.3-2.4
			c1.6,0,3,0.5,4.1,1.3c1.2,0.9,1.9,2.1,2.2,3.7h-0.9c-0.8-2.8-2.6-4.2-5.4-4.2c-2,0-3.6,0.8-4.6,2.2c-1.1,1.4-1.6,3.1-1.6,5
			c0,2,0.5,3.6,1.6,5c1,1.4,2.6,2.1,4.7,2.1c1.8,0,3.3-0.6,4.3-1.7c1-1.1,1.5-2.6,1.4-4.5h-5.6v-0.8H215.8z"/>
		<path id="XMLID_2338_" class="st0" d="M219,119.2L219,119.2c0.3-0.7,0.8-1.3,1.6-1.8c0.8-0.5,1.7-0.7,2.7-0.7v0.8
			c-0.4-0.1-0.9,0-1.4,0.1c-0.5,0.2-1.1,0.5-1.6,1c-0.4,0.4-0.7,0.8-0.9,1.3c-0.2,0.5-0.3,1.1-0.4,1.9v6h-0.8v-10.9h0.8V119.2z"/>
		<path id="XMLID_2334_" class="st0" d="M232.2,125.7c0,0.3,0,0.6,0.1,0.9c0.1,0.3,0.3,0.4,0.6,0.4c0.1,0,0.3,0,0.6-0.1v0.7
			c-0.2,0.1-0.4,0.1-0.7,0.1c-0.6,0-1-0.2-1.2-0.5c-0.2-0.3-0.3-0.7-0.3-1.1v-0.6h0c-0.3,0.7-0.7,1.2-1.4,1.7
			c-0.7,0.5-1.6,0.7-2.6,0.7c-1.1,0-1.9-0.2-2.6-0.7c-0.7-0.5-1-1.2-1.1-2.4c0-0.6,0.1-1.2,0.4-1.6c0.2-0.4,0.6-0.7,1-0.9
			c0.4-0.2,0.8-0.4,1.3-0.5c0.2-0.1,0.5-0.1,0.7-0.2c0.2,0,0.4,0,0.7,0c1.7-0.1,2.8-0.3,3.2-0.6c0.2-0.2,0.4-0.4,0.4-0.7
			c0-0.3,0.1-0.6,0.1-1c0-0.1,0-0.3-0.1-0.6c-0.1-0.2-0.2-0.5-0.5-0.7c-0.2-0.2-0.5-0.4-0.9-0.6c-0.4-0.2-0.9-0.2-1.6-0.2
			c-2,0-3.2,1-3.4,2.9h-0.8c0.2-2.4,1.5-3.6,4.2-3.6c1,0,1.9,0.2,2.6,0.6c0.8,0.4,1.2,1.2,1.2,2.3V125.7z M230.7,121.9
			c-0.3,0.1-0.6,0.2-1,0.2c-0.7,0.1-1.5,0.2-2.3,0.3c-2,0.1-3,1-3,2.5c0,0.7,0.2,1.2,0.7,1.7c0.5,0.5,1.2,0.7,2.1,0.7
			c0.9,0,1.7-0.2,2.2-0.5c0.6-0.3,1-0.7,1.2-1.1c0.3-0.4,0.4-0.9,0.5-1.3c0.1-0.4,0.1-0.7,0.1-0.8v-2
			C231.2,121.7,231,121.8,230.7,121.9z M229.7,112.2h1.1l-2.8,3h-0.8L229.7,112.2z"/>
		<path id="XMLID_2332_" class="st0" d="M233.6,117.5v-0.7h2v-2.3c0-0.8,0.2-1.3,0.7-1.7c0.4-0.3,1-0.5,1.7-0.5c0.3,0,0.6,0,1,0.1
			v0.7c-0.3-0.1-0.6-0.1-1-0.1c-0.5,0-0.8,0.1-1.1,0.3c-0.3,0.2-0.5,0.6-0.5,1.2v2.2h2.3v0.7h-2.3v10.2h-0.8v-10.2H233.6z"/>
		<path id="XMLID_2329_" class="st0" d="M240.1,114.8v-2.2h0.8v2.2H240.1z M240.1,127.7v-10.9h0.8v10.9H240.1z"/>
		<path id="XMLID_2327_" class="st0" d="M251.7,120.2c-0.1-1-0.5-1.7-1.1-2.2c-0.7-0.5-1.5-0.7-2.6-0.7c-1.4,0-2.4,0.5-3.1,1.5
			c-0.7,1-1.1,2.1-1.1,3.4c0,1.5,0.4,2.7,1.1,3.7c0.7,1,1.7,1.4,3.1,1.5c1,0,1.9-0.3,2.6-1c0.7-0.6,1.1-1.4,1.2-2.4h0.8
			c-0.2,1.3-0.7,2.3-1.5,3c-0.9,0.7-1.9,1.1-3.1,1.1c-1.8,0-3-0.6-3.8-1.8c-0.8-1.1-1.2-2.5-1.2-4c0-1.6,0.4-2.9,1.3-3.9
			c0.9-1.1,2.1-1.6,3.7-1.7c1.2,0,2.2,0.3,3.1,0.9c0.8,0.6,1.3,1.5,1.4,2.8H251.7z"/>
		<path id="XMLID_2324_" class="st0" d="M255.3,118.2c0.9-1.1,2.1-1.7,3.7-1.7c1.6,0,2.9,0.6,3.7,1.7c0.9,1.1,1.3,2.4,1.3,4
			c0,1.6-0.4,2.9-1.3,4c-0.9,1.1-2.1,1.7-3.7,1.7c-1.6,0-2.8-0.6-3.7-1.7c-0.9-1.1-1.3-2.4-1.3-4C254,120.7,254.4,119.3,255.3,118.2
			z M255.9,125.7c0.7,1,1.7,1.5,3.1,1.5c1.4,0,2.4-0.5,3.1-1.5c0.7-1,1.1-2.1,1.1-3.5c0-1.4-0.4-2.5-1.1-3.5c-0.7-1-1.8-1.5-3.1-1.5
			c-1.4,0-2.4,0.5-3.1,1.5c-0.7,1-1.1,2.1-1.1,3.5C254.8,123.6,255.2,124.8,255.9,125.7z"/>
	</g>
	<g id="XMLID_2313_">
		<path id="XMLID_2320_" class="st1" d="M80.3,61c0.4,6.3,1.6,22.1,0,29h11.8c-1-5.8-0.9-25.4,0-29H80.3z M80.3,61"/>
		<path id="XMLID_2317_" class="st1" d="M80.3,93.9c0.4,8.6,1.6,29.9,0,39.4h11.8c-1-7.8-0.9-34.5,0-39.4H80.3z M80.3,93.9"/>
		<path id="XMLID_2314_" class="st1" d="M81,92l-0.6-0.8c-8.4-1.5-15.4-5.5-20.1-8.6c0.8-1.3,2.4-4,2.4-7.3
			c0.1-4.5-2.5-13.5-2.5-13.5s-3,8.9-3.2,13.3c-0.1,2.5,0.7,4.7,1.4,6.2c-2.4-1.8-3.8-3.1-3.9-3.1l0,0c-0.6-2-1.8-5.3-4.3-7.8
			c-4-4-14.4-9.4-14.4-9.4s5.4,10.4,9.4,14.4c3.3,3.3,7.7,4.4,9.2,4.6c1.4,1.3,4.7,3.9,9.3,6.5c-1.5-0.7-4.3-1.6-7.3-1.2
			c-4.5,0.5-13,4.4-13,4.4s9.2,1.7,13.7,1.1c4.3-0.5,7.5-3.5,7.7-3.7c4.3,2.3,9.5,4.5,15.3,5.5l0.1,0L81,92z M81,92"/>
	</g>
	<path id="XMLID_2312_" class="st0" d="M81.2,135.5h10.2c0.3,0,0.6,0.4,0.4,0.7l-5.1,7.7c-0.2,0.3-0.6,0.3-0.7,0l-5.1-7.7
		C80.6,135.8,80.8,135.5,81.2,135.5z"/>
	<path id="XMLID_2311_" class="st0" d="M80.3,58.3h11.8c0,0-0.5-7.1-5.9-7.1C86.2,51.2,80.5,51.2,80.3,58.3z"/>
	<g>
		<path class="st1" d="M142.4,141.1v-6.2h2.1c0.5,0,0.9,0.1,1.3,0.2c0.4,0.2,0.7,0.4,0.9,0.7c0.2,0.3,0.4,0.6,0.5,1
			c0.1,0.4,0.2,0.8,0.2,1.2c0,0.5-0.1,0.9-0.2,1.3c-0.1,0.4-0.3,0.7-0.6,1c-0.3,0.3-0.6,0.5-0.9,0.6c-0.4,0.1-0.8,0.2-1.2,0.2H142.4
			z M146.9,138c0-0.4-0.1-0.7-0.2-1.1c-0.1-0.3-0.3-0.6-0.5-0.8s-0.5-0.4-0.8-0.6c-0.3-0.1-0.7-0.2-1.1-0.2h-1.6v5.4h1.6
			c0.4,0,0.8-0.1,1.1-0.2c0.3-0.1,0.6-0.3,0.8-0.6c0.2-0.2,0.4-0.5,0.5-0.9C146.9,138.7,146.9,138.4,146.9,138z"/>
		<path class="st1" d="M148.5,135.5v-0.8h0.4v0.8H148.5z M148.5,141.1v-4.5h0.4v4.5H148.5z"/>
		<path class="st1" d="M151.7,141.2c-0.3,0-0.7-0.1-1-0.2c-0.3-0.1-0.6-0.3-0.8-0.5l0.2-0.3c0.2,0.2,0.5,0.4,0.8,0.5
			c0.3,0.1,0.5,0.2,0.9,0.2c0.4,0,0.7-0.1,1-0.2c0.2-0.2,0.4-0.4,0.4-0.7c0-0.1,0-0.3-0.1-0.4c-0.1-0.1-0.2-0.2-0.3-0.2
			c-0.1-0.1-0.3-0.1-0.5-0.2c-0.2-0.1-0.4-0.1-0.6-0.2c-0.3-0.1-0.5-0.1-0.7-0.2c-0.2-0.1-0.3-0.1-0.5-0.2c-0.1-0.1-0.2-0.2-0.3-0.3
			c-0.1-0.1-0.1-0.3-0.1-0.4c0-0.2,0-0.4,0.1-0.6c0.1-0.2,0.2-0.3,0.4-0.4c0.2-0.1,0.3-0.2,0.5-0.2c0.2-0.1,0.4-0.1,0.6-0.1
			c0.4,0,0.7,0.1,0.9,0.2c0.3,0.1,0.5,0.3,0.6,0.5l-0.2,0.2c-0.2-0.2-0.3-0.3-0.6-0.4c-0.2-0.1-0.5-0.1-0.8-0.1
			c-0.2,0-0.3,0-0.5,0.1c-0.1,0-0.3,0.1-0.4,0.2c-0.1,0.1-0.2,0.2-0.3,0.3c-0.1,0.1-0.1,0.3-0.1,0.4c0,0.1,0,0.2,0.1,0.3
			c0,0.1,0.1,0.2,0.2,0.2c0.1,0.1,0.2,0.1,0.4,0.2c0.2,0,0.3,0.1,0.5,0.1c0.3,0.1,0.5,0.1,0.8,0.2c0.2,0.1,0.4,0.1,0.6,0.2
			c0.1,0.1,0.3,0.2,0.3,0.3c0.1,0.1,0.1,0.3,0.1,0.5c0,0.4-0.2,0.7-0.5,1C152.6,141,152.2,141.2,151.7,141.2z"/>
		<path class="st1" d="M156.4,141.2c-0.3,0-0.6-0.1-0.9-0.2c-0.3-0.1-0.5-0.3-0.7-0.5c-0.2-0.2-0.4-0.5-0.5-0.8
			c-0.1-0.3-0.2-0.6-0.2-0.9c0-0.3,0.1-0.6,0.2-0.9c0.1-0.3,0.3-0.5,0.5-0.7c0.2-0.2,0.4-0.4,0.7-0.5c0.3-0.1,0.6-0.2,0.9-0.2
			c0.3,0,0.6,0.1,0.9,0.2c0.3,0.1,0.5,0.3,0.7,0.5c0.2,0.2,0.4,0.5,0.5,0.7c0.1,0.3,0.2,0.6,0.2,0.9c0,0,0,0.1,0,0.1
			c0,0,0,0.1,0,0.1h-4c0,0.3,0.1,0.5,0.2,0.7c0.1,0.2,0.2,0.4,0.4,0.6c0.2,0.2,0.3,0.3,0.6,0.4c0.2,0.1,0.4,0.1,0.7,0.1
			c0.2,0,0.3,0,0.5-0.1c0.2,0,0.3-0.1,0.4-0.2c0.1-0.1,0.2-0.2,0.3-0.3s0.2-0.2,0.2-0.4l0.4,0.1c-0.1,0.2-0.2,0.3-0.3,0.4
			c-0.1,0.1-0.3,0.3-0.4,0.4c-0.2,0.1-0.3,0.2-0.5,0.2C156.8,141.1,156.6,141.2,156.4,141.2z M158.1,138.6c0-0.3-0.1-0.5-0.2-0.7
			c-0.1-0.2-0.2-0.4-0.4-0.6c-0.2-0.2-0.3-0.3-0.6-0.4c-0.2-0.1-0.4-0.1-0.7-0.1s-0.5,0-0.7,0.1c-0.2,0.1-0.4,0.2-0.6,0.4
			c-0.2,0.2-0.3,0.4-0.4,0.6c-0.1,0.2-0.2,0.5-0.2,0.7H158.1z"/>
		<path class="st1" d="M163.2,141.1h-0.4v-2.5c0-0.6-0.1-1-0.2-1.3c-0.2-0.3-0.4-0.4-0.8-0.4c-0.2,0-0.4,0-0.6,0.1s-0.4,0.2-0.5,0.3
			c-0.2,0.1-0.3,0.3-0.4,0.4c-0.1,0.2-0.2,0.4-0.3,0.6v2.8h-0.4v-4.5h0.4v1.1c0.1-0.2,0.2-0.3,0.3-0.5c0.1-0.1,0.3-0.3,0.5-0.4
			c0.2-0.1,0.4-0.2,0.5-0.2c0.2-0.1,0.4-0.1,0.6-0.1c0.5,0,0.8,0.2,1,0.5c0.2,0.3,0.3,0.8,0.3,1.5V141.1z M161.9,135.4
			c-0.1,0-0.2,0-0.3-0.1c-0.1,0-0.2-0.1-0.3-0.1c-0.1,0-0.2-0.1-0.2-0.1s-0.2-0.1-0.2-0.1c-0.1,0-0.2,0-0.2,0.1
			c-0.1,0-0.1,0.1-0.1,0.1c0,0,0,0.1-0.1,0.1c0,0,0,0.1,0,0.1H160c0,0,0-0.1,0-0.2c0-0.1,0.1-0.2,0.1-0.2c0.1-0.1,0.1-0.2,0.2-0.2
			c0.1-0.1,0.2-0.1,0.4-0.1c0.1,0,0.2,0,0.3,0.1s0.2,0.1,0.3,0.1c0.1,0,0.2,0.1,0.2,0.1s0.2,0.1,0.3,0.1c0.1,0,0.2,0,0.3-0.1
			c0.1,0,0.1-0.1,0.1-0.1c0,0,0.1-0.1,0.1-0.1c0,0,0-0.1,0-0.1h0.3c0,0,0,0.1,0,0.2c0,0.1-0.1,0.2-0.1,0.2c-0.1,0.1-0.1,0.2-0.2,0.2
			C162.2,135.4,162,135.4,161.9,135.4z"/>
		<path class="st1" d="M166.4,141.2c-0.3,0-0.6-0.1-0.9-0.2c-0.3-0.1-0.5-0.3-0.7-0.5c-0.2-0.2-0.4-0.5-0.5-0.7
			c-0.1-0.3-0.2-0.6-0.2-0.9c0-0.3,0.1-0.6,0.2-0.9c0.1-0.3,0.3-0.5,0.5-0.7c0.2-0.2,0.4-0.4,0.7-0.5c0.3-0.1,0.6-0.2,0.9-0.2
			s0.6,0.1,0.9,0.2c0.3,0.1,0.5,0.3,0.7,0.5c0.2,0.2,0.4,0.5,0.5,0.7c0.1,0.3,0.2,0.6,0.2,0.9c0,0.3-0.1,0.6-0.2,0.9
			c-0.1,0.3-0.3,0.5-0.5,0.7c-0.2,0.2-0.4,0.4-0.7,0.5C167,141.1,166.7,141.2,166.4,141.2z M164.6,138.8c0,0.3,0,0.5,0.1,0.8
			c0.1,0.2,0.2,0.4,0.4,0.6c0.2,0.2,0.3,0.3,0.6,0.4c0.2,0.1,0.4,0.2,0.7,0.2c0.2,0,0.5-0.1,0.7-0.2c0.2-0.1,0.4-0.2,0.6-0.4
			c0.2-0.2,0.3-0.4,0.4-0.6c0.1-0.2,0.1-0.5,0.1-0.8c0-0.3,0-0.5-0.1-0.8c-0.1-0.2-0.2-0.4-0.4-0.6c-0.2-0.2-0.3-0.3-0.6-0.4
			c-0.2-0.1-0.4-0.2-0.7-0.2c-0.2,0-0.5,0.1-0.7,0.2c-0.2,0.1-0.4,0.2-0.6,0.4c-0.2,0.2-0.3,0.4-0.4,0.6
			C164.7,138.3,164.6,138.6,164.6,138.8z"/>
		<path class="st1" d="M176.6,140.1c-0.6,0.7-1.3,1-2.1,1c-0.4,0-0.8-0.1-1.2-0.3c-0.4-0.2-0.7-0.4-0.9-0.7c-0.3-0.3-0.5-0.6-0.6-1
			c-0.1-0.4-0.2-0.8-0.2-1.1c0-0.4,0.1-0.8,0.2-1.2c0.1-0.4,0.3-0.7,0.6-1c0.3-0.3,0.6-0.5,0.9-0.7c0.3-0.2,0.7-0.3,1.1-0.3
			c0.3,0,0.6,0,0.8,0.1c0.2,0.1,0.5,0.2,0.7,0.3s0.4,0.3,0.5,0.4c0.1,0.2,0.3,0.3,0.4,0.5l-0.4,0.2c-0.2-0.4-0.5-0.7-0.8-0.9
			c-0.3-0.2-0.7-0.3-1.2-0.3c-0.4,0-0.7,0.1-1,0.2c-0.3,0.2-0.5,0.4-0.8,0.6c-0.2,0.3-0.4,0.5-0.5,0.9c-0.1,0.3-0.2,0.7-0.2,1
			c0,0.4,0.1,0.7,0.2,1c0.1,0.3,0.3,0.6,0.5,0.9c0.2,0.2,0.5,0.4,0.8,0.6c0.3,0.1,0.6,0.2,1,0.2c0.4,0,0.7-0.1,1.1-0.3
			c0.3-0.2,0.7-0.4,1-0.8v-1.2h-1.4v-0.4h1.8v3h-0.4V140.1z"/>
		<path class="st1" d="M180.2,136.9c-0.4,0-0.8,0.1-1.1,0.4c-0.3,0.2-0.5,0.5-0.6,0.9v2.8h-0.4v-4.5h0.4v1.1
			c0.2-0.3,0.4-0.6,0.6-0.8c0.3-0.2,0.5-0.3,0.8-0.3c0.1,0,0.1,0,0.2,0s0.1,0,0.1,0V136.9z"/>
		<path class="st1" d="M182.1,141.2c-0.2,0-0.4,0-0.6-0.1c-0.2-0.1-0.3-0.2-0.5-0.3c-0.1-0.1-0.2-0.3-0.3-0.4s-0.1-0.4-0.1-0.6
			c0-0.2,0-0.4,0.1-0.5c0.1-0.2,0.2-0.3,0.4-0.4c0.2-0.1,0.4-0.2,0.6-0.3c0.2-0.1,0.5-0.1,0.8-0.1c0.2,0,0.5,0,0.7,0.1
			c0.2,0,0.5,0.1,0.7,0.2v-0.4c0-0.4-0.1-0.8-0.4-1c-0.2-0.3-0.6-0.4-1-0.4c-0.2,0-0.5,0-0.7,0.1c-0.2,0.1-0.5,0.2-0.8,0.4l-0.2-0.3
			c0.6-0.4,1.1-0.6,1.7-0.6c0.5,0,1,0.2,1.3,0.5c0.3,0.3,0.5,0.8,0.5,1.3v2.2c0,0.1,0.1,0.2,0.2,0.2v0.4c0,0-0.1,0-0.1,0
			c0,0-0.1,0-0.1,0c-0.1,0-0.2,0-0.3-0.1c-0.1-0.1-0.1-0.2-0.1-0.3v-0.4c-0.2,0.3-0.5,0.5-0.8,0.6
			C182.8,141.1,182.5,141.2,182.1,141.2z M182.2,140.8c0.3,0,0.6-0.1,0.9-0.2c0.3-0.1,0.5-0.3,0.6-0.5c0.1-0.1,0.1-0.2,0.1-0.3V139
			c-0.2-0.1-0.4-0.1-0.7-0.2c-0.2,0-0.5-0.1-0.7-0.1c-0.2,0-0.4,0-0.6,0.1c-0.2,0-0.3,0.1-0.5,0.2c-0.1,0.1-0.2,0.2-0.3,0.3
			c-0.1,0.1-0.1,0.3-0.1,0.4c0,0.2,0,0.3,0.1,0.4c0.1,0.1,0.1,0.2,0.2,0.3c0.1,0.1,0.2,0.2,0.4,0.2
			C181.9,140.8,182,140.8,182.2,140.8z M182.6,135.6l-0.3-0.1l0.5-0.7h0.5L182.6,135.6z"/>
		<path class="st1" d="M185.8,136.9h-0.6v-0.4h0.6v-0.1c0-0.2,0-0.4,0.1-0.6c0.1-0.2,0.1-0.4,0.3-0.6c0.1-0.2,0.3-0.3,0.5-0.4
			c0.2-0.1,0.4-0.2,0.7-0.2c0.2,0,0.3,0,0.4,0c0.1,0,0.3,0.1,0.4,0.1c0.1,0,0.2,0.1,0.3,0.1c0.1,0,0.1,0.1,0.1,0.1l-0.2,0.3
			c-0.1-0.1-0.2-0.1-0.4-0.2c-0.2-0.1-0.4-0.1-0.6-0.1c-0.2,0-0.4,0-0.5,0.1c-0.1,0.1-0.3,0.2-0.3,0.3c-0.1,0.1-0.2,0.3-0.2,0.4
			c0,0.2-0.1,0.3-0.1,0.5v0.2h2.2v4.5h-0.4v-4.2h-1.8v4.2h-0.4V136.9z"/>
		<path class="st1" d="M189.5,138.8c0-0.3,0.1-0.6,0.2-0.9c0.1-0.3,0.3-0.5,0.5-0.7c0.2-0.2,0.4-0.4,0.7-0.5
			c0.3-0.1,0.6-0.2,0.9-0.2c0.4,0,0.8,0.1,1.1,0.3c0.3,0.2,0.5,0.4,0.7,0.8l-0.4,0.1c-0.1-0.2-0.3-0.4-0.6-0.6
			c-0.2-0.1-0.5-0.2-0.8-0.2c-0.2,0-0.5,0-0.7,0.1c-0.2,0.1-0.4,0.2-0.6,0.4c-0.2,0.2-0.3,0.4-0.4,0.6c-0.1,0.2-0.1,0.5-0.1,0.8
			c0,0.3,0,0.5,0.1,0.8c0.1,0.2,0.2,0.4,0.4,0.6c0.2,0.2,0.3,0.3,0.6,0.4c0.2,0.1,0.4,0.2,0.7,0.2c0.2,0,0.3,0,0.5-0.1
			c0.2,0,0.3-0.1,0.4-0.2c0.1-0.1,0.2-0.2,0.3-0.3c0.1-0.1,0.2-0.2,0.2-0.3l0.4,0.1c-0.1,0.2-0.1,0.3-0.3,0.4
			c-0.1,0.1-0.3,0.3-0.4,0.4c-0.2,0.1-0.3,0.2-0.5,0.2c-0.2,0.1-0.4,0.1-0.6,0.1c-0.3,0-0.6-0.1-0.9-0.2c-0.3-0.1-0.5-0.3-0.7-0.5
			c-0.2-0.2-0.4-0.5-0.5-0.8C189.6,139.4,189.5,139.1,189.5,138.8z"/>
		<path class="st1" d="M196.4,141.2c-0.3,0-0.6-0.1-0.9-0.2c-0.3-0.1-0.5-0.3-0.7-0.5s-0.4-0.5-0.5-0.7c-0.1-0.3-0.2-0.6-0.2-0.9
			c0-0.3,0.1-0.6,0.2-0.9c0.1-0.3,0.3-0.5,0.5-0.7c0.2-0.2,0.4-0.4,0.7-0.5c0.3-0.1,0.6-0.2,0.9-0.2s0.6,0.1,0.9,0.2
			c0.3,0.1,0.5,0.3,0.7,0.5c0.2,0.2,0.4,0.5,0.5,0.7c0.1,0.3,0.2,0.6,0.2,0.9c0,0.3-0.1,0.6-0.2,0.9c-0.1,0.3-0.3,0.5-0.5,0.7
			c-0.2,0.2-0.4,0.4-0.7,0.5C197,141.1,196.7,141.2,196.4,141.2z M194.7,138.8c0,0.3,0,0.5,0.1,0.8c0.1,0.2,0.2,0.4,0.4,0.6
			c0.2,0.2,0.3,0.3,0.6,0.4c0.2,0.1,0.4,0.2,0.7,0.2s0.5-0.1,0.7-0.2c0.2-0.1,0.4-0.2,0.6-0.4c0.2-0.2,0.3-0.4,0.4-0.6
			c0.1-0.2,0.1-0.5,0.1-0.8c0-0.3,0-0.5-0.1-0.8c-0.1-0.2-0.2-0.4-0.4-0.6c-0.2-0.2-0.3-0.3-0.6-0.4c-0.2-0.1-0.4-0.2-0.7-0.2
			c-0.2,0-0.5,0.1-0.7,0.2c-0.2,0.1-0.4,0.2-0.6,0.4c-0.2,0.2-0.3,0.4-0.4,0.6C194.7,138.3,194.7,138.6,194.7,138.8z"/>
		<path class="st1" d="M202,142.2v-7.9h0.4v7.9H202z"/>
		<path class="st1" d="M206.2,141.1v-6.2h2.1c0.5,0,0.9,0.1,1.3,0.2c0.4,0.2,0.7,0.4,0.9,0.7c0.2,0.3,0.4,0.6,0.5,1
			c0.1,0.4,0.2,0.8,0.2,1.2c0,0.5-0.1,0.9-0.2,1.3c-0.1,0.4-0.3,0.7-0.6,1c-0.3,0.3-0.6,0.5-0.9,0.6c-0.4,0.1-0.8,0.2-1.2,0.2H206.2
			z M210.7,138c0-0.4-0.1-0.7-0.2-1.1c-0.1-0.3-0.3-0.6-0.5-0.8s-0.5-0.4-0.8-0.6c-0.3-0.1-0.7-0.2-1.1-0.2h-1.6v5.4h1.6
			c0.4,0,0.8-0.1,1.1-0.2c0.3-0.1,0.6-0.3,0.8-0.6c0.2-0.2,0.4-0.5,0.5-0.9C210.7,138.7,210.7,138.4,210.7,138z"/>
		<path class="st1" d="M212.3,135.5v-0.8h0.4v0.8H212.3z M212.3,141.1v-4.5h0.4v4.5H212.3z"/>
		<path class="st1" d="M215.5,141.2c-0.3,0-0.7-0.1-1-0.2c-0.3-0.1-0.6-0.3-0.8-0.5l0.2-0.3c0.2,0.2,0.5,0.4,0.8,0.5
			c0.3,0.1,0.5,0.2,0.9,0.2c0.4,0,0.7-0.1,1-0.2c0.2-0.2,0.4-0.4,0.4-0.7c0-0.1,0-0.3-0.1-0.4c-0.1-0.1-0.2-0.2-0.3-0.2
			c-0.1-0.1-0.3-0.1-0.5-0.2c-0.2-0.1-0.4-0.1-0.6-0.2c-0.3-0.1-0.5-0.1-0.7-0.2c-0.2-0.1-0.3-0.1-0.5-0.2c-0.1-0.1-0.2-0.2-0.3-0.3
			c-0.1-0.1-0.1-0.3-0.1-0.4c0-0.2,0-0.4,0.1-0.6c0.1-0.2,0.2-0.3,0.4-0.4c0.2-0.1,0.3-0.2,0.5-0.2c0.2-0.1,0.4-0.1,0.6-0.1
			c0.4,0,0.7,0.1,0.9,0.2c0.3,0.1,0.5,0.3,0.6,0.5l-0.2,0.2c-0.2-0.2-0.3-0.3-0.6-0.4c-0.2-0.1-0.5-0.1-0.8-0.1
			c-0.2,0-0.3,0-0.5,0.1c-0.1,0-0.3,0.1-0.4,0.2c-0.1,0.1-0.2,0.2-0.3,0.3c-0.1,0.1-0.1,0.3-0.1,0.4c0,0.1,0,0.2,0.1,0.3
			c0,0.1,0.1,0.2,0.2,0.2c0.1,0.1,0.2,0.1,0.4,0.2c0.2,0,0.3,0.1,0.5,0.1c0.3,0.1,0.5,0.1,0.8,0.2c0.2,0.1,0.4,0.1,0.6,0.2
			c0.1,0.1,0.3,0.2,0.3,0.3c0.1,0.1,0.1,0.3,0.1,0.5c0,0.4-0.2,0.7-0.5,1C216.5,141,216,141.2,215.5,141.2z"/>
		<path class="st1" d="M220.2,141.2c-0.3,0-0.6-0.1-0.9-0.2c-0.3-0.1-0.5-0.3-0.7-0.5c-0.2-0.2-0.4-0.5-0.5-0.8
			c-0.1-0.3-0.2-0.6-0.2-0.9c0-0.3,0.1-0.6,0.2-0.9c0.1-0.3,0.3-0.5,0.5-0.7c0.2-0.2,0.4-0.4,0.7-0.5c0.3-0.1,0.6-0.2,0.9-0.2
			c0.3,0,0.6,0.1,0.9,0.2c0.3,0.1,0.5,0.3,0.7,0.5c0.2,0.2,0.4,0.5,0.5,0.7c0.1,0.3,0.2,0.6,0.2,0.9c0,0,0,0.1,0,0.1
			c0,0,0,0.1,0,0.1h-4c0,0.3,0.1,0.5,0.2,0.7c0.1,0.2,0.2,0.4,0.4,0.6c0.2,0.2,0.3,0.3,0.6,0.4c0.2,0.1,0.4,0.1,0.7,0.1
			c0.2,0,0.3,0,0.5-0.1c0.2,0,0.3-0.1,0.4-0.2c0.1-0.1,0.2-0.2,0.3-0.3s0.2-0.2,0.2-0.4l0.4,0.1c-0.1,0.2-0.2,0.3-0.3,0.4
			c-0.1,0.1-0.3,0.3-0.4,0.4c-0.2,0.1-0.3,0.2-0.5,0.2C220.6,141.1,220.4,141.2,220.2,141.2z M221.9,138.6c0-0.3-0.1-0.5-0.2-0.7
			s-0.2-0.4-0.4-0.6s-0.3-0.3-0.6-0.4c-0.2-0.1-0.4-0.1-0.7-0.1s-0.5,0-0.7,0.1c-0.2,0.1-0.4,0.2-0.6,0.4c-0.2,0.2-0.3,0.4-0.4,0.6
			c-0.1,0.2-0.2,0.5-0.2,0.7H221.9z"/>
		<path class="st1" d="M227,141.1h-0.4v-2.5c0-0.6-0.1-1-0.2-1.3c-0.2-0.3-0.4-0.4-0.8-0.4c-0.2,0-0.4,0-0.6,0.1s-0.4,0.2-0.5,0.3
			c-0.2,0.1-0.3,0.3-0.4,0.4c-0.1,0.2-0.2,0.4-0.3,0.6v2.8h-0.4v-4.5h0.4v1.1c0.1-0.2,0.2-0.3,0.3-0.5c0.1-0.1,0.3-0.3,0.5-0.4
			c0.2-0.1,0.4-0.2,0.5-0.2c0.2-0.1,0.4-0.1,0.6-0.1c0.5,0,0.8,0.2,1,0.5c0.2,0.3,0.3,0.8,0.3,1.5V141.1z M225.7,135.4
			c-0.1,0-0.2,0-0.3-0.1c-0.1,0-0.2-0.1-0.3-0.1c-0.1,0-0.2-0.1-0.2-0.1c-0.1,0-0.2-0.1-0.2-0.1c-0.1,0-0.2,0-0.2,0.1
			c-0.1,0-0.1,0.1-0.1,0.1c0,0,0,0.1-0.1,0.1c0,0,0,0.1,0,0.1h-0.3c0,0,0-0.1,0-0.2c0-0.1,0.1-0.2,0.1-0.2c0.1-0.1,0.1-0.2,0.2-0.2
			c0.1-0.1,0.2-0.1,0.4-0.1c0.1,0,0.2,0,0.3,0.1c0.1,0,0.2,0.1,0.3,0.1c0.1,0,0.2,0.1,0.2,0.1s0.2,0.1,0.3,0.1c0.1,0,0.2,0,0.3-0.1
			c0.1,0,0.1-0.1,0.1-0.1c0,0,0.1-0.1,0.1-0.1c0,0,0-0.1,0-0.1h0.3c0,0,0,0.1,0,0.2c0,0.1-0.1,0.2-0.1,0.2c-0.1,0.1-0.1,0.2-0.2,0.2
			C226,135.4,225.9,135.4,225.7,135.4z"/>
		<path class="st1" d="M230.2,141.2c-0.3,0-0.6-0.1-0.9-0.2c-0.3-0.1-0.5-0.3-0.7-0.5c-0.2-0.2-0.4-0.5-0.5-0.7
			c-0.1-0.3-0.2-0.6-0.2-0.9c0-0.3,0.1-0.6,0.2-0.9c0.1-0.3,0.3-0.5,0.5-0.7c0.2-0.2,0.4-0.4,0.7-0.5c0.3-0.1,0.6-0.2,0.9-0.2
			c0.3,0,0.6,0.1,0.9,0.2c0.3,0.1,0.5,0.3,0.7,0.5c0.2,0.2,0.4,0.5,0.5,0.7c0.1,0.3,0.2,0.6,0.2,0.9c0,0.3-0.1,0.6-0.2,0.9
			c-0.1,0.3-0.3,0.5-0.5,0.7c-0.2,0.2-0.4,0.4-0.7,0.5C230.8,141.1,230.5,141.2,230.2,141.2z M228.4,138.8c0,0.3,0,0.5,0.1,0.8
			c0.1,0.2,0.2,0.4,0.4,0.6c0.2,0.2,0.3,0.3,0.6,0.4c0.2,0.1,0.4,0.2,0.7,0.2c0.2,0,0.5-0.1,0.7-0.2c0.2-0.1,0.4-0.2,0.6-0.4
			c0.2-0.2,0.3-0.4,0.4-0.6c0.1-0.2,0.1-0.5,0.1-0.8c0-0.3,0-0.5-0.1-0.8c-0.1-0.2-0.2-0.4-0.4-0.6c-0.2-0.2-0.3-0.3-0.6-0.4
			c-0.2-0.1-0.4-0.2-0.7-0.2c-0.2,0-0.5,0.1-0.7,0.2c-0.2,0.1-0.4,0.2-0.6,0.4c-0.2,0.2-0.3,0.4-0.4,0.6
			C228.5,138.3,228.4,138.6,228.4,138.8z"/>
		<path class="st1" d="M237.9,134.9h0.4l0.9,2.2l0.9-2.2h0.4l-1.1,2.6l1.3,3l2.4-5.6h0.5l-2.6,6.2h-0.4l-1.4-3.2l-1.4,3.2h-0.4
			l-2.6-6.2h0.5l2.4,5.6l1.3-3L237.9,134.9z"/>
		<path class="st1" d="M245.8,141.2c-0.3,0-0.6-0.1-0.9-0.2c-0.3-0.1-0.5-0.3-0.7-0.5c-0.2-0.2-0.4-0.5-0.5-0.8
			c-0.1-0.3-0.2-0.6-0.2-0.9c0-0.3,0.1-0.6,0.2-0.9c0.1-0.3,0.3-0.5,0.5-0.7c0.2-0.2,0.4-0.4,0.7-0.5c0.3-0.1,0.6-0.2,0.9-0.2
			c0.3,0,0.6,0.1,0.9,0.2c0.3,0.1,0.5,0.3,0.7,0.5c0.2,0.2,0.4,0.5,0.5,0.7c0.1,0.3,0.2,0.6,0.2,0.9c0,0,0,0.1,0,0.1
			c0,0,0,0.1,0,0.1h-4c0,0.3,0.1,0.5,0.2,0.7c0.1,0.2,0.2,0.4,0.4,0.6c0.2,0.2,0.3,0.3,0.6,0.4c0.2,0.1,0.4,0.1,0.7,0.1
			c0.2,0,0.3,0,0.5-0.1c0.2,0,0.3-0.1,0.4-0.2c0.1-0.1,0.2-0.2,0.3-0.3s0.2-0.2,0.2-0.4l0.4,0.1c-0.1,0.2-0.2,0.3-0.3,0.4
			c-0.1,0.1-0.3,0.3-0.4,0.4c-0.2,0.1-0.3,0.2-0.5,0.2C246.2,141.1,246,141.2,245.8,141.2z M247.6,138.6c0-0.3-0.1-0.5-0.2-0.7
			s-0.2-0.4-0.4-0.6c-0.2-0.2-0.3-0.3-0.6-0.4c-0.2-0.1-0.4-0.1-0.7-0.1s-0.5,0-0.7,0.1c-0.2,0.1-0.4,0.2-0.6,0.4
			c-0.2,0.2-0.3,0.4-0.4,0.6c-0.1,0.2-0.2,0.5-0.2,0.7H247.6z"/>
		<path class="st1" d="M251.1,141.2c-0.4,0-0.7-0.1-1-0.3c-0.3-0.2-0.5-0.4-0.7-0.7v0.9H249v-6.3h0.4v2.8c0.2-0.3,0.5-0.6,0.8-0.8
			c0.3-0.2,0.6-0.3,1-0.3c0.3,0,0.6,0.1,0.9,0.2c0.3,0.1,0.5,0.3,0.7,0.5c0.2,0.2,0.3,0.5,0.4,0.8c0.1,0.3,0.1,0.6,0.1,0.9
			c0,0.3-0.1,0.6-0.2,0.9c-0.1,0.3-0.3,0.5-0.5,0.7c-0.2,0.2-0.4,0.4-0.7,0.5C251.7,141.1,251.4,141.2,251.1,141.2z M251,140.8
			c0.3,0,0.5-0.1,0.7-0.2c0.2-0.1,0.4-0.3,0.6-0.4c0.2-0.2,0.3-0.4,0.4-0.6c0.1-0.2,0.1-0.5,0.1-0.7c0-0.3,0-0.5-0.1-0.7
			c-0.1-0.2-0.2-0.4-0.4-0.6c-0.2-0.2-0.3-0.3-0.5-0.4c-0.2-0.1-0.4-0.2-0.7-0.2c-0.2,0-0.4,0-0.5,0.1c-0.2,0.1-0.3,0.2-0.5,0.3
			c-0.1,0.1-0.3,0.2-0.4,0.4c-0.1,0.1-0.2,0.3-0.3,0.5v1.5c0,0.2,0.1,0.3,0.2,0.5c0.1,0.1,0.2,0.3,0.4,0.4c0.2,0.1,0.3,0.2,0.5,0.3
			C250.7,140.7,250.8,140.8,251,140.8z"/>
	</g>
</g>
</svg>
