<?xml version="1.0" encoding="utf-8"?>
<!-- Generator: Adobe Illustrator 19.0.0, SVG Export Plug-In . SVG Version: 6.00 Build 0)  -->
<svg version="1.1" id="Capa_1" xmlns="http://www.w3.org/2000/svg" xmlns:xlink="http://www.w3.org/1999/xlink" x="0px" y="0px"
	 viewBox="0 0 1900 1000" style="enable-background:new 0 0 1900 1000;" xml:space="preserve">
<style type="text/css">
	.Sombra_x0020_paralela{fill:none;}
	.Esquinas_x0020_redondeadas_x0020_2_x0020_pt_x002E_{fill:#FFFFFF;stroke:#000000;stroke-miterlimit:10;}
	.Reflejo_x0020_vivo_x0020_X{fill:none;}
	.Bisel_x0020_suave{fill:url(#SVGID_1_);}
	.Atardecer{fill:#FFFFFF;}
	.Follaje_GS{fill:#FFDD00;}
	.Pompadour_GS{fill-rule:evenodd;clip-rule:evenodd;fill:#44ADE2;}
	.st0{fill:#7F827F;}
	.st1{fill:#62BC47;}
	.st2{font-family:'HelveticaInseratLT-Roman';}
	.st3{font-size:29.2615px;}
</style>
<linearGradient id="SVGID_1_" gradientUnits="userSpaceOnUse" x1="0" y1="0" x2="0.7071" y2="0.7071">
	<stop  offset="0" style="stop-color:#DEDFE3"/>
	<stop  offset="0.1738" style="stop-color:#D8D9DD"/>
	<stop  offset="0.352" style="stop-color:#C9CACD"/>
	<stop  offset="0.5323" style="stop-color:#B4B5B8"/>
	<stop  offset="0.7139" style="stop-color:#989A9C"/>
	<stop  offset="0.8949" style="stop-color:#797C7E"/>
	<stop  offset="1" style="stop-color:#656B6C"/>
</linearGradient>
<g id="XMLID_21_">
	<g id="XMLID_1863_">
		<g id="XMLID_1864_">
			<path id="XMLID_1865_" class="st0" d="M868.5,431.4c0-3.9-0.8-7.8-2.3-11.7c-1.5-3.9-3.7-7.5-6.8-10.9c-3.1-3.6-7.3-6.2-12.8-8
				c-5.5-1.8-12.2-2.6-20-2.6c-1.3,0-2.6,0.2-3.9,0.3c-1.3,0.2-2.8,0.5-4.4,0.8c-1.6,0.2-3.3,0.5-4.9,1.1c-1.6,0.5-3.3,1.3-4.9,2.1
				c-2.9,1.3-5.7,2.9-8.3,5.2c-2.6,2.3-5.2,4.9-7.8,8c-2.3,2.9-4.2,6.3-5.7,10.6c-1.5,4.2-2.3,8.9-2.6,14.3c0,7.2,1,13.3,2.9,18.5
				c2,5.2,4.9,9.8,8.8,13.2c4.1,3.4,8.3,6.2,12.7,8.1c4.4,2.1,8.9,3.4,13.8,3.9c0.2,0,0.3,0,0.7,0s0.5,0,0.7,0
				c0.3,0.2,0.7,0.3,1,0.3c0.3,0,0.5,0,0.7,0c0.3,0,0.7,0,0.8,0c0.2,0,0.5,0,0.8,0c0.2,0,0.3,0,0.7,0s0.5,0,0.7,0
				c2.1,0,4.2-0.2,6-0.3c2-0.3,3.7-0.8,5.5-1.5c0.8-0.3,1.8-0.7,2.6-1.1c0.8-0.3,1.6-0.7,2.6-1.1c0.7-0.5,1.5-1.1,2.4-1.6
				c0.8-0.5,1.6-1.1,2.4-2c0.8-0.5,1.8-1.1,2.6-2c0.8-0.8,1.6-1.6,2.6-2.3c0.8-0.8,1.8-1.8,2.6-2.6c0.8-0.8,1.8-1.6,2.6-2.6v29.1
				c-0.2,0.3-0.3,0.7-0.5,0.8v0.3c-2.1,1.5-4.4,2.8-6.7,3.9c-2.3,1.1-4.7,2.1-7.2,3.1c-2.4,0.7-5.5,1.3-9.1,1.8
				c-3.6,0.5-7.6,0.7-12.4,0.7c-0.2,0-0.3,0-0.3,0c-0.2,0-0.2,0-0.3,0c-0.2,0-0.5,0-0.8,0c-0.2,0-0.3,0-0.5,0s-0.3,0-0.5,0
				s-0.3,0-0.3,0c-0.2,0-0.2,0-0.3,0c-8.1,0-15.8-1.5-22.9-4.4c-7-2.9-13.5-7.5-19.3-13.5c-5.9-6.2-10.2-13.5-13.2-21.5
				c-2.9-8.1-4.4-17.2-4.4-27.5c0-8.9,1.5-17.2,4.2-24.9c2.9-7.6,7.2-14.6,12.8-21.1c5.7-6.3,12.7-11.2,21.1-14.5s18-4.9,29.1-4.9
				c10.6,0,19.8,1.5,28.1,4.2c8.1,2.9,15.1,7.2,20.6,12.8c5.7,5.7,9.9,11.7,12.7,18c2.8,6.3,4.2,12.8,4.2,19.7v75.1h-25.4v-73.6
				H868.5z"/>
			<path id="XMLID_1867_" class="st1" d="M916.9,416.7c0-5.5,1.1-10.7,3.3-15.6c2.1-4.9,5.4-9.4,9.9-13.5c4.4-4.1,9.6-7.2,15.4-9.3
				c5.9-2.1,12.5-3.1,19.8-3.1c5.2,0,9.8,0.3,13.7,1.1c3.9,0.8,7.2,2,9.6,3.4s4.9,3.1,7,5.2c2.1,2.1,4.1,4.4,5.7,7.2
				c1.6-2.1,3.6-4.2,5.9-6c2.3-2,5-3.7,8.3-5.5c3.3-1.8,6.8-3.1,10.7-4.1c3.9-0.8,8.3-1.3,13.2-1.3c6,0,11.7,0.8,17.1,2.6
				c5.4,1.6,10.4,4.4,15,8c4.7,3.4,8.1,7.3,10.6,11.7c2.4,4.4,3.7,9.3,3.9,14.6c0,0.2,0,0.3,0,0.3s0,0.2,0,0.3c0,0.2,0,0.3,0,0.3
				c0,0.2,0,0.2,0,0.3c-0.2,0.2-0.3,0.3-0.3,0.3c0,0.2,0,0.2,0,0.3s0,0.3,0,0.3c0,0.2,0,0.2,0,0.3v90.1h-23.2v-82.1
				c0,0.2,0,0.2,0,0.2c0-0.2,0.2-0.2,0.3-0.2c0-0.2,0-0.3,0-0.3c0-0.2,0-0.2,0-0.3c0-0.3,0-0.7,0-1c0-0.3,0-0.5,0-0.7
				c0-0.5,0-1.1-0.2-1.6c-0.2-0.5-0.2-1.1-0.3-2c-0.2-0.5-0.3-1.1-0.3-1.8c-0.2-0.7-0.2-1.3-0.3-2c-0.7-2.1-1.8-4.2-3.3-6.2
				c-1.5-2-3.1-3.9-5-5.7c-2-1.8-4.1-3.1-6.3-4.1c-2.3-0.8-4.7-1.3-7.2-1.3c-3.3,0-6.2,0.7-8.9,1.8c-2.8,1.1-5.4,2.9-7.6,5.2
				c-2.3,2.3-4.1,4.7-5.5,7.3c-1.3,2.6-2.3,5.4-2.8,8.1c-0.2,0.3-0.3,0.8-0.3,1.1c-0.2,0.5-0.2,0.8-0.2,1.1c0,0.5,0,1,0,1.3
				c0,0.3,0,0.7,0,1.1v81.6h-22.9v-80c0-3.9-0.5-7.6-1.6-10.9c-1.1-3.4-2.6-6.5-4.9-9.4c-2.1-2.9-4.9-5-8-6.3
				c-3.3-1.5-6.8-2.1-10.9-2.1c-5.2,0.5-9.4,1.6-12.8,3.4c-3.4,1.8-5.9,4.2-7.5,7.2c-1.6,3.1-2.8,6.2-3.6,9.6
				c-0.8,3.4-1.1,6.8-1.1,10.4c0,0.2,0,0.3,0,0.5v0.3v77.2h-23.2v-87.8H916.9z"/>
			<path id="XMLID_1869_" class="st0" d="M1258.7,411.3c3.4-7.8,8.5-14.6,15-20.6c6.8-5.9,14-10.2,21.5-13.2
				c7.6-2.9,15.6-4.4,23.9-4.4c0.3,0,0.8,0,1.1,0c0.5,0,0.8,0,1.1,0c0.3,0.2,0.8,0.3,1.1,0.3c0.5,0,1,0,1.5,0c0.3,0,0.8,0,1.1,0
				c0.5,0,1,0,1.5,0c0.3,0.2,0.8,0.3,1.1,0.3c0.5,0,0.8,0,1.1,0c7.2,1.1,14,3.1,20.5,6.3c6.5,3.1,12.8,7.3,18.9,12.5
				c5.9,5.4,10.4,12,13.3,20c3.1,8,4.6,17.4,4.6,28.1c0,0.7,0,1.5,0,2.1s-0.2,1.3-0.3,2c0,0.7,0,1.5-0.2,2.1
				c-0.2,0.7-0.2,1.5-0.2,2.1c-0.2,1.5-0.3,2.9-0.7,4.2c-0.3,1.5-0.7,2.9-1,4.2c-1.6,6.3-4.1,12.5-7.3,18.4
				c-3.3,5.9-7.5,11.2-12.7,16.4c-5,5.2-10.9,8.9-17.9,11.5c-7,2.4-14.6,3.7-23.2,3.7c-12.2,0-22.6-1.6-31.4-4.9
				c-8.8-3.3-15.9-8.3-21.5-15.1c-5.5-6.8-9.6-14.3-12.4-22.4c-2.8-8.1-4.2-17.1-4.2-26.5v-0.5
				C1253.6,428,1255.2,419.1,1258.7,411.3z M1279,441.7c0,1.1,0.2,2.4,0.3,3.6c0.2,1.3,0.3,2.4,0.7,3.6c0.3,1.1,0.5,2.4,0.7,3.6
				c0.8,3.9,2.3,7.8,4.2,11.5c2,3.7,4.4,7.3,7.2,10.7c3.1,3.4,6.8,5.9,11.2,7.5c4.4,1.6,9.8,2.4,15.8,2.4c5.7,0,11.1-0.8,16.1-2.4
				s9.6-4.1,13.7-7.2c4.1-3.3,7.2-8,9.3-14c2.1-6.2,3.1-13.7,3.1-22.6c0-6.2-0.8-11.9-2.6-16.9s-4.4-9.6-8-13.5
				c-3.6-3.7-8-6.7-13.2-8.6c-5.2-2-11.2-2.9-18-2.9c-6.3,0-11.9,0.8-16.6,2.6c-4.7,1.6-8.5,4.4-11.5,8c-3.1,3.4-5.5,7-7.3,10.9
				c-2,3.9-3.1,8-3.9,12c-0.2,0.7-0.3,1.5-0.5,2.1c-0.2,0.7-0.3,1.5-0.3,2.1c0,0.7,0,1.5,0,2.1c0,0.7,0,1.5,0,2.1v-0.5
				C1279,439.2,1279,440.5,1279,441.7z"/>
			<path id="XMLID_1872_" class="st0" d="M1408.2,411.3c3.4-7.8,8.5-14.6,15-20.6c6.8-5.9,14-10.2,21.5-13.2s15.6-4.4,23.9-4.4
				c0.3,0,0.8,0,1.1,0c0.5,0,0.8,0,1.1,0c0.3,0.2,0.8,0.3,1.1,0.3c0.5,0,1,0,1.5,0c0.3,0,0.8,0,1.1,0c0.5,0,1,0,1.5,0
				c0.3,0.2,0.8,0.3,1.1,0.3c0.5,0,0.8,0,1.1,0c7.2,1.1,14,3.1,20.5,6.3c6.5,3.1,12.8,7.3,18.9,12.5c5.9,5.4,10.4,12,13.3,20
				c3.1,8,4.6,17.4,4.6,28.1c0,0.7,0,1.5,0,2.1s-0.2,1.3-0.3,2c0,0.7,0,1.5-0.2,2.1c-0.2,0.7-0.2,1.5-0.2,2.1
				c-0.2,1.5-0.3,2.9-0.7,4.2c-0.3,1.5-0.7,2.9-1,4.2c-1.6,6.3-4.1,12.5-7.3,18.4c-3.3,5.9-7.5,11.2-12.7,16.4
				c-5,5.2-10.9,8.9-17.9,11.5c-7,2.4-14.6,3.7-23.2,3.7c-12.2,0-22.6-1.6-31.4-4.9s-15.9-8.3-21.5-15.1
				c-5.5-6.8-9.8-14.3-12.5-22.4c-2.8-8.1-4.1-17.1-4.1-26.5v-0.5C1403,428,1404.8,419.1,1408.2,411.3z M1428.5,441.7
				c0,1.1,0.2,2.4,0.3,3.6c0.2,1.3,0.3,2.4,0.7,3.6c0.3,1.1,0.5,2.4,0.7,3.6c0.8,3.9,2.3,7.8,4.2,11.5c2,3.7,4.4,7.3,7.2,10.7
				c3.1,3.4,6.8,5.9,11.2,7.5c4.4,1.6,9.8,2.4,15.8,2.4c5.7,0,11.1-0.8,16.1-2.4s9.6-4.1,13.7-7.2c4.1-3.3,7.2-8,9.3-14
				c2.1-6.2,3.1-13.7,3.1-22.6c0-6.2-0.8-11.9-2.6-16.9s-4.4-9.6-8-13.5c-3.6-3.7-8-6.7-13.2-8.6c-5.2-2-11.2-2.9-18-2.9
				c-6.3,0-11.9,0.8-16.6,2.6c-4.7,1.6-8.5,4.4-11.5,8c-3.1,3.4-5.5,7-7.3,10.9c-2,3.9-3.1,8-3.9,12c-0.2,0.7-0.3,1.5-0.5,2.1
				c-0.2,0.7-0.3,1.5-0.3,2.1c0,0.7,0,1.5,0,2.1c0,0.7,0,1.5,0,2.1v-0.5C1428.5,439.2,1428.5,440.5,1428.5,441.7z"/>
		</g>
		<g id="XMLID_1875_">
			<path id="XMLID_1876_" class="st0" d="M726.7,392.6c-6.3-5.7-13.3-9.9-20.6-12.7c-7.3-2.8-15.1-4.1-23.6-4.1c-0.5,0-1.1,0-1.6,0
				s-1,0-1.3,0c-0.5,0.2-1,0.3-1.5,0.3c-0.5,0-1,0-1.5,0c-1.1,0.2-2.1,0.3-3.1,0.3c-1,0.2-2,0.2-2.8,0.3c-2.1,0.3-4.2,0.8-6.2,1.3
				c-2,0.5-3.9,1.1-5.9,2c-2,0.7-3.9,1.5-5.7,2.4c-2,0.8-3.7,1.8-5.7,2.6v23.7c0.7-0.3,1.3-0.7,2-1c0.7-0.3,1.3-0.5,2-0.7
				c0.3-0.2,0.7-0.3,1-0.5c0.3-0.2,0.7-0.3,1-0.5c0.2,0,0.5-0.2,0.8-0.3c0.3-0.2,0.7-0.3,1.1-0.5h0.3l0.3-0.3c2-0.8,3.9-1.8,5.7-2.6
				c2-0.8,3.7-1.6,5.7-2.3c2-0.7,4.1-1.3,6.3-1.6c2.3-0.3,4.9-0.5,7.5-0.5c0.2,0,0.3,0,0.5,0s0.5,0,0.8,0c0.2,0.2,0.3,0.3,0.7,0.3
				c0.3,0,0.5,0,0.7,0c0.3,0,0.8,0,1.1,0c0.5,0,1,0,1.5,0c4.2,0.5,8.5,1.8,12.4,3.9c4.1,2.1,7.8,4.9,11.4,8.5
				c3.6,3.4,6.3,7.8,8.1,13.2c2,5.4,2.8,11.5,2.8,18.7c0,0.8,0,1.8-0.2,2.8c-0.2,1-0.2,2-0.3,3.1c-0.2,1.1-0.3,2.1-0.3,3.1
				c-0.2,1-0.3,2-0.7,2.8c-1.1,3.9-2.6,7.8-4.9,11.5c-2.1,3.7-4.9,7.3-8,10.7c-3.4,3.4-7.5,5.9-12,7.6c-4.7,1.6-9.9,2.6-15.8,2.6
				c-6.2,0-11.9-1.1-16.7-3.3c-4.9-2.1-9.1-5.4-12.7-9.6c-3.4-4.2-6-9.3-7.8-14.8c-1.8-5.7-2.6-12-2.6-19.2v-76.4h-25.4v74.8
				c0,9.4,1.3,18.4,4.1,26.7c2.6,8.3,6.7,16.1,12,23.4c5.4,7.2,12.2,12.4,20.3,15.9c8.1,3.4,17.9,5.2,28.9,5.2s20.8-1.8,29.3-5.4
				c8.5-3.6,15.4-9.1,21-16.6c5.7-7.5,9.9-15.3,12.8-23.6c2.9-8.1,4.2-16.7,4.2-25.7c0-9.6-1.6-18.2-4.9-26
				C738.1,404.8,733.2,398.1,726.7,392.6z"/>
			<rect id="XMLID_1877_" x="613.6" y="319.9" class="st0" width="25.4" height="32.2"/>
		</g>
		<g id="XMLID_1878_">
			<rect id="XMLID_1879_" x="1106.3" y="319.9" class="st1" width="25.4" height="32.2"/>
			<path id="XMLID_1880_" class="st1" d="M1233.9,412.4c-3.3-7.6-8.1-14.3-14.6-19.8c-6.3-5.7-13.3-9.9-20.6-12.7
				c-7.3-2.8-15.1-4.1-23.6-4.1c-0.5,0-1.1,0-1.6,0s-1,0-1.3,0c-0.5,0.2-1,0.3-1.5,0.3c-0.5,0-1,0-1.5,0c-1.1,0.2-2.1,0.3-3.1,0.3
				c-1,0.2-2,0.2-2.8,0.3c-2.1,0.3-4.2,0.8-6.2,1.3c-2,0.5-3.9,1.1-5.9,2c-2,0.7-3.9,1.5-5.7,2.4c-2,0.8-3.7,1.8-5.7,2.6v23.7
				c0.7-0.3,1.3-0.7,2-1c0.7-0.3,1.3-0.5,2-0.7c0.3-0.2,0.7-0.3,1-0.5c0.3-0.2,0.7-0.3,1-0.5c0.2,0,0.5-0.2,0.8-0.3
				c0.3-0.2,0.7-0.3,1.1-0.5h0.3l0.3-0.3c2-0.8,3.9-1.8,5.7-2.6c2-0.8,3.7-1.6,5.7-2.3s4.1-1.3,6.3-1.6c2.3-0.3,4.9-0.5,7.5-0.5
				c0.2,0,0.3,0,0.5,0c0.2,0,0.5,0,0.8,0c0.2,0.2,0.3,0.3,0.7,0.3c0.3,0,0.5,0,0.7,0c0.3,0,0.8,0,1.1,0c0.5,0,1,0,1.5,0
				c4.2,0.5,8.5,1.8,12.4,3.9c4.1,2.1,7.8,4.9,11.4,8.5c3.6,3.4,6.3,7.8,8.1,13.2c2,5.4,2.8,11.5,2.8,18.7c0,0.8,0,1.8-0.2,2.8
				c-0.2,1-0.2,2-0.3,3.1c-0.2,1.1-0.3,2.1-0.3,3.1c-0.2,1-0.3,2-0.7,2.8c-1.1,3.9-2.6,7.8-4.9,11.5c-2.1,3.7-4.9,7.3-8,10.7
				c-3.4,3.4-7.5,5.9-12,7.6c-4.7,1.6-9.9,2.6-15.8,2.6c-6.2,0-11.9-1.1-16.7-3.3c-4.9-2.1-9.1-5.4-12.7-9.6
				c-3.4-4.2-6-9.3-7.8-14.8c-1.8-5.7-2.6-12-2.6-19.2v-76.4h-25.4v74.8c0,9.4,1.3,18.4,4.1,26.7c2.6,8.3,6.7,16.1,12,23.4
				c5.4,7.2,12.2,12.4,20.3,15.9c8.1,3.4,17.9,5.2,28.9,5.2s20.8-1.8,29.3-5.4c8.5-3.6,15.4-9.1,21-16.6c5.7-7.5,9.9-15.3,12.8-23.6
				c2.9-8.1,4.2-16.7,4.2-25.7C1238.8,428.7,1237.2,420.1,1233.9,412.4z"/>
		</g>
	</g>
	<g id="XMLID_1938_">
		<path id="XMLID_1939_" class="st0" d="M798.8,602.6v3.6h-46.5v-68.4h46v3.6h-41.8v27.3h39.3v3.6h-39.3v30.1h42.3V602.6z"/>
		<path id="XMLID_1941_" class="st0" d="M807,589.9c0.3,4.6,2.1,8,5,10.6c2.9,2.6,6.7,3.9,11.2,3.9c1.6,0,3.4-0.2,5.2-0.5
			c1.8-0.3,3.4-0.8,5-1.6c1.6-0.8,2.9-2,3.9-3.3c1-1.3,1.5-3.1,1.5-5c0-2.1-0.5-3.9-1.3-5.2c-1-1.3-2.3-2.3-3.9-3.1
			c-1.5-0.8-3.3-1.5-5.4-1.8c-2-0.5-4.1-0.8-6.2-1.3c-2.1-0.5-4.2-1-6.2-1.6c-2-0.5-3.7-1.3-5.5-2.3c-1.6-1-2.9-2.3-3.9-3.9
			c-1-1.6-1.5-3.6-1.5-6.2c0-2.4,0.5-4.6,1.6-6.2c1-1.6,2.4-2.9,4.2-3.9c3.6-1.8,7.6-2.6,11.9-2.6c5.4,0,9.8,1.1,13.2,3.6
			c3.4,2.4,5,6.5,5,12.2h-3.6c0-4.6-1.5-7.8-4.1-9.8c-2.8-2-6.2-2.9-10.4-2.9c-3.6,0-6.7,0.7-9.6,2c-1.3,0.8-2.4,1.8-3.3,2.9
			c-1,1.1-1.3,2.8-1.3,4.6c0,2,0.5,3.6,1.5,4.7c1,1.1,2.1,2.3,3.7,2.9c0.8,0.3,1.6,0.7,2.6,1c0.8,0.3,1.8,0.7,2.8,0.8
			c1,0.2,2,0.3,2.9,0.5c1,0.3,2,0.5,2.9,0.8c5,0.7,9.1,2,12.5,4.1c1.5,1,2.8,2.3,3.6,4.1c0.8,1.8,1.3,3.9,1.3,6.3s-0.5,4.7-1.6,6.3
			c-1.1,1.8-2.8,3.3-4.7,4.2c-1.8,1-3.9,1.8-6.2,2.3c-2.3,0.5-4.6,0.7-6.8,0.7c-5.7,0-10.4-1.5-14-4.6c-3.6-2.9-5.7-7.3-6-13h3.7
			V589.9z"/>
		<path id="XMLID_1943_" class="st0" d="M869.6,560.2h-10.7v34.5c0,3.9,1,6.3,2.8,7.3c1.8,1,4.4,1.5,7.8,1.1v3.3
			c-2,0.2-3.7,0-5.4-0.2c-1.8-0.2-3.3-0.7-4.7-1.5c-1.3-0.8-2.4-2-3.3-3.6c-0.8-1.6-1.1-3.7-1-6.5v-34.5h-9.1v-3.3h9.1v-15.3h3.6
			v15.3h10.7v3.3H869.6z"/>
		<path id="XMLID_1945_" class="st0" d="M915.3,606.2h-3.6v-10.4h-0.3c-1.3,3.6-3.6,6.5-6.8,8.5c-3.3,2.1-6.8,3.1-10.9,3.3
			c-4.2,0-7.6-0.8-9.9-2.4c-2.4-1.5-4.2-3.3-5.2-5.4c-1-2.1-1.6-4.4-2-6.7c-0.3-2.1-0.3-4.1-0.3-5.5v-30.6h3.6v31.2
			c0,1.3,0.2,2.8,0.5,4.6c0.3,1.8,0.8,3.6,1.6,5.4c1,1.8,2.3,3.3,4.2,4.2c1.8,1.3,4.4,2,7.8,2c5.7,0,10.1-2,13-5.9
			c3.1-3.7,4.7-8.6,4.7-14.8v-26.7h3.6L915.3,606.2L915.3,606.2z"/>
		<path id="XMLID_1947_" class="st0" d="M964.1,595.8h-0.2c-3.9,7.8-10.2,11.7-18.9,11.7c-7.3-0.2-12.7-2.8-16.1-7.8
			c-3.6-4.9-5.2-10.9-5.2-17.9c0-7.5,1.8-13.7,5.4-18.5c3.6-4.9,9.1-7.3,16.4-7.3c4.2,0,8,1,11.2,3.1c1.6,1,3.1,2.3,4.2,3.9
			c1.1,1.5,2.1,3.3,2.8,5.4h0.2v-30.2h3.6v68.4h-3.6v-10.7H964.1z M959.5,597.1c2.9-4.4,4.4-9.6,4.4-15.4c0-6-1.5-11.2-4.4-15.8
			c-2.9-4.6-7.6-6.8-14-7c-6.5,0.2-11.1,2.4-14,6.8c-2.9,4.4-4.4,9.8-4.4,15.9c0,6,1.5,11.2,4.6,15.6c2.9,4.6,7.6,6.8,14,7
			C952.1,604.1,956.6,601.8,959.5,597.1z"/>
		<path id="XMLID_1950_" class="st0" d="M980.2,547.7v-9.9h3.6v9.9H980.2z M980.2,606.2v-49.3h3.6v49.3H980.2z"/>
		<path id="XMLID_1953_" class="st0" d="M999,563.4c3.9-4.9,9.4-7.5,16.7-7.6c7.3,0.2,12.8,2.6,16.7,7.6c3.9,4.9,5.9,10.9,5.9,18.2
			c0,7.2-2,13.2-5.9,18c-3.9,5-9.4,7.5-16.7,7.6c-7.3-0.2-12.8-2.8-16.7-7.6c-3.9-4.9-5.9-10.9-5.9-18
			C993.2,574.3,995.1,568.3,999,563.4z M1001.8,597.3c3.3,4.6,7.8,6.8,14,7c6.3-0.2,11.1-2.4,14.1-7c3.3-4.4,4.7-9.6,4.7-15.6
			c0-6.2-1.6-11.4-4.7-15.8c-3.3-4.4-8-6.7-14.1-6.8c-6.2,0.2-10.9,2.4-14,6.8c-3.4,4.4-5,9.8-5,15.8
			C996.8,587.7,998.4,592.9,1001.8,597.3z"/>
		<path id="XMLID_1956_" class="st0" d="M1133.6,572.7v33.5h-3.6v-14.6h-0.2c-1.8,5-4.9,8.9-9.6,11.9c-4.7,2.9-10.2,4.4-16.3,4.4
			c-5.2,0-9.8-1-13.7-2.9c-4.1-1.8-7.5-4.4-10.1-7.5c-5.5-6.7-8.3-15-8.3-25c0-10.1,2.8-18.5,8.5-25.4c5.5-7,13.5-10.6,23.7-10.9
			c7.2,0,13.5,2.1,18.7,6c5.2,3.9,8.5,9.6,9.8,16.9h-4.1c-3.4-12.5-11.5-18.9-24.4-19.2c-9.3,0.2-16.1,3.4-20.8,9.9
			c-4.9,6.3-7.3,14-7.3,22.8c0,8.9,2.4,16.4,7,22.4c4.7,6.2,11.7,9.3,21.1,9.4c8.3,0,14.8-2.6,19.3-7.6c4.6-5,6.8-11.9,6.5-20.2
			h-25.2V573h28.8V572.7z"/>
		<path id="XMLID_1958_" class="st0" d="M1148.3,567.8h0.3c1.1-3.4,3.4-6,6.8-8.3c3.4-2.1,7.5-3.1,12-2.9v3.6
			c-2-0.3-4.1-0.2-6.5,0.5c-2.4,0.7-4.9,2.1-7.2,4.2c-1.8,1.8-3.1,3.6-3.9,5.7c-0.8,2.1-1.5,4.9-1.6,8.6v27h-3.6v-49.3h3.6
			L1148.3,567.8L1148.3,567.8z"/>
		<path id="XMLID_1960_" class="st0" d="M1207.6,597.1c0,1.5,0.2,2.8,0.5,4.1c0.3,1.3,1.3,2,2.8,2c0.7,0,1.6-0.2,2.8-0.3v3.1
			c-1,0.3-2,0.3-2.9,0.3c-2.8,0-4.6-0.8-5.4-2.3c-1-1.3-1.3-2.9-1.3-5v-2.6h-0.2c-1.1,2.9-3.3,5.5-6.3,7.6
			c-3.3,2.1-7.2,3.3-11.9,3.4c-4.7,0-8.6-1.1-11.7-3.3c-3.1-2.1-4.7-5.7-4.7-10.7c0-2.9,0.5-5.4,1.6-7.2c1.1-1.8,2.6-3.3,4.4-4.2
			c1.8-1.1,3.9-1.8,6-2.3c1.1-0.3,2.1-0.5,3.1-0.7c1-0.2,2-0.2,2.9-0.2c7.8-0.5,12.7-1.3,14.6-2.6c1.1-0.8,1.8-1.8,2-2.9
			c0.2-1.1,0.3-2.8,0.3-4.7c0-0.7-0.2-1.5-0.5-2.6c-0.3-1-1.1-2.1-2.1-3.3c-1-1.1-2.3-2-4.1-2.9c-1.8-0.7-4.2-1.1-7-1.1
			c-9.3,0-14.3,4.4-15.1,13.2h-3.6c0.7-10.9,7-16.3,18.7-16.3c4.6,0,8.5,0.8,11.9,2.6c3.6,2,5.4,5.4,5.4,10.2v28.6H1207.6z
			 M1200.9,580c-1.1,0.5-2.6,0.8-4.4,1c-3.4,0.3-6.8,0.8-10.6,1.1c-8.9,0.5-13.5,4.4-13.5,11.4c0,3.1,1.1,5.5,3.4,7.5
			c2.1,2.1,5.4,3.1,9.6,3.3c4.2,0,7.5-0.8,9.9-2.4c2.4-1.5,4.4-3.1,5.5-5c1.1-2,2-3.9,2.4-5.7c0.3-1.8,0.5-2.9,0.5-3.6v-9.3
			C1203.2,579.1,1202.2,579.5,1200.9,580z M1196.4,536.1h4.9l-12.8,13.5h-3.6L1196.4,536.1z"/>
		<path id="XMLID_1964_" class="st0" d="M1213.8,560.2v-3.3h8.8v-10.1c0-3.4,1.1-6,3.3-7.5c2-1.5,4.6-2.3,7.6-2.3
			c1.5,0,2.9,0.2,4.2,0.5v3.1c-1.5-0.3-2.8-0.5-4.2-0.5c-2.1,0-3.7,0.5-5,1.3c-1.5,1-2.3,2.8-2.3,5.5v9.9h10.2v3.3h-10.2v46.2h-3.6
			v-46.2H1213.8z"/>
		<path id="XMLID_1966_" class="st0" d="M1243.2,547.7v-9.9h3.6v9.9H1243.2z M1243.2,606.2v-49.3h3.6v49.3H1243.2z"/>
		<path id="XMLID_1969_" class="st0" d="M1295.6,572.2c-0.3-4.4-2.1-7.8-5.2-9.9c-3.1-2.1-7-3.3-11.5-3.3c-6.2,0.2-10.9,2.4-14,6.8
			c-3.4,4.4-5,9.4-5,15.3c0,6.7,1.6,12.2,4.9,16.6c3.1,4.4,7.8,6.5,14.1,6.7c4.7,0,8.5-1.5,11.5-4.2c3.1-2.8,4.9-6.5,5.5-11.1h3.6
			c-0.8,5.9-3.1,10.4-6.8,13.7c-3.9,3.3-8.5,4.9-14,4.9c-8-0.2-13.7-2.8-17.2-8.1c-3.6-5-5.4-11.2-5.4-18.2c0-7.2,2-13,5.9-17.7
			c3.9-4.9,9.4-7.3,16.7-7.5c5.5,0,10.1,1.3,13.8,3.9c3.7,2.8,6,6.8,6.5,12.5h-3.4V572.2z"/>
		<path id="XMLID_1971_" class="st0" d="M1311.8,563.4c3.9-4.9,9.4-7.5,16.7-7.6c7.3,0.2,12.8,2.6,16.7,7.6
			c3.9,4.9,5.9,10.9,5.9,18.2c0,7.2-2,13.2-5.9,18c-3.9,5-9.4,7.5-16.7,7.6c-7.3-0.2-12.8-2.8-16.7-7.6c-3.9-4.9-5.9-10.9-5.9-18
			C1305.8,574.3,1307.9,568.3,1311.8,563.4z M1314.4,597.3c3.3,4.6,7.8,6.8,14,7c6.3-0.2,11.1-2.4,14.1-7c3.3-4.4,4.7-9.6,4.7-15.6
			c0-6.2-1.6-11.4-4.7-15.8c-3.3-4.4-8-6.7-14.1-6.8c-6.2,0.2-10.9,2.4-14,6.8c-3.4,4.4-5,9.8-5,15.8
			C1309.5,587.7,1311.2,592.9,1314.4,597.3z"/>
	</g>
	<g id="XMLID_1974_">
		<g id="XMLID_1975_">
			<path id="XMLID_1976_" class="st1" d="M522.6,305.1c1.8,28.6,7.2,99.5,0,131h53.3c-4.4-26-4.1-114.4,0-131H522.6z"/>
			<path id="XMLID_1979_" class="st1" d="M522.6,453.4c1.8,38.5,7.2,134.9,0,177.7h53.3c-4.4-35.3-4.1-155.4,0-177.7L522.6,453.4
				L522.6,453.4z"/>
			<path id="XMLID_1982_" class="st1" d="M525.7,445.3l-2.6-3.7c-37.7-6.5-69.7-24.7-90.5-39c3.7-5.9,10.6-18.2,10.9-32.7
				c0.5-20.3-11.1-61-11.1-61s-13.7,40-14.1,60.1c-0.3,11.2,3.3,21.1,6.5,28c-10.7-8-17.2-14-17.4-14.1l-0.2-0.2
				c-2.4-9.1-8-23.9-19.5-35.4c-17.9-18-64.9-42.4-64.9-42.4s24.5,46.8,42.6,64.9c14.8,14.8,34.8,19.7,41.3,21
				c6.5,5.7,21.5,17.6,41.9,29.3c-6.7-2.9-19.3-7.3-33.2-5.7c-20.2,2.4-58.5,20-58.5,20s41.6,7.6,61.6,5.2
				c19.5-2.4,33.7-15.9,34.6-16.7c19.2,10.4,42.6,20.5,68.9,25l0.5,0.2L525.7,445.3z"/>
		</g>
		<path id="XMLID_1985_" class="st0" d="M526.1,641h46c1.6,0,2.4,1.8,1.6,3.1l-22.9,34.6c-0.8,1.1-2.4,1.1-3.3,0l-23.1-34.6
			C523.7,642.8,524.7,641,526.1,641z"/>
		<path id="XMLID_1986_" class="st0" d="M522.6,293.1h53.3c0,0-2.1-32.2-26.7-32.2C549.2,260.9,523.5,260.9,522.6,293.1z"/>
	</g>
	<text id="XMLID_3_" transform="matrix(1 0 0 1 859.6111 677.988)" class="st1 st2 st3">Diseño Gráfico</text>
	<text id="XMLID_2_" transform="matrix(1 0 0 1 1068.2346 677.988)" class="st1 st2 st3">Diseño Web</text>
	<rect id="XMLID_1_" x="1050.4" y="651.4" class="st1" width="2.7" height="34.1"/>
</g>
</svg>
