<?xml version="1.0" encoding="utf-8"?>
<!-- Generator: Adobe Illustrator 22.0.0, SVG Export Plug-In . SVG Version: 6.00 Build 0)  -->
<svg version="1.1" id="Capa_1" xmlns="http://www.w3.org/2000/svg" xmlns:xlink="http://www.w3.org/1999/xlink" x="0px" y="0px"
	 viewBox="0 0 400 300" style="enable-background:new 0 0 400 300;" xml:space="preserve">
<style type="text/css">
	.st0{fill:#F4F0AB;}
	.st1{fill:#1D1D1B;}
	.st2{fill:#A38E3D;}
	.st3{fill:#C1B003;}
</style>
<rect class="st0" width="400" height="300"/>
<g id="XMLID_326_">
	<path id="XMLID_336_" class="st1" d="M69.6,95.7c11.3,0,20.6,3.4,27.7,10.3c7.2,6.9,10.8,15.5,10.8,25.8c0,13.2-4.2,24.4-12.5,33.4
		c-8.3,9.1-19.4,13.6-33.1,13.6c-11.2,0-20.3-3.6-27.4-10.9c-7.1-7.3-10.7-16.1-10.7-26.3c0-6.9,1.7-14,5.1-21.2
		c3.4-7.3,8.6-13.2,15.5-17.8C52,98,60.1,95.7,69.6,95.7z M69.3,174.5c5.5,0,11-1.5,16.4-4.5s9.7-7.1,12.8-12.3
		c3.1-5.2,4.7-10.6,4.7-16.1c0-7.8-2.1-14.9-6.3-21.3c-4.2-6.4-9.6-11.4-16.3-15s-12.8-5.4-18.5-5.4c-8,0-15.2,3-21.8,9
		c-6.5,6-9.8,13.5-9.8,22.4c0,11.4,4,21.5,11.9,30.1C50.4,170.2,59.4,174.5,69.3,174.5z"/>
	<path id="XMLID_333_" class="st1" d="M155.1,172.1c-1.5-3.1-2.2-4.8-2.2-5.2l-28.7-71.2h-1.4l-14.1,44.7h23.7l11.5,28.6
		c0,0,0.1,0.2,0.2,0.5c0.1,0.3,0.2,0.6,0.4,0.7c0.8,2,1.3,3.5,1.3,4.4c0,1.4-0.9,2-2.6,2v0.8H162v-0.8
		C158.8,176.7,156.5,175.2,155.1,172.1z M109.3,138.2l10.9-27.5l10.9,27.5H109.3z"/>
	<path id="XMLID_331_" class="st1" d="M205.4,97.9l3.8,10.1l-0.7,0.1c0,0-1-1.1-3-3.2s-4.3-3.7-7-4.9c-2.6-1.1-5.6-1.7-8.8-1.7
		c-5.5,0-9.9,1.6-13.1,4.7c-3.2,3.2-4.8,7-4.8,11.4c0,3,0.8,5.5,2.3,7.7s4.7,4.3,9.5,6.2c8.3,2.8,13.9,4.9,17,6.3
		c3.1,1.4,6,3.8,8.8,7.1c2.8,3.4,4.2,7.7,4.2,12.9c0,2.2-0.3,4.3-0.8,6.3s-1.3,3.9-2.5,5.7c-1.1,1.8-2.5,3.5-4.1,5s-3.2,2.7-4.8,3.4
		s-4.2,1.4-7.8,1.8c-3.5,0.4-5.9,0.6-7,0.6h-21.5V154h0.8c0.1,7.8,1.9,13.2,5.5,16.3s9.1,4.6,16.7,4.6c6.9,0,12.1-1.6,15.6-4.9
		c3.6-3.2,5.3-7.2,5.3-11.7c0-2.8-0.6-5.1-1.9-7.1c-1.2-2-3-3.7-5.2-5.1c-2.2-1.5-6.4-3.3-12.6-5.4c-6.2-2.2-10.5-4.1-13-5.7
		c-2.5-1.6-4.6-4.1-6.3-7.3c-1.7-3.3-2.5-6.6-2.5-10c0-6.2,2.1-11.5,6.4-15.7c4.3-4.2,9.9-6.3,16.9-6.3c2.7,0,5.6,0.3,8.8,0.9
		c3.1,0.6,4.9,1,5.3,1.2C205.1,97.9,205.2,97.9,205.4,97.9z"/>
	<path id="XMLID_329_" class="st1" d="M241.4,96.9v0.8c-1.1-0.1-2.2,0.1-3.5,0.5s-2.1,1.1-2.3,1.9s-0.4,2.8-0.4,6V168
		c0,3.4,0.1,5.4,0.4,6.2c0.3,0.7,0.8,1.4,1.6,1.9s2.2,0.7,4.2,0.7v0.8h-21.5v-0.8c2.7,0,4.4-0.5,5-1.6c0.7-1,1-3.4,1-7.1v-61.3
		c0-3.8-0.4-6.3-1.1-7.5c-0.7-1.2-2.4-1.7-4.9-1.6v-0.8L241.4,96.9L241.4,96.9z"/>
	<path id="XMLID_327_" class="st1" d="M288.2,97.9L292,108l-0.7,0.1c0,0-1-1.1-3-3.2s-4.3-3.7-7-4.9c-2.6-1.1-5.6-1.7-8.8-1.7
		c-5.5,0-9.9,1.6-13.1,4.7c-3.2,3.2-4.8,7-4.8,11.4c0,3,0.8,5.5,2.3,7.7s4.7,4.3,9.5,6.2c8.3,2.8,13.9,4.9,17,6.3
		c3.1,1.4,6,3.8,8.8,7.1c2.8,3.4,4.2,7.7,4.2,12.9c0,2.2-0.3,4.3-0.8,6.3s-1.3,3.9-2.5,5.7c-1.1,1.8-2.5,3.5-4.1,5s-3.2,2.7-4.8,3.4
		s-4.2,1.4-7.8,1.8c-3.5,0.4-5.9,0.6-7,0.6H248V154h0.8c0.1,7.8,1.9,13.2,5.5,16.3c3.6,3.1,9.1,4.6,16.7,4.6
		c6.9,0,12.1-1.6,15.6-4.9c3.6-3.2,5.3-7.2,5.3-11.7c0-2.8-0.6-5.1-1.9-7.1c-1.2-2-3-3.7-5.2-5.1c-2.2-1.5-6.4-3.3-12.6-5.4
		c-6.2-2.2-10.5-4.1-13-5.7c-2.5-1.6-4.6-4.1-6.3-7.3c-1.7-3.3-2.5-6.6-2.5-10c0-6.2,2.1-11.5,6.4-15.7c4.3-4.2,9.9-6.3,16.9-6.3
		c2.7,0,5.6,0.3,8.8,0.9c3.1,0.6,4.9,1,5.3,1.2C287.9,97.9,288,97.9,288.2,97.9z"/>
</g>
<g>
	<path class="st2" d="M14.6,189.8c0-0.1,0-0.2,0.1-0.3s0.2-0.2,0.3-0.2c0.2,0,0.3,0.1,0.4,0.2c0.1,0.1,0.1,0.2,0.1,0.3v18.1h8.6
		c0.3,0,0.5,0.2,0.5,0.5c0,0.1,0,0.2-0.1,0.3s-0.2,0.1-0.4,0.1H15c-0.2,0-0.3,0-0.3-0.1s-0.1-0.2-0.1-0.3
		C14.6,208.4,14.6,189.8,14.6,189.8z"/>
	<path class="st2" d="M43.7,208.2c0.1,0.1,0.1,0.2,0,0.4s-0.1,0.2-0.3,0.3c-0.1,0.1-0.3,0.1-0.4,0c-0.1-0.1-0.2-0.1-0.2-0.3
		l-2.7-6.3h-9.8l-2.7,6.3c0,0.1-0.1,0.2-0.2,0.3s-0.3,0-0.4,0c-0.1-0.1-0.2-0.2-0.3-0.3s0-0.2,0-0.4l8-18.6c0.1-0.2,0.3-0.3,0.5-0.3
		s0.4,0.1,0.5,0.4L43.7,208.2z M30.6,201.3h9L35.1,191L30.6,201.3z"/>
	<path class="st2" d="M50.2,189.8c0-0.2,0.1-0.4,0.3-0.5c0.1,0,0.2,0,0.4,0c0.1,0.1,0.2,0.1,0.3,0.2l12.1,17.3v-17.1
		c0-0.3,0.2-0.5,0.5-0.5c0.3,0,0.5,0.2,0.5,0.5v18.6c0,0.3-0.2,0.5-0.5,0.5c-0.2,0-0.3-0.1-0.4-0.2l-12.1-17.4v17.1
		c0,0.3-0.2,0.5-0.5,0.5s-0.5-0.2-0.5-0.5v-18.5H50.2z"/>
	<path class="st2" d="M83.9,208.2c0.1,0.1,0.1,0.2,0,0.4s-0.1,0.2-0.3,0.3c-0.1,0.1-0.3,0.1-0.4,0s-0.2-0.1-0.2-0.3l-2.7-6.3h-9.8
		l-2.7,6.3c0,0.1-0.1,0.2-0.2,0.3s-0.3,0-0.4,0c-0.1-0.1-0.2-0.2-0.3-0.3s0-0.2,0-0.4l8-18.6c0.1-0.2,0.3-0.3,0.5-0.3
		s0.4,0.1,0.5,0.4L83.9,208.2z M70.9,201.3h9L75.4,191L70.9,201.3z"/>
	<path class="st2" d="M93,189.2c0.3,0,0.5,0.2,0.5,0.5s-0.2,0.5-0.5,0.5h-5.1v18.2c0,0.3-0.2,0.5-0.5,0.5s-0.5-0.2-0.5-0.5v-18.2
		h-5.1c-0.3,0-0.5-0.2-0.5-0.5s0.2-0.5,0.5-0.5H93z"/>
	<path class="st2" d="M95.7,189.8c0-0.3,0.2-0.5,0.5-0.5s0.5,0.2,0.5,0.5v12.4c0,0.8,0.1,1.5,0.4,2.2s0.7,1.3,1.2,1.8
		s1.1,0.9,1.8,1.2c0.7,0.3,1.4,0.5,2.3,0.5c0.8,0,1.5-0.1,2.2-0.4c0.7-0.3,1.3-0.7,1.8-1.2s0.9-1.1,1.2-1.8s0.5-1.4,0.5-2.2v-12.5
		c0-0.3,0.2-0.5,0.5-0.5s0.5,0.2,0.5,0.5v12.5c0,0.9-0.2,1.8-0.5,2.6c-0.4,0.8-0.8,1.5-1.5,2.1c-0.6,0.6-1.3,1.1-2.1,1.4
		c-0.8,0.3-1.7,0.5-2.6,0.5s-1.8-0.2-2.6-0.5c-0.8-0.3-1.5-0.8-2.1-1.4c-0.6-0.6-1.1-1.3-1.4-2.1s-0.5-1.7-0.5-2.6v-12.5H95.7z"/>
	<path class="st2" d="M111.9,189.8c0-0.3,0.2-0.5,0.5-0.5h5.3c0.7,0,1.3,0.1,1.9,0.4c0.6,0.3,1.2,0.6,1.6,1.1s0.8,1,1.1,1.6
		c0.3,0.6,0.4,1.2,0.4,1.9s-0.1,1.3-0.4,1.9c-0.3,0.6-0.6,1.1-1.1,1.6s-1,0.8-1.6,1.1s-1.2,0.4-1.9,0.4l5.6,8.9
		c0.2,0.3,0.1,0.5-0.1,0.7c-0.1,0.1-0.2,0.1-0.4,0.1c-0.1,0-0.2-0.1-0.3-0.2l-6-9.4h-3.6v9.2c0,0.3-0.2,0.5-0.5,0.5
		s-0.5-0.2-0.5-0.5V189.8z M112.9,190.3v8h4.8c0.6,0,1.1-0.1,1.6-0.3s0.9-0.5,1.3-0.9s0.6-0.8,0.8-1.3c0.2-0.5,0.3-1,0.3-1.6
		s-0.1-1.1-0.3-1.6c-0.2-0.5-0.5-0.9-0.8-1.3s-0.8-0.6-1.3-0.8s-1-0.3-1.6-0.3h-4.8V190.3z"/>
	<path class="st2" d="M142.7,208.2c0.1,0.1,0.1,0.2,0,0.4s-0.1,0.2-0.3,0.3c-0.1,0.1-0.3,0.1-0.4,0c-0.1-0.1-0.2-0.1-0.2-0.3
		l-2.7-6.3h-9.8l-2.7,6.3c0,0.1-0.1,0.2-0.2,0.3s-0.3,0-0.4,0c-0.1-0.1-0.2-0.2-0.3-0.3s0-0.2,0-0.4l8-18.6c0.1-0.2,0.3-0.3,0.5-0.3
		s0.4,0.1,0.5,0.4L142.7,208.2z M129.7,201.3h9l-4.5-10.3L129.7,201.3z"/>
	<path class="st2" d="M144.9,189.8c0-0.1,0-0.2,0.1-0.3s0.2-0.2,0.3-0.2c0.2,0,0.3,0.1,0.4,0.2c0.1,0.1,0.1,0.2,0.1,0.3v18.1h8.6
		c0.3,0,0.5,0.2,0.5,0.5c0,0.1,0,0.2-0.1,0.3s-0.2,0.1-0.4,0.1h-9.2c-0.2,0-0.3,0-0.3-0.1s-0.1-0.2-0.1-0.3L144.9,189.8L144.9,189.8
		z"/>
	<path class="st2" d="M157.3,208.9c-0.3,0-0.5-0.2-0.5-0.5v-18.6c0-0.3,0.2-0.5,0.5-0.5h9.9c0.3,0,0.5,0.2,0.5,0.5s-0.2,0.5-0.5,0.5
		h-9.4v8.2h6.1c0.3,0,0.5,0.2,0.5,0.5s-0.2,0.5-0.5,0.5h-6.1v8.5h9.4c0.3,0,0.5,0.2,0.5,0.5s-0.2,0.5-0.5,0.5L157.3,208.9
		L157.3,208.9z"/>
	<path class="st2" d="M170.5,190.3c-0.3,0-0.5-0.2-0.5-0.5s0.2-0.5,0.5-0.5h13.1c0.1,0,0.2,0,0.3,0.1c0.2,0.2,0.3,0.5,0.1,0.7
		l-12.6,17.8h12.4c0.3,0,0.5,0.2,0.5,0.5s-0.2,0.5-0.5,0.5h-13.3c-0.1,0-0.3,0-0.3-0.1c-0.1-0.1-0.2-0.2-0.2-0.3s0-0.3,0.1-0.4
		l12.5-17.9L170.5,190.3L170.5,190.3z"/>
	<path class="st2" d="M203.6,208.2c0.1,0.1,0.1,0.2,0,0.4c-0.1,0.1-0.1,0.2-0.3,0.3c-0.1,0.1-0.3,0.1-0.4,0
		c-0.1-0.1-0.2-0.1-0.2-0.3l-2.7-6.3h-9.8l-2.7,6.3c0,0.1-0.1,0.2-0.2,0.3c-0.1,0.1-0.3,0-0.4,0c-0.1-0.1-0.2-0.2-0.3-0.3
		s0-0.2,0-0.4l8-18.6c0.1-0.2,0.3-0.3,0.5-0.3s0.4,0.1,0.5,0.4L203.6,208.2z M190.6,201.3h9l-4.5-10.3L190.6,201.3z"/>
	<path class="st2" d="M210.2,208.9c-0.3,0-0.5-0.2-0.5-0.5v-18.6c0-0.3,0.2-0.5,0.5-0.5h9.9c0.3,0,0.5,0.2,0.5,0.5s-0.2,0.5-0.5,0.5
		h-9.4v8.2h6.1c0.3,0,0.5,0.2,0.5,0.5s-0.2,0.5-0.5,0.5h-6.1v8.5h9.4c0.3,0,0.5,0.2,0.5,0.5s-0.2,0.5-0.5,0.5L210.2,208.9
		L210.2,208.9z"/>
	<path class="st2" d="M223.3,189.8c0-0.2,0.1-0.4,0.3-0.5c0.1,0,0.2,0,0.4,0s0.2,0.1,0.3,0.2l12.1,17.3v-17.1c0-0.3,0.2-0.5,0.5-0.5
		s0.5,0.2,0.5,0.5v18.6c0,0.3-0.2,0.5-0.5,0.5c-0.2,0-0.3-0.1-0.4-0.2l-12.1-17.4v17.1c0,0.3-0.2,0.5-0.5,0.5s-0.5-0.2-0.5-0.5
		v-18.5H223.3z"/>
	<path class="st2" d="M255.2,189.2c0.3,0,0.5,0.2,0.5,0.5s-0.2,0.5-0.5,0.5h-5.1v18.2c0,0.3-0.2,0.5-0.5,0.5s-0.5-0.2-0.5-0.5v-18.2
		H244c-0.3,0-0.5-0.2-0.5-0.5s0.2-0.5,0.5-0.5H255.2z"/>
	<path class="st2" d="M257.9,189.8c0-0.3,0.2-0.5,0.5-0.5s0.5,0.2,0.5,0.5v12.4c0,0.8,0.1,1.5,0.4,2.2s0.7,1.3,1.2,1.8
		s1.1,0.9,1.8,1.2c0.7,0.3,1.4,0.5,2.3,0.5c0.8,0,1.5-0.1,2.2-0.4c0.7-0.3,1.3-0.7,1.8-1.2s0.9-1.1,1.2-1.8c0.3-0.7,0.5-1.4,0.5-2.2
		v-12.5c0-0.3,0.2-0.5,0.5-0.5s0.5,0.2,0.5,0.5v12.5c0,0.9-0.2,1.8-0.5,2.6c-0.4,0.8-0.8,1.5-1.5,2.1c-0.6,0.6-1.3,1.1-2.1,1.4
		c-0.8,0.3-1.7,0.5-2.6,0.5s-1.8-0.2-2.6-0.5c-0.8-0.3-1.5-0.8-2.1-1.4c-0.6-0.6-1.1-1.3-1.4-2.1s-0.5-1.7-0.5-2.6L257.9,189.8
		L257.9,189.8z"/>
	<path class="st2" d="M285.1,203.2c0-0.6-0.1-1.2-0.4-1.7c-0.2-0.5-0.6-0.9-1-1.3c-0.4-0.4-1-0.7-1.6-1s-1.2-0.5-1.9-0.8
		c-0.6-0.2-1.3-0.4-2-0.7s-1.4-0.6-2-1s-1.1-0.8-1.5-1.3s-0.6-1-0.6-1.6c0-0.7,0.2-1.4,0.5-2s0.8-1.1,1.4-1.5s1.2-0.7,1.9-1
		c0.7-0.2,1.4-0.3,2-0.3c0.4,0,0.9,0,1.4,0.1s0.9,0.2,1.4,0.4s0.9,0.5,1.4,0.8c0.4,0.3,0.8,0.7,1.2,1.2c0.2,0.2,0.2,0.5,0,0.6
		c-0.2,0.2-0.4,0.3-0.6,0.2c-0.2,0-0.3-0.1-0.3-0.2c-0.3-0.5-0.7-0.8-1.1-1.1s-0.8-0.5-1.2-0.6c-0.4-0.2-0.8-0.3-1.2-0.3
		c-0.4-0.1-0.7-0.1-1-0.1c-0.5,0-1,0.1-1.5,0.2s-1.1,0.4-1.5,0.7c-0.5,0.3-0.9,0.7-1.2,1.2s-0.5,1.1-0.5,1.7c0,0.5,0.2,0.9,0.5,1.2
		s0.7,0.7,1.2,0.9s1,0.5,1.6,0.7s1.1,0.4,1.6,0.6c0.9,0.4,1.8,0.7,2.5,1.1s1.4,0.8,1.9,1.2s0.9,0.9,1.2,1.5c0.3,0.6,0.4,1.2,0.4,2
		s-0.2,1.5-0.5,2.2s-0.8,1.3-1.4,1.8s-1.2,0.9-2,1.2c-0.7,0.3-1.5,0.4-2.3,0.4c-0.6,0-1.2-0.1-1.8-0.2c-0.6-0.1-1.2-0.3-1.8-0.6
		c-0.6-0.3-1.1-0.6-1.5-1s-0.8-0.8-1-1.3c-0.1-0.2-0.1-0.4,0-0.6c0.1-0.2,0.2-0.2,0.4-0.2c0.2,0,0.4,0.1,0.5,0.2
		c0.2,0.4,0.5,0.8,0.9,1.1s0.9,0.6,1.4,0.8s1,0.4,1.5,0.5s1,0.2,1.4,0.2c0.7,0,1.3-0.1,1.9-0.4c0.6-0.2,1.2-0.6,1.6-1
		c0.5-0.4,0.9-0.9,1.2-1.5C285,204.5,285.1,203.9,285.1,203.2z"/>
	<path class="st2" d="M295.1,189.7c0-0.2,0.1-0.3,0.4-0.4c0.3-0.1,0.5,0,0.6,0.3l7.1,17.5l7.1-17.5c0.1-0.2,0.3-0.3,0.6-0.3
		s0.4,0.2,0.4,0.4l2.6,18.6c0,0.3-0.1,0.5-0.4,0.6c-0.3,0-0.5-0.1-0.6-0.4l-2.3-16.9l-6.8,17c-0.1,0.2-0.2,0.3-0.4,0.3
		c-0.2,0-0.3,0-0.4-0.1c-0.1,0-0.1-0.1-0.2-0.2l-6.8-17l-2.3,16.9c-0.1,0.3-0.2,0.5-0.6,0.4c-0.3,0-0.5-0.2-0.4-0.6L295.1,189.7z"/>
	<path class="st2" d="M333.3,208.2c0.1,0.1,0.1,0.2,0,0.4c-0.1,0.1-0.1,0.2-0.3,0.3c-0.1,0.1-0.3,0.1-0.4,0s-0.2-0.1-0.2-0.3
		l-2.7-6.3h-9.8l-2.7,6.3c0,0.1-0.1,0.2-0.2,0.3s-0.3,0-0.4,0c-0.1-0.1-0.2-0.2-0.3-0.3c-0.1-0.1,0-0.2,0-0.4l8-18.6
		c0.1-0.2,0.3-0.3,0.5-0.3s0.4,0.1,0.5,0.4L333.3,208.2z M320.3,201.3h9l-4.5-10.3L320.3,201.3z"/>
	<path class="st2" d="M336,189.8c0-0.2,0.1-0.4,0.3-0.5c0.1,0,0.2,0,0.4,0s0.2,0.1,0.3,0.2l12.1,17.3v-17.1c0-0.3,0.2-0.5,0.5-0.5
		s0.5,0.2,0.5,0.5v18.6c0,0.3-0.2,0.5-0.5,0.5c-0.2,0-0.3-0.1-0.4-0.2L337,191.3v17.1c0,0.3-0.2,0.5-0.5,0.5s-0.5-0.2-0.5-0.5V189.8
		z"/>
	<path class="st2" d="M362.5,189.3c1.4,0,2.6,0.3,3.8,0.8c1.2,0.5,2.2,1.2,3.1,2.1s1.6,1.9,2.1,3.1c0.5,1.2,0.8,2.5,0.8,3.8
		s-0.3,2.6-0.8,3.8s-1.2,2.2-2.1,3.1c-0.9,0.9-1.9,1.6-3.1,2.1s-2.5,0.8-3.8,0.8s-2.6-0.3-3.8-0.8c-1.2-0.5-2.2-1.2-3.1-2.1
		c-0.9-0.9-1.6-1.9-2.1-3.1c-0.5-1.2-0.8-2.5-0.8-3.8s0.3-2.6,0.8-3.8s1.2-2.2,2.1-3.1c0.9-0.9,1.9-1.6,3.1-2.1
		C359.8,189.5,361.1,189.3,362.5,189.3z M362.5,190.3c-1.2,0-2.4,0.2-3.5,0.7s-2,1.1-2.8,1.9c-0.8,0.8-1.4,1.7-1.9,2.8
		s-0.7,2.2-0.7,3.4s0.2,2.4,0.7,3.5s1.1,2,1.9,2.8s1.7,1.4,2.8,1.9c1.1,0.5,2.2,0.7,3.5,0.7c1.2,0,2.4-0.2,3.4-0.7
		c1.1-0.5,2-1.1,2.8-1.9c0.8-0.8,1.4-1.7,1.9-2.8s0.7-2.2,0.7-3.5c0-1.2-0.2-2.4-0.7-3.4c-0.5-1.1-1.1-2-1.9-2.8s-1.7-1.4-2.8-1.9
		C364.8,190.5,363.7,190.3,362.5,190.3z"/>
	<path class="st2" d="M385.9,203.2c0-0.6-0.1-1.2-0.4-1.7c-0.2-0.5-0.6-0.9-1-1.3c-0.4-0.4-1-0.7-1.6-1s-1.2-0.5-1.9-0.8
		c-0.6-0.2-1.3-0.4-2-0.7s-1.4-0.6-2-1s-1.1-0.8-1.5-1.3s-0.6-1-0.6-1.6c0-0.7,0.2-1.4,0.5-2s0.8-1.1,1.4-1.5s1.2-0.7,1.9-1
		c0.7-0.2,1.4-0.3,2-0.3c0.4,0,0.9,0,1.4,0.1s0.9,0.2,1.4,0.4s0.9,0.5,1.4,0.8c0.4,0.3,0.8,0.7,1.2,1.2c0.2,0.2,0.2,0.5,0,0.6
		c-0.2,0.2-0.4,0.3-0.6,0.2c-0.2,0-0.3-0.1-0.3-0.2c-0.3-0.5-0.7-0.8-1.1-1.1s-0.8-0.5-1.2-0.6c-0.4-0.2-0.8-0.3-1.2-0.3
		c-0.4-0.1-0.7-0.1-1-0.1c-0.5,0-1,0.1-1.5,0.2s-1.1,0.4-1.5,0.7c-0.5,0.3-0.9,0.7-1.2,1.2s-0.5,1.1-0.5,1.7c0,0.5,0.2,0.9,0.5,1.2
		s0.7,0.7,1.2,0.9s1,0.5,1.6,0.7s1.1,0.4,1.6,0.6c0.9,0.4,1.8,0.7,2.5,1.1s1.4,0.8,1.9,1.2s0.9,0.9,1.2,1.5c0.3,0.6,0.4,1.2,0.4,2
		s-0.2,1.5-0.5,2.2s-0.8,1.3-1.4,1.8s-1.2,0.9-2,1.2c-0.7,0.3-1.5,0.4-2.3,0.4c-0.6,0-1.2-0.1-1.8-0.2c-0.6-0.1-1.2-0.3-1.8-0.6
		c-0.6-0.3-1.1-0.6-1.5-1s-0.8-0.8-1-1.3c-0.1-0.2-0.1-0.4,0-0.6c0.1-0.2,0.2-0.2,0.4-0.2c0.2,0,0.4,0.1,0.5,0.2
		c0.2,0.4,0.5,0.8,0.9,1.1s0.9,0.6,1.4,0.8s1,0.4,1.5,0.5s1,0.2,1.4,0.2c0.7,0,1.3-0.1,1.9-0.4c0.6-0.2,1.2-0.6,1.6-1
		c0.5-0.4,0.9-0.9,1.2-1.5C385.8,204.5,385.9,203.9,385.9,203.2z"/>
</g>
<g id="XMLID_312_">
	<path id="XMLID_322_" class="st3" d="M359,139.6c6.2-0.3,11-5.5,10.8-11.7c-0.3-6.2-5.5-11-11.7-10.8c-1.8,0.1-3.5,0.6-5,1.4
		c-4.2,1.5-10.6,4.6-17.4,10.8C335.7,129.3,349,140,359,139.6z M347.4,131.7c0,0,11.6,7.1,18.9-3.7
		C366.2,128,360.1,144.6,347.4,131.7z"/>
	<path id="XMLID_319_" class="st3" d="M335.2,129.1c5.6-7.3,8.2-13.9,9.3-18.3c0.7-1.5,1-3.3,1-5.1c-0.3-6.2-5.5-11-11.7-10.8
		c-6.2,0.3-11,5.5-10.8,11.7C323.4,116.7,335.2,129.1,335.2,129.1z M333.9,98.5c-10.1,8.2-2.1,19.1-2.1,19.1
		C317.8,106,333.9,98.5,333.9,98.5z"/>
	<path id="XMLID_316_" class="st3" d="M335.4,129.1c-7.3-5.6-13.9-8.2-18.3-9.3c-1.5-0.7-3.3-1-5.1-1c-6.2,0.3-11,5.5-10.8,11.7
		c0.3,6.2,5.5,11,11.7,10.8C323,140.9,335.4,129.1,335.4,129.1z M304.8,130.4c8.2,10.1,19.1,2.1,19.1,2.1
		C312.3,146.5,304.8,130.4,304.8,130.4z"/>
	<path id="XMLID_313_" class="st3" d="M335.2,129.1c-5.6,7.3-8.2,13.9-9.3,18.3c-0.7,1.5-1,3.3-1,5.1c0.3,6.2,5.5,11,11.7,10.8
		c6.2-0.3,11-5.5,10.8-11.7C347,141.4,335.2,129.1,335.2,129.1z M336.5,159.7c10.1-8.2,2.1-19.1,2.1-19.1
		C352.6,152.2,336.5,159.7,336.5,159.7z"/>
</g>
<g id="XMLID_217_">
	<path id="XMLID_339_" class="st2" d="M322.2,149.8c0,0-0.7,1.3-0.4,4.8c0,0-7.9,2.2-8.6,7.7c0,0,0.2,6.7,17.1,6.6
		c0,0,16.7,0.2,19.7-11.7c0,0,4.7,2.1,4.4,5c0,0,1.1,11.8-32.2,10.3c0,0-18.5-2.4-18.4-11.4C303.8,161.3,303.8,153,322.2,149.8z"/>
	<path id="XMLID_340_" class="st2" d="M322.2,157.5c0,0,1.4,7.1,8,7.7c0,0-7.9,2-11.8-2C318.4,163.2,317.1,159.8,322.2,157.5z"/>
	<path id="XMLID_341_" class="st2" d="M350.2,149.8c0,0,0.5,2.7,0.6,4.5c0,0,9.2,2.1,9.4,8.2c0,0-0.1,10.9-26.6,13.1
		c0,0-19.1,1.7-30.3-8.4c0,0,10.2,13.8,36,10.5c0,0,30.2-1.7,30.2-15.3C369.4,162.4,370.6,153.5,350.2,149.8z"/>
</g>
</svg>
