<?xml version="1.0" encoding="utf-8"?>
<!-- Generator: Adobe Illustrator 22.0.0, SVG Export Plug-In . SVG Version: 6.00 Build 0)  -->
<svg version="1.1" id="Capa_1" xmlns="http://www.w3.org/2000/svg" xmlns:xlink="http://www.w3.org/1999/xlink" x="0px" y="0px"
	 viewBox="0 0 400 300" style="enable-background:new 0 0 400 300;" xml:space="preserve">
<style type="text/css">
	.st0{fill:#D0F7F7;}
	.st1{fill:#E84E1B;}
	.st2{fill:#009EE2;}
	.st3{fill:#39A935;}
	.st4{fill:#1D1D1B;}
</style>
<rect class="st0" width="400" height="300"/>
<g id="XMLID_24_">
	
		<ellipse id="XMLID_331_" transform="matrix(0.2458 -0.9693 0.9693 0.2458 81.1124 244.3775)" class="st1" cx="197.6" cy="70.1" rx="8.9" ry="9.1"/>
	
		<ellipse id="XMLID_330_" transform="matrix(0.2458 -0.9693 0.9693 0.2458 91.0534 200.6665)" class="st2" cx="174.5" cy="41.8" rx="8.9" ry="9.1"/>
	
		<ellipse id="XMLID_329_" transform="matrix(0.2458 -0.9693 0.9693 0.2458 51.6029 180.997)" class="st3" cx="142.1" cy="57.3" rx="8.6" ry="9.2"/>
	<path id="XMLID_328_" class="st4" d="M144.3,70c0.5,0.6,1.1,1.3,1.5,2c0.5,0.6,1,1.4,1.4,2.1c1,1.4,1.9,2.8,2.7,4.2
		c0.9,1.4,1.7,2.9,2.5,4.3c0.8,1.4,1.5,3,2.3,4.5c1.4,3.1,2.7,6.1,3.8,9.4c0.5,1.6,0.9,3.2,1.3,5c0.4,1.7,0.5,3.4,0.6,5.1l-2.3-0.8
		c0.5-0.6,1.1-1.3,1.6-1.9l1.7-1.9l1.7-1.8c0.5-0.6,1.2-1.2,1.7-1.8c1.2-1.2,2.3-2.3,3.6-3.5c0.6-0.5,1.3-1.2,1.9-1.7
		c0.6-0.5,1.3-1.1,1.9-1.6c1.3-1.1,2.6-2.2,4-3.2c1.4-1,2.7-2,4.1-2.9c0.7-0.5,1.4-0.9,2.2-1.3c0.4-0.2,0.7-0.4,1.1-0.6
		c0.4-0.2,0.7-0.4,1.2-0.5c0.7-0.4,1.5-0.6,2.3-1l1.2-0.4l1.2-0.3l-1.2,0.5l-1.1,0.5c-0.7,0.4-1.4,0.8-2.2,1.3
		c-0.4,0.2-0.7,0.5-1.1,0.6s-0.7,0.5-1,0.7c-0.7,0.5-1.4,1-2,1.4c-0.6,0.5-1.3,1-1.9,1.5c-0.6,0.5-1.3,1.1-1.9,1.6l-1.8,1.6
		c-0.6,0.5-1.2,1.1-1.8,1.7c-1.2,1.2-2.3,2.3-3.5,3.4c-1.2,1.2-2.3,2.3-3.4,3.6c-1.1,1.2-2.3,2.4-3.3,3.6l-1.6,1.9
		c-0.5,0.6-1.1,1.3-1.6,1.9L158,110l-0.1-3.4c0-1.5-0.2-3.2-0.5-4.8c-0.3-1.6-0.7-3.2-1.1-4.7c-0.5-1.5-0.9-3.2-1.5-4.7
		c-0.5-1.5-1.2-3.1-1.8-4.6s-1.3-3.1-2-4.5c-0.7-1.5-1.4-3-2.2-4.5c-0.7-1.5-1.4-3-2.3-4.4c-0.4-0.7-0.8-1.4-1.2-2.2
		C145.1,71.3,144.7,70.6,144.3,70z"/>
	<g id="XMLID_53_">
		<path id="XMLID_323_" class="st2" d="M175.7,124.7c0,5.4-1.8,10.1-5.3,13.9c-3.6,3.9-8,5.8-13.3,5.8s-9.9-1.8-13.7-5.5
			c-3.8-3.7-5.7-8.1-5.7-13.5c0-5.1,1.8-9.6,5.4-13.5c3.6-3.9,8-5.8,13.2-5.8c5.3,0,9.9,1.8,13.7,5.4
			C173.8,115,175.7,119.4,175.7,124.7z M165.2,125c0-2.3-0.9-4.4-2.6-6c-1.7-1.6-3.8-2.4-6.2-2.4c-2.3,0-4.4,0.9-6,2.6
			c-1.6,1.7-2.4,3.8-2.4,6.2c0,2.3,0.9,4.4,2.6,6c1.7,1.6,3.8,2.4,6.2,2.4c2.3,0,4.4-0.9,6-2.6C164.4,129.4,165.2,127.4,165.2,125z"
			/>
		<path id="XMLID_321_" class="st2" d="M203.3,143.7l-2.8,0.1c-4.3,0-8.1-0.8-11.3-2.5c-3.7-1.9-6.3-4.8-7.7-8.6
			c-0.5-1.2-0.9-2.4-1.3-3.9s-0.5-2.7-0.5-3.8c0-3.7,1-7.1,3.1-10.2c2-3.1,4.8-5.4,8.4-6.8c0.8-0.3,2-0.6,3.5-0.8
			c1.5-0.3,2.7-0.5,3.5-0.5h1.4l3.8,0.3v9.8l-2.4-0.2c-2.7,0-5,0.6-6.8,2c-2.2,1.5-3.2,3.6-3.2,6.2c0,3,1.1,5.2,3.2,6.8
			c1.9,1.4,4.3,2,7.5,2h1.8L203.3,143.7L203.3,143.7z"/>
		<path id="XMLID_318_" class="st2" d="M221.5,97.1c0,1.6-0.5,3.1-1.7,4.2c-1.2,1.2-2.5,1.8-4.2,1.8c-1.6,0-3.1-0.5-4.2-1.7
			c-1.2-1.2-1.8-2.5-1.8-4.2c0-1.6,0.5-3.1,1.7-4.2c1.2-1.2,2.5-1.8,4.2-1.8c1.7,0,3.1,0.5,4.2,1.7
			C220.8,94.1,221.5,95.5,221.5,97.1z M220.9,143.8h-10.6v-36.6h10.6V143.8z"/>
		<path id="XMLID_315_" class="st2" d="M265,143.9h-10.4v-2.6c-1.4,1.1-3,1.8-4.7,2.3c-1.7,0.5-3.4,0.8-5,0.8
			c-4.8,0-8.9-1.9-12.4-5.7s-5.3-8.1-5.3-13.2c0-5,1.9-9.3,5.8-13.2c3.9-3.9,8.1-5.9,12.9-5.9c5.1,0,9.6,1.7,13.4,5.1
			c3.9,3.4,5.8,7.7,5.8,12.7L265,143.9L265,143.9z M254.5,126.1c0-2.3-0.8-4.3-2.5-5.9c-1.7-1.6-3.7-2.5-6-2.5s-4.3,0.8-5.9,2.5
			c-1.6,1.7-2.5,3.7-2.5,6c0,2.3,0.8,4.3,2.5,5.9c1.7,1.6,3.7,2.5,6,2.5c2.3,0,4.3-0.8,5.9-2.5C253.7,130.4,254.5,128.4,254.5,126.1
			z"/>
		<path id="XMLID_313_" class="st2" d="M285.3,143.9h-11V87.4h11V143.9z"/>
		<path id="XMLID_311_" class="st3" d="M203.6,200.3h-10.4v-21.9c0-1.4-0.5-2.7-1.7-3.7c-1.2-1-2.4-1.5-3.7-1.5
			c-0.8,0-1.6,0.3-2.4,0.8c-0.8,0.5-1.4,1.3-1.7,2.3l-0.8,2.6v21.4h-10v-21.4c0-1.6-0.5-3-1.7-4.2c-1.1-1.3-2.3-1.8-3.8-1.8
			c-1.7,0-3,0.8-3.8,2.4c-0.6,1.1-1,2-1,2.8v22.2h-10.4v-24.5c0.5-3.4,2.2-6.3,4.8-8.6c2.6-2.3,5.6-3.7,9.1-4h1.4
			c1.8,0,3.5,0.4,5.3,1.2c1.8,0.8,3.5,1.8,5.1,3.1c1.4-1.4,2.9-2.4,4.7-3.1c1.8-0.6,3.6-1,5.6-1c4.1,0,7.7,1.3,10.7,3.9
			c3.3,2.8,5,6.3,5,10.5v22.5H203.6z"/>
		<path id="XMLID_308_" class="st3" d="M244.4,178.9c0,0.9-0.1,2-0.4,3.1c-0.3,0.7-0.5,1.4-0.8,1.8c-0.3,0.5-0.7,0.9-1.4,1.4
			c-0.5,0.3-1.2,0.5-2.2,0.5c-1,0.1-1.5,0.1-1.7,0.1h-20.4c0.5,1.9,1.6,3.4,3.2,4.8c1.5,1.3,3.2,2,4.8,2c1.4,0,2.8-0.5,4.1-1.3
			c0.9-0.5,1.7-1.4,2.5-2.3h11.3c-1.4,3.6-3.8,6.5-7.1,8.6c-3.3,2.2-6.8,3.2-10.4,3.2c-5.5,0-9.9-1.9-13.3-5.8
			c-3.2-3.6-4.8-7.8-4.8-12.8c0-5,1.6-9.4,4.8-13c3.4-4,7.9-5.9,13.4-5.9c4.7,0,8.9,1.6,12.7,4.8
			C242.4,171.2,244.4,174.8,244.4,178.9z M235.3,178.9c-1.1-2-2.4-3.6-4.1-4.8c-1.7-1.3-3.5-1.9-5.6-1.9c-1.9,0-3.7,0.6-5.3,2
			c-1.6,1.3-2.7,2.9-3.2,4.8L235.3,178.9L235.3,178.9z"/>
		<path id="XMLID_305_" class="st3" d="M285.3,183.3c-0.5,4.6-2.3,8.5-5.7,11.8c-3.3,3.3-7.3,5.2-11.8,5.6h-1.6
			c-2.3,0-4.3-0.3-6.2-0.8c-1.9-0.5-3.7-1.5-5.4-2.8c-2.5-2.1-4.4-4.4-5.7-7c-1.3-2.6-1.8-5.5-1.8-8.7l0.3-3.8
			c0.9-4.2,3.1-7.7,6.6-10.3c3.5-2.7,7.3-4,11.4-4c1.4,0,2.9,0.2,4.4,0.6c1.5,0.5,3.1,1,4.4,1.8v-21.9h11L285.3,183.3L285.3,183.3z
			 M275,181.9c0-2.3-0.8-4.3-2.5-6c-1.6-1.7-3.7-2.5-5.9-2.5c-2.3,0-4.3,0.8-6,2.5c-1.7,1.6-2.5,3.7-2.5,5.9c0,2.3,0.8,4.3,2.5,6
			c1.6,1.7,3.7,2.5,5.9,2.5c2.3,0,4.3-0.8,6-2.5C274.1,186.2,275,184.2,275,181.9z"/>
		<path id="XMLID_302_" class="st3" d="M303,153.7c0,1.6-0.5,3.1-1.7,4.2c-1.2,1.2-2.5,1.8-4.2,1.8c-1.6,0-3.1-0.5-4.2-1.7
			c-1.2-1.2-1.8-2.5-1.8-4.2c0-1.6,0.5-3.1,1.7-4.2c1.2-1.2,2.5-1.8,4.2-1.8c1.7,0,3.1,0.5,4.2,1.7S303,152,303,153.7z M302.4,200.2
			h-10.6v-36.6h10.6V200.2z"/>
		<path id="XMLID_299_" class="st3" d="M346.5,200.3h-10.4v-2.6c-1.4,1.1-3,1.8-4.7,2.3c-1.7,0.5-3.4,0.8-5,0.8
			c-4.8,0-8.9-1.9-12.4-5.7c-3.5-3.8-5.3-8.1-5.3-13.2c0-5,1.9-9.3,5.8-13.2c3.9-3.9,8.1-5.9,12.9-5.9c5.1,0,9.6,1.7,13.4,5.1
			c3.9,3.4,5.8,7.7,5.8,12.7L346.5,200.3L346.5,200.3z M336,182.7c0-2.3-0.8-4.3-2.5-5.9s-3.7-2.5-6-2.5c-2.3,0-4.3,0.8-5.9,2.5
			c-1.6,1.7-2.5,3.7-2.5,6c0,2.3,0.8,4.3,2.5,5.9c1.7,1.6,3.7,2.5,6,2.5c2.3,0,4.3-0.8,5.9-2.5C335.2,187,336,185,336,182.7z"/>
		<path id="XMLID_297_" class="st2" d="M80.1,251.6c0,3.7-1.5,6.6-4.6,8.7c-2.7,1.9-5.9,2.9-9.8,2.9c-1.9,0-3.9-0.3-5.8-0.8
			c-1.9-0.5-3.6-1.4-5-2.4v-10c1.8,1.2,3.3,2,4.7,2.5c2,0.9,3.9,1.4,5.5,1.4c1.4,0,2.6-0.2,3.5-0.5s1.4-1.1,1.4-2.2
			c0-0.9-2.6-2.3-7.7-4.5c-5.1-2.1-7.7-5.4-7.7-10.1c0-3.6,1.3-6.7,3.9-9.1s5.9-3.7,10.2-3.7c2,0,3.8,0.2,5.4,0.5
			c1.6,0.4,3.3,0.9,5.2,1.7v10.6c-1.2-1-2.6-1.9-4.3-2.7c-1.7-0.7-3.3-1.2-5-1.2c-1.3,0-2.4,0.3-3.4,0.7c-1,0.5-1.5,1.3-1.5,2.3
			c0,0.9,2.5,2.4,7.6,4.8C77.6,242.8,80.1,246.5,80.1,251.6z"/>
		<path id="XMLID_294_" class="st2" d="M121.6,242.8c0,5.4-1.8,10.1-5.3,13.9c-3.6,3.9-8,5.8-13.3,5.8c-5.3,0-9.9-1.8-13.7-5.5
			c-3.8-3.7-5.7-8.1-5.7-13.5c0-5.1,1.8-9.6,5.4-13.5c3.6-3.9,8-5.8,13.2-5.8c5.3,0,9.9,1.8,13.7,5.4
			C119.8,233.2,121.6,237.6,121.6,242.8z M111.2,243.2c0-2.3-0.9-4.4-2.6-6c-1.7-1.6-3.8-2.4-6.2-2.4c-2.3,0-4.4,0.9-6,2.6
			c-1.6,1.7-2.4,3.8-2.4,6.2c0,2.3,0.9,4.4,2.6,6c1.7,1.6,3.8,2.4,6.2,2.4c2.3,0,4.4-0.9,6-2.6C110.4,247.6,111.2,245.5,111.2,243.2
			z"/>
		<path id="XMLID_97_" class="st2" d="M141.9,261.9h-11V151.5h11V261.9z"/>
		<path id="XMLID_94_" class="st2" d="M183.7,248.4c0,3.6-1.6,6.8-4.9,9.5c-3.2,2.8-7,4.2-11.2,4.2s-7.9-1.4-11.3-4.1
			c-3.2-2.8-5-6-5-9.6V225h10.6v20.8c0,1.9,0.5,3.5,1.5,4.8c1,1.4,2.3,2,3.8,2c1.6,0,3-0.6,4-2c1-1.3,1.4-2.9,1.4-4.9v-20.8h10.8
			L183.7,248.4L183.7,248.4z"/>
		<path id="XMLID_71_" class="st2" d="M206.9,261.9l-2.8,0.1c-4,0-7.5-1.2-10.4-3.7c-3.3-2.7-5-6-5-9.9v-39H199v16.1h7.8v9.6H199
			v11.4c0,1.7,0.7,3.2,2.3,4.6c0.8,0.5,1.6,0.7,2.4,0.8c0.8,0.1,1.9,0.2,3.2,0.2V261.9z"/>
		<path id="XMLID_62_" class="st2" d="M225.3,215.3c0,1.6-0.5,3.1-1.7,4.2s-2.5,1.8-4.2,1.8c-1.6,0-3.1-0.5-4.2-1.7
			c-1.2-1.2-1.8-2.5-1.8-4.2c0-1.6,0.5-3.1,1.7-4.2c1.2-1.2,2.5-1.8,4.2-1.8c1.6,0,3.1,0.5,4.2,1.7S225.3,213.7,225.3,215.3z
			 M224.8,261.9h-10.6v-36.6h10.6V261.9z"/>
		<path id="XMLID_56_" class="st2" d="M268.8,242.8c0,5.4-1.8,10.1-5.3,13.9c-3.6,3.9-8,5.8-13.3,5.8c-5.3,0-9.9-1.8-13.7-5.5
			c-3.8-3.7-5.7-8.1-5.7-13.5c0-5.1,1.8-9.6,5.4-13.5c3.6-3.9,8-5.8,13.2-5.8c5.3,0,9.9,1.8,13.7,5.4
			C266.9,233.2,268.8,237.6,268.8,242.8z M258.4,243.2c0-2.3-0.9-4.4-2.6-6c-1.7-1.6-3.8-2.4-6.2-2.4c-2.3,0-4.4,0.9-6,2.6
			c-1.6,1.7-2.4,3.8-2.4,6.2c0,2.3,0.9,4.4,2.6,6c1.7,1.6,3.8,2.4,6.2,2.4c2.3,0,4.4-0.9,6-2.6C257.6,247.6,258.4,245.5,258.4,243.2
			z"/>
		<path id="XMLID_54_" class="st2" d="M306,261.9h-10.5v-20c0-1.9-0.6-3.5-1.8-5c-1.2-1.4-2.5-2.3-4.1-2.3c-0.5,0-1.1,0.1-1.8,0.4
			c-0.6,0.3-1.3,0.5-1.9,1.1c-0.5,0.7-0.8,1.4-1.2,2c-0.3,0.5-0.5,1.2-0.6,1.9V262h-10.4v-24c0.4-3.2,1.8-6,4.4-8.6
			c2.6-2.4,5.6-4.1,9-4.8h2.5c3.9,0,7.3,1.3,10.4,3.7c3.1,2.4,5,5.6,5.9,9.5V261.9z"/>
	</g>
	<path id="XMLID_52_" class="st4" d="M171.3,54.5c0,0-7.5,16.1-11.7,51.1"/>
	<g id="XMLID_45_">
		<path id="XMLID_46_" class="st2" d="M347.5,247.4c0,5.7-2.1,10.1-6.1,13.2c-3.5,2.6-7.7,3.9-12.9,3.9c-2.3,0-4.8-0.3-7.4-0.8
			s-5.2-1.3-7.7-2.3v-12.1c2.6,0.9,4.7,1.6,6.1,2c4.4,1.4,7.4,2,8.9,2c1.9,0,3.7-0.5,5.3-1.6c1.8-1.3,2.7-2.8,2.7-4.6
			c0-2.3-2.1-4.1-6.1-5.6c-6.1-2.2-10-3.7-11.5-4.8c-4.1-2.9-6.2-7.2-6.2-13.1c0-4.7,1.7-8.6,5.1-11.8c3.6-3.4,8.2-5.1,13.7-5.1
			c3.1,0,5.7,0.2,7.7,0.5c2,0.4,4.1,1,6.1,1.9v12.3c-1.6-1.2-3.6-2.2-5.8-2.9c-2.2-0.7-4.2-1.1-6.2-1.1c-2.2,0-4.1,0.5-5.9,1.7
			c-1.8,1.2-2.7,2.7-2.7,4.7c0,2.5,2,4.4,5.9,5.9c5.9,2.2,9.6,3.7,11,4.6C345.5,237.1,347.5,241.5,347.5,247.4z"/>
	</g>
	<g id="XMLID_326_">
		<path id="XMLID_327_" class="st2" d="M132.9,129.4c0,5.7-2.1,10.1-6.1,13.2c-3.5,2.6-7.7,3.9-12.9,3.9c-2.3,0-4.8-0.3-7.4-0.8
			c-2.6-0.5-5.2-1.3-7.7-2.3v-12.1c2.6,0.9,4.7,1.6,6.1,2c4.4,1.4,7.4,2,8.9,2c1.9,0,3.7-0.5,5.3-1.6c1.8-1.3,2.7-2.8,2.7-4.6
			c0-2.3-2.1-4.1-6.1-5.6c-6.1-2.2-10-3.7-11.5-4.8c-4.1-2.9-6.2-7.2-6.2-13.1c0-4.7,1.7-8.6,5.1-11.8c3.6-3.4,8.2-5.1,13.7-5.1
			c3.1,0,5.7,0.2,7.7,0.5c2,0.4,4.1,1,6.1,1.9v12.3c-1.6-1.2-3.6-2.2-5.8-2.9c-2.2-0.7-4.2-1.1-6.2-1.1c-2.2,0-4.1,0.5-5.9,1.7
			c-1.8,1.2-2.7,2.7-2.7,4.7c0,2.5,2,4.4,5.9,5.9c5.9,2.2,9.6,3.7,11,4.6C130.9,119.2,132.9,123.6,132.9,129.4z"/>
	</g>
</g>
</svg>
