<?xml version="1.0" encoding="utf-8"?>
<!-- Generator: Adobe Illustrator 22.0.0, SVG Export Plug-In . SVG Version: 6.00 Build 0)  -->
<svg version="1.1" id="Capa_1" xmlns="http://www.w3.org/2000/svg" xmlns:xlink="http://www.w3.org/1999/xlink" x="0px" y="0px"
	 viewBox="0 0 400 300" style="enable-background:new 0 0 400 300;" xml:space="preserve">
<style type="text/css">
	.st0{fill:#C5EFDD;}
	.st1{fill:#00622F;}
	.st2{fill:#804A1C;}
	.st3{fill:#00893B;}
	.st4{fill:none;stroke:#00893B;stroke-miterlimit:10;}
	.st5{fill:#007236;}
	.st6{fill:#00984B;}
	.st7{fill:#007938;}
	.st8{fill:#009748;}
	.st9{fill:#E676A0;}
	.st10{fill:#D3358C;}
</style>
<rect class="st0" width="400" height="300"/>
<g>
	<g>
		<path class="st1" d="M165.4,175.2l-7.9,27h-7l-7.1-27h7.9l5.3,20.5l5.8-20.5H165.4z"/>
		<path class="st1" d="M184.9,175.2v2.7h-9.7v8.2h8.2v2.7h-8.2v10.7h11.4v2.7h-19.2v-27L184.9,175.2L184.9,175.2z"/>
		<path class="st1" d="M189,202.3v-27h11.6c3,0,5.4,0.7,7.2,1.9c1.8,1.3,2.7,3,2.7,5.2c0,3.3-2,5.4-5.8,6.4c2,0.8,3.3,1.6,3.8,2.4
			c0.6,0.8,1,2.6,1.2,5.2c0.3,3,0.8,5.1,1.5,6h-8.5c-0.6-1.2-0.8-2.8-0.8-4.7V196V194c0-3.1-1.2-4.7-3.8-4.7h-1.3v13H189z
			 M196.8,187h1.6c3,0,4.4-1.6,4.4-4.7c0-3.1-1.5-4.7-4.4-4.7h-1.6V187z"/>
		<path class="st1" d="M214.6,202.3v-27h11.2c8,0,11.9,4.5,11.9,13.5s-4.1,13.5-12.4,13.5L214.6,202.3L214.6,202.3z M222.5,200.1
			h2.1c1.9,0,3.2-0.8,3.9-2.4c0.8-1.6,1.1-4.6,1.1-8.8c0-4.2-0.4-7.2-1.1-8.8c-0.8-1.6-2.1-2.4-3.9-2.4h-2.1V200.1z"/>
		<path class="st1" d="M258.7,175.2v2.7h-9.7v8.2h8.2v2.7h-8.2v10.7h11.4v2.7h-19.1v-27L258.7,175.2L258.7,175.2z"/>
	</g>
	<g>
		<path class="st2" d="M161.8,265l-3.3-4c-0.5-0.7-0.9-1.2-1.3-1.8c-0.4-0.6-0.7-1.1-0.8-1.7c-0.2-0.6-0.4-1.2-0.4-2
			c-0.1-0.8-0.1-1.7-0.1-2.7v-48.6h6.6v52.7h3.8v-52.7h6.6v48.6c0,1,0,2-0.1,2.7c-0.1,0.8-0.3,1.4-0.5,2c-0.2,0.6-0.5,1.1-0.8,1.7
			c-0.4,0.6-0.8,1.1-1.2,1.8l-3.3,4L161.8,265L161.8,265z"/>
		<path class="st2" d="M177.8,265v-60.8h13.9v5.9h-7.2v21.4h6.1v6h-6.1v21.6h7.2v5.9H177.8z"/>
		<path class="st2" d="M207.1,204.2c1.5,0,2.8,0.6,3.8,1.6c1,1,1.6,2.3,1.6,3.8v20.2c0,0.5,0,0.9-0.1,1.5c-0.1,0.6-0.2,1-0.5,1.5
			s-0.7,0.8-1.1,1.2c-0.5,0.4-1.1,0.6-2,0.7c1.7,0.3,2.8,0.8,3.1,1.8c0.4,0.9,0.6,1.8,0.6,2.7V265H206v-27.5h-3.9V265h-6.6v-60.8
			H207.1z M206,231.5v-21.4h-3.9v21.4H206z"/>
		<path class="st2" d="M234.7,259.6c0,1.4-0.6,2.7-1.6,3.8c-1,1-2.3,1.6-3.8,1.6h-11.7v-60.8h11.7c1.4,0,2.7,0.6,3.8,1.6
			c1,1,1.6,2.3,1.6,3.8V259.6z M228.1,210.2h-3.9v48.9h3.9V210.2z"/>
		<path class="st2" d="M239.7,265v-60.8h13.9v5.9h-7.2v21.4h6.1v6h-6.1v21.6h7.2v5.9H239.7z"/>
	</g>
	<path class="st3" d="M200.6,169.7"/>
	<path class="st3" d="M198.2,170.7"/>
	<polygon class="st4" points="177,73 177.8,69.3 174.5,68.8 175.1,70 177,69.9 176.4,72 	"/>
	<g>
		<path class="st5" d="M172.8,118c0,20.9,10.9,39.3,27.3,50.1V67.8C183.7,78.7,172.8,97.1,172.8,118z"/>
		<path class="st6" d="M228.9,118c0-20.9-10.9-39.3-27.4-50.2l0,0v100.3l0,0C218,157.4,228.9,138.9,228.9,118z"/>
		<path class="st7" d="M171.1,118c0-23.1,13-43.3,32.5-54.2c-26.5,5.3-46.3,27.7-46.3,54.4c0,27,20.2,49.6,47,54.6
			c0.1,0,0.2,0,0.3-0.1C184.5,162,171.1,141.5,171.1,118z M193.9,68.2l-0.5,2.1l-0.4-0.6l0.4-1.1h-1l-0.4-0.7L193.9,68.2z M189.7,71
			l-0.5,2.1l-0.4-0.6l0.4-1.1h-1l-0.4-0.7L189.7,71z M185.8,74.3l-0.5,2.1l-0.4-0.6l0.4-1.1h-1l-0.4-0.7L185.8,74.3z M181.1,79.1
			l-0.5,2.1l-0.4-0.6l0.4-1.1h-1l-0.4-0.7L181.1,79.1z M176.7,83.1l0.3,2.1l-0.6-0.4l-0.1-1.2l-0.9,0.4l-0.7-0.5L176.7,83.1z
			 M172.9,89.2l0.3,2.1l-0.6-0.4l-0.1-1.2l-0.9,0.4l-0.7-0.5L172.9,89.2z M170.4,95.8l0.7,2l-0.6-0.3l-0.3-1.2l-0.9,0.6l-0.7-0.4
			L170.4,95.8z M167.1,104.3l0.7,2l-0.6-0.3l-0.3-1.2l-0.9,0.6l-0.7-0.4L167.1,104.3z M165.5,113.7l1.2,1.8l-0.7-0.1l-0.7-1
			l-0.7,0.8l-0.8-0.2L165.5,113.7z M164.8,124l-0.8-0.1l1.4-1.4l1.3,1.6l-0.7-0.1l-0.8-0.9L164.8,124z M166.8,132.7l-0.5,0.9
			l-0.8,0.1l1.1-1.6l1.6,1.3l-0.7,0.1L166.8,132.7z M170.2,141.2l-1.1-0.5l-0.1,1l-0.7,0.4l0.5-2l2,0.7L170.2,141.2z M174.5,148.2
			l-1.1-0.5l-0.1,1l-0.7,0.4l0.5-2l2,0.7L174.5,148.2z M179.6,154.8l-1.1-0.5l-0.1,1l-0.7,0.4l0.5-2l2,0.7L179.6,154.8z
			 M184.9,160.5l-1.1-0.5l-0.1,1l-0.7,0.4l0.5-2l2,0.7L184.9,160.5z M189.1,164.3l-1.1-0.5l-0.1,1l-0.7,0.4l0.5-2l2,0.7L189.1,164.3
			z M195.2,168.1l-1.1-0.5l-0.1,1l-0.7,0.4l0.5-2l2,0.7L195.2,168.1z"/>
		<path class="st8" d="M197.3,172.6c0.1,0,0.2,0,0.3,0.1c26.7-5.1,47-27.6,47-54.6c0-26.8-19.8-49.2-46.3-54.4
			c19.4,11,32.5,31.2,32.5,54.2C230.8,141.3,217.3,161.8,197.3,172.6z M209.8,67.6l-0.4,0.7h-1l0.4,1.1l-0.4,0.6l-0.5-2.1
			L209.8,67.6z M214.1,70.5l-0.4,0.7h-1l0.4,1.1l-0.4,0.6l-0.5-2.1L214.1,70.5z M217.9,73.7l-0.4,0.7h-1l0.4,1.1l-0.4,0.6L216,74
			L217.9,73.7z M222.6,78.5l-0.4,0.7h-1l0.4,1.1l-0.4,0.6l-0.5-2.1L222.6,78.5z M227,83.3l-0.7,0.5l-0.9-0.4l-0.1,1.2l-0.6,0.4
			l0.3-2.1L227,83.3z M230.8,89.4l-0.7,0.5l-0.9-0.4l-0.1,1.2l-0.6,0.4l0.3-2.1L230.8,89.4z M233.2,96.3l-0.7,0.4l-0.9-0.6l-0.3,1.2
			l-0.6,0.3l0.7-2L233.2,96.3z M236.5,104.8l-0.7,0.4l-0.9-0.6l-0.3,1.2l-0.6,0.3l0.7-2L236.5,104.8z M237.8,114.7l-0.8,0.2
			l-0.7-0.8l-0.7,1l-0.7,0.1l1.2-1.8L237.8,114.7z M236.4,123l-0.8,0.9L235,124l1.3-1.6l1.4,1.4l-0.8,0.1L236.4,123z M234.1,133.2
			l-0.7-0.1l1.6-1.3l1.1,1.6l-0.8-0.1l-0.5-0.9L234.1,133.2z M231,140.6l2-0.7l0.5,2l-0.7-0.4l-0.1-1l-1.1,0.5L231,140.6z
			 M226.7,147.7l2-0.7l0.5,2l-0.7-0.4l-0.1-1l-1.1,0.5L226.7,147.7z M221.6,154.3l2-0.7l0.5,2l-0.7-0.4l-0.1-1l-1.1,0.5L221.6,154.3
			z M216.3,160l2-0.7l0.5,2l-0.7-0.4l-0.1-1l-1.1,0.5L216.3,160z M212.1,163.7l2-0.7l0.5,2l-0.7-0.4l-0.1-1l-1.1,0.5L212.1,163.7z
			 M206,167.5l2-0.7l0.5,2l-0.7-0.4l-0.1-1l-1.1,0.5L206,167.5z"/>
		<path class="st3" d="M154.6,118.3c0-27.1,20.5-49.6,47.6-54.6c-3.6-0.7-7.3-1-11.2-1c-32,0-57.9,25-57.9,55.7S159,174,191,174
			c3.8,0,7.5-0.4,11.2-1C175,168,154.6,145.3,154.6,118.3z M189.2,64.2l-0.8,3.6l-0.7-1l0.6-2.1h-1.9l-0.8-1.1L189.2,64.2z
			 M182.2,66.5l-0.8,3.6l-0.7-1l0.6-2.1h-1.9l-0.8-1.1L182.2,66.5z M175.5,69.9l-0.8,3.6l-0.7-1l0.6-2.1h-1.9l-0.8-1.1L175.5,69.9z
			 M169.4,73.6l-0.8,3.6l-0.7-1l0.6-2.1h-1.9l-0.8-1.1L169.4,73.6z M162.8,79.3l-0.8,3.6l-0.7-1l0.6-2.1H160l-0.8-1.1L162.8,79.3z
			 M156,86.6v3.7l-0.8-0.8l0.1-2.2l-1.8,0.5l-0.9-0.9L156,86.6z M152.7,91.8v3.7l-0.8-0.8l0.1-2.2l-1.8,0.5l-0.9-0.9L152.7,91.8z
			 M150.3,97v3.7l-0.8-0.8l0.1-2.2l-1.8,0.5l-0.9-0.9L150.3,97z M147.8,105.2l2,3.1l-1.1-0.3l-1-1.9l-1.3,1.3l-1.3-0.3L147.8,105.2z
			 M146.9,113.7l2,3.1l-1.1-0.3l-1-1.9l-1.3,1.3l-1.3-0.3L146.9,113.7z M144.5,126.1l1.8-3l3,2.2l-1.1,0.2l-1.7-1.3l-0.7,1.7
			L144.5,126.1z M147.9,133.7l-0.5,1.8l-1.3,0.4l1.4-3.2l3.3,1.8l-1.1,0.4L147.9,133.7z M154,144.7l-1.8-1.1l-0.5,1.8l-1.3,0.4
			l1.4-3.2l3.3,1.8L154,144.7z M160.3,154l-2.1-0.4l0.2,1.9l-1,0.8l0.3-3.5l3.7,0.6L160.3,154z M168.8,161.5l-2.1-0.4l0.2,1.9
			l-1,0.8l0.3-3.5l3.7,0.6L168.8,161.5z M185,169.3l3.7,0.6l-0.9,0.8l-2.1-0.4l0.2,1.9l-1,0.8L185,169.3z M176.4,166.5l3.7,0.6
			l-0.9,0.8l-2.1-0.4l0.2,1.9l-1,0.8L176.4,166.5z"/>
		<path class="st3" d="M199.7,172.9c3.6,0.7,7.3,1,11.2,1c32,0,57.9-25,57.9-55.7s-25.9-55.7-57.9-55.7c-3.8,0-7.5,0.4-11.2,1
			c27.1,5,47.6,27.6,47.6,54.6C247.2,145.3,226.7,168,199.7,172.9z M216,63.6l-0.8,1.1h-1.9l0.6,2.1l-0.7,1l-0.8-3.6L216,63.6z
			 M223.2,65.9l-0.8,1.1h-1.9l0.6,2.1l-0.7,1l-0.8-3.6L223.2,65.9z M229.7,69.2l-0.8,1.1h-1.9l0.6,2.1l-0.7,1l-0.8-3.6L229.7,69.2z
			 M235.8,73.1l-0.8,1.1h-1.9l0.6,2.1l-0.7,1l-0.8-3.6L235.8,73.1z M242.5,78.7l-0.8,1.1h-1.9l0.6,2.1l-0.7,1l-0.8-3.6L242.5,78.7z
			 M249.3,86.8l-0.9,0.9l-1.8-0.5l0.1,2.2l-0.8,0.8v-3.7L249.3,86.8z M252.5,92l-0.9,0.9l-1.8-0.5l0.1,2.2l-0.8,0.8v-3.7L252.5,92z
			 M254.9,97.2l-0.9,0.9l-1.8-0.5l0.1,2.2l-0.8,0.8V97L254.9,97.2z M256.9,107.2l-1.3,0.3l-1.3-1.3l-1,1.9l-1.1,0.3l2-3.1
			L256.9,107.2z M257.8,115.7l-1.3,0.3l-1.3-1.3l-1,1.9l-1.1,0.3l2-3.1L257.8,115.7z M256,125.9l-0.7-1.7l-1.7,1.3l-1.1-0.2l3-2.2
			l1.8,3L256,125.9z M252.1,134.7l-1.1-0.4l3.3-1.8l1.4,3.2l-1.3-0.4l-0.5-1.8L252.1,134.7z M246.7,144.3l3.3-1.8l1.4,3.2l-1.3-0.4
			l-0.5-1.8l-1.8,1.1L246.7,144.3z M240.6,153.2l3.7-0.6l0.3,3.5l-1-0.8l0.2-1.9l-2.1,0.4L240.6,153.2z M232.1,160.8l3.7-0.6
			l0.3,3.5l-1-0.8l0.2-1.9l-2.1,0.4L232.1,160.8z M217.2,172.7l-1-0.8l0.2-1.9l-2.1,0.4l-0.9-0.8l3.7-0.6L217.2,172.7z M225.6,169.9
			l-1-0.8l0.2-1.9l-2.1,0.4l-0.9-0.8l3.7-0.6L225.6,169.9z"/>
	</g>
	<g>
		<path class="st9" d="M170,35.8c0,0-1.9,26.4,31.3,29.9C201.3,65.8,199.8,44.8,170,35.8z"/>
		<path class="st10" d="M189.6,28.3c0,0-16.3,23.2,11.6,37.5C201.2,65.9,211.5,46.4,189.6,28.3z"/>
		<path class="st9" d="M216.2,28.8c0,0-29.4,13.2-15,36.9C201.2,65.7,222.9,53.2,216.2,28.8z"/>
		<path class="st10" d="M229.1,33.9c0,0-33,6.2-27.9,32C201.2,65.9,226.6,58.7,229.1,33.9z"/>
	</g>
</g>
</svg>
