<?xml version="1.0" encoding="utf-8"?>
<!-- Generator: Adobe Illustrator 22.0.0, SVG Export Plug-In . SVG Version: 6.00 Build 0)  -->
<svg version="1.1" id="Capa_1" xmlns="http://www.w3.org/2000/svg" xmlns:xlink="http://www.w3.org/1999/xlink" x="0px" y="0px"
	 viewBox="0 0 400 300" style="enable-background:new 0 0 400 300;" xml:space="preserve">
<style type="text/css">
	.st0{fill:#5AD18F;}
	.st1{fill:#FFFFFF;}
	.st2{fill:none;}
	.st3{fill:#1E110C;}
	.st4{fill:#00622F;}
	.st5{fill:#804A1C;}
	.st6{fill:#00893B;}
	.st7{fill:none;stroke:#00893B;stroke-miterlimit:10;}
	.st8{fill:#007236;}
	.st9{fill:#00984B;}
	.st10{fill:#007938;}
	.st11{fill:#009748;}
	.st12{fill:#E676A0;}
	.st13{fill:#D3358C;}
	.st14{fill:#1F140F;}
</style>
<rect class="st0" width="400" height="300"/>
<g>
	<ellipse class="st1" cx="200.4" cy="152" rx="135.4" ry="133"/>
	<g>
		<g>
			<g>
				<g>
					<g>
						<path class="st2" d="M328.3,152c0,7.2-0.7,14.3-1.9,21.4l14.8,2.6c1.4-7.9,2.1-15.9,2.1-24H328.3z"/>
					</g>
					<g>
						<path class="st3" d="M334.8,153.3c-0.1,2-0.1,4-0.2,6l2,0.1c0.1-2,0.1-4.1,0.2-6.1H334.8z"/>
					</g>
					<g>
						<polygon class="st3" points="334.4,161.8 334.2,164.8 336.2,165 336.4,161.9 						"/>
					</g>
					<g>
						<path class="st3" d="M333.9,167.3c-0.3,2-0.5,4-0.8,6l2,0.3c0.4-2,0.6-4,0.8-6.1L333.9,167.3z"/>
					</g>
				</g>
			</g>
			<g>
				<g>
					<g>
						<path class="st2" d="M326.4,173.4c-1.2,7.1-3,14-5.5,20.7l14.1,5.1c2.8-7.5,4.8-15.4,6.2-23.3L326.4,173.4z"/>
					</g>
					<g>
						<polygon class="st3" points="332.6,175.7 332.1,178.7 331.4,181.6 333.3,182.1 334,179.1 334.6,176.1 						"/>
					</g>
					<g>
						<path class="st3" d="M330.8,184.1c-0.2,1-0.5,1.9-0.8,2.9l1.9,0.5c0.3-1,0.6-2,0.8-2.9L330.8,184.1z"/>
					</g>
					<g>
						<path class="st3" d="M329.3,189.4c-0.5,1.9-1.2,3.8-1.9,5.7l1.9,0.7c0.7-1.9,1.4-3.8,1.9-5.8L329.3,189.4z"/>
					</g>
				</g>
			</g>
			<g>
				<g>
					<g>
						<path class="st2" d="M320.9,194.1c-2.5,6.7-5.5,13.2-9.1,19.5l13,7.5c4-7,7.4-14.3,10.2-21.8L320.9,194.1z"/>
					</g>
					<g>
						<polygon class="st3" points="326.6,197.5 324.4,203.1 326.2,203.9 328.5,198.2 						"/>
					</g>
					<g>
						<polygon class="st3" points="323.3,205.4 322.1,208.1 323.9,209 325.1,206.2 						"/>
					</g>
					<g>
						<path class="st3" d="M321,210.4c-0.9,1.8-1.8,3.6-2.8,5.3l1.7,1c1-1.8,1.9-3.6,2.9-5.4L321,210.4z"/>
					</g>
				</g>
			</g>
			<g>
				<g>
					<g>
						<path class="st2" d="M311.8,213.6c-3.6,6.2-7.6,12.2-12.2,17.6l11.5,9.6c5.2-6.1,9.7-12.8,13.7-19.8L311.8,213.6z"/>
					</g>
					<g>
						<polygon class="st3" points="316.8,217.9 315.3,220.5 313.7,223 315.4,224.1 317,221.5 318.6,218.9 						"/>
					</g>
					<g>
						<path class="st3" d="M312.3,225.1c-0.5,0.9-1.2,1.6-1.7,2.5l1.6,1.2c0.6-0.8,1.2-1.6,1.8-2.5L312.3,225.1z"/>
					</g>
					<g>
						<path class="st3" d="M309.1,229.6c-1.1,1.7-2.5,3.2-3.7,4.8l1.6,1.3c1.3-1.6,2.6-3.1,3.8-4.8L309.1,229.6z"/>
					</g>
				</g>
			</g>
			<g>
				<g>
					<g>
						<path class="st2" d="M299.6,231.2c-4.6,5.5-9.7,10.6-15.1,15.3l9.8,11.4c6.1-5.2,11.7-10.9,16.9-17.1L299.6,231.2z"/>
					</g>
					<g>
						<polygon class="st3" points="303.8,236.3 299.8,240.8 301.3,242.2 305.3,237.6 						"/>
					</g>
					<g>
						<polygon class="st3" points="298.1,242.6 296,244.8 297.4,246.2 299.5,244 						"/>
					</g>
					<g>
						<path class="st3" d="M294.2,246.5l-2.2,2.1c-0.7,0.7-1.5,1.4-2.2,2l1.3,1.5c0.8-0.6,1.5-1.3,2.3-2l2.2-2.1L294.2,246.5z"/>
					</g>
				</g>
			</g>
			<g>
				<g>
					<g>
						<path class="st2" d="M284.5,246.5c-5.4,4.7-11.3,8.9-17.4,12.6l7.7,12.9c6.9-4.1,13.4-8.9,19.5-14.1L284.5,246.5z"/>
					</g>
					<g>
						<path class="st3" d="M287.8,252.3c-0.8,0.6-1.5,1.3-2.3,1.9l-2.4,1.8l1.2,1.6l2.4-1.9c0.8-0.6,1.6-1.3,2.3-2L287.8,252.3z"/>
					</g>
					<g>
						<path class="st3" d="M281.1,257.6c-0.8,0.6-1.6,1.2-2.5,1.7l1.2,1.6c0.8-0.6,1.7-1.2,2.5-1.8L281.1,257.6z"/>
					</g>
					<g>
						<path class="st3" d="M276.6,260.7c-1.6,1.2-3.4,2.2-5.1,3.3l1,1.7c1.7-1.1,3.5-2.1,5.1-3.3L276.6,260.7z"/>
					</g>
				</g>
			</g>
			<g>
				<g>
					<g>
						<path class="st2" d="M267.1,259.1c-6.2,3.7-12.6,6.8-19.3,9.5l5.5,14c7.5-2.9,14.7-6.5,21.6-10.6L267.1,259.1z"/>
					</g>
					<g>
						<path class="st3" d="M269.3,265.3c-1.8,1-3.5,2-5.3,2.9l0.9,1.8c1.8-1,3.6-2,5.3-3L269.3,265.3z"/>
					</g>
					<g>
						<polygon class="st3" points="261.8,269.4 259.1,270.7 260,272.6 262.7,271.2 						"/>
					</g>
					<g>
						<polygon class="st3" points="256.9,271.8 254.1,273 252.7,273.6 251.3,274.2 252.1,276 253.5,275.5 254.9,274.9 257.7,273.6 
													"/>
					</g>
				</g>
			</g>
			<g>
				<g>
					<g>
						<path class="st2" d="M247.8,268.6c-6.7,2.6-13.6,4.7-20.6,6.2l3.1,14.7c7.9-1.6,15.5-4,23-6.9L247.8,268.6z"/>
					</g>
					<g>
						<path class="st3" d="M249,275.1c-0.9,0.4-1.9,0.7-2.8,1.1l-2.9,0.9l0.6,1.9l2.9-1c1-0.3,1.9-0.7,2.9-1.1L249,275.1z"/>
					</g>
					<g>
						<path class="st3" d="M240.9,277.9c-1,0.3-1.9,0.6-2.9,0.8l0.5,1.9c1-0.3,2-0.5,2.9-0.8L240.9,277.9z"/>
					</g>
					<g>
						<path class="st3" d="M235.6,279.4c-1.9,0.6-3.9,0.9-5.9,1.4l0.4,2c2-0.5,4-0.8,5.9-1.4L235.6,279.4z"/>
					</g>
				</g>
			</g>
			<g>
				<g>
					<g>
						<path class="st2" d="M227.2,274.7c-7,1.4-14.2,2.3-21.4,2.6l0.6,15c8-0.4,16-1.3,23.8-2.9L227.2,274.7z"/>
					</g>
					<g>
						<polygon class="st3" points="227.3,281.4 221.3,282.4 221.6,284.4 227.6,283.3 						"/>
					</g>
					<g>
						<polygon class="st3" points="218.8,282.7 215.8,283.1 216.1,285.1 219.1,284.7 						"/>
					</g>
					<g>
						<polygon class="st3" points="213.3,283.4 207.3,283.8 207.4,285.8 213.5,285.4 						"/>
					</g>
				</g>
			</g>
			<g>
				<g>
					<g>
						<path class="st2" d="M205.8,277.4l-5.4,0.1l-5.4-0.1c-0.9,0-1.8-0.1-2.7-0.1l-2.7-0.2c-0.9-0.1-1.8-0.1-2.7-0.2l-2.7-0.3
							l-1.8,14.9l3,0.4c1,0.1,2,0.2,3,0.2l3,0.2c1,0.1,2,0.1,3,0.2l6,0.1l6-0.1L205.8,277.4z"/>
					</g>
					<g>
						<path class="st3" d="M204.8,283.9c-2,0-4,0.2-6,0.1v2c2,0.1,4.1,0,6.1-0.1L204.8,283.9z"/>
					</g>
					<g>
						<path class="st3" d="M196.3,283.9c-1,0-2,0-3-0.1l-0.1,2c1,0,2,0.1,3.1,0.1V283.9z"/>
					</g>
					<g>
						<path class="st3" d="M190.7,283.6c-2-0.2-4-0.2-6-0.5l-0.2,2c2,0.3,4.1,0.4,6.1,0.6L190.7,283.6z"/>
					</g>
				</g>
			</g>
			<g>
				<g>
					<g>
						<path class="st2" d="M184.3,276.5c-7.1-0.9-14.2-2.3-21.1-4.4l-4.3,14.4c7.7,2.3,15.6,3.9,23.5,4.9L184.3,276.5z"/>
					</g>
					<g>
						<path class="st3" d="M182.2,282.8c-2-0.2-4-0.6-6-0.9l-0.4,2c2,0.4,4,0.7,6,0.9L182.2,282.8z"/>
					</g>
					<g>
						<path class="st3" d="M173.8,281.4c-1-0.2-2-0.4-2.9-0.6l-0.4,2c1,0.2,2,0.5,3,0.7L173.8,281.4z"/>
					</g>
					<g>
						<path class="st3" d="M168.4,280.2c-2-0.4-3.9-1-5.8-1.5l-0.6,1.9c2,0.5,3.9,1.2,5.9,1.6L168.4,280.2z"/>
					</g>
				</g>
			</g>
			<g>
				<g>
					<g>
						<path class="st2" d="M163.2,272.1c-6.9-2.1-13.6-4.7-20-7.9l-6.6,13.5c7.2,3.5,14.7,6.5,22.4,8.8L163.2,272.1z"/>
					</g>
					<g>
						<polygon class="st3" points="160.1,278 154.4,276.1 153.8,278 159.6,279.9 						"/>
					</g>
					<g>
						<polygon class="st3" points="152.1,275.2 149.3,274.1 148.5,275.9 151.4,277 						"/>
					</g>
					<g>
						<path class="st3" d="M147,273.1c-1.8-0.8-3.7-1.6-5.5-2.5l-0.9,1.8c1.8,0.9,3.7,1.7,5.6,2.5L147,273.1z"/>
					</g>
				</g>
			</g>
			<g>
				<g>
					<g>
						<path class="st2" d="M143.2,264.2c-6.4-3.2-12.6-6.8-18.4-11.1l-8.8,12.2c6.5,4.7,13.4,8.8,20.6,12.4L143.2,264.2z"/>
					</g>
					<g>
						<polygon class="st3" points="139.2,269.5 136.5,268.2 133.9,266.7 132.9,268.4 135.6,269.9 138.3,271.3 						"/>
					</g>
					<g>
						<path class="st3" d="M131.7,265.4c-0.9-0.5-1.7-1-2.6-1.6l-1,1.7c0.9,0.5,1.7,1.1,2.6,1.6L131.7,265.4z"/>
					</g>
					<g>
						<path class="st3" d="M127,262.6c-1.7-1-3.3-2.2-5-3.4l-1.2,1.6c1.7,1.2,3.3,2.4,5.1,3.4L127,262.6z"/>
					</g>
				</g>
			</g>
			<g>
				<g>
					<g>
						<path class="st2" d="M124.8,253.2c-5.8-4.2-11.3-8.9-16.3-14l-10.7,10.5c5.6,5.7,11.7,10.9,18.2,15.6L124.8,253.2z"/>
					</g>
					<g>
						<polygon class="st3" points="119.9,257.7 115.1,254 113.9,255.6 118.7,259.3 						"/>
					</g>
					<g>
						<polygon class="st3" points="113.2,252.4 110.9,250.5 109.6,252 111.9,254 						"/>
					</g>
					<g>
						<path class="st3" d="M109.1,248.8c-1.5-1.4-3-2.7-4.4-4.2l-1.4,1.4c1.4,1.5,3,2.8,4.4,4.2L109.1,248.8z"/>
					</g>
				</g>
			</g>
			<g>
				<g>
					<g>
						<path class="st2" d="M108.4,239.2c-5-5.1-9.7-10.6-13.7-16.5l-12.3,8.6c4.6,6.6,9.7,12.8,15.4,18.5L108.4,239.2z"/>
					</g>
					<g>
						<polygon class="st3" points="102.9,242.8 100.8,240.7 98.8,238.4 97.3,239.7 99.4,242 101.5,244.2 						"/>
					</g>
					<g>
						<path class="st3" d="M97.2,236.5c-0.7-0.7-1.3-1.6-1.9-2.3l-1.6,1.3c0.6,0.8,1.2,1.6,1.9,2.4L97.2,236.5z"/>
					</g>
					<g>
						<path class="st3" d="M93.7,232.2c-1.3-1.5-2.4-3.2-3.6-4.8l-1.6,1.2c1.2,1.6,2.3,3.3,3.6,4.9L93.7,232.2z"/>
					</g>
				</g>
			</g>
			<g>
				<g>
					<g>
						<path class="st2" d="M94.7,222.6C90.6,216.8,87,210.5,84,204l-13.6,6.3c3.4,7.3,7.4,14.3,12,20.9L94.7,222.6z"/>
					</g>
					<g>
						<polygon class="st3" points="88.6,225.3 85.4,220.3 83.7,221.3 87,226.5 						"/>
					</g>
					<g>
						<polygon class="st3" points="84.1,218.1 82.6,215.5 80.8,216.5 82.4,219.1 						"/>
					</g>
					<g>
						<polygon class="st3" points="81.4,213.3 80,210.6 79.3,209.3 78.7,207.9 76.8,208.8 77.5,210.2 78.2,211.5 79.6,214.2 						
							"/>
					</g>
				</g>
			</g>
			<g>
				<g>
					<g>
						<path class="st2" d="M84,204c-3-6.5-5.5-13.2-7.3-20.2l-14.5,3.9c2,7.8,4.9,15.3,8.2,22.6L84,204z"/>
					</g>
					<g>
						<path class="st3" d="M77.6,205.6c-0.4-0.9-0.9-1.8-1.2-2.7l-1.1-2.8l-1.9,0.7l1.1,2.8c0.4,0.9,0.8,1.9,1.3,2.8L77.6,205.6z"/>
					</g>
					<g>
						<path class="st3" d="M74.3,197.8c-0.4-0.9-0.7-1.9-1-2.8l-1.9,0.7c0.3,1,0.6,1.9,1,2.9L74.3,197.8z"/>
					</g>
					<g>
						<path class="st3" d="M72.5,192.5c-0.3-0.9-0.6-1.9-0.9-2.9l-0.8-2.9l-1.9,0.5l0.8,2.9c0.3,1,0.6,2,0.9,2.9L72.5,192.5z"/>
					</g>
				</g>
			</g>
			<g>
				<g>
					<g>
						<path class="st2" d="M76.7,183.9c-1.8-6.9-3-14-3.7-21.1L58.1,164c0.7,8,2.1,15.9,4.1,23.7L76.7,183.9z"/>
					</g>
					<g>
						<polygon class="st3" points="70.1,184.3 68.7,178.5 66.7,178.9 68.1,184.8 						"/>
					</g>
					<g>
						<polygon class="st3" points="68.3,176 67.7,173 65.7,173.4 66.3,176.4 						"/>
					</g>
					<g>
						<path class="st3" d="M67.3,170.5c-0.2-2-0.6-4-0.7-6l-2,0.2c0.2,2,0.5,4,0.7,6.1L67.3,170.5z"/>
					</g>
				</g>
			</g>
			<g>
				<g>
					<g>
						<path class="st2" d="M73,162.7c-0.1-1.8-0.3-3.6-0.4-5.4l-0.1-5.4l0.1-5.4c0-1.8,0.2-3.6,0.4-5.4L58.1,140c-0.1,2-0.4,4-0.4,6
							l-0.2,6l0.2,6c0,2,0.3,4,0.4,6L73,162.7z"/>
					</g>
					<g>
						<path class="st3" d="M66.4,162l-0.2-3c-0.1-1-0.1-2-0.1-3l-2,0.1c0,1,0,2,0.1,3.1l0.2,3L66.4,162z"/>
					</g>
					<g>
						<polygon class="st3" points="66,153.5 66,152 66,150.5 64,150.5 64,152 64,153.5 						"/>
					</g>
					<g>
						<path class="st3" d="M66.1,148c0-1,0-2,0.1-3l0.2-3l-2-0.2l-0.2,3c0,1-0.1,2-0.1,3.1L66.1,148z"/>
					</g>
				</g>
			</g>
			<g>
				<g>
					<g>
						<path class="st2" d="M73,141.3c0.6-7.1,1.9-14.2,3.7-21.1l-14.5-3.9c-2,7.8-3.4,15.7-4.1,23.7L73,141.3z"/>
					</g>
					<g>
						<path class="st3" d="M66.6,139.4c0.2-2,0.5-4,0.7-6l-2-0.3c-0.2,2-0.6,4-0.7,6.1L66.6,139.4z"/>
					</g>
					<g>
						<polygon class="st3" points="67.7,131 68.2,128 66.3,127.7 65.7,130.7 						"/>
					</g>
					<g>
						<polygon class="st3" points="68.7,125.6 70.1,119.7 68.1,119.2 66.7,125.2 						"/>
					</g>
				</g>
			</g>
			<g>
				<g>
					<g>
						<path class="st2" d="M76.7,120.1c1.8-6.9,4.3-13.7,7.3-20.2l-13.6-6.3c-3.4,7.3-6.2,14.8-8.2,22.6L76.7,120.1z"/>
					</g>
					<g>
						<path class="st3" d="M70.7,117.2l0.8-2.9c0.3-1,0.6-1.9,0.9-2.9l-1.9-0.6c-0.3,1-0.6,1.9-0.9,2.9l-0.8,2.9L70.7,117.2z"/>
					</g>
					<g>
						<path class="st3" d="M73.3,109.1c0.3-0.9,0.6-1.9,1-2.8l-1.9-0.7c-0.4,1-0.7,1.9-1,2.9L73.3,109.1z"/>
					</g>
					<g>
						<path class="st3" d="M75.2,103.9l1.1-2.8c0.4-0.9,0.8-1.8,1.2-2.7l-1.8-0.8c-0.4,0.9-0.9,1.8-1.3,2.8l-1.1,2.8L75.2,103.9z"/>
					</g>
				</g>
			</g>
			<g>
				<g>
					<g>
						<path class="st2" d="M84,100c3-6.5,6.6-12.7,10.7-18.6l-12.3-8.6c-4.6,6.6-8.6,13.6-12,20.9L84,100z"/>
					</g>
					<g>
						<polygon class="st3" points="78.6,96.1 79.3,94.7 80,93.4 81.4,90.7 79.6,89.8 78.2,92.5 77.5,93.8 76.8,95.2 						"/>
					</g>
					<g>
						<polygon class="st3" points="82.6,88.5 84.1,85.9 82.4,84.9 80.8,87.5 						"/>
					</g>
					<g>
						<polygon class="st3" points="85.3,83.7 88.6,78.7 87,77.6 83.6,82.7 						"/>
					</g>
				</g>
			</g>
			<g>
				<g>
					<g>
						<path class="st2" d="M94.7,81.4c4.1-5.9,8.7-11.4,13.7-16.5L97.7,54.3C92.1,60,86.9,66.2,82.4,72.8L94.7,81.4z"/>
					</g>
					<g>
						<path class="st3" d="M90.1,76.6c1.2-1.6,2.3-3.3,3.6-4.8l-1.6-1.2c-1.3,1.6-2.4,3.3-3.6,4.9L90.1,76.6z"/>
					</g>
					<g>
						<path class="st3" d="M95.3,69.8c0.6-0.8,1.2-1.6,1.9-2.3l-1.5-1.3c-0.7,0.8-1.3,1.6-1.9,2.4L95.3,69.8z"/>
					</g>
					<g>
						<polygon class="st3" points="98.8,65.6 100.8,63.4 102.9,61.2 101.5,59.8 99.3,62 97.3,64.3 						"/>
					</g>
				</g>
			</g>
			<g>
				<g>
					<g>
						<path class="st2" d="M108.4,64.8c5-5.1,10.5-9.8,16.3-14L116,38.7c-6.5,4.7-12.6,9.9-18.2,15.6L108.4,64.8z"/>
					</g>
					<g>
						<path class="st3" d="M104.7,59.4c1.4-1.4,2.9-2.8,4.4-4.2l-1.3-1.5c-1.5,1.4-3,2.8-4.4,4.2L104.7,59.4z"/>
					</g>
					<g>
						<polygon class="st3" points="110.9,53.5 113.2,51.6 111.9,50.1 109.6,52 						"/>
					</g>
					<g>
						<polygon class="st3" points="115.1,50 119.9,46.3 118.7,44.7 113.9,48.4 						"/>
					</g>
				</g>
			</g>
			<g>
				<g>
					<g>
						<path class="st2" d="M124.8,50.8c5.8-4.2,12-7.9,18.4-11.1l-6.6-13.5c-7.2,3.5-14.1,7.6-20.6,12.4L124.8,50.8z"/>
					</g>
					<g>
						<path class="st3" d="M122,44.8c1.7-1.1,3.3-2.3,5-3.4l-1.1-1.7c-1.7,1.1-3.4,2.3-5.1,3.4L122,44.8z"/>
					</g>
					<g>
						<path class="st3" d="M129.1,40.1c0.8-0.5,1.7-1.1,2.6-1.6l-1-1.7c-0.9,0.5-1.8,1-2.6,1.6L129.1,40.1z"/>
					</g>
					<g>
						<polygon class="st3" points="133.9,37.3 136.5,35.9 139.2,34.5 138.3,32.7 135.5,34.1 132.9,35.6 						"/>
					</g>
				</g>
			</g>
			<g>
				<g>
					<g>
						<path class="st2" d="M143.2,39.8c6.4-3.2,13.1-5.8,20-7.9l-4.3-14.4c-7.7,2.3-15.2,5.2-22.4,8.8L143.2,39.8z"/>
					</g>
					<g>
						<path class="st3" d="M141.4,33.4c1.8-0.9,3.7-1.6,5.5-2.5l-0.8-1.8c-1.9,0.8-3.7,1.6-5.6,2.5L141.4,33.4z"/>
					</g>
					<g>
						<polygon class="st3" points="149.3,29.9 152.1,28.8 151.4,27 148.5,28.1 						"/>
					</g>
					<g>
						<polygon class="st3" points="154.4,27.9 160.1,26 159.5,24.1 153.7,26 						"/>
					</g>
				</g>
			</g>
			<g>
				<g>
					<g>
						<path class="st2" d="M163.2,31.9c6.9-2.1,13.9-3.5,21.1-4.4l-1.8-14.9c-7.9,1-15.8,2.5-23.5,4.9L163.2,31.9z"/>
					</g>
					<g>
						<path class="st3" d="M162.6,25.3c1.9-0.5,3.9-1.1,5.8-1.5l-0.5-1.9c-2,0.4-3.9,1-5.9,1.6L162.6,25.3z"/>
					</g>
					<g>
						<path class="st3" d="M170.8,23.2c1-0.2,2-0.5,2.9-0.6l-0.4-2c-1,0.2-2,0.4-3,0.7L170.8,23.2z"/>
					</g>
					<g>
						<path class="st3" d="M176.3,22.2c2-0.3,4-0.7,6-0.9l-0.3-2c-2,0.2-4,0.6-6,0.9L176.3,22.2z"/>
					</g>
				</g>
			</g>
			<g>
				<g>
					<g>
						<path class="st2" d="M184.3,27.5l2.7-0.3c0.9-0.1,1.8-0.1,2.7-0.2l2.7-0.2c0.9-0.1,1.8-0.1,2.7-0.1l5.4-0.1l5.4,0.1l0.6-15
							l-6-0.1l-6,0.1c-1,0-2,0.1-3,0.2l-3,0.2c-1,0.1-2,0.1-3,0.2l-3,0.4L184.3,27.5z"/>
					</g>
					<g>
						<path class="st3" d="M184.7,20.9c2-0.3,4-0.4,6-0.5l-0.1-2c-2,0.2-4.1,0.3-6.1,0.6L184.7,20.9z"/>
					</g>
					<g>
						<path class="st3" d="M193.2,20.2c1-0.1,2-0.1,3-0.1l-0.1-2c-1,0-2,0-3.1,0.1L193.2,20.2z"/>
					</g>
					<g>
						<path class="st3" d="M198.8,20c2-0.1,4,0,6,0.1l0.1-2c-2,0-4.1-0.2-6.1-0.1V20z"/>
					</g>
				</g>
			</g>
			<g>
				<g>
					<g>
						<path class="st2" d="M205.8,26.6c7.2,0.3,14.3,1.2,21.4,2.6l3.1-14.7c-7.8-1.6-15.8-2.6-23.8-2.9L205.8,26.6z"/>
					</g>
					<g>
						<polygon class="st3" points="207.3,20.2 213.3,20.6 213.5,18.6 207.4,18.2 						"/>
					</g>
					<g>
						<polygon class="st3" points="215.8,20.9 218.8,21.3 219.1,19.3 216,18.9 						"/>
					</g>
					<g>
						<polygon class="st3" points="221.3,21.6 227.2,22.6 227.6,20.7 221.6,19.6 						"/>
					</g>
				</g>
			</g>
			<g>
				<g>
					<g>
						<path class="st2" d="M227.2,29.3c7,1.4,13.9,3.6,20.6,6.2l5.5-14c-7.5-2.9-15.2-5.3-23-6.9L227.2,29.3z"/>
					</g>
					<g>
						<path class="st3" d="M229.7,23.2c2,0.5,3.9,0.8,5.9,1.4l0.5-1.9c-2-0.6-4-1-5.9-1.4L229.7,23.2z"/>
					</g>
					<g>
						<path class="st3" d="M238,25.3c1,0.3,1.9,0.5,2.9,0.8l0.6-1.9c-1-0.3-2-0.6-2.9-0.8L238,25.3z"/>
					</g>
					<g>
						<path class="st3" d="M243.3,26.9l2.9,0.9c1,0.3,1.9,0.7,2.8,1.1l0.7-1.9c-1-0.4-1.9-0.8-2.9-1.1l-2.9-1L243.3,26.9z"/>
					</g>
				</g>
			</g>
			<g>
				<g>
					<g>
						<path class="st2" d="M247.8,35.4c6.7,2.6,13.1,5.8,19.3,9.5l7.7-12.9c-6.9-4.1-14.1-7.6-21.6-10.6L247.8,35.4z"/>
					</g>
					<g>
						<polygon class="st3" points="251.3,29.8 252.7,30.4 254.1,31 256.8,32.2 257.7,30.4 254.9,29.1 253.5,28.5 252.1,28 						"/>
					</g>
					<g>
						<polygon class="st3" points="259.1,33.2 261.8,34.6 262.7,32.8 260,31.4 						"/>
					</g>
					<g>
						<path class="st3" d="M264.1,35.7c1.8,0.9,3.5,2,5.3,2.9l1-1.7c-1.8-1-3.5-2-5.3-3L264.1,35.7z"/>
					</g>
				</g>
			</g>
			<g>
				<g>
					<g>
						<path class="st2" d="M267.1,44.9c6.2,3.7,12,7.9,17.4,12.6l9.8-11.4c-6.1-5.2-12.6-10-19.5-14.1L267.1,44.9z"/>
					</g>
					<g>
						<path class="st3" d="M271.5,40c1.7,1.1,3.4,2.1,5.1,3.3l1.1-1.7c-1.7-1.2-3.4-2.2-5.1-3.3L271.5,40z"/>
					</g>
					<g>
						<path class="st3" d="M278.6,44.7c0.8,0.6,1.7,1.1,2.5,1.7l1.2-1.6c-0.8-0.6-1.7-1.2-2.5-1.8L278.6,44.7z"/>
					</g>
					<g>
						<path class="st3" d="M283.1,48l2.4,1.8c0.8,0.6,1.5,1.3,2.3,1.9l1.3-1.5c-0.8-0.7-1.5-1.3-2.3-2l-2.4-1.9L283.1,48z"/>
					</g>
				</g>
			</g>
			<g>
				<g>
					<g>
						<path class="st2" d="M284.5,57.5c5.4,4.7,10.5,9.8,15.1,15.3l11.5-9.6c-5.1-6.2-10.8-11.9-16.9-17.1L284.5,57.5z"/>
					</g>
					<g>
						<path class="st3" d="M289.7,53.4c0.8,0.6,1.5,1.3,2.2,2l2.2,2.1l1.4-1.4l-2.2-2.1c-0.7-0.7-1.5-1.4-2.3-2L289.7,53.4z"/>
					</g>
					<g>
						<polygon class="st3" points="295.9,59.2 298,61.3 299.5,60 297.4,57.8 						"/>
					</g>
					<g>
						<polygon class="st3" points="299.8,63.1 303.8,67.7 305.3,66.4 301.3,61.8 						"/>
					</g>
				</g>
			</g>
			<g>
				<g>
					<g>
						<path class="st2" d="M299.6,72.8c4.6,5.5,8.7,11.4,12.2,17.6l13-7.5c-4-7-8.6-13.6-13.7-19.8L299.6,72.8z"/>
					</g>
					<g>
						<path class="st3" d="M305.4,69.6c1.2,1.6,2.6,3.1,3.7,4.8l1.6-1.2c-1.2-1.7-2.5-3.2-3.8-4.8L305.4,69.6z"/>
					</g>
					<g>
						<path class="st3" d="M310.6,76.4c0.6,0.8,1.2,1.6,1.7,2.5l1.7-1.1c-0.5-0.9-1.2-1.7-1.8-2.5L310.6,76.4z"/>
					</g>
					<g>
						<polygon class="st3" points="313.7,81 315.3,83.5 316.8,86.1 318.6,85.1 317,82.4 315.3,79.9 						"/>
					</g>
				</g>
			</g>
			<g>
				<g>
					<g>
						<path class="st2" d="M311.8,90.4c3.6,6.2,6.6,12.7,9.1,19.5l14.1-5.1c-2.8-7.5-6.2-14.8-10.2-21.8L311.8,90.4z"/>
					</g>
					<g>
						<path class="st3" d="M318.1,88.3c1,1.7,1.9,3.5,2.8,5.3l1.8-0.9c-1-1.8-1.8-3.6-2.9-5.4L318.1,88.3z"/>
					</g>
					<g>
						<polygon class="st3" points="322.1,95.9 323.3,98.6 325.1,97.8 323.9,95 						"/>
					</g>
					<g>
						<polygon class="st3" points="324.4,100.9 326.6,106.5 328.5,105.8 326.2,100.1 						"/>
					</g>
				</g>
			</g>
			<g>
				<g>
					<g>
						<path class="st2" d="M320.9,109.9c2.5,6.7,4.3,13.7,5.5,20.7l14.8-2.6c-1.4-7.9-3.4-15.7-6.2-23.3L320.9,109.9z"/>
					</g>
					<g>
						<path class="st3" d="M327.4,108.9c0.6,1.9,1.4,3.8,1.9,5.7l1.9-0.6c-0.5-2-1.2-3.9-1.9-5.8L327.4,108.9z"/>
					</g>
					<g>
						<path class="st3" d="M330,117c0.3,1,0.6,1.9,0.8,2.9l1.9-0.5c-0.2-1-0.5-2-0.8-2.9L330,117z"/>
					</g>
					<g>
						<polygon class="st3" points="331.4,122.3 332.1,125.3 332.6,128.2 334.6,127.9 334,124.9 333.3,121.9 						"/>
					</g>
				</g>
			</g>
			<g>
				<g>
					<g>
						<path class="st2" d="M326.4,130.6c1.2,7.1,1.8,14.2,1.9,21.4h15c0-8-0.7-16.1-2.1-24L326.4,130.6z"/>
					</g>
					<g>
						<path class="st3" d="M333.1,130.7c0.4,2,0.5,4,0.8,6l2-0.2c-0.3-2-0.5-4.1-0.8-6.1L333.1,130.7z"/>
					</g>
					<g>
						<polygon class="st3" points="334.2,139.2 334.4,142.2 336.4,142 336.2,139 						"/>
					</g>
					<g>
						<path class="st3" d="M334.6,144.7c0.1,2,0.1,4,0.2,6h2c-0.1-2-0.1-4.1-0.2-6.1L334.6,144.7z"/>
					</g>
				</g>
			</g>
		</g>
	</g>
</g>
<g>
	<g>
		<path class="st4" d="M176.1,168.9l-5.7,19.8h-5.1l-5.2-19.8h5.8l3.9,15l4.3-15H176.1z"/>
		<path class="st4" d="M190.4,168.9v2h-7.1v6h6v2h-6v7.8h8.3v2h-14v-19.8H190.4z"/>
		<path class="st4" d="M193.4,188.7v-19.8h8.5c2.2,0,4,0.5,5.3,1.4s2,2.2,2,3.7c0,2.4-1.4,4-4.3,4.7c1.5,0.5,2.4,1.1,2.8,1.8
			c0.4,0.6,0.7,1.9,0.9,3.8c0.2,2.2,0.6,3.7,1.1,4.4h-6.2c-0.4-0.9-0.6-2.1-0.6-3.4v-1.2v-1.5c0-2.3-0.9-3.4-2.8-3.4h-1v9.5H193.4z
			 M199.2,177.5h1.2c2.2,0,3.3-1.1,3.3-3.4c0-2.3-1.1-3.4-3.3-3.4h-1.2V177.5z"/>
		<path class="st4" d="M212.2,188.7v-19.8h8.2c5.8,0,8.7,3.3,8.7,9.9c0,6.6-3,9.9-9.1,9.9L212.2,188.7L212.2,188.7z M217.9,187h1.5
			c1.4,0,2.3-0.6,2.9-1.8c0.5-1.2,0.8-3.3,0.8-6.5c0-3.1-0.3-5.3-0.8-6.5s-1.5-1.8-2.9-1.8h-1.5V187z"/>
		<path class="st4" d="M244.4,168.9v2h-7.1v6h6v2h-6v7.8h8.3v2h-14v-19.8H244.4z"/>
	</g>
	<g>
		<path class="st5" d="M173.6,234.5l-2.4-2.9c-0.4-0.5-0.7-0.9-0.9-1.3c-0.3-0.4-0.5-0.8-0.6-1.2s-0.2-0.9-0.3-1.5
			c-0.1-0.5-0.1-1.2-0.1-2v-35.5h4.8v38.6h2.7v-38.6h4.8v35.5c0,0.8,0,1.4-0.1,2c-0.1,0.5-0.2,1-0.3,1.5c-0.2,0.4-0.4,0.8-0.6,1.2
			c-0.2,0.4-0.5,0.8-0.9,1.3l-2.4,2.9H173.6z"/>
		<path class="st5" d="M185.3,234.5v-44.4h10.1v4.3h-5.3V210h4.5v4.4h-4.5v15.7h5.3v4.3h-10.1V234.5z"/>
		<path class="st5" d="M206.7,190.1c1.1,0,2,0.4,2.8,1.2s1.2,1.7,1.2,2.7v14.8c0,0.3,0,0.7-0.1,1.1c0,0.4-0.2,0.8-0.3,1.1
			c-0.2,0.3-0.5,0.6-0.8,0.9c-0.4,0.2-0.9,0.4-1.5,0.5c1.3,0.2,2,0.6,2.3,1.3s0.4,1.3,0.4,2v18.9h-4.8v-20.1H203v20.1h-4.8v-44.4
			h8.5V190.1z M205.9,210v-15.6H203V210H205.9z"/>
		<path class="st5" d="M226.9,230.6c0,1.1-0.4,2-1.2,2.7c-0.8,0.8-1.7,1.2-2.7,1.2h-8.6v-44.4h8.6c1.1,0,2,0.4,2.7,1.2
			c0.8,0.8,1.2,1.7,1.2,2.8V230.6z M222,194.4h-2.9v35.8h2.9V194.4z"/>
		<path class="st5" d="M230.5,234.5v-44.4h10.1v4.3h-5.3V210h4.5v4.4h-4.5v15.7h5.3v4.3h-10.1V234.5z"/>
	</g>
	<path class="st6" d="M201.9,164.9"/>
	<path class="st6" d="M200.2,165.6"/>
	<polygon class="st7" points="184.7,94.1 185.3,91.5 182.8,91.1 183.3,91.9 184.7,91.9 184.2,93.4 	"/>
	<g>
		<path class="st8" d="M181.6,127c0,15.3,7.9,28.7,20,36.7V90.4C189.5,98.3,181.6,111.8,181.6,127z"/>
		<path class="st9" d="M222.6,127c0-15.3-7.9-28.8-20-36.7l0,0v73.3l0,0C214.7,155.8,222.6,142.3,222.6,127z"/>
		<path class="st10" d="M180.3,127.1c0-16.9,9.5-31.6,23.7-39.6c-19.3,3.9-33.8,20.2-33.8,39.8c0,19.8,14.8,36.2,34.3,39.9
			c0.1,0,0.1,0,0.2,0C190.2,159.2,180.3,144.3,180.3,127.1z M197,90.7l-0.4,1.5l-0.3-0.4l0.2-0.9h-0.8l-0.3-0.5L197,90.7z
			 M193.9,92.7l-0.4,1.5l-0.3-0.4l0.2-0.9h-0.8l-0.3-0.5L193.9,92.7z M191.1,95.1l-0.4,1.5l-0.3-0.4l0.2-0.9h-0.8l-0.3-0.5
			L191.1,95.1z M187.7,98.6l-0.4,1.5l-0.3-0.4l0.2-0.9h-0.8l-0.3-0.5L187.7,98.6z M184.4,101.6l0.2,1.5l-0.4-0.3l-0.1-0.9l-0.7,0.3
			l-0.4-0.3L184.4,101.6z M181.7,106l0.2,1.5l-0.4-0.3l-0.1-0.9l-0.7,0.3l-0.4-0.3L181.7,106z M179.9,110.8l0.5,1.5l-0.4-0.2
			l-0.2-0.9l-0.7,0.4l-0.5-0.3L179.9,110.8z M177.5,117l0.5,1.5l-0.4-0.2l-0.2-0.9l-0.7,0.4l-0.5-0.3L177.5,117z M176.3,123.9
			l0.9,1.3l-0.5-0.1l-0.5-0.8l-0.5,0.6l-0.6-0.1L176.3,123.9z M175.7,131.5h-0.6l1-1l1,1.2h-0.5l-0.5-0.7L175.7,131.5z M177.2,137.8
			l-0.3,0.7l-0.6,0.1l0.9-1.2l1.2,1h-0.5L177.2,137.8z M179.7,144l-0.8-0.3v0.8l-0.5,0.3l0.4-1.4l1.5,0.5L179.7,144z M182.8,149.2
			l-0.8-0.3v0.8l-0.5,0.3l0.4-1.4l1.5,0.5L182.8,149.2z M186.6,154l-0.8-0.3v0.8l-0.5,0.3l0.4-1.4l1.5,0.5L186.6,154z M190.4,158.1
			l-0.8-0.3v0.8l-0.5,0.3l0.4-1.4l1.5,0.5L190.4,158.1z M193.5,160.9l-0.8-0.3v0.8l-0.5,0.3l0.4-1.4l1.5,0.5L193.5,160.9z
			 M198,163.7l-0.8-0.3v0.8l-0.5,0.3l0.4-1.4l1.5,0.5L198,163.7z"/>
		<path class="st11" d="M199.5,167c0.1,0,0.1,0,0.2,0c19.6-3.7,34.3-20.2,34.3-39.9c0-19.6-14.5-35.9-33.8-39.8
			c14.2,8,23.7,22.8,23.7,39.6C223.9,144.1,214.1,159.1,199.5,167z M208.7,90.2l-0.3,0.5h-0.8l0.2,0.9l-0.3,0.4l-0.4-1.5L208.7,90.2
			z M211.8,92.3l-0.3,0.5h-0.8l0.2,0.9l-0.3,0.4l-0.4-1.5L211.8,92.3z M214.6,94.7l-0.3,0.5h-0.8l0.2,0.9l-0.3,0.4L213,95
			L214.6,94.7z M218,98.2l-0.3,0.5h-0.8l0.2,0.9l-0.3,0.4l-0.4-1.5L218,98.2z M221.2,101.7l-0.4,0.3l-0.7-0.3l-0.1,0.9l-0.4,0.3
			l0.2-1.5L221.2,101.7z M224,106.2l-0.4,0.3l-0.7-0.3l-0.1,0.9l-0.4,0.3l0.2-1.5L224,106.2z M225.7,111.2l-0.5,0.3l-0.7-0.4
			l-0.2,0.9l-0.4,0.2l0.5-1.5L225.7,111.2z M228.2,117.4l-0.5,0.3l-0.7-0.4l-0.2,0.9l-0.4,0.2l0.5-1.5L228.2,117.4z M229.1,124.6
			l-0.6,0.1l-0.5-0.6l-0.5,0.8L227,125l0.9-1.3L229.1,124.6z M228.1,130.7l-0.5,0.7h-0.5l1-1.2l1,1h-0.6L228.1,130.7z M226.4,138.2
			h-0.5l1.2-1l0.9,1.2l-0.6-0.1l-0.3-0.7L226.4,138.2z M224.1,143.6l1.5-0.5l0.4,1.4l-0.5-0.3v-0.8l-0.8,0.3L224.1,143.6z
			 M221,148.8l1.5-0.5l0.4,1.4l-0.5-0.3v-0.8l-0.8,0.3L221,148.8z M217.2,153.6l1.5-0.5l0.4,1.4l-0.5-0.3v-0.8l-0.8,0.3L217.2,153.6
			z M213.4,157.7l1.5-0.5l0.4,1.4l-0.5-0.3v-0.8l-0.8,0.3L213.4,157.7z M210.3,160.5l1.5-0.5l0.4,1.4l-0.5-0.3v-0.8l-0.8,0.3
			L210.3,160.5z M205.8,163.3l1.5-0.5l0.4,1.4l-0.5-0.3v-0.8l-0.8,0.3L205.8,163.3z"/>
		<path class="st6" d="M168.3,127.3c0-19.8,15-36.3,34.8-39.9c-2.6-0.5-5.4-0.8-8.1-0.8c-23.4,0-42.3,18.2-42.3,40.7
			S171.6,168,195,168c2.8,0,5.5-0.3,8.1-0.8C183.3,163.6,168.3,147.1,168.3,127.3z M193.6,87.7l-0.6,2.6l-0.5-0.7l0.4-1.5h-1.3
			l-0.5-0.8L193.6,87.7z M188.4,89.4l-0.6,2.6l-0.5-0.7l0.4-1.5h-1.3l-0.5-0.8L188.4,89.4z M183.6,91.9l-0.6,2.6l-0.5-0.7l0.4-1.5
			h-1.3l-0.5-0.8L183.6,91.9z M179.1,94.6l-0.6,2.6l-0.5-0.7l0.4-1.5h-1.3l-0.5-0.8L179.1,94.6z M174.3,98.8l-0.6,2.6l-0.5-0.7
			l0.4-1.5h-1.3l-0.5-0.8L174.3,98.8z M169.3,104.1v2.7l-0.6-0.6l0.1-1.6l-1.3,0.3l-0.7-0.7L169.3,104.1z M166.9,107.9v2.7l-0.6-0.6
			l0.1-1.6l-1.3,0.3l-0.7-0.7L166.9,107.9z M165.2,111.7v2.7l-0.6-0.6l0.1-1.6l-1.3,0.3l-0.7-0.7L165.2,111.7z M163.3,117.7l1.4,2.3
			l-0.8-0.2l-0.7-1.4l-0.9,1l-1-0.2L163.3,117.7z M162.6,123.9l1.4,2.3l-0.8-0.2l-0.7-1.4l-0.9,1l-1-0.2L162.6,123.9z M160.9,133
			l1.3-2.2l2.2,1.6l-0.9,0.1l-1.2-1l-0.5,1.3L160.9,133z M163.4,138.5l-0.3,1.3l-0.9,0.3l1-2.3l2.4,1.3l-0.8,0.3L163.4,138.5z
			 M167.8,146.6l-1.3-0.8l-0.3,1.3l-0.9,0.3l1-2.3l2.4,1.3L167.8,146.6z M172.5,153.4l-1.5-0.3l0.1,1.3l-0.8,0.6l0.2-2.5l2.7,0.4
			L172.5,153.4z M178.7,158.9l-1.5-0.3l0.1,1.3l-0.8,0.6l0.2-2.5l2.7,0.4L178.7,158.9z M190.5,164.5l2.7,0.4l-0.7,0.5l-1.5-0.3
			l0.1,1.3l-0.8,0.6L190.5,164.5z M184.3,162.5l2.7,0.4l-0.7,0.5l-1.5-0.3l0.1,1.3l-0.8,0.6L184.3,162.5z"/>
		<path class="st6" d="M201.2,167.2c2.6,0.5,5.4,0.8,8.1,0.8c23.4,0,42.3-18.2,42.3-40.7s-18.9-40.7-42.3-40.7
			c-2.8,0-5.5,0.3-8.1,0.8C221,91,236,107.5,236,127.3S221,163.6,201.2,167.2z M213.2,87.3l-0.5,0.8h-1.3l0.4,1.5l-0.5,0.7l-0.6-2.6
			L213.2,87.3z M218.4,89l-0.5,0.8h-1.3l0.4,1.5l-0.5,0.7l-0.6-2.6L218.4,89z M223.2,91.4l-0.5,0.8h-1.3l0.4,1.5l-0.5,0.7l-0.6-2.6
			L223.2,91.4z M227.7,94.2l-0.5,0.8h-1.3l0.4,1.5l-0.5,0.7l-0.6-2.6L227.7,94.2z M232.5,98.3l-0.5,0.8h-1.3l0.4,1.5l-0.5,0.7
			l-0.6-2.6L232.5,98.3z M237.5,104.3l-0.7,0.7l-1.3-0.3l0.1,1.6l-0.6,0.6v-2.7L237.5,104.3z M239.9,108l-0.7,0.7l-1.3-0.3l0.1,1.6
			l-0.6,0.6v-2.7L239.9,108z M241.6,111.8l-0.7,0.7l-1.3-0.3l0.1,1.6l-0.6,0.6v-2.7L241.6,111.8z M243,119.2l-1,0.2l-0.9-1l-0.7,1.4
			l-0.8,0.2l1.4-2.3L243,119.2z M243.7,125.4l-1,0.2l-0.9-1l-0.7,1.4l-0.8,0.2l1.4-2.3L243.7,125.4z M242.4,132.8l-0.5-1.3l-1.2,1
			l-0.9-0.1l2.2-1.6l1.3,2.2L242.4,132.8z M239.6,139.3l-0.8-0.3l2.4-1.3l1,2.3l-0.9-0.3l-0.3-1.3L239.6,139.3z M235.6,146.3
			l2.4-1.3l1,2.3l-0.9-0.3l-0.3-1.3l-1.3,0.8L235.6,146.3z M231.1,152.8l2.7-0.4l0.2,2.5l-0.8-0.6l0.1-1.3l-1.5,0.3L231.1,152.8z
			 M224.9,158.4l2.7-0.4l0.2,2.5l-0.8-0.6l0.1-1.3l-1.5,0.3L224.9,158.4z M214,167.1l-0.8-0.6l0.1-1.3l-1.5,0.3l-0.7-0.5l2.7-0.4
			L214,167.1z M220.2,165l-0.8-0.6l0.1-1.3l-1.5,0.3l-0.7-0.5l2.7-0.4L220.2,165z"/>
	</g>
	<g>
		<path class="st12" d="M179.5,67c0,0-1.4,19.3,22.9,21.9C202.4,88.9,201.3,73.6,179.5,67z"/>
		<path class="st13" d="M193.9,61.5c0,0-11.9,16.9,8.5,27.5C202.4,88.9,209.9,74.7,193.9,61.5z"/>
		<path class="st12" d="M213.3,61.9c0,0-21.5,9.7-11,26.9C202.3,88.8,218.2,79.7,213.3,61.9z"/>
		<path class="st13" d="M222.7,65.6c0,0-24.1,4.5-20.4,23.4C202.4,89,220.9,83.7,222.7,65.6z"/>
	</g>
</g>
<g>
	<g>
		<path class="st9" d="M120.6,199.5c-0.2,0.1-0.5,0.2-1,0.2s-1.1,0-1.7-0.1c-0.7-0.1-1.4-0.1-2.2-0.3c-0.8-0.1-1.6-0.3-2.5-0.4
			c-0.8-0.2-1.7-0.3-2.5-0.5s-1.6-0.3-2.3-0.4c-0.7-0.1-1.3-0.2-1.8-0.2s-1,0-1.1,0.1s-0.2,0.1-0.4-0.2c-0.2-0.3-0.5-0.7-0.7-1.2
			c-0.1-0.2-0.2-0.5-0.2-0.8c-0.1-0.3-0.1-0.7-0.1-1.1c0-0.4,0-0.7,0.1-1.1c0.1-0.4,0.3-0.6,0.6-0.8c0.1-0.1,0.4-0.2,0.7-0.3
			c0.4-0.1,0.8-0.2,1.3-0.4c0.5-0.1,1.1-0.3,1.7-0.5s1.3-0.4,2-0.6c0.7-0.2,1.4-0.4,2.1-0.7c0.7-0.2,1.4-0.5,2-0.8
			c-0.7-0.1-1.5-0.3-2.5-0.5c-0.9-0.2-1.9-0.5-3-0.9c-1-0.4-2.1-0.8-3.1-1.3s-2-1.1-2.9-1.9c-0.9-0.7-1.7-1.5-2.3-2.4
			c-0.6-0.9-1.1-1.8-1.3-2.8c-0.2-0.7-0.3-1.4-0.3-1.9c0-0.6,0-1,0-1.4s0.1-0.6,0.2-0.8s0.2-0.3,0.2-0.4c0.1,0,0.1,0,0.2,0.1
			c0,0.1,0,0.2,0.1,0.3c0,0.1,0,0.3,0,0.5s0,0.4,0.1,0.6c0.2,0.9,0.6,1.8,1.1,2.7c0.5,0.8,1.2,1.6,1.9,2.3c0.7,0.7,1.6,1.4,2.5,1.9
			c0.9,0.6,1.8,1.1,2.8,1.5c0.9,0.4,1.9,0.8,2.8,1.1s1.8,0.6,2.6,0.8c0.8,0.2,1.5,0.4,2.1,0.5s1.1,0.3,1.4,0.4c0.1,0,0.1,0,0.1,0
			c0.2-0.1,0.3,0,0.4,0.5v0.1c0,0,0,0,0,0.1c0,0.3,0.1,0.6,0.1,1.1c0,0.4,0,0.8,0,1.2s-0.1,0.7-0.2,1s-0.2,0.5-0.3,0.6
			c-0.1,0.1-0.4,0.2-0.9,0.3s-1.1,0.3-1.9,0.5c-0.7,0.2-1.5,0.5-2.3,0.8s-1.6,0.6-2.4,1c0.5,0.2,1.1,0.3,1.8,0.5
			c0.7,0.2,1.4,0.4,2.1,0.5c0.7,0.2,1.5,0.3,2.2,0.4c0.7,0.1,1.4,0.2,2.1,0.2c0.6,0,1.2,0,1.7,0s0.9-0.1,1.2-0.3
			c0.2-0.1,0.3,0,0.4,0.2s0.1,0.5,0.1,0.9s-0.1,0.7-0.2,1.1C121,199.1,120.8,199.4,120.6,199.5z"/>
		<path class="st9" d="M120.9,214.7c0.2,0,0.3,0.1,0.3,0.2c0,0.1,0,0.2,0,0.3c-0.1,0.1-0.1,0.2-0.2,0.2c-0.1,0.1-0.2,0.1-0.2,0.1
			c-0.3,0-0.6-0.1-1.1-0.2c-0.5-0.1-1-0.2-1.5-0.4c-0.6-0.1-1.2-0.3-1.8-0.5c-0.6-0.2-1.2-0.4-1.8-0.7c-0.6-0.3-1.1-0.6-1.6-0.9
			c-0.5-0.3-0.8-0.7-1.1-1.1c0-0.1-0.1-0.1-0.1-0.2c-0.1-0.1-0.2-0.4-0.4-0.7c-0.2-0.4-0.3-0.7-0.4-1.2c-0.1-0.4-0.2-0.8-0.2-1.1
			c0-0.4,0.2-0.6,0.5-0.7c0.1,0,0.2,0,0.3-0.1c0.1,0,0.2,0,0.3,0c-0.4-0.2-0.8-0.4-1.2-0.5c-0.4-0.2-0.7-0.4-1-0.6
			c-0.3-0.2-0.6-0.4-0.8-0.6c-0.2-0.2-0.4-0.4-0.5-0.5c-0.2-0.4-0.3-0.8-0.5-1.3c-0.1-0.5-0.2-1-0.2-1.5s0-0.9,0.1-1.3
			c0.1-0.4,0.3-0.6,0.6-0.7c0.2-0.1,0.6-0.1,1,0c0.5,0,1,0.1,1.6,0.2s1.2,0.3,1.9,0.5c0.6,0.2,1.3,0.4,1.8,0.6
			c0.6,0.2,1.1,0.5,1.5,0.7c0.4,0.3,0.7,0.6,0.9,0.9c0.2,0.4,0.4,0.9,0.5,1.3c0.1,0.4,0.2,0.8,0.3,1.2c0,0.4,0.1,0.7,0.1,1.1
			c0,0.3,0,0.6-0.1,0.9c0.7,0,1.1,0,1.2-0.1c0.2-0.1,0.4,0,0.5,0.3c0.2,0.3,0.3,0.6,0.4,1s0.1,0.7,0.1,1.1c0,0.4-0.1,0.6-0.2,0.7
			c-0.1,0.1-0.5,0.1-1,0.2c-0.5,0-1.1,0.1-1.8,0.1c-0.7,0-1.4,0-2.1,0.1c-0.7,0-1.3,0-1.8,0c-0.3,0-0.4,0.1-0.3,0.4
			c0.1,0.2,0.3,0.4,0.6,0.6c0.3,0.2,0.7,0.4,1.2,0.6c0.5,0.2,1,0.4,1.5,0.6c0.5,0.2,1.1,0.4,1.6,0.5c0.6,0.2,1.1,0.3,1.6,0.4
			C120.1,214.5,120.6,214.6,120.9,214.7z M109.4,205c0.1,0.2,0.3,0.3,0.6,0.5c0.3,0.2,0.7,0.4,1.1,0.6c0.4,0.2,0.9,0.4,1.4,0.6
			c0.5,0.2,1,0.4,1.5,0.5c0.5,0.2,0.9,0.3,1.4,0.4c0.4,0.1,0.8,0.2,1.1,0.3c0.2,0,0.4,0,0.5,0c0.2,0,0.3,0,0.5,0
			c-0.1-0.2-0.1-0.5-0.2-0.8s-0.2-0.6-0.4-0.9c-0.1-0.2-0.4-0.4-0.9-0.6c-0.4-0.2-1-0.4-1.5-0.5c-0.6-0.2-1.2-0.3-1.8-0.4
			c-0.6-0.1-1.2-0.2-1.7-0.2s-0.9,0-1.2,0.1C109.4,204.7,109.3,204.8,109.4,205z"/>
		<path class="st9" d="M130.6,218.6c0.4,0.5,0.7,0.9,0.9,1.3c0.1,0.4,0.2,0.7,0.2,0.9s-0.1,0.4-0.2,0.4c-0.1,0.1-0.2,0.1-0.3,0
			s-0.1-0.2-0.1-0.2c0-0.1,0-0.2-0.1-0.3s-0.1-0.3-0.2-0.5c-0.1-0.2-0.3-0.4-0.6-0.8c-0.2-0.2-0.5-0.5-1-1s-1-1-1.6-1.5
			c-0.8,0.2-1.6,0.3-2.5,0.5s-1.8,0.3-2.6,0.5c-0.9,0.1-1.7,0.3-2.4,0.4c-0.7,0.1-1.4,0.2-1.8,0.2c-0.3,0.1-0.4,0.2-0.3,0.4
			s0.3,0.3,0.7,0.5c0.3,0.2,0.7,0.3,1.2,0.5c0.5,0.1,1,0.3,1.5,0.4c0.6,0.1,1.1,0.3,1.7,0.4c0.6,0.1,1.1,0.2,1.6,0.3s1,0.1,1.4,0.2
			c0.2,0,0.3,0.1,0.3,0.2c0,0.1,0,0.2,0,0.3s-0.1,0.2-0.2,0.3s-0.2,0.1-0.2,0.1c-0.3,0-0.6,0-1.1-0.1c-0.5,0-1-0.1-1.6-0.2
			c-0.6-0.1-1.2-0.2-1.8-0.4c-0.6-0.1-1.2-0.3-1.8-0.5c-0.6-0.2-1.1-0.5-1.6-0.7c-0.5-0.3-0.9-0.6-1.2-0.9c0,0,0-0.1-0.1-0.1
			c0,0,0,0-0.1-0.1s-0.2-0.4-0.4-0.7c-0.2-0.3-0.4-0.7-0.5-1.1c-0.1-0.4-0.2-0.8-0.2-1.1s0.1-0.6,0.4-0.7c0.2-0.1,0.6-0.2,1.2-0.2
			c0.6-0.1,1.3-0.1,2.2-0.2c0.8-0.1,1.7-0.1,2.7-0.3c1-0.1,1.9-0.3,2.9-0.5c-0.3-0.3-0.6-0.6-0.8-0.9c-0.2-0.3-0.4-0.5-0.6-0.7
			c-0.3-0.4-0.4-0.8-0.5-1.2c0-0.4,0-0.7,0.2-1c0.1-0.3,0.3-0.4,0.4-0.6c0.2-0.1,0.3-0.1,0.4,0c0,0.1,0.1,0.2,0.1,0.3
			s0.1,0.3,0.1,0.5c0.1,0.2,0.2,0.5,0.3,0.8c0.2,0.3,0.4,0.7,0.7,1.1c0.2,0.3,0.4,0.5,0.5,0.7c0.2,0.2,0.3,0.4,0.5,0.6
			c0.6-0.2,1.2-0.4,1.7-0.6c0.5-0.2,1-0.4,1.4-0.7c0.1-0.1,0.2,0,0.4,0.1c0.1,0.1,0.3,0.3,0.4,0.6c0.1,0.2,0.2,0.5,0.3,0.8
			s0.2,0.6,0.2,0.9c0.1,0.3,0.1,0.5,0.1,0.8c0,0.2-0.1,0.4-0.2,0.4c-0.1,0-0.3,0.1-0.6,0.2c-0.3,0.1-0.7,0.2-1.2,0.3
			c0.3,0.3,0.6,0.6,0.9,0.9C130,217.8,130.3,218.2,130.6,218.6z"/>
		<path class="st9" d="M136.4,231.5c0.2,0,0.3,0,0.4,0.1c0,0.1,0,0.2,0,0.3s-0.1,0.2-0.2,0.3c-0.1,0.1-0.2,0.1-0.2,0.1
			c-0.2,0-0.6,0-1.1,0.1c-0.5,0-1,0.1-1.5,0.1c-0.6,0-1.2,0-1.8,0c-0.7,0-1.3-0.1-1.9-0.2c-0.6-0.1-1.2-0.2-1.7-0.4s-1-0.4-1.3-0.7
			c-0.1-0.1-0.3-0.3-0.5-0.6s-0.4-0.6-0.5-1s-0.2-0.7-0.2-1s0.1-0.6,0.3-0.8c0.1-0.1,0.2-0.1,0.3-0.2c0.1-0.1,0.3-0.1,0.5-0.1
			c-0.5-0.1-0.9-0.1-1.4-0.3c-0.5-0.1-1-0.2-1.4-0.4c-0.5-0.2-0.9-0.4-1.3-0.6c-0.4-0.3-0.7-0.5-1-0.9c-0.1-0.2-0.3-0.4-0.5-0.7
			s-0.3-0.7-0.3-1c-0.1-0.3-0.1-0.7,0-1s0.2-0.6,0.5-0.7c0.2-0.1,0.5-0.2,0.8-0.2s0.8-0.1,1.3-0.2c0.5,0,1-0.1,1.5-0.1
			s1-0.1,1.5-0.2c0.5-0.1,0.9-0.1,1.3-0.2c0.4-0.1,0.7-0.2,0.9-0.3s0.4,0,0.6,0.2c0.2,0.2,0.4,0.5,0.5,0.9s0.2,0.7,0.3,1
			c0,0.3,0,0.6-0.1,0.7c-0.1,0.1-0.3,0.1-0.8,0.2c-0.4,0.1-0.9,0.2-1.5,0.3c-0.6,0.1-1.2,0.2-1.8,0.3c-0.6,0.1-1.2,0.2-1.7,0.2
			c-0.5,0.1-0.9,0.2-1.2,0.3c-0.3,0.1-0.4,0.2-0.3,0.3c0.3,0.3,0.7,0.6,1.3,0.8c0.6,0.2,1.3,0.5,2,0.6c0.8,0.2,1.5,0.3,2.4,0.3
			c0.8,0,1.6,0.1,2.3,0s1.4-0.3,2-0.5s1-0.3,1.2-0.5c0.2-0.1,0.3-0.1,0.6,0.1c0.2,0.2,0.4,0.5,0.6,0.8c0.2,0.3,0.3,0.7,0.3,1
			c0.1,0.3,0,0.6-0.1,0.7c-0.1,0.1-0.3,0.2-0.5,0.3c-0.3,0.1-0.6,0.2-1,0.4c-0.4,0.1-0.9,0.3-1.3,0.4s-1,0.3-1.5,0.4
			c-0.5,0.1-0.9,0.3-1.4,0.4c-0.4,0.1-0.8,0.2-1.1,0.3c-0.2,0.1-0.3,0.3-0.1,0.4c0.1,0.1,0.4,0.3,0.7,0.4c0.3,0.1,0.8,0.2,1.2,0.2
			c0.5,0.1,1,0.1,1.5,0.1c0.6,0,1.1,0,1.7,0c0.6,0,1.1,0,1.6,0C135.5,231.5,136,231.5,136.4,231.5z"/>
		<path class="st9" d="M144.2,237.4c0.2,0,0.3,0,0.4,0.1c0.1,0.1,0.1,0.2,0,0.3c0,0.1-0.1,0.2-0.1,0.3c-0.1,0.1-0.1,0.1-0.2,0.2
			c-0.2,0-0.6,0.1-1,0.2c-0.4,0.1-1,0.2-1.5,0.3c-0.6,0.1-1.2,0.2-1.8,0.3s-1.3,0.1-1.9,0.1c-0.6,0-1.2,0-1.7-0.2
			c-0.5-0.1-1-0.3-1.3-0.5c0,0,0,0-0.1,0c0,0-0.1,0-0.1-0.1c-0.1-0.1-0.3-0.3-0.6-0.5c-0.3-0.3-0.5-0.6-0.8-0.9
			c-0.2-0.3-0.4-0.7-0.5-1s0-0.6,0.2-0.8s0.6-0.4,1.1-0.5s1-0.3,1.5-0.4c0.5-0.1,1-0.3,1.4-0.4c0.4-0.1,0.7-0.3,0.8-0.4
			c0.1-0.1,0.2-0.3,0.2-0.6c-0.1-0.2-0.2-0.5-0.3-0.9c-0.4,0-0.7,0.1-1,0.1s-0.6,0-0.8,0c-0.1,0-0.1,0-0.2-0.1
			c0-0.1-0.1-0.2-0.1-0.3s0-0.2,0-0.3s0.1-0.1,0.2-0.1c0.2,0,0.4,0,0.6,0c0.2,0,0.5,0,0.8-0.1c-0.1-0.3-0.3-0.6-0.4-0.9
			c-0.1-0.3-0.2-0.6-0.2-0.9c0-0.3,0-0.6,0.1-0.9c0.1-0.3,0.3-0.5,0.6-0.8s0.8-0.5,1.3-0.5c0.5-0.1,1.1,0,1.6,0
			c0.5,0.1,1,0.2,1.5,0.4s0.8,0.4,1.1,0.6c0.3,0.2,0.4,0.5,0.5,0.9c0,0.3-0.2,0.7-0.6,1.2c-0.4,0.4-0.8,0.7-1.4,0.9
			c-0.6,0.2-1.2,0.4-1.9,0.6c0.1,0.3,0.3,0.7,0.5,1c0.2,0.4,0.4,0.7,0.6,1c0.2,0.3,0.2,0.6,0.3,0.9c0,0.3-0.1,0.5-0.3,0.8
			c-0.1,0.1-0.3,0.2-0.7,0.4s-0.8,0.4-1.2,0.6c-0.5,0.2-0.9,0.4-1.4,0.6c-0.5,0.2-0.9,0.4-1.3,0.5c-0.3,0.1-0.4,0.3-0.2,0.5
			c0.2,0.1,0.4,0.2,0.8,0.2c0.4,0,0.8,0,1.3,0s1-0.1,1.6-0.1c0.6-0.1,1.1-0.2,1.7-0.3c0.6-0.1,1.1-0.2,1.6-0.3
			C143.4,237.6,143.8,237.5,144.2,237.4z M140,229.7c-0.2,0.2-0.4,0.4-0.4,0.7c-0.1,0.2-0.1,0.5,0,0.8c0.6-0.1,1.1-0.3,1.7-0.5
			c0.5-0.2,0.9-0.5,1.2-0.8s0.4-0.5,0.4-0.6c0-0.2,0-0.3-0.2-0.4c-0.1-0.1-0.3-0.1-0.5-0.1s-0.5,0.1-0.8,0.2
			c-0.3,0.1-0.5,0.2-0.8,0.3C140.3,229.4,140.1,229.5,140,229.7z"/>
		<path class="st9" d="M156,244.3c0.2-0.1,0.3-0.1,0.4,0c0.1,0.1,0.1,0.2,0.1,0.3s0,0.2-0.1,0.3s-0.1,0.2-0.2,0.2
			c-0.2,0.1-0.6,0.2-1,0.3s-0.9,0.3-1.5,0.4c-0.6,0.1-1.1,0.3-1.8,0.4c-0.6,0.1-1.2,0.2-1.9,0.3c-0.6,0-1.2,0-1.7,0
			c-0.5-0.1-1-0.2-1.4-0.4c-0.1,0-0.1,0-0.1-0.1c-0.1-0.1-0.3-0.2-0.6-0.4s-0.6-0.5-0.9-0.7c-0.3-0.3-0.5-0.6-0.6-0.9
			c-0.1-0.3-0.1-0.6,0.1-0.8c0.1-0.1,0.1-0.1,0.2-0.2c0.1-0.1,0.2-0.1,0.3-0.2c-0.4,0.1-0.8,0.1-1.2,0.1s-0.8,0-1.1,0
			s-0.7,0-0.9-0.1c-0.3,0-0.5-0.1-0.6-0.2c-0.3-0.2-0.6-0.5-1-0.8c-0.3-0.4-0.6-0.7-0.8-1.1c-0.2-0.4-0.4-0.8-0.4-1.1
			c-0.1-0.4,0-0.7,0.3-0.9c0.2-0.2,0.5-0.3,0.9-0.5s0.9-0.4,1.5-0.6c0.6-0.2,1.2-0.4,1.8-0.6c0.6-0.2,1.2-0.3,1.8-0.4
			c0.6-0.1,1.1-0.1,1.6-0.1s0.9,0.1,1.1,0.3c0.4,0.2,0.7,0.5,1,0.8s0.5,0.6,0.7,0.9c0.2,0.3,0.4,0.6,0.5,0.9
			c0.1,0.3,0.2,0.5,0.3,0.8c0.6-0.3,0.9-0.5,1-0.6c0.1-0.2,0.3-0.2,0.6,0s0.5,0.4,0.7,0.7s0.4,0.6,0.5,0.9c0.1,0.3,0.2,0.5,0.1,0.7
			c-0.1,0.1-0.4,0.3-0.8,0.6c-0.4,0.3-1,0.6-1.5,1c-0.6,0.4-1.2,0.7-1.8,1.1c-0.6,0.4-1.1,0.6-1.5,0.9c-0.3,0.2-0.3,0.3-0.1,0.5
			c0.2,0.1,0.4,0.2,0.8,0.2c0.4,0,0.8,0,1.3-0.1s1-0.1,1.6-0.2c0.6-0.1,1.1-0.2,1.6-0.4c0.5-0.1,1.1-0.3,1.6-0.4
			C155.2,244.5,155.6,244.4,156,244.3z M142,241.8c0.1,0.1,0.4,0.1,0.7,0.2c0.3,0,0.7,0,1.2-0.1c0.5,0,0.9-0.1,1.4-0.2
			c0.5-0.1,1-0.2,1.5-0.3s0.9-0.2,1.4-0.3c0.4-0.1,0.8-0.2,1-0.3s0.3-0.2,0.5-0.3s0.3-0.2,0.5-0.2c-0.1-0.2-0.3-0.3-0.5-0.5
			s-0.4-0.4-0.7-0.5c-0.2-0.1-0.5-0.2-1-0.1c-0.5,0.1-1,0.2-1.5,0.3c-0.6,0.2-1.1,0.4-1.7,0.6c-0.6,0.2-1.1,0.5-1.5,0.7
			s-0.8,0.4-1,0.6C141.9,241.6,141.9,241.7,142,241.8z"/>
		<path class="st9" d="M162.7,247.3c0.2-0.1,0.3-0.1,0.4,0c0.1,0.1,0.1,0.2,0.1,0.3s0,0.2-0.1,0.3s-0.1,0.2-0.2,0.2
			c-0.2,0.1-0.6,0.3-1,0.4c-0.4,0.2-0.9,0.4-1.4,0.6c-0.5,0.2-1.1,0.4-1.7,0.5c-0.6,0.2-1.3,0.3-1.9,0.4c-0.6,0.1-1.3,0.1-1.9,0
			c-0.6-0.1-1.2-0.2-1.7-0.5c-0.1-0.1-0.3-0.2-0.6-0.4c-0.2-0.2-0.4-0.4-0.6-0.6c-0.1-0.2-0.2-0.5-0.3-0.8c0-0.3,0.1-0.6,0.3-0.9
			c0.1-0.2,0.4-0.4,0.9-0.7s1-0.7,1.6-1.1c0.6-0.4,1.3-0.9,2.1-1.4c0.7-0.5,1.5-1.1,2.2-1.7c0.7-0.6,1.4-1.2,2-1.8s1.1-1.2,1.5-1.9
			c0.1-0.1,0.2-0.2,0.4-0.1c0.2,0,0.4,0.2,0.6,0.3c0.2,0.2,0.4,0.3,0.6,0.6c0.2,0.2,0.4,0.4,0.6,0.7c0.2,0.2,0.3,0.4,0.4,0.6
			c0.1,0.2,0.1,0.3,0,0.4c0,0.1-0.2,0.2-0.4,0.4s-0.5,0.5-0.9,0.8s-0.8,0.7-1.3,1.1c-0.5,0.4-1,0.8-1.5,1.2s-1.1,0.8-1.6,1.3
			c-0.6,0.4-1.1,0.8-1.6,1.2s-1,0.7-1.4,1.1c-0.4,0.3-0.9,0.6-1.1,0.8c-0.2,0.1-0.1,0.3,0,0.4c0.2,0.1,0.4,0.1,0.8,0.1
			c0.3,0,0.7-0.1,1.2-0.2c0.4-0.1,0.9-0.2,1.4-0.4s1-0.3,1.5-0.5s1-0.3,1.4-0.5C161.9,247.6,162.3,247.4,162.7,247.3z"/>
		<path class="st9" d="M173.4,250.8c0.1-0.1,0.3-0.1,0.3,0c0.1,0,0.1,0.1,0.1,0.2c0,0.1,0,0.2,0,0.3s0,0.1-0.1,0.2
			c-0.2,0.1-0.6,0.3-1,0.5c-0.5,0.2-1,0.5-1.7,0.7c-0.6,0.2-1.3,0.5-2.1,0.7c-0.7,0.2-1.5,0.4-2.3,0.5s-1.5,0.2-2.3,0.1
			c-0.7,0-1.4-0.2-2-0.4c-0.4-0.2-0.8-0.4-1.2-0.7s-0.8-0.7-1-1.1c-0.3-0.4-0.5-0.7-0.6-1.1c-0.1-0.3-0.1-0.6,0-0.8
			c0.3-0.4,0.6-0.9,1.1-1.2c0.4-0.4,0.9-0.7,1.5-1c0.5-0.3,1.1-0.5,1.6-0.8c0.6-0.2,1.1-0.4,1.7-0.5c0.5-0.1,1.1-0.2,1.5-0.2
			c0.5,0,0.9,0,1.2,0.2c0.4,0.2,0.8,0.4,1.2,0.7s0.6,0.6,0.9,1c0.2,0.3,0.4,0.7,0.4,1c0.1,0.3,0.1,0.6,0,0.8s-0.4,0.5-0.8,0.7
			c-0.4,0.2-0.9,0.4-1.4,0.6c-0.5,0.2-1.1,0.3-1.8,0.3c-0.6,0-1.2-0.1-1.8-0.3c-0.3-0.1-0.6-0.2-0.9-0.4c-0.2-0.1-0.5-0.3-0.7-0.4
			c-0.3,0.2-0.5,0.4-0.7,0.7c-0.2,0.2-0.3,0.4-0.4,0.6c-0.1,0.2-0.1,0.4,0,0.5c0.1,0.2,0.2,0.3,0.4,0.4c0.5,0.2,1.1,0.3,1.7,0.4
			c0.6,0,1.3,0,2-0.1s1.4-0.2,2-0.4c0.7-0.2,1.3-0.4,1.9-0.6c0.6-0.2,1.2-0.4,1.7-0.6C172.6,251.1,173,250.9,173.4,250.8z
			 M168.7,247.9c-0.2-0.1-0.4-0.1-0.7,0s-0.6,0.2-1,0.3s-0.7,0.3-1.1,0.5c-0.4,0.2-0.8,0.4-1.2,0.7c0.7,0.1,1.3,0.1,1.9,0
			c0.6-0.1,1.1-0.3,1.5-0.5s0.6-0.4,0.8-0.6C169,248.1,169,248,168.7,247.9z"/>
		<path class="st9" d="M187.7,253.7c0.2-0.1,0.3-0.2,0.4-0.1c0.1,0,0.1,0.1,0.2,0.2c0,0.1,0,0.2,0,0.3s-0.1,0.2-0.1,0.2
			c-0.2,0.2-0.6,0.4-1,0.7s-0.9,0.6-1.5,0.9s-1.2,0.6-1.8,0.9c-0.7,0.3-1.4,0.6-2.1,0.8c-0.7,0.2-1.4,0.3-2.2,0.4
			c-0.7,0.1-1.4,0-2.1-0.1c-0.5-0.1-0.9-0.2-1.2-0.4c-0.3-0.1-0.6-0.3-0.9-0.4c-0.3-0.1-0.6-0.3-0.9-0.4c-0.3-0.1-0.7-0.3-1.2-0.4
			s-0.9-0.2-1.2-0.2s-0.5,0-0.6,0c-0.2,0-0.3,0-0.4,0c-0.1,0-0.2,0-0.4-0.1c-0.1,0-0.1-0.1-0.1-0.3c0-0.1,0.1-0.3,0.3-0.5
			s0.4-0.3,0.7-0.4c0.3-0.1,0.6-0.2,1.1-0.2c0.6-0.2,1.2-0.4,2-0.7c0.8-0.2,1.6-0.5,2.5-0.7c0.9-0.3,1.8-0.5,2.7-0.8s1.7-0.7,2.5-1
			h0.1c-0.4,0-0.8,0-1.2,0s-0.9,0-1.3,0c-0.4,0-0.8,0-1.2-0.1c-0.4,0-0.7-0.1-1-0.1c-0.5-0.1-0.9-0.3-1.2-0.4
			c-0.3-0.2-0.6-0.3-0.7-0.5c-0.2,0.1-0.3,0.2-0.4,0.2c-0.1,0.1-0.1,0.1-0.2,0.1c-0.3,0.2-0.6,0.4-0.9,0.5c-0.2,0.1-0.5,0.3-0.7,0.4
			c-0.2,0.1-0.4,0.2-0.5,0.3c-0.1,0-0.2,0-0.2,0s-0.1-0.1-0.2-0.2c0-0.1,0-0.2,0-0.3s0.1-0.2,0.3-0.3c0.6-0.3,1.2-0.7,1.6-1
			c0.4-0.3,0.7-0.6,0.9-1c0,0,0-0.1,0.1-0.1c0.1-0.1,0.1-0.2,0.2-0.3c0.1-0.1,0.2-0.1,0.2-0.1s0.1,0.1,0.2,0.1
			c0.1,0.1,0.2,0.2,0.3,0.3s0.3,0.2,0.5,0.3s0.5,0.2,0.9,0.3c0.8,0.2,1.5,0.3,2.1,0.4c0.5,0.1,1,0.1,1.4,0.2c0.4,0,0.8,0.1,1.2,0.1
			s0.8,0.1,1.3,0.2c0.5,0.1,0.8,0.2,1,0.4s0.4,0.4,0.5,0.5c0.1,0.2,0.1,0.4,0.1,0.5c0,0.2-0.1,0.3-0.2,0.3c-0.1,0.1-0.4,0.3-0.7,0.5
			c-0.4,0.2-0.8,0.4-1.3,0.6c-0.5,0.2-1.1,0.4-1.7,0.7c-0.6,0.2-1.3,0.4-1.9,0.7c-0.6,0.2-1.3,0.4-1.9,0.6c-0.6,0.2-1.1,0.4-1.6,0.5
			c0.6,0.3,1.2,0.5,1.8,0.7s1.1,0.4,1.6,0.5c0.4,0.1,0.9,0.1,1.3,0c0.5-0.1,1-0.2,1.5-0.3c0.5-0.2,1.1-0.4,1.6-0.6s1-0.5,1.5-0.8
			s0.9-0.5,1.4-0.8C187,254.2,187.4,254,187.7,253.7z"/>
		<path class="st9" d="M201.9,254.6c0.1-0.1,0.2-0.2,0.3-0.2s0.2,0.1,0.2,0.2c0,0.1,0.1,0.2,0.1,0.3s0,0.2-0.1,0.2
			c-0.2,0.2-0.4,0.4-0.7,0.8c-0.3,0.3-0.7,0.7-1.1,1c-0.4,0.4-0.9,0.8-1.4,1.2c-0.5,0.4-1,0.7-1.5,1.1c-0.5,0.3-1,0.6-1.5,0.8
			c-0.5,0.2-1,0.3-1.4,0.3c-0.1,0-0.1,0-0.2,0c-0.1,0-0.4,0-0.8-0.1c-0.4-0.1-0.7-0.1-1.1-0.3c-0.4-0.1-0.7-0.3-0.9-0.5
			s-0.4-0.5-0.3-0.8c0-0.1,0.1-0.2,0.1-0.3c0-0.1,0.1-0.2,0.2-0.3c-0.3,0.2-0.7,0.5-1,0.7s-0.7,0.4-1,0.5c-0.3,0.2-0.6,0.3-0.8,0.4
			c-0.3,0.1-0.5,0.1-0.6,0.1c-0.4,0-0.8-0.1-1.2-0.3c-0.5-0.2-0.9-0.4-1.2-0.6c-0.4-0.2-0.7-0.5-0.9-0.8s-0.3-0.6-0.2-0.9
			c0.1-0.2,0.2-0.5,0.5-0.9c0.3-0.4,0.6-0.8,1-1.2s0.8-0.9,1.3-1.3c0.5-0.4,0.9-0.8,1.4-1.2s0.9-0.6,1.3-0.9
			c0.4-0.2,0.8-0.3,1.1-0.3c0.4,0,0.9,0.1,1.2,0.3c0.4,0.1,0.7,0.3,1,0.5s0.6,0.4,0.8,0.5c0.2,0.2,0.5,0.4,0.6,0.5
			c0.4-0.5,0.6-0.9,0.6-1c0-0.2,0.2-0.3,0.5-0.3s0.6,0.1,0.9,0.3c0.3,0.1,0.6,0.3,0.9,0.5c0.3,0.2,0.4,0.4,0.4,0.6
			c0,0.1-0.2,0.5-0.4,0.9c-0.3,0.5-0.6,1-0.9,1.6c-0.4,0.6-0.7,1.2-1.1,1.7c-0.4,0.6-0.7,1.1-0.9,1.5c-0.2,0.3-0.1,0.4,0.1,0.5
			c0.2,0,0.5-0.1,0.8-0.2c0.3-0.2,0.7-0.4,1.1-0.6c0.4-0.3,0.8-0.6,1.3-0.9c0.4-0.3,0.9-0.7,1.3-1c0.4-0.4,0.8-0.7,1.2-1.1
			C201.3,255.2,201.7,254.8,201.9,254.6z M188.5,258.7c0.2,0,0.4,0,0.7-0.2c0.3-0.1,0.6-0.3,1-0.6c0.4-0.2,0.8-0.5,1.2-0.8
			s0.8-0.6,1.2-0.9s0.7-0.6,1-0.9c0.3-0.3,0.6-0.5,0.8-0.7c0.1-0.2,0.2-0.3,0.3-0.4c0.1-0.1,0.2-0.3,0.3-0.4
			c-0.2-0.1-0.4-0.2-0.7-0.2c-0.3-0.1-0.6-0.1-0.9-0.1c-0.2,0-0.5,0.1-0.9,0.4c-0.4,0.3-0.8,0.6-1.2,1s-0.8,0.8-1.2,1.3
			c-0.4,0.5-0.7,0.9-1,1.3s-0.5,0.7-0.6,1C188.3,258.5,188.3,258.7,188.5,258.7z"/>
		<path class="st9" d="M222.7,252.3c0.1-0.2,0.2-0.2,0.3-0.2s0.2,0.1,0.2,0.2c0.1,0.1,0.1,0.2,0.1,0.3s0,0.2,0,0.3
			c-0.1,0.1-0.2,0.3-0.4,0.6s-0.6,0.7-0.9,1.2c-0.4,0.5-0.8,1-1.3,1.6c-0.5,0.6-1,1.1-1.5,1.6s-1,1-1.5,1.5s-0.9,0.8-1.2,1
			c0,0-0.1,0-0.1,0.1c0,0-0.1,0-0.1,0.1c-0.5,1-1,1.9-1.6,2.8s-1.2,1.7-1.9,2.4c-0.7,0.7-1.4,1.3-2.1,1.7c-0.7,0.4-1.5,0.7-2.2,0.7
			c-0.6,0-1.1,0-1.5-0.1s-0.7-0.2-0.9-0.4c-0.2-0.2-0.4-0.4-0.4-0.6c-0.1-0.2-0.1-0.4-0.1-0.6s0.2-0.5,0.6-0.8
			c0.4-0.3,0.8-0.6,1.4-0.9c0.6-0.3,1.3-0.7,2-1.1s1.9-0.8,2.4-1.3c0.6-0.6,1.1-1.9,1.6-2.9s0.9-2,1.3-3c-0.3,0.4-0.7,0.8-1.1,1.2
			c-0.4,0.4-0.8,0.8-1.3,1.2c-0.5,0.4-1,0.7-1.5,1s-1.1,0.4-1.6,0.5c-0.2,0-0.5,0-0.8-0.1s-0.7-0.2-1-0.3c-0.3-0.1-0.6-0.3-0.8-0.6
			c-0.2-0.2-0.3-0.5-0.3-0.8c0-0.2,0.1-0.5,0.3-0.8s0.4-0.7,0.6-1.1c0.2-0.4,0.5-0.9,0.8-1.3c0.3-0.5,0.5-0.9,0.7-1.3
			c0.2-0.4,0.4-0.8,0.5-1.2s0.2-0.7,0.2-0.9s0.1-0.3,0.4-0.3c0.3,0,0.6,0,1,0.1c0.3,0.1,0.7,0.2,1,0.4s0.4,0.3,0.4,0.5
			c0,0.1-0.1,0.4-0.3,0.7c-0.2,0.4-0.4,0.8-0.6,1.3c-0.2,0.5-0.5,1-0.8,1.6c-0.3,0.5-0.5,1-0.7,1.5s-0.4,0.8-0.5,1.1
			c-0.1,0.3-0.1,0.4,0.1,0.4c0.4,0,1-0.3,1.6-0.7c0.6-0.4,1.3-1,1.9-1.6c0.6-0.6,1.2-1.3,1.8-2c0.5-0.7,1-1.4,1.2-2
			c0.2-0.5,0.3-1,0.4-1.3c0.1-0.4,0.1-0.6,0.1-0.7c0-0.2,0.1-0.3,0.4-0.4c0.3,0,0.6,0,1,0.1s0.7,0.2,1,0.4s0.5,0.3,0.5,0.5
			c0,0.1,0,0.3-0.1,0.8c-0.1,0.4-0.2,1-0.4,1.7s-0.4,1.5-0.7,2.3c-0.3,0.9-0.7,1.8-1.1,2.7c0.3-0.3,0.7-0.7,1.1-1.1
			c0.4-0.4,0.8-0.8,1.2-1.3c0.4-0.4,0.8-0.9,1.1-1.3c0.4-0.4,0.7-0.8,1-1.2s0.5-0.7,0.7-1C222.5,252.6,222.6,252.4,222.7,252.3z
			 M207.3,266.8c0.5,0,1.1-0.3,1.7-0.9c0.6-0.5,1.3-1.2,1.9-2.1c-1.1,0.6-2,1.1-2.7,1.6c-0.7,0.4-1.1,0.8-1.1,1s0,0.3,0.1,0.3
			C207.2,266.8,207.2,266.8,207.3,266.8z"/>
		<path class="st9" d="M235.7,239.2c1.4-0.5,2.5-0.9,3.5-1s1.8-0.1,2.3,0.2c0.6,0.2,1,0.6,1.2,1.1s0.2,1.2,0,1.9s-0.6,1.5-1.3,2.4
			c-0.7,0.8-1.5,1.7-2.6,2.5c0.8-0.1,1.5,0,2.2,0.3s1.2,0.8,1.5,1.5c0.2,0.5,0.3,1.1,0.1,1.7c-0.2,0.6-0.5,1.2-0.9,1.8
			c-0.5,0.6-1,1.1-1.7,1.6s-1.5,0.9-2.3,1.1c-0.8,0.3-1.5,0.5-2.2,0.6s-1.3,0.2-1.9,0.2c-0.2,0-0.5,0-0.8,0s-0.6,0-0.9-0.1
			c-0.3,0-0.6-0.1-0.8-0.2c-0.2-0.1-0.4-0.2-0.4-0.3s0-0.3,0.1-0.7c0.1-0.3,0.2-0.8,0.3-1.3s0.3-1.1,0.5-1.7c0.2-0.6,0.4-1.3,0.5-2
			c-0.1-0.1-0.2-0.2-0.3-0.3s-0.1-0.2-0.1-0.4c0-0.1,0-0.2,0.1-0.3c0-0.1,0.1-0.2,0.2-0.2c0.1,0,0.1,0,0.2-0.1c0.1,0,0.1,0,0.2-0.1
			c0.3-1.1,0.5-2.2,0.7-3.2c0.2-1.1,0.3-2,0.3-2.8c-0.7,0.6-1.4,1.3-2.1,2c-0.7,0.7-1.3,1.5-1.8,2.2s-0.9,1.5-1.1,2.2
			c-0.2,0.7-0.3,1.3-0.1,1.9c0.1,0.2,0.1,0.4,0.2,0.5c0.1,0.1,0.2,0.2,0.3,0.2c0.1,0.1,0.2,0.1,0.2,0.1c0.1,0,0.1,0.1,0.1,0.1
			c0,0.1-0.1,0.2-0.4,0.3c-0.3,0-0.7,0-1.1-0.2c-0.4-0.1-0.8-0.4-1.2-0.7s-0.7-0.8-0.8-1.4c-0.1-0.3,0-0.6,0.1-1s0.4-0.9,0.7-1.4
			s0.7-1,1.2-1.6s1-1.1,1.6-1.7c0.6-0.6,1.2-1.1,1.9-1.6s1.5-1,2.3-1.5c0-0.2-0.1-0.4-0.1-0.5s0-0.2,0.1-0.3s0.2-0.1,0.4-0.1
			s0.4,0,0.6,0c0.2,0,0.5,0.1,0.7,0.1c0.1-0.1,0.2-0.1,0.3-0.1C235.4,239.3,235.5,239.3,235.7,239.2z M240.1,248.5
			c-0.2-0.5-0.6-0.9-1.1-1.1c-0.5-0.2-1.1-0.2-1.9,0.1c-0.1,0-0.2,0.1-0.3,0.1s-0.2,0.1-0.3,0.1l-0.1,0.1c0,0-0.1,0-0.1,0.1
			c-0.1,0.1-0.2,0.1-0.4,0.2c-0.1,0.1-0.3,0.1-0.4,0.2c-0.1,0.6-0.3,1.2-0.4,1.8c-0.1,0.6-0.2,1.1-0.3,1.6s-0.2,0.9-0.2,1.3
			c-0.1,0.4-0.1,0.7-0.1,0.8c0.4-0.1,0.8-0.2,1.2-0.3c0.9-0.3,1.7-0.7,2.3-1.2s1.1-0.9,1.5-1.4c0.3-0.5,0.6-0.9,0.7-1.4
			C240.2,249.1,240.2,248.7,240.1,248.5z M235.8,246.7c1.1-0.5,2-1,2.7-1.7c0.7-0.6,1.1-1.3,1.4-1.9c0.3-0.6,0.4-1.2,0.3-1.7
			c-0.1-0.5-0.2-1-0.6-1.3c-0.3-0.3-0.7-0.6-1.3-0.6c-0.5-0.1-1.1,0-1.8,0.3c-0.1,0-0.2,0.1-0.2,0.1c-0.1,0-0.2,0.1-0.2,0.1
			c0.2,0.1,0.3,0.3,0.3,0.4c0,0.1,0.1,0.4,0.1,0.8c0,0.4,0,0.9-0.1,1.5s-0.1,1.2-0.3,1.9C236.1,245.2,235.9,245.9,235.8,246.7z"/>
		<path class="st9" d="M250.8,241.8c0.1-0.2,0.1-0.3,0.2-0.3c0.1,0,0.2,0,0.2,0.1c0.1,0.1,0.1,0.2,0.2,0.3s0.1,0.2,0.1,0.2
			c-0.1,0.2-0.1,0.6-0.3,1c-0.1,0.4-0.3,0.9-0.4,1.4c-0.2,0.5-0.4,1.1-0.6,1.7c-0.2,0.6-0.5,1.1-0.8,1.7c-0.3,0.5-0.6,1-1,1.4
			c-0.3,0.4-0.7,0.7-1.1,0.9c-0.1,0-0.1,0-0.1,0.1c-0.1,0.1-0.4,0.2-0.7,0.3s-0.7,0.2-1.1,0.3c-0.4,0.1-0.7,0.1-1.1,0
			c-0.3-0.1-0.5-0.2-0.6-0.5c-0.1-0.2-0.1-0.5-0.1-0.9s0.1-0.9,0.1-1.5c0.1-0.5,0.1-1.1,0.2-1.7c0.1-0.6,0.1-1.1,0.2-1.6
			s0.1-1,0.1-1.3c0-0.4,0-0.6,0-0.7c-0.1-0.2,0-0.3,0.3-0.5c0.3-0.1,0.6-0.2,1-0.2s0.7,0,1.1,0c0.3,0.1,0.6,0.2,0.6,0.3
			s0.1,0.3,0.1,0.6s0,0.6,0,1s0,0.8,0,1.3s0,0.9-0.1,1.4c0,0.5-0.1,0.9-0.1,1.3c0,0.4,0,0.8-0.1,1.1c0,0.3,0.1,0.5,0.3,0.4
			s0.4-0.3,0.6-0.6c0.2-0.3,0.4-0.6,0.7-1.1c0.2-0.4,0.4-0.9,0.7-1.4c0.2-0.5,0.4-1,0.6-1.5c0.2-0.5,0.4-1,0.5-1.5
			C250.5,242.7,250.7,242.2,250.8,241.8z M246,240.3c-0.2,0.1-0.5,0.2-0.7,0.3c-0.3,0.1-0.5,0.1-0.7,0.1s-0.4,0-0.6-0.1
			c-0.2-0.1-0.3-0.2-0.3-0.3c-0.1-0.2-0.1-0.5,0-0.8s0.2-0.6,0.4-0.9c0.2-0.3,0.4-0.6,0.6-0.9c0.2-0.3,0.5-0.5,0.8-0.6
			c0.4-0.2,0.8-0.3,1.2-0.3s0.6,0.2,0.8,0.6c0.1,0.2,0.1,0.4,0.1,0.7s-0.1,0.6-0.2,0.9c-0.1,0.3-0.2,0.6-0.4,0.8
			C246.6,239.9,246.3,240.1,246,240.3z"/>
		<path class="st9" d="M260.3,235.7c0-0.2,0.1-0.2,0.2-0.3c0.1,0,0.2,0,0.3,0c0.1,0,0.2,0.1,0.2,0.2c0.1,0.1,0.1,0.1,0.1,0.2
			c0,0.3-0.1,0.6-0.2,1.1s-0.3,1.1-0.5,1.7c-0.2,0.6-0.5,1.3-0.8,2s-0.6,1.4-1,2.1c-0.4,0.7-0.8,1.3-1.3,1.8c-0.5,0.6-1,1-1.5,1.3
			c-0.4,0.2-0.8,0.4-1.4,0.5c-0.5,0.1-1,0.2-1.5,0.2s-0.9-0.1-1.3-0.2c-0.4-0.1-0.6-0.3-0.6-0.5c-0.2-0.5-0.3-1-0.3-1.6
			s0-1.2,0.1-1.7c0.1-0.6,0.2-1.2,0.4-1.7c0.2-0.6,0.4-1.1,0.6-1.6c0.2-0.5,0.5-0.9,0.8-1.3c0.3-0.4,0.6-0.7,0.9-0.9
			c0.4-0.2,0.8-0.4,1.3-0.5s0.9-0.1,1.3-0.1s0.8,0.1,1.1,0.3c0.3,0.1,0.6,0.3,0.7,0.5s0.1,0.6,0.1,1c-0.1,0.5-0.2,1-0.4,1.5
			c-0.2,0.5-0.5,1-0.9,1.5s-0.8,0.9-1.3,1.2c-0.3,0.2-0.6,0.3-0.8,0.4c-0.3,0.1-0.5,0.2-0.7,0.3c0,0.4,0,0.7,0.1,1
			c0,0.3,0.1,0.5,0.2,0.7c0.1,0.2,0.2,0.3,0.4,0.3s0.4,0,0.6-0.1c0.5-0.3,0.9-0.7,1.4-1.1c0.4-0.5,0.8-1,1.2-1.6
			c0.4-0.6,0.7-1.2,1-1.8s0.5-1.3,0.8-1.9c0.2-0.6,0.4-1.2,0.6-1.7C260,236.5,260.1,236.1,260.3,235.7z M255,237.6
			c-0.2,0.1-0.3,0.3-0.4,0.5c-0.1,0.3-0.2,0.6-0.3,0.9c-0.1,0.4-0.2,0.8-0.3,1.2s-0.1,0.9-0.2,1.3c0.5-0.4,0.9-0.9,1.2-1.4
			s0.4-1,0.5-1.4s0.1-0.8,0-1C255.4,237.5,255.2,237.5,255,237.6z"/>
		<path class="st9" d="M271.7,226c0-0.2,0-0.3,0.1-0.4c0.1,0,0.2,0,0.3,0c0.1,0,0.2,0.1,0.3,0.2c0.1,0.1,0.1,0.2,0.1,0.2
			c0,0.2,0,0.6,0,1.1s0,1-0.1,1.6c0,0.6-0.1,1.2-0.2,1.9s-0.2,1.3-0.4,1.9c-0.2,0.6-0.3,1.2-0.6,1.7c-0.2,0.5-0.5,0.9-0.8,1.3
			c-0.1,0.1-0.3,0.3-0.6,0.5c-0.3,0.2-0.6,0.3-1,0.4c-0.4,0.1-0.7,0.2-1,0.1c-0.3,0-0.6-0.2-0.7-0.4s-0.2-0.5-0.3-1
			c-0.1-0.5-0.2-1-0.2-1.6c-0.1-0.6-0.2-1.2-0.2-1.8c-0.1-0.6-0.2-1.2-0.3-1.8c-0.1,0.4-0.2,0.9-0.3,1.4c-0.1,0.6-0.3,1.2-0.4,1.8
			s-0.3,1.3-0.5,1.9c-0.2,0.7-0.3,1.3-0.5,1.8c-0.1,0.6-0.3,1.1-0.3,1.5c-0.1,0.4-0.1,0.8-0.1,1c0.1,0.1,0.2,0.2,0.2,0.3
			c0.1,0.1,0.1,0.1,0,0.3c-0.1,0.1-0.2,0.3-0.5,0.4c-0.3,0.2-0.7,0.3-1,0.4c-0.4,0.1-0.7,0.1-1.1,0.1s-0.6-0.2-0.8-0.5
			c-0.1-0.2-0.2-0.5-0.2-0.9s-0.1-0.8-0.1-1.3s0-1,0-1.6s-0.1-1.1-0.1-1.6s-0.1-1-0.2-1.4s-0.2-0.7-0.3-0.9c-0.1-0.2,0-0.4,0.2-0.5
			c0.2-0.2,0.6-0.3,0.9-0.4c0.4-0.1,0.7-0.2,1.1-0.2c0.3,0,0.6,0.1,0.7,0.2c0.1,0.1,0.1,0.3,0.2,0.6s0.1,0.6,0.2,1.1
			c0.1,0.4,0.1,0.9,0.2,1.4s0.1,1,0.2,1.5c0.1-0.3,0.1-0.7,0.2-1.2s0.2-1,0.3-1.6c0.1-0.6,0.2-1.1,0.3-1.7c0.1-0.6,0.2-1.1,0.4-1.7
			c0.1-0.5,0.2-1,0.4-1.4c0.1-0.4,0.2-0.8,0.4-1c0,0,0-0.1,0.1-0.2c0,0,0-0.1,0.1-0.1c0.1-0.1,0.1-0.1,0.2-0.1
			c0.2-0.1,0.4-0.2,0.6-0.3c0.3-0.1,0.5-0.2,0.7-0.2c0.2-0.1,0.5-0.1,0.7-0.1s0.3,0.1,0.4,0.2c0.1,0.1,0.1,0.3,0.2,0.6
			s0.2,0.6,0.3,1c0.1,0.4,0.2,0.9,0.3,1.4c0.1,0.5,0.2,1,0.3,1.5c0.1,0.5,0.2,1,0.3,1.4c0.1,0.5,0.2,0.8,0.2,1.1
			c0.1,0.3,0.2,0.3,0.4,0.2c0.2-0.2,0.4-0.6,0.6-1.3s0.3-1.4,0.4-2.2s0.2-1.7,0.2-2.5S271.7,226.6,271.7,226z"/>
		<path class="st9" d="M279.2,217.1c0-0.2,0-0.3,0.1-0.3c0.1-0.1,0.2-0.1,0.3-0.1c0.1,0,0.2,0,0.3,0.1c0.1,0,0.1,0.1,0.1,0.2
			c0,0.3,0,0.7,0.1,1.2c0,0.5,0,1.2,0,1.9s-0.1,1.4-0.2,2.2s-0.3,1.6-0.5,2.4c-0.2,0.8-0.5,1.5-0.8,2.2s-0.7,1.3-1.1,1.7
			c-0.3,0.3-0.7,0.6-1.2,0.9c-0.5,0.3-0.9,0.5-1.4,0.6s-0.9,0.2-1.3,0.2s-0.6-0.1-0.7-0.3c-0.3-0.4-0.6-0.9-0.7-1.5
			c-0.2-0.6-0.3-1.1-0.4-1.7c-0.1-0.6-0.1-1.2-0.1-1.8s0.1-1.2,0.2-1.8s0.3-1.1,0.5-1.5c0.2-0.5,0.4-0.8,0.7-1.1
			c0.3-0.4,0.7-0.7,1.1-0.9s0.8-0.4,1.3-0.5c0.4-0.1,0.8-0.1,1.1,0c0.4,0.1,0.6,0.2,0.8,0.3c0.2,0.2,0.3,0.5,0.4,1s0.1,1,0,1.6
			s-0.2,1.2-0.5,1.8c-0.2,0.6-0.6,1.1-1,1.6c-0.2,0.3-0.5,0.5-0.7,0.7s-0.4,0.3-0.6,0.5c0.1,0.3,0.2,0.7,0.3,0.9
			c0.1,0.3,0.2,0.5,0.4,0.6c0.1,0.1,0.3,0.2,0.5,0.2s0.3-0.1,0.5-0.3c0.4-0.4,0.7-0.9,1-1.5s0.5-1.2,0.8-1.9
			c0.2-0.7,0.4-1.4,0.5-2.1c0.1-0.7,0.2-1.4,0.3-2.1c0.1-0.7,0.1-1.3,0.1-1.9C279.2,218.1,279.2,217.6,279.2,217.1z M274.6,220.6
			c-0.1,0.1-0.2,0.4-0.3,0.7c-0.1,0.3-0.1,0.6-0.1,1s0,0.8,0.1,1.3c0,0.5,0.1,0.9,0.2,1.4c0.4-0.6,0.7-1.2,0.8-1.8
			c0.1-0.6,0.2-1.1,0.1-1.6c0-0.4-0.1-0.8-0.3-1C275,220.4,274.8,220.4,274.6,220.6z"/>
		<path class="st9" d="M284.8,209.2c0-0.2,0-0.3,0-0.4c0.1-0.1,0.2-0.1,0.3-0.1c0.1,0,0.2,0,0.3,0.1c0.1,0.1,0.1,0.1,0.2,0.2
			c0.1,0.5,0.1,1.2,0,2s-0.3,1.7-0.6,2.6c0.3,0,0.5,0.2,0.7,0.4c0.3,0.2,0.4,0.6,0.6,1.1c0.1,0.5,0.2,1.1,0.1,1.7
			c0,0.6-0.2,1.3-0.4,1.9c-0.2,0.7-0.5,1.3-1,1.8c-0.1,0.2-0.3,0.3-0.5,0.5c-0.2,0.1-0.4,0.2-0.6,0.3s-0.4,0.1-0.6,0.1
			s-0.3-0.1-0.4-0.2c-0.1-0.1-0.2-0.4-0.3-0.6c0-0.3,0-0.6,0.1-1s0.2-0.8,0.3-1.2s0.3-0.9,0.4-1.4c-0.4-0.3-0.9-0.4-1.4-0.4
			s-1.1,0-1.6,0.1c0,0.1,0,0.2,0,0.3s0,0.2,0,0.3s0,0.1-0.1,0.2c-0.1,0.1-0.2,0.1-0.3,0.1c-0.1,0-0.2,0-0.3,0
			c-0.1,0-0.1-0.1-0.1-0.2c0-0.1,0-0.2,0-0.3s0-0.2,0-0.3c-0.7,0.1-1.4,0.1-2,0.1s-1.2-0.3-1.7-0.8c-0.3-0.3-0.5-0.8-0.6-1.3
			s-0.1-1.1,0-1.6c0.1-0.6,0.2-1.1,0.3-1.6c0.2-0.5,0.4-0.9,0.5-1.2c0.2-0.3,0.5-0.5,0.9-0.5c0.4-0.1,0.8,0.1,1.2,0.6
			c0.4,0.4,0.8,0.9,1,1.6c0.3,0.7,0.5,1.4,0.7,2.1c0.7-0.1,1.5-0.2,2.3-0.4s1.5-0.3,2.2-0.2c0.2-0.8,0.4-1.6,0.5-2.3
			C284.9,210.4,284.9,209.7,284.8,209.2z M284.1,219.8c0.2-0.2,0.3-0.4,0.3-0.7c0-0.2,0-0.5,0-0.7s-0.1-0.5-0.2-0.7
			s-0.2-0.4-0.3-0.5c-0.2,0.6-0.3,1.2-0.3,1.6c0,0.5,0,0.8,0.2,1c0.1,0.1,0.1,0.1,0.2,0.1C284,219.9,284,219.9,284.1,219.8z
			 M277.5,213.5c0.2,0.2,0.4,0.3,0.7,0.4c0.3,0.1,0.5,0.1,0.8,0.1c-0.2-0.6-0.3-1.2-0.6-1.8c-0.2-0.6-0.5-1-0.8-1.3
			s-0.5-0.4-0.6-0.4c-0.2,0-0.3,0.1-0.4,0.2c-0.1,0.1-0.1,0.3-0.1,0.5s0.1,0.5,0.2,0.8s0.2,0.5,0.4,0.8
			C277.2,213.2,277.3,213.4,277.5,213.5z"/>
		<path class="st9" d="M284.8,198.3c0.3-0.7,0.6-1.1,0.9-1.4c0.3-0.3,0.5-0.5,0.8-0.6c0.2-0.1,0.4-0.1,0.5,0s0.1,0.2,0.1,0.3
			c-0.1,0.1-0.1,0.2-0.2,0.2s-0.1,0.1-0.2,0.2c-0.1,0.1-0.2,0.2-0.3,0.4c-0.1,0.2-0.3,0.5-0.5,0.9c-0.1,0.3-0.3,0.7-0.6,1.4
			c-0.3,0.6-0.5,1.4-0.9,2.2c0.4,0.7,0.9,1.4,1.3,2.2c0.5,0.8,0.9,1.6,1.4,2.3c0.5,0.8,0.9,1.5,1.2,2.2c0.4,0.7,0.7,1.2,0.9,1.6
			c0.2,0.3,0.4,0.3,0.5,0.1s0.2-0.4,0.2-0.8c0-0.4,0-0.8,0-1.3s-0.1-1.1-0.2-1.7c-0.1-0.6-0.2-1.2-0.3-1.8c-0.1-0.6-0.2-1.1-0.3-1.7
			c-0.1-0.5-0.2-1-0.3-1.4c-0.1-0.2,0-0.3,0-0.4c0.1-0.1,0.2-0.1,0.3-0.1c0.1,0,0.2,0,0.3,0.1c0.1,0.1,0.2,0.1,0.2,0.2
			c0.1,0.3,0.2,0.6,0.3,1.1c0.1,0.5,0.2,1,0.4,1.6c0.1,0.6,0.2,1.2,0.3,1.9c0.1,0.7,0.1,1.3,0.2,2c0,0.7,0,1.3-0.1,1.9
			c-0.1,0.6-0.2,1.1-0.4,1.5v0.1v0.1c-0.1,0.1-0.2,0.4-0.5,0.7c-0.2,0.3-0.5,0.6-0.8,0.9c-0.3,0.3-0.6,0.5-0.9,0.6s-0.6,0.1-0.8-0.1
			c-0.2-0.1-0.4-0.5-0.6-1c-0.3-0.5-0.6-1.2-1-2s-0.8-1.6-1.2-2.5c-0.5-0.9-1-1.8-1.5-2.6c-0.2,0.4-0.4,0.8-0.6,1.1
			s-0.3,0.6-0.5,0.8c-0.3,0.4-0.6,0.7-0.9,0.9c-0.4,0.2-0.7,0.2-1,0.2s-0.5-0.1-0.7-0.2c-0.2-0.1-0.2-0.3-0.1-0.4
			c0-0.1,0.1-0.1,0.2-0.2c0.1-0.1,0.3-0.2,0.4-0.3c0.2-0.1,0.4-0.4,0.6-0.6c0.2-0.3,0.5-0.6,0.7-1.1c0.2-0.3,0.3-0.6,0.5-0.8
			c0.1-0.2,0.3-0.5,0.4-0.7c-0.4-0.5-0.8-1-1.2-1.4c-0.4-0.4-0.8-0.8-1.2-1.1c-0.1-0.1-0.1-0.2-0.1-0.4c0.1-0.2,0.2-0.4,0.4-0.6
			c0.2-0.2,0.4-0.4,0.7-0.6c0.3-0.2,0.5-0.4,0.8-0.6c0.3-0.2,0.5-0.3,0.7-0.4c0.2-0.1,0.4-0.1,0.5,0c0.1,0,0.2,0.2,0.4,0.5
			c0.2,0.3,0.4,0.6,0.7,1c0.2-0.4,0.4-0.8,0.5-1.2C284.4,199.3,284.6,198.8,284.8,198.3z"/>
		<path class="st9" d="M295,186.6c-0.1-0.2-0.1-0.3,0-0.4c0.1-0.1,0.2-0.1,0.3-0.2c0.1,0,0.2,0,0.3,0c0.1,0,0.2,0.1,0.2,0.1
			c0.1,0.3,0.3,0.6,0.5,1.1s0.4,1,0.6,1.6s0.4,1.2,0.6,1.9s0.3,1.4,0.5,2c0.1,0.7,0.2,1.3,0.2,1.9c0,0.6-0.1,1.2-0.2,1.6
			c0,0.1,0,0.1-0.1,0.2c-0.1,0.2-0.2,0.4-0.4,0.8c-0.2,0.4-0.4,0.7-0.7,1.1c-0.3,0.4-0.5,0.6-0.8,0.8s-0.6,0.2-0.8,0.1
			c-0.1,0-0.1-0.1-0.2-0.2c-0.1-0.1-0.2-0.2-0.2-0.3c0.1,0.4,0.2,0.9,0.2,1.3c0.1,0.4,0.1,0.8,0.2,1.2c0,0.4,0,0.7,0,1
			s-0.1,0.5-0.1,0.7c-0.2,0.4-0.4,0.8-0.8,1.2c-0.3,0.4-0.7,0.8-1,1.1c-0.4,0.3-0.7,0.5-1.1,0.7c-0.4,0.1-0.7,0.1-0.9-0.1
			c-0.2-0.1-0.4-0.4-0.6-0.8c-0.2-0.4-0.5-0.9-0.8-1.5s-0.5-1.2-0.7-1.8s-0.4-1.3-0.6-1.9c-0.2-0.6-0.3-1.2-0.3-1.7s0-1,0.2-1.3
			c0.2-0.5,0.4-0.9,0.7-1.2c0.3-0.4,0.5-0.7,0.8-1s0.6-0.5,0.8-0.7c0.3-0.2,0.5-0.4,0.8-0.5c-0.4-0.6-0.6-0.9-0.8-1
			c-0.2-0.1-0.2-0.3-0.1-0.6s0.3-0.6,0.6-0.9c0.3-0.3,0.5-0.6,0.8-0.8s0.5-0.3,0.7-0.2c0.1,0.1,0.4,0.3,0.7,0.7
			c0.3,0.4,0.7,0.9,1.1,1.5s0.8,1.2,1.3,1.8c0.4,0.6,0.8,1.1,1,1.5c0.2,0.3,0.4,0.3,0.5,0c0.1-0.2,0.1-0.5,0.1-0.9s-0.1-0.9-0.2-1.4
			s-0.2-1.1-0.4-1.7c-0.2-0.6-0.3-1.2-0.5-1.8s-0.4-1.1-0.6-1.7C295.3,187.4,295.1,187,295,186.6z M293.9,202.5
			c0.1-0.2,0.1-0.4,0.1-0.8c0-0.4-0.1-0.8-0.2-1.3s-0.2-1-0.4-1.5c-0.1-0.5-0.3-1-0.5-1.6c-0.2-0.5-0.3-1-0.5-1.4s-0.3-0.8-0.4-1.1
			c-0.1-0.2-0.2-0.3-0.3-0.5c-0.1-0.2-0.2-0.3-0.3-0.5c-0.2,0.2-0.3,0.4-0.5,0.7s-0.3,0.6-0.5,0.9c-0.1,0.3-0.1,0.6,0,1.1
			s0.3,1,0.5,1.6s0.5,1.2,0.8,1.7c0.3,0.6,0.6,1.1,0.8,1.5c0.3,0.4,0.5,0.8,0.7,1C293.7,202.7,293.8,202.7,293.9,202.5z"/>
		<path class="st9" d="M297.9,175.1c-0.1-0.2-0.1-0.3-0.1-0.4c0.1-0.1,0.1-0.2,0.2-0.2s0.2,0,0.3,0c0.1,0,0.2,0.1,0.2,0.1
			c0.1,0.2,0.3,0.6,0.6,1c0.3,0.4,0.6,0.9,0.8,1.5c0.3,0.6,0.6,1.2,0.9,1.8c0.3,0.7,0.6,1.3,0.8,2c0.2,0.7,0.4,1.3,0.5,1.9
			c0.1,0.6,0.1,1.2,0,1.7c0,0,0,0,0,0.1v0.1c0,0.2-0.1,0.5-0.3,0.9c-0.2,0.4-0.3,0.8-0.6,1.2c-0.2,0.4-0.5,0.7-0.7,1
			c-0.3,0.3-0.5,0.3-0.8,0.2s-0.6-0.4-0.9-0.9s-0.6-0.9-0.9-1.4s-0.6-0.9-0.9-1.3c-0.3-0.4-0.5-0.6-0.6-0.7
			c-0.2-0.1-0.4-0.1-0.6,0.1c-0.2,0.2-0.4,0.4-0.7,0.8c0.2,0.3,0.3,0.7,0.4,1s0.2,0.6,0.3,0.8c0,0.1,0,0.2,0,0.2
			c-0.1,0.1-0.1,0.2-0.2,0.2c-0.1,0.1-0.2,0.1-0.3,0.1c-0.1,0-0.1,0-0.2-0.1c-0.1-0.2-0.1-0.4-0.3-0.6c-0.1-0.2-0.2-0.5-0.3-0.8
			c-0.2,0.3-0.5,0.6-0.7,0.8c-0.3,0.3-0.5,0.5-0.8,0.7s-0.6,0.3-0.9,0.3s-0.6,0-0.9-0.2c-0.4-0.2-0.7-0.6-1-1.1
			c-0.2-0.5-0.4-1.1-0.5-1.7c-0.1-0.6-0.2-1.2-0.2-1.8s0.1-1.1,0.2-1.4c0.1-0.4,0.3-0.7,0.6-0.9c0.3-0.2,0.8-0.2,1.3,0.1
			c0.5,0.2,0.9,0.6,1.4,1.1c0.4,0.5,0.8,1.1,1.2,1.7c0.3-0.3,0.5-0.7,0.8-1.1c0.3-0.4,0.5-0.8,0.8-1.1c0.2-0.3,0.5-0.6,0.8-0.8
			s0.5-0.2,0.8-0.1c0.1,0.1,0.3,0.2,0.6,0.5c0.3,0.3,0.6,0.6,1,1s0.7,0.8,1.1,1.2s0.7,0.8,0.9,1.1c0.2,0.3,0.4,0.2,0.5,0
			s0-0.5,0-0.9c-0.1-0.4-0.2-0.8-0.4-1.3c-0.2-0.5-0.4-1-0.7-1.6c-0.3-0.6-0.5-1.1-0.8-1.7c-0.3-0.6-0.6-1.1-0.8-1.6
			C298.3,175.9,298.1,175.5,297.9,175.1z M292,183.7c0.3,0.1,0.5,0.2,0.8,0.1c0.2,0,0.5-0.2,0.7-0.3c-0.3-0.6-0.7-1.1-1.1-1.5
			s-0.8-0.8-1.1-0.9c-0.3-0.2-0.6-0.2-0.7-0.1c-0.1,0.1-0.2,0.2-0.3,0.4c0,0.2,0,0.4,0.1,0.6c0.1,0.2,0.2,0.5,0.4,0.7
			c0.2,0.2,0.4,0.5,0.6,0.7C291.6,183.4,291.8,183.6,292,183.7z"/>
	</g>
</g>
<g>
	<path class="st8" d="M322.1,151.6c0,8-0.7,16-2.2,23.8c-1.4,7.9-3.7,15.6-6.6,23.1s-6.6,14.7-10.9,21.5s-9.3,13.2-14.9,19.1
		c-5.6,5.8-11.8,11.2-18.5,15.8c-1.7,1.1-3.4,2.3-5.1,3.3c-1.8,1-3.5,2.1-5.3,3.1c-1.8,0.9-3.6,1.9-5.4,2.8
		c-1.9,0.8-3.7,1.7-5.6,2.5c-15,6.4-31.4,9.5-47.6,9.3c-16.3-0.2-32.4-3.7-47.2-10.2c-7.4-3.2-14.5-7.2-21.1-11.8
		c-6.6-4.6-12.8-9.8-18.5-15.5c-11.3-11.4-20.4-25-26.7-39.8c-0.7-1.9-1.5-3.7-2.2-5.6c-0.6-1.9-1.4-3.8-1.9-5.7
		c-0.6-1.9-1.2-3.8-1.7-5.8s-1-3.9-1.4-5.9c-1.7-7.9-2.6-15.9-2.7-24c-0.2-16.1,2.6-32.4,8.7-47.5c6-15.1,15.1-29,26.6-40.6
		s25.2-21,40.3-27.3c15.1-6.4,31.5-9.6,47.8-9.6c16.3,0.1,32.7,3.3,47.7,9.8c1.9,0.8,3.7,1.7,5.6,2.5c1.8,0.9,3.6,1.9,5.4,2.8
		c1.8,1,3.5,2.1,5.3,3.1c1.7,1.1,3.4,2.2,5.1,3.4c6.7,4.6,12.9,10,18.4,15.9c5.6,5.9,10.6,12.3,14.9,19.1c4.3,6.8,8,14,10.9,21.5
		s5.2,15.2,6.6,23.1C321.4,135.6,322.1,143.6,322.1,151.6z M321.5,151.6c-0.1-8-0.8-15.9-2.5-23.7s-4-15.4-7.2-22.6
		c-6.3-14.5-15.7-27.6-27.1-38.4c-5.7-5.4-11.9-10.2-18.5-14.4c-1.7-1-3.3-2.1-5-3s-3.4-1.9-5.1-2.8c-1.8-0.9-3.5-1.8-5.2-2.6
		c-1.8-0.8-3.5-1.6-5.4-2.3c-7.2-2.9-14.7-5.1-22.3-6.6S207.8,33,200,33s-15.5,0.8-23.1,2.3s-15.1,3.8-22.3,6.7
		c-14.4,5.8-27.6,14.6-38.7,25.5c-11.1,11-20.1,24-26.2,38.4c-3.1,7.2-5.4,14.7-7.1,22.3c-1.7,7.7-2.6,15.5-2.7,23.4
		c-0.2,15.7,2.6,31.6,8.6,46.2c5.9,14.7,14.9,28.1,26.2,39.2c5.6,5.5,11.8,10.5,18.5,14.8c6.6,4.3,13.7,7.9,21,10.7
		c14.6,5.8,30.3,8.5,46,8.3c7.8-0.1,15.6-1,23.2-2.5c7.6-1.5,15.1-3.8,22.4-6.7c1.8-0.7,3.6-1.6,5.4-2.3c1.8-0.8,3.5-1.7,5.2-2.6
		c1.7-0.9,3.4-1.9,5.1-2.8c1.7-1,3.3-2,5-3.1c6.5-4.3,12.8-9.1,18.4-14.5c11.3-10.8,20.7-23.9,27-38.5c3.2-7.2,5.6-14.9,7.2-22.6
		C320.7,167.5,321.4,159.6,321.5,151.6z"/>
</g>
<g>
	<path d="M254,147.2l-0.5-1.2h-2l-0.5,1.2h-0.6l1.8-4h0.7l1.8,4H254z M253.2,145.5l-0.8-1.8l-0.8,1.8H253.2z"/>
	<path d="M256.1,146.6l1-2.3h0.6l-1.3,2.9h-0.6l-1.3-2.9h0.6L256.1,146.6z"/>
	<path d="M261.3,145.9h-2.7c0,0.3,0.1,0.5,0.4,0.7c0.2,0.2,0.4,0.2,0.7,0.2c0.5,0,0.8-0.2,0.9-0.5h0.6c-0.1,0.3-0.3,0.6-0.6,0.8
		c-0.3,0.2-0.6,0.2-0.9,0.2c-0.5,0-1-0.2-1.3-0.5s-0.4-0.7-0.4-1.1s0.1-0.8,0.4-1.1s0.7-0.5,1.3-0.5c0.4,0,0.8,0.1,1.1,0.4
		C261.1,144.8,261.3,145.3,261.3,145.9L261.3,145.9z M258.6,145.5h2.1c0-0.3-0.2-0.5-0.3-0.6c-0.2-0.1-0.4-0.2-0.7-0.2
		c-0.3,0-0.5,0.1-0.7,0.2C258.7,145,258.6,145.2,258.6,145.5z"/>
	<path d="M263.8,147.2v-4h2.1c0.9,0,1.3,0.4,1.3,1.1c0,0.4-0.1,0.7-0.3,0.9c-0.2,0.2-0.5,0.3-1,0.3h-1.5v1.6L263.8,147.2
		L263.8,147.2z M264.4,145.1h1.4c0.5,0,0.8-0.2,0.8-0.7c0-0.2-0.1-0.4-0.2-0.5s-0.3-0.2-0.5-0.2h-1.5L264.4,145.1L264.4,145.1z"/>
	<path d="M267.7,147.2v-2.9h0.6v0.5c0.2-0.4,0.6-0.6,1-0.6c0.1,0,0.2,0,0.3,0v0.6c-0.2,0-0.3-0.1-0.4-0.1c-0.3,0-0.5,0.1-0.7,0.2
		c-0.2,0.2-0.3,0.4-0.3,0.7v1.5h-0.5V147.2z"/>
	<path d="M270,143.8v-0.6h0.6v0.6H270z M270,147.2v-2.9h0.6v2.9H270z"/>
	<path d="M271.1,146.3h0.6c0,0.2,0.1,0.3,0.2,0.4c0.2,0.1,0.4,0.2,0.7,0.2c0.6,0,0.9-0.2,0.9-0.5c0-0.1,0-0.2-0.1-0.3
		s-0.2-0.1-0.4-0.1l-0.9-0.1c-0.2,0-0.4-0.1-0.6-0.2c-0.2-0.1-0.2-0.3-0.2-0.5c0-0.3,0.1-0.5,0.4-0.7c0.2-0.2,0.6-0.3,1-0.3
		c0.9,0,1.4,0.3,1.4,1h-0.6c0-0.2-0.1-0.3-0.2-0.4c-0.2-0.1-0.4-0.2-0.7-0.2c-0.5,0-0.8,0.1-0.8,0.4c0,0.1,0,0.2,0.1,0.2
		c0.1,0.1,0.2,0.1,0.4,0.1l0.8,0.1c0.7,0.1,1,0.3,1,0.8c0,0.3-0.1,0.6-0.4,0.8s-0.6,0.3-1.1,0.3C271.7,147.3,271.2,147,271.1,146.3z
		"/>
	<path d="M277,146.1h0.6c-0.1,0.4-0.3,0.7-0.6,0.9c-0.2,0.2-0.6,0.3-1,0.3c-0.5,0-1-0.2-1.2-0.5s-0.4-0.6-0.4-1.1s0.1-0.8,0.4-1.1
		s0.7-0.5,1.2-0.5c0.4,0,0.7,0.1,1,0.3s0.5,0.5,0.5,0.8H277c-0.1-0.4-0.4-0.6-0.9-0.6c-0.3,0-0.6,0.1-0.8,0.3
		c-0.2,0.2-0.3,0.5-0.3,0.8s0.1,0.6,0.3,0.8c0.2,0.2,0.4,0.3,0.8,0.3C276.6,146.8,276.9,146.6,277,146.1z"/>
	<path d="M278.1,143.8v-0.6h0.6v0.6H278.1z M278.1,147.2v-2.9h0.6v2.9H278.1z"/>
	<path d="M279.4,147.2v-4h0.6v4H279.4z"/>
	<path d="M280.6,143.8v-0.6h0.6v0.6H280.6z M280.6,147.2v-2.9h0.6v2.9H280.6z"/>
	<path d="M282.4,145.2h-0.5c0.1-0.7,0.6-1,1.5-1c0.4,0,0.7,0.1,0.9,0.2c0.3,0.1,0.4,0.4,0.4,0.7v1.6c0,0.2,0.1,0.3,0.3,0.3
		c0.1,0,0.1,0,0.2,0v0.4c-0.1,0-0.3,0-0.4,0c-0.3,0-0.5-0.1-0.5-0.4c-0.1,0.1-0.3,0.3-0.5,0.4c-0.2,0.1-0.5,0.1-0.7,0.1
		c-0.4,0-0.8-0.1-1-0.3c-0.2-0.1-0.2-0.3-0.2-0.6s0.1-0.5,0.3-0.6c0.2-0.1,0.5-0.2,1-0.3l0.6-0.1c0.2,0,0.3,0,0.4-0.1
		s0.1-0.1,0.1-0.3c0-0.3-0.3-0.5-0.8-0.5C282.7,144.6,282.4,144.8,282.4,145.2z M284.1,146v-0.4c-0.1,0.1-0.3,0.1-0.5,0.2l-0.6,0.1
		c-0.2,0-0.4,0.1-0.5,0.2c-0.1,0.1-0.2,0.2-0.2,0.3s0.1,0.3,0.2,0.3c0.1,0.1,0.3,0.1,0.5,0.1c0.3,0,0.6-0.1,0.8-0.2
		C284,146.5,284.1,146.3,284.1,146z"/>
	<path d="M285.5,147.2v-2.9h0.6v0.4c0.2-0.4,0.6-0.5,1.2-0.5c0.4,0,0.7,0.1,0.9,0.2c0.2,0.2,0.4,0.4,0.4,0.8v2H288v-1.9
		c0-0.5-0.3-0.7-0.9-0.7c-0.3,0-0.5,0.1-0.7,0.2c-0.2,0.2-0.3,0.4-0.3,0.7v1.7H285.5z"/>
	<path d="M289,145.7c0-0.4,0.1-0.8,0.4-1.1s0.7-0.5,1.3-0.5c0.5,0,1,0.2,1.3,0.5s0.4,0.7,0.4,1.1s-0.1,0.8-0.4,1.1s-0.7,0.5-1.3,0.5
		c-0.5,0-1-0.2-1.3-0.5C289.2,146.5,289,146.2,289,145.7z M291.8,145.7c0-0.3-0.1-0.6-0.3-0.8c-0.2-0.2-0.5-0.3-0.9-0.3
		s-0.7,0.1-0.9,0.3c-0.2,0.2-0.3,0.4-0.3,0.8s0.1,0.6,0.3,0.8c0.2,0.2,0.5,0.3,0.9,0.3s0.7-0.1,0.9-0.3
		C291.7,146.3,291.8,146,291.8,145.7z"/>
	<path d="M294.6,145.9h0.6c0,0.3,0.1,0.6,0.4,0.7c0.2,0.1,0.5,0.2,0.9,0.2c0.3,0,0.6-0.1,0.8-0.2c0.2-0.1,0.3-0.3,0.3-0.5
		c0-0.3-0.2-0.5-0.7-0.6l-0.9-0.2c-0.8-0.1-1.2-0.5-1.2-1c0-0.4,0.1-0.7,0.4-0.9s0.7-0.3,1.2-0.3s0.8,0.1,1.1,0.3
		c0.4,0.2,0.5,0.5,0.6,1h-0.6c-0.1-0.5-0.5-0.7-1.2-0.7c-0.3,0-0.5,0.1-0.6,0.2c-0.2,0.1-0.3,0.3-0.3,0.5c0,0.3,0.2,0.5,0.7,0.5
		l1,0.2c0.8,0.1,1.2,0.5,1.2,1s-0.2,0.8-0.6,1c-0.3,0.2-0.7,0.3-1.2,0.3s-0.9-0.1-1.3-0.3C294.8,146.8,294.6,146.4,294.6,145.9z"/>
	<path d="M299.1,145.2h-0.5c0.1-0.7,0.6-1,1.5-1c0.4,0,0.7,0.1,0.9,0.2c0.3,0.1,0.4,0.4,0.4,0.7v1.6c0,0.2,0.1,0.3,0.3,0.3
		c0.1,0,0.1,0,0.2,0v0.4c-0.1,0-0.3,0-0.4,0c-0.3,0-0.5-0.1-0.5-0.4c-0.1,0.1-0.3,0.3-0.5,0.4c-0.2,0.1-0.5,0.1-0.7,0.1
		c-0.4,0-0.8-0.1-1-0.3c-0.2-0.1-0.2-0.3-0.2-0.6s0.1-0.5,0.3-0.6c0.2-0.1,0.5-0.2,1-0.3l0.6-0.1c0.2,0,0.3,0,0.4-0.1
		s0.1-0.1,0.1-0.3c0-0.3-0.3-0.5-0.8-0.5C299.4,144.6,299.1,144.8,299.1,145.2z M300.9,146v-0.4c-0.1,0.1-0.3,0.1-0.5,0.2l-0.6,0.1
		c-0.2,0-0.4,0.1-0.5,0.2c-0.1,0.1-0.2,0.2-0.2,0.3s0.1,0.3,0.2,0.3c0.1,0.1,0.3,0.1,0.5,0.1c0.3,0,0.6-0.1,0.8-0.2
		C300.8,146.5,300.9,146.3,300.9,146z M299.7,143.9l0.5-0.8h0.7l-0.7,0.8H299.7z"/>
	<path d="M302.2,147.2v-2.9h0.6v0.4c0.2-0.4,0.6-0.5,1.2-0.5c0.4,0,0.7,0.1,0.9,0.2c0.2,0.2,0.4,0.4,0.4,0.8v2h-0.6v-1.9
		c0-0.5-0.3-0.7-0.9-0.7c-0.3,0-0.5,0.1-0.7,0.2c-0.2,0.2-0.3,0.4-0.3,0.7v1.7H302.2z"/>
	<path d="M308.3,146.1h0.6c-0.1,0.4-0.3,0.7-0.6,0.9c-0.2,0.2-0.6,0.3-1,0.3c-0.5,0-1-0.2-1.2-0.5s-0.4-0.6-0.4-1.1s0.1-0.8,0.4-1.1
		s0.7-0.5,1.2-0.5c0.4,0,0.7,0.1,1,0.3s0.5,0.5,0.5,0.8h-0.6c-0.1-0.4-0.4-0.6-0.9-0.6c-0.3,0-0.6,0.1-0.8,0.3
		c-0.2,0.2-0.3,0.5-0.3,0.8s0.1,0.6,0.3,0.8c0.2,0.2,0.4,0.3,0.8,0.3C307.9,146.8,308.2,146.6,308.3,146.1z"/>
	<path d="M309.4,147.2v-4h0.6v1.5c0.2-0.4,0.6-0.5,1.2-0.5c0.4,0,0.7,0.1,0.9,0.2c0.2,0.2,0.4,0.4,0.4,0.8v2h-0.6v-1.9
		c0-0.5-0.3-0.7-0.9-0.7c-0.3,0-0.5,0.1-0.7,0.2c-0.2,0.2-0.3,0.4-0.3,0.7v1.7H309.4z"/>
	<path d="M316.2,145.9h-2.7c0,0.3,0.1,0.5,0.4,0.7c0.2,0.2,0.4,0.2,0.7,0.2c0.5,0,0.8-0.2,0.9-0.5h0.6c-0.1,0.3-0.3,0.6-0.6,0.8
		c-0.3,0.2-0.6,0.2-0.9,0.2c-0.5,0-1-0.2-1.3-0.5s-0.4-0.7-0.4-1.1s0.1-0.8,0.4-1.1s0.7-0.5,1.3-0.5c0.4,0,0.8,0.1,1.1,0.4
		C316,144.8,316.2,145.3,316.2,145.9L316.2,145.9z M313.5,145.5h2.1c0-0.3-0.2-0.5-0.3-0.6c-0.2-0.1-0.4-0.2-0.7-0.2
		c-0.3,0-0.5,0.1-0.7,0.2C313.7,145,313.6,145.2,313.5,145.5z"/>
	<path d="M316.6,147.2v-0.5l2.2-2h-2.1v-0.5h2.8v0.4l-2.2,2h2.3v0.5h-3V147.2z"/>
	<path d="M256,153.9v-4h3.2v0.5h-2.6v1.2h2.5v0.5h-2.5v1.3h2.7v0.5H256z"/>
	<path d="M262.5,153.9v-0.4c-0.1,0.1-0.3,0.3-0.5,0.4c-0.2,0.1-0.4,0.1-0.7,0.1c-0.5,0-0.8-0.1-1.1-0.4c-0.3-0.3-0.5-0.7-0.5-1.1
		c0-0.5,0.2-0.9,0.5-1.1c0.3-0.3,0.7-0.4,1.1-0.4c0.2,0,0.4,0,0.7,0.1c0.2,0.1,0.4,0.2,0.5,0.4V150h0.6v4h-0.6V153.9z M260.4,152.5
		c0,0.3,0.1,0.6,0.3,0.8c0.2,0.2,0.5,0.3,0.8,0.3c0.4,0,0.6-0.1,0.8-0.3c0.2-0.2,0.3-0.4,0.3-0.8c0-0.3-0.1-0.6-0.3-0.8
		c-0.2-0.2-0.5-0.3-0.8-0.3s-0.6,0.1-0.8,0.3S260.4,152.1,260.4,152.5z"/>
	<path d="M263.7,150.5v-0.6h0.6v0.6H263.7z M263.7,153.9V151h0.6v2.9H263.7z"/>
	<path d="M265.2,151v-0.4c0-0.5,0.3-0.7,0.9-0.7c0,0,0.2,0,0.5,0v0.4c-0.1,0-0.2,0-0.3,0c-0.2,0-0.3,0-0.3,0c-0.1,0-0.2,0.1-0.2,0.3
		v0.4h0.8v0.4h-0.8v2.5h-0.6v-2.5h-0.6V151H265.2z"/>
	<path d="M266.9,150.5v-0.6h0.6v0.6H266.9z M266.9,153.9V151h0.6v2.9H266.9z"/>
	<path d="M270.5,152.8h0.6c-0.1,0.4-0.3,0.7-0.6,0.9c-0.2,0.2-0.6,0.3-1,0.3c-0.5,0-1-0.2-1.2-0.5s-0.4-0.6-0.4-1.1s0.1-0.8,0.4-1.1
		s0.7-0.5,1.2-0.5c0.4,0,0.7,0.1,1,0.3s0.5,0.5,0.5,0.8h-0.6c-0.1-0.4-0.4-0.6-0.9-0.6c-0.3,0-0.6,0.1-0.8,0.3
		c-0.2,0.2-0.3,0.5-0.3,0.8s0.1,0.6,0.3,0.8c0.2,0.2,0.4,0.3,0.8,0.3C270.1,153.6,270.4,153.3,270.5,152.8z"/>
	<path d="M271.6,150.5v-0.6h0.6v0.6H271.6z M271.6,153.9V151h0.6v2.9H271.6z"/>
	<path d="M272.8,152.5c0-0.4,0.1-0.8,0.4-1.1s0.7-0.5,1.3-0.5c0.5,0,1,0.2,1.3,0.5s0.4,0.7,0.4,1.1s-0.1,0.8-0.4,1.1
		s-0.7,0.5-1.3,0.5c-0.5,0-1-0.2-1.3-0.5S272.8,152.9,272.8,152.5z M275.6,152.5c0-0.3-0.1-0.6-0.3-0.8c-0.2-0.2-0.5-0.3-0.9-0.3
		s-0.7,0.1-0.9,0.3c-0.2,0.2-0.3,0.4-0.3,0.8c0,0.3,0.1,0.6,0.3,0.8c0.2,0.2,0.5,0.3,0.9,0.3s0.7-0.1,0.9-0.3
		C275.5,153,275.6,152.8,275.6,152.5z"/>
	<path d="M279.7,152.1v-0.5c0,0,0.2,0,0.4,0c0.5,0,0.8-0.2,0.8-0.6c0-0.2-0.1-0.4-0.3-0.5c-0.1-0.1-0.3-0.1-0.6-0.1
		c-0.6,0-0.9,0.3-0.9,0.8h-0.6c0-0.4,0.2-0.8,0.4-1c0.3-0.2,0.6-0.3,1-0.3c0.5,0,0.8,0.1,1.1,0.3c0.2,0.2,0.3,0.4,0.3,0.7
		c0,0.2,0,0.4-0.1,0.5c-0.1,0.2-0.3,0.3-0.4,0.3l0,0c0.2,0,0.4,0.1,0.5,0.3s0.2,0.4,0.2,0.6c0,0.4-0.1,0.7-0.4,0.9
		c-0.3,0.3-0.7,0.4-1.2,0.4c-1.1,0-1.7-0.4-1.7-1.3h0.6c0,0.6,0.4,0.9,1,0.9c0.3,0,0.6-0.1,0.7-0.2c0.2-0.1,0.3-0.3,0.3-0.5
		s-0.1-0.4-0.3-0.5C280.3,152.2,280.1,152.1,279.7,152.1c0,0-0.1,0-0.1,0L279.7,152.1z"/>
	<path d="M286.3,151.4h-0.6c0-0.3-0.2-0.5-0.4-0.7c-0.2-0.2-0.6-0.3-1-0.3c-0.5,0-0.9,0.1-1.1,0.4c-0.3,0.3-0.4,0.7-0.4,1.2
		c0,0.4,0.1,0.8,0.3,1.1c0.3,0.3,0.7,0.5,1.2,0.5c0.8,0,1.2-0.4,1.4-1.1h0.6c0,0.5-0.3,0.8-0.6,1.2c-0.4,0.3-0.8,0.5-1.4,0.5
		s-1.1-0.2-1.4-0.5c-0.4-0.4-0.7-0.9-0.7-1.6c0-0.6,0.2-1.1,0.5-1.5c0.4-0.4,0.9-0.6,1.6-0.6c0.5,0,0.9,0.1,1.3,0.3
		C286,150.4,286.3,150.8,286.3,151.4z"/>
	<path d="M288.9,153.9v-4h2c0.6,0,1,0.2,1.3,0.5s0.4,0.8,0.4,1.4c0,0.6-0.1,1.1-0.4,1.4c-0.3,0.4-0.7,0.6-1.3,0.6h-2V153.9z
		 M289.5,153.4h1.4c0.8,0,1.1-0.5,1.1-1.5s-0.4-1.4-1.3-1.4h-1.3L289.5,153.4L289.5,153.4z"/>
	<path d="M296.4,152.6h-2.7c0,0.3,0.1,0.5,0.4,0.7c0.2,0.2,0.4,0.2,0.7,0.2c0.5,0,0.8-0.2,0.9-0.5h0.6c-0.1,0.3-0.3,0.6-0.6,0.8
		c-0.3,0.2-0.6,0.2-0.9,0.2c-0.5,0-1-0.2-1.3-0.5s-0.4-0.7-0.4-1.1s0.1-0.8,0.4-1.1s0.7-0.5,1.3-0.5c0.4,0,0.8,0.1,1.1,0.4
		C296.3,151.6,296.4,152,296.4,152.6L296.4,152.6z M293.7,152.2h2.1c0-0.3-0.2-0.5-0.3-0.6c-0.2-0.1-0.4-0.2-0.7-0.2
		c-0.3,0-0.5,0.1-0.7,0.2C293.9,151.7,293.8,151.9,293.7,152.2z"/>
	<path d="M297,155.1V151h0.6v0.4c0.1-0.1,0.3-0.3,0.5-0.4c0.2-0.1,0.4-0.1,0.6-0.1c0.5,0,0.8,0.1,1.1,0.4c0.3,0.3,0.5,0.7,0.5,1.1
		c0,0.5-0.2,0.9-0.5,1.1c-0.3,0.3-0.7,0.4-1.1,0.4c-0.2,0-0.4,0-0.6-0.1s-0.4-0.2-0.5-0.4v1.5H297V155.1z M299.7,152.5
		c0-0.3-0.1-0.6-0.3-0.8c-0.2-0.2-0.5-0.3-0.8-0.3c-0.4,0-0.6,0.1-0.8,0.3c-0.2,0.2-0.3,0.4-0.3,0.8c0,0.3,0.1,0.6,0.3,0.8
		c0.2,0.2,0.5,0.3,0.8,0.3s0.6-0.1,0.8-0.3S299.7,152.8,299.7,152.5z"/>
	<path d="M301.1,151v-0.9h0.6v0.9h0.8v0.4h-0.8v1.8c0,0.2,0.2,0.3,0.5,0.3c0.1,0,0.2,0,0.4,0v0.5c-0.1,0-0.4,0-0.6,0
		c-0.5,0-0.8-0.2-0.8-0.7v-1.9h-0.6V151H301.1z"/>
	<path d="M302.8,152.5c0-0.4,0.1-0.8,0.4-1.1s0.7-0.5,1.3-0.5c0.5,0,1,0.2,1.3,0.5s0.4,0.7,0.4,1.1s-0.1,0.8-0.4,1.1
		s-0.7,0.5-1.3,0.5c-0.5,0-1-0.2-1.3-0.5S302.8,152.9,302.8,152.5z M305.6,152.5c0-0.3-0.1-0.6-0.3-0.8c-0.2-0.2-0.5-0.3-0.9-0.3
		s-0.7,0.1-0.9,0.3c-0.2,0.2-0.3,0.4-0.3,0.8c0,0.3,0.1,0.6,0.3,0.8c0.2,0.2,0.5,0.3,0.9,0.3s0.7-0.1,0.9-0.3
		C305.5,153,305.6,152.8,305.6,152.5z"/>
	<path d="M307,153.9v-0.7h0.7v0.7H307z"/>
	<path d="M309.4,153.9v-2.8h-1.2v-0.4h0.1c0.7,0,1.1-0.2,1.2-0.7h0.5v4h-0.6V153.9z"/>
	<path d="M311.6,151.3H311c0-0.4,0.1-0.8,0.4-1c0.3-0.3,0.7-0.4,1.2-0.4s0.9,0.1,1.1,0.4c0.2,0.2,0.4,0.5,0.4,0.9s-0.2,0.7-0.5,1
		c-0.1,0.1-0.5,0.3-1,0.6c-0.4,0.2-0.7,0.4-0.8,0.7h2.4v0.5H311c0-0.5,0.3-0.9,0.7-1.3c0.4-0.2,0.8-0.4,1.2-0.7
		c0.4-0.2,0.6-0.5,0.6-0.8s-0.1-0.5-0.3-0.6c-0.1-0.1-0.3-0.2-0.6-0.2C311.9,150.4,311.6,150.7,311.6,151.3z"/>
	<path d="M265.5,158.1H265c0-0.3-0.2-0.5-0.4-0.7c-0.2-0.2-0.6-0.3-1-0.3c-0.5,0-0.9,0.1-1.1,0.4c-0.3,0.3-0.4,0.7-0.4,1.2
		c0,0.4,0.1,0.8,0.3,1.1c0.3,0.3,0.7,0.5,1.2,0.5c0.8,0,1.2-0.4,1.4-1.1h0.6c0,0.5-0.3,0.8-0.6,1.2c-0.4,0.3-0.8,0.5-1.4,0.5
		s-1.1-0.2-1.4-0.5c-0.4-0.4-0.7-0.9-0.7-1.6c0-0.6,0.2-1.1,0.5-1.5c0.4-0.4,0.9-0.6,1.6-0.6c0.5,0,0.9,0.1,1.3,0.3
		C265.3,157.1,265.5,157.5,265.5,158.1z"/>
	<path d="M266,159.2c0-0.4,0.1-0.8,0.4-1.1s0.7-0.5,1.3-0.5c0.5,0,1,0.2,1.3,0.5s0.4,0.7,0.4,1.1s-0.1,0.8-0.4,1.1s-0.7,0.5-1.3,0.5
		c-0.5,0-1-0.2-1.3-0.5S266,159.6,266,159.2z M268.8,159.2c0-0.3-0.1-0.6-0.3-0.8c-0.2-0.2-0.5-0.3-0.9-0.3s-0.7,0.1-0.9,0.3
		c-0.2,0.2-0.3,0.4-0.3,0.8s0.1,0.6,0.3,0.8c0.2,0.2,0.5,0.3,0.9,0.3s0.7-0.1,0.9-0.3C268.7,159.7,268.8,159.5,268.8,159.2z"/>
	<path d="M270,160.7v-4h0.6v4H270z"/>
	<path d="M271.5,160.7V160h0.7v0.7H271.5z"/>
	<path d="M276.7,160l1.4-3.4h0.6l-1.8,4h-0.6l-1.8-4h0.7L276.7,160z"/>
	<path d="M279.3,158.6h-0.5c0.1-0.7,0.6-1,1.5-1c0.4,0,0.7,0.1,0.9,0.2c0.3,0.1,0.4,0.4,0.4,0.7v1.6c0,0.2,0.1,0.3,0.3,0.3
		c0.1,0,0.1,0,0.2,0v0.4c-0.1,0-0.3,0-0.4,0c-0.3,0-0.5-0.1-0.5-0.4c-0.1,0.1-0.3,0.3-0.5,0.4c-0.2,0.1-0.5,0.1-0.7,0.1
		c-0.4,0-0.8-0.1-1-0.3c-0.2-0.1-0.2-0.3-0.2-0.6s0.1-0.5,0.3-0.6c0.2-0.1,0.5-0.2,1-0.3l0.6-0.1c0.2,0,0.3,0,0.4-0.1
		s0.1-0.1,0.1-0.3c0-0.3-0.3-0.5-0.8-0.5C279.6,158.1,279.3,158.2,279.3,158.6z M281.1,159.5v-0.4c-0.1,0.1-0.3,0.1-0.5,0.2
		l-0.6,0.1c-0.2,0-0.4,0.1-0.5,0.2c-0.1,0.1-0.2,0.2-0.2,0.3s0.1,0.3,0.2,0.3c0.1,0.1,0.3,0.1,0.5,0.1c0.3,0,0.6-0.1,0.8-0.2
		C281,159.9,281.1,159.7,281.1,159.5z"/>
	<path d="M282.4,160.7v-4h0.6v4H282.4z"/>
	<path d="M283.7,160.7v-4h0.6v4H283.7z"/>
	<path d="M285.5,158.6H285c0.1-0.7,0.6-1,1.5-1c0.4,0,0.7,0.1,0.9,0.2c0.3,0.1,0.4,0.4,0.4,0.7v1.6c0,0.2,0.1,0.3,0.3,0.3
		c0.1,0,0.1,0,0.2,0v0.4c-0.1,0-0.3,0-0.4,0c-0.3,0-0.5-0.1-0.5-0.4c-0.1,0.1-0.3,0.3-0.5,0.4c-0.2,0.1-0.5,0.1-0.7,0.1
		c-0.4,0-0.8-0.1-1-0.3c-0.2-0.1-0.2-0.3-0.2-0.6s0.1-0.5,0.3-0.6c0.2-0.1,0.5-0.2,1-0.3l0.6-0.1c0.2,0,0.3,0,0.4-0.1
		s0.1-0.1,0.1-0.3c0-0.3-0.3-0.5-0.8-0.5C285.8,158.1,285.5,158.2,285.5,158.6z M287.2,159.5v-0.4c-0.1,0.1-0.3,0.1-0.5,0.2
		l-0.6,0.1c-0.2,0-0.4,0.1-0.5,0.2c-0.1,0.1-0.2,0.2-0.2,0.3s0.1,0.3,0.2,0.3c0.1,0.1,0.3,0.1,0.5,0.1c0.3,0,0.6-0.1,0.8-0.2
		C287.1,159.9,287.2,159.7,287.2,159.5z"/>
	<path d="M288.6,160.7v-2.9h0.6v0.5c0.2-0.4,0.6-0.6,1-0.6c0.1,0,0.2,0,0.3,0v0.6c-0.2,0-0.3-0.1-0.4-0.1c-0.3,0-0.5,0.1-0.7,0.2
		c-0.2,0.2-0.3,0.4-0.3,0.7v1.5h-0.5V160.7z"/>
	<path d="M291.1,157.7v-0.9h0.6v0.9h0.8v0.4h-0.8v1.8c0,0.2,0.2,0.3,0.5,0.3c0.1,0,0.2,0,0.4,0v0.5c-0.1,0-0.4,0-0.6,0
		c-0.5,0-0.8-0.2-0.8-0.7v-1.9h-0.6v-0.4L291.1,157.7L291.1,157.7z"/>
	<path d="M293.4,158.6h-0.5c0.1-0.7,0.6-1,1.5-1c0.4,0,0.7,0.1,0.9,0.2c0.3,0.1,0.4,0.4,0.4,0.7v1.6c0,0.2,0.1,0.3,0.3,0.3
		c0.1,0,0.1,0,0.2,0v0.4c-0.1,0-0.3,0-0.4,0c-0.3,0-0.5-0.1-0.5-0.4c-0.1,0.1-0.3,0.3-0.5,0.4c-0.2,0.1-0.5,0.1-0.7,0.1
		c-0.4,0-0.8-0.1-1-0.3c-0.2-0.1-0.2-0.3-0.2-0.6s0.1-0.5,0.3-0.6c0.2-0.1,0.5-0.2,1-0.3l0.6-0.1c0.2,0,0.3,0,0.4-0.1
		s0.1-0.1,0.1-0.3c0-0.3-0.3-0.5-0.8-0.5C293.8,158.1,293.5,158.2,293.4,158.6z M295.2,159.5v-0.4c-0.1,0.1-0.3,0.1-0.5,0.2
		l-0.6,0.1c-0.2,0-0.4,0.1-0.5,0.2c-0.1,0.1-0.2,0.2-0.2,0.3s0.1,0.3,0.2,0.3c0.1,0.1,0.3,0.1,0.5,0.1c0.3,0,0.6-0.1,0.8-0.2
		C295.1,159.9,295.2,159.7,295.2,159.5z"/>
	<path d="M298.2,157.3v-0.6h3v0.5c-0.4,0.6-0.8,1.1-1,1.6c-0.3,0.6-0.5,1.2-0.6,1.8H299c0.3-1.2,0.9-2.4,1.7-3.3H298.2z"/>
	<path d="M301.8,158.9l0.4-2.1h2.4v0.5h-2l-0.2,1.1c0.3-0.2,0.6-0.3,1-0.3s0.7,0.1,1,0.3s0.5,0.6,0.5,1s-0.1,0.8-0.4,1
		c-0.3,0.3-0.7,0.4-1.2,0.4c-0.4,0-0.8-0.1-1.1-0.3c-0.3-0.2-0.4-0.5-0.4-0.8h0.6c0.1,0.2,0.2,0.4,0.3,0.5s0.4,0.2,0.7,0.2
		c0.7,0,1-0.3,1-0.9c0-0.3-0.1-0.5-0.3-0.7c-0.2-0.1-0.4-0.2-0.7-0.2c-0.4,0-0.7,0.1-0.9,0.4L301.8,158.9z"/>
	<path d="M305.4,158.7c0-1.4,0.5-2,1.6-2s1.6,0.7,1.6,2c0,1.4-0.5,2-1.6,2S305.4,160.1,305.4,158.7z M308.1,158.7c0-1-0.3-1.6-1-1.6
		s-1,0.5-1,1.6c0,1,0.3,1.6,1,1.6C307.7,160.3,308.1,159.7,308.1,158.7z"/>
	<path d="M273.9,164.8h-0.6c0-0.3-0.2-0.5-0.4-0.7c-0.2-0.2-0.6-0.3-1-0.3c-0.5,0-0.9,0.1-1.1,0.4c-0.3,0.3-0.4,0.7-0.4,1.2
		c0,0.4,0.1,0.8,0.3,1.1c0.3,0.3,0.7,0.5,1.2,0.5c0.8,0,1.2-0.4,1.4-1.1h0.6c0,0.5-0.3,0.8-0.6,1.2c-0.4,0.3-0.8,0.5-1.4,0.5
		s-1.1-0.2-1.4-0.5c-0.4-0.4-0.7-0.9-0.7-1.6c0-0.6,0.2-1.1,0.5-1.5c0.4-0.4,0.9-0.6,1.6-0.6c0.5,0,0.9,0.1,1.3,0.3
		C273.6,163.9,273.8,164.3,273.9,164.8z"/>
	<path d="M274.7,167.4v-0.7h0.7v0.7H274.7z"/>
	<path d="M276.5,167.4v-4h2.1c0.9,0,1.3,0.4,1.3,1.1c0,0.4-0.1,0.7-0.3,0.9c-0.2,0.2-0.5,0.3-1,0.3h-1.5v1.6L276.5,167.4
		L276.5,167.4z M277.1,165.3h1.4c0.5,0,0.8-0.2,0.8-0.7c0-0.2-0.1-0.4-0.2-0.5s-0.3-0.2-0.5-0.2h-1.5L277.1,165.3L277.1,165.3z"/>
	<path d="M279.9,167.4v-0.7h0.7v0.7H279.9z"/>
	<path d="M285.3,167.4v-0.9h-2V166l2.1-2.5h0.5v2.6h0.7v0.5h-0.7v0.9h-0.6V167.4z M285.3,166v-1.8l-1.5,1.8H285.3z"/>
	<path d="M287.1,166.2c0-0.3,0.1-0.5,0.3-0.7c0.2-0.1,0.3-0.2,0.5-0.3l0,0c-0.4-0.2-0.6-0.4-0.6-0.8c0-0.3,0.1-0.6,0.4-0.8
		s0.6-0.3,1.1-0.3s0.8,0.1,1.1,0.3c0.3,0.2,0.4,0.4,0.4,0.8c0,0.4-0.2,0.7-0.6,0.8l0,0c0.2,0,0.4,0.1,0.6,0.3
		c0.1,0.2,0.2,0.4,0.2,0.7s-0.1,0.6-0.3,0.8c-0.3,0.3-0.7,0.4-1.3,0.4s-1-0.1-1.3-0.4C287.2,166.8,287.1,166.5,287.1,166.2z
		 M289.7,166.3c0-0.2-0.1-0.4-0.2-0.5c-0.2-0.1-0.4-0.2-0.8-0.2s-0.6,0.1-0.8,0.2c-0.2,0.1-0.2,0.3-0.2,0.5s0.1,0.4,0.2,0.5
		c0.2,0.1,0.4,0.2,0.8,0.2s0.6-0.1,0.8-0.2C289.6,166.6,289.7,166.5,289.7,166.3z M289.5,164.5c0-0.2-0.1-0.3-0.2-0.4
		c-0.2-0.1-0.4-0.2-0.6-0.2s-0.5,0.1-0.6,0.2c-0.1,0.1-0.2,0.2-0.2,0.4s0.1,0.3,0.2,0.4c0.2,0.1,0.4,0.2,0.6,0.2s0.5-0.1,0.6-0.2
		C289.5,164.7,289.5,164.6,289.5,164.5z"/>
	<path d="M292,165.6v-0.5c0,0,0.2,0,0.4,0c0.5,0,0.8-0.2,0.8-0.6c0-0.2-0.1-0.4-0.3-0.5c-0.1-0.1-0.3-0.1-0.6-0.1
		c-0.6,0-0.9,0.3-0.9,0.8h-0.6c0-0.4,0.2-0.8,0.4-1c0.3-0.2,0.6-0.3,1-0.3c0.5,0,0.8,0.1,1.1,0.3c0.2,0.2,0.3,0.4,0.3,0.7
		c0,0.2,0,0.4-0.1,0.5c-0.1,0.2-0.3,0.3-0.4,0.3l0,0c0.2,0,0.4,0.1,0.5,0.3s0.2,0.4,0.2,0.6c0,0.4-0.1,0.7-0.4,0.9
		c-0.3,0.3-0.7,0.4-1.2,0.4c-1.1,0-1.7-0.4-1.7-1.3h0.6c0,0.6,0.4,0.9,1,0.9c0.3,0,0.6-0.1,0.7-0.2c0.2-0.1,0.3-0.3,0.3-0.5
		s-0.1-0.4-0.3-0.5C292.6,165.7,292.4,165.6,292,165.6c0,0-0.1,0-0.1,0C292.1,165.6,292,165.6,292,165.6z"/>
	<path d="M295.4,167.4v-2.8h-1.2v-0.4h0.1c0.7,0,1.1-0.2,1.2-0.7h0.5v4h-0.6V167.4z"/>
	<path d="M299.1,167.4v-0.9h-2V166l2.1-2.5h0.5v2.6h0.7v0.5h-0.7v0.9h-0.6V167.4z M299.1,166v-1.8l-1.5,1.8H299.1z"/>
</g>
<g>
	<path d="M96.5,149.3v-4h-1.7v-0.6h4.1v0.6h-1.7v4H96.5z"/>
	<path d="M102.5,147.8h-3.1c0,0.3,0.2,0.6,0.4,0.8c0.2,0.2,0.5,0.3,0.8,0.3c0.5,0,0.9-0.2,1.1-0.6h0.7c-0.2,0.4-0.4,0.7-0.7,0.9
		c-0.3,0.2-0.6,0.3-1,0.3c-0.6,0-1.1-0.2-1.5-0.5c-0.3-0.3-0.5-0.8-0.5-1.3s0.2-0.9,0.5-1.3c0.4-0.4,0.8-0.5,1.5-0.5
		c0.5,0,0.9,0.1,1.2,0.4C102.3,146.6,102.5,147.1,102.5,147.8L102.5,147.8z M99.4,147.3h2.4c0-0.3-0.2-0.5-0.4-0.7s-0.5-0.3-0.8-0.3
		s-0.6,0.1-0.8,0.3C99.6,146.8,99.5,147.1,99.4,147.3z"/>
	<path d="M103.1,149.3v-4.6h0.6v4.6H103.1z"/>
	<path d="M104.8,149.3v-0.7h0.8v0.7H104.8z"/>
	<path d="M110.1,147.2v-0.5c0.1,0,0.2,0,0.4,0c0.6,0,0.9-0.2,0.9-0.7c0-0.3-0.1-0.5-0.3-0.6c-0.2-0.1-0.4-0.2-0.7-0.2
		c-0.6,0-1,0.3-1,0.9h-0.6c0-0.5,0.2-0.9,0.5-1.1c0.3-0.2,0.7-0.4,1.2-0.4s1,0.1,1.2,0.4c0.3,0.2,0.4,0.5,0.4,0.8
		c0,0.2-0.1,0.4-0.2,0.6c-0.1,0.2-0.3,0.3-0.5,0.3l0,0c0.3,0,0.5,0.2,0.6,0.4c0.2,0.2,0.2,0.4,0.2,0.7c0,0.4-0.1,0.7-0.4,1
		s-0.8,0.4-1.3,0.4c-1.3,0-1.9-0.5-1.9-1.5h0.6c0,0.6,0.4,1,1.2,1c0.4,0,0.6-0.1,0.8-0.2c0.2-0.2,0.3-0.4,0.3-0.6
		c0-0.3-0.1-0.4-0.3-0.6c-0.2-0.1-0.5-0.2-0.8-0.2c-0.1,0-0.2,0-0.3,0C110.1,147.2,110.1,147.2,110.1,147.2z"/>
	<path d="M113.7,146.4H113c0-0.5,0.1-0.9,0.4-1.2s0.7-0.4,1.3-0.4c0.6,0,1,0.1,1.3,0.4c0.3,0.3,0.4,0.6,0.4,1c0,0.5-0.2,0.8-0.6,1.1
		c-0.1,0.1-0.5,0.3-1.2,0.6c-0.5,0.2-0.8,0.5-0.9,0.8h2.7v0.6h-3.5c0-0.6,0.3-1.1,0.8-1.4c0.4-0.3,0.9-0.5,1.3-0.8
		c0.5-0.3,0.7-0.6,0.7-0.9c0-0.3-0.1-0.5-0.3-0.7c-0.2-0.1-0.4-0.2-0.7-0.2C114.1,145.3,113.7,145.7,113.7,146.4z"/>
	<path d="M117.9,146.4h-0.6c0-0.5,0.1-0.9,0.4-1.2s0.7-0.4,1.3-0.4c0.6,0,1,0.1,1.3,0.4c0.3,0.3,0.4,0.6,0.4,1
		c0,0.5-0.2,0.8-0.6,1.1c-0.1,0.1-0.5,0.3-1.2,0.6c-0.5,0.2-0.8,0.5-0.9,0.8h2.7v0.6h-3.5c0-0.6,0.3-1.1,0.8-1.4
		c0.4-0.3,0.9-0.5,1.3-0.8c0.5-0.3,0.7-0.6,0.7-0.9c0-0.3-0.1-0.5-0.3-0.7c-0.2-0.1-0.4-0.2-0.7-0.2
		C118.4,145.3,118,145.7,117.9,146.4z"/>
	<path d="M122.6,149.3v-3.2h-1.3v-0.5h0.2c0.8,0,1.3-0.3,1.3-0.8h0.5v4.6h-0.7V149.3z"/>
	<path d="M124.2,147.3l0.4-2.4h2.7v0.6H125l-0.2,1.2c0.3-0.2,0.7-0.3,1.1-0.3c0.5,0,0.8,0.1,1.1,0.3c0.4,0.3,0.6,0.7,0.6,1.2
		s-0.2,0.9-0.5,1.2s-0.8,0.4-1.4,0.4c-0.5,0-0.9-0.1-1.2-0.4c-0.3-0.2-0.5-0.6-0.5-0.9h0.7c0.1,0.3,0.2,0.5,0.4,0.6
		c0.2,0.1,0.4,0.2,0.8,0.2c0.8,0,1.1-0.3,1.1-1c0-0.3-0.1-0.6-0.3-0.7c-0.2-0.2-0.5-0.2-0.8-0.2c-0.5,0-0.8,0.1-1.1,0.4L124.2,147.3
		z"/>
	<path d="M128.5,148.3h0.6c0,0.2,0.1,0.3,0.3,0.5c0.2,0.1,0.4,0.2,0.6,0.2c0.4,0,0.7-0.1,0.9-0.3c0.3-0.3,0.4-0.7,0.4-1.3
		c-0.1,0.2-0.3,0.3-0.5,0.4c-0.3,0.1-0.5,0.2-0.8,0.2c-0.5,0-0.8-0.1-1.2-0.3c-0.4-0.3-0.6-0.7-0.6-1.2c0-0.4,0.1-0.7,0.4-1
		c0.3-0.3,0.8-0.5,1.4-0.5c1.3,0,1.9,0.7,1.9,2.2c0,1.6-0.7,2.4-2,2.4c-0.3,0-0.6-0.1-0.9-0.2C128.7,149,128.5,148.7,128.5,148.3z
		 M131.2,146.3c0-0.3-0.1-0.5-0.3-0.7s-0.5-0.3-0.9-0.3s-0.7,0.1-0.9,0.3s-0.3,0.4-0.3,0.7s0.1,0.5,0.3,0.7s0.5,0.3,0.9,0.3
		s0.7-0.1,0.9-0.3C131.2,146.8,131.2,146.6,131.2,146.3z"/>
	<path d="M132.5,145.5v-0.6h3.5v0.6c-0.5,0.6-0.9,1.2-1.2,1.8s-0.6,1.3-0.7,2.1h-0.7c0.4-1.4,1-2.7,2-3.8h-2.9V145.5z"/>
	<path d="M136.4,148c0-0.3,0.1-0.6,0.4-0.8c0.2-0.2,0.4-0.3,0.6-0.3l0,0c-0.5-0.2-0.7-0.5-0.7-0.9s0.1-0.7,0.4-0.9
		c0.3-0.2,0.7-0.3,1.2-0.3s0.9,0.1,1.2,0.3s0.4,0.5,0.4,0.9s-0.2,0.8-0.7,0.9l0,0c0.3,0,0.5,0.2,0.7,0.4s0.2,0.4,0.2,0.7
		c0,0.4-0.1,0.7-0.4,0.9c-0.3,0.3-0.8,0.5-1.5,0.5s-1.2-0.2-1.5-0.5C136.6,148.7,136.4,148.4,136.4,148z M139.4,148
		c0-0.2-0.1-0.4-0.3-0.6c-0.2-0.2-0.5-0.3-0.9-0.3s-0.7,0.1-0.9,0.3c-0.2,0.1-0.3,0.3-0.3,0.6c0,0.2,0.1,0.4,0.3,0.6
		c0.2,0.2,0.5,0.3,0.9,0.3s0.7-0.1,0.9-0.3C139.4,148.5,139.4,148.3,139.4,148z M139.2,146c0-0.2-0.1-0.3-0.2-0.5
		c-0.2-0.1-0.4-0.2-0.7-0.2s-0.6,0.1-0.7,0.2c-0.2,0.1-0.2,0.3-0.2,0.5s0.1,0.3,0.2,0.5c0.2,0.1,0.4,0.2,0.7,0.2s0.6-0.1,0.7-0.2
		C139.2,146.3,139.2,146.2,139.2,146z"/>
	<path d="M140.7,148c0-0.3,0.1-0.6,0.4-0.8c0.2-0.2,0.4-0.3,0.6-0.3l0,0c-0.5-0.2-0.7-0.5-0.7-0.9s0.1-0.7,0.4-0.9
		c0.3-0.2,0.7-0.3,1.2-0.3s0.9,0.1,1.2,0.3s0.4,0.5,0.4,0.9s-0.2,0.8-0.7,0.9l0,0c0.3,0,0.5,0.2,0.7,0.4s0.2,0.4,0.2,0.7
		c0,0.4-0.1,0.7-0.4,0.9c-0.3,0.3-0.8,0.5-1.5,0.5s-1.2-0.2-1.5-0.5C140.8,148.7,140.7,148.4,140.7,148z M143.7,148
		c0-0.2-0.1-0.4-0.3-0.6c-0.2-0.2-0.5-0.3-0.9-0.3s-0.7,0.1-0.9,0.3c-0.2,0.1-0.3,0.3-0.3,0.6c0,0.2,0.1,0.4,0.3,0.6
		c0.2,0.2,0.5,0.3,0.9,0.3s0.7-0.1,0.9-0.3C143.6,148.5,143.7,148.3,143.7,148z M143.5,146c0-0.2-0.1-0.3-0.2-0.5
		c-0.2-0.1-0.4-0.2-0.7-0.2s-0.6,0.1-0.7,0.2c-0.2,0.1-0.2,0.3-0.2,0.5s0.1,0.3,0.2,0.5c0.2,0.1,0.4,0.2,0.7,0.2s0.6-0.1,0.7-0.2
		C143.4,146.3,143.5,146.2,143.5,146z"/>
	<path d="M145,148c0-0.3,0.1-0.6,0.4-0.8c0.2-0.2,0.4-0.3,0.6-0.3l0,0c-0.5-0.2-0.7-0.5-0.7-0.9s0.1-0.7,0.4-0.9
		c0.3-0.2,0.7-0.3,1.2-0.3s0.9,0.1,1.2,0.3s0.4,0.5,0.4,0.9s-0.2,0.8-0.7,0.9l0,0c0.3,0,0.5,0.2,0.7,0.4s0.2,0.4,0.2,0.7
		c0,0.4-0.1,0.7-0.4,0.9c-0.3,0.3-0.8,0.5-1.5,0.5s-1.2-0.2-1.5-0.5C145.1,148.7,145,148.4,145,148z M148,148c0-0.2-0.1-0.4-0.3-0.6
		c-0.2-0.2-0.5-0.3-0.9-0.3s-0.7,0.1-0.9,0.3c-0.2,0.1-0.3,0.3-0.3,0.6c0,0.2,0.1,0.4,0.3,0.6c0.2,0.2,0.5,0.3,0.9,0.3
		s0.7-0.1,0.9-0.3C147.9,148.5,148,148.3,148,148z M147.8,146c0-0.2-0.1-0.3-0.2-0.5c-0.2-0.1-0.4-0.2-0.7-0.2s-0.6,0.1-0.7,0.2
		c-0.2,0.1-0.2,0.3-0.2,0.5s0.1,0.3,0.2,0.5c0.2,0.1,0.4,0.2,0.7,0.2s0.6-0.1,0.7-0.2C147.7,146.3,147.8,146.2,147.8,146z"/>
	<path d="M112,157v-4.6h3.7v0.6h-3v1.3h2.9v0.6h-2.9v1.5h3.1v0.6L112,157L112,157z"/>
	<path d="M116.3,155.7v-0.5h3.2v0.5H116.3z"/>
	<path d="M125.3,157v-2.1c0-0.5-0.3-0.8-0.8-0.8c-0.3,0-0.6,0.1-0.8,0.2c-0.2,0.2-0.3,0.4-0.3,0.7v2h-0.6v-2.1
		c0-0.5-0.3-0.8-0.8-0.8c-0.3,0-0.6,0.1-0.8,0.3c-0.2,0.2-0.3,0.4-0.3,0.7v1.9h-0.6v-3.4h0.6v0.5l0,0c0.3-0.4,0.7-0.6,1.3-0.6
		c0.5,0,0.9,0.2,1.1,0.6c0.3-0.4,0.8-0.6,1.4-0.6c0.3,0,0.5,0.1,0.8,0.2c0.3,0.2,0.5,0.5,0.5,1v2.3L125.3,157L125.3,157z"/>
	<path d="M127.3,154.7h-0.6c0.1-0.8,0.6-1.2,1.7-1.2c0.4,0,0.8,0.1,1,0.2c0.3,0.2,0.5,0.4,0.5,0.8v1.8c0,0.2,0.1,0.3,0.3,0.3
		c0.1,0,0.1,0,0.2,0v0.4c-0.2,0-0.3,0-0.5,0c-0.3,0-0.5-0.2-0.6-0.5c-0.1,0.2-0.3,0.3-0.6,0.4c-0.3,0.1-0.5,0.1-0.8,0.1
		c-0.5,0-0.9-0.1-1.1-0.3s-0.3-0.4-0.3-0.7s0.1-0.6,0.3-0.7c0.2-0.2,0.6-0.3,1.1-0.3l0.7-0.1c0.2,0,0.3-0.1,0.4-0.1
		c0.1-0.1,0.2-0.2,0.2-0.3c0-0.4-0.3-0.6-1-0.6C127.7,154,127.4,154.3,127.3,154.7z M129.4,155.7v-0.4c-0.1,0.1-0.3,0.2-0.6,0.2
		l-0.7,0.1c-0.3,0-0.5,0.1-0.6,0.2c-0.1,0.1-0.2,0.2-0.2,0.4s0.1,0.3,0.2,0.4s0.3,0.1,0.6,0.1c0.4,0,0.7-0.1,0.9-0.3
		C129.2,156.2,129.4,156,129.4,155.7z"/>
	<path d="M130.9,153.1v-0.7h0.6v0.7H130.9z M130.9,157v-3.4h0.6v3.4H130.9z"/>
	<path d="M132.3,157v-4.6h0.6v4.6H132.3z"/>
	<path d="M134,154.5v-0.7h0.8v0.7H134z M134,157v-0.7h0.8v0.7H134z"/>
	<path d="M83.4,164l1.1-2.7h0.7l-1.5,3.4H83l-1.5-3.4h0.7L83.4,164z"/>
	<path d="M89.2,163.2h-3.1c0,0.3,0.2,0.6,0.4,0.8c0.2,0.2,0.5,0.3,0.8,0.3c0.5,0,0.9-0.2,1.1-0.6h0.7c-0.2,0.4-0.4,0.7-0.7,0.9
		c-0.3,0.2-0.6,0.3-1,0.3c-0.6,0-1.1-0.2-1.5-0.5c-0.3-0.3-0.5-0.8-0.5-1.3s0.2-0.9,0.5-1.3c0.4-0.4,0.8-0.5,1.5-0.5
		c0.5,0,0.9,0.1,1.2,0.4C89,162,89.2,162.5,89.2,163.2L89.2,163.2z M86.1,162.7h2.4c0-0.3-0.2-0.5-0.4-0.7c-0.2-0.2-0.5-0.3-0.8-0.3
		s-0.6,0.1-0.8,0.3C86.3,162.2,86.2,162.4,86.1,162.7z"/>
	<path d="M89.9,164.7v-3.4h0.6v0.6c0.3-0.5,0.7-0.7,1.2-0.7c0.1,0,0.3,0,0.4,0v0.7c-0.2,0-0.3-0.1-0.5-0.1c-0.3,0-0.6,0.1-0.8,0.3
		c-0.2,0.2-0.3,0.5-0.3,0.8v1.7L89.9,164.7L89.9,164.7z"/>
	<path d="M95.4,164.7v-0.4c-0.1,0.2-0.3,0.3-0.5,0.4c-0.2,0.1-0.5,0.1-0.7,0.1c-0.5,0-1-0.2-1.3-0.5c-0.4-0.3-0.5-0.8-0.5-1.3
		s0.2-1,0.5-1.3s0.8-0.5,1.3-0.5c0.3,0,0.5,0,0.7,0.1s0.4,0.2,0.5,0.4V160H96v4.6L95.4,164.7L95.4,164.7z M93,163.1
		c0,0.3,0.1,0.6,0.3,0.9c0.2,0.3,0.5,0.4,0.9,0.4s0.7-0.1,0.9-0.4c0.2-0.2,0.3-0.5,0.3-0.9s-0.1-0.7-0.3-0.9
		c-0.2-0.2-0.5-0.3-0.9-0.3s-0.7,0.1-0.9,0.3C93.1,162.4,93,162.7,93,163.1z"/>
	<path d="M100.5,163.2h-3.1c0,0.3,0.2,0.6,0.4,0.8c0.2,0.2,0.5,0.3,0.8,0.3c0.5,0,0.9-0.2,1.1-0.6h0.7c-0.2,0.4-0.4,0.7-0.7,0.9
		c-0.3,0.2-0.6,0.3-1,0.3c-0.6,0-1.1-0.2-1.5-0.5c-0.3-0.3-0.5-0.8-0.5-1.3s0.2-0.9,0.5-1.3c0.4-0.4,0.8-0.5,1.5-0.5
		c0.5,0,0.9,0.1,1.2,0.4C100.3,162,100.5,162.5,100.5,163.2L100.5,163.2z M97.4,162.7h2.4c0-0.3-0.2-0.5-0.4-0.7
		c-0.2-0.2-0.5-0.3-0.8-0.3s-0.6,0.1-0.8,0.3C97.6,162.2,97.5,162.4,97.4,162.7z"/>
	<path d="M102.6,164l1.1-2.7h0.7l-1.5,3.4h-0.7l-1.5-3.4h0.7L102.6,164z"/>
	<path d="M108.4,163.2h-3.1c0,0.3,0.2,0.6,0.4,0.8c0.2,0.2,0.5,0.3,0.8,0.3c0.5,0,0.9-0.2,1.1-0.6h0.7c-0.2,0.4-0.4,0.7-0.7,0.9
		c-0.3,0.2-0.6,0.3-1,0.3c-0.6,0-1.1-0.2-1.5-0.5c-0.3-0.3-0.5-0.8-0.5-1.3s0.2-0.9,0.5-1.3c0.4-0.4,0.8-0.5,1.5-0.5
		c0.5,0,0.9,0.1,1.2,0.4C108.3,162,108.4,162.5,108.4,163.2L108.4,163.2z M105.4,162.7h2.4c0-0.3-0.2-0.5-0.4-0.7
		c-0.2-0.2-0.5-0.3-0.8-0.3s-0.6,0.1-0.8,0.3C105.6,162.2,105.4,162.4,105.4,162.7z"/>
	<path d="M109.1,164.7v-3.4h0.6v0.5c0.3-0.4,0.7-0.6,1.3-0.6c0.4,0,0.8,0.1,1,0.3c0.3,0.2,0.4,0.5,0.4,0.9v2.3h-0.6v-2.2
		c0-0.5-0.3-0.8-1-0.8c-0.3,0-0.6,0.1-0.8,0.3c-0.2,0.2-0.3,0.4-0.3,0.7v1.9h-0.6V164.7z"/>
	<path d="M113.5,161.4v-1h0.6v1h1v0.5h-1v2.1c0,0.2,0.2,0.4,0.5,0.4c0.1,0,0.3,0,0.4,0v0.5c-0.2,0-0.4,0-0.7,0
		c-0.6,0-0.9-0.3-0.9-0.8v-2.2h-0.7v-0.5H113.5z"/>
	<path d="M116.2,162.4h-0.6c0.1-0.8,0.6-1.2,1.7-1.2c0.4,0,0.8,0.1,1,0.2c0.3,0.2,0.5,0.4,0.5,0.8v1.8c0,0.2,0.1,0.3,0.3,0.3
		c0.1,0,0.1,0,0.2,0v0.4c-0.2,0-0.3,0-0.5,0c-0.3,0-0.5-0.2-0.6-0.5c-0.1,0.2-0.3,0.3-0.6,0.4c-0.3,0.1-0.5,0.1-0.8,0.1
		c-0.5,0-0.9-0.1-1.1-0.3s-0.3-0.4-0.3-0.7s0.1-0.6,0.3-0.7c0.2-0.2,0.6-0.3,1.1-0.3l0.7-0.1c0.2,0,0.3-0.1,0.4-0.1
		c0.1-0.1,0.2-0.2,0.2-0.3c0-0.4-0.3-0.6-1-0.6C116.6,161.7,116.2,162,116.2,162.4z M118.2,163.4V163c-0.1,0.1-0.3,0.2-0.6,0.2
		l-0.7,0.1c-0.3,0-0.5,0.1-0.6,0.2c-0.1,0.1-0.2,0.2-0.2,0.4s0.1,0.3,0.2,0.4s0.3,0.1,0.6,0.1c0.4,0,0.7-0.1,0.9-0.3
		C118.1,163.9,118.2,163.7,118.2,163.4z"/>
	<path d="M119.6,163.7h0.6c0,0.2,0.1,0.3,0.2,0.4c0.2,0.1,0.5,0.2,0.8,0.2c0.7,0,1-0.2,1-0.5c0-0.1,0-0.2-0.1-0.3s-0.3-0.1-0.5-0.2
		l-1.1-0.1c-0.3,0-0.5-0.1-0.6-0.3c-0.2-0.2-0.3-0.4-0.3-0.6c0-0.3,0.1-0.6,0.4-0.8s0.6-0.3,1.1-0.3c1,0,1.6,0.4,1.6,1.1h-0.6
		c0-0.2-0.1-0.3-0.3-0.4c-0.2-0.1-0.4-0.2-0.7-0.2c-0.6,0-0.9,0.2-0.9,0.5c0,0.1,0,0.2,0.1,0.3s0.2,0.1,0.4,0.1l0.9,0.1
		c0.8,0.1,1.2,0.4,1.2,0.9c0,0.4-0.1,0.7-0.4,0.9s-0.7,0.3-1.2,0.3C120.2,164.8,119.6,164.4,119.6,163.7z"/>
	<path d="M124.1,161.8h-0.6c0-0.5,0.1-0.9,0.4-1.2s0.7-0.4,1.3-0.4c0.6,0,1,0.1,1.3,0.4c0.3,0.3,0.4,0.6,0.4,1
		c0,0.5-0.2,0.8-0.6,1.1c-0.1,0.1-0.5,0.3-1.2,0.6c-0.5,0.2-0.8,0.5-0.9,0.8h2.7v0.6h-3.5c0-0.6,0.3-1.1,0.8-1.4
		c0.4-0.3,0.9-0.5,1.3-0.8c0.5-0.3,0.7-0.6,0.7-0.9c0-0.3-0.1-0.5-0.3-0.7c-0.2-0.1-0.4-0.2-0.7-0.2
		C124.5,160.7,124.1,161.1,124.1,161.8z"/>
	<path d="M130.9,161.6l0.1-0.4h0.5l-0.5,1.7c0,0.2-0.1,0.3-0.1,0.3c0,0.1,0,0.1,0.1,0.1c0.2,0,0.4-0.1,0.6-0.4
		c0.2-0.3,0.3-0.6,0.3-0.9c0-0.5-0.2-0.9-0.5-1.2s-0.8-0.4-1.3-0.4c-0.6,0-1.1,0.2-1.4,0.6c-0.4,0.4-0.6,0.9-0.6,1.4s0.2,1,0.6,1.4
		c0.4,0.4,0.9,0.6,1.5,0.6s1.1-0.2,1.5-0.7h0.5c-0.2,0.3-0.5,0.6-0.8,0.8c-0.4,0.2-0.7,0.3-1.1,0.3c-0.7,0-1.3-0.2-1.8-0.7
		s-0.7-1-0.7-1.7s0.2-1.2,0.7-1.7s1.1-0.7,1.7-0.7c0.6,0,1.1,0.2,1.6,0.5c0.4,0.4,0.7,0.9,0.7,1.4c0,0.6-0.2,1-0.6,1.4
		c-0.3,0.3-0.7,0.5-1,0.5c-0.2,0-0.4-0.1-0.4-0.4c-0.2,0.3-0.5,0.4-0.7,0.4c-0.3,0-0.5-0.1-0.7-0.3s-0.3-0.4-0.3-0.7
		c0-0.4,0.1-0.8,0.4-1.2c0.3-0.4,0.6-0.5,1-0.5C130.5,161.1,130.7,161.2,130.9,161.6z M130.7,162.2c0-0.2-0.1-0.3-0.2-0.4
		c-0.1-0.1-0.2-0.2-0.4-0.2c-0.3,0-0.5,0.1-0.7,0.4c-0.2,0.3-0.3,0.5-0.3,0.8c0,0.2,0.1,0.3,0.2,0.5c0.1,0.1,0.2,0.2,0.4,0.2
		s0.5-0.1,0.7-0.4C130.6,162.7,130.7,162.4,130.7,162.2z"/>
	<path d="M136,161.4h0.6v3.1c0,0.6-0.2,1-0.5,1.3s-0.8,0.4-1.5,0.4c-0.5,0-0.8-0.1-1.1-0.2c-0.4-0.2-0.6-0.5-0.6-0.9h0.6
		c0.1,0.2,0.2,0.4,0.4,0.4c0.2,0.1,0.4,0.1,0.7,0.1c0.4,0,0.7-0.1,1-0.3c0.2-0.2,0.3-0.4,0.3-0.7v-0.5c-0.3,0.4-0.7,0.6-1.3,0.6
		c-0.5,0-0.9-0.1-1.3-0.4c-0.4-0.3-0.6-0.8-0.6-1.3c0-0.6,0.2-1,0.6-1.3c0.3-0.3,0.8-0.4,1.3-0.4c0.6,0,1.1,0.2,1.3,0.6v-0.5H136z
		 M136,163c0-0.4-0.1-0.6-0.3-0.9c-0.2-0.2-0.5-0.3-0.9-0.3s-0.7,0.1-0.9,0.3s-0.3,0.5-0.3,0.9s0.1,0.6,0.3,0.9
		c0.2,0.2,0.5,0.3,0.9,0.3s0.7-0.1,0.9-0.3S136,163.4,136,163z"/>
	<path d="M142.5,164.7v-2.1c0-0.5-0.3-0.8-0.8-0.8c-0.3,0-0.6,0.1-0.8,0.2c-0.2,0.2-0.3,0.4-0.3,0.7v2H140v-2.1
		c0-0.5-0.3-0.8-0.8-0.8c-0.3,0-0.6,0.1-0.8,0.3s-0.3,0.4-0.3,0.7v1.9h-0.6v-3.4h0.6v0.5l0,0c0.3-0.4,0.7-0.6,1.3-0.6
		c0.5,0,0.9,0.2,1.1,0.6c0.3-0.4,0.8-0.6,1.4-0.6c0.3,0,0.5,0.1,0.8,0.2c0.3,0.2,0.5,0.5,0.5,1v2.3L142.5,164.7L142.5,164.7z"/>
	<path d="M144.5,162.4h-0.6c0.1-0.8,0.6-1.2,1.7-1.2c0.4,0,0.8,0.1,1,0.2c0.3,0.2,0.5,0.4,0.5,0.8v1.8c0,0.2,0.1,0.3,0.3,0.3
		c0.1,0,0.1,0,0.2,0v0.4c-0.2,0-0.3,0-0.5,0c-0.3,0-0.5-0.2-0.6-0.5c-0.1,0.2-0.3,0.3-0.6,0.4c-0.3,0.1-0.5,0.1-0.8,0.1
		c-0.5,0-0.9-0.1-1.1-0.3c-0.2-0.2-0.3-0.4-0.3-0.7s0.1-0.6,0.3-0.7c0.2-0.2,0.6-0.3,1.1-0.3l0.7-0.1c0.2,0,0.3-0.1,0.4-0.1
		c0.1-0.1,0.2-0.2,0.2-0.3c0-0.4-0.3-0.6-1-0.6C144.9,161.7,144.5,162,144.5,162.4z M146.5,163.4V163c-0.1,0.1-0.3,0.2-0.6,0.2
		l-0.7,0.1c-0.3,0-0.5,0.1-0.6,0.2c-0.1,0.1-0.2,0.2-0.2,0.4s0.1,0.3,0.2,0.4s0.3,0.1,0.6,0.1c0.4,0,0.7-0.1,0.9-0.3
		C146.4,163.9,146.5,163.7,146.5,163.4z"/>
	<path d="M148.1,160.8v-0.7h0.6v0.7H148.1z M148.1,164.7v-3.4h0.6v3.4H148.1z"/>
	<path d="M149.5,164.7v-4.6h0.6v4.6H149.5z"/>
	<path d="M151.2,164.7V164h0.8v0.7H151.2z"/>
	<path d="M155.8,163.5h0.7c-0.1,0.5-0.3,0.8-0.6,1.1c-0.3,0.2-0.6,0.3-1.1,0.3c-0.6,0-1.1-0.2-1.4-0.6c-0.3-0.3-0.4-0.7-0.4-1.2
		s0.2-0.9,0.5-1.3c0.3-0.4,0.8-0.5,1.4-0.5c0.5,0,0.9,0.1,1.2,0.3s0.5,0.5,0.6,0.9H156c-0.1-0.5-0.4-0.7-1-0.7
		c-0.4,0-0.7,0.1-0.9,0.4c-0.2,0.2-0.3,0.5-0.3,0.9s0.1,0.7,0.3,0.9s0.5,0.4,0.9,0.4C155.3,164.3,155.7,164,155.8,163.5z"/>
	<path d="M156.9,163c0-0.5,0.2-0.9,0.5-1.3c0.4-0.4,0.8-0.5,1.5-0.5c0.6,0,1.1,0.2,1.5,0.5c0.3,0.3,0.5,0.7,0.5,1.3
		c0,0.5-0.2,0.9-0.5,1.3c-0.4,0.4-0.8,0.5-1.5,0.5c-0.6,0-1.1-0.2-1.5-0.5C157.1,164,156.9,163.5,156.9,163z M160.2,163
		c0-0.3-0.1-0.6-0.3-0.9c-0.2-0.3-0.5-0.4-1-0.4c-0.4,0-0.8,0.1-1,0.4c-0.2,0.2-0.3,0.5-0.3,0.9c0,0.3,0.1,0.6,0.3,0.9
		c0.2,0.3,0.5,0.4,1,0.4c0.4,0,0.8-0.1,1-0.4C160.1,163.7,160.2,163.4,160.2,163z"/>
	<path d="M166.6,164.7v-2.1c0-0.5-0.3-0.8-0.8-0.8c-0.3,0-0.6,0.1-0.8,0.2c-0.2,0.2-0.3,0.4-0.3,0.7v2H164v-2.1
		c0-0.5-0.3-0.8-0.8-0.8c-0.3,0-0.6,0.1-0.8,0.3s-0.3,0.4-0.3,0.7v1.9h-0.6v-3.4h0.6v0.5l0,0c0.3-0.4,0.7-0.6,1.3-0.6
		c0.5,0,0.9,0.2,1.1,0.6c0.3-0.4,0.8-0.6,1.4-0.6c0.3,0,0.5,0.1,0.8,0.2c0.3,0.2,0.5,0.5,0.5,1v2.3L166.6,164.7L166.6,164.7z"/>
</g>
<g>
	<path class="st12" d="M108.3,114.2c0,0-1,13.5,16,15.3C124.3,129.5,123.5,118.8,108.3,114.2z"/>
	<path class="st13" d="M118.3,110.3c0,0-8.4,11.8,6,19.2C124.3,129.5,129.5,119.6,118.3,110.3z"/>
	<path class="st12" d="M131.9,110.6c0,0-15,6.8-7.7,18.8C124.2,129.4,135.3,123.1,131.9,110.6z"/>
	<path class="st13" d="M138.5,113.2c0,0-16.9,3.2-14.2,16.4C124.3,129.6,137.2,125.9,138.5,113.2z"/>
</g>
<g>
	<path class="st12" d="M270.1,113.4c0,0-1,13.5,16,15.3C286.1,128.7,285.4,118,270.1,113.4z"/>
	<path class="st13" d="M280.1,109.5c0,0-8.4,11.8,6,19.2C286.1,128.7,291.4,118.8,280.1,109.5z"/>
	<path class="st12" d="M293.8,109.8c0,0-15,6.8-7.7,18.8C286.1,128.6,297.2,122.3,293.8,109.8z"/>
	<path class="st13" d="M300.3,112.4c0,0-16.9,3.2-14.2,16.4C286.1,128.8,299.1,125.1,300.3,112.4z"/>
</g>
<g>
	<path class="st14" d="M96.4,141.8v-3.9h-1.7v-0.6h4v0.6H97v3.9H96.4z"/>
	<path class="st14" d="M102.2,140.4h-3c0,0.3,0.2,0.6,0.4,0.8c0.2,0.2,0.5,0.3,0.8,0.3c0.5,0,0.9-0.2,1.1-0.6h0.7
		c-0.1,0.4-0.4,0.7-0.7,0.8c-0.3,0.2-0.6,0.3-1,0.3c-0.6,0-1.1-0.2-1.4-0.5s-0.5-0.7-0.5-1.2s0.2-0.9,0.5-1.2s0.8-0.5,1.4-0.5
		c0.5,0,0.9,0.1,1.2,0.4C102,139.2,102.2,139.7,102.2,140.4L102.2,140.4z M99.2,139.9h2.3c0-0.3-0.2-0.5-0.4-0.7
		c-0.2-0.2-0.5-0.2-0.8-0.2s-0.6,0.1-0.8,0.2C99.4,139.4,99.2,139.6,99.2,139.9z"/>
	<path class="st14" d="M102.8,141.8v-4.5h0.6v4.5H102.8z"/>
	<path class="st14" d="M104.5,141.8v-0.7h0.8v0.7H104.5z"/>
	<path class="st14" d="M109.6,139.8v-0.5c0.1,0,0.2,0,0.4,0c0.6,0,0.8-0.2,0.8-0.6c0-0.3-0.1-0.4-0.3-0.6c-0.2-0.1-0.4-0.1-0.6-0.1
		c-0.6,0-1,0.3-1,0.9h-0.6c0-0.5,0.2-0.8,0.5-1.1c0.3-0.2,0.7-0.3,1.1-0.3c0.5,0,0.9,0.1,1.2,0.4c0.2,0.2,0.4,0.5,0.4,0.8
		c0,0.2-0.1,0.4-0.2,0.6c-0.1,0.2-0.3,0.3-0.5,0.3l0,0c0.2,0,0.5,0.2,0.6,0.3c0.2,0.2,0.2,0.4,0.2,0.7c0,0.4-0.1,0.7-0.4,1
		s-0.7,0.4-1.3,0.4c-1.2,0-1.8-0.5-1.8-1.5h0.6c0,0.6,0.4,0.9,1.2,0.9c0.3,0,0.6-0.1,0.8-0.2c0.2-0.1,0.3-0.3,0.3-0.6
		c0-0.2-0.1-0.4-0.3-0.6c-0.2-0.1-0.5-0.2-0.8-0.2C109.8,139.8,109.7,139.8,109.6,139.8C109.6,139.8,109.6,139.8,109.6,139.8z"/>
	<path class="st14" d="M113,139h-0.6c0-0.5,0.1-0.9,0.4-1.1c0.3-0.3,0.7-0.4,1.3-0.4c0.5,0,1,0.1,1.2,0.4c0.3,0.2,0.4,0.6,0.4,1
		s-0.2,0.8-0.6,1.1c-0.1,0.1-0.5,0.3-1.2,0.6c-0.5,0.2-0.8,0.5-0.9,0.7h2.6v0.6h-3.4c0-0.6,0.3-1,0.8-1.4c0.4-0.2,0.9-0.5,1.3-0.7
		c0.5-0.3,0.7-0.6,0.7-0.9c0-0.3-0.1-0.5-0.3-0.7c-0.2-0.1-0.4-0.2-0.7-0.2C113.4,137.9,113.1,138.3,113,139z"/>
	<path class="st14" d="M117.2,139h-0.6c0-0.5,0.1-0.9,0.4-1.1c0.3-0.3,0.7-0.4,1.3-0.4c0.5,0,1,0.1,1.2,0.4c0.3,0.2,0.4,0.6,0.4,1
		s-0.2,0.8-0.6,1.1c-0.1,0.1-0.5,0.3-1.2,0.6c-0.5,0.2-0.8,0.5-0.9,0.7h2.6v0.6h-3.4c0-0.6,0.3-1,0.8-1.4c0.4-0.2,0.9-0.5,1.3-0.7
		c0.5-0.3,0.7-0.6,0.7-0.9c0-0.3-0.1-0.5-0.3-0.7c-0.2-0.1-0.4-0.2-0.7-0.2C117.6,137.9,117.2,138.3,117.2,139z"/>
	<path class="st14" d="M121.4,139h-0.6c0-0.5,0.1-0.9,0.4-1.1c0.3-0.3,0.7-0.4,1.3-0.4c0.5,0,1,0.1,1.2,0.4c0.3,0.2,0.4,0.6,0.4,1
		s-0.2,0.8-0.6,1.1c-0.1,0.1-0.5,0.3-1.2,0.6c-0.5,0.2-0.8,0.5-0.9,0.7h2.6v0.6h-3.4c0-0.6,0.3-1,0.8-1.4c0.4-0.2,0.9-0.5,1.3-0.7
		c0.5-0.3,0.7-0.6,0.7-0.9c0-0.3-0.1-0.5-0.3-0.7c-0.2-0.1-0.4-0.2-0.7-0.2C121.8,137.9,121.4,138.3,121.4,139z"/>
	<path class="st14" d="M124.9,139.7c0-1.5,0.6-2.3,1.8-2.3c1.2,0,1.8,0.8,1.8,2.3s-0.6,2.3-1.8,2.3
		C125.5,141.9,124.9,141.2,124.9,139.7z M127.8,139.7c0-1.2-0.4-1.7-1.1-1.7c-0.8,0-1.1,0.6-1.1,1.7c0,1.2,0.4,1.7,1.1,1.7
		C127.5,141.4,127.8,140.8,127.8,139.7z"/>
	<path class="st14" d="M129.1,140.5c0-0.3,0.1-0.6,0.4-0.8c0.2-0.2,0.4-0.2,0.5-0.3l0,0c-0.5-0.2-0.7-0.5-0.7-0.9s0.1-0.6,0.4-0.8
		c0.3-0.2,0.7-0.3,1.2-0.3s0.9,0.1,1.2,0.3s0.4,0.5,0.4,0.8c0,0.4-0.2,0.7-0.7,0.9l0,0c0.3,0,0.5,0.2,0.6,0.4
		c0.2,0.2,0.2,0.4,0.2,0.7c0,0.4-0.1,0.7-0.3,0.9c-0.3,0.3-0.8,0.5-1.4,0.5c-0.7,0-1.1-0.2-1.4-0.5
		C129.2,141.2,129.1,140.9,129.1,140.5z M132,140.6c0-0.2-0.1-0.4-0.3-0.6c-0.2-0.2-0.5-0.2-0.9-0.2s-0.7,0.1-0.9,0.2
		c-0.2,0.1-0.3,0.3-0.3,0.6c0,0.2,0.1,0.4,0.3,0.6c0.2,0.2,0.5,0.2,0.9,0.2s0.7-0.1,0.9-0.2C131.9,141,132,140.8,132,140.6z
		 M131.8,138.6c0-0.2-0.1-0.3-0.2-0.4c-0.2-0.1-0.4-0.2-0.7-0.2s-0.5,0.1-0.7,0.2c-0.1,0.1-0.2,0.3-0.2,0.4c0,0.2,0.1,0.3,0.2,0.4
		c0.2,0.1,0.4,0.2,0.7,0.2s0.5-0.1,0.7-0.2C131.7,138.9,131.8,138.7,131.8,138.6z"/>
	<path class="st14" d="M133.2,140.5c0-0.3,0.1-0.6,0.4-0.8c0.2-0.2,0.4-0.2,0.5-0.3l0,0c-0.5-0.2-0.7-0.5-0.7-0.9s0.1-0.6,0.4-0.8
		s0.7-0.3,1.2-0.3s0.9,0.1,1.2,0.3s0.4,0.5,0.4,0.8c0,0.4-0.2,0.7-0.7,0.9l0,0c0.3,0,0.5,0.2,0.6,0.4c0.2,0.2,0.2,0.4,0.2,0.7
		c0,0.4-0.1,0.7-0.3,0.9c-0.3,0.3-0.8,0.5-1.4,0.5c-0.7,0-1.1-0.2-1.4-0.5C133.3,141.2,133.2,140.9,133.2,140.5z M136.1,140.6
		c0-0.2-0.1-0.4-0.3-0.6c-0.2-0.2-0.5-0.2-0.9-0.2s-0.7,0.1-0.9,0.2c-0.2,0.1-0.3,0.3-0.3,0.6c0,0.2,0.1,0.4,0.3,0.6
		c0.2,0.2,0.5,0.2,0.9,0.2s0.7-0.1,0.9-0.2C136.1,141,136.1,140.8,136.1,140.6z M136,138.6c0-0.2-0.1-0.3-0.2-0.4
		c-0.2-0.1-0.4-0.2-0.7-0.2s-0.5,0.1-0.7,0.2c-0.1,0.1-0.2,0.3-0.2,0.4c0,0.2,0.1,0.3,0.2,0.4c0.2,0.1,0.4,0.2,0.7,0.2
		s0.5-0.1,0.7-0.2C135.9,138.9,136,138.7,136,138.6z"/>
	<path class="st14" d="M137.4,139.7c0-1.5,0.6-2.3,1.8-2.3s1.8,0.8,1.8,2.3s-0.6,2.3-1.8,2.3C138,141.9,137.4,141.2,137.4,139.7z
		 M140.3,139.7c0-1.2-0.4-1.7-1.1-1.7c-0.8,0-1.1,0.6-1.1,1.7c0,1.2,0.4,1.7,1.1,1.7C139.9,141.4,140.3,140.8,140.3,139.7z"/>
	<path class="st14" d="M141.4,138.1v-0.6h3.4v0.5c-0.5,0.6-0.9,1.2-1.2,1.8s-0.5,1.3-0.7,2h-0.7c0.3-1.4,1-2.6,1.9-3.7H141.4z"/>
	<path class="st14" d="M146.6,139.8v-0.5c0.1,0,0.2,0,0.4,0c0.6,0,0.8-0.2,0.8-0.6c0-0.3-0.1-0.4-0.3-0.6c-0.2-0.1-0.4-0.1-0.6-0.1
		c-0.6,0-1,0.3-1,0.9h-0.6c0-0.5,0.2-0.8,0.5-1.1c0.3-0.2,0.7-0.3,1.1-0.3c0.5,0,0.9,0.1,1.2,0.4c0.2,0.2,0.4,0.5,0.4,0.8
		c0,0.2-0.1,0.4-0.2,0.6c-0.1,0.2-0.3,0.3-0.5,0.3l0,0c0.2,0,0.5,0.2,0.6,0.3c0.2,0.2,0.2,0.4,0.2,0.7c0,0.4-0.1,0.7-0.4,1
		c-0.3,0.3-0.7,0.4-1.3,0.4c-1.2,0-1.8-0.5-1.8-1.5h0.6c0,0.6,0.4,0.9,1.2,0.9c0.3,0,0.6-0.1,0.8-0.2c0.2-0.1,0.3-0.3,0.3-0.6
		c0-0.2-0.1-0.4-0.3-0.6c-0.2-0.1-0.5-0.2-0.8-0.2C146.8,139.8,146.7,139.8,146.6,139.8C146.6,139.8,146.6,139.8,146.6,139.8z"/>
</g>
</svg>
