<?xml version="1.0" encoding="utf-8"?>
<!-- Generator: Adobe Illustrator 22.0.0, SVG Export Plug-In . SVG Version: 6.00 Build 0)  -->
<svg version="1.1" id="Capa_1" xmlns="http://www.w3.org/2000/svg" xmlns:xlink="http://www.w3.org/1999/xlink" x="0px" y="0px"
	 viewBox="0 0 1020 1020" style="enable-background:new 0 0 1020 1020;" xml:space="preserve">
<style type="text/css">
	.st0{opacity:0.4;fill:#FFFFFF;}
	.st1{opacity:0.4;}
	.st2{fill:#838383;}
	.st3{fill:#262C5C;}
	.st4{opacity:0.4;fill:#65B345;}
	.st5{opacity:0.4;fill:#838383;}
	.st6{opacity:0.4;fill:#262C5C;}
	.st7{fill:#65B345;}
</style>
<path class="st0" d="M403.6,797.2c0-88,0-176,0-264.2c117.6,0,235.2,0,352.8,0c0,88,0,176,0,264.2
	C638.9,797.2,521.2,797.2,403.6,797.2z M557,669.1c-0.1,8.3-0.7,8.9-8.1,8.9c-37,0-74,0-111,0c-6.9,0-7.1,0.2-7.1,7.2
	c0,26.8,0,53.5,0,80.3c0,1.3,0,2.7,0,4.3c-5,0-9.4,0.1-13.9,0c-2.1-0.1-2.9,0.7-2.8,2.8c0.1,2.9,3.4,5.4,7.9,5.4
	c53.3,0,106.5,0,159.8-0.1c2,0,4.4-0.8,6-2.1c1.1-0.8,1.2-3.1,1.3-4.8c0-0.4-2-1.1-3-1.2c-4.8-0.1-9.6-0.1-14.7-0.1
	c0-24.9,0-49.4,0-74.2c1.5,0,2.7,0,3.9,0c14.2,0,28.4,0,42.6,0c2,0,3.9-0.1,4.1-2.6c0.2-2.4-1.3-3-3.5-3.4c-1.5-0.3-3.1-1.1-4.1-2.1
	c-4.7-5-6.2-11.3-6.9-18.1c14.8,0,29.2,0,43.7,0c0,12.8,0,25.5,0,38.2c-8.8,0-17.3,0-25.9,0c-5.3,0-7.5,2.3-7.6,7.6
	c0,7.6,0,15.2,0,22.8c0,16.1,0,32.3,0,48.4c0,5.3,2,7.3,7.3,7.3c10.4,0,20.8,0,31.1,0c6,0,7.7-1.8,7.7-7.8c0-17,0.1-33.9-0.1-50.9
	c0-3.3,0.8-4.3,4.2-4.3c18,0.2,36,0.1,54,0.1c7.1,0,8.9-1.8,8.9-9.1c0-29.2,0-58.3,0-87.5c0-6.8-2-8.8-8.9-8.8
	c-14.6,0-29.3,0-43.9,0c-1.5,0-2.9,0-4.8,0c0-1.7,0-2.9,0-4.2c0-25.8,0-51.7,0-77.5c0-6.2-1-7.2-7.2-7.2c-50.7,0-101.5,0-152.2,0
	c-5.9,0-11.8-0.1-17.6,0c-4.3,0.1-6.1,1.9-6.1,6.2c-0.1,6.3,0,12.7,0,19c0,32.6,0,65.3,0,97.9c0,6.9,2.6,9.4,9.3,9.4
	c17.9,0,35.7,0,53.6,0C554.3,669.1,555.6,669.1,557,669.1z"/>
<g class="st1">
	
		<image style="overflow:visible;opacity:0.75;" width="1446" height="1198" xlink:href="DDCCB4D.png"  transform="matrix(0.24 0 0 0.24 405.96 528.36)">
	</image>
	<g>
		<path class="st2" d="M557,669.1c-1.4,0-2.7,0-4.1,0c-17.9,0-35.7,0-53.6,0c-6.7,0-9.3-2.5-9.3-9.4c0-32.6,0-65.3,0-97.9
			c0-6.3,0-12.7,0-19c0-4.3,1.8-6.1,6.1-6.2c5.9-0.1,11.8,0,17.6,0c50.7,0,101.5,0,152.2,0c6.2,0,7.2,1,7.2,7.2
			c0,25.8,0,51.7,0,77.5c0,1.2,0,2.5,0,4.2c1.9,0,3.3,0,4.8,0c14.6,0,29.3,0,43.9,0c6.9,0,8.9,2,8.9,8.8c0,29.2,0,58.3,0,87.5
			c0,7.2-1.8,9.1-8.9,9.1c-18,0-36,0.1-54-0.1c-3.4,0-4.2,1-4.2,4.3c0.2,16.9,0.1,33.9,0.1,50.9c0,6.1-1.8,7.8-7.7,7.8
			c-10.4,0-20.8,0-31.1,0c-5.2,0-7.3-2-7.3-7.3c0-16.1,0-32.3,0-48.4c0-7.6,0-15.2,0-22.8c0-5.3,2.3-7.6,7.6-7.6
			c8.5,0,17.1,0,25.9,0c0-12.8,0-25.4,0-38.2c-14.5,0-28.9,0-43.7,0c0.8,6.8,2.3,13,6.9,18.1c1,1.1,2.6,1.9,4.1,2.1
			c2.1,0.4,3.6,1,3.5,3.4c-0.2,2.5-2.1,2.6-4.1,2.6c-14.2,0-28.4,0-42.6,0c-1.2,0-2.5,0-3.9,0c0,24.9,0,49.4,0,74.2
			c5,0,9.9-0.1,14.7,0.1c1.1,0,3,0.8,3,1.2c-0.1,1.7-0.2,3.9-1.3,4.8c-1.6,1.3-4,2.1-6,2.1c-53.3,0.1-106.5,0.1-159.8,0.1
			c-4.5,0-7.8-2.4-7.9-5.4c-0.1-2.1,0.7-2.9,2.8-2.8c4.5,0.1,9,0,13.9,0c0-1.6,0-2.9,0-4.3c0-26.8,0-53.5,0-80.3
			c0-7,0.2-7.2,7.1-7.2c37,0,74,0,111,0C556.3,678,556.9,677.4,557,669.1z M498.4,546.2c0,1.6,0,2.7,0,3.8c0,29,0.1,58.1-0.1,87.1
			c0,3.3,0.9,4.2,4.2,4.2c48.2-0.1,96.4-0.1,144.5-0.1c1.3,0,2.7-0.1,3.7-0.2c0.6-4.5,0.4-8.9,1.9-12.5c2.1-4.9,7.6-2.5,11.6-3.5
			c0-26.3,0-52.5,0-78.9C609,546.2,554,546.2,498.4,546.2z M436.3,684.6c0,26.7,0,53,0,79.4c43.5,0,86.8,0,130.3,0
			c0-26.5,0-52.9,0-79.4C523.2,684.6,479.9,684.6,436.3,684.6z M658.2,633.3c-0.3,0.5-0.4,0.6-0.4,0.7c-0.1,23.9-0.1,47.7-0.1,71.6
			c0,0.7,0.6,2,1.2,2.1c3.3,0.9,4.8,3.2,5.2,6.4c20.2,0,40.2,0,60.3,0c0-27.1,0-53.9,0-80.8C702.1,633.3,680.1,633.3,658.2,633.3z
			 M621.2,718.5c0,21.2,0,42,0,62.8c13.3,0,26.3,0,39.5,0c0-21,0-41.8,0-62.8C647.4,718.5,634.4,718.5,621.2,718.5z M582.1,648
			c-4.1,0.1-7.5,3.6-7.4,7.6c0.1,4.1,3.6,7.5,7.6,7.4c4.1-0.1,7.5-3.6,7.4-7.6C589.6,651.3,586.1,647.9,582.1,648z M484.7,769.8
			c-0.2,0.3-0.4,0.6-0.6,1c0.9,0.5,1.8,1.5,2.8,1.5c9.9,0.1,19.8,0.1,29.7,0c1,0,2-1,3-1.6c-0.1-0.3-0.3-0.6-0.4-0.9
			C507.7,769.8,496.2,769.8,484.7,769.8z M696.4,722.5c0-2.9-2.2-5.3-5.1-5.4c-2.8-0.1-5.3,2.3-5.4,5.2c-0.1,2.9,2.2,5.2,5.2,5.3
			C694.2,727.6,696.4,725.5,696.4,722.5z M645.3,787.3c-2.3-1.4-3.6-2.9-4.8-2.8c-1.1,0.1-3,2.1-2.8,2.9c0.3,1.2,1.9,2.8,3.2,3
			C641.8,790.5,643.1,788.9,645.3,787.3z M630.9,713.7c0,0.3,0,0.6,0,0.8c5.7,0,11.5,0,17.2,0c0-0.3,0-0.6,0-0.8
			C642.3,713.7,636.6,713.7,630.9,713.7z"/>
	</g>
</g>
<path class="st0" d="M498.4,546.2c55.6,0,110.6,0,165.9,0c0,26.4,0,52.6,0,78.9c-4,1.1-9.5-1.4-11.6,3.5c-1.5,3.6-1.3,8-1.9,12.5
	c-1,0-2.3,0.2-3.7,0.2c-48.2,0-96.4,0-144.5,0.1c-3.3,0-4.3-0.9-4.2-4.2c0.1-29,0.1-58.1,0.1-87.1
	C498.4,548.9,498.4,547.8,498.4,546.2z M581.1,565.8c-16.7,0-33.4,0.1-50.1,0c-3.3,0-4.6,1.2-4.6,4.4c0.1,6.1,0.1,12.2,0,18.3
	c0,3,1.1,4.4,4.3,4.4c33.8,0,67.5,0,101.3,0c3,0,4.1-1.2,4-4.2c-0.1-6.1,0-12.2,0-18.3c0-4.4-0.2-4.7-4.7-4.7
	C614.5,565.7,597.8,565.7,581.1,565.8z"/>
<path class="st0" d="M436.3,684.6c43.5,0,86.8,0,130.3,0c0,26.5,0,52.9,0,79.4c-43.5,0-86.8,0-130.3,0
	C436.3,737.6,436.3,711.3,436.3,684.6z M501.5,723.7c11.6,0,23.3,0,34.9,0c2.6,0,3.9-0.8,3.9-3.5c-0.1-5.2-0.1-10.4,0-15.6
	c0-2.6-1.2-3.3-3.6-3.3c-23.5,0.1-47,0.1-70.5,0c-2.5,0-3.6,0.9-3.5,3.4c0.1,4.8,0,9.7,0,14.5c0,4.2,0.3,4.4,4.6,4.4
	C478.7,723.7,490.1,723.7,501.5,723.7z"/>
<path class="st0" d="M658.2,633.3c22,0,43.9,0,66.2,0c0,26.9,0,53.7,0,80.8c-20.1,0-40.1,0-60.3,0c-0.4-3.1-1.9-5.5-5.2-6.4
	c-0.6-0.2-1.2-1.4-1.2-2.1c0-23.9,0-47.7,0.1-71.6C657.7,633.9,657.8,633.8,658.2,633.3z M691.4,650.9c-7.1,0-14.3,0-21.4,0
	c-2.1,0-3.2,0.6-3.2,2.9c0.1,5.5,0.1,11,0,16.6c0,2,0.8,2.9,2.9,2.9c14.3,0,28.5,0,42.8,0c2.2,0,3.1-0.9,3-3.1
	c-0.1-5.3-0.1-10.6,0-15.9c0.1-2.5-0.8-3.5-3.4-3.4C705.2,651,698.3,650.9,691.4,650.9z"/>
<path class="st0" d="M621.2,718.5c13.2,0,26.2,0,39.5,0c0,20.9,0,41.7,0,62.8c-13.2,0-26.2,0-39.5,0
	C621.2,760.5,621.2,739.7,621.2,718.5z M640.9,749.5c4,0,8.1,0,12.1,0c2,0,3-0.6,3-2.8c-0.1-4-0.1-8.1,0-12.1c0-2.1-0.9-2.8-2.9-2.8
	c-8.1,0.1-16.1,0.1-24.2,0c-2.3,0-3,1.1-3,3.2c0.1,3.8,0.1,7.6,0,11.4c-0.1,2.5,1,3.2,3.3,3.2C633.1,749.5,637,749.5,640.9,749.5z"
	/>
<path class="st0" d="M582.1,648c4-0.1,7.5,3.3,7.6,7.4c0.1,4-3.3,7.5-7.4,7.6c-4,0.1-7.5-3.3-7.6-7.4C574.6,651.5,578,648,582.1,648
	z"/>
<path class="st0" d="M484.7,769.8c11.5,0,23,0,34.5,0c0.1,0.3,0.3,0.6,0.4,0.9c-1,0.5-2,1.5-3,1.6c-9.9,0.1-19.8,0.1-29.7,0
	c-0.9,0-1.8-1-2.8-1.5C484.4,770.5,484.5,770.1,484.7,769.8z"/>
<path class="st0" d="M696.4,722.5c0,3-2.2,5.1-5.3,5.1c-2.9-0.1-5.2-2.4-5.2-5.3c0.1-2.9,2.5-5.2,5.4-5.2
	C694.2,717.2,696.5,719.5,696.4,722.5z"/>
<path class="st0" d="M645.3,787.3c-2.2,1.6-3.5,3.3-4.4,3.1c-1.3-0.2-2.9-1.8-3.2-3c-0.2-0.8,1.7-2.8,2.8-2.9
	C641.7,784.3,643,785.8,645.3,787.3z"/>
<path class="st0" d="M630.9,713.7c5.7,0,11.5,0,17.2,0c0,0.3,0,0.6,0,0.8c-5.7,0-11.5,0-17.2,0C630.9,714.3,630.9,714,630.9,713.7z"
	/>
<g class="st1">
	
		<image style="overflow:visible;opacity:0.75;" width="2951" height="2807" xlink:href="DDCCB53.png"  transform="matrix(0.24 0 0 0.24 328.92 216.36)">
	</image>
	<g>
		<path class="st3" d="M737.5,868c0-10.5,0-20.9,0-31.8c18.2,0,36.3,0,54.7,0c0-111.3,0-222.2,0-333.3c-4.4-0.3-8.9-0.2-13.2-0.9
			c-16-2.3-27.9-10.7-35.8-24.8c-1.2-2.2-2.5-2.8-4.8-2.8c-105.2,0.1-210.3,0-315.5,0c-1.1,0-2.3,0.1-3.6,0.2
			c0,53.2,0,106.2,0,159.2c11.7,4.8,15.9,11.8,12.3,20.6c-3.4,8.3-12,11.3-21,7.3c-5.9,5.1-6.3,18-0.1,25.6
			c8.3,10.1,20.1,10,34.9-0.8c-0.2,5.1-2.4,9-5.6,12.3c-7.5,7.5-16.5,9.4-26.4,6.4c-9.5-2.9-15.8-9.5-18.3-19.1
			c-2.7-10.4-0.4-19.6,8-26.9c0.8-0.7,1.5-1.3,1.2-2.1c-0.1-4.1-0.9-8.4-0.2-12.3c0.5-2.7,2.8-5.6,5.1-7.4c2.4-1.9,3.1-3.6,3.1-6.5
			c-0.1-50.6-0.1-101.2-0.1-151.9c0-1.4,0-2.8,0-4.5c-25,0-49.7,0-75.2,0c0.9-1.4,1.4-2.2,2-3c14.7-18.9,29.4-37.8,44-56.9
			c1.6-2.1,3.3-2.4,5.6-2.4c45.2,0,90.4,0.1,135.6,0c2.1,0,4.6-0.7,6.4-1.9c91.6-58.2,183.1-116.5,274.5-174.8
			c1.5-1,2.7-2.9,3.5-4.6c1.5-3.3,3.8-4.6,7.3-4.8c2.2-0.2,4.4-1.2,6.6-1.8c0.2,0,0.5,0,0.7,0c1.1,0.6,2.2,1.7,3.4,1.8
			c4.9,0.7,6.4,2.2,7.5,7c0.3,1.6,1.1,3.3,2.2,4.4c51.4,51.9,102.8,103.7,154.2,155.6c8.2,8.2,16.2,16.6,24.3,24.9
			c0,17.8,0,35.5,0,53.3c-2.3,3.6-5.5,4.7-9.7,4.4c-3.6-0.2-7.1-0.1-10.7-0.1c-2.1,0-4.2,0-6.6,0c0,14.3,0,28,0,41.8
			c-7.7,0-15.1,0-22.9,0c0-14,0-27.8,0-41.6c-6.6,0-12.7,0-19.3,0c0,14,0,27.8,0,41.5c-7.8,0-15.2,0-22.9,0c0-14,0-27.6,0-41.5
			c-15.6,0-31,0-46.6,0c0,8.9,0,17.5,0,26.4c-8.1,0-15.9,0-23.8,0c0,111.3,0,222.2,0,333.6c19.4,0,38.6,0,57.9,0
			c0,10.9,0,21.3,0,31.8C852.8,868,795.2,868,737.5,868z M737.4,412.1c0-10.1-0.1-19.8,0-29.5c0.4-23.6,19.7-44.2,43.2-46.2
			c5.8-0.5,11.7-0.7,17.9-1c2.7-27.9,5.3-55.8,8.1-84.4c-84.4,53.7-168.2,107-252.1,160.4c0.1,0.2,0.2,0.4,0.3,0.6
			C615.6,412.1,676.3,412.1,737.4,412.1z M857.8,349.5c-0.6-0.2-0.8-0.4-1-0.4c-21.8,0.2-43.6-0.3-65.3,0.8
			c-14.8,0.7-27.1,7.6-33.6,21.8c-5.1,11.1-6.4,22.9-4,34.8c4.7,23.2,23.4,38.7,47.4,39.1c18,0.3,36,0.1,53.9,0
			c0.9,0,1.7-0.2,2.6-0.3C857.8,413.2,857.8,381.4,857.8,349.5z M965.7,387.6C923.4,345,880.6,301.8,837.1,258
			c3.1,26.5,6.2,52,9.2,77.8c10.1,0,19.9,0,30.2,0c0,26.1,0,51.8,0,77.7c15.7,0,31,0,46.7,0c0-8.2,0-16.2,0-24.2
			c7.8,0,15.1,0,22.7,0c0,8.1,0,16,0,24.2c6.6,0,12.8,0,19.7,0C965.7,405,965.7,396.8,965.7,387.6z M876.6,462c15.6,0,30.9,0,46.2,0
			c0-11.6,0-23,0-34.4c-15.5,0-30.8,0-46.2,0C876.6,439.2,876.6,450.4,876.6,462z M838.5,605c-9.4,7.2-18.2,14.1-27.1,20.8
			c-2,1.5-2.2,2.7-1.1,4.8c7.4,15.4,14.6,31,21.9,46.4c1.9,4.1,3.9,8.2,5.8,12.3c0.2,0,0.3-0.1,0.5-0.1
			C838.5,661.4,838.5,633.5,838.5,605z M636.1,460.6c25.3,0,49.4,0,74.3,0c-11.3-10.7-22-20.8-32.8-31.1
			C663.8,439.8,650.3,450,636.1,460.6z M837.9,587.9c0.2-0.1,0.4-0.1,0.6-0.2c0-24.8,0-49.6,0-75c-10,7.8-19.6,15.2-29.2,22.6
			C818.9,553,828.4,570.4,837.9,587.9z M532.2,460.1c0.1,0.2,0.1,0.3,0.2,0.5c26.5,0,53,0,80.2,0c-8.7-8.6-16.8-16.8-25-24.8
			c-0.6-0.6-2.4-0.5-3.3-0.1c-7.3,3.3-14.6,6.8-21.9,10.2C552.4,450.6,542.3,455.3,532.2,460.1z M570.6,426.8c0-0.2-0.1-0.4-0.1-0.5
			c-25.3,0-50.6,0-76.5,0c7.2,9.2,14,18,20.8,26.8C533.7,444.2,552.2,435.5,570.6,426.8z M809.8,737.3c9.3,12.4,18.8,25,28.6,38.1
			c0-22.8,0-44.7,0-66.7C828.9,718.3,819.5,727.6,809.8,737.3z M401.6,426.2c7.1,9.1,13.8,17.8,20.6,26.6c16-8.7,31.8-17.3,47.7-26
			c-0.1-0.2-0.2-0.4-0.2-0.6C447.2,426.2,424.8,426.2,401.6,426.2z M503,460.6c-0.8-1.2-1.3-2-1.9-2.8c-5.2-6.7-10.5-13.4-15.6-20.3
			c-1.5-2-2.5-2.2-4.7-1c-13.6,7.5-27.3,14.9-40.9,22.3c-0.7,0.4-1.4,0.9-2.7,1.8C459.5,460.6,481,460.6,503,460.6z M598.6,426.2
			c8.6,8.6,17.1,17.2,25.8,26c11.2-8.4,22.5-16.9,34.6-26C638.2,426.2,618.4,426.2,598.6,426.2z M806.6,818c9-9.6,17.5-18.5,26-27.5
			c-8.6-11.5-17-22.7-26-34.6C806.6,777,806.6,797,806.6,818z M388,431c-7.8,10.1-15.2,19.6-23,29.7c15.5,0,30.4,0,45.9,0
			C403.1,450.6,395.7,441,388,431z M965,462.1c0-11.7,0-23,0-34.4c-6.5,0-12.7,0-18.8,0c0,11.6,0,23,0,34.4
			C952.6,462.1,958.7,462.1,965,462.1z M827.3,698.8c-6.5-13.9-13.3-28.3-20.1-42.7c-0.2,0.1-0.4,0.2-0.6,0.3c0,21.1,0,42.2,0,63.2
			C813.5,712.7,820.3,705.9,827.3,698.8z M695,426.2c-0.2,0.3-0.4,0.6-0.6,0.9c1,0.8,2.1,1.5,3,2.3c9.1,8.6,18.3,17.2,27.3,25.9
			c1.1,1.1,2,2.5,3,3.7c0.5,0.6,1.1,1.2,1.7,1.7c0.4-0.8,1.1-1.6,1.1-2.4c0.1-10.1,0-20.3,0-30.4c0-0.5-0.2-1.1-0.3-1.7
			C718.3,426.2,706.7,426.2,695,426.2z M832.5,335.7c-1.3-11.1-2.6-21.9-3.9-32.4c-4.5,0-8.6,0-13.2,0c-1.1,10.9-2.1,21.5-3.2,32.4
			C819,335.7,825.5,335.7,832.5,335.7z M806.6,612.4c7.1-5.5,13.7-10.6,20.5-15.9c-6.7-12.3-13.3-24.4-19.9-36.5
			c-0.2,0.1-0.4,0.2-0.6,0.2C806.6,577.3,806.6,594.4,806.6,612.4z M988.3,427.6c0,11.7,0,23,0,34.5c4.4,0,8.5,0,12.7,0
			c0-11.6,0-22.9,0-34.5C996.7,427.6,992.6,427.6,988.3,427.6z M811.7,832.5c9.5,0,18,0,26.7,0c0-9.3,0-18.4,0-28.1
			C829.4,813.9,820.8,822.9,811.7,832.5z M821.7,245.6c-0.2,0-0.5,0.1-0.7,0.1c-1.4,14.5-2.7,28.9-4.1,43.6c3.6,0,6.7,0,10.1,0
			C825.2,274.5,823.4,260.1,821.7,245.6z M828.8,502.8c-7.9,0-15,0-22.1,0c0,5.6,0,11.1,0,17.1C814.1,514.2,821.2,508.7,828.8,502.8
			z"/>
	</g>
</g>
<path class="st4" d="M558.5,559.7h-27.1c-2.7,0-5-2.2-5-5l0,0c0-2.7,2.2-5,5-5h27.1c2.7,0,5,2.2,5,5l0,0
	C563.5,557.5,561.3,559.7,558.5,559.7z"/>
<path class="st4" d="M589,610.6h-17.2c-4.7,0-8.5-3.8-8.5-8.5l0,0c0-4.7,3.8-8.5,8.5-8.5H589c4.7,0,8.5,3.8,8.5,8.5l0,0
	C597.5,606.8,593.7,610.6,589,610.6z"/>
<path class="st4" d="M552.1,610.6h-17.2c-4.7,0-8.5-3.8-8.5-8.5l0,0c0-4.7,3.8-8.5,8.5-8.5h17.2c4.7,0,8.5,3.8,8.5,8.5l0,0
	C560.5,606.8,556.7,610.6,552.1,610.6z"/>
<path class="st4" d="M628.4,610.6h-17.2c-4.7,0-8.5-3.8-8.5-8.5l0,0c0-4.7,3.8-8.5,8.5-8.5h17.2c4.7,0,8.5,3.8,8.5,8.5l0,0
	C636.8,606.8,633,610.6,628.4,610.6z"/>
<path class="st5" d="M558.4,616h-31c-0.6,0-1-0.5-1-1l0,0c0-0.6,0.5-1,1-1h31c0.6,0,1,0.5,1,1l0,0C559.4,615.6,559,616,558.4,616z"
	/>
<path class="st5" d="M558.4,620.1h-31c-0.6,0-1-0.5-1-1l0,0c0-0.6,0.5-1,1-1h31c0.6,0,1,0.5,1,1l0,0
	C559.4,619.6,559,620.1,558.4,620.1z"/>
<path class="st5" d="M558.4,624.2h-31c-0.6,0-1-0.5-1-1l0,0c0-0.6,0.5-1,1-1h31c0.6,0,1,0.5,1,1l0,0
	C559.4,623.7,559,624.2,558.4,624.2z"/>
<path class="st5" d="M558.4,628.2h-31c-0.6,0-1-0.5-1-1l0,0c0-0.6,0.5-1,1-1h31c0.6,0,1,0.5,1,1l0,0
	C559.4,627.8,559,628.2,558.4,628.2z"/>
<path class="st5" d="M595.9,616.5h-31c-0.6,0-1-0.5-1-1l0,0c0-0.6,0.5-1,1-1h31c0.6,0,1,0.5,1,1l0,0
	C596.9,616,596.5,616.5,595.9,616.5z"/>
<path class="st5" d="M595.9,620.5h-31c-0.6,0-1-0.5-1-1l0,0c0-0.6,0.5-1,1-1h31c0.6,0,1,0.5,1,1l0,0
	C596.9,620.1,596.5,620.5,595.9,620.5z"/>
<path class="st5" d="M595.9,624.6h-31c-0.6,0-1-0.5-1-1l0,0c0-0.6,0.5-1,1-1h31c0.6,0,1,0.5,1,1l0,0
	C596.9,624.1,596.5,624.6,595.9,624.6z"/>
<path class="st5" d="M595.9,628.7h-31c-0.6,0-1-0.5-1-1l0,0c0-0.6,0.5-1,1-1h31c0.6,0,1,0.5,1,1l0,0
	C596.9,628.2,596.5,628.7,595.9,628.7z"/>
<path class="st5" d="M634.7,615.5h-31c-0.6,0-1-0.5-1-1l0,0c0-0.6,0.5-1,1-1h31c0.6,0,1,0.5,1,1l0,0
	C635.7,615,635.2,615.5,634.7,615.5z"/>
<path class="st5" d="M634.7,619.5h-31c-0.6,0-1-0.5-1-1v0c0-0.6,0.5-1,1-1h31c0.6,0,1,0.5,1,1v0
	C635.7,619.1,635.2,619.5,634.7,619.5z"/>
<path class="st5" d="M634.7,623.6h-31c-0.6,0-1-0.5-1-1l0,0c0-0.6,0.5-1,1-1h31c0.6,0,1,0.5,1,1l0,0
	C635.7,623.1,635.2,623.6,634.7,623.6z"/>
<path class="st5" d="M634.7,627.7h-31c-0.6,0-1-0.5-1-1l0,0c0-0.6,0.5-1,1-1h31c0.6,0,1,0.5,1,1l0,0
	C635.7,627.2,635.2,627.7,634.7,627.7z"/>
<path class="st5" d="M620.4,632.1h-17c-0.4,0-0.8-0.4-0.8-0.8l0,0c0-0.4,0.4-0.8,0.8-0.8h17c0.4,0,0.8,0.4,0.8,0.8l0,0
	C621.2,631.7,620.9,632.1,620.4,632.1z"/>
<path class="st5" d="M581.2,632.1h-17c-0.4,0-0.8-0.4-0.8-0.8l0,0c0-0.4,0.4-0.8,0.8-0.8h17c0.4,0,0.8,0.4,0.8,0.8l0,0
	C582,631.7,581.7,632.1,581.2,632.1z"/>
<path class="st5" d="M544.2,632.1h-17c-0.4,0-0.8-0.4-0.8-0.8l0,0c0-0.4,0.4-0.8,0.8-0.8h17c0.4,0,0.8,0.4,0.8,0.8l0,0
	C545,631.7,544.6,632.1,544.2,632.1z"/>
<path class="st6" d="M624.8,591.4h-86.4c-6.6,0-12-5.4-12-12v-4.3c0-6.6,5.4-12,12-12h86.4c6.6,0,12,5.4,12,12v4.3
	C636.8,586,631.4,591.4,624.8,591.4z"/>
<path class="st4" d="M484.9,695.3h-18.1c-2.2,0-4-1.8-4-4v0c0-2.2,1.8-4,4-4h18.1c2.2,0,4,1.8,4,4v0
	C488.9,693.6,487.1,695.3,484.9,695.3z"/>
<path class="st6" d="M529,722h-54.5c-6.4,0-11.6-5.2-11.6-11.6v0c0-6.4,5.2-11.6,11.6-11.6H529c6.4,0,11.6,5.2,11.6,11.6v0
	C540.7,716.8,535.4,722,529,722z"/>
<path class="st4" d="M469.8,723.8H480c3.8,0,6.9,3.1,6.9,6.9l0,0c0,3.8-3.1,6.9-6.9,6.9h-10.2c-3.8,0-6.9-3.1-6.9-6.9l0,0
	C462.9,726.9,466,723.8,469.8,723.8z"/>
<path class="st4" d="M496.7,723.8h10.2c3.8,0,6.9,3.1,6.9,6.9l0,0c0,3.8-3.1,6.9-6.9,6.9h-10.2c-3.8,0-6.9-3.1-6.9-6.9l0,0
	C489.8,726.9,492.9,723.8,496.7,723.8z"/>
<path class="st4" d="M523.6,723.8h10.2c3.8,0,6.9,3.1,6.9,6.9l0,0c0,3.8-3.1,6.9-6.9,6.9h-10.2c-3.8,0-6.9-3.1-6.9-6.9l0,0
	C516.7,726.9,519.8,723.8,523.6,723.8z"/>
<path class="st5" d="M486.1,742.4h-22.4c-0.4,0-0.8-0.4-0.8-0.8l0,0c0-0.4,0.4-0.8,0.8-0.8h22.4c0.4,0,0.8,0.4,0.8,0.8l0,0
	C486.9,742,486.5,742.4,486.1,742.4z"/>
<path class="st5" d="M486.1,746h-22.4c-0.4,0-0.8-0.4-0.8-0.8l0,0c0-0.4,0.4-0.8,0.8-0.8h22.4c0.4,0,0.8,0.4,0.8,0.8l0,0
	C486.9,745.6,486.5,746,486.1,746z"/>
<path class="st5" d="M486.1,749.6h-22.4c-0.4,0-0.8-0.4-0.8-0.8l0,0c0-0.4,0.4-0.8,0.8-0.8h22.4c0.4,0,0.8,0.4,0.8,0.8l0,0
	C486.9,749.2,486.5,749.6,486.1,749.6z"/>
<path class="st5" d="M486.1,752.9h-22.4c-0.4,0-0.8-0.4-0.8-0.8l0,0c0-0.4,0.4-0.8,0.8-0.8h22.4c0.4,0,0.8,0.4,0.8,0.8l0,0
	C486.9,752.5,486.5,752.9,486.1,752.9z"/>
<path class="st5" d="M513,742.4h-22.4c-0.4,0-0.8-0.4-0.8-0.8l0,0c0-0.4,0.4-0.8,0.8-0.8H513c0.4,0,0.8,0.4,0.8,0.8l0,0
	C513.8,742,513.4,742.4,513,742.4z"/>
<path class="st5" d="M513,746h-22.4c-0.4,0-0.8-0.4-0.8-0.8l0,0c0-0.4,0.4-0.8,0.8-0.8H513c0.4,0,0.8,0.4,0.8,0.8l0,0
	C513.8,745.6,513.4,746,513,746z"/>
<path class="st5" d="M513,749.6h-22.4c-0.4,0-0.8-0.4-0.8-0.8l0,0c0-0.4,0.4-0.8,0.8-0.8H513c0.4,0,0.8,0.4,0.8,0.8l0,0
	C513.8,749.2,513.4,749.6,513,749.6z"/>
<path class="st5" d="M513,752.9h-22.4c-0.4,0-0.8-0.4-0.8-0.8l0,0c0-0.4,0.4-0.8,0.8-0.8H513c0.4,0,0.8,0.4,0.8,0.8l0,0
	C513.8,752.5,513.4,752.9,513,752.9z"/>
<path class="st5" d="M539.9,742.4h-22.4c-0.4,0-0.8-0.4-0.8-0.8l0,0c0-0.4,0.4-0.8,0.8-0.8h22.4c0.4,0,0.8,0.4,0.8,0.8l0,0
	C540.7,742,540.3,742.4,539.9,742.4z"/>
<path class="st5" d="M539.9,746h-22.4c-0.4,0-0.8-0.4-0.8-0.8l0,0c0-0.4,0.4-0.8,0.8-0.8h22.4c0.4,0,0.8,0.4,0.8,0.8l0,0
	C540.7,745.6,540.3,746,539.9,746z"/>
<path class="st5" d="M539.9,749.6h-22.4c-0.4,0-0.8-0.4-0.8-0.8l0,0c0-0.4,0.4-0.8,0.8-0.8h22.4c0.4,0,0.8,0.4,0.8,0.8l0,0
	C540.7,749.2,540.3,749.6,539.9,749.6z"/>
<path class="st5" d="M539.9,752.9h-22.4c-0.4,0-0.8-0.4-0.8-0.8l0,0c0-0.4,0.4-0.8,0.8-0.8h22.4c0.4,0,0.8,0.4,0.8,0.8l0,0
	C540.7,752.5,540.3,752.9,539.9,752.9z"/>
<path class="st5" d="M475.4,756.1h-11.9c-0.3,0-0.6-0.3-0.6-0.6l0,0c0-0.3,0.3-0.6,0.6-0.6h11.9c0.3,0,0.6,0.3,0.6,0.6l0,0
	C476,755.9,475.7,756.1,475.4,756.1z"/>
<path class="st5" d="M502.3,756.1h-11.9c-0.3,0-0.6-0.3-0.6-0.6l0,0c0-0.3,0.3-0.6,0.6-0.6h11.9c0.3,0,0.6,0.3,0.6,0.6l0,0
	C502.9,755.9,502.6,756.1,502.3,756.1z"/>
<path class="st5" d="M529.2,756.1h-11.9c-0.3,0-0.6-0.3-0.6-0.6l0,0c0-0.3,0.3-0.6,0.6-0.6h11.9c0.3,0,0.6,0.3,0.6,0.6l0,0
	C529.8,755.9,529.5,756.1,529.2,756.1z"/>
<path class="st4" d="M688.5,645.3h-18.3c-2.1,0-3.8-1.7-3.8-3.8l0,0c0-2.1,1.7-3.8,3.8-3.8h18.3c2.1,0,3.8,1.7,3.8,3.8l0,0
	C692.3,643.6,690.6,645.3,688.5,645.3z"/>
<path class="st6" d="M704.6,671.2h-26.8c-6.3,0-11.4-5.1-11.4-11.4l0,0c0-6.3,5.1-11.4,11.4-11.4h26.8c6.3,0,11.4,5.1,11.4,11.4l0,0
	C716,666.1,710.9,671.2,704.6,671.2z"/>
<path class="st4" d="M683.4,687h-10.3c-3.7,0-6.7-3-6.7-6.7l0,0c0-3.7,3-6.7,6.7-6.7h10.3c3.7,0,6.7,3,6.7,6.7l0,0
	C690.1,684,687.1,687,683.4,687z"/>
<path class="st4" d="M709.7,687h-10.3c-3.7,0-6.7-3-6.7-6.7l0,0c0-3.7,3-6.7,6.7-6.7h10.3c3.7,0,6.7,3,6.7,6.7l0,0
	C716.4,684,713.4,687,709.7,687z"/>
<path class="st5" d="M689.3,692.2h-22c-0.5,0-0.8-0.4-0.8-0.8l0,0c0-0.5,0.4-0.8,0.8-0.8h22c0.5,0,0.8,0.4,0.8,0.8l0,0
	C690.1,691.9,689.7,692.2,689.3,692.2z"/>
<path class="st5" d="M689.3,695.3h-22c-0.5,0-0.8-0.4-0.8-0.8l0,0c0-0.5,0.4-0.8,0.8-0.8h22c0.5,0,0.8,0.4,0.8,0.8l0,0
	C690.1,694.9,689.7,695.3,689.3,695.3z"/>
<path class="st5" d="M689.3,698.3h-22c-0.5,0-0.8-0.4-0.8-0.8l0,0c0-0.5,0.4-0.8,0.8-0.8h22c0.5,0,0.8,0.4,0.8,0.8l0,0
	C690.1,698,689.7,698.3,689.3,698.3z"/>
<path class="st5" d="M689.3,701.4h-22c-0.5,0-0.8-0.4-0.8-0.8l0,0c0-0.5,0.4-0.8,0.8-0.8h22c0.5,0,0.8,0.4,0.8,0.8l0,0
	C690.1,701,689.7,701.4,689.3,701.4z"/>
<path class="st5" d="M715.5,692.2h-22c-0.5,0-0.8-0.4-0.8-0.8l0,0c0-0.5,0.4-0.8,0.8-0.8h22c0.5,0,0.8,0.4,0.8,0.8l0,0
	C716.4,691.9,716,692.2,715.5,692.2z"/>
<path class="st5" d="M715.5,695.3h-22c-0.5,0-0.8-0.4-0.8-0.8l0,0c0-0.5,0.4-0.8,0.8-0.8h22c0.5,0,0.8,0.4,0.8,0.8l0,0
	C716.4,694.9,716,695.3,715.5,695.3z"/>
<path class="st5" d="M715.5,698.3h-22c-0.5,0-0.8-0.4-0.8-0.8l0,0c0-0.5,0.4-0.8,0.8-0.8h22c0.5,0,0.8,0.4,0.8,0.8l0,0
	C716.4,698,716,698.3,715.5,698.3z"/>
<path class="st5" d="M715.5,701.4h-22c-0.5,0-0.8-0.4-0.8-0.8l0,0c0-0.5,0.4-0.8,0.8-0.8h22c0.5,0,0.8,0.4,0.8,0.8l0,0
	C716.4,701,716,701.4,715.5,701.4z"/>
<path class="st5" d="M678.6,705.5h-11.4c-0.4,0-0.8-0.3-0.8-0.8l0,0c0-0.4,0.3-0.8,0.8-0.8h11.4c0.4,0,0.8,0.3,0.8,0.8l0,0
	C679.4,705.1,679,705.5,678.6,705.5z"/>
<path class="st5" d="M704.9,705.5h-11.4c-0.4,0-0.8-0.3-0.8-0.8l0,0c0-0.4,0.3-0.8,0.8-0.8h11.4c0.4,0,0.8,0.3,0.8,0.8l0,0
	C705.6,705.1,705.3,705.5,704.9,705.5z"/>
<path class="st4" d="M653.8,727h-25.3c-1.6,0-2.9-1.3-2.9-2.9l0,0c0-1.6,1.3-2.9,2.9-2.9h25.3c1.6,0,2.9,1.3,2.9,2.9l0,0
	C656.7,725.7,655.4,727,653.8,727z"/>
<path class="st6" d="M647.6,747.8h-12.7c-5,0-9.2-4.1-9.2-9.2v0c0-5,4.1-9.2,9.2-9.2h12.7c5,0,9.2,4.1,9.2,9.2v0
	C656.7,743.7,652.6,747.8,647.6,747.8z"/>
<path class="st4" d="M651.5,760.6H631c-2.9,0-5.3-2.4-5.3-5.3l0,0c0-2.9,2.4-5.3,5.3-5.3h20.5c2.9,0,5.3,2.4,5.3,5.3l0,0
	C656.7,758.2,654.4,760.6,651.5,760.6z"/>
<path class="st5" d="M651.3,774.3h-20.2c-3,0-5.4-2.4-5.4-5.4l0,0c0-3,2.4-5.4,5.4-5.4h20.2c3,0,5.4,2.4,5.4,5.4l0,0
	C656.7,771.8,654.3,774.3,651.3,774.3z"/>
<g class="st1">
	
		<image style="overflow:visible;opacity:0.75;" width="639" height="639" xlink:href="DDCCB54.png"  transform="matrix(0.24 0 0 0.24 215.64 502.2)">
	</image>
	<g>
		<path class="st7" d="M346.8,558.4c-5.6,2.7-11.1,5.5-16.7,8.2c-0.3,0.2-0.6,0.8-0.6,1.2c0.3,4.3,0.3,8.6-0.7,12.8
			c-0.2,1,0.1,1.6,0.9,2.1c4.7,3,9.3,6,14,9c0.8,0.5,1.2,1,0.7,2c-1.8,3.7-3.6,7.5-5.4,11.2c-0.4,0.8-0.9,0.9-1.8,0.6
			c-5.3-1.8-10.7-3.6-16-5.4c-0.9-0.3-1.4-0.3-2,0.5c-2.7,3.3-5.9,6.1-9.5,8.5c-0.7,0.5-1,0.9-0.7,1.8c1.3,5.5,2.4,11,3.6,16.5
			c0.2,1,0.1,1.6-0.9,1.9c-3.9,1.3-7.8,2.7-11.7,4.1c-0.9,0.3-1.3,0-1.7-0.8c-2.5-5.1-5-10.1-7.5-15.2c-0.4-0.8-0.8-1.1-1.7-1
			c-4.4,0.3-8.8,0.2-13.1-0.8c-0.8-0.2-1.2,0.2-1.5,0.8c-3,4.7-6,9.4-9,14c-0.3,0.4-0.6,0.8-0.9,1.3c-4.6-1.5-8.8-3.5-12.8-6.1
			c-0.3-0.2-0.4-1-0.2-1.4c1.8-5.4,3.6-10.9,5.5-16.3c0.3-0.8,0.1-1.2-0.5-1.8c-3.3-2.7-6.2-5.9-8.6-9.6c-0.5-0.7-0.9-1-1.8-0.7
			c-5.5,1.3-11,2.4-16.5,3.6c-0.9,0.2-1.6,0.2-1.9-0.9c-1.3-3.9-2.6-7.7-4-11.6c-0.4-1.1,0-1.5,0.9-1.9c5-2.5,10-5,15.1-7.4
			c0.8-0.4,1.1-0.8,1.1-1.8c-0.3-4.3-0.2-8.6,0.8-12.8c0.2-0.8,0-1.2-0.7-1.7c-4.8-3-9.5-6.1-14.3-9.1c-0.9-0.6-1.1-1-0.7-2
			c1.9-4,3.7-8.1,5.7-12.3c3.1,1.1,5.9,2,8.7,2.9c3,1,6.1,2,9.1,3.1c0.7,0.3,1.2,0.1,1.7-0.5c2.8-3.4,6.1-6.3,9.8-8.7
			c0.6-0.4,0.7-0.8,0.6-1.5c-1.2-5.5-2.4-11.1-3.6-16.7c-0.1-0.7-0.4-1.3,0.5-1.7c4.2-1.9,8.6-3.5,13.3-4.5c1.6,3.1,3.1,6.2,4.6,9.3
			c1.2,2.4,2.4,4.9,3.6,7.3c0.2,0.4,0.8,0.8,1.2,0.8c4.7-0.5,9.4-0.1,14.2,0.9c3.5-5.4,7-10.8,10.6-16.4c2.8,1.3,5.6,2.5,8.4,3.8
			c1.4,0.7,2.7,1.5,4,2.3c0.8,0.4,0.9,0.8,0.6,1.7c-1.9,5.4-3.6,10.8-5.5,16.1c-0.3,0.9-0.2,1.4,0.5,2c3.3,2.7,6.1,5.9,8.5,9.5
			c0.4,0.7,0.8,0.9,1.7,0.7c5.5-1.3,11.1-2.4,16.6-3.7c0.9-0.2,1.5-0.1,1.8,0.9c1.3,3.9,2.7,7.7,4.1,11.6c0.1,0.2,0.2,0.4,0.3,0.6
			C346.8,557.8,346.8,558.1,346.8,558.4z M285.2,592.7c11.4,0,20.7-9.1,20.7-20.4c0-11.6-9.2-20.9-20.6-20.9
			c-11.4,0-20.7,9.2-20.7,20.6C264.6,583.5,273.7,592.7,285.2,592.7z"/>
	</g>
</g>
<g class="st1">
	
		<image style="overflow:visible;opacity:0.75;" width="879" height="879" xlink:href="DDCCB57.png"  transform="matrix(0.24 0 0 0.24 55.08 520.2)">
	</image>
	<g>
		<path class="st3" d="M82.7,633.9c-5.7-0.2-11.7-0.3-18.1-0.5c-0.4-5.1-0.8-10.2-1.2-15.5c2.2-0.4,4.2-0.8,6.1-1.2
			c3.8-0.7,7.5-1.3,11.3-2c0.4-0.1,0.9-0.7,0.9-1.1c0.5-5.6,1.5-11,3.1-16.3c0.1-0.3-0.4-1.1-0.8-1.3c-4.4-2.8-8.8-5.5-13.2-8.2
			c-0.4-0.3-0.9-0.6-1.6-1c2.2-4.6,4.4-9.2,6.7-14c6,2.1,11.7,4.2,17.4,6.2c1.9-2.4,3.7-4.9,5.6-7.2c2-2.3,4.1-4.4,6.3-6.7
			c-2.8-5.3-5.7-10.6-8.7-16.2c4.3-2.9,8.5-5.8,12.8-8.8c2.5,2.9,4.7,5.6,7,8.2c1.5,1.7,3,3.4,4.3,5.1c0.6,0.7,1,0.7,1.8,0.3
			c4.8-2.4,9.9-4.2,15.1-5.3c0.8-0.2,1.1-0.6,1.1-1.4c0.1-5.2,0.3-10.5,0.4-15.7c0-1.1,0.3-1.6,1.5-1.7c4.6-0.4,9.3-0.8,14-1.3
			c0.6,3.4,1.2,6.4,1.8,9.5c0.5,2.7,0.9,5.3,1.5,8c0.1,0.4,0.6,0.9,0.9,1c5.8,0.4,11.5,1.6,17.2,3.4c3.2-5.2,6.4-10.3,9.8-15.8
			c4.6,2.2,9.3,4.4,14,6.7c-2.1,6-4.2,11.7-6.1,17.1c4.7,4,9.3,8,14,12.1c2.2-1.2,4.8-2.6,7.3-3.9c2.5-1.3,5-2.7,7.5-4.1
			c0.7-0.4,1.1-0.4,1.6,0.3c2.7,3.9,5.5,7.9,8.4,11.9c-2.4,2-4.5,3.8-6.6,5.6c-2.3,1.9-4.6,3.9-6.8,5.8c-0.3,0.3-0.6,1-0.5,1.3
			c2.5,5.2,4.3,10.6,5.6,16.2c0,0.1,0.1,0.2,0.2,0.3c6,0.2,12.1,0.4,18.3,0.6c0.3,2.5,0.7,5,0.9,7.4c0.2,2.3,0.2,4.7,0.3,7
			c0.1,0.9-0.3,1.2-1.2,1.3c-5.6,1-11.3,2-16.6,3c-1.2,6.1-2.3,12.1-3.5,18.2c4.9,3,10,6.2,15.5,9.6c-2.2,4.7-4.5,9.3-6.7,14
			c-4.4-1.6-8.5-3-12.5-4.5c-1.4-0.5-2.7-1-4.1-1.4c-0.4-0.1-1.1,0.1-1.4,0.4c-3.2,4.7-6.9,8.9-11.1,12.8c-0.1,0.1-0.2,0.2-0.3,0.4
			c2.9,5.3,5.7,10.7,8.7,16.3c-3.3,2.3-6.5,4.6-9.8,6.7c-3,2-3.1,1.9-5.5-0.9c-3.2-3.7-6.3-7.4-9.3-10.9c-5.8,2.1-11.5,4.1-17.4,6.1
			c-0.2,5.7-0.4,11.8-0.6,18.2c-4.9,0.3-9.7,0.6-14.6,0.9c-0.9,0.1-1-0.4-1.2-1.2c-0.9-5.2-1.9-10.5-2.8-15.7
			c-0.2-0.9-0.5-1.4-1.5-1.4c-5.2-0.2-10.4-1.3-15.4-2.9c-1-0.3-1.5-0.2-2,0.7c-2.9,4.8-5.9,9.6-9.1,14.7c-3.7-1.7-7.3-3.4-10.9-5.2
			c-3-1.6-3-1.7-1.8-4.9c1.5-4.3,3.1-8.7,4.6-13c0.1-0.4,0.1-1.2-0.2-1.4c-4.8-3.3-9.2-7.1-13.2-11.5c-5.4,2.9-10.7,5.8-16.4,8.8
			c-2.9-4.3-5.8-8.5-8.8-12.8c4.8-4.1,9.5-8,13.9-11.8C86.8,645.6,84.8,639.9,82.7,633.9z M117.2,618.8
			c-0.2,19.8,16.1,36.3,36.1,36.5c20,0.2,36.2-15.6,36.8-35.2c0.7-21.2-16.3-37.5-36-37.6C133.8,582.3,117.4,598.4,117.2,618.8z"/>
	</g>
</g>
</svg>
